<?xml version="1.0" encoding="UTF-8"?>
<svg width="177px" height="59px" viewBox="0 0 177 59" version="1.1" xmlns="http://www.w3.org/2000/svg" xmlns:xlink="http://www.w3.org/1999/xlink">
    <!-- Generator: Sketch 51.3 (57544) - http://www.bohemiancoding.com/sketch -->
    <title>logo google</title>
    <desc>Created with Sketch.</desc>
    <defs></defs>
    <g id="Page-2" stroke="none" stroke-width="1" fill="none" fill-rule="evenodd">
        <g id="05.Google-adwordS-&amp;-GDN" transform="translate(-632.000000, -219.000000)">
            <g id="Group-12" transform="translate(-3369.000000, -1377.000000)">
                <g id="logo-google" transform="translate(4001.000000, 1596.000000)">
                    <path d="M121.757327,31.4273154 C123.061547,30.123095 123.164127,28.3059789 123.164127,27.2948417 C123.164127,23.2063306 120.731536,16.8610785 116.02755,16.8610785 C114.547479,16.8610785 112.96483,17.5937866 112.056272,18.7368113 C111.089097,19.9237984 110.810668,21.4624853 110.810668,22.9279015 C110.810668,26.7233294 113.023447,33.024619 117.903283,33.024619 C119.310082,33.024619 120.848769,32.3358734 121.757327,31.4273154 Z M120.101407,42.2127784 C119.647128,42.1541618 119.368699,42.1541618 118.797186,42.1541618 C118.284291,42.1541618 115.221571,42.2713951 112.847597,43.0627198 C111.601993,43.5169988 107.967761,44.8798359 107.967761,48.8950762 C107.967761,52.9103165 111.880422,55.8118406 117.947245,55.8118406 C123.383939,55.8118406 126.285463,53.2033998 126.285463,49.6864009 C126.285463,46.7995311 124.424385,45.2608441 120.101407,42.2127784 Z M124.131301,17.0369285 C125.435522,18.1213365 128.161196,20.3780774 128.161196,24.6864009 C128.161196,28.8774912 125.787222,30.8704572 123.398593,32.7315358 C122.665885,33.4642438 121.815944,34.2702227 121.815944,35.5158265 C121.815944,36.7614302 122.665885,37.4355217 123.296014,37.9484174 L125.332943,39.5310668 C127.82415,41.626612 130.095545,43.5609613 130.095545,47.4736225 C130.095545,52.8077374 124.93728,58.1858148 115.192263,58.1858148 C106.971278,58.1858148 103,54.2731536 103,50.0820633 C103,48.0451348 104.011137,45.1582649 107.36694,43.1652989 C110.883939,41.0111372 115.646542,40.7327081 118.196366,40.5568581 C117.405041,39.5310668 116.496483,38.461313 116.496483,36.7028136 C116.496483,35.7356389 116.774912,35.1787808 117.067995,34.4900352 C116.437866,34.5486518 115.822392,34.6072685 115.250879,34.6072685 C109.242673,34.6072685 105.842907,30.123095 105.842907,25.7121923 C105.842907,23.1037515 107.029894,20.2168816 109.462485,18.1213365 C112.701055,15.454279 116.5551,15 119.617819,15 L131.297186,15 L127.662954,17.0369285 L124.131301,17.0369285 Z" id="Fill-34" fill="#4A90E2"></path>
                    <path d="M95.8821805,36.5234467 C97.2450176,34.7063306 97.5820633,32.4495897 97.5820633,30.2368113 C97.5820633,25.2543962 95.2080891,15.7438453 88.1887456,15.7438453 C86.3276671,15.7438453 84.4519343,16.4765533 83.1037515,17.6781946 C80.890973,19.6565064 80.4953107,22.147714 80.4953107,24.5803048 C80.4953107,30.1781946 83.2649472,39.3956624 90.123095,39.3956624 C92.3065651,39.4103165 94.5779601,38.3259086 95.8821805,36.5234467 M88.8042204,41.1101993 C79.8065651,41.1101993 75,34.0908558 75,27.7456038 C75,20.3305979 81.0521688,14 89.6688159,14 C97.9777257,14 103.194607,20.5064478 103.194607,27.3499414 C103.179953,34.0322392 98.0363423,41.1101993 88.8042204,41.1101993" id="Fill-36" fill="#FFBB4C"></path>
                    <path d="M64.8675264,36.5234467 C66.2303634,34.7063306 66.5674091,32.4495897 66.5674091,30.2368113 C66.5674091,25.2543962 64.1934349,15.7438453 57.1740914,15.7438453 C55.3130129,15.7438453 53.4372802,16.4765533 52.0744431,17.6781946 C49.8616647,19.6565064 49.4660023,22.147714 49.4660023,24.5803048 C49.4660023,30.1781946 52.2356389,39.3956624 59.0937866,39.3956624 C61.3065651,39.4103165 63.5779601,38.3259086 64.8675264,36.5234467 M57.8042204,41.1101993 C48.8065651,41.1101993 44,34.0908558 44,27.7456038 C44,20.3305979 50.0521688,14 58.6541618,14 C66.9777257,14 72.1799531,20.5064478 72.1799531,27.3499414 C72.1799531,34.0322392 67.0216882,41.1101993 57.8042204,41.1101993" id="Fill-38" fill="#E5001C"></path>
                    <path d="M39.1998828,40.038687 L31.066823,41.9144197 C27.7696366,42.4273154 24.8094959,42.8815944 21.6735053,42.8815944 C5.97889801,42.8815944 0,31.3341149 0,22.2778429 C0,11.2432591 8.47010551,1 22.9923798,1 C26.0697538,1 29.0298945,1.45427902 31.6969519,2.1869871 C35.961313,3.40328253 37.954279,4.86869871 39.1998828,5.73329426 L34.4812427,10.2321219 L32.4882767,10.6864009 L33.9097304,8.41500586 C31.975381,6.53927315 28.443728,3.06623681 21.7321219,3.06623681 C12.7491208,3.05158265 5.97889801,9.88042204 5.97889801,19.8452521 C5.97889801,30.5427902 13.7162954,40.6101993 26.1137163,40.6101993 C29.7626026,40.6101993 31.6383353,39.8774912 33.3382181,39.1887456 L33.3382181,30.0298945 L24.7508792,30.4841735 L29.3083236,28.0369285 L41.3686987,28.0369285 L39.8886284,29.4583822 C39.492966,29.7954279 39.4343494,29.9126612 39.3171161,30.3669402 C39.2584994,30.8798359 39.1998828,32.5357562 39.1998828,33.1072685 L39.1998828,40.038687 Z" id="Fill-40" fill="#4A90E2"></path>
                    <path d="M142.075029,38.6576788 C140.199297,38.4818288 139.803634,38.1447831 139.803634,35.9173505 L139.803634,35.2872216 L139.803634,3.72215709 C139.818288,3.6049238 139.818288,3.47303634 139.832943,3.35580305 C140.067409,1.36283705 140.638921,1.02579132 142.397421,0 L134.264361,0 L130,2.05158265 L134.352286,2.05158265 L134.352286,2.08089097 L134.352286,2.06623681 L134.352286,35.3165299 L134.352286,37.1922626 C134.352286,38.3352872 134.132474,38.496483 132.813599,40.2110199 L142.881008,40.2110199 L144.991208,38.9654162 C144.024033,38.8335287 143.056858,38.7749121 142.075029,38.6576788" id="Fill-42" fill="#56A100"></path>
                    <path d="M160.313599,22.2649472 C161.383353,21.8692849 161.954865,21.5322392 161.954865,20.7409144 C161.954865,18.4841735 159.419695,15.8757327 156.356975,15.8757327 C154.100234,15.8757327 149.865182,17.6342321 149.865182,23.7303634 C149.865182,24.6975381 149.982415,25.7086753 150.041032,26.7344666 L160.313599,22.2649472 Z M165.618406,39.1025791 C165.002931,39.4396249 164.372802,39.8352872 163.757327,40.1137163 C161.881594,40.9636577 159.961899,41.1834701 158.276671,41.1834701 C156.474209,41.1834701 153.645955,41.0662368 150.759086,38.9853458 C146.743845,36.1570926 145,31.2919109 145,27.0568581 C145,18.2936694 152.121923,14 157.939625,14 C159.976553,14 162.072098,14.5128957 163.757327,15.5826495 C166.58558,17.443728 167.318288,19.8763189 167.713951,21.1805393 L154.43728,26.5439625 L150.084994,26.8810082 C151.491794,34.0615475 156.356975,38.2379836 161.720399,38.2379836 C164.607268,38.2379836 166.688159,37.2268464 168.607855,36.2596717 L165.618406,39.1025791 Z" id="Fill-44" fill="#E5001C"></path>
                    <polygon id="Fill-46" fill="#9B9B9B" points="170.685229 14.3810082 170.685229 18.1031653 170.23095 18.1031653 170.23095 14.3810082 169 14.3810082 169 14 171.916178 14 171.916178 14.3810082"></polygon>
                    <polygon id="Fill-48" fill="#9B9B9B" points="176.092028 18.1178195 176.092028 14.3516999 176.077374 14.3516999 174.934349 18.1178195 174.582649 18.1178195 173.424971 14.3516999 173.410317 14.3516999 173.410317 18.1178195 173 18.1178195 173 14 173.7034 14 174.758499 17.3264947 174.773154 17.3264947 175.798945 14 176.516999 14 176.516999 18.1178195"></polygon>
                </g>
            </g>
        </g>
    </g>
</svg>