<?xml version="1.0" encoding="UTF-8"?>
<svg width="196px" height="198px" viewBox="0 0 196 198" version="1.1" xmlns="http://www.w3.org/2000/svg" xmlns:xlink="http://www.w3.org/1999/xlink">
    <!-- Generator: Sketch 51.3 (57544) - http://www.bohemiancoding.com/sketch -->
    <title>Group 5</title>
    <desc>Created with Sketch.</desc>
    <defs>
        <linearGradient x1="101.999998%" y1="0%" x2="0%" y2="100%" id="linearGradient-1">
            <stop stop-color="#C33764" offset="0%"></stop>
            <stop stop-color="#1D2671" offset="100%"></stop>
        </linearGradient>
        <circle id="path-2" cx="60" cy="60" r="60"></circle>
        <filter x="-52.1%" y="-47.9%" width="204.2%" height="204.2%" filterUnits="objectBoundingBox" id="filter-3">
            <feOffset dx="0" dy="5" in="SourceAlpha" result="shadowOffsetOuter1"></feOffset>
            <feGaussianBlur stdDeviation="20" in="shadowOffsetOuter1" result="shadowBlurOuter1"></feGaussianBlur>
            <feColorMatrix values="0 0 0 0 0.607843137   0 0 0 0 0.607843137   0 0 0 0 0.607843137  0 0 0 0.5 0" type="matrix" in="shadowBlurOuter1"></feColorMatrix>
        </filter>
    </defs>
    <g id="Page-2" stroke="none" stroke-width="1" fill="none" fill-rule="evenodd">
        <g id="18.Cộng-tác-viên-2" transform="translate(-622.000000, -378.000000)">
            <g id="Group-5" transform="translate(660.000000, 412.000000)">
                <g id="Oval-3">
                    <use fill="black" fill-opacity="1" filter="url(#filter-3)" xlink:href="#path-2"></use>
                    <use fill="url(#linearGradient-1)" fill-rule="evenodd" xlink:href="#path-2"></use>
                </g>
                <path d="M81.2002052,59.1724203 L73.0682589,59.1724203 L65.8021405,51.9064349 C65.3868463,51.4911407 64.7134395,51.4911407 64.2980123,51.9064349 L58.7659431,57.4383711 C58.350516,57.8536653 57.6771091,57.8536653 57.261682,57.4383711 L54.6532943,54.8298504 L62.013961,47.4702476 L67.2478907,47.4702476 C68.3496237,47.4655933 69.4177129,47.0909908 70.2810141,46.4064137 L81.2246733,46.4064137 L81.2002052,59.1724203 Z M73.0415301,64.8969105 L62.5522609,75.3852488 C62.0909559,75.8458889 61.4287193,76.0433631 60.790552,75.9107828 L62.6618358,74.0426905 C64.2494749,72.4565141 64.2509377,69.8833659 62.6646284,68.2955938 C62.6636975,68.294663 62.6628996,68.2937321 62.6618358,68.2926683 L52.1734975,57.8032661 C50.5841296,56.2182866 48.0116463,56.2182866 46.4224115,57.8032661 L44.3243981,59.8936997 L43.9096358,59.4798683 C43.710167,59.2803995 43.4396872,59.168165 43.1573723,59.168165 L38.6383389,59.168165 L38.6383389,46.4021583 L51.4724309,46.4064137 C51.7544799,46.4064137 52.0250926,46.2941792 52.2245615,46.0947103 L56.5106153,41.8085236 L70.0840719,41.8085236 L70.0840719,42.5063986 C70.0824761,44.0722291 68.8137212,45.34125 67.2478907,45.3436436 L61.9234021,45.3436436 C61.827923,45.3002924 61.7220715,45.2848668 61.6180818,45.2989626 C61.3358998,45.2989626 61.065553,45.4111971 60.8660842,45.6106659 L52.3967696,54.0787837 C51.9814755,54.4942108 51.9814755,55.1676177 52.3967696,55.5830448 L55.7574209,58.9436961 C57.0037023,60.1895785 59.0239228,60.1895785 60.2702042,58.9436961 L65.0501429,54.1638904 L73.0415301,62.1554106 C73.7969851,62.9131263 73.7969851,64.1391948 73.0415301,64.8969105 Z M56.6935947,76.9990848 L54.4671233,74.7724805 L56.8074249,72.4320459 L55.3031638,70.9277848 L52.9628622,73.2682194 L50.8351944,71.1405516 L53.182012,68.793734 L51.6777509,67.2894729 L49.3309333,69.6299075 L47.2032655,67.5022397 L49.5564661,65.1490391 L48.052205,63.644778 L45.7021959,66.0075531 L43.4626926,63.7735019 L47.9307949,59.3053996 C48.6890426,58.5498116 49.9153771,58.5498116 50.6733587,59.3053996 L61.16183,69.7948017 C61.9188808,70.5517195 61.9190138,71.7789849 61.161963,72.5360357 L61.16183,72.5363017 L56.6935947,76.9990848 Z M91.8672676,43.5106578 L83.3565965,43.5106578 L83.3193623,62.6596678 L91.8300334,62.6596678 L91.8300334,64.7873356 L82.2555284,64.7873356 C81.6680261,64.7873356 81.1916945,64.311004 81.1916945,63.7235017 L81.1916945,61.3022158 L75.0713251,61.3022158 C76.1231909,62.9129933 75.9036422,65.0402621 74.5447274,66.4022355 L64.056389,76.8905738 C62.763299,78.1917756 60.7541157,78.4542766 59.1702,77.5288741 L57.4458582,79.2554765 C57.0304311,79.6707707 56.3570242,79.6707707 55.9415971,79.2554765 L41.2106892,64.5245686 C40.7953951,64.1091415 40.7953951,63.4357347 41.2106892,63.0203075 L42.8234614,61.4064715 L42.7169451,61.3000881 L38.6383389,61.3000881 L38.6383389,63.7235017 C38.6383389,64.311004 38.1620073,64.7873356 37.574505,64.7873356 L28,64.7873356 L28,62.6596678 L36.5106711,62.6596678 L36.5106711,43.5106578 L28,43.5106578 L28,41.38299 L37.574505,41.38299 C38.1620073,41.38299 38.6383389,41.8593217 38.6383389,42.4468239 L38.6383389,44.2798097 L51.0320037,44.2798097 L55.3191213,39.9925591 C55.5185902,39.7930903 55.7892029,39.6808558 56.0713848,39.6808558 L71.1448472,39.6808558 C71.7323495,39.6808558 72.2086811,40.1571874 72.2086811,40.7446897 L72.2086811,42.5074625 C72.2050907,43.1146457 72.0893987,43.7158448 71.8670575,44.2808736 L81.2289287,44.2808736 L81.2289287,42.4468239 C81.2289287,41.8593217 81.7052603,41.38299 82.2927626,41.38299 L91.8672676,41.38299 L91.8672676,43.5106578 Z M59.1627798,79.9927666 L60.6671738,81.4970277 L57.4755392,84.6885294 C57.0601121,85.1038235 56.3867052,85.1038235 55.9712781,84.6885294 L52.7797764,81.4970277 L54.2840375,79.9927666 L56.7234086,82.4321377 L59.1627798,79.9927666 Z M64.4807923,78.9301029 L69.7990309,73.6118643 L71.303558,75.1162584 L65.9851864,80.434497 L64.4807923,78.9301029 Z M54.5957808,35 L58.8511163,35 L58.8511163,37.1276678 L55.036208,37.1276678 L51.0925758,41.0713 L49.5883146,39.5670389 L53.8436502,35.3117033 C54.043119,35.1122345 54.3135988,35 54.5957808,35 Z" id="Combined-Shape" fill="#FFFFFF"></path>
            </g>
        </g>
    </g>
</svg>