<?xml version="1.0" encoding="UTF-8"?>
<svg width="380px" height="367px" viewBox="0 0 380 367" version="1.1" xmlns="http://www.w3.org/2000/svg" xmlns:xlink="http://www.w3.org/1999/xlink">
    <!-- Generator: Sketch 51.3 (57544) - http://www.bohemiancoding.com/sketch -->
    <title>Combined Shape</title>
    <desc>Created with Sketch.</desc>
    <defs>
        <linearGradient x1="0%" y1="0%" x2="101.999998%" y2="100.999999%" id="linearGradient-1">
            <stop stop-color="#260046" offset="0%"></stop>
            <stop stop-color="#215E96" offset="57.7966944%"></stop>
            <stop stop-color="#1CB5E0" offset="100%"></stop>
        </linearGradient>
    </defs>
    <g id="Page-2" stroke="none" stroke-width="1" fill="none" fill-rule="evenodd">
        <g id="19.Trờ-thành-đối-tác-của-chúng-tôi" transform="translate(-170.000000, -5552.000000)" fill="url(#linearGradient-1)">
            <g id="Group-23" transform="translate(170.000000, 5407.000000)">
                <g id="Câu-hỏi-thường-gặp">
                    <path d="M79.2883011,174.418544 L79.2883011,168.391466 L85.3081019,168.391466 L85.3081019,174.418544 L79.2883011,174.418544 Z M41.6645462,174.418544 L41.6645462,168.391466 L47.684347,168.391466 L47.684347,174.418544 L41.6645462,174.418544 Z M60.4764237,174.418544 L60.4764237,168.391466 L66.4962245,168.391466 L66.4962245,174.418544 L60.4764237,174.418544 Z M22.8504113,174.418544 L22.8504113,168.391466 L28.8694596,168.391466 L28.8694596,174.418544 L22.8504113,174.418544 Z M20.5553623,302.54066 L20.5553623,270.845764 L26.5751631,270.845764 L26.5751631,302.54066 L20.5553623,302.54066 Z M239.640745,239.414552 L239.640745,205.165682 L245.660545,205.165682 L245.660545,239.414552 L239.640745,239.414552 Z M239.640745,173.52503 L239.640745,167.498705 L245.660545,167.498705 L245.660545,173.52503 L239.640745,173.52503 Z M239.640745,192.360402 L239.640745,186.333324 L245.660545,186.333324 L245.660545,192.360402 L239.640745,192.360402 Z M292.931784,329.444029 L292.931784,302.271701 L320.072055,302.271701 L320.072055,329.444029 L292.931784,329.444029 Z M298.951584,323.417704 L314.052255,323.417704 L314.052255,308.299533 L298.951584,308.299533 L298.951584,323.417704 Z M333.809241,329.444029 L333.809241,302.271701 L360.94876,302.271701 L360.94876,329.444029 L333.809241,329.444029 Z M339.829042,323.417704 L354.928959,323.417704 L354.928959,308.299533 L339.829042,308.299533 L339.829042,323.417704 Z M290.651859,284.193782 L380,284.193782 L379.999248,462.722611 L341.909711,462.722611 L341.909711,512 L286.027147,462.722611 L207.288905,462.722611 L207.288905,456.695533 L288.300375,456.695533 L335.88991,498.66057 L335.88991,456.695533 L373.980199,456.695533 L373.980199,290.220107 L290.651859,290.220107 L290.651859,284.193782 Z M117.276254,290.220182 L117.276254,456.696362 L190.735131,456.696362 L190.735131,462.72344 L111.256453,462.72344 L111.256453,323.528828 L93.9721002,323.528828 L38.089537,372.805464 L38.089537,323.528828 L0,323.528828 L0,145 L14.6002743,145 L14.6002743,151.026325 L6.01980079,151.026325 L6.01980079,317.502504 L44.1085853,317.502504 L44.1085853,359.467541 L91.6988729,317.502504 L111.256453,317.502504 L111.256453,294.008954 L109.795899,293.281938 C88.5700815,282.712703 75.3844603,261.427324 75.3844603,237.731867 C75.3844603,203.522927 103.183148,175.691388 137.351537,175.691388 C171.519926,175.691388 199.317862,203.522927 199.317862,237.731867 C199.317862,248.36514 196.570575,258.864309 191.373982,268.094779 L190.392002,269.838865 L199.189941,278.647439 L193.647209,284.194611 L262.722918,284.194611 L262.722918,151.026325 L31.1547265,151.026325 L31.1547265,145 L268.742719,145 L268.742719,284.193858 L274.097332,284.193858 L274.097332,290.220182 L117.276254,290.220182 Z M111.256453,287.492176 L111.256453,284.193858 L185.135211,284.193858 L190.67719,278.647439 L182.668597,270.629166 L184.026815,268.576192 C190.092517,259.405993 193.298061,248.740325 193.298061,237.731114 C193.298061,206.845353 168.200759,181.716959 137.351537,181.716959 C106.502316,181.716959 81.4042611,206.845353 81.4042611,237.731114 C81.4042611,256.913796 91.0487344,274.545259 107.20287,284.895259 L111.256453,287.492176 Z M134.339379,378.609163 L134.339379,344.360293 L140.35918,344.360293 L140.35918,378.609163 L134.339379,378.609163 Z M134.339379,312.718134 L134.339379,306.69181 L140.35918,306.69181 L140.35918,312.718134 L134.339379,312.718134 Z M134.339379,331.552753 L134.339379,325.525675 L140.35918,325.525675 L140.35918,331.552753 L134.339379,331.552753 Z M137.350935,199.358818 C158.484198,199.358818 175.676749,216.572906 175.676749,237.730963 C175.676749,243.492097 174.423878,249.040022 171.951998,254.219542 L170.118216,258.064818 L154.881348,242.80953 L142.421865,255.283321 L157.658733,270.538609 L153.817348,272.375361 C148.643329,274.849476 143.103607,276.103862 137.350935,276.104615 C116.217672,276.104615 99.0243685,258.890527 99.0243685,237.730963 C99.0243685,216.572906 116.217672,199.358818 137.350935,199.358818 Z M169.269424,242.763573 C169.52677,241.114414 169.657701,239.420805 169.657701,237.730963 C169.657701,219.896086 155.165031,205.385896 137.351688,205.385896 C119.537592,205.385896 105.044922,219.896086 105.044922,237.730963 C105.044922,255.566594 119.537592,270.076784 137.351688,270.077537 C139.034974,270.077537 140.725786,269.947202 142.377469,269.688037 L147.495804,268.886436 L133.908362,255.282568 L154.8821,234.286488 L168.469543,247.889603 L169.269424,242.763573 Z M229.086228,320.905392 L262.170301,320.905392 L311.80732,425.884282 L278.255961,425.884282 L269.28119,406.905767 L221.974586,406.905767 L213.000568,425.884282 L179.449208,425.884282 L229.086228,320.905392 Z M282.06499,419.857204 L302.29754,419.857204 L258.359767,326.93247 L232.895257,326.93247 L188.958236,419.857204 L209.190034,419.857204 L218.164052,400.878689 L273.090219,400.878689 L282.06499,419.857204 Z M226.820224,382.569782 L245.627587,342.792575 L264.43495,382.569782 L226.820224,382.569782 Z M254.925169,376.542704 L245.628339,356.879363 L236.330005,376.542704 L254.925169,376.542704 Z M131.683142,444.470057 L131.683142,438.44298 L157.267296,438.44298 L157.267296,444.470057 L131.683142,444.470057 Z" id="Combined-Shape"></path>
                </g>
            </g>
        </g>
    </g>
</svg>