<?xml version="1.0" encoding="UTF-8"?>
<svg width="133px" height="130px" viewBox="0 0 133 130" version="1.1" xmlns="http://www.w3.org/2000/svg" xmlns:xlink="http://www.w3.org/1999/xlink">
    <!-- Generator: Sketch 51.3 (57544) - http://www.bohemiancoding.com/sketch -->
    <title>Page 1</title>
    <desc>Created with Sketch.</desc>
    <defs>
        <polygon id="path-1" points="104 107.110945 1.25248211e-14 107.110945 0 0 104 0 104 107.110945"></polygon>
    </defs>
    <g id="Page-2" stroke="none" stroke-width="1" fill="none" fill-rule="evenodd">
        <g id="05.Google-adwordS-&amp;-GDN" transform="translate(-1008.000000, -1837.000000)">
            <g id="Group" transform="translate(-240.000000, 931.000000)">
                <g id="What-is-search-ads?" transform="translate(462.000000, 581.000000)">
                    <g id="Group-14" transform="translate(709.000000, 325.000000)">
                        <g id="Page-1" transform="translate(77.000000, 0.000000)">
                            <g id="Group-3" transform="translate(0.000000, 0.082627)" fill="#D3D3D3">
                                <path d="M130.231356,51.586878 C109.2,34.3123017 88.3889831,17.1919627 69.0432203,1.26145427 C67.0050847,-0.413122003 65.1983051,-0.424138952 63.1932203,1.25043732 L60.2627119,3.70721698 C56.3847458,6.95721698 52.3635593,10.3063695 48.3864407,13.5784034 C30.7262712,28.0877255 16.2720339,39.9199288 2.90847458,50.8377255 C1.60847458,51.8953526 0.616949153,52.8538271 0,54.0546746 L0,55.8504373 C0.0110169492,55.8724712 0.0220338983,55.8945051 0.0330508475,55.916539 C0.572881356,57.1063695 1.54237288,58.5936577 3.04067797,58.9462 C4.51694915,59.2877255 6.03728814,58.3843356 7.03983051,57.5580644 C20.2491525,46.7394204 33.4584746,35.9207763 46.6567797,25.1131492 L58.1805085,15.6826407 C59.7228814,14.4267085 61.2542373,13.1597594 62.7855932,11.9038271 L66.0686441,9.21569156 L67.4788136,10.2843356 C67.6220339,10.3945051 67.7322034,10.4826407 67.8423729,10.5707763 L80.5889831,21.0699288 C91.429661,30.0046746 102.281356,38.9284034 113.133051,47.8521322 C116.228814,50.3970475 119.423729,52.9529797 122.508475,55.4207763 L125.626271,57.9216238 C127.135593,59.1334882 128.578814,59.3317933 130.14322,58.5385729 C131.333051,57.9326407 132.060169,56.9411153 132.192373,55.7292509 C132.34661,54.2639966 131.608475,52.7216238 130.231356,51.586878" id="Fill-1"></path>
                            </g>
                            <g id="Group-6" transform="translate(14.101695, 22.777542)">
                                <mask id="mask-2" fill="white">
                                    <use xlink:href="#path-1"></use>
                                </mask>
                                <g id="Clip-5"></g>
                                <path d="M96.2661017,99.5313065 C96.2661017,99.7736794 96.2220339,100.005035 96.1889831,100.302493 L83.2881356,100.302493 L83.2881356,100.31351 L22.4966102,100.31351 L22.4966102,100.280459 L7.8,100.280459 L7.8,98.5728319 C7.8,81.9372387 7.8220339,64.0457133 7.76694915,47.4101201 C7.76694915,46.0550353 8.18559322,45.2397811 9.22118644,44.391476 C23.2347458,32.900798 37.2042373,21.3440184 51.1847458,9.8092726 C51.4381356,9.59995057 51.7135593,9.40164548 52.0550847,9.12622176 C55.6245763,12.0677472 59.1720339,14.9762218 62.7194915,17.9067302 C73.6372881,26.9075777 84.5550847,35.9084251 95.4508475,44.9423235 C95.8694915,45.2838489 96.2330508,45.9558828 96.2330508,46.4846963 C96.2771186,63.7482557 96.2661017,82.2677472 96.2661017,99.5313065 M101.223729,38.8609675 C86.2516949,26.5660523 71.3127119,14.2270692 56.3627119,1.91012006 C53.3,-0.623778244 50.7110169,-0.634795194 47.6813559,1.86605226 C32.7313559,14.2050353 17.7923729,26.5440184 2.82033898,38.8389336 C0.881355932,40.4253743 0,42.3313065 0,44.8101201 C0.0220338983,63.3075777 0.0110169492,81.8160523 0.0110169492,100.31351 C0.0110169492,104.819442 2.26949153,107.110968 6.75338983,107.110968 L52.0330508,107.110968 C67.1262712,107.110968 82.2194915,107.110968 97.3127119,107.099951 C101.642373,107.099951 103.988983,104.786391 103.988983,100.489781 C103.988983,81.9041879 103.977966,63.3075777 104,44.7219845 C104,42.2982557 103.118644,40.4143573 101.223729,38.8609675" id="Fill-4" fill="#D3D3D3" mask="url(#mask-2)"></path>
                            </g>
                            <path d="M51.0110169,69.3849879 C51.2864407,68.6909201 51.7161017,68.1290557 52.4983051,68.0188862 C52.8288136,67.9748184 53.2033898,68.0078692 53.5228814,68.1180387 C59.7364407,70.0790557 65.9389831,72.0621065 72.1415254,74.0341404 C75.6008475,75.1358354 79.0491525,76.2375303 82.5084746,77.3392252 C83.3788136,77.6146489 83.8966102,78.2315981 83.929661,79.0027845 C83.9627119,79.8510896 83.5330508,80.4900726 82.640678,80.8646489 C79.8423729,82.0654964 77.0550847,83.2773608 74.2567797,84.4782082 C74.1576271,84.522276 74.0584746,84.5663438 73.8491525,84.7646489 C73.9923729,84.8527845 74.1686441,84.9078692 74.2788136,85.0290557 C78.1788136,88.9180387 82.0788136,92.8180387 85.9788136,96.7180387 C86.75,97.4892252 86.9042373,98.3595642 86.4194915,99.1307506 C86.309322,99.3070218 86.1661017,99.4612591 86.0118644,99.6154964 C84.8771186,100.761259 83.7423729,101.896005 82.5966102,103.030751 C81.7372881,103.890073 80.679661,103.890073 79.820339,103.030751 C75.8762712,99.0976998 71.9432203,95.153632 68.0101695,91.2095642 C67.9,91.0993947 67.8338983,90.9561743 67.7016949,90.7578692 C66.9966102,92.3773608 66.3576271,93.8646489 65.7186441,95.351937 C65.1127119,96.7621065 64.5067797,98.172276 63.9008475,99.5824455 C63.5042373,100.496852 62.8872881,100.926513 62.05,100.882446 C61.2016949,100.838378 60.6288136,100.331598 60.320339,99.3621065 C57.2466102,89.7002421 54.1618644,80.0383777 51.0881356,70.3875303 C51.0661017,70.3214286 51.0220339,70.2663438 51,70.2112591 C51.0110169,69.9468523 51.0110169,69.6714286 51.0110169,69.3849879" id="Fill-7" fill="#F69C1D"></path>
                        </g>
                    </g>
                </g>
            </g>
        </g>
    </g>
</svg>