<?xml version="1.0" encoding="UTF-8"?><svg width="341px" height="295px" viewBox="0 0 341 295" version="1.1" xmlns="http://www.w3.org/2000/svg" xmlns:xlink="http://www.w3.org/1999/xlink"> <!-- Generator: Sketch 51.3 (57544) - http://www.bohemiancoding.com/sketch --> <title>Group 3</title> <desc>Created with Sketch.</desc> <defs> <linearGradient x1="0%" y1="0%" x2="100%" y2="0%" id="linearGradient-1"> <stop stop-color="#260046" offset="0%"></stop> <stop stop-color="#215E96" offset="57.7966944%"></stop> <stop stop-color="#1CB5E0" offset="100%"></stop> </linearGradient> <linearGradient x1="0%" y1="0%" x2="100%" y2="0%" id="linearGradient-2"> <stop stop-color="#E1E648" offset="0%"></stop> <stop stop-color="#ED3C3C" offset="100%"></stop> </linearGradient> </defs> <g id="Page-2" stroke="none" stroke-width="1" fill="none" fill-rule="evenodd" fill-opacity="0.3"> <g id="09.Porfolio-Main" transform="translate(-931.000000, -4268.000000)"> <g id="SEO-service" transform="translate(1.000000, 4068.000000)"> <g id="Group-3" transform="translate(930.000000, 200.000000)"> <path d="M80.3456844,160.713991 C80.3456844,161.924791 79.3722014,162.909981 78.1747312,162.909981 L44.2699563,162.909981 C43.0716246,162.909981 42.0981417,161.924791 42.0981417,160.713991 C42.0981417,159.50319 43.0716246,158.518 44.2699563,158.518 L78.1747312,158.518 C79.3722014,158.518 80.3456844,159.50319 80.3456844,160.713991 Z M126.124884,158.517651 C127.321493,158.517651 128.294976,159.502842 128.294976,160.713642 C128.294976,161.925313 127.321493,162.910504 126.124884,162.910504 L89.6347794,162.910504 C88.4373092,162.910504 87.4629648,161.925313 87.4629648,160.713642 C87.4629648,159.502842 88.4373092,158.517651 89.6347794,158.517651 L126.124884,158.517651 Z M134.152586,160.713991 C134.152586,159.50319 135.126931,158.518 136.324401,158.518 L136.35283,158.518 C137.5503,158.518 138.524645,159.50319 138.524645,160.713991 C138.524645,161.924791 137.5503,162.909981 136.324401,162.909981 C135.126931,162.909981 134.152586,161.924791 134.152586,160.713991 Z M22.6620804,180.706304 C22.6620804,179.497246 23.6355634,178.513798 24.8330336,178.513798 L47.2369256,178.513798 C48.4343958,178.513798 49.4078788,179.497246 49.4078788,180.706304 C49.4078788,181.917104 48.4343958,182.902295 47.2369256,182.902295 L24.8330336,182.902295 C23.6355634,182.902295 22.6620804,181.917104 22.6620804,180.706304 Z M109.139071,178.514146 C110.334818,178.514146 111.307439,179.497595 111.307439,180.706653 C111.307439,181.917453 110.334818,182.902643 109.139071,182.902643 L58.6962847,182.902643 C57.499676,182.902643 56.5253315,181.917453 56.5253315,180.706653 C56.5253315,179.497595 57.499676,178.514146 58.6962847,178.514146 L109.139071,178.514146 Z M140.40674,178.514146 C141.605072,178.514146 142.578555,179.497595 142.578555,180.706653 C142.578555,181.917453 141.605072,182.902643 140.40674,182.902643 L120.598516,182.902643 C119.401907,182.902643 118.428424,181.917453 118.428424,180.706653 C118.428424,179.497595 119.401907,178.514146 120.598516,178.514146 L140.40674,178.514146 Z M24.8326028,202.898877 C23.6351326,202.898877 22.6616497,201.911944 22.6616497,200.699402 C22.6616497,199.490344 23.6351326,198.506895 24.8326028,198.506895 L72.5410216,198.506895 C73.7376303,198.506895 74.7102518,199.490344 74.7102518,200.699402 C74.7102518,201.911944 73.7376303,202.898877 72.5410216,202.898877 L24.8326028,202.898877 Z M81.8280491,200.699053 C81.8280491,199.489995 82.8023935,198.506547 83.9998637,198.506547 L120.516674,198.506547 C121.714145,198.506547 122.688489,199.489995 122.688489,200.699053 C122.688489,201.912467 121.714145,202.898528 120.516674,202.898528 L83.9998637,202.898528 C82.8023935,202.898528 81.8280491,201.912467 81.8280491,200.699053 Z M140.40674,198.506895 C141.605072,198.506895 142.578555,199.490344 142.578555,200.699402 C142.578555,201.911944 141.605072,202.898877 140.40674,202.898877 L131.976206,202.898877 C130.779597,202.898877 129.806975,201.911944 129.806975,200.699402 C129.806975,199.490344 130.779597,198.506895 131.976206,198.506895 L140.40674,198.506895 Z M228.349038,160.025402 C236.055922,160.025402 242.325841,166.374699 242.325841,174.18044 L242.325841,293.164636 C242.325841,294.17683 241.512595,295 240.511545,295 C239.512217,295 238.698971,294.17683 238.698971,293.164636 C238.698971,287.38067 234.055543,282.674229 228.349038,282.674229 L149.852713,282.674229 C148.852524,282.674229 148.038416,281.851059 148.038416,280.838865 L148.038416,161.859895 C148.038416,160.847701 148.852524,160.025402 149.852713,160.025402 L228.349038,160.025402 Z M238.698971,283.646353 L238.698971,174.18044 C238.698971,168.396474 234.055543,163.691775 228.349038,163.691775 L151.666148,163.691775 L151.666148,279.006985 L228.349038,279.006985 C232.130976,279.006985 235.675143,280.519179 238.329392,283.264821 L238.698971,283.646353 Z M226.745806,291.547739 C227.62711,291.547739 228.343869,292.273348 228.343869,293.164462 C228.343869,294.056447 227.62711,294.782056 226.745806,294.782056 L149.852713,294.782056 C148.971409,294.782056 148.253789,294.056447 148.253789,293.164462 C148.253789,292.273348 148.971409,291.547739 149.852713,291.547739 L226.745806,291.547739 Z M270.008854,161.133502 L281.147911,183.732782 C281.25732,183.950552 281.314179,184.197938 281.314179,184.450551 L281.314179,287.010548 C281.314179,291.295387 277.871667,294.782317 273.640031,294.782317 L263.514086,294.782317 C259.283311,294.782317 255.8408,291.295387 255.8408,287.010548 L255.8408,184.450551 C255.8408,184.19968 255.897658,183.951423 256.007067,183.730169 L267.146986,161.134373 C267.43817,160.544653 268.076533,160.333852 268.576197,160.333852 L268.577058,160.333852 C269.077584,160.333852 269.715947,160.543782 270.008854,161.133502 Z M278.117192,278.034948 L278.117192,184.832955 L275.419868,179.359093 L261.733387,179.359093 L259.037787,184.832955 L259.037787,278.034948 L266.978134,278.034948 L266.978134,188.5664 C266.978134,187.675286 267.694893,186.949677 268.576197,186.949677 C269.457501,186.949677 270.175121,187.675286 270.175121,188.5664 L270.175121,278.034948 L278.117192,278.034948 Z M278.117192,287.010548 L278.117192,281.268394 L259.037787,281.268394 L259.037787,287.010548 C259.037787,289.512288 261.045919,291.548 263.514086,291.548 L273.640031,291.548 C276.10906,291.548 278.117192,289.512288 278.117192,287.010548 Z M268.576197,165.479317 L263.328004,176.125647 L273.826975,176.125647 L268.576197,165.479317 Z M167.535299,181.409004 C166.654856,181.409004 165.938097,180.685137 165.938097,179.794894 C165.938097,178.90378 166.654856,178.178171 167.535299,178.178171 L196.448604,178.178171 C197.329046,178.178171 198.045805,178.90378 198.045805,179.794894 C198.045805,180.685137 197.329046,181.409004 196.448604,181.409004 L167.535299,181.409004 Z M222.828786,194.594704 C223.71009,194.594704 224.426849,195.318571 224.426849,196.208814 C224.426849,197.099928 223.71009,197.825537 222.828786,197.825537 L214.210447,197.825537 C213.329143,197.825537 212.611523,197.099928 212.611523,196.208814 C212.611523,195.318571 213.329143,194.594704 214.210447,194.594704 L222.828786,194.594704 Z M167.535299,197.825886 C166.654856,197.825886 165.938097,197.100277 165.938097,196.209162 C165.938097,195.31892 166.654856,194.595053 167.535299,194.595053 L202.535026,194.595053 C203.41633,194.595053 204.133951,195.31892 204.133951,196.209162 C204.133951,197.100277 203.41633,197.825886 202.535026,197.825886 L167.535299,197.825886 Z M167.535299,214.242854 C166.654856,214.242854 165.938097,213.517245 165.938097,212.626131 C165.938097,211.734146 166.654856,211.009408 167.535299,211.009408 L180.212976,211.009408 C181.094279,211.009408 181.8119,211.734146 181.8119,212.626131 C181.8119,213.517245 181.094279,214.242854 180.212976,214.242854 L167.535299,214.242854 Z M222.828786,211.00906 C223.71009,211.00906 224.426849,211.734669 224.426849,212.625783 C224.426849,213.516897 223.71009,214.242506 222.828786,214.242506 L191.888396,214.242506 C191.007093,214.242506 190.289472,213.516897 190.289472,212.625783 C190.289472,211.734669 191.007093,211.00906 191.888396,211.00906 L222.828786,211.00906 Z M167.535299,230.656862 C166.654856,230.656862 165.938097,229.932995 165.938097,229.042752 C165.938097,228.151638 166.654856,227.426029 167.535299,227.426029 L202.535026,227.426029 C203.41633,227.426029 204.133951,228.151638 204.133951,229.042752 C204.133951,229.932995 203.41633,230.656862 202.535026,230.656862 L167.535299,230.656862 Z M222.828786,243.840036 C223.71009,243.840036 224.426849,244.565645 224.426849,245.456759 C224.426849,246.347002 223.71009,247.070869 222.828786,247.070869 L197.974819,247.070869 C197.094377,247.070869 196.377617,246.347002 196.377617,245.456759 C196.377617,244.565645 197.094377,243.840036 197.974819,243.840036 L222.828786,243.840036 Z M167.535299,247.071217 C166.654856,247.071217 165.938097,246.346479 165.938097,245.456236 C165.938097,244.565122 166.654856,243.840384 167.535299,243.840384 L186.301121,243.840384 C187.183286,243.840384 187.900907,244.565122 187.900907,245.456236 C187.900907,246.346479 187.183286,247.071217 186.301121,247.071217 L167.535299,247.071217 Z M212.682682,260.256918 C213.563124,260.256918 214.279883,260.980785 214.279883,261.871028 C214.279883,262.762142 213.563124,263.487751 212.682682,263.487751 L167.535471,263.487751 C166.654167,263.487751 165.937408,262.762142 165.937408,261.871028 C165.937408,260.980785 166.654167,260.256918 167.535471,260.256918 L212.682682,260.256918 Z M231.542676,1.61672305 C231.542676,2.5078371 230.825055,3.2334461 229.943752,3.2334461 L207.196125,3.2334461 L207.196125,59.0635271 C207.196125,59.9555122 206.479366,60.6811212 205.598924,60.6811212 C204.716759,60.6811212 204,59.9555122 204,59.0635271 L204,1.61672305 C204,0.725608998 204.716759,0 205.598924,0 L229.943752,0 C230.825055,0 231.542676,0.725608998 231.542676,1.61672305 Z M263.593168,0.772793749 C263.619013,0.814605552 263.646581,0.853804117 263.706885,0.935685565 C263.81371,1.1691348 263.86626,1.39038892 263.86626,1.61251413 L263.86626,41.653413 C263.86626,46.1194362 259.963714,49.7527077 255.166079,49.7527077 C250.368445,49.7527077 246.465037,46.1194362 246.465037,41.653413 C246.465037,37.1900031 250.368445,33.5593448 255.166079,33.5593448 C256.899396,33.5593448 258.574131,34.0358252 260.009373,34.9373922 L260.66755,35.3502837 L260.66755,15.5114543 L232.401223,23.4530836 L232.401223,52.5436456 C232.401223,57.0079266 228.498677,60.640327 223.702765,60.640327 C218.903408,60.640327 215,57.0079266 215,52.5436456 C215,48.0793645 218.903408,44.4469641 223.702765,44.4469641 C225.433498,44.4469641 227.108233,44.9234445 228.54692,45.8250115 L229.205098,46.2370319 L229.205098,10.4443864 C229.205098,10.2658152 229.243003,10.0776621 229.323983,9.86511874 C229.336044,9.83375989 229.354136,9.80588535 229.371365,9.77801082 L229.417024,9.69961369 C229.485082,9.56808072 229.550555,9.46790661 229.621197,9.38689624 C229.672025,9.33027609 229.724576,9.28323781 229.771958,9.24142601 C229.866722,9.16041564 229.964932,9.09334254 230.093293,9.02626944 C230.152736,8.99578167 230.207872,8.9652939 230.260422,8.94613015 C230.307804,8.92957965 230.350879,8.90867375 230.375862,8.88951 L261.834007,0.0602509396 C261.89345,0.0628641773 261.953754,0.0628641773 262.026981,0.0524112266 C262.07867,0.042829355 262.127775,0.0297631666 262.17688,0.0166969782 C262.208755,0.00711510666 262.252691,-0.00333784408 262.270782,0.00101755206 C262.32161,0.015825899 262.373299,0.0280210082 262.437911,0.034989642 C262.527506,0.042829355 262.608486,0.0637352565 262.696358,0.0889965542 C262.832473,0.12732404 262.956528,0.184815269 263.105565,0.278020747 L263.288201,0.39910076 C263.39761,0.494048396 263.494097,0.61338625 263.593168,0.772793749 Z M261.266327,12.421594 L261.266327,4 L233,11.9390161 L233,20.3606101 L261.266327,12.421594 Z M255.504055,46.7282128 C258.538221,46.7282128 261.005526,44.5452883 261.005526,41.8632353 C261.005526,39.1820535 258.538221,37 255.504055,37 C252.469028,37 250,39.1820535 250,41.8632353 C250,44.5452883 252.469028,46.7282128 255.504055,46.7282128 Z M219,52.8658486 C219,55.5470304 221.469028,57.7282128 224.504917,57.7282128 C227.538221,57.7282128 230.007249,55.5470304 230.007249,52.8658486 C230.007249,50.1829245 227.538221,48 224.504917,48 C221.469028,48 219,50.1829245 219,52.8658486 Z M262.644248,58 C263.525551,58 264.243172,58.725609 264.243172,59.616723 C264.243172,60.5087082 263.525551,61.2343172 262.644248,61.2343172 L241.598924,61.2343172 C240.717621,61.2343172 240,60.5087082 240,59.616723 C240,58.725609 240.717621,58 241.598924,58 L262.644248,58 Z M338.414147,0 C339.295451,0 340.01221,0.725608998 340.01221,1.61672305 L340.01221,59.0643982 C340.01221,59.9555122 339.295451,60.6811212 338.414147,60.6811212 L281.598924,60.6811212 C280.717621,60.6811212 280,59.9555122 280,59.0643982 L280,1.61672305 C280,0.725608998 280.717621,0 281.598924,0 L338.414147,0 Z M284,58.2124869 L337.618236,58.2124869 L337.618236,4 L284,4 L284,58.2124869 Z M301.85632,46.7717438 C301.328227,46.4938695 301,45.9442185 301,45.3396895 L301,16.616723 C301,16.0104519 301.328227,15.4625431 301.858043,15.186411 C302.09323,15.0618466 302.348231,15 302.60237,15 C302.921121,15 303.237288,15.0966898 303.508657,15.2874561 L323.944907,29.6489394 C324.374791,29.952946 324.631514,30.4494612 324.631514,30.9782063 C324.631514,31.5060803 324.374791,32.0017244 323.94663,32.3031178 L303.508657,46.6680854 C303.03053,47.0034509 302.374076,47.0443916 301.857182,46.7717438 L301.85632,46.7717438 Z M304,19 L304,41.5400461 L320.037486,30.269152 L304,19 Z M339.253568,78.437857 C340.134872,78.437857 340.852493,79.163466 340.852493,80.0554512 C340.852493,80.9465652 340.134872,81.6713031 339.253568,81.6713031 L284.03727,81.6713031 L284.03727,120.734851 L296.745961,97.3132728 C297.0001,96.8463744 297.536808,96.5571761 298.147604,96.5571761 C298.7584,96.5571761 299.295108,96.8463744 299.548386,97.3124018 L312.462111,121.108544 L320.918491,105.51971 C321.173491,105.053683 321.710199,104.764485 322.321857,104.763613 C322.933514,104.763613 323.471084,105.053683 323.725223,105.51971 L340.655212,136.725253 C340.925719,137.22351 340.916243,137.837621 340.628505,138.327167 C340.343352,138.815843 339.816121,139.118978 339.253568,139.118978 L282.439207,139.118978 C281.557042,139.118978 280.840283,138.393369 280.840283,137.502255 L280.840283,80.0554512 C280.840283,79.163466 281.557042,78.437857 282.439207,78.437857 L339.253568,78.437857 Z M298.150189,101.450899 L284.03727,127.456098 L284.03727,135.884661 L316.833308,135.884661 L298.150189,101.450899 Z M322.321857,109.658208 L314.285023,124.47091 L320.480854,135.884661 L336.552799,135.884661 L322.321857,109.658208 Z M332.148693,90.3144126 C332.148693,91.2055266 331.431934,91.9311356 330.551492,91.9311356 L320.404871,91.9311356 C319.523567,91.9311356 318.805946,91.2055266 318.805946,90.3144126 C318.805946,89.4232985 319.523567,88.6976895 320.404871,88.6976895 L330.551492,88.6976895 C331.431934,88.6976895 332.148693,89.4232985 332.148693,90.3144126 Z M329.107464,102.190968 C328.227022,102.190968 327.510263,101.465359 327.510263,100.574245 C327.510263,99.6822599 328.227022,98.957522 329.107464,98.957522 L339.253224,98.957522 C340.135389,98.957522 340.85301,99.6822599 340.85301,100.574245 C340.85301,101.465359 340.135389,102.190968 339.253224,102.190968 L329.107464,102.190968 Z M264.803707,99.61496 C264.851951,99.7552037 264.88038,99.8971897 264.889856,100.02698 C264.891579,100.111475 264.908809,100.166353 264.913978,100.141963 L264.913978,137.069625 C264.913978,137.96161 264.196357,138.686348 263.314192,138.686348 L206.499831,138.686348 C205.618527,138.686348 204.900907,137.96161 204.900907,137.069625 L204.900907,79.6228206 C204.900907,78.7317066 205.618527,78.0060976 206.499831,78.0060976 L242.964952,78 L243.112267,78.0296167 C243.272504,78.0418118 243.412065,78.0696863 243.598147,78.1350173 C243.628299,78.1445992 243.65759,78.1524389 243.687742,78.1672472 C243.882438,78.2613238 244.026307,78.3580136 244.102118,78.428571 L264.391915,98.9433579 L264.442743,99.0487585 L264.510801,99.0748909 C264.603842,99.1846468 264.681376,99.3109533 264.748572,99.4564236 C264.765802,99.4956221 264.777863,99.5356918 264.790785,99.5766325 L264.803707,99.61496 Z M261.520004,136.213358 L261.520004,102.519142 L242.824824,102.519142 C241.942659,102.519142 241.225038,101.793533 241.225038,100.902419 L241.225038,82 L207.900907,82 L207.900907,136.213358 L261.520004,136.213358 Z M244.900907,84 L244.900907,98.9999843 L259.739199,98.9999843 L244.900907,84 Z M218.499831,102.233446 C217.618527,102.233446 216.900907,101.507837 216.900907,100.616723 C216.900907,99.7247379 217.618527,99 218.499831,99 L232.06915,99 C232.950453,99 233.668074,99.7247379 233.668074,100.616723 C233.668074,101.507837 232.950453,102.233446 232.06915,102.233446 L218.499831,102.233446 Z M216.900907,112.614981 C216.900907,111.724738 217.618527,111 218.499831,111 L251.853253,111 C252.734556,111 253.451316,111.724738 253.451316,112.614981 C253.451316,113.504353 252.734556,114.229091 251.853253,114.229091 L218.499831,114.229091 C217.618527,114.229091 216.900907,113.504353 216.900907,112.614981 Z M247.794776,124 C248.675219,124 249.391978,124.725609 249.391978,125.616723 C249.391978,126.508708 248.675219,127.233446 247.794776,127.233446 L218.499831,127.233446 C217.618527,127.233446 216.900907,126.508708 216.900907,125.616723 C216.900907,124.725609 217.618527,124 218.499831,124 L247.794776,124 Z M4.33846037,77.8762723 L4.33846037,227.303816 L142.532552,227.303816 L142.532552,231.692314 L2.17009167,231.692314 C0.973482966,231.692314 0,230.707123 0,229.496323 L0,47.1959907 C0,45.9851906 0.973482966,45 2.17009167,45 L182.465167,45 C183.662638,45 184.636982,45.9851906 184.636982,47.1959907 L184.636982,155.150582 L180.295076,155.150582 L180.295076,77.8762723 L4.33846037,77.8762723 Z M4.33846037,73.4834197 L180.295076,73.4834197 L180.295076,49.3919815 L4.33846037,49.3919815 L4.33846037,73.4834197 Z M165.66759,59.4204553 C166.735836,58.3681916 168.624221,58.3681916 169.668346,59.4204553 C170.201608,59.9370053 170.481592,60.6748094 170.481592,61.4431013 C170.481592,62.1861319 170.201608,62.9274203 169.668346,63.4674894 C169.157483,63.979684 168.425217,64.2932725 167.666245,64.2932725 C166.933118,64.2932725 166.200852,63.979684 165.66759,63.440486 C165.156726,62.9274203 164.850898,62.1861319 164.850898,61.4431013 C164.850898,60.6748094 165.156726,59.9640087 165.66759,59.4204553 Z M146.536926,61.443711 C146.536926,59.8792527 147.801593,58.5944109 149.354858,58.5944109 C150.903816,58.5944109 152.171067,59.8792527 152.171067,61.443711 C152.171067,63.0116536 150.903816,64.2930112 149.354858,64.2930112 C147.801593,64.2930112 146.536926,63.0116536 146.536926,61.443711 Z M128.225798,61.4431013 C128.225798,60.7061683 128.535934,59.9640087 129.043351,59.4204553 C130.14175,58.3420592 131.999983,58.3681916 133.043246,59.4204553 C133.576508,59.9640087 133.8608,60.6748094 133.8608,61.4431013 C133.8608,62.1861319 133.576508,62.9274203 133.043246,63.4674894 C132.533245,63.979684 131.804425,64.2932725 131.04373,64.2932725 C130.308879,64.2932725 129.576613,63.979684 129.07178,63.4674894 C128.535934,62.9274203 128.225798,62.1861319 128.225798,61.4431013 Z" id="Combined-Shape" fill="url(#linearGradient-1)"></path> <path d="M142.336503,91.1672474 C154.15207,91.1672474 163.763066,100.861007 163.763066,112.775781 C163.763066,124.692297 154.15207,134.386927 142.336503,134.386927 C131.497579,134.386927 122.357203,126.201124 121.074009,115.346795 L121.029106,114.962841 L66.6833707,114.962841 L66.6833707,129.634947 C66.6833707,130.962681 65.6100132,132.044022 64.2922792,132.044022 C62.9728181,132.044022 61.8994607,130.962681 61.8994607,129.634947 L61.8994607,114.962841 L46.9130423,114.962841 L46.9130423,129.634947 C46.9130423,130.962681 45.8405484,132.044022 44.5228143,132.044022 C43.2024897,132.044022 42.1291323,130.962681 42.1291323,129.634947 L42.1291323,114.962841 L27.4319936,114.962841 L27.4319936,141.019499 C27.4319936,142.349844 26.3577727,143.432056 25.0391751,143.432056 C23.7205775,143.432056 22.6480836,142.349844 22.6480836,141.019499 L22.6480836,112.550284 C22.6480836,111.219939 23.7205775,110.137727 25.0391751,110.137727 L121.089553,110.137727 L121.141364,109.762479 C122.617986,99.1623787 131.729867,91.1672474 142.336503,91.1672474 Z M142.336503,129.565296 C151.513148,129.565296 158.978293,122.033347 158.978293,112.775781 C158.978293,103.519085 151.513148,95.989749 142.336503,95.989749 C133.158132,95.989749 125.69126,103.519085 125.69126,112.775781 C125.69126,122.033347 133.158132,129.565296 142.336503,129.565296 Z" id="Combined-Shape" fill="url(#linearGradient-2)"></path> </g> </g> </g> </g></svg>