<?xml version="1.0" encoding="UTF-8"?><svg width="300px" height="300px" viewBox="0 0 300 300" version="1.1" xmlns="http://www.w3.org/2000/svg" xmlns:xlink="http://www.w3.org/1999/xlink"> <!-- Generator: Sketch 51.3 (57544) - http://www.bohemiancoding.com/sketch --> <title>Combined Shape</title> <desc>Created with Sketch.</desc> <defs> <linearGradient x1="50%" y1="-2.29427083%" x2="50%" y2="100%" id="linearGradient-1"> <stop stop-color="#E1E648" offset="0%"></stop> <stop stop-color="#ED3C3C" offset="100%"></stop> </linearGradient> </defs> <g id="Page-2" stroke="none" stroke-width="1" fill="none" fill-rule="evenodd" fill-opacity="0.3"> <g id="09.Porfolio-Main" transform="translate(-170.000000, -720.000000)" fill="url(#linearGradient-1)"> <g id="Web-dev" transform="translate(170.000000, 704.000000)"> <path d="M247.51505,274.19496 C235.334448,285.281944 221.514381,293.148521 206.435117,299.547868 C204.34214,300.430814 202.297324,301.238508 200.184281,302.018109 L199.176923,302.38132 C197.4301,303.011422 195.629097,303.621457 193.826087,304.194368 C193.269231,304.374971 192.706355,304.54855 192.146488,304.715105 C191.808361,304.819454 191.461204,304.915775 191.114047,305.011093 L189.561873,305.454572 L189.922074,304.514436 C195.946154,288.775935 192.142475,270.909335 180.234783,258.996596 C163.560201,242.334013 136.434783,242.336019 119.764214,258.996596 C107.856522,270.909335 104.053846,288.775935 110.077926,304.514436 L110.437124,305.454572 L108.846823,305.001059 C108.527759,304.912765 108.206689,304.82447 107.888629,304.728149 L106.132776,304.184335 C104.348829,303.617444 102.58194,303.017442 100.880268,302.401387 L99.7715719,302.004062 C97.7227425,301.243525 95.7230769,300.452887 93.8217391,299.65322 C78.448495,293.126448 64.6424749,284.267897 52.4839465,273.19797 L52.3364548,272.702316 C53.2976589,268.977892 56.6548495,266.376213 60.5016722,266.376213 L71.6137124,266.376213 C74.1130435,266.376213 76.5832776,265.660827 78.7575251,264.307312 C79.5020067,263.834735 79.9384615,263.498614 80.4541806,263.055135 C81.2257525,262.370852 81.661204,261.901286 82.0665552,261.394595 C82.6153846,260.717336 82.9645485,260.185562 83.3076923,259.571514 C83.7120401,258.856128 83.9628763,258.283216 84.2046823,257.610974 C85.3003344,254.410297 86.5103679,251.487547 87.9110368,248.671152 C90.4314381,243.596223 89.3799331,237.436676 85.293311,233.344023 L77.4411371,225.48882 C76.773913,224.828617 76.2280936,224.036977 75.7765886,223.070754 C75.6341137,222.764733 75.5729097,222.632291 75.5257525,222.496839 C75.419398,222.216905 75.3240803,221.898844 75.2327759,221.510549 C75.1625418,221.264729 75.1324415,221.160381 75.1143813,221.054026 C75.0311037,220.594493 74.9849498,220.11389 74.9769231,219.627267 C74.973913,219.488805 74.9859532,219.346329 74.9989967,219.202851 C75.0311037,218.730274 75.0501672,218.440307 75.1003344,218.158367 C75.1294314,217.94666 75.1886288,217.721911 75.2478261,217.501174 C75.3140468,217.220237 75.3892977,216.96338 75.4765886,216.71455 C75.5548495,216.491807 75.6381271,216.275084 75.7354515,216.061371 C75.8578595,215.787458 76.0033445,215.518561 76.1588629,215.250667 C76.3183946,214.980767 76.380602,214.874412 76.4498328,214.771067 C76.7698997,214.297487 77.0939799,213.901165 77.4431438,213.556014 L84.0551839,206.93593 C87.2397993,203.767361 92.816388,203.766357 95.9889632,206.93593 L103.84214,214.792137 C107.932776,218.86673 114.093311,219.917234 119.173244,217.407863 C121.994649,216.010201 124.918395,214.800164 127.862207,213.812871 C133.254181,211.999823 136.876254,206.897803 136.876254,201.116518 L136.876254,190.000436 C136.876254,189.472676 136.931438,188.925852 137.041806,188.373008 C137.067893,188.236552 137.108027,188.104111 137.149164,187.971669 C137.293645,187.454945 137.37893,187.146918 137.496321,186.85093 C137.553512,186.705445 137.626756,186.567986 137.698997,186.431531 C137.925753,185.980025 138.063211,185.705108 138.228763,185.452265 C138.325084,185.300759 138.439465,185.152264 138.554849,185.005775 C138.808696,184.674671 138.989298,184.442897 139.191973,184.229185 C139.336455,184.071659 139.502007,183.923164 139.666555,183.776675 C139.907358,183.557945 140.125084,183.374333 140.358863,183.204767 C140.548495,183.061289 140.758194,182.927843 140.971906,182.802425 C141.195652,182.663963 141.436455,182.532525 141.682274,182.416136 C141.92408,182.300752 142.16689,182.196404 142.421739,182.103092 C142.655518,182.018811 142.888294,181.948577 143.125084,181.885366 C143.416054,181.807105 143.711037,181.739881 144.017057,181.69172 C144.472575,181.622489 144.879933,181.562288 145.316388,181.562288 L154.686622,181.562288 C155.11204,181.562288 155.513378,181.621486 155.900669,181.67968 C156.288963,181.739881 156.58495,181.807105 156.88194,181.890383 C157.109699,181.947573 157.344482,182.019814 157.571237,182.103092 C157.82709,182.1954 158.077926,182.300752 158.321739,182.416136 C158.563545,182.531521 158.794314,182.661957 159.02709,182.800418 C159.239799,182.927843 159.442475,183.058279 159.644147,183.204767 C159.87592,183.374333 160.090635,183.556942 160.303344,183.747578 C160.535117,183.957277 160.678595,184.088716 160.813043,184.232195 C161.011706,184.444904 161.191304,184.672664 161.367893,184.904437 C161.577592,185.176344 161.680936,185.312799 161.774247,185.458285 C161.916722,185.686044 162.040134,185.922834 162.162542,186.160627 C162.373244,186.570996 162.441472,186.703438 162.499666,186.8419 C162.620067,187.146918 162.705351,187.454945 162.790635,187.767989 C162.897993,188.129194 162.934114,188.245583 162.960201,188.368994 C163.071572,188.951939 163.125753,189.482709 163.125753,190.000436 L163.125753,201.116518 C163.131104,201.170699 163.135452,201.36401 163.138796,201.696452 C163.471906,207.38242 166.989632,212.084104 172.140803,213.812871 C175.076589,214.797154 177.999331,216.007191 180.825753,217.408866 C185.902676,219.932284 192.061204,218.88178 196.153846,214.792137 L204.010033,206.93593 C207.192642,203.765354 212.765217,203.765354 215.939799,206.93593 L222.55786,213.558021 C222.902007,213.897152 223.225084,214.292471 223.546154,214.762037 C223.589632,214.82692 223.68495,214.98478 223.832107,215.235617 C223.996656,215.519564 224.14214,215.789464 224.265552,216.069398 C224.358863,216.279098 224.446154,216.493814 224.521405,216.715554 C224.608696,216.959367 224.683946,217.21823 224.748161,217.478097 C224.805351,217.696827 224.862542,217.926593 224.899666,218.15636 C224.947826,218.449337 224.96689,218.744321 224.982943,219.041312 C225.010033,219.359373 225.02107,219.491815 225.019064,219.624257 C225.014047,220.142987 224.968896,220.61757 224.878595,221.071083 C224.867224,221.13329 224.832776,221.271083 224.775251,221.484462 C224.69097,221.832623 224.596656,222.177775 224.470234,222.516906 C224.397993,222.698512 224.315719,222.869081 224.233445,223.038646 C223.79398,223.995839 223.232107,224.816577 222.556856,225.489823 L214.705686,233.344023 C210.620067,237.436676 209.567559,243.596223 212.088963,248.671152 C213.481605,251.474504 214.691639,254.39926 215.683946,257.365154 C215.912709,258.04141 216.199666,258.698602 216.564883,259.374858 C216.974247,260.103288 217.352508,260.680212 217.76388,261.20697 C218.319732,261.886236 218.765217,262.366839 219.230769,262.795268 C220.011371,263.466507 220.464883,263.814668 220.923411,264.115673 C223.410702,265.659824 225.880936,266.376213 228.385284,266.376213 L239.497324,266.376213 C243.33913,266.376213 246.697324,268.975885 247.662542,272.698303 L247.51505,274.19496 Z M183.243813,307.092035 L182.658863,307.229493 C182.105017,307.360932 181.548161,307.49237 180.991304,307.613775 C179.649833,307.906752 178.306355,308.178659 176.958863,308.432506 C175.955518,308.620132 174.950167,308.803744 173.939799,308.969297 C173.664883,309.018461 173.37893,309.064615 173.09699,309.106755 C171.693311,309.333512 170.284615,309.530168 168.8699,309.71378 L168.462542,309.767961 C167.956856,309.835185 167.453177,309.902409 166.946488,309.960604 L166.51806,310.011774 C166.125753,310.058932 165.733445,310.107092 165.338127,310.148229 C163.934448,310.296725 162.421405,310.426157 160.432776,310.567629 L158.745151,310.693047 C158.38495,310.720137 158.024749,310.747228 157.662542,310.765288 C154.933445,310.908766 152.441137,310.981007 150.046154,310.984018 C147.647157,310.984018 145.139799,310.91278 142.331438,310.765288 C141.931104,310.745221 141.529766,310.715121 141.130435,310.684017 L139.612375,310.571642 C138.128428,310.464284 136.380602,310.329835 134.645819,310.144216 C134.263545,310.104082 133.879264,310.058932 133.49398,310.012778 L133.027425,309.957594 C132.527759,309.900403 132.026087,309.834182 131.525418,309.767961 L131.164214,309.720804 C129.734448,309.534181 128.305686,309.333512 126.883946,309.106755 L126.02709,308.965283 C125.042809,308.803744 124.054515,308.624145 123.073244,308.440533 C121.699666,308.178659 120.33311,307.903742 118.972575,307.607755 C118.488963,307.500397 118.013378,307.389025 117.535786,307.275647 L116.753177,307.093038 L116.645819,306.891365 C108.958194,292.393001 111.701338,274.158173 123.317057,262.546438 C130.425753,255.428694 139.899331,251.509621 149.992977,251.509621 C160.092642,251.511628 169.568227,255.430701 176.68194,262.546438 C188.296656,274.154159 191.039799,292.388988 183.350167,306.891365 L183.243813,307.092035 Z M66.8719064,249.511957 L67.2351171,249.155769 C71.641806,244.82733 76.4086957,240.826985 81.4043478,237.265104 L81.7735786,237.002227 L82.0725753,237.342361 C82.3765886,237.688516 82.6244147,238.057748 82.8070234,238.341695 L82.9705686,238.576478 C83.1150502,238.780157 83.2585284,238.98484 83.3648829,239.20357 C83.5625418,239.607919 83.6809365,240.020294 83.7953177,240.418623 L83.8575251,240.633339 C83.8876254,240.742704 83.9217391,240.842036 83.9548495,240.941367 C84.0250836,241.14906 84.0923077,241.355749 84.1274247,241.569462 C84.2117057,242.097223 84.1916388,242.612943 84.1705686,243.110603 L84.1665552,243.210938 C84.1625418,243.303246 84.1665552,243.395554 84.1705686,243.487862 C84.1785953,243.671474 84.183612,243.854083 84.1585284,244.035689 C84.032107,244.904588 83.7822742,245.712282 83.4170569,246.442719 C81.9230769,249.454766 80.6257525,252.589222 79.561204,255.760802 C79.3374582,256.418998 79.0003344,257.059133 78.4996656,257.778533 C78.3602007,257.974186 78.2588629,258.115657 78.148495,258.250106 C78.0782609,258.33539 78,258.407631 77.9207358,258.476862 C77.8876254,258.505959 77.8545151,258.534053 77.8244147,258.565157 L77.5103679,258.903285 L77.1471572,258.617331 C73.6966555,255.897257 70.3615385,252.954441 67.2341137,249.870152 L66.8719064,249.511957 Z M72.3943144,211.837281 C72.2438127,212.055007 72.1003344,212.279757 71.9608696,212.507516 C71.6819398,212.968053 71.429097,213.447652 71.1913043,213.972403 C71.1501672,214.064711 71.1040134,214.160029 71.0578595,214.254343 C70.9976589,214.375748 70.9384615,214.49615 70.890301,214.620565 C70.6545151,215.22458 70.4598662,215.878762 70.2963211,216.622242 C70.2371237,216.907193 70.1949833,217.20017 70.1508361,217.496158 C70.0745819,218.000841 70.0284281,218.488468 70.0093645,218.965058 L69.9983278,219.152683 C69.9862876,219.368403 69.9752508,219.580109 69.9772575,219.793822 C69.990301,220.508205 70.0615385,221.227605 70.1839465,221.926938 C70.2090301,222.057373 70.2431438,222.190818 70.2782609,222.324263 L70.3926421,222.807877 C70.4488294,223.073764 70.5050167,223.340654 70.5862876,223.601524 L70.6956522,223.944669 L70.4036789,224.156375 C65.3468227,227.847689 60.5227425,231.907231 56.0648829,236.222626 L55.6535117,236.619951 L55.3123746,236.161422 C42.0401338,218.310875 34.135786,197.184401 32.4521739,175.065616 L32.4120401,174.525816 L80.6829431,174.525816 L80.6989967,175.010432 C80.9939799,183.840889 81.7244147,192.640242 82.8672241,201.162672 L82.9093645,201.474713 L82.6464883,201.648292 C81.8759197,202.153979 81.1575251,202.739933 80.5103679,203.387092 L73.8882943,210.005169 C73.3394649,210.580087 72.873913,211.150991 72.3943144,211.837281 Z M141.467559,174.525816 L141.467559,177.112444 L141.118395,177.224819 C141.02107,177.255923 140.929766,177.298063 140.837458,177.339201 C140.751171,177.378331 140.664883,177.417462 140.575585,177.450572 C140.271572,177.568967 139.968562,177.691375 139.668562,177.830841 C139.23913,178.027497 138.793645,178.2683 138.302007,178.570307 L138.03311,178.733853 C137.891639,178.817131 137.750167,178.901412 137.614716,178.995727 C136.897324,179.50041 136.305351,179.988037 135.809699,180.484694 C135.258863,181.048575 134.781271,181.629512 134.308696,182.305768 C134.210368,182.44423 134.125084,182.587709 134.038796,182.731187 L133.902341,182.957944 C133.587291,183.465637 133.333445,183.933197 133.126756,184.385707 C133.002341,184.65059 132.89398,184.916477 132.784615,185.191394 C132.6,185.669991 132.441472,186.184708 132.298997,186.761632 L132.229766,187.030529 C132.185619,187.196082 132.141472,187.359627 132.108361,187.532203 C131.939799,188.422172 131.857525,189.229866 131.857525,190.000436 L131.853512,201.140598 C131.841472,204.758667 129.59699,207.940281 126.264883,209.061019 C123.094314,210.120554 119.95786,211.418885 116.942809,212.919892 C115.810033,213.471733 114.591973,213.74063 113.377926,213.74063 C111.198662,213.74063 109.031438,212.877751 107.394983,211.243299 L100.647492,204.492781 L100.621405,204.332245 C99.0913043,194.810482 98.132107,184.957614 97.770903,175.045549 L97.7518395,174.525816 L141.467559,174.525816 Z M158.528428,174.525816 L202.247157,174.525816 L202.228094,175.045549 C201.864883,185.001762 200.905686,194.855633 199.376589,204.332245 L199.351505,204.492781 L192.602007,211.243299 C190.965552,212.883771 188.800334,213.74966 186.626087,213.74966 C185.410033,213.74966 184.189967,213.478756 183.058194,212.920895 C180.0301,211.415875 176.896656,210.11654 173.741137,209.061019 C170.391973,207.935264 168.142475,204.742614 168.142475,201.116518 L168.142475,190.000436 C168.142475,189.244916 168.059197,188.436218 167.887625,187.530196 C167.857525,187.369661 167.817391,187.219159 167.777258,187.06665 L167.698997,186.756616 C167.557525,186.180694 167.395987,185.664974 167.209365,185.186378 C167.104013,184.914471 166.996656,184.651594 166.875251,184.39574 C166.655518,183.921157 166.399666,183.449584 166.090635,182.95092 L165.951171,182.719147 C165.868896,182.580685 165.787625,182.442224 165.694314,182.309782 C165.206689,181.611452 164.72107,181.023491 164.210368,180.512787 C163.646488,179.94991 163.064548,179.471313 162.377258,178.989706 C162.243813,178.897399 162.099331,178.813117 161.953846,178.725826 L161.698997,178.573317 C161.181271,178.257263 160.745819,178.020473 160.328428,177.828834 C160.032441,177.692379 159.728428,177.568967 159.421405,177.450572 C159.335117,177.418465 159.241806,177.377328 159.149498,177.335187 C159.061204,177.296057 158.97291,177.25492 158.878595,177.225822 L158.528428,177.114451 L158.528428,174.525816 Z M217.127759,201.165682 C218.274582,192.620175 219.005017,183.819819 219.295987,175.010432 L219.313043,174.525816 L267.586957,174.525816 L267.545819,175.065616 C265.859197,197.189418 257.953846,218.315892 244.686622,236.161422 L244.345485,236.619951 L243.935117,236.222626 C239.475251,231.906227 234.651171,227.846685 229.594314,224.156375 L229.304348,223.945672 L229.410702,223.602527 C229.48194,223.374768 229.531104,223.141991 229.581271,222.909215 L229.658528,222.565067 C229.680602,222.466739 229.706689,222.364397 229.732776,222.263059 C229.76388,222.148678 229.79398,222.035299 229.81505,221.920918 C229.936455,221.257705 230.003679,220.559376 230.018729,219.788805 C230.022742,219.589139 230.011706,219.39148 229.999666,219.192817 L229.987625,218.965058 C229.970569,218.471411 229.924415,217.985791 229.852174,217.516225 C229.795987,217.140973 229.758863,216.883113 229.702676,216.625252 C229.53913,215.880769 229.346488,215.225583 229.109699,214.622572 C229.062542,214.50518 229.006355,214.389795 228.949164,214.272404 C228.901003,214.174076 228.852843,214.074744 228.807692,213.97441 C228.567893,213.446649 228.313043,212.965043 228.034114,212.507516 C227.894649,212.279757 227.752174,212.055007 227.598662,211.83427 C227.11505,211.138951 226.663545,210.585103 226.17893,210.094467 L219.492642,203.387092 C218.852508,202.746957 218.131104,202.163009 217.350502,201.652305 L217.085619,201.478726 L217.127759,201.165682 Z M233.123077,249.511957 L232.76087,249.870152 C229.653512,252.938387 226.320401,255.881204 222.851839,258.617331 L222.496656,258.897265 L222.181605,258.573184 C222.150502,258.54208 222.117391,258.512983 222.084281,258.484889 C222,258.412648 221.918729,258.338401 221.848495,258.251109 C221.744147,258.123684 221.644816,257.986226 221.546488,257.849771 C220.991639,257.053113 220.654515,256.412978 220.437793,255.767826 C219.384281,252.613303 218.086957,249.475836 216.580936,246.441715 C216.215719,245.704255 215.96689,244.895557 215.841472,244.040706 C215.813378,243.860103 215.818395,243.673481 215.827425,243.485855 C215.831438,243.398564 215.836455,243.310269 215.832441,243.221975 C215.805351,242.664114 215.780268,242.122306 215.871572,241.569462 C215.905686,241.359763 215.97291,241.157087 216.040134,240.955414 C216.073244,240.856082 216.107358,240.755748 216.135452,240.655413 L216.176589,240.506918 C216.29699,240.078488 216.420401,239.636012 216.634114,239.20357 C216.737458,238.988854 216.87893,238.786178 217.020401,238.585508 C217.079599,238.50223 217.139799,238.419956 217.19398,238.334671 C217.394649,238.026644 217.634448,237.670456 217.929431,237.339351 L218.229431,237.004233 L218.594649,237.265104 C223.602341,240.838022 228.367224,244.838367 232.759866,249.155769 L233.123077,249.511957 Z M150.00301,16 C153.234783,16 156.484615,16.1023414 159.662207,16.3050175 C238.355518,21.3097123 300,87.0620512 300,165.997366 C300,207.271048 282.635117,247.183189 252.124415,275.849816 C239.341806,287.740481 224.69097,297.239167 208.020401,304.315773 C206.097993,305.125474 204.107358,305.912098 202.104682,306.653572 C201.709365,306.801064 201.30903,306.948556 200.909699,307.092035 C199.128763,307.734177 197.312709,308.350232 195.097324,309.053578 C194.650836,309.19505 194.202341,309.338528 193.753846,309.474984 C192.099331,309.97465 190.429766,310.44823 188.339799,311.006091 C187.745819,311.165623 187.151839,311.325155 186.072241,311.603083 C185.893645,311.651243 185.71505,311.699404 185.161204,311.840876 C184.447826,312.013452 183.729431,312.164957 183.010033,312.316462 L181.295318,312.685694 C180.640134,312.829173 179.98495,312.972651 178.910368,313.184357 C178.397659,313.287702 177.886957,313.390044 177.371237,313.484358 C176.846488,313.581683 176.318729,313.665964 175.789967,313.751249 L174.038127,314.042219 C173.38194,314.154594 172.726756,314.266969 172.065552,314.364294 C171.31505,314.475665 170.562542,314.571986 169.22709,314.742555 C168.397324,314.847907 167.568562,314.949245 166.004348,315.128844 C165.591973,315.178008 165.178595,315.226169 164.766221,315.268309 C163.616388,315.377674 162.460535,315.457942 161.308696,315.53821 L159.871906,315.645568 C159.383278,315.685702 158.895652,315.724832 158.405017,315.751922 C157.87592,315.786036 157.547157,315.805769 157.418729,315.81112 C152.383946,316.06296 147.625084,316.06296 142.582274,315.81112 C142.396656,315.803093 142.211037,315.791053 141.597993,315.751922 C141.104348,315.724832 140.613712,315.684698 140.122074,315.645568 L138.716388,315.540216 C137.555518,315.459948 136.394649,315.378677 135.242809,315.268309 C134.829431,315.227172 134.42107,315.178008 133.275251,315.043559 C132.433445,314.949245 131.599666,314.847907 130.700669,314.731519 C129.780602,314.61513 128.856522,314.497739 127.939465,314.364294 C127.293311,314.268976 126.652174,314.159611 126.011037,314.049243 L124.146823,313.739208 C123.635117,313.657937 123.121405,313.576666 122.607692,313.480345 C122.046823,313.379007 121.48495,313.265629 120.682274,313.102083 C119.850502,312.936531 119.027759,312.754925 118.204013,312.573319 L117.023077,312.322482 C116.295652,312.169974 115.570234,312.018468 114.464548,311.742548 C114.276923,311.696394 114.091304,311.646227 113.452174,311.476661 C112.795987,311.311109 112.142809,311.136526 111.202676,310.883683 C109.417726,310.404083 107.799331,309.943547 106.252174,309.474984 C105.768562,309.328495 105.285953,309.174983 104.487291,308.921136 C102.576923,308.312104 100.81204,307.713106 99.0923077,307.091031 L97.8943144,306.653572 C95.9227425,305.924139 93.9351171,305.138518 91.4247492,304.08099 C75.3160535,297.242177 60.6632107,287.744494 47.6367893,275.495634 C17.3618729,247.182185 0,207.271048 0,165.997366 C0,153.76456 1.47491639,141.600984 4.38561873,129.84276 C4.54615385,129.178545 4.95250836,128.622691 5.53043478,128.276536 C6.0993311,127.936401 6.76856187,127.842087 7.4187291,128.009646 C8.76120401,128.345767 9.58494983,129.709315 9.25384615,131.048784 C6.44147157,142.398645 5.01672241,154.156868 5.01672241,165.997366 C5.01672241,204.795791 20.2123746,241.281502 48.60301,268.612674 C50.9528428,264.13875 55.5120401,261.359478 60.5016722,261.359478 L72.6772575,261.359478 L71.6107023,260.471516 C67.5521739,257.096257 64.3545151,254.166484 61.5481605,251.250757 C60.6100334,250.273497 60.6100334,248.743393 61.5471572,247.769143 C66.3822742,242.764448 71.8394649,238.046711 78.2458194,233.402218 L73.8882943,229.040668 C73.8331104,228.986487 73.7899666,228.925283 72.9020067,228.584145 C67.2070234,232.783152 61.9254181,237.353398 57.2036789,242.16846 C56.7270903,242.65408 56.0899666,242.920971 55.2742475,242.91796 C54.5568562,242.880837 53.8886288,242.534682 53.4401338,241.969798 C37.5622074,221.83162 28.5050167,197.684068 27.2478261,172.136846 C27.209699,171.456577 27.4585284,170.782328 27.929097,170.288681 C28.4016722,169.793028 29.0648829,169.509081 29.7501672,169.509081 L83.126087,169.509081 C84.4816054,169.509081 85.6063545,170.608749 85.6344482,171.961261 C85.8311037,180.93319 86.5274247,190.093748 88.2622074,199.619524 C90.2759197,199.356647 92.280602,199.545276 94.8762542,199.637584 C93.626087,190.49007 92.8826087,181.21814 92.6658863,172.077649 C92.6468227,171.40039 92.8996656,170.756241 93.3722408,170.266608 C93.8458194,169.785001 94.5010033,169.509081 95.1702341,169.509081 L143.97592,169.509081 C145.359532,169.509081 146.484281,170.633833 146.484281,172.017448 L146.484281,176.545553 L153.511706,176.545553 L153.511706,172.017448 C153.511706,170.633833 154.638462,169.509081 156.023077,169.509081 L204.828763,169.509081 C205.497993,169.509081 206.153177,169.785001 206.622742,170.262594 C207.098328,170.755238 207.352174,171.401393 207.337124,172.079656 C207.120401,181.198073 206.373913,190.47201 205.771906,200.189425 C207.716388,199.553303 209.72408,199.365677 212.298662,199.193102 C213.468562,190.095754 214.16388,180.934193 214.363545,171.961261 C214.392642,170.608749 215.516388,169.509081 216.868896,169.509081 L270.248829,169.509081 C270.935117,169.509081 271.596321,169.792025 272.06689,170.288681 C272.535452,170.779318 272.786288,171.454571 272.754181,172.139857 C271.49097,197.686074 262.431773,221.832623 246.559866,241.968794 C246.111371,242.533679 245.443144,242.880837 244.585284,242.920971 C243.908027,242.920971 243.271906,242.65408 242.795318,242.16846 C238.078595,237.354401 232.79699,232.784156 226.735786,228.318258 C226.446823,228.63866 226.238462,228.879464 226.110702,229.040668 L222.228763,233.747369 C228.162542,238.049721 233.619732,242.767458 238.450836,247.770147 C239.392977,248.744397 239.391973,250.272494 238.449833,251.250757 C235.627425,254.183541 232.430769,257.114317 228.389298,260.471516 L227.319732,261.359478 L239.497324,261.359478 C244.48495,261.359478 249.044147,264.13875 252.193645,268.735082 C279.786622,241.282505 294.983278,204.795791 294.983278,165.997366 C294.983278,89.7008538 235.402676,26.1478515 159.34214,21.3127224 C156.215719,21.1170697 153.073244,21.016735 150.00301,21.016735 C148.618395,21.016735 147.491639,19.891983 147.491639,18.5083675 C147.491639,17.1257553 148.618395,16 150.00301,16 Z M19.0735786,100.532386 C18.6602007,100.532386 18.2719064,100.437068 17.9157191,100.247435 C17.3197324,99.9384045 16.8812709,99.4156607 16.680602,98.7775321 C16.4789298,98.1404067 16.5391304,97.4631475 16.8501672,96.8691661 C30.8749164,69.9042155 52.4458194,48.063358 79.232107,33.7064658 C79.6023411,33.5057964 80.0086957,33.4044584 80.4170569,33.4044584 C80.6588629,33.4044584 80.9016722,33.4405789 81.1404682,33.5118165 C81.7826087,33.7054625 82.3113712,34.1389084 82.6274247,34.7308831 C83.277592,35.9499497 82.8180602,37.4740338 81.60301,38.128216 C55.712709,52.004505 34.8602007,73.1159292 21.2979933,99.1818809 C20.8645485,100.014659 20.012709,100.532386 19.0735786,100.532386 Z M120.083679,24.0986156 C119.91612,24.1357395 119.749565,24.1537997 119.572977,24.1537997 C118.39505,24.1537997 117.365619,23.3150016 117.124816,22.1581425 C116.986355,21.4989436 117.113779,20.8277044 117.482007,20.2658301 C117.848227,19.7079692 118.409097,19.3277007 119.064281,19.1932522 C123.939532,18.1718449 128.91311,17.3842175 133.842542,16.8554537 C133.921806,16.8484302 133.999064,16.8444168 134.077324,16.8444168 C135.342542,16.8444168 136.473311,17.8236835 136.607759,19.0868974 C136.756254,20.4604794 135.756923,21.699613 134.380334,21.850115 C129.576321,22.3658354 124.768294,23.122359 120.083679,24.0986156 Z M57.2036789,89.8345999 C66.538796,99.3533529 77.2645485,107.361065 89.0839465,113.638004 C90.0541806,114.154728 90.5799331,115.271453 90.361204,116.352058 C87.5618729,130.186206 85.9705686,144.88223 85.6324415,160.035779 C85.6073579,161.385281 84.483612,162.482943 83.1280936,162.482943 L29.7471572,162.482943 C29.0628763,162.482943 28.4006689,162.199999 27.9301003,161.707355 C27.4595318,161.211702 27.2107023,160.538456 27.2488294,159.855177 C28.5070234,134.313976 37.5622074,110.16843 53.4361204,90.0322593 C53.8896321,89.4653682 54.5588629,89.1192135 55.3565217,89.083093 C56.0638796,89.083093 56.7331104,89.3550001 57.2036789,89.8345999 Z M85.016388,117.541024 L85.0846154,117.183832 L84.7665552,117.007243 C74.2846154,111.215924 64.6284281,104.073097 56.0658863,95.7764208 L55.6545151,95.3790954 L55.3133779,95.837625 C42.0421405,113.691181 34.135786,134.816653 32.4501672,156.93042 L32.4090301,157.470221 L80.6849498,157.470221 L80.7,156.985604 C81.1454849,143.40731 82.5973244,130.137042 85.016388,117.541024 Z M89.5096656,105.86658 C79.1812375,100.025094 69.7738796,92.7458112 61.5474582,84.2294019 C60.6083278,83.2501352 60.6083278,81.7200311 61.5484615,80.7457811 C70.3076589,71.6594707 80.3411037,64.0059398 91.3608361,58.0029147 L95.9280602,55.6380258 C102.733746,52.3309941 109.40398,49.7684459 116.330067,47.8008824 C117.381572,47.4818181 118.541438,47.9313176 119.141438,48.8935273 C119.727391,49.8386802 119.615017,51.0748037 118.869532,51.8995549 C113.286923,58.0591022 108.202977,65.8581184 103.759164,75.080884 C99.5661873,83.7859225 96.000301,93.6247432 93.1628428,104.327446 C92.9661873,105.078953 92.4384281,105.686981 91.7140134,105.996012 C91.0277258,106.286982 90.1919398,106.249858 89.5096656,105.86658 Z M67.2344147,82.1283933 L66.8732107,82.4855848 L67.2354181,82.8427764 C73.6688629,89.1819227 80.8648495,94.7956492 88.6207023,99.5294403 L89.1835786,99.872585 L89.3651839,99.239473 C92.0942809,89.6966397 95.4173579,80.8340757 99.2401003,72.8996076 C102.146789,66.8775189 105.347458,61.3761673 108.752809,56.5490649 L109.69796,55.2085933 L108.164849,55.7905346 C104.880903,57.0366916 101.645117,58.4343539 98.5397659,59.9484046 L94.3497993,62.089547 C84.1397659,67.6460827 75.2691973,74.201952 67.2344147,82.1283933 Z M143.847793,121.652339 C129.001304,120.911869 114.524047,117.503499 100.818361,111.521544 C99.690602,111.025891 99.0895987,109.801807 99.390602,108.610834 C108.378562,72.7803096 124.816355,48.6016537 143.360167,43.9320768 C143.563846,43.8809061 143.771538,43.8558224 143.978227,43.8558224 C144.53709,43.8558224 145.083913,44.0384315 145.518361,44.3815762 C146.133411,44.8601727 146.485585,45.5815792 146.485585,46.3591731 L146.485585,119.150995 C146.485585,119.831264 146.200635,120.493473 145.70097,120.970063 C145.248462,121.405515 144.618361,121.655349 143.847793,121.652339 Z M104.902977,107.333574 L104.790602,107.758993 L105.196957,107.926552 C116.62204,112.626229 128.64311,115.490785 140.929064,116.440954 L141.468863,116.482092 L141.468863,49.8006533 L140.767525,50.1056708 C126.130736,56.4739142 112.724047,77.8672789 104.902977,107.333574 Z M156.015251,43.8522103 C156.22194,43.8522103 156.430635,43.877294 156.636321,43.9284647 C175.181137,48.602055 191.619933,72.7817143 200.607893,108.609229 C200.908896,109.801205 200.307893,111.026292 199.181137,111.521945 C185.485485,117.498883 171.007224,120.908256 156.023278,121.656753 C155.374114,121.656753 154.760067,121.41294 154.295518,120.969461 C153.79786,120.494877 153.511906,119.832668 153.511906,119.152399 L153.511906,46.3605778 C153.511906,45.5829839 153.865084,44.8615774 154.480134,44.3819775 C154.924615,44.0348195 155.462408,43.8522103 156.015251,43.8522103 Z M195.207893,107.756384 L195.095518,107.330965 C187.274448,77.8636669 173.866756,56.4713055 159.23097,50.1060722 L158.528629,49.8010547 L158.528629,116.483496 L159.068428,116.441356 C171.351371,115.493193 183.372441,112.62663 194.801538,107.923943 L195.207893,107.756384 Z M214.365753,160.030462 C214.026622,144.877915 212.435318,130.180888 209.63699,116.348747 C209.417258,115.271152 209.94301,114.156434 210.912241,113.638706 C222.714582,107.376818 233.441338,99.3670987 242.798528,89.8302855 C243.27612,89.3386455 243.871104,89.0747652 244.509231,89.0747652 C244.581472,89.0747652 244.653712,89.0777753 244.726957,89.0847987 C245.440334,89.1199159 246.108562,89.4650672 246.560067,90.0299516 C262.43398,110.167126 271.491171,134.312671 272.752375,159.856883 C272.787492,160.543172 272.537659,161.217421 272.06709,161.708058 C271.597525,162.200701 270.935318,162.483645 270.250033,162.483645 L216.8701,162.483645 C215.514582,162.483645 214.390836,161.383977 214.365753,160.030462 Z M215.232642,117.007946 L214.913579,117.183531 L214.981806,117.541726 C217.40087,130.113664 218.852709,143.384935 219.298194,156.985303 L219.314247,157.470923 L267.588161,157.470923 L267.548027,156.931123 C265.861405,134.808325 257.956054,113.682854 244.686823,95.837324 L244.346689,95.3787944 L243.935318,95.7771232 C235.366756,104.07982 225.709565,111.22365 215.232642,117.007946 Z M99.2022742,118.686746 C99.5293645,118.686746 99.8564548,118.749957 100.162475,118.877382 C114.170167,124.700808 128.949431,128.001819 144.09291,128.690115 C145.434381,128.749313 146.485886,129.848981 146.485886,131.192463 L146.485886,159.978488 C146.485886,161.359094 145.35913,162.483846 143.973512,162.483846 L95.1718395,162.483846 C94.4985953,162.483846 93.8414047,162.209932 93.3748495,161.738359 C92.9052843,161.247722 92.6464214,160.58451 92.6634783,159.916281 C92.9865552,146.508555 94.3571237,133.323572 96.7380602,120.725547 C96.8795318,119.982067 97.3440803,119.346948 98.013311,118.98474 C98.3795318,118.787081 98.7898997,118.686746 99.2022742,118.686746 Z M141.469164,157.470121 L141.469164,133.571399 L141.000602,133.540295 C127.526689,132.641296 114.300602,129.730586 101.688562,124.89044 L101.117659,124.671711 L101.014314,125.273719 C99.2554515,135.505852 98.1628094,146.1624 97.768495,156.950387 L97.7504348,157.470121 L141.469164,157.470121 Z M203.634682,55.4202995 L208.000234,57.6577634 C219.59087,63.968816 229.550067,71.5190021 238.449732,80.7437744 C239.39388,81.7200311 239.39388,83.2501352 238.449732,84.2273952 C230.226321,92.7417978 220.818963,100.022084 210.487525,105.864573 C209.809264,106.249858 208.980502,106.290996 208.284181,105.998018 C207.571806,105.693001 207.03,105.068919 206.834348,104.326442 C203.992876,93.6106963 200.427993,83.7708723 196.238027,75.0788773 C191.794214,65.8551083 186.711271,58.0570955 181.129666,51.9015616 C180.382174,51.075807 180.269799,49.8376769 180.856756,48.892524 C181.323311,48.1390104 182.134013,47.7015511 182.974816,47.7015511 C183.207592,47.7015511 183.444381,47.7346615 183.675151,47.8048958 C190.485853,49.7403522 197.205251,52.3039038 203.634682,55.4202995 Z M232.762776,82.8407697 L233.124983,82.4835781 L232.763779,82.1263866 C224.849398,74.3193436 215.924649,67.6832066 206.225318,62.3975746 L201.833679,60.1320171 C198.565786,58.5366953 195.202575,57.0778288 191.836355,55.7955513 L190.299231,55.2106 L191.248395,56.5540817 C194.656756,61.3801807 197.856421,66.880529 200.758094,72.9016143 C204.575819,80.8210322 207.8999,89.6835962 210.63602,99.2404764 L210.817625,99.8745917 L211.379498,99.5304436 C219.130334,94.7996625 226.324314,89.1839294 232.762776,82.8407697 Z M204.826355,162.484448 L156.023679,162.484448 C154.639064,162.484448 153.512308,161.359696 153.512308,159.97608 L153.512308,131.194068 C153.512308,129.850587 154.563813,128.749915 155.906288,128.688711 C171.047759,127.999411 185.827023,124.6984 199.837726,118.87397 C200.137726,118.747549 200.460803,118.685341 200.784883,118.685341 C201.198261,118.685341 201.612642,118.786679 201.984883,118.986345 C202.65612,119.35056 203.122676,119.985679 203.264147,120.727152 C205.64107,133.328187 207.011639,146.514174 207.337726,159.916883 C207.351773,160.586115 207.090903,161.248324 206.626355,161.730934 C206.156789,162.210534 205.500602,162.484448 204.826355,162.484448 Z M158.52903,133.573004 L158.52903,157.471726 L202.247759,157.471726 L202.229699,156.951992 C201.835385,146.166012 200.742742,135.507457 198.98388,125.272314 L198.880535,124.669303 L198.309632,124.888032 C185.700602,129.727175 172.473512,132.638888 158.997592,133.5419 L158.52903,133.573004 Z" id="Combined-Shape"></path> </g> </g> </g></svg>