<?xml version="1.0" encoding="UTF-8"?>
<svg width="310px" height="600px" viewBox="0 0 310 600" version="1.1" xmlns="http://www.w3.org/2000/svg" xmlns:xlink="http://www.w3.org/1999/xlink">
    <!-- Generator: Sketch 51.3 (57544) - http://www.bohemiancoding.com/sketch -->
    <title>Group 8</title>
    <desc>Created with Sketch.</desc>
    <defs>
        <linearGradient x1="0%" y1="0%" x2="101.999998%" y2="100.999999%" id="linearGradient-1">
            <stop stop-color="#C33764" offset="0%"></stop>
            <stop stop-color="#1D2671" offset="100%"></stop>
        </linearGradient>
        <linearGradient x1="50%" y1="3.19475446%" x2="50%" y2="96.6856665%" id="linearGradient-2">
            <stop stop-color="#EEEEEE" offset="0%"></stop>
            <stop stop-color="#D8D8D8" offset="100%"></stop>
        </linearGradient>
        <linearGradient x1="62.2652595%" y1="0%" x2="62.265259%" y2="100%" id="linearGradient-3">
            <stop stop-color="#260046" offset="0%"></stop>
            <stop stop-color="#215E96" offset="57.7966944%"></stop>
            <stop stop-color="#1CB5E0" offset="100%"></stop>
        </linearGradient>
    </defs>
    <g id="Page-2" stroke="none" stroke-width="1" fill="none" fill-rule="evenodd">
        <g id="-----" transform="translate(-851.000000, -2841.000000)">
            <g id="Group-8" transform="translate(851.000000, 2841.000000)">
                <path d="M74.3568165,223.907632 L79.4359857,220.258299 C79.7688088,220.019985 80.1763964,219.923697 80.5863959,219.991098 L85.4195654,220.773442 C86.8473281,221.004535 88.2750908,220.667525 89.4496185,219.825001 L101.240719,211.3468 L104.105892,215.316293 L92.3147909,223.796901 C91.161969,224.627389 90.3684996,225.908026 90.1393823,227.309023 L89.3555598,232.133076 C89.2880305,232.544709 89.0661485,232.900976 88.7260901,233.144105 L83.656568,236.788624 C83.0922158,237.202664 82.2915111,237.079897 81.8815117,236.499758 C81.4691005,235.934064 81.5993356,235.134869 82.170923,234.72805 L85.2989774,232.479714 C86.6013285,231.545716 87.414092,230.089353 87.5322683,228.493371 C87.727621,225.876732 86.0152705,223.508035 83.4708623,222.86531 C83.3165096,222.826794 83.1597451,222.7955 83.0029806,222.769021 C81.5945121,222.542743 80.1571023,222.877346 78.9801628,223.717463 L75.8472849,225.968206 C75.2853446,226.387061 74.4846398,226.259479 74.0722286,225.67934 C73.6598175,225.113646 73.7900526,224.314451 74.3568165,223.907632 Z M96.1711972,201.031897 C92.5945552,203.610021 87.5780918,202.796383 85.0047425,199.219266 C82.4217462,195.646963 83.2369215,190.644777 86.818387,188.06906 C88.6079138,186.781202 90.7543814,186.340682 92.7778491,186.668063 C94.8013168,186.995444 96.6993729,188.093132 97.9872534,189.881691 C100.57025,193.456401 99.7550745,198.458587 96.1711972,201.031897 Z M116.350404,200.483052 C117.52252,199.635714 118.296695,198.388778 118.528224,196.966116 L119.312047,192.142063 C119.379576,191.732837 119.601458,191.371755 119.939105,191.131034 L125.008627,187.486515 C125.577802,187.072474 126.376095,187.202464 126.783683,187.772973 C127.196094,188.341075 127.065859,189.140269 126.496683,189.547088 L123.358982,191.802646 C122.066278,192.736644 121.253514,194.185786 121.132926,195.781767 C120.944809,198.400814 122.652336,200.767103 125.194332,201.407422 C126.764389,201.799797 128.389916,201.491674 129.687444,200.557676 L132.81791,198.306933 C133.391909,197.888078 134.192614,198.025289 134.595378,198.593391 C135.005377,199.161493 134.875142,199.960687 134.305966,200.367506 L129.236444,204.012025 C128.898798,204.257561 128.488798,204.353849 128.076387,204.288855 L123.245629,203.504103 C121.834749,203.275418 120.368398,203.622057 119.217988,204.450138 L107.233946,213.067957 L104.368774,209.098464 L116.350404,200.483052 Z M70.9417625,227.930084 C69.2921178,225.638418 69.8130582,222.436826 72.1066432,220.785478 L77.1809889,217.140959 C78.3434579,216.300842 79.7760441,215.961426 81.2062185,216.194925 L86.0393881,216.977269 C86.4493875,217.044671 86.8617987,216.945975 87.1970335,216.702847 L98.9881344,208.222239 L96.7500199,205.124157 C94.5456701,206.221846 92.071203,206.633479 89.5943242,206.231475 C86.4686816,205.723553 83.7289208,204.03369 81.8742764,201.470009 C78.0540465,196.174143 79.2599271,188.75993 84.5633902,184.946906 C89.8716768,181.136289 97.2902544,182.339895 101.115308,187.633355 C104.552068,192.390006 103.893657,198.841334 99.8756625,202.871007 L102.116189,205.97631 L114.097819,197.360898 C114.435465,197.11777 114.657347,196.761503 114.724877,196.349869 L115.511111,191.525817 C115.74264,190.103154 116.516815,188.851404 117.684108,188.00888 L122.75363,184.364361 C125.05445,182.710606 128.254857,183.235378 129.911737,185.524637 C131.563794,187.816303 131.040442,191.017895 128.749268,192.666835 L125.616391,194.922393 C125.244979,195.184779 125.011039,195.608448 124.974862,196.068226 C124.919392,196.814461 125.411391,197.495702 126.139743,197.67865 C126.564213,197.786975 127.056212,197.709944 127.427623,197.440336 L130.565325,195.182372 C132.863733,193.533431 136.06414,194.053389 137.72102,196.345055 C139.373077,198.636721 138.852136,201.838313 136.560963,203.48966 L131.489029,207.134179 C130.314502,207.976703 128.884327,208.313713 127.458976,208.085028 L122.628218,207.300277 C122.223042,207.232875 121.800984,207.331571 121.475396,207.569885 L109.488943,216.190111 L111.960998,219.613166 L117.401932,215.691818 C118.267754,215.075572 119.471223,215.268149 120.088634,216.127523 C120.71328,216.986898 120.517927,218.188097 119.656928,218.809157 L114.211172,222.732913 L118.147166,228.182841 L121.936043,225.453063 C122.799453,224.836816 124.005334,225.026986 124.625157,225.883953 C125.249803,226.745735 125.05445,227.949341 124.19104,228.567995 L120.397339,231.30018 L123.865452,236.107383 C124.487686,236.971572 124.292334,238.170364 123.428923,238.793831 C122.997218,239.101955 122.481101,239.207872 121.993925,239.128434 C121.504338,239.051403 121.050927,238.78661 120.737398,238.358126 L106.360889,218.440854 L94.567376,226.919055 C94.2369647,227.154961 94.0078473,227.523265 93.9427298,227.925269 L93.1564956,232.749322 C92.9273783,234.174392 92.1532029,235.41892 90.9810869,236.266259 L85.9115647,239.910778 C84.7611546,240.734044 83.3888625,241.013281 82.0913349,240.806261 C80.7962191,240.594426 79.5831032,239.896335 78.7534573,238.750502 C77.1038126,236.458836 77.6223412,233.257244 79.9159262,231.605896 L83.0488041,229.352746 C83.4250389,229.085545 83.656568,228.671505 83.6903326,228.211727 C83.7458031,227.45827 83.2562156,226.777029 82.5254519,226.594081 C82.0575702,226.480942 81.6065709,226.570009 81.2303361,226.842024 L78.1022817,229.09036 C75.8038732,230.732078 72.6010543,230.219342 70.9417625,227.930084 Z M61.727407,427.500399 C52.7001846,427.500399 45.3563715,420.170438 45.3563715,411.160244 C45.3563715,402.150049 52.7001846,394.820089 61.727407,394.820089 C69.6211017,394.820089 76.3885038,400.44815 77.8138547,408.204188 L77.9344428,408.844506 L105.942226,408.844506 L106.060403,408.204188 C107.488165,400.44815 114.253156,394.820089 122.14685,394.820089 C127.086138,394.820089 131.716719,397.025095 134.849597,400.87182 L135.259596,401.377334 L166.899493,384.148918 L166.74514,383.554337 C166.380964,382.162968 166.19767,380.778821 166.19767,379.438004 C166.19767,370.427809 173.541483,363.097849 182.566294,363.097849 C187.23064,363.097849 191.69481,365.115093 194.813218,368.632029 L195.17257,369.036441 L226.802819,356.995566 L226.73529,356.393763 C226.670172,355.794368 226.629172,355.18775 226.629172,354.569097 C226.629172,345.558902 233.970574,338.228942 243.000208,338.228942 C252.025019,338.228942 259.368832,345.558902 259.368832,354.569097 C259.368832,363.581699 252.025019,370.911659 243.000208,370.911659 C236.871922,370.911659 231.300754,367.51749 228.464523,362.057933 L228.143758,361.436873 L197.632567,373.049263 L197.902684,373.776241 C198.592448,375.62498 198.939741,377.529085 198.939741,379.438004 C198.939741,388.445791 191.595928,395.773345 182.566294,395.773345 C177.318301,395.773345 172.34525,393.212071 169.26543,388.922419 L168.860255,388.361539 L137.488064,405.443115 L137.693064,406.061769 C138.240533,407.725152 138.517886,409.439087 138.517886,411.160244 C138.517886,420.170438 131.174073,427.500399 122.14685,427.500399 C114.253156,427.500399 107.488165,421.872337 106.060403,414.118707 L105.942226,413.475982 L77.9344428,413.475982 L77.8138547,414.118707 C76.3885038,421.872337 69.6211017,427.500399 61.727407,427.500399 Z M61.727407,399.451565 C55.2590633,399.451565 49.9966002,404.706508 49.9966002,411.160244 C49.9966002,417.616386 55.2590633,422.87133 61.727407,422.87133 C68.1957508,422.87133 73.4606256,417.616386 73.4606256,411.160244 C73.4606256,404.706508 68.1957508,399.451565 61.727407,399.451565 Z M122.14685,399.451565 C115.678507,399.451565 110.416044,404.706508 110.416044,411.160244 C110.416044,417.616386 115.678507,422.87133 122.14685,422.87133 C128.615194,422.87133 133.880069,417.616386 133.880069,411.160244 C133.880069,404.706508 128.615194,399.451565 122.14685,399.451565 Z M182.566294,367.726918 C176.09795,367.726918 170.835487,372.981861 170.835487,379.438004 C170.835487,385.889332 176.09795,391.141869 182.566294,391.141869 C189.037049,391.141869 194.299512,385.889332 194.299512,379.438004 C194.299512,372.981861 189.037049,367.726918 182.566294,367.726918 Z M243.000208,342.860418 C236.529452,342.860418 231.266989,348.115361 231.266989,354.569097 C231.266989,361.025239 236.529452,366.280183 243.000208,366.280183 C249.468552,366.280183 254.731015,361.025239 254.731015,354.569097 C254.731015,348.115361 249.468552,342.860418 243.000208,342.860418 Z M200.975153,88.022655 C198.995097,88.022655 197.20557,86.8551571 196.385571,85.071413 L190.380285,85.071413 C187.587466,85.071413 185.313175,82.7990049 185.313175,80.0114534 L185.313175,77.361113 C185.313175,74.431536 187.172643,71.8004533 189.938933,70.820718 L193.542104,69.5448956 C191.516225,67.8285534 190.319991,65.2769087 190.319991,62.6049034 C190.319991,57.5786447 194.41275,53.4936059 199.448508,53.4936059 C201.110211,53.4936059 202.716444,53.9365329 204.129736,54.7790571 C206.145969,52.1142735 209.288494,50.5399568 212.645665,50.5399568 C216.002837,50.5399568 219.14295,52.1142735 221.161595,54.7790571 C222.572475,53.9365329 224.178708,53.4936059 225.840411,53.4936059 C230.873757,53.4936059 234.968928,57.5786447 234.968928,62.6049034 C234.968928,65.2745015 233.775106,67.8261462 231.746815,69.5448956 L235.352398,70.820718 C238.116276,71.8004533 239.975744,74.431536 239.975744,77.361113 L239.975744,80.0114534 C239.975744,82.7990049 237.703865,85.071413 234.908634,85.071413 L228.90576,85.071413 C228.083349,86.8551571 226.296234,88.022655 224.316178,88.022655 L200.975153,88.022655 Z M195.90563,81.4461518 L195.90563,79.0702335 C195.90563,75.6784718 198.056922,72.6405702 201.250093,71.5067734 L206.305145,69.7158077 C203.596737,67.7707804 201.97121,64.5619667 201.97121,61.1894627 C201.97121,60.1206606 202.140033,59.0518585 202.468033,58.0143501 C201.578093,57.4245831 200.538624,57.1140528 199.448508,57.1140528 C196.414512,57.1140528 193.949692,59.5766307 193.949692,62.6049034 C193.949692,64.3669826 194.769691,65.9774074 196.19263,67.0245446 C197.166982,67.7370794 197.661393,68.9262421 197.485334,70.1322553 C197.306864,71.343083 196.482041,72.3468904 195.32922,72.7561164 L191.154461,74.2365518 C189.830404,74.7059581 188.942876,75.96493 188.942876,77.361113 L188.942876,80.0114534 C188.942876,80.8010189 189.586816,81.4461518 190.380285,81.4461518 L195.90563,81.4461518 Z M212.645665,54.1628109 C208.76273,54.1628109 205.603323,57.3162586 205.603323,61.1894627 C205.603323,63.4137266 206.676556,65.5344804 208.473318,66.858447 C209.541729,67.6407909 210.081963,68.9406854 209.889022,70.2502087 C209.69367,71.5717681 208.786847,72.6766784 207.527908,73.1292343 L202.468033,74.9177928 C200.712271,75.5412607 199.532919,77.2094586 199.532919,79.0702335 L199.532919,82.9626953 C199.532919,83.7570753 200.179271,84.4046153 200.975153,84.4046153 L224.316178,84.4046153 C225.109648,84.4046153 225.753588,83.7570753 225.753588,82.9626953 L225.753588,79.0702335 C225.753588,77.2094586 224.576648,75.5412607 222.823298,74.9177928 L217.765835,73.1292343 C216.49966,72.6742712 215.59525,71.5693609 215.402309,70.2502087 C215.206956,68.9406854 215.749602,67.6383837 216.818012,66.8560398 C218.614775,65.5344804 219.688008,63.4137266 219.688008,61.1894627 C219.688008,57.3162586 216.528601,54.1628109 212.645665,54.1628109 Z M223.317709,61.1894627 C223.317709,64.5619667 221.68977,67.7707804 218.969304,69.7711735 L224.036414,71.5067734 C227.234409,72.6405702 229.383289,75.6784718 229.383289,79.0702335 L229.383289,81.4461518 L234.908634,81.4461518 C235.704515,81.4461518 236.348455,80.8010189 236.348455,80.0114534 L236.348455,77.361113 C236.348455,75.96493 235.460927,74.7059581 234.13687,74.2365518 L229.962111,72.7561164 C228.80929,72.3468904 227.984467,71.343083 227.805997,70.1322553 C227.629938,68.9262421 228.124349,67.7370794 229.101113,67.0245446 C230.52164,65.9774074 231.339227,64.3669826 231.339227,62.6049034 C231.339227,59.5766307 228.871995,57.1140528 225.840411,57.1140528 C224.752707,57.1140528 223.718061,57.4245831 222.823298,58.0167573 C223.151298,59.0542657 223.317709,60.1206606 223.317709,61.1894627 Z" id="Combined-Shape" fill="url(#linearGradient-1)"></path>
                <path d="M83.0084819,484.714902 C83.0084819,486.854914 81.2623667,488.595328 79.1183109,488.595328 L48.9085892,488.595328 C46.7669452,488.595328 45.0232418,486.854914 45.0232418,484.714902 L45.0232418,464.061023 C45.0232418,461.921012 46.7669452,460.180597 48.9085892,460.180597 L79.1183109,460.180597 C81.2623667,460.180597 83.0084819,461.921012 83.0084819,464.061023 L83.0084819,484.714902 Z M154.651056,527.906063 L160.552636,527.906063 C161.965928,527.906063 163.113927,529.054303 163.113927,530.462522 C163.113927,531.868334 161.965928,533.016574 160.552636,533.016574 L154.651056,533.016574 C153.237764,533.016574 152.089766,531.868334 152.089766,530.462522 C152.089766,529.054303 153.237764,527.906063 154.651056,527.906063 Z M288.125884,290.280778 C299.808456,290.280778 309.310795,299.765193 309.310795,311.425728 L309.310795,511.874272 C309.310795,523.529992 299.808456,533.016815 288.125884,533.016815 L194.771429,533.016815 C187.32391,533.016815 181.265566,539.063731 181.265566,546.497202 L181.265566,554.859856 C181.265566,561.010283 186.279617,566.014877 192.441667,566.014877 L207.898645,566.014877 C221.291156,566.014877 232.187493,576.888254 232.187493,590.253095 L232.187493,596.449258 C232.187493,597.859885 231.037083,599.008125 229.623791,599.008125 L79.6845925,599.008125 C78.2737121,599.008125 77.1257138,597.859885 77.1257138,596.449258 L77.1257138,590.253095 C77.1257138,576.888254 88.0196395,566.014877 101.414562,566.014877 L116.857069,566.014877 C123.019119,566.014877 128.033171,561.010283 128.033171,554.859856 L128.033171,546.497202 C128.033171,539.063731 121.974826,533.016815 114.529719,533.016815 L21.1824993,533.016815 C9.50233942,533.016815 0,523.529992 0,511.874272 L0,311.425728 C0,299.765193 9.50233942,290.280778 21.1824993,290.280778 L39.1332384,290.280778 C40.3005309,291.698625 41.6583525,292.940747 43.1753503,293.975848 L45.2615238,295.396103 L21.1824993,295.396103 C12.3265119,295.396103 5.12258095,302.586445 5.12258095,311.425728 L5.12258095,511.874272 C5.12258095,520.715961 12.3265119,527.906304 21.1824993,527.906304 L138.878861,527.906304 C140.292153,527.906304 141.440152,529.052137 141.440152,530.460356 C141.440152,531.868575 140.292153,533.016815 138.878861,533.016815 L127.550818,533.016815 L129.108816,534.969064 C131.718342,538.245279 133.155752,542.33754 133.155752,546.497202 L133.155752,554.859856 C133.155752,563.831536 125.843292,571.127795 116.857069,571.127795 L101.414562,571.127795 C90.8462237,571.127795 82.2482947,579.707099 82.2482947,590.253095 L82.2482947,593.895206 L227.064912,593.895206 L227.064912,590.253095 C227.064912,579.707099 218.466983,571.127795 207.898645,571.127795 L162.30671,571.127795 C160.893418,571.127795 159.74542,569.979555 159.74542,568.568929 C159.74542,567.16071 160.893418,566.014877 162.30671,566.014877 L180.36839,566.014877 L179.056392,564.125215 C177.17763,561.421916 176.142985,558.131258 176.142985,554.859856 L176.142985,546.497202 C176.142985,536.247293 184.499737,527.906304 194.771429,527.906304 L288.125884,527.906304 C296.981872,527.906304 304.188214,520.715961 304.188214,511.874272 L304.188214,311.425728 C304.188214,302.586445 296.981872,295.396103 288.125884,295.396103 L144.252265,295.396103 C144.486206,293.703833 144.49103,291.987491 144.269148,290.280778 L288.125884,290.280778 Z M287.563944,496.35979 C287.563944,504.602084 280.844777,511.308577 272.586906,511.308577 L36.6853007,511.308577 C28.4274301,511.308577 21.7058515,504.602084 21.7058515,496.35979 L21.7058515,326.896879 C21.7058515,318.652178 28.4274301,311.945686 36.682889,311.945686 L108.461728,312.005866 C112.091429,313.640363 116.075658,314.114584 120.004417,313.380384 L127.425407,311.955314 L272.586906,311.945686 C280.844777,311.945686 287.563944,318.652178 287.563944,326.896879 L287.563944,496.35979 Z M26.8284324,496.35979 C26.8284324,501.783239 31.2491908,506.195659 36.6853007,506.195659 L272.586906,506.195659 C278.020604,506.195659 282.441363,501.783239 282.441363,496.35979 L282.441363,326.896879 C282.441363,321.471024 278.020604,317.056197 272.586906,317.056197 L36.6853007,317.056197 C31.2491908,317.056197 26.8284324,321.471024 26.8284324,326.896879 L26.8284324,496.35979 Z M79.1183109,455.549121 C83.8212454,455.549121 87.6462988,459.36696 87.6462988,464.061023 L87.6462988,484.714902 C87.6462988,489.406558 83.8212454,493.224397 79.1183109,493.224397 L48.9085892,493.224397 C44.2080665,493.224397 40.3806014,489.406558 40.3806014,484.714902 L40.3806014,464.061023 C40.3806014,459.36696 44.2080665,455.549121 48.9085892,455.549121 L79.1183109,455.549121 Z M139.550054,455.549121 C144.250577,455.549121 148.078042,459.36696 148.078042,464.061023 L148.078042,484.714902 C148.078042,489.406558 144.250577,493.224397 139.550054,493.224397 L109.340333,493.224397 C104.637398,493.224397 100.812345,489.406558 100.812345,484.714902 L100.812345,464.061023 C100.812345,459.36696 104.637398,455.549121 109.340333,455.549121 L139.550054,455.549121 Z M143.437814,484.714902 L143.437814,464.061023 C143.437814,461.921012 141.69411,460.180597 139.550054,460.180597 L109.340333,460.180597 C107.196277,460.180597 105.452573,461.921012 105.452573,464.061023 L105.452573,484.714902 C105.452573,486.854914 107.196277,488.595328 109.340333,488.595328 L139.550054,488.595328 C141.69411,488.595328 143.437814,486.854914 143.437814,484.714902 Z M199.970221,455.549121 C204.673156,455.549121 208.498209,459.36696 208.498209,464.061023 L208.498209,484.714902 C208.498209,489.406558 204.673156,493.224397 199.970221,493.224397 L169.7605,493.224397 C165.057565,493.224397 161.232512,489.406558 161.232512,484.714902 L161.232512,464.061023 C161.232512,459.36696 165.057565,455.549121 169.7605,455.549121 L199.970221,455.549121 Z M203.85798,484.714902 L203.85798,464.061023 C203.85798,461.921012 202.114277,460.180597 199.970221,460.180597 L169.7605,460.180597 C167.616444,460.180597 165.87274,461.921012 165.87274,464.061023 L165.87274,484.714902 C165.87274,486.854914 167.616444,488.595328 169.7605,488.595328 L199.970221,488.595328 C202.114277,488.595328 203.85798,486.854914 203.85798,484.714902 Z M260.391353,455.549121 C265.091876,455.549121 268.916929,459.36696 268.916929,464.061023 L268.916929,484.714902 C268.916929,489.406558 265.091876,493.224397 260.391353,493.224397 L230.181631,493.224397 C225.478697,493.224397 221.653643,489.406558 221.653643,484.714902 L221.653643,464.061023 C221.653643,459.36696 225.478697,455.549121 230.181631,455.549121 L260.391353,455.549121 Z M264.279112,484.714902 L264.279112,464.061023 C264.279112,461.921012 262.535409,460.180597 260.391353,460.180597 L230.181631,460.180597 C228.037576,460.180597 226.293872,461.921012 226.293872,464.061023 L226.293872,484.714902 C226.293872,486.854914 228.037576,488.595328 230.181631,488.595328 L260.391353,488.595328 C262.535409,488.595328 264.279112,486.854914 264.279112,484.714902 Z" id="Combined-Shape" fill="url(#linearGradient-2)"></path>
                <path d="M8.3416434,233.919964 L6.7040575,225.292516 C6.07217604,221.941677 6.78364562,218.53788 8.71305464,215.711813 C10.6448754,212.888153 13.5558713,210.981641 16.9106312,210.348544 L27.1726754,208.410739 C30.4478472,207.792085 32.9464319,205.218776 33.3877842,202.007555 C33.8291365,198.846885 34.4827238,195.724731 35.3316638,192.720531 C36.2023096,189.620042 34.936135,186.281239 32.1819036,184.406021 L23.559857,178.544459 C17.720983,174.567745 16.2088087,166.592652 20.185803,160.769606 L25.1419724,153.509454 C28.9887317,147.886207 37.3117198,146.316705 42.9504177,150.146579 L51.5700525,156.010548 C54.3218721,157.885766 57.9033376,157.835214 60.4863339,155.895002 C62.9752715,154.010155 65.647503,152.264926 68.4282638,150.705052 C71.2596715,149.1187 72.7429047,145.856927 72.1230821,142.583119 L70.1816142,132.347654 C68.8672043,125.422105 73.447139,118.715612 80.3881879,117.401274 L89.0319403,115.769185 C95.9850481,114.462068 102.694568,119.035771 104.01139,125.956506 L105.952857,136.191971 C106.567857,139.463372 109.146029,141.959651 112.363319,142.402578 C115.517903,142.838284 118.648369,143.488231 121.670306,144.340384 C124.781478,145.211795 128.126591,143.948008 129.990882,141.201379 L135.873168,132.588375 C139.715104,126.960313 148.040503,125.390811 153.681613,129.220685 L160.950662,134.167506 C163.777246,136.095683 165.687361,139.006002 166.324066,142.361656 C166.960771,145.714902 166.249301,149.1187 164.322304,151.942359 L158.447253,160.548142 C156.570903,163.297178 156.616727,166.869481 158.560606,169.442791 C160.470721,171.960734 162.22166,174.630333 163.765187,177.381776 C165.359361,180.203028 168.624886,181.685871 171.895234,181.06481 L182.154867,179.12219 C185.502391,178.491501 188.905386,179.199221 191.744029,181.129805 C194.580261,183.057982 196.490376,185.963487 197.127081,189.314326 L198.762255,197.941774 C200.079076,204.867323 195.501554,211.576222 188.558093,212.888153 L178.29846,214.828366 C175.0257,215.444612 172.527116,218.015515 172.078528,221.229143 C171.654058,224.336853 171.000471,227.459007 170.141884,230.508945 C169.268826,233.611841 170.532589,236.955459 173.28682,238.825862 L181.911279,244.689831 C184.740275,246.618008 186.65039,249.528327 187.284683,252.883981 C187.9238,256.237227 187.21233,259.638617 185.285333,262.464684 L180.331575,269.722429 C176.475169,275.352897 168.152181,276.9224 162.520718,273.080489 L153.898672,267.223742 C151.149264,265.350931 147.572622,265.391854 144.992037,267.336881 C142.471747,269.243393 139.794692,270.988622 137.038048,272.531645 C134.209053,274.11559 132.728231,277.37977 133.350466,280.643949 L135.291933,290.886636 C135.926227,294.237476 135.212345,297.641273 133.280524,300.462526 C131.351115,303.291 128.44012,305.197512 125.082948,305.830609 L116.434372,307.467513 C113.190553,308.081352 109.662146,307.378446 106.837974,305.464712 C104.008978,303.536536 102.098863,300.628623 101.46457,297.275377 L99.5206901,287.037504 C98.9032792,283.766103 96.3251064,281.272232 93.1078169,280.834119 C89.9869978,280.403228 86.8589434,279.753281 83.7960066,278.891499 C83.1520664,278.71818 82.4984791,278.633927 81.8497153,278.633927 C79.3631894,278.633927 76.9514281,279.876049 75.4754302,282.037725 L69.6003798,290.643508 C67.769853,293.317921 64.7672102,295.219618 61.3569797,295.859936 C57.9443375,296.505069 54.4617542,295.828643 51.7895228,294.003976 L44.5204743,289.066784 C38.6864237,285.087663 37.1718377,277.112569 41.1464202,271.291931 L47.0214707,262.683741 C48.907468,259.92989 48.8640563,256.357587 46.9129415,253.791499 C45.0414147,251.331329 43.2880643,248.664138 41.7083606,245.862143 C40.1214217,243.031262 36.8438381,241.550826 33.5783134,242.171887 L23.3186809,244.109693 C19.9663327,244.750011 16.5561023,244.032662 13.7271063,242.1093 C10.8908751,240.176308 8.97834838,237.268396 8.3416434,233.919964 Z M12.8902252,218.55473 C11.7229327,220.263851 11.2912274,222.322017 11.6771092,224.351297 L13.3122834,232.981152 C13.6957534,235.015246 14.8533988,236.774918 16.5681611,237.940008 C18.2756881,239.097877 20.337744,239.523954 22.3805058,239.150836 L32.6353147,237.21303 C38.0545423,236.177929 43.4641228,238.666986 46.1146485,243.389936 C47.5834111,245.99454 49.2089382,248.469154 50.9405828,250.739155 C54.2036958,255.04325 54.3098133,260.984249 51.201053,265.529065 L45.3308261,274.134848 C44.1611218,275.839154 43.7342401,277.899728 44.1225337,279.931415 C44.5060037,281.967916 45.6588256,283.729995 47.3711761,284.895086 L54.6402246,289.834685 C56.2681634,290.946817 58.3832781,291.35845 60.4380987,290.968482 C62.4929193,290.576106 64.3065638,289.420644 65.4183857,287.800591 L71.2934362,279.197215 C73.244551,276.347076 76.1603704,274.426121 79.5054833,273.795431 C81.3649513,273.443978 83.3522425,273.530638 85.1779458,274.043374 C88.0021183,274.830532 90.9010553,275.432335 93.7975806,275.831933 C99.168573,276.568539 103.46392,280.692094 104.49133,286.098692 L106.432798,296.336564 C106.813856,298.368251 107.971502,300.130331 109.688676,301.293014 C110.991027,302.181275 112.495966,302.64346 114.037081,302.64346 C114.521845,302.64346 115.009021,302.597723 115.493785,302.506249 L124.142361,300.869345 C126.175476,300.484191 127.938473,299.333543 129.105766,297.62683 C130.277882,295.910488 130.711999,293.847507 130.321293,291.823042 L128.379826,281.587576 C127.354827,276.183386 129.843765,270.776787 134.565993,268.131261 C137.132107,266.694156 139.61381,265.074102 141.943571,263.31443 C146.246153,260.057472 152.19838,259.946741 156.746962,263.054451 L165.369008,268.911198 C166.999359,270.02333 169.10965,270.444592 171.166882,270.044995 C173.221703,269.657434 175.035347,268.501972 176.149581,266.879511 L181.100927,259.626581 C182.270631,257.917461 182.704748,255.85448 182.316455,253.820386 C181.930573,251.793513 180.775339,250.031434 179.062989,248.863936 L170.443354,242.997561 C165.889949,239.904293 163.815834,234.336412 165.279773,229.136834 C166.078066,226.284288 166.681006,223.388412 167.0693,220.538273 C167.816946,215.179819 171.953116,210.88776 177.357873,209.869509 L187.617506,207.929296 C189.650621,207.54655 191.411206,206.391088 192.580911,204.67956 C193.748203,202.97044 194.177497,200.912273 193.794027,198.882994 L192.158852,190.248324 C191.770559,188.219044 190.617737,186.46178 188.907798,185.299096 C187.180977,184.119562 185.116509,183.700707 183.095454,184.085861 L172.838233,186.023667 C167.419005,187.053954 162.004601,184.557675 159.356487,179.846761 C157.926313,177.302338 156.303198,174.827724 154.530553,172.483099 C151.269852,168.188633 151.163734,162.250041 154.262848,157.710039 L160.14031,149.104256 C161.310014,147.392729 161.741719,145.329748 161.353426,143.300468 C160.969956,141.273596 159.817134,139.511517 158.104783,138.341612 L150.830911,133.394791 C149.198149,132.282659 147.085446,131.87584 145.037861,132.260994 C142.98304,132.646148 141.166984,133.80161 140.057574,135.428885 L134.1777,144.039482 C131.078586,148.579484 125.495359,150.654501 120.300425,149.198138 C117.488312,148.406165 114.584551,147.801955 111.668732,147.402358 C106.302563,146.663343 102.009628,142.534975 100.982217,137.135598 L99.0407496,126.895318 C98.6572796,124.863632 97.4996342,123.101552 95.7824601,121.934055 C94.0701096,120.771371 92.0032302,120.347702 89.9725272,120.728041 L81.3287748,122.362538 C79.2956601,122.747692 77.5326626,123.900747 76.3677819,125.60746 C75.1956659,127.321395 74.7639606,129.381968 75.1522542,131.408841 L77.0961338,141.646714 C78.1187206,147.050905 75.6297829,152.457503 70.8979073,155.105436 C68.2932051,156.569021 65.8163263,158.189075 63.5396237,159.91986 C59.2249828,163.172003 53.2703442,163.277921 48.7241742,160.182246 L40.0997159,154.318278 C38.4645417,153.208553 36.3518388,152.799327 34.3066653,153.184481 C32.2494329,153.572042 30.4333767,154.725096 29.3215547,156.349965 L24.3677971,163.612523 C23.2029164,165.316829 22.7736229,167.377403 23.1595047,169.411497 C23.5453865,171.447998 24.6982084,173.20767 26.4081471,174.372761 L35.0277819,180.231915 C39.5835989,183.332404 41.6601254,188.902693 40.1937745,194.090234 C39.4099521,196.872972 38.8070118,199.771255 38.3994242,202.698425 C37.6590134,208.059286 33.5228429,212.34653 28.1132623,213.367188 L17.8536299,215.304994 C15.8205151,215.690148 14.0575176,216.843202 12.8902252,218.55473 Z M55.2197708,199.750553 C54.6385363,199.579641 54.1610076,199.187265 53.8715963,198.64805 C53.5821849,198.113649 53.5194791,197.494995 53.6979494,196.910043 C56.6885334,186.999551 62.5346428,178.326366 70.6068077,171.819672 C71.0071601,171.492291 71.5208653,171.314157 72.0610998,171.314157 C72.1310409,171.314157 72.2009819,171.316565 72.270923,171.321379 C72.8810986,171.388781 73.433392,171.687275 73.8192738,172.161496 C74.6079197,173.141231 74.4559787,174.585558 73.4792154,175.375124 C66.1281671,181.294458 60.8005864,189.197335 58.0752962,198.229195 C57.8317083,199.04524 57.1564151,199.651857 56.3098869,199.81314 C55.9432992,199.887764 55.5767115,199.866099 55.2245943,199.75296 L55.2197708,199.750553 Z M73.9121266,253.818942 C62.6009662,246.125492 54.9725653,234.510694 52.4305689,221.121781 C51.8927461,218.274049 51.591276,215.370951 51.5382172,212.489519 C51.5189231,211.242583 52.5246276,210.197853 53.7690964,210.161745 L53.7787434,210.161745 C54.4178602,210.161745 54.9822123,210.383208 55.4187411,210.802063 C55.8552699,211.223325 56.1036813,211.791427 56.1157401,212.402859 C56.1663871,215.043571 56.4389161,217.689097 56.9285037,220.272035 C59.2413827,232.466971 66.1872552,243.039446 76.4878876,250.049248 C86.7981671,257.063863 99.1970318,259.649209 111.407779,257.335878 C123.62335,255.027362 134.218217,248.094592 141.238854,237.815796 C148.261903,227.532187 150.854546,215.154302 148.544079,202.961774 C144.159497,179.869389 123.150645,163.637558 99.7131487,165.178174 C99.1077966,165.216689 98.5241504,165.028927 98.063504,164.62933 C97.598034,164.224918 97.3206815,163.666445 97.2796815,163.055013 C97.2410934,162.445988 97.4460931,161.853814 97.8560925,161.389222 C98.2588566,160.931852 98.8280323,160.652615 99.4140903,160.618914 C125.159642,158.904979 148.23055,176.761678 153.039602,202.114435 C155.579187,215.503348 152.730897,229.094467 145.018084,240.386699 C137.310095,251.671709 125.675759,259.28572 112.259131,261.825329 C109.082841,262.424725 105.851081,262.728033 102.660321,262.728033 C92.4175708,262.728033 82.4762908,259.649209 73.9121266,253.818942 Z M84.3434764,168.790677 C83.2630074,168.983254 82.2066559,168.388673 81.8063036,167.418566 C81.3263631,166.253476 81.8834799,164.917473 83.0483606,164.433623 C84.6015349,163.790898 86.2174149,163.213167 87.8477656,162.719688 C88.0624123,162.657101 88.2770591,162.628214 88.4892941,162.628214 C89.4853515,162.628214 90.409056,163.266125 90.7081144,164.243453 C90.884173,164.825999 90.823879,165.442245 90.5320559,165.981461 C90.2450563,166.520676 89.762704,166.913052 89.1790578,167.091185 C87.7127069,167.534112 86.2391208,168.061292 84.8041228,168.653466 C84.6449466,168.713646 84.4930056,168.76179 84.3434764,168.790677 Z M148.184536,62.4659224 C142.91725,60.5136734 140.220901,54.649705 142.174427,49.3923539 L144.5476,43.0132421 C145.493011,40.4664118 147.379008,38.4443537 149.853475,37.3081497 C152.32553,36.1695384 155.089409,36.0612138 157.643464,37.0120626 L165.230865,39.821279 C167.553391,40.673432 170.129152,39.9970055 171.638915,38.1338234 C173.172795,36.2345331 174.865851,34.4122736 176.67226,32.7151892 C178.418376,31.0758778 178.893493,28.4712744 177.856435,26.2349744 L174.479969,18.8905706 C172.217737,13.9702293 174.559558,7.66574101 179.491609,5.40536893 L185.694659,2.56485876 C188.164303,1.4286547 190.930593,1.32514458 193.484648,2.27358611 C196.036292,3.21962043 198.069406,5.09965301 199.202934,7.56704531 L202.576988,14.9042275 C203.611634,17.1597852 205.917278,18.5054167 208.280804,18.2382161 C210.651565,17.9854589 213.140503,17.8915776 215.663205,17.9613868 C218.021907,18.043232 220.286551,16.5026163 221.13308,14.2157649 L223.947605,6.64026869 C224.893015,4.0958456 226.774189,2.0713803 229.251068,0.935176235 C231.727947,-0.201027833 234.494237,-0.304537949 237.041057,0.639089158 L243.43946,3.00778577 C248.704334,4.9576275 251.403095,10.8240032 249.45198,16.078947 L246.637455,23.6568504 C245.776456,25.9677739 246.456573,28.5362691 248.3281,30.0479982 C250.230979,31.5813923 252.054271,33.2688479 253.752151,35.0694425 C255.399384,36.812264 258.008909,37.2840775 260.249436,36.256198 L267.605308,32.8885084 C270.072539,31.7523044 272.838829,31.646387 275.397708,32.5948286 C277.949352,33.5360484 279.980055,35.4184882 281.118406,37.8858805 L283.959461,44.0724154 C285.035106,46.4170399 285.105047,49.2406996 284.147578,51.8164164 C283.187697,54.3921333 281.294464,56.4864077 278.947821,57.5576171 L271.596772,60.9277139 C269.346599,61.962815 268.00566,64.2472592 268.261307,66.6159559 C268.521777,69.0496472 268.613424,71.5362972 268.533836,74.0036895 C268.459071,76.3988654 269.968834,78.584614 272.29136,79.4488031 L279.881172,82.2580195 C285.148459,84.2078612 287.842396,90.0742369 285.891281,95.3291807 L283.518108,101.715514 C281.56217,106.968051 275.68712,109.661721 270.424656,107.714286 L262.834844,104.902663 C260.507494,104.045695 257.934145,104.722122 256.429206,106.590118 C254.878443,108.508666 253.185387,110.330926 251.393448,112.008753 C249.65698,113.652878 249.181863,116.259889 250.209273,118.493782 L253.585739,125.830964 C254.66862,128.194846 254.745796,131.020913 253.793151,133.584594 C252.840505,136.145867 250.937625,138.237735 248.569276,139.318573 L242.378285,142.159083 C237.265351,144.494079 231.204595,142.255372 228.862774,137.159304 L225.486309,129.819714 C224.454075,127.568971 222.162902,126.228154 219.784905,126.485726 C217.397261,126.74089 214.908324,126.8444 212.404915,126.764962 C209.961801,126.687931 207.808098,128.156331 206.935041,130.512991 L204.118104,138.08608 C202.644518,142.055573 198.797758,144.720357 194.553059,144.720357 C193.342354,144.720357 192.153356,144.506115 191.019828,144.084853 L184.626249,141.718563 C182.077017,140.774936 180.048726,138.894904 178.912787,136.422697 C177.776847,133.95049 177.67073,131.189418 178.61614,128.647402 L181.430665,121.074313 C182.294076,118.756168 181.613959,116.185266 179.740021,114.678351 C177.788906,113.101627 175.963203,111.409357 174.308734,109.649685 C173.247559,108.527924 171.778797,107.933343 170.266622,107.933343 C169.4418,107.933343 168.604919,108.109069 167.813861,108.470151 L160.462813,111.840248 C157.990758,112.971637 155.222056,113.077555 152.665589,112.129113 C150.113945,111.183079 148.083242,109.303046 146.949714,106.838061 L144.103836,100.649119 C141.839192,95.7287779 144.178601,89.4266968 149.110653,87.1639175 L156.468936,83.7962279 C158.711874,82.7683484 160.052813,80.4766826 159.806814,78.0983571 C159.543932,75.6959595 159.449873,73.2165312 159.52705,70.727474 C159.601814,68.3274836 158.094463,66.1345134 155.776761,65.2751388 L148.184536,62.4659224 Z M146.329892,50.9329696 C145.794481,52.3700752 145.854775,53.9299486 146.496303,55.3261315 C147.137832,56.7223145 148.28583,57.7863022 149.725652,58.3182961 L157.313053,61.1275125 C161.422694,62.6488705 164.092514,66.56059 163.957455,70.8622778 C163.889926,73.134686 163.974337,75.4119085 164.213102,77.6361724 C164.661689,81.9041593 162.29334,85.9940125 158.318757,87.816272 L150.962885,91.1839616 C149.634005,91.7953934 148.563183,92.9773345 148.02536,94.4288834 C147.485125,95.8828394 147.523714,97.4764138 148.131478,98.8027876 L150.977356,104.99173 C151.616473,106.385505 152.764471,107.447086 154.206704,107.97908 C155.646526,108.511074 157.209347,108.455708 158.612992,107.820204 L165.961629,104.450107 C169.859035,102.666363 174.668087,103.576289 177.540494,106.623819 C179.067139,108.251095 180.745725,109.801339 182.525605,111.238445 C185.880365,113.941744 187.110363,118.510632 185.58613,122.610114 L182.771605,130.188018 C182.236194,131.620309 182.296488,133.180182 182.938016,134.578772 C183.579545,135.972548 184.725131,137.036536 186.164953,137.570937 L192.560944,139.939634 C193.216943,140.180355 193.889824,140.295901 194.553059,140.295901 C196.892467,140.295901 199.10164,138.861203 199.962639,136.547872 L202.779576,128.974783 C204.313456,124.8416 208.165039,122.205703 212.525504,122.342914 C214.775677,122.412723 217.059615,122.330878 219.319435,122.090157 C223.588252,121.618343 227.6786,123.977411 229.51395,127.978197 L232.892827,135.312972 C234.212061,138.187183 237.63435,139.453377 240.528464,138.141446 L246.721867,135.298529 C248.048335,134.689504 249.119157,133.512378 249.65698,132.060829 C250.202038,130.604465 250.165862,129.006077 249.555686,127.677296 L246.181632,120.344928 C245.036046,117.843835 244.922693,115.075541 245.865691,112.545561 C246.393867,111.122899 247.257278,109.823004 248.364276,108.785496 C250.016333,107.232844 251.569507,105.557424 252.977975,103.81701 C255.688795,100.463764 260.263906,99.2360858 264.375959,100.755037 L271.96336,103.564253 C273.412829,104.101061 274.973238,104.036067 276.367236,103.398155 C277.766058,102.75543 278.827233,101.612004 279.362644,100.174898 L281.735817,93.7909722 C282.837992,90.8228798 281.313759,87.5081489 278.340057,86.4032385 L270.750244,83.5940221 C266.645427,82.0774786 263.975607,78.1657591 264.105842,73.8640712 C264.178195,71.6301785 264.093783,69.3481415 263.855019,67.0853622 C263.399196,62.8173753 265.767545,58.7299293 269.751775,56.910077 L277.100412,53.5399802 C278.429292,52.9285484 279.502526,51.7466073 280.037937,50.2950584 C280.580583,48.836288 280.539583,47.2427136 279.931819,45.9211542 L277.088353,39.7394338 C276.449236,38.3408436 275.301238,37.2768559 273.859004,36.7424548 C272.421595,36.2056466 270.858773,36.2634197 269.455128,36.9061453 L262.099257,40.2738349 C258.124674,42.0985016 253.469975,41.229498 250.522802,38.1001224 C248.981687,36.4656255 247.307925,34.9153809 245.542515,33.4903114 C242.190167,30.7846051 240.957757,26.2133095 242.48199,22.1162347 L245.296516,14.5407385 C246.398691,11.5702389 244.874457,8.25791516 241.898344,7.15541206 L235.49753,4.78671545 C234.052885,4.25472159 232.490063,4.31971632 231.098477,4.95281307 C229.702067,5.59553868 228.638481,6.73896438 228.10307,8.17606995 L225.288544,15.7539734 C223.766723,19.8414193 219.886199,22.4508372 215.540205,22.3858424 C213.32862,22.3088116 211.04227,22.3882496 208.746274,22.6313781 C204.465397,23.0983772 200.372638,20.7248661 198.546935,16.7529663 L195.172881,9.41819135 C194.536176,8.02200838 193.388178,6.95561346 191.943533,6.4212124 C190.496476,5.89162576 188.938478,5.94699163 187.54448,6.58490282 L181.343842,9.4278202 C180.017373,10.0320304 178.94414,11.2115643 178.401493,12.6679276 C177.861259,14.1242908 177.897435,15.7178652 178.507611,17.044239 L181.884077,24.3862356 C183.714603,28.3581354 182.839134,33.0016474 179.706256,35.938446 C178.080729,37.459804 176.525143,39.1352236 175.080498,40.9141532 C172.379325,44.2601779 167.804214,45.4902633 163.689749,43.9664981 L156.099937,41.1572817 C153.131059,40.0571858 149.807652,41.5857654 148.700653,44.5514506 L146.329892,50.9329696 Z M185.828271,100.001098 C185.234978,99.969804 184.694743,99.7122323 184.301626,99.2717125 C178.846222,93.2657185 175.375698,85.8418767 174.266287,77.7969742 C174.095052,76.5933682 174.941581,75.4764218 176.157108,75.3031025 C176.738343,75.2260718 177.314754,75.3680973 177.785047,75.7195502 C178.264988,76.0782248 178.573693,76.602997 178.658105,77.192764 C179.642103,84.3445908 182.729158,90.954795 187.588857,96.3132489 C188.143562,96.9198664 188.312385,97.7792411 188.022974,98.5591777 C187.902386,98.891373 187.699798,99.1946817 187.434504,99.4354029 C187.024505,99.8037064 186.496329,100.005912 185.948859,100.005912 L185.828271,100.001098 Z M179.336051,56.9416115 C178.812699,56.674411 178.424405,56.2074119 178.241111,55.6344954 C178.067464,55.0760222 178.118111,54.4645904 178.385817,53.9542614 C187.656627,36.0084959 208.98142,27.7710164 227.988511,34.8097043 C238.021438,38.5216252 246.011603,45.9286166 250.490244,55.6633819 C254.966473,65.4005545 255.381295,76.2763384 251.657536,86.2879331 C247.9386,96.3043423 240.517611,104.281843 230.764448,108.749628 C225.436868,111.192949 219.802993,112.432663 214.01959,112.432663 C209.280479,112.432663 204.589603,111.585324 200.079609,109.919533 C197.952436,109.134782 195.87591,108.157454 193.907912,107.023657 C192.861208,106.419447 192.497032,105.066594 193.092737,104.01705 C193.391795,103.494685 193.871736,103.126381 194.443323,102.97232 C194.636264,102.924175 194.829205,102.897696 195.022146,102.897696 C195.408028,102.897696 195.786674,102.996392 196.124321,103.188969 C197.865613,104.19759 199.715434,105.066594 201.620725,105.7695 C210.54183,109.072195 220.234698,108.703891 228.917039,104.734399 C237.592144,100.755277 244.193135,93.6612235 247.502071,84.7521318 C254.34665,66.3297383 244.902193,45.7865911 226.447395,38.9549234 C209.543361,32.6985794 190.572447,40.0189111 182.324223,55.9883556 C181.762283,57.071601 180.426167,57.5024919 179.336051,56.9416115 Z M176.187014,68.9870597 C175.60578,68.9004 175.089663,68.5898697 174.737546,68.1132417 C174.385428,67.6342065 174.240723,67.0516612 174.327546,66.4715231 C174.530134,65.1427421 174.795428,63.8235899 175.116192,62.564618 C175.270545,61.9868872 175.637132,61.5006303 176.150838,61.1949144 C176.49572,60.9903014 176.876778,60.8843841 177.26266,60.8843841 C177.445953,60.8843841 177.631659,60.9084562 177.814953,60.9566004 C178.38654,61.1010331 178.866481,61.4597077 179.170363,61.9676295 C179.474245,62.4755512 179.561068,63.0701326 179.416362,63.6406418 C179.131775,64.7648098 178.900245,65.9082355 178.71454,67.1214704 C178.685599,67.2899752 178.649422,67.4320007 178.598775,67.5740262 C178.239423,68.5393182 177.207189,69.1363068 176.187014,68.9870597 Z" id="Combined-Shape" fill="url(#linearGradient-3)"></path>
                <text id="bánh-răng-xoay-tròn" font-family=".SFNSDisplay, .SF NS Display" font-size="20" font-weight="normal" fill="#D3D3D3">
                    <tspan x="205" y="173">bánh răng</tspan>
                    <tspan x="205" y="196">xoay tròn</tspan>
                </text>
            </g>
        </g>
    </g>
</svg>