<?xml version="1.0" encoding="UTF-8"?><svg width="277px" height="295px" viewBox="0 0 277 295" version="1.1" xmlns="http://www.w3.org/2000/svg" xmlns:xlink="http://www.w3.org/1999/xlink"> <!-- Generator: Sketch 51.3 (57544) - http://www.bohemiancoding.com/sketch --> <title>Group 13</title> <desc>Created with Sketch.</desc> <defs> <linearGradient x1="50%" y1="0%" x2="50%" y2="133.886719%" id="linearGradient-1"> <stop stop-color="#260046" offset="0%"></stop> <stop stop-color="#215E96" offset="57.7966944%"></stop> <stop stop-color="#1CB5E0" offset="100%"></stop> </linearGradient> <linearGradient x1="0%" y1="0%" x2="0%" y2="118.263057%" id="linearGradient-2"> <stop stop-color="#237AAE" offset="0%"></stop> <stop stop-color="#B0EC51" offset="100%"></stop> </linearGradient> </defs> <g id="Page-2" stroke="none" stroke-width="1" fill="none" fill-rule="evenodd" fill-opacity="0.3"> <g id="09.Porfolio-Main" transform="translate(-995.000000, -1819.000000)"> <g id="Web-mana" transform="translate(170.000000, 1819.000000)"> <g id="Group-13" transform="translate(825.000000, 0.000000)"> <path d="M138.09544,140.46041 C99.4607385,140.46041 68.0285476,108.954957 68.0285476,70.2302052 C68.0285476,31.5054535 99.4607385,0 138.09544,0 C176.731129,0 208.162332,31.5054535 208.162332,70.2302052 C208.162332,108.954957 176.731129,140.46041 138.09544,140.46041 Z M85.1248772,108.482583 L87.0732107,110.925657 C96.0985789,122.238862 108.786458,130.346461 122.799244,133.756069 L130.916641,135.73172 L125.220829,129.608686 C120.131647,124.13826 113.017069,114.963116 108.025699,102.322907 L107.206648,100.248226 L105.051823,100.822601 C97.2189694,102.917088 91.416453,105.395813 87.9278296,107.107054 L85.1248772,108.482583 Z M82.4592567,104.782817 L84.5854299,103.680611 C88.3032691,101.754474 94.5266729,98.9697464 103.065946,96.6405572 L105.471723,95.982997 L104.821619,93.5676515 C103.294173,87.8793594 102.349647,81.6364984 102.014715,75.0113811 L101.895167,72.6306961 L72.7422894,72.6306961 L72.9477931,75.3282776 C73.6858282,85.0589806 76.4877925,94.2668044 81.2756343,102.695261 L82.4592567,104.782817 Z M72.9477931,65.1301522 L72.7422894,67.8287239 L101.895167,67.8287239 L102.014715,65.4490293 C102.349647,58.823912 103.294173,52.581051 104.821619,46.8947395 L105.471723,44.4784037 L103.067922,43.8208435 C94.501973,41.47779 88.2894371,38.6990039 84.5854299,36.7797995 L82.4582687,35.6766036 L81.2746463,37.7661398 C76.4868045,46.2084605 73.6858282,55.415294 72.9477931,65.1301522 Z M87.0732107,29.5347534 L85.1238892,31.976837 L87.9258536,33.3513755 C91.404597,35.060636 97.2011854,37.5383705 105.053799,39.6368195 L107.206648,40.213175 L108.027675,38.1365126 C113.015093,25.507197 120.132635,16.3271016 125.224781,10.8497438 L130.914665,4.72868989 L122.802208,6.70335118 C108.787446,10.1129594 96.0985789,18.2215485 87.0732107,29.5347534 Z M135.699543,5.93685778 L131.183401,10.9359 C126.301699,16.3370046 118.129962,25.3774675 112.873809,38.0206473 L111.669439,40.9113376 L114.744091,41.4550131 C120.118803,42.4047123 128.018841,43.0959428 133.086287,43.3346054 L135.699543,43.4583931 L135.699543,5.93685778 Z M135.699543,67.8287239 L135.699543,48.0494311 L133.26709,47.9870421 C123.332763,47.7246122 117.922482,46.8303699 112.363014,45.7756988 L110.099509,45.3468982 L109.491889,47.5869603 C108.018783,53.0128225 107.095005,58.9269033 106.748217,65.1667934 L106.598041,67.8287239 L135.699543,67.8287239 Z M135.699543,92.4208823 L135.699543,72.6306961 L106.596065,72.6306961 L106.751181,75.2985685 C107.110812,81.5671773 108.045459,87.4832388 109.530421,92.8813725 L110.142981,95.1135122 L112.398582,94.6847116 C118.164542,93.5943896 123.362403,92.7407497 133.266102,92.4842616 L135.699543,92.4208823 Z M135.699543,133.852128 L135.699543,96.3236607 L133.080359,96.4474484 C128.002045,96.6861111 120.102008,97.37239 114.756934,98.3141668 L111.665487,98.859823 L112.884677,101.761406 C117.978798,113.887649 125.726684,122.761741 130.678534,128.27376 L130.756586,128.359916 C130.946281,128.57184 131.131037,128.776833 131.312829,128.977864 L135.699543,133.852128 Z M140.491337,96.3236607 L140.491337,133.844206 L144.994635,128.861008 C149.878313,123.458913 158.053014,114.41647 163.318059,101.761406 L164.521441,98.869726 L161.446789,98.3270407 C156.076028,97.3763512 148.173027,96.6861111 143.105581,96.4474484 L140.491337,96.3236607 Z M140.491337,72.6306961 L140.491337,92.4109793 L142.924778,92.4743586 C152.858117,92.7357982 158.26741,93.6290502 163.827866,94.6837213 L166.092359,95.1135122 L166.698991,92.8724598 C168.172097,87.4574909 169.094887,81.5414295 169.443651,75.2926267 L169.592839,72.6306961 L140.491337,72.6306961 Z M140.491337,48.0395281 L140.491337,67.8287239 L169.593827,67.8287239 L169.441675,65.1608516 C169.081055,58.8902622 168.144433,52.975191 166.660459,47.5790379 L166.047899,45.3478885 L163.792298,45.7747085 C158.027326,46.8660208 152.830453,47.720651 142.927742,47.9761488 L140.491337,48.0395281 Z M140.491337,5.93091597 L140.491337,43.4574028 L143.110521,43.3346054 C148.162159,43.0969331 156.048365,42.4106541 161.430981,41.4668967 L164.526381,40.9232212 L163.306203,38.019657 C158.21307,25.8983661 150.468148,17.0232836 145.512346,11.507304 L145.513334,11.507304 L140.491337,5.93091597 Z M153.388672,6.70335118 L145.278191,4.72868989 L150.966099,10.8487535 C156.058245,16.325121 163.174799,25.5052164 168.161229,38.1365126 L168.98028,40.213175 L171.134117,39.6368195 C178.965983,37.5453026 184.771463,35.0655875 188.26305,33.3543464 L191.066991,31.9788176 L189.117669,29.5347534 C180.083409,18.2205582 167.39553,10.1119691 153.388672,6.70335118 Z M193.734587,35.6766036 L191.607426,36.7797995 C187.904407,38.6980136 181.691871,41.47779 173.122958,43.8208435 L170.722121,44.4784037 L171.370248,46.8937492 C172.898682,52.5860025 173.842221,58.8288635 174.175177,65.448039 L174.294725,67.8287239 L203.449579,67.8287239 L203.245063,65.1311425 C202.50604,55.4063813 199.705063,46.1995478 194.919198,37.7651495 L193.734587,35.6766036 Z M203.245063,75.3282776 L203.449579,72.6306961 L174.297689,72.6306961 L174.176165,75.0113811 C173.843209,81.6256051 172.89967,87.8694564 171.371236,93.5666612 L170.721133,95.982997 L173.124934,96.6395669 C181.669147,98.9707367 187.892551,101.754474 191.607426,103.679621 L193.735575,104.783807 L194.919198,102.69328 C199.706051,94.2549208 202.507028,85.0480873 203.245063,75.3282776 Z M189.117669,110.924667 L191.066991,108.481593 L188.26305,107.106064 C184.771463,105.393833 178.965983,102.914117 171.135105,100.822601 L168.981268,100.248226 L168.162217,102.322907 C163.175787,114.953213 156.059233,124.133309 150.968075,129.609676 L145.276215,135.73172 L153.391636,133.755079 C167.401458,130.341509 180.089337,122.23391 189.117669,110.924667 Z M226.976001,217.785235 L226.976001,178.630692 L140.429291,178.630692 L140.429291,217.785235 L135.761985,217.785235 L135.761985,178.630692 L49.2152738,178.630692 L49.2152738,217.785235 L44.5469799,217.785235 L44.5469799,173.970333 L135.761985,173.970333 L135.761985,147.800624 L140.429291,147.800624 L140.429291,173.970333 L231.644295,173.970333 L231.644295,217.785235 L226.976001,217.785235 Z" id="Combined-Shape" fill="url(#linearGradient-1)"></path> <path d="M272.803855,232.391003 C274.125686,232.391003 275.201342,233.463028 275.201342,234.780397 L275.201342,292.610607 C275.201342,293.927975 274.125686,295 272.803855,295 L195.607739,295 C194.285908,295 193.210252,293.927975 193.210252,292.610607 L193.210252,225.123307 C193.210252,223.805939 194.285908,222.734899 195.607739,222.734899 L224.477438,222.734899 C225.799269,222.734899 226.873936,223.805939 226.873936,225.123307 L226.873936,232.391003 L272.803855,232.391003 Z M270.406368,290.222199 L270.406368,237.134318 L222.252965,237.134318 L222.252965,227.5127 L198.005226,227.5127 L198.005226,290.222199 L270.406368,290.222199 Z M81.5734689,232.391003 C82.8952998,232.391003 83.9709559,233.463028 83.9709559,234.780397 L83.9709559,292.610607 C83.9709559,293.927975 82.8952998,295 81.5734689,295 L4.37735279,295 C3.0555218,295 1.97986577,293.927975 1.97986577,292.610607 L1.97986577,225.123307 C1.97986577,223.805939 3.0555218,222.734899 4.37735279,222.734899 L33.2470511,222.734899 C34.5688821,222.734899 35.6445381,223.805939 35.6445381,225.123307 L35.6445381,232.391003 L81.5734689,232.391003 Z M79.1769705,290.222199 L79.1769705,237.134318 L31.0225786,237.134318 L31.0225786,227.5127 L6.77483981,227.5127 L6.77483981,290.222199 L79.1769705,290.222199 Z M176.850295,232.391003 C178.172126,232.391003 179.247782,233.463028 179.247782,234.780397 L179.247782,292.610607 C179.247782,293.927975 178.172126,295 176.850295,295 L99.654179,295 C98.332348,295 97.256692,293.927975 97.256692,292.610607 L97.256692,225.123307 C97.256692,223.805939 98.332348,222.734899 99.654179,222.734899 L128.523877,222.734899 C129.845708,222.734899 130.920376,223.805939 130.920376,225.123307 L130.920376,232.391003 L176.850295,232.391003 Z M174.452808,290.222199 L174.452808,237.134318 L126.299405,237.134318 L126.299405,227.5127 L102.051666,227.5127 L102.051666,290.222199 L174.452808,290.222199 Z M212.847698,265.98055 L212.847698,261.202749 L256.24073,261.202749 L256.24073,265.98055 L212.847698,265.98055 Z M116.894829,265.98055 L116.894829,261.202749 L160.287862,261.202749 L160.287862,265.98055 L116.894829,265.98055 Z M21.618201,265.98055 L21.618201,261.202749 L65.0112331,261.202749 L65.0112331,265.98055 L21.618201,265.98055 Z" id="Combined-Shape" fill="url(#linearGradient-2)"></path> <path d="M52.1965355,102.497061 C53.132934,103.433806 53.132934,104.959363 52.1975264,105.896109 L26.4500365,131.661074 L0.703537479,105.895118 C0.24970626,105.442109 0,104.838429 0,104.19708 C0,102.871759 1.07809687,101.793262 2.4029273,101.793262 L9.58990946,101.793262 L9.58990946,50.9096374 C9.58990946,49.5843158 10.6670154,48.5068105 11.9918459,48.5068105 L40.9072362,48.5068105 C42.2320667,48.5068105 43.3101635,49.5843158 43.3101635,50.9096374 L43.3101635,101.793262 L50.4971457,101.793262 C51.1382566,101.793262 51.7427043,102.044052 52.1965355,102.497061 Z M26.7889236,124.952191 L45.4871661,106.434366 L39.056239,106.434366 L39.056239,53.3134555 L14.522599,53.3134555 L14.522599,106.434366 L8.0916719,106.434366 L26.7889236,124.952191 Z M249.741239,131.660975 L223.99474,105.89601 C223.540908,105.443002 223.291202,104.839321 223.291202,104.196981 C223.291202,102.87166 224.369299,101.793163 225.694129,101.793163 L232.882103,101.793163 L232.882103,50.9095382 C232.882103,49.5842167 233.959209,48.5067114 235.284039,48.5067114 L264.198438,48.5067114 C265.522278,48.5067114 266.600375,49.5842167 266.600375,50.9095382 L266.600375,101.793163 L273.788348,101.793163 C274.421532,101.793163 275.039852,102.049901 275.486747,102.497953 C275.940578,102.950961 276.191275,103.554641 276.191275,104.196981 C276.191275,104.83833 275.941569,105.44201 275.487738,105.89601 L249.741239,131.660975 Z M237.135036,106.434267 L230.704109,106.434267 L249.402352,124.952092 L268.100594,106.434267 L261.669667,106.434267 L261.669667,53.3133563 L237.135036,53.3133563 L237.135036,106.434267 Z" id="Combined-Shape" fill="url(#linearGradient-1)"></path> </g> </g> </g> </g></svg>