<?xml version="1.0" encoding="UTF-8"?><svg width="299px" height="299px" viewBox="0 0 299 299" version="1.1" xmlns="http://www.w3.org/2000/svg" xmlns:xlink="http://www.w3.org/1999/xlink"> <!-- Generator: Sketch 51.3 (57544) - http://www.bohemiancoding.com/sketch --> <title>Group 12</title> <desc>Created with Sketch.</desc> <defs> <linearGradient x1="0%" y1="0%" x2="101.999998%" y2="100.999999%" id="linearGradient-1"> <stop stop-color="#260046" offset="0%"></stop> <stop stop-color="#215E96" offset="57.7966944%"></stop> <stop stop-color="#1CB5E0" offset="100%"></stop> </linearGradient> <linearGradient x1="50%" y1="-8.98792614%" x2="50%" y2="100%" id="linearGradient-2"> <stop stop-color="#E1E648" offset="0%"></stop> <stop stop-color="#ED3C3C" offset="100%"></stop> </linearGradient> </defs> <g id="Page-2" stroke="none" stroke-width="1" fill="none" fill-rule="evenodd" fill-opacity="0.3"> <g id="09.Porfolio-Main" transform="translate(-169.000000, -5568.000000)"> <g id="FB-ads" transform="translate(169.000000, 5561.000000)"> <g id="Group-16"> <g id="Group-12" transform="translate(0.000000, 7.000000)"> <path d="M278.500589,0 C289.803815,0 299,9.196 299,20.498 L299,214.6 C299,225.904 289.803815,235.1 278.500589,235.1 L188.277778,235.1 C181.095634,235.1 175.252517,240.944 175.252517,248.126 L175.252517,256.225 C175.252517,262.166 180.086614,267 186.027733,267 L200.968033,267 C213.926293,267 224.468504,277.542 224.468504,290.5 L224.468504,296.499 C224.468504,297.878 223.346482,299 221.967454,299 L77.041546,299 C75.6625183,299 74.5414958,297.878 74.5414958,296.499 L74.5414958,290.5 C74.5414958,277.542 85.0837074,267 98.0419674,267 L112.975267,267 C118.917386,267 123.752483,262.166 123.752483,256.225 L123.752483,248.126 C123.752483,240.944 117.908366,235.1 110.725222,235.1 L20.4984113,235.1 C9.19518452,235.1 0,225.904 0,214.6 L0,20.498 C0,9.196 9.19518452,0 20.4984113,0 L278.500589,0 Z M293.9999,214.6 L293.9999,20.498 C293.9999,11.953 287.04676,5 278.500589,5 L20.4984113,5 C11.9522398,5 4.99910032,11.953 4.99910032,20.498 L4.99910032,214.6 C4.99910032,223.146 11.9522398,230.1 20.4984113,230.1 L110.725222,230.1 C120.665421,230.1 128.752584,238.186 128.752584,248.126 L128.752584,256.225 C128.752584,264.923 121.674442,272 112.975267,272 L98.0419674,272 C87.8407627,272 79.5415962,280.299 79.5415962,290.5 L79.5415962,294 L219.466404,294 L219.466404,290.5 C219.466404,280.299 211.168237,272 200.968033,272 L162.715265,272 C161.336238,272 160.214215,270.879 160.214215,269.501 C160.214215,268.122 161.336238,267 162.715265,267 L174.566503,267 L173.89349,266.183 C171.511442,263.284 170.251416,259.84 170.251416,256.225 L170.251416,248.126 C170.251416,238.186 178.338579,230.1 188.277778,230.1 L278.500589,230.1 C287.04676,230.1 293.9999,223.146 293.9999,214.6 Z M263.499288,20.998 C271.495448,20.998 278.000579,27.503 278.000579,35.498 L278.000579,199.601 C278.000579,207.596 271.495448,214.1 263.499288,214.1 L35.4987123,214.1 C27.5035519,214.1 20.9984214,207.596 20.9984214,199.601 L20.9984214,35.498 C20.9984214,27.503 27.5035519,20.998 35.4987123,20.998 L263.499288,20.998 Z M273.000478,199.601 L273.000478,35.498 C273.000478,30.26 268.738393,25.998 263.499288,25.998 L35.4987123,25.998 C30.2606072,25.998 25.9985217,30.26 25.9985217,35.498 L25.9985217,199.601 C25.9985217,204.839 30.2606072,209.101 35.4987123,209.101 L263.499288,209.101 C268.738393,209.101 273.000478,204.839 273.000478,199.601 Z M163.176974,230.0995 C164.556002,230.0995 165.677025,231.2215 165.677025,232.5995 C165.677025,233.9785 164.556002,235.0995 163.176974,235.0995 L135.822426,235.0995 C134.444398,235.0995 133.322375,233.9785 133.322375,232.5995 C133.322375,231.2215 134.444398,230.0995 135.822426,230.0995 L163.176974,230.0995 Z" id="Combined-Shape" fill="url(#linearGradient-1)"></path> <path d="M95.3555498,125.774733 L95.3154212,125.774733 C94.038328,125.762715 93,124.721143 93,123.454231 L93,122.249413 C93,120.963472 94.0473569,119.917894 95.3354855,119.917894 C96.6226109,119.917894 97.6699678,120.963472 97.6699678,122.249413 L97.6699678,123.454231 C97.6699678,124.721143 96.6316399,125.762715 95.3555498,125.774733 Z M95.3154212,127.777756 L95.3555498,127.777756 C96.6316399,127.789774 97.6699678,128.831345 97.6699678,130.098257 L97.6699678,168.337965 L117.379138,168.337965 C120.161055,168.337965 122.424309,166.077553 122.424309,163.299361 L122.424309,109.764572 L97.6699678,109.764572 L97.6699678,114.497715 C97.6699678,115.778648 96.6226109,116.819218 95.3354855,116.819218 C94.0473569,116.819218 93,115.778648 93,114.497715 L93,107.44407 C93,106.15813 94.0473569,105.112552 95.3354855,105.112552 L124.071588,105.112552 L136.754238,96.9432234 C147.567897,89.9857239 154.024592,78.1638837 154.024592,65.3205018 C154.024592,64.0405703 155.071949,63 156.360077,63 L160.833415,63 C164.724887,63 168.376592,64.5052716 171.113363,67.2373946 C174.694842,70.8218038 176.155524,76.1007703 174.926585,81.0131835 L172.150688,92.0668645 C171.361158,95.2296375 172.059395,98.5085857 174.062817,101.063441 C176.074264,103.637325 179.089929,105.112552 182.338341,105.112552 L199.754161,105.112552 C205.40427,105.112552 210,109.700475 210,115.340987 C210,118.737112 208.314598,121.905894 205.492553,123.81778 L205.032077,124.12925 L205.389222,124.55389 C206.946212,126.401679 207.802958,128.742211 207.802958,131.143835 C207.802958,134.540962 206.118559,137.710745 203.295511,139.621629 L202.834032,139.933099 L203.193183,140.358741 C204.750174,142.204527 205.607923,144.549065 205.607923,146.9577 C205.607923,150.354826 203.922521,153.523608 201.100476,155.435494 L200.64,155.746964 L200.997145,156.172606 C202.554135,158.019393 203.411884,160.358923 203.411884,162.761549 C203.411884,168.407069 198.815151,173 193.166045,173 L136.147293,173 C132.303974,173 128.726508,171.413606 126.076013,168.533259 L125.645633,168.066555 L125.289492,168.592348 C123.400437,171.393576 120.517196,173 117.379138,173 L95.3354855,173 C94.0473569,173 93,171.954422 93,170.668482 L93,130.098257 C93,128.831345 94.038328,127.789774 95.3154212,127.777756 Z M199.754161,120.916401 C202.828013,120.916401 205.330032,118.414626 205.330032,115.340987 C205.330032,112.266347 202.828013,109.764572 199.754161,109.764572 L182.338341,109.764572 C177.631254,109.764572 173.273286,107.641368 170.37901,103.937779 C167.474701,100.242202 166.471486,95.5020485 167.625183,90.9301491 L170.400077,79.8854817 C171.235756,76.5474443 170.237556,72.9650381 167.797736,70.5403791 C165.943794,68.677568 163.469865,67.6520203 160.833415,67.6520203 L158.63537,67.6520203 L158.60427,68.1197261 C157.733479,81.3987654 150.513338,93.6432434 139.29137,100.872153 L127.094277,108.713987 L127.094277,159.301327 C127.094277,164.283847 131.155293,168.337965 136.147293,168.337965 L193.166045,168.337965 C196.245916,168.337965 198.750945,165.836189 198.750945,162.761549 C198.750945,159.686909 196.245916,157.186135 193.166045,157.186135 C191.877916,157.186135 190.830559,156.144564 190.830559,154.864632 C190.830559,153.579693 191.877916,152.534115 193.166045,152.534115 L195.362084,152.534115 C198.441955,152.534115 200.946984,150.03234 200.946984,146.9577 C200.946984,143.884061 198.441955,141.382286 195.362084,141.382286 C194.074958,141.382286 193.027601,140.336708 193.027601,139.050768 C193.027601,137.771838 194.074958,136.730266 195.362084,136.730266 L197.559125,136.730266 C200.638997,136.730266 203.144026,134.224484 203.144026,131.143835 C203.144026,128.075204 200.638997,125.578437 197.559125,125.578437 C196.269994,125.578437 195.222637,124.532859 195.222637,123.24792 C195.222637,121.961979 196.269994,120.916401 197.559125,120.916401 L199.754161,120.916401 Z M118.584602,156.894996 C118.584602,161.594087 114.755329,165.417858 110.047239,165.417858 C105.346171,165.417858 101.519907,161.594087 101.519907,156.894996 C101.519907,152.200912 105.346171,148.382149 110.047239,148.382149 C114.755329,148.382149 118.584602,152.200912 118.584602,156.894996 Z M106.180846,156.894996 C106.180846,159.023208 107.915406,160.755822 110.047239,160.755822 C112.179071,160.755822 113.914634,159.023208 113.914634,156.894996 C113.914634,154.766784 112.179071,153.035171 110.047239,153.035171 C107.915406,153.035171 106.180846,154.766784 106.180846,156.894996 Z" id="Combined-Shape" fill="url(#linearGradient-2)"></path> </g> </g> </g> </g> </g></svg>