<?xml version="1.0" encoding="UTF-8"?>
<svg width="133px" height="126px" viewBox="0 0 133 126" version="1.1" xmlns="http://www.w3.org/2000/svg" xmlns:xlink="http://www.w3.org/1999/xlink">
    <!-- Generator: Sketch 51.3 (57544) - http://www.bohemiancoding.com/sketch -->
    <title>Page 1</title>
    <desc>Created with Sketch.</desc>
    <defs></defs>
    <g id="Page-2" stroke="none" stroke-width="1" fill="none" fill-rule="evenodd">
        <g id="05.Google-adwordS-&amp;-GDN" transform="translate(-654.000000, -1842.000000)">
            <g id="Group" transform="translate(-240.000000, 931.000000)">
                <g id="What-is-search-ads?" transform="translate(462.000000, 581.000000)">
                    <g id="Group-13" transform="translate(354.000000, 330.000000)">
                        <g id="Page-1" transform="translate(78.000000, 0.000000)">
                            <path d="M89.0481024,15.9827891 L13.1103266,15.9827891 C13.0441306,15.9827891 13,15.9276258 13,15.8724625 L13,12.1103266 C13,12.0441306 13.0551633,12 13.1103266,12 L89.0481024,12 C89.1142983,12 89.1584289,12.0551633 89.1584289,12.1103266 L89.1584289,15.8724625 C89.1694616,15.9276258 89.1142983,15.9827891 89.0481024,15.9827891" id="Fill-1" fill="#4A90E2"></path>
                            <path d="M48.8671668,32.9827891 L13.0772286,32.9827891 C13.033098,32.9827891 13,32.9601166 13,32.9298867 L13,29.0529023 C13,29.0226724 13.033098,29 13.0772286,29 L48.8671668,29 C48.9112974,29 48.9443954,29.0226724 48.9443954,29.0529023 L48.9443954,32.9374442 C48.9443954,32.9525592 48.9112974,32.9827891 48.8671668,32.9827891" id="Fill-3" fill="#4A90E2"></path>
                            <path d="M99.5511915,44.7471315 L13.0772286,44.7471315 C13.033098,44.7471315 13,44.7140335 13,44.6699029 L13,42.0772286 C13,42.033098 13.033098,42 13.0772286,42 L99.5511915,42 C99.5953222,42 99.6284201,42.033098 99.6284201,42.0772286 L99.6284201,44.6699029 C99.6284201,44.7140335 99.5953222,44.7471315 99.5511915,44.7471315" id="Fill-5" fill="#4A90E2"></path>
                            <path d="M76.9121801,51.2837599 L13.0661959,51.2837599 C13.033098,51.2837599 13,51.250662 13,51.217564 L13,49.0661959 C13,49.033098 13.033098,49 13.0661959,49 L76.9121801,49 C76.945278,49 76.978376,49.033098 76.978376,49.0661959 L76.978376,51.217564 C76.978376,51.250662 76.9563107,51.2837599 76.9121801,51.2837599" id="Fill-7" fill="#4A90E2"></path>
                            <path d="M89.1032657,67.7700794 L13.0661959,67.7700794 C13.033098,67.7700794 13,67.7369815 13,67.7038835 L13,62.0661959 C13,62.033098 13.033098,62 13.0661959,62 L89.1032657,62 C89.1363636,62 89.1694616,62.033098 89.1694616,62.0661959 L89.1694616,67.7038835 C89.1694616,67.7369815 89.1363636,67.7700794 89.1032657,67.7700794" id="Fill-9" fill="#9B9B9B"></path>
                            <path d="M93.0639894,76.2837599 L13.0661959,76.2837599 C13.033098,76.2837599 13,76.250662 13,76.217564 L13,74.0661959 C13,74.033098 13.033098,74 13.0661959,74 L93.0639894,74 C93.0970874,74 93.1301853,74.033098 93.1301853,74.0661959 L93.1301853,76.217564 C93.1301853,76.250662 93.0970874,76.2837599 93.0639894,76.2837599" id="Fill-11" fill="#9B9B9B"></path>
                            <path d="M58.8848191,88.1482789 L13.1213592,88.1482789 C13.0551633,88.1482789 13,88.0931156 13,88.0269197 L13,84.1213592 C13,84.0551633 13.0551633,84 13.1213592,84 L58.8848191,84 C58.951015,84 59.0061783,84.0551633 59.0061783,84.1213592 L59.0061783,88.0269197 C59.0061783,88.0931156 58.951015,88.1482789 58.8848191,88.1482789" id="Fill-13" fill="#4A90E2"></path>
                            <path d="M38.0952763,40.7996773 C38.0180477,40.7224487 37.9849497,40.7003834 37.9408191,40.6672854 C37.4112516,40.1597832 36.8927167,39.6412483 36.3521166,39.1447788 C35.7673858,38.6152113 35.149557,38.1187417 34.410369,37.787762 C34.2669444,37.7215661 34.1235199,37.6774355 33.9690627,37.6333048 C33.1526461,37.4236844 32.6230786,37.9422192 32.898895,38.7365705 C33.0864502,39.2882033 33.3512339,39.8398362 33.6601483,40.3363057 C34.7854793,42.1456614 35.9218429,43.9329518 37.0802719,45.7202422 C37.6981007,46.6690506 38.2828315,47.6509571 38.9778888,48.5446023 C40.1473504,50.0450436 41.6808897,50.9607541 43.6116046,51.1593419 C45.0899806,51.3137991 46.4800954,51.060048 47.7378182,50.2546641 C49.5582066,49.0852024 50.7056029,47.4413366 50.8379948,45.2789359 C50.959354,43.4033843 50.8821254,41.5278326 50.8600601,39.6412483 C50.8600601,38.9351583 50.2532639,38.3945581 49.5692392,38.4055908 C48.9072798,38.4166235 48.3446143,38.9903216 48.322549,39.6743463 L48.322549,40.0935873 L47.4840671,40.0935873 C47.4730345,40.0604893 47.4620018,40.0494566 47.4620018,40.038424 C47.4620018,39.3764646 47.4620018,38.7145052 47.4509692,38.0525458 C47.4509692,37.9311866 47.4509692,37.8098273 47.4178712,37.6995008 C47.2523813,37.048574 46.6345526,36.6293331 46.0056911,36.7175943 C45.3878624,36.8058556 44.9134581,37.3685211 44.9024255,38.0194478 L44.9024255,39.23304 L44.0308456,39.23304 L44.0308456,37.1699332 C44.0308456,36.4417779 43.4571474,35.8460145 42.7620901,35.8460145 C42.0670327,35.8460145 41.4933346,36.4417779 41.4933346,37.1699332 L41.4933346,39.8288035 L41.4933346,40.0935873 L40.6217547,40.0935873 L40.6217547,39.7626076 L40.6217547,31.201266 C40.6217547,30.4510453 40.0590892,29.8663145 39.3419665,29.8552819 C38.6138112,29.8552819 38.0621783,30.5393066 38.0621783,31.201266 C38.0842436,34.2793772 38.073211,37.3574884 38.073211,40.4355996 C38.0952763,40.5459262 38.0952763,40.6452201 38.0952763,40.7996773 M43.7881271,52.0750524 C43.4350821,52.0088565 43.0820371,51.9647258 42.7289921,51.8874972 C40.8203425,51.4682563 39.2978359,50.4311866 38.1394069,48.8866146 C37.5215782,48.070198 37.0361413,47.1434549 36.4734758,46.2829077 C35.469504,44.7273031 34.4655323,43.1716985 33.4615605,41.6160939 C32.965091,40.8438079 32.4686214,40.0825546 32.1707397,39.2109747 C32.0824784,38.9682563 32.0162825,38.7145052 32.0052498,38.4607541 C31.9169886,37.2581945 32.9540583,36.4748759 34.1786832,36.7948229 C35.0171651,37.0154761 35.7011898,37.5009129 36.3741819,38.0194478 C36.6499983,38.2290683 36.914782,38.4607541 37.2236964,38.7255378 L37.2236964,38.4055908 L37.2236964,31.1461027 C37.2236964,30.0538697 38.0180477,29.1602245 39.0882154,29.0168 C40.1473504,28.8844081 41.1513222,29.5463675 41.416106,30.5834372 C41.4712692,30.8040904 41.4933346,31.0468088 41.4933346,31.2674619 C41.5043672,32.6244787 41.4933346,33.9704628 41.4933346,35.3716102 C42.089098,34.9854672 42.7069268,34.8751407 43.3578535,35.0516632 C44.0087803,35.2392183 44.4500865,35.6805246 44.7369356,36.309386 C45.465091,35.8129165 46.2373769,35.636394 47.0537935,36.0004716 C47.8702101,36.3645493 48.2563531,37.0265087 48.3335817,37.8760233 C48.6314634,37.7767294 48.9293451,37.6333048 49.2272269,37.5671089 C50.5290804,37.3133578 51.7206073,38.2952642 51.7316399,39.6081504 C51.7426726,41.4726693 51.7978359,43.348221 51.7206073,45.21274 C51.5882154,48.456341 49.1830963,51.2145052 46.0056911,51.8764646 C45.7298747,51.9316279 45.4540583,51.9867911 45.1782419,52.0309218 C44.725903,52.0750524 44.2514987,52.0750524 43.7881271,52.0750524" id="Fill-15" fill="#FFFFFF"></path>
                            <path d="M40.1417327,25 C40.4506471,25.0661959 40.7595615,25.1213592 41.0684758,25.2096205 C43.2529419,25.8164166 44.8195791,27.6809356 45.0622976,29.9426302 C45.2057221,31.266549 44.918873,32.4911739 44.212783,33.6165049 C44.1245217,33.7599294 44.0472931,33.8150927 43.859738,33.7599294 C43.6390848,33.6827008 43.4073991,33.6606355 43.2088112,33.6275375 C43.4294644,33.2193292 43.6942481,32.8221536 43.8818033,32.3808473 C45.0181669,29.7109444 43.2529419,26.5556046 40.3954838,26.0370697 C37.7697115,25.5626655 35.1660045,27.4161518 34.8791555,30.174316 C34.7246983,31.6637246 35.2211678,32.9545455 36.3134008,33.9916152 C36.500956,34.1681377 36.6112825,34.3446602 36.5781846,34.609444 C36.5561193,34.8080318 36.5781846,35.0066196 36.5781846,35.282436 C36.3575314,35.1169462 36.1699763,34.9955869 36.0044864,34.8411297 C34.603339,33.6165049 33.9193143,32.0719329 34.0075756,30.2074139 C34.1179021,27.7581642 36.0596497,25.5516328 38.4647689,25.1213592 C38.6302587,25.0882613 38.7957486,25.0551633 38.9612384,25.0220653 C39.3473814,25 39.744557,25 40.1417327,25" id="Fill-17" fill="#FBAF21"></path>
                            <path d="M41.8273497,33.1994011 L41.8273497,32.8684214 C41.816317,32.0299395 41.8604476,31.1693923 41.7611537,30.341943 C41.5846312,28.9407956 40.2827777,27.8706279 38.859565,27.8706279 C37.447385,27.8595953 36.1675968,28.9187303 35.9248784,30.2978124 C35.8917804,30.4964002 35.8807477,30.694988 35.8697151,30.8825432 C35.8586824,31.6437965 35.8697151,32.4050498 35.8697151,33.1994011 C34.8326453,32.1512987 34.5457963,29.8344408 36.002107,28.2567709 C37.5135809,26.6129051 40.1172879,26.5798071 41.6177292,28.1685097 C43.1733338,29.8123755 42.8533867,32.1402661 41.8273497,33.1994011" id="Fill-19" fill="#FBAF21"></path>
                            <path d="M38.2480052,39.9224597 L38.2480052,39.5804474 C38.2480052,36.5023362 38.2590378,33.424225 38.2369725,30.3461138 C38.2369725,29.6841544 38.7886054,28.989097 39.5167607,29.0001296 C40.2338834,29.0001296 40.7965489,29.5848604 40.7965489,30.3461138 L40.7965489,38.9074553 L40.7965489,39.238435 L41.6681287,39.238435 L41.6681287,38.9736513 L41.6681287,36.314781 C41.6681287,35.5866257 42.2418269,34.9908622 42.9368843,34.9908622 C43.6319416,34.9908622 44.2056398,35.5866257 44.2056398,36.314781 L44.2056398,38.3778878 L45.0772197,38.3778878 L45.0772197,37.1642956 C45.0772197,36.5023362 45.5516239,35.9507033 46.1804853,35.8624421 C46.8093467,35.7741808 47.4271755,36.1934218 47.5926654,36.8443485 C47.6257633,36.9546751 47.6257633,37.087067 47.6257633,37.1973935 C47.6257633,37.8593529 47.6257633,38.5213123 47.636796,39.1832717 C47.636796,39.1943044 47.6478287,39.2163697 47.6588613,39.238435 L48.4973432,39.238435 L48.4973432,38.8191941 C48.5194085,38.1241367 49.0710414,37.5614712 49.7440334,37.5504386 C50.4390908,37.5394059 51.0348543,38.0800061 51.0348543,38.7860961 C51.0458869,40.6616477 51.1341482,42.548232 51.0127889,44.4237837 C50.8693644,46.5861844 49.7219681,48.2410829 47.9126124,49.3995118 C46.6548896,50.2048958 45.2647748,50.4586469 43.7863988,50.3041897 C41.8556839,50.0945692 40.3221446,49.1788587 39.152683,47.68945 C38.4576257,46.7958048 37.8728949,45.8138984 37.2550661,44.8650899 C36.1076698,43.0777995 34.9602735,41.2905092 33.8349425,39.4811535 C33.5260281,38.9846839 33.2612444,38.4330511 33.0736892,37.8814183 C32.7978728,37.087067 33.3274403,36.5685321 34.1438569,36.7781526 C34.2872814,36.8112506 34.4417386,36.8664138 34.5851632,36.9326098 C35.3133185,37.2635895 35.9311473,37.760059 36.5269107,38.2896266 C37.0675109,38.7860961 37.5860458,39.304631 38.1156133,39.8121332 C38.1376786,39.8231658 38.1707766,39.8562638 38.2480052,39.9224597" id="Fill-21" fill="#FBAF21"></path>
                            <g id="Group-25" transform="translate(0.000000, 0.077229)" fill="#D3D3D3">
                                <path d="M126.0812,93.8989409 C126.0812,94.1416593 125.87158,94.3512798 125.628861,94.3512798 L6.74095322,94.3512798 C6.49823477,94.3512798 6.2886143,94.1416593 6.2886143,93.8989409 L6.2886143,6.72992056 C6.2886143,6.49823477 6.49823477,6.2886143 6.72992056,6.2886143 L6.72992056,6.27758164 L125.628861,6.27758164 C125.87158,6.27758164 126.0812,6.48720212 126.0812,6.72992056 L126.0812,93.8989409 Z M125.617829,0 L6.72992056,0 C3.02294793,0 0,3.02294793 0,6.72992056 L0,93.9099735 C0,97.6169462 3.01191527,100.639894 6.72992056,100.639894 L49.9227714,100.639894 L49.9227714,115.169903 C49.9227714,115.412621 50.1213592,115.611209 50.3640777,115.611209 L81.9836717,115.611209 C82.2263901,115.611209 82.4249779,115.412621 82.4249779,115.169903 L82.4249779,100.639894 L125.628861,100.639894 C129.335834,100.639894 132.358782,97.6169462 132.347749,93.8989409 L132.347749,6.72992056 C132.347749,3.02294793 129.335834,0 125.617829,0 Z" id="Fill-23"></path>
                                <path d="M88.5798764,120 L44.6699029,120 C43.1915269,120 42,121.191527 42,122.669903 C42,124.148279 43.1915269,125.339806 44.6699029,125.339806 L88.5798764,125.339806 C90.0472198,125.339806 91.2387467,124.137246 91.2497793,122.669903 C91.2497793,121.191527 90.0582524,120 88.5798764,120" id="Fill-26"></path>
                            </g>
                        </g>
                    </g>
                </g>
            </g>
        </g>
    </g>
</svg>