<?xml version="1.0" encoding="UTF-8"?>
<svg width="364px" height="350px" viewBox="0 0 364 350" version="1.1" xmlns="http://www.w3.org/2000/svg" xmlns:xlink="http://www.w3.org/1999/xlink">
    <!-- Generator: Sketch 51.3 (57544) - http://www.bohemiancoding.com/sketch -->
    <title>Group 14</title>
    <desc>Created with Sketch.</desc>
    <defs>
        <linearGradient x1="0%" y1="0%" x2="101.999998%" y2="100.999999%" id="linearGradient-1">
            <stop stop-color="#C33764" offset="0%"></stop>
            <stop stop-color="#1D2671" offset="100%"></stop>
        </linearGradient>
        <linearGradient x1="50%" y1="3.19475446%" x2="50%" y2="96.6856665%" id="linearGradient-2">
            <stop stop-color="#EEEEEE" offset="0%"></stop>
            <stop stop-color="#D8D8D8" offset="100%"></stop>
        </linearGradient>
        <linearGradient x1="-15.0284563%" y1="-66.4659899%" x2="-15.0284559%" y2="142.163107%" id="linearGradient-3">
            <stop stop-color="#E1E648" offset="0%"></stop>
            <stop stop-color="#ED3C3C" offset="100%"></stop>
        </linearGradient>
    </defs>
    <g id="Page-2" stroke="none" stroke-width="1" fill="none" fill-rule="evenodd">
        <g id="-----" transform="translate(-254.000000, -669.000000)">
            <g id="Group-14" transform="translate(254.000000, 669.000000)">
                <path d="M123.763546,155.868917 C125.639418,156.714517 126.487071,158.937383 125.659481,160.826059 L110.986049,194.20702 C110.381657,195.564031 109.042465,196.437481 107.580388,196.437481 C106.113296,196.437481 104.776611,195.564031 104.174727,194.209551 L92.9019403,168.560517 L81.6341691,194.20702 C80.9746044,195.688086 79.4423079,196.217219 78.2260006,196.217219 C77.012201,196.217219 75.4799045,195.688086 74.8228477,194.209551 L60.146908,160.826059 C59.3168095,158.934851 60.1694786,156.711985 62.0428428,155.868917 C63.9061755,155.048634 66.1180995,155.901829 66.9582293,157.780378 L78.2285084,183.429413 L89.4962797,157.78291 C90.1558443,156.304375 91.6881408,155.775242 92.9019403,155.775242 C94.1182477,155.775242 95.6505442,156.301844 96.307601,157.780378 L107.580388,183.429413 L118.848159,157.785442 C119.685781,155.909424 121.890182,155.048634 123.763546,155.868917 Z M156.834567,196.215954 C155.620768,196.213422 154.088471,195.68682 153.428907,194.205754 L138.752967,160.824793 C137.925376,158.933585 138.778045,156.710719 140.648902,155.867651 C142.522266,155.047368 144.726666,155.903095 145.56178,157.779113 L156.834567,183.428147 L168.104846,157.781644 C168.761903,156.30311 170.296707,155.773976 171.510507,155.773976 C172.724307,155.773976 174.256603,156.30311 174.91366,157.779113 L186.186447,183.428147 L197.456726,157.781644 C198.29184,155.905627 200.498748,155.047368 202.364589,155.865119 C202.367097,155.865119 202.369605,155.867651 202.369605,155.867651 C201.273674,160.280469 200.651727,164.81228 200.516303,169.354217 L189.592107,194.205754 C188.987716,195.562765 187.651031,196.438746 186.186447,196.438746 C184.721862,196.438746 183.38267,195.562765 182.780786,194.208286 L171.510507,168.559251 L160.240228,194.205754 C159.583171,195.68682 158.048367,196.215954 156.834567,196.215954 Z M280.978171,155.868917 C282.851535,156.711985 283.701697,158.937383 282.874106,160.826059 L268.200674,194.20702 C267.596282,195.564031 266.25709,196.437481 264.792506,196.437481 C263.325413,196.437481 261.991237,195.564031 261.386845,194.209551 L250.116566,168.560517 L238.846287,194.20702 C238.18923,195.688086 236.656933,196.214688 235.440626,196.217219 C234.226827,196.217219 232.69453,195.688086 232.034965,194.209551 L221.878172,171.097318 C221.893219,166.56804 222.660621,162.079269 224.152792,157.742402 C224.157808,157.755061 224.165331,157.76772 224.170347,157.780378 L235.440626,183.429413 L246.710905,157.78291 C247.37047,156.304375 248.902766,155.775242 250.116566,155.775242 C251.332873,155.775242 252.86517,156.304375 253.522227,157.780378 L264.792506,183.429413 L276.065293,157.780378 C276.877836,155.927147 279.129886,155.056229 280.978171,155.868917 Z" id="Combined-Shape" fill="url(#linearGradient-1)"></path>
                <path d="M307.915962,280.375791 C303.801825,285.559378 299.434472,290.472125 294.934243,294.973596 C276.918283,312.999541 254.665339,326.940307 230.584725,335.293732 C229.990545,335.499371 229.371293,335.604697 228.736999,335.604697 C227.137475,335.604697 225.610656,334.92258 224.545142,333.733891 C223.025845,332.043645 222.669838,329.618619 223.640082,327.562237 C235.340678,302.752739 242.084754,283.302374 246.913412,260.426376 C247.224292,258.964339 248.119323,257.660292 249.375376,256.852785 C250.636443,256.037756 252.198361,255.759392 253.662503,256.090419 C270.886221,259.937359 288.320535,265.15104 305.479069,271.588519 C307.158821,272.22048 308.449973,273.632362 308.931334,275.360225 C309.410189,277.098118 309.029111,278.971432 307.915962,280.375791 Z M212.430876,338.333165 C211.658692,339.875452 210.187029,341.001447 208.492235,341.342505 C200.281511,342.987611 191.910332,344.033356 183.609352,344.449648 L183.336079,344.457172 C181.876952,344.457172 180.495545,343.905459 179.442566,342.904854 C178.329417,341.851585 177.690109,340.359454 177.690109,338.819675 L177.690109,253.161329 C177.690109,251.661674 178.304347,250.194621 179.377382,249.138845 C180.417825,248.120685 181.781682,247.563957 183.321037,247.523832 C201.28184,247.905015 219.373012,249.673002 237.115699,252.782653 C238.609925,253.048479 239.95874,253.918679 240.811152,255.177586 C241.663563,256.441509 241.971935,258.018905 241.656041,259.511035 C235.393327,288.949901 225.83128,311.497379 212.430876,338.333165 Z M172.307384,338.819675 C172.307384,340.359454 171.668075,341.851585 170.549913,342.90987 C169.496934,343.905459 168.118034,344.457172 166.671442,344.457172 L166.433268,344.454664 C158.129781,344.033356 149.77866,342.990119 141.590499,341.352536 C139.873141,341.011478 138.39145,339.867929 137.626787,338.298056 C125.033667,312.387642 115.373843,285.993225 108.918083,259.844571 C108.544526,258.332377 108.817799,256.717365 109.665196,255.420841 C110.5151,254.114286 111.881465,253.211484 113.410791,252.945659 C131.015587,249.838516 148.883628,248.030405 166.523524,247.558941 C168.160654,247.599066 169.559611,248.14827 170.59504,249.148876 C171.685625,250.214684 172.307384,251.691768 172.307384,253.198945 L172.307384,338.819675 Z M125.785794,333.896897 C124.72028,335.065524 123.20349,335.732594 121.626529,335.732594 C120.999756,335.732594 120.383012,335.627267 119.786324,335.419122 C95.5628062,327.083251 73.1794934,313.094837 55.0632503,294.971088 C50.6808544,290.589991 46.3435861,285.70483 42.1692788,280.451024 C41.0486089,279.039142 40.6700381,277.158305 41.1564139,275.420411 C41.6452967,273.682518 42.9464772,272.275651 44.641271,271.651213 C62.0129079,265.271413 79.580098,260.087826 96.8539583,256.24841 C99.8800178,255.586355 102.82585,257.439607 103.552907,260.418853 C109.068508,282.993916 116.880605,305.661767 126.773588,327.792953 C127.691184,329.84432 127.302584,332.239253 125.785794,333.896897 Z M44.9747142,66.0882344 C48.2815679,62.1409839 51.6736626,58.4219415 55.0632503,55.0339266 C73.3123693,36.7797736 95.8661643,22.7361883 120.287742,14.4153641 C122.403728,13.7056615 124.73783,14.2949905 126.244592,15.9275573 C127.756368,17.5701552 128.162517,19.9525491 127.277514,21.9963923 C118.094037,43.1570659 110.673047,64.5860724 105.22263,85.6865592 C104.580814,88.1767878 102.336967,89.9171892 99.7697057,89.9171892 C99.3585427,89.9171892 98.9523939,89.8720491 98.5637947,89.7842767 C81.6308988,86.1028512 64.4121945,81.1349329 47.3865362,75.0159422 C45.6566431,74.3889964 44.337913,72.9570523 43.8540443,71.1815419 C43.3726827,69.4035236 43.791367,67.5001163 44.9747142,66.0882344 Z M137.727071,11.7671452 C138.484212,10.1395939 139.98596,8.96595145 141.740924,8.62489295 C149.909028,6.99984952 158.19998,5.96915067 166.388141,5.56038203 C167.872339,5.46007071 169.424229,6.03435303 170.549913,7.09765306 C171.668075,8.16346087 172.307384,9.65308402 172.307384,11.190355 L172.307384,92.4726202 C172.307384,93.9848134 171.688132,95.4568821 170.605069,96.5126587 C169.537048,97.5458654 168.140598,98.1126243 166.671442,98.1126243 C149.603163,97.6637312 132.269133,95.9458998 115.133162,93.0143013 C113.58378,92.7509841 112.202372,91.8381511 111.347454,90.5140416 C110.495043,89.1899321 110.234306,87.5573654 110.627919,86.035141 C117.036045,61.4864525 126.151829,36.4989019 137.727071,11.7671452 Z M177.690109,11.190355 C177.690109,9.6555918 178.329417,8.16596865 179.440059,7.10517641 C180.570757,6.03686082 182.095069,5.45003958 183.63693,5.56038203 C191.847655,5.96915067 200.151142,7.00486508 208.314232,8.63492409 C210.05666,8.97849037 211.54838,10.1471173 212.308028,11.7546062 C224.948784,38.4850661 233.64087,62.1685695 239.660397,86.2859193 C240.038967,87.8106514 239.765694,89.4331871 238.910776,90.7397421 C238.058365,92.0412815 236.684479,92.9465912 235.142618,93.2124162 C217.996619,96.116429 200.604925,97.7765814 183.448898,98.1477333 C181.866924,98.1477333 180.467967,97.5935132 179.389917,96.5452599 C178.309361,95.4794521 177.690109,94.0098912 177.690109,92.5102369 L177.690109,11.190355 Z M223.833128,16.0504386 L223.888284,15.9877441 C225.402567,14.3426384 227.746698,13.7533093 229.860176,14.4655197 C254.229105,22.7963751 276.732758,36.8249137 294.934243,55.0364344 C298.331352,58.4294649 301.753531,62.1786006 305.105513,66.1835302 C306.283846,67.5903965 306.705037,69.4862805 306.233704,71.2542676 L306.233704,71.2567753 C305.757357,73.0272702 304.448655,74.4642299 302.731297,75.0961912 C285.846036,81.295431 268.679981,86.3109972 251.706971,90.0024539 C251.308344,90.0877185 250.904702,90.1328586 250.506074,90.1328586 C247.908728,90.1328586 245.659866,88.3698871 245.038108,85.8470573 C239.805808,64.6688292 232.765895,44.4084497 222.885447,22.0841647 C221.990416,20.0553682 222.363972,17.6955443 223.833128,16.0504386 Z M311.400819,268.167903 C313.892868,269.130891 316.743431,268.197996 318.190023,265.935976 C318.520959,265.416865 318.841867,264.905277 319.155253,264.406228 L323.076345,268.325893 C316.134208,279.32503 307.948554,289.571831 298.740007,298.782919 C276.24889,321.277733 248.101774,337.212186 217.344775,344.863433 C217.15925,344.906065 216.97874,344.963744 216.798229,345.028946 C216.499885,345.05904 216.241655,345.111703 216.031059,345.161859 C189.187631,351.609369 160.814876,351.614385 133.978969,345.166874 C133.735781,345.106688 133.490086,345.061547 133.229349,345.038977 C133.041317,344.968759 132.848271,344.908573 132.660239,344.86594 C101.900734,337.217202 73.7511103,321.282748 51.2549784,298.782919 C18.2014842,265.722814 0,221.763885 0,175.001254 C0,128.246146 18.2014842,84.2872162 51.2549784,51.2246041 C73.7611386,28.7097276 101.930819,12.7727662 132.722916,5.12904334 C132.890891,5.08641103 133.058867,5.03374758 133.103994,5.00365419 C133.334647,4.97857636 133.565299,4.93845183 133.798458,4.8832806 C160.752199,-1.62692427 189.250308,-1.62943206 216.204049,4.88578838 C216.429687,4.93845183 216.655325,4.97857636 216.765637,4.97857636 C216.936119,5.03876315 217.111616,5.0914266 217.294633,5.13656669 C248.066674,12.7727662 276.228833,28.7097276 298.740007,51.2246041 C331.793502,84.2922318 350,128.248654 350,175.001254 C350,192.016562 347.565614,208.816201 342.769548,224.956292 L338.41473,220.600273 C342.528867,205.816892 344.614767,190.474275 344.614767,175.001254 C344.614767,141.166244 334.67415,108.484815 315.870964,80.4954482 C314.409329,78.3136769 311.656543,77.4384606 309.184551,78.3663404 C267.634523,94.2029905 225.249635,102.671774 183.208218,103.534451 C180.164608,103.602161 177.690109,106.130007 177.690109,109.171948 L177.690109,143.551146 C175.900046,143.132346 174.099954,143.032035 172.307384,143.255228 L172.307384,109.14687 C172.307384,106.11496 169.842913,103.584607 166.814346,103.509374 C149.07166,103.06048 131.015587,101.247353 113.150053,98.1226555 C110.156586,97.5784665 107.316051,99.527014 106.67925,102.493721 C103.768517,116.083398 101.622446,129.996578 100.296195,143.862111 C98.5963869,143.327953 96.8063236,143.084698 95.0187674,143.149901 C96.3550471,129.229197 98.5111458,115.265861 101.421879,101.63606 C102.068709,98.6091654 100.138248,95.6098568 97.1146959,94.9503099 C78.4117934,90.8525923 59.4682101,85.2476971 40.8129423,78.2936147 C38.3685281,77.3832894 35.6332913,78.2509824 34.1691499,80.4302458 C17.0156299,105.931892 7.13768946,135.659153 5.60084238,166.392034 C5.52312255,167.92429 6.08721813,169.444006 7.14521074,170.55997 C8.20571044,171.670918 9.69492278,172.310402 11.2292628,172.310402 L55.7326438,172.310402 L58.124409,177.69712 L11.2292628,177.69712 C9.69492278,177.69712 8.20821753,178.336605 7.14771783,179.447553 C6.08721813,180.561009 5.52312255,182.083233 5.60084238,183.617996 C7.06247672,212.803576 16.140655,241.28196 31.8601186,265.981116 C33.269104,268.192981 36.1698089,269.148446 38.6092089,268.220566 C57.6154695,261.020721 76.8248044,255.237773 95.6981892,251.024698 C98.6590642,250.367658 100.592032,247.410982 100.005372,244.431736 C97.0720753,229.54052 95.0889659,214.25809 94.1137073,199.005753 C94.4145583,198.506704 94.6702817,198.02521 94.8909057,197.533684 L95.5778488,195.983875 L96.2572706,197.511114 C97.0795966,199.346812 98.2479012,200.981886 99.7245781,202.373706 C100.770035,216.342058 102.625283,230.124833 105.232658,243.34085 C105.829346,246.37276 108.682416,248.323815 111.751096,247.802196 C130.113034,244.522016 148.637933,242.623624 166.816853,242.162192 C169.895562,242.079435 172.307384,239.604253 172.307384,236.527204 L172.307384,199.602606 C172.781224,198.902934 173.162302,198.225833 173.473181,197.536192 L174.162631,195.983875 L174.842053,197.513622 C175.546546,199.083494 176.504255,200.510423 177.690109,201.761807 L177.690109,236.499618 C177.690109,239.539051 180.164608,242.069404 183.210725,242.139622 C225.98672,243.019854 269.113707,251.777032 311.400819,268.167903 Z M135.69407,170.187564 L139.968661,179.819959 L129.77232,179.819959 L134.044404,170.187564 L135.69407,170.187564 Z" id="Fill-5" fill="url(#linearGradient-2)"></path>
                <path d="M263.826372,215.549141 C251.793893,215.549141 240.481199,210.891839 231.977174,202.430614 C223.470632,193.971891 218.787,182.725294 218.787,170.762959 C218.787,158.795618 223.470632,147.549021 231.977174,139.090298 C240.481199,130.629073 251.793893,125.971771 263.826372,125.971771 C275.85885,125.971771 287.169028,130.629073 295.67557,139.090298 C304.182112,147.549021 308.865744,158.795618 308.865744,170.762959 C308.865744,182.725294 304.182112,193.971891 295.67557,202.430614 C287.169028,210.891839 275.85885,215.549141 263.826372,215.549141 M361.714524,265.976141 L361.714524,265.973638 L306.673673,210.238665 L307.023498,209.858273 C316.833706,199.144725 322.239638,185.257906 322.239638,170.762959 C322.239638,155.246959 316.161739,140.659417 305.128402,129.685601 C294.097581,118.719292 279.427571,112.678063 263.826372,112.678063 C248.222656,112.678063 233.555163,118.719292 222.521825,129.685601 C211.491005,140.659417 205.413105,155.246959 205.413105,170.762959 C205.413105,186.276456 211.491005,200.861496 222.521825,211.835312 C233.555163,222.80162 248.222656,228.84285 263.826372,228.84285 C274.567769,228.84285 285.06756,225.919835 294.195734,220.384127 L294.565693,220.158895 L294.870217,220.466712 L350.598134,276.892397 C352.07042,278.373925 354.035985,279.194771 356.13242,279.202279 L356.157587,279.202279 C358.243955,279.202279 360.204487,278.393946 361.679289,276.924931 C364.706914,273.914326 364.722014,269.001761 361.714524,265.976141" id="Fill-7" fill="url(#linearGradient-3)"></path>
                <text id="kính-lúp-xoay" font-family=".SFNSDisplay, .SF NS Display" font-size="20" font-weight="normal" fill="#D3D3D3">
                    <tspan x="183" y="240">kính lúp xoay</tspan>
                </text>
            </g>
        </g>
    </g>
</svg>