<?xml version="1.0" encoding="UTF-8"?><svg width="674px" height="354px" viewBox="0 0 674 354" version="1.1" xmlns="http://www.w3.org/2000/svg" xmlns:xlink="http://www.w3.org/1999/xlink"> <!-- Generator: Sketch 51.3 (57544) - http://www.bohemiancoding.com/sketch --> <title>SEO icon</title> <desc>Created with Sketch.</desc> <defs> <linearGradient x1="50%" y1="3.19475446%" x2="50%" y2="96.6856665%" id="linearGradient-1"> <stop stop-color="#EEEEEE" offset="0%"></stop> <stop stop-color="#D8D8D8" offset="100%"></stop> </linearGradient> <linearGradient x1="0%" y1="0%" x2="100%" y2="100%" id="linearGradient-2"> <stop stop-color="#237AAE" offset="0%"></stop> <stop stop-color="#B0EC51" offset="100%"></stop> </linearGradient> <linearGradient x1="0%" y1="0%" x2="101.999998%" y2="100.999999%" id="linearGradient-3"> <stop stop-color="#260046" offset="0%"></stop> <stop stop-color="#215E96" offset="57.7966944%"></stop> <stop stop-color="#1CB5E0" offset="100%"></stop> </linearGradient> <linearGradient x1="0%" y1="0%" x2="100%" y2="100%" id="linearGradient-4"> <stop stop-color="#E1E648" offset="0%"></stop> <stop stop-color="#ED3C3C" offset="100%"></stop> </linearGradient> <linearGradient x1="0%" y1="0%" x2="101.999998%" y2="100.999999%" id="linearGradient-5"> <stop stop-color="#C33764" offset="0%"></stop> <stop stop-color="#1D2671" offset="100%"></stop> </linearGradient> </defs> <g id="Page-2" stroke="none" stroke-width="1" fill="none" fill-rule="evenodd"> <g id="-----" transform="translate(-375.000000, -4344.000000)"> <g id="SEO-icon" transform="translate(0.000000, 3641.000000)"> <g transform="translate(370.000000, 703.000000)"> <path d="M663.912887,368.065219 C663.912887,363.825213 661.518271,359.978032 657.760196,358.094981 L658.214682,357.287632 L658.220392,356.729226 C658.220392,356.454019 658.214682,356.177671 658.210114,355.901323 C658.204405,355.631826 658.199837,355.362329 658.199837,355.093974 L658.199837,352.928865 L655.693312,357.349297 C655.107504,357.189426 654.514845,357.075232 653.919902,357.009 L653.919902,217.616361 C654.271615,217.586671 654.609625,217.544419 654.936215,217.489606 L683.981077,400.890155 C682.695269,401.212181 681.442577,401.7546 680.243556,402.508277 L660.338662,376.177529 C662.616803,374.054671 663.912887,371.12789 663.912887,368.065219 Z M599.941109,547.46671 C599.941109,543.428826 597.682382,539.666148 594.138989,537.72029 L625.949592,477.313045 L596.178467,583.136206 C595.390538,582.978619 594.599184,582.899826 593.814682,582.899826 C593.751876,582.899826 593.68907,582.903252 593.627406,582.907819 L591.077488,558.348213 C596.244698,557.271368 599.941109,552.777852 599.941109,547.46671 Z M484.285808,638.521219 C486.408646,640.899871 489.391354,642.251923 492.552202,642.251923 C498.699184,642.251923 503.700816,637.247961 503.700816,631.096355 C503.700816,629.116239 503.170962,627.18751 502.163785,625.483742 L514.34584,616.550381 C514.378956,616.584639 514.41093,616.618897 514.444046,616.653155 C516.649103,618.861658 519.580424,620.077819 522.702447,620.077819 L522.705873,620.077819 C525.826754,620.076677 528.756933,618.860516 530.956281,616.653155 C533.37031,614.247097 534.572757,610.946903 534.304405,607.52909 L581.706852,600.213852 C582.016313,601.054316 582.412561,601.861665 582.891028,602.623335 L418.259706,686.507632 L484.285808,638.521219 Z M358.422838,662.763368 L439.907178,636.287594 L481.539478,632.560316 C481.734747,634.039123 482.201794,635.443703 482.908646,636.676994 L416.692985,684.798155 C414.299511,682.521135 411.186623,681.273 407.871615,681.273 C403.321044,681.273 399.134747,683.695045 396.818923,687.630155 L358.020881,669.169626 C358.73801,667.128987 358.877325,664.891935 358.422838,662.763368 Z M212.098858,660.158613 L281.54845,651.549561 C282.336378,653.766058 283.989886,655.577168 286.146982,656.5638 L287.180424,656.80589 C288.030016,656.99431 288.879608,657.183871 289.73491,657.354019 L289.849103,657.365439 C292.684502,657.351735 295.290375,655.959716 296.910767,653.618748 L335.878956,668.277774 C336.409951,670.322981 337.389723,672.071284 338.793148,673.474723 C342.748777,677.421252 348.886623,678.008206 353.501142,674.916987 L395.49429,690.735077 C395.43491,690.933774 395.376672,691.138181 395.324144,691.346013 L211.736868,662.274619 C211.917292,661.566619 212.036052,660.866613 212.098858,660.158613 Z M174.12186,617.668335 C175.335726,616.448748 176.243556,614.972226 176.82708,613.27531 L194.114682,618.876503 C194.952855,619.312723 195.842414,619.603916 196.669168,619.724961 L281.201305,647.181658 C281.09168,647.706948 281.041436,648.171716 281.041436,648.641052 C281.041436,648.851168 281.050571,649.068135 281.068842,649.289671 L212.048613,657.84391 C211.3646,651.322316 205.868515,646.2978 199.278467,646.2978 C196.809625,646.2978 194.41044,647.026355 192.303589,648.410381 L173.096411,618.53849 C173.450408,618.270135 173.795269,617.990361 174.12186,617.668335 Z M59.6598695,515.853368 L112.584666,553.885529 C112.036542,555.239865 111.759054,556.639877 111.759054,558.05131 C111.759054,564.19949 116.764111,569.20231 122.914519,569.20231 C126.369984,569.20231 129.606199,567.59789 131.722186,564.874374 L157.895106,600.894445 C157.792333,600.974381 157.692985,601.057742 157.601631,601.150239 C155.39429,603.362168 154.17814,606.296942 154.17814,609.415568 C154.17814,612.534194 155.395432,615.465542 157.602773,617.670619 C161.175856,621.231174 166.676509,622.060219 171.157423,619.771781 L190.491354,649.850361 C190.258401,650.065045 190.047145,650.271735 189.85416,650.476142 L57.4216966,518.04931 C58.2484502,517.414394 58.9986949,516.680129 59.6598695,515.853368 Z M55.1995106,465.850297 C56.578956,465.849155 57.9595432,465.604781 59.2442088,465.133161 L119.158728,547.585471 C116.915987,548.390535 115.010114,549.875052 113.690049,551.849458 L60.9353997,513.934916 C61.9745514,512.030168 62.5215334,509.916445 62.5215334,507.786735 C62.5215334,501.667103 58.2473083,496.458735 52.2841762,495.20489 L55.1995106,465.850297 Z M49.6874388,271.898265 C50.5621533,272.490929 51.5293638,272.967116 52.5719413,273.31769 L52.5719413,330.364219 L29.5907015,313.398484 C30.8365416,311.358987 31.4931485,309.064839 31.4931485,306.730723 C31.4931485,303.330039 30.1696574,300.153174 27.75677,297.727703 L49.6874388,271.898265 Z M329.561827,59.7574839 L208.058728,99.2250581 C206.147145,95.5468839 202.326264,93.1956387 198.187928,93.1956387 C192.039804,93.1956387 187.038173,98.2007419 187.038173,104.352348 C187.038173,104.889058 187.080424,105.447465 187.163785,106.019574 L175.420228,109.839348 C174.824144,108.437052 173.99739,107.199194 172.955954,106.157748 C170.748613,103.949245 167.813866,102.733084 164.691843,102.733084 C161.572104,102.733084 158.636215,103.949245 156.430016,106.157748 C154.014845,108.578652 152.815824,111.892548 153.095595,115.321781 L124.72447,120.417097 C124.393312,119.184948 123.90571,118.046439 123.271941,117.017555 L285.273409,34.4681806 C287.717129,37.6199226 291.484339,39.4858452 295.450245,39.4858452 C299.855791,39.4858452 303.949592,37.1791355 306.282545,33.4244516 L330.976672,51.6246194 C329.540131,54.0592258 329.033116,56.9700194 329.561827,59.7574839 Z M491.982382,58.5516 L461.490701,61.4818065 C459.729853,57.3445742 455.762806,54.6964258 451.264763,54.6964258 C445.113214,54.6964258 440.108157,59.701529 440.108157,65.8542774 C440.108157,66.1363355 440.134421,66.4069742 440.169821,66.675329 L401.945024,74.038529 L352.615008,58.003471 C352.742904,54.7318258 351.530179,51.5846516 349.252039,49.3076323 C344.698042,44.7604452 337.290375,44.7604452 332.735237,49.3133419 C332.593638,49.4583677 332.460033,49.6079613 332.329853,49.7586968 L307.343393,31.346129 C307.765905,30.3001161 308.046819,29.2461097 308.18385,28.2035226 L492.069168,57.3331548 C492.021207,57.6951484 491.98124,58.0697032 491.98124,58.4648129 C491.98124,58.4933613 491.982382,58.5230516 491.982382,58.5516 Z M497.830179,81.7523032 C496.566069,81.7854194 495.368189,82.2558968 494.399837,83.0940774 L490.240946,79.9389097 L493.627896,83.9231226 C493.619902,83.9334 493.611909,83.9425355 493.603915,83.9539548 L461.812724,69.4125484 C462.212398,68.2454903 462.414519,67.0498839 462.414519,65.8542774 C462.414519,65.1736839 462.336868,64.4736774 462.176998,63.7279935 L492.245024,60.835471 C493.042088,65.1085935 495.941436,68.6839935 499.959869,70.3432258 L497.830179,81.7523032 Z M570.029527,139.968174 L531.172104,110.749471 C530.834095,108.168697 529.712724,105.859703 527.915334,104.057729 C525.310604,101.451832 521.59478,100.239097 517.928059,100.784942 L502.925449,89.5049032 C503.268026,88.7706387 503.442741,88.0021161 503.442741,87.2164645 C503.442741,85.0022516 502.111256,83.0438323 500.07863,82.1976581 L502.169494,71.029529 C503.158401,71.2544903 504.027406,71.3595484 504.869005,71.3595484 C507.497716,71.3595484 510.022512,70.5510581 512.203589,69.0162968 L571.023002,139.208787 C570.670147,139.424613 570.338989,139.678123 570.029527,139.968174 Z M639.693801,193.315974 L579.638825,147.264 C580.097879,146.386994 580.337684,145.420916 580.337684,144.438852 C580.337684,140.767529 577.124307,137.839606 573.314845,138.369465 L514.204241,67.8161226 L639.693801,193.315974 Z M635.568026,254.761239 C634.703589,254.557974 633.814029,254.4552 632.907341,254.4552 C632.685808,254.4552 632.464274,254.46091 632.241599,254.472329 L618.91876,208.438626 C622.952039,206.790813 625.625285,202.863697 625.625285,198.501503 C625.625285,192.555445 620.788091,187.718206 614.84323,187.718206 C612.890538,187.718206 610.988091,188.246923 609.307178,189.249542 L580.510114,150.827981 L641.928548,197.938529 C640.582219,200.031697 639.874225,202.392077 639.874225,204.798135 C639.874225,209.941413 643.024796,214.634768 647.768352,216.644574 L635.568026,254.761239 Z M674.15367,413.414903 C674.15367,416.204652 675.088907,418.931594 676.800653,421.15951 L643.132137,446.591555 C642.78385,446.121077 642.432137,445.712265 642.069005,445.347987 C640.515987,443.790387 638.511909,442.728387 636.244046,442.256768 L650.309135,378.896477 C651.205546,379.113445 651.998042,379.216219 652.768842,379.216219 C654.806036,379.216219 656.791843,378.658955 658.541272,377.602665 L678.399347,403.871748 C675.692985,406.318916 674.15367,409.767561 674.15367,413.414903 Z M628.328222,477.36329 C628.62398,477.406684 628.935726,477.438658 629.260033,477.438658 C630.963785,477.438658 632.648124,476.897381 634.130343,475.871923 L634.267374,475.777142 L634.332463,475.624123 C635.376183,473.151832 636.45416,470.456865 637.726264,467.141826 L637.786786,466.984239 L637.752529,466.8198 C637.61093,466.1472 637.363132,465.467748 637.013703,464.790581 C638.942414,464.255013 640.676998,463.251252 642.069005,461.860374 C645.581566,458.342071 646.450571,453.066329 644.298042,448.592226 L678.354812,422.867845 C678.878956,423.349742 679.431648,423.782535 680.004894,424.159374 L598.635889,583.862477 C598.555954,583.828219 598.473736,583.797387 598.392659,583.765413 L628.328222,477.36329 Z M578.117781,544.313826 L571.659054,543.103374 L622.113866,473.656568 C622.7031,474.505026 623.436215,475.245 624.273246,475.838806 L592.13491,536.861555 C590.997553,536.494994 589.876183,536.308858 588.791354,536.308858 C583.822838,536.308858 579.508646,539.57251 578.117781,544.313826 Z M449.163622,633.272884 L511.950082,612.876774 C512.223002,613.526535 512.551876,614.14889 512.933279,614.738129 L500.77863,623.644084 C498.645514,621.288271 495.677651,619.946497 492.552202,619.946497 C486.68956,619.946497 481.80783,624.581613 481.436705,630.381503 L449.163622,633.272884 Z M338.79429,656.961194 C337.267537,658.483394 336.208972,660.377865 335.708809,662.4756 L298.303915,650.32769 C298.40783,649.84351 298.468352,649.395871 298.487765,648.957368 L429.626427,637.202284 L357.745677,660.566284 C357.147308,659.1834 356.328548,657.971806 355.305383,656.962335 C353.101468,654.756116 350.170147,653.538813 347.05155,653.538813 L347.050408,653.538813 C343.930669,653.538813 340.999347,654.754974 338.79429,656.961194 Z M54.8797716,334.917116 L77.7833605,351.823471 C76.7704731,353.532948 76.2383361,355.477665 76.2383361,357.478335 C76.2383361,361.895342 78.796248,365.819032 82.8009788,367.622148 L57.7779772,442.881406 C56.8610114,442.670148 55.9668842,442.563948 55.1081566,442.563948 C55.0316476,442.563948 54.9562806,442.56509 54.8797716,442.566232 L54.8797716,334.917116 Z M349.248613,65.8302968 C349.39478,65.6886968 349.526101,65.5391032 349.651713,65.3883677 L366.929038,78.1289419 C366.731485,78.8677742 366.634421,79.5677806 366.634421,80.2563677 C366.634421,81.6061355 366.958728,82.9113677 367.599347,84.1458 L286.804731,119.79931 L286.149266,119.649716 C284.092659,116.333535 280.583524,114.360271 276.712398,114.360271 C274.563295,114.360271 272.487276,114.970065 270.691028,116.126845 L209.078467,102.077613 C209.025938,101.854935 208.965416,101.625406 208.890049,101.37989 L330.211582,61.9568516 C330.801958,63.4310903 331.650408,64.7306129 332.739804,65.826871 C337.288091,70.3752 344.692333,70.3774839 349.248613,65.8302968 Z M512.901305,102.864406 L505.711746,94.4746065 L515.17031,101.587723 C514.37553,101.92231 513.61615,102.349394 512.901305,102.864406 Z M651.618923,356.813729 L638.920718,282.819735 C642.597716,281.710916 645.120228,278.352484 645.120228,274.475613 C645.120228,273.910355 645.058564,273.332535 644.93752,272.755858 L644.899837,272.57429 L643.290865,271.126316 C645.450245,266.643077 644.584666,261.353632 641.074388,257.836471 C640.140294,256.901226 639.020065,256.131561 637.738825,255.543465 L649.960848,217.327452 C650.508972,217.450781 651.063948,217.539852 651.618923,217.591239 L651.618923,356.813729 Z M634.983361,357.743265 L634.983361,283.080097 C635.617129,283.196574 636.218923,283.244535 636.784176,283.190865 L649.528059,357.422381 C647.25677,358.113252 645.272104,359.491568 643.858401,361.362058 L634.983361,357.743265 Z M634.983361,360.09451 L642.750734,363.251961 C641.995922,364.794716 641.613377,366.410555 641.613377,368.065219 C641.613377,372.499355 644.194127,376.43789 648.230832,378.229587 L634.983361,437.913987 L634.983361,360.09451 Z M132.996574,562.714974 C133.70571,561.181355 134.065416,559.614619 134.065416,558.05131 C134.065416,553.608039 131.480098,549.668361 127.436542,547.875523 L132.167537,530.791026 C133.221533,531.107342 134.228711,531.261503 135.231321,531.261503 C141.096248,531.261503 145.868352,526.797677 146.325122,520.998929 L211.135073,520.528452 C212.19478,522.186542 213.775204,523.422116 215.649103,524.0616 L199.517129,602.510284 C199.020392,602.418929 198.544209,602.374394 198.072594,602.374394 C194.241436,602.374394 190.808809,604.970013 189.717129,608.721271 L189.46248,609.881477 C189.4031,610.267452 189.341436,610.665987 189.341436,611.1102 C189.341436,611.798787 189.446493,612.505645 189.687439,613.421477 L190.019739,614.4732 C190.131648,614.741555 190.258401,615.0042 190.397716,615.261135 L177.412887,611.046252 C177.922186,607.420606 176.712887,603.754994 174.120718,601.150239 C170.274715,597.30991 164.299021,596.654439 159.715334,599.50471 L132.996574,562.714974 Z M604.678956,195.058568 L583.646982,196.047484 L555.910767,157.864587 L569.79429,148.668581 C570.944209,149.88931 572.524633,150.580181 574.204405,150.580181 C575.154486,150.580181 576.095432,150.350652 576.951876,149.91329 L607.521207,190.652981 C606.221697,191.866858 605.247635,193.374213 604.678956,195.058568 Z M627.868026,346.900587 C627.868026,340.747839 622.862969,335.742735 616.710277,335.742735 C610.907015,335.742735 606.189723,340.095794 605.639315,345.79291 L576.320392,333.858542 C576.540783,333.091161 576.649266,332.350045 576.649266,331.604361 C576.649266,329.93371 576.167374,328.321297 575.249266,326.909865 L630.446493,280.851039 C631.101958,281.461974 631.86248,281.976987 632.682382,282.365245 L632.682382,356.808019 L625.399184,353.842413 C626.996737,351.856587 627.868026,349.420839 627.868026,346.900587 Z M622.48956,450.909213 L572.435563,339.034935 C573.72708,338.249284 574.776509,337.166729 575.506199,335.867206 L605.686134,348.156716 C606.319902,353.732787 611.095432,358.049303 616.710277,358.049303 C619.240783,358.049303 621.721044,357.149458 623.731974,355.507355 L632.682382,359.151271 L632.682382,442.018103 C629.955465,442.279606 627.442088,443.452374 625.555628,445.349129 C624.0323,446.872471 622.977162,448.798916 622.48956,450.909213 Z M579.891191,554.118484 L530.596574,599.622329 L570.248777,545.045806 L577.714682,546.4344 C577.671289,546.767845 577.633605,547.110426 577.633605,547.46671 C577.633605,549.865916 578.412398,552.155497 579.891191,554.118484 Z M371.218108,589.09711 C371.234095,588.956652 371.246656,588.81391 371.246656,588.664316 C371.246656,587.549787 371.020555,586.443252 370.570636,585.367548 L466.777814,531.027406 C468.425612,533.248471 471.004078,534.560555 473.778956,534.560555 C475.495269,534.560555 477.141925,534.051252 478.58075,533.081748 L516.030179,598.851523 C515.396411,599.284316 514.895106,599.696555 514.444046,600.147619 C512.621533,601.97129 511.469331,604.371639 511.163295,606.958123 L371.218108,589.09711 Z M356.540946,594.998632 C358.172757,596.547097 360.277325,597.394413 362.522349,597.394413 C366.36721,597.394413 369.714192,594.890148 370.834421,591.241665 L511.098206,609.080981 C511.127896,609.626826 511.192985,610.162394 511.291191,610.67969 L438.893148,634.200135 L298.26509,646.79911 C298.050408,645.782787 297.667863,644.839548 297.123165,643.986523 L356.540946,594.998632 Z M335.440457,665.668452 L318.848287,659.417497 L335.430179,664.808574 C335.423328,665.088348 335.426754,665.373832 335.440457,665.668452 Z M123.806362,168.665013 L118.262316,166.55129 C118.101305,164.433 117.35106,162.440323 116.076672,160.737697 L156.804568,123.237677 L123.806362,168.665013 Z M197.410277,116.497974 L197.030016,115.438258 C197.422838,115.481652 197.806525,115.502206 198.187928,115.502206 C202.719086,115.502206 206.77863,112.727303 208.480098,108.5364 L233.670962,120.092787 L197.410277,116.497974 Z M451.264763,77.0098452 C455.206688,77.0098452 458.822023,74.9098258 460.824959,71.4931548 L492.648124,86.0528323 C492.552202,86.4582194 492.505383,86.8407677 492.505383,87.2164645 C492.505383,88.3446968 492.85938,89.4420968 493.514845,90.3647806 L480.552855,99.5767742 L406.208972,75.4214129 L440.527243,68.8130323 C441.845024,73.5954581 446.273409,77.0098452 451.264763,77.0098452 Z M508.609951,108.685994 L483.121044,100.410387 L495.130669,91.8835548 C496.787602,92.9044452 498.91044,92.9409871 500.584502,92.0297226 L511.140457,104.336361 C509.989396,105.561658 509.140946,107.021052 508.609951,108.685994 Z M494.132626,196.175381 C493.622186,195.599845 493.044372,195.100819 492.40832,194.682871 L516.898042,123.607665 C520.329527,124.428716 523.910604,123.678465 526.693475,121.565884 L552.704241,157.373555 L494.132626,196.175381 Z M544.159217,123.396406 L531.02708,114.722265 C531.104731,114.362555 531.165253,114.008555 531.207504,113.657981 L544.159217,123.396406 Z M227.168842,515.824819 L227.168842,515.816826 L311.283034,505.140871 C312.004731,507.959168 314.148124,510.269303 316.926427,511.220535 L290.445188,639.954348 C289.179935,639.795619 287.862153,640.024006 286.631158,640.512755 L223.488418,522.929942 C225.8031,521.291265 227.168842,518.672806 227.168842,515.824819 Z M206.794617,611.1102 C206.794617,607.683252 204.727732,604.540645 201.602284,603.141774 L217.771941,524.518374 C217.986623,524.543497 218.213866,524.561768 218.445677,524.561768 C219.517945,524.561768 220.568515,524.360787 221.579119,523.963394 L284.723002,641.541639 C283.637031,642.311303 282.748613,643.319632 282.117129,644.496968 L205.984992,614.703871 C206.522838,613.535671 206.794617,612.328645 206.794617,611.1102 Z M204.835073,616.59149 L255.697553,636.477155 L201.829527,618.978135 C202.988581,618.418587 204.019739,617.603245 204.835073,616.59149 Z M84.9946166,368.329006 C85.8659054,368.537981 86.6367047,368.636187 87.3880914,368.636187 C88.5619902,368.636187 89.766721,368.426071 90.9748777,368.01269 L124.08956,413.803161 C123.283361,414.546561 122.614192,415.444123 122.120881,416.459303 L121.753181,417.445935 C121.434584,418.399452 121.280424,419.282168 121.280424,420.142045 C121.280424,420.790665 121.368352,421.448419 121.555628,422.178116 L61.8694943,444.667394 C61.2208809,444.214045 60.5916803,443.85091 59.9659054,443.56771 L84.9946166,368.329006 Z M65.9849918,268.836735 L89.4446982,281.505368 C89.3738989,281.694929 89.3088091,281.892484 89.2448613,282.104884 L89.0130506,283.106361 L88.991354,283.244535 C88.9376835,283.637361 88.8828711,284.04389 88.8828711,284.475542 C88.8828711,285.602632 89.0986949,286.69889 89.5440457,287.77231 L90.0190865,288.715548 C91.2306688,290.882942 93.251876,292.408568 95.6202284,292.96469 L87.850571,346.3536 C86.9986949,346.254252 86.1137031,346.369587 85.0551387,346.609394 L61.021044,272.985387 C62.3582382,272.409852 63.5526917,271.597935 64.5792822,270.569052 C65.0817292,270.075735 65.5350734,269.517329 65.9849918,268.836735 Z M110.423002,178.0266 C114.603589,176.755626 117.613703,173.192787 118.183524,168.838587 L122.492007,170.4864 L113.373736,183.018 L110.423002,178.0266 Z M106.342904,192.710748 L107.450571,178.518774 C107.684666,178.505071 107.916476,178.475381 108.151713,178.443406 L111.993148,184.933026 L106.342904,192.710748 Z M176.113377,116.697813 L195.876672,118.6608 L225.926427,202.45831 C224.333442,203.2668 223.02708,204.54691 222.179772,206.131916 L126.037684,169.507761 L158.754976,124.469826 C163.300979,127.15109 169.188744,126.432813 172.947961,122.668994 C174.588907,121.028032 175.67602,118.972548 176.113377,116.697813 Z M490.460196,193.695097 C488.690212,193.073884 486.626754,193.068174 484.79739,193.70309 L451.000979,133.91249 C452.893148,132.247548 453.968842,129.894019 453.968842,127.378335 C453.968842,125.572935 453.383034,123.796084 452.305057,122.310426 L480.788091,102.073045 L508.088091,110.9436 C507.669005,114.493877 508.888581,118.061284 511.401958,120.568974 C512.387439,121.560174 513.55106,122.353819 514.8677,122.935065 L490.460196,193.695097 Z M627.133768,255.916877 L594.653997,211.206677 L607.800979,206.621806 C609.769657,208.340419 612.25677,209.281374 614.84323,209.281374 C615.439315,209.281374 616.054812,209.223135 616.710277,209.103232 L629.947471,254.812626 C628.9323,255.072987 627.991354,255.442974 627.133768,255.916877 Z M621.573736,464.615865 L487.933116,413.638723 C488.124959,412.895323 488.215171,412.228432 488.215171,411.574103 C488.215171,409.800677 487.660196,408.0912 486.606199,406.597548 L562.232463,338.21731 C564.466069,340.143755 567.568679,340.849471 570.468026,339.935923 L619.577651,449.705613 L622.39478,456.015948 C622.716803,457.554135 623.375693,459.023806 624.352039,460.387277 L624.749429,461.271135 C623.399674,462.091045 622.296574,463.253535 621.573736,464.615865 Z M567.751387,544.567335 L528.672431,598.36049 C526.861338,597.284787 524.811582,596.742368 522.750408,596.742368 C521.101468,596.742368 519.446819,597.089516 517.902936,597.789523 L480.251387,531.676026 C481.066721,530.768187 481.683361,529.679923 482.059054,528.485458 L567.751387,544.567335 Z M482.466721,526.350039 C482.487276,526.176465 482.502121,526.004032 482.502121,525.830458 C482.502121,525.211529 482.422186,524.593742 482.247471,523.876606 L619.392659,473.478426 L569.157096,542.624903 L531.577488,535.582587 L531.57863,535.582587 L482.466721,526.350039 Z M319.049266,511.667032 C320.264274,511.810916 321.497553,511.619071 322.628059,511.215968 L357.697716,581.427871 C355.242577,583.063123 353.793475,585.730684 353.793475,588.664316 C353.793475,590.310987 354.263948,591.908555 355.160359,593.318845 L295.748287,642.313587 C294.857586,641.470839 293.776183,640.821077 292.574878,640.405413 L319.049266,511.667032 Z M63.7947798,446.264961 L122.302447,424.207335 C123.418108,426.32791 125.376509,427.911774 127.677488,428.548974 L131.987113,509.481368 C127.309788,510.903077 124.082708,515.207032 124.082708,520.105935 C124.082708,524.261439 126.343719,527.981865 130.017292,529.925439 L125.238336,547.174374 C124.397879,546.984813 123.648777,546.895742 122.914519,546.895742 C122.466884,546.895742 122.04323,546.940277 121.575041,547.009935 L61.3270799,464.076871 C62.1732463,463.570994 62.877814,463.034284 63.4727569,462.446187 C67.9045677,457.99949 68.0164763,450.846406 63.7947798,446.264961 Z M97.5306688,275.745445 C95.8440457,275.76029 94.2019576,276.266168 92.7357259,277.241381 L91.9238173,277.894568 C91.3985318,278.346774 90.924633,278.873206 90.5112561,279.463587 L67.0618271,266.800665 C68.8774878,262.4556 67.9159869,257.403677 64.5941272,254.07151 L103.415008,200.643774 L97.5306688,275.745445 Z M136.471452,233.52809 L136.063785,234.506729 C135.71093,235.512774 135.540783,236.441168 135.540783,237.346723 C135.540783,239.261748 136.199674,241.13909 137.406688,242.688697 L102.71044,277.438935 C101.825449,276.7926 100.85367,276.32669 99.8088091,276.050342 L105.994617,197.090071 L113.261827,187.086716 L138.928874,230.452858 C137.913703,231.249929 137.074388,232.297084 136.471452,233.52809 Z M221.292496,211.793632 L152.180914,233.708516 C150.754649,230.597884 147.70571,228.616626 144.270799,228.616626 C143.100326,228.616626 141.937847,228.868994 140.808483,229.369161 L114.653834,185.179684 L124.714192,171.331432 L221.41925,208.165703 C221.225122,208.910245 221.132626,209.581703 221.132626,210.245168 C221.132626,210.740768 221.185155,211.252355 221.292496,211.793632 Z M383.626264,77.5591161 C382.46721,73.9848581 379.141925,71.5331226 375.358728,71.5331226 C372.244698,71.5331226 369.354486,73.2334645 367.812887,75.9181548 L351.004894,63.5327226 C351.616966,62.5095484 352.061175,61.437271 352.334095,60.3353032 L397.271126,74.9338065 L383.626264,77.5591161 Z M496.143556,200.176723 C495.987113,199.403632 495.726754,198.661374 495.364763,197.961368 L553.988907,159.136703 L580.898369,196.179948 L496.143556,200.176723 Z M564.412398,323.646213 L517.669984,245.645168 C518.811909,244.748748 519.703752,243.573697 520.282708,242.204516 L622.595759,271.643613 C623.172431,272.7216 623.815334,273.6066 624.555302,274.348858 C625.513377,275.306942 626.663295,276.088026 627.976509,276.673839 C628.220881,277.591955 628.586297,278.434703 629.067047,279.183813 L573.868679,325.235787 C572.242577,323.709019 570.149429,322.874265 567.91925,322.874265 C566.733931,322.874265 565.556607,323.132342 564.412398,323.646213 Z M362.522349,579.927368 C361.535726,579.927368 360.561664,580.095232 359.618434,580.426394 L324.547635,510.217916 C326.301631,509.044006 327.573736,507.303697 328.123002,505.327006 L465.063785,525.627194 C465.059217,525.693426 465.055791,525.7608 465.055791,525.830458 C465.055791,526.957548 465.283034,528.064084 465.728385,529.128368 L369.517781,583.474219 C367.865416,581.244019 365.288091,579.927368 362.522349,579.927368 Z M229.850082,218.975265 C230.14584,218.975265 230.426754,218.951284 230.696248,218.918168 L251.169821,310.568768 C249.896574,311.028968 248.756933,311.770084 247.828548,312.745297 L151.865742,241.628981 C152.610277,240.321465 153.000816,238.851794 153.000816,237.346723 C153.000816,236.844271 152.947145,236.333826 152.834095,235.768568 L221.944535,213.858252 C223.343393,216.940335 226.453997,218.975265 229.850082,218.975265 Z M337.784829,125.236065 C336.455628,124.227735 334.847798,123.678465 333.198858,123.678465 C329.986623,123.678465 327.108972,125.73509 326.020718,128.742948 L290.56509,120.661471 L368.918271,86.0779548 C368.979935,86.1498968 369.042741,86.2218387 369.10783,86.2937806 L337.784829,125.236065 Z M565.960848,218.918168 C566.075041,218.283252 566.132137,217.687161 566.132137,217.116194 C566.132137,210.964587 561.130506,205.958342 554.982382,205.958342 C548.830832,205.958342 543.825775,210.964587 543.825775,217.116194 C543.825775,220.281639 545.156117,223.228974 547.509625,225.348406 L520.112561,234.899555 C518.647471,231.93509 515.63279,230.048613 512.291517,230.048613 C510.993148,230.048613 509.68907,230.361503 508.490049,230.959877 L493.645024,208.249065 C495.283687,206.688039 496.255465,204.5766 496.358238,202.344116 L582.422838,198.279968 L591.061501,210.157239 L565.960848,218.918168 Z M328.445024,503.173316 C328.449592,503.11051 328.453018,503.046561 328.453018,502.981471 C328.453018,501.852097 328.220065,500.728432 327.758728,499.634458 L472.514845,416.812161 C473.83491,418.573026 475.78075,419.758355 477.974388,420.137477 L473.132626,517.130052 C469.446493,517.402974 466.363295,519.932361 465.374388,523.491774 L328.445024,503.173316 Z M256.501468,403.649071 C257.174062,403.811226 257.795269,403.890019 258.390212,403.890019 C259.632626,403.890019 260.848777,403.611387 262.01354,403.060974 L314.51925,495.980265 C312.306199,497.621226 310.999837,500.200858 310.999837,502.981471 L310.999837,502.989465 L226.892496,513.664277 C226.253018,511.148594 224.536705,509.065703 222.184339,507.950032 L256.501468,403.649071 Z M198.643556,424.428871 C198.643556,423.632942 198.517945,422.819884 198.262153,421.957723 L250.577162,399.043645 C251.415334,400.732568 252.761664,402.093755 254.444861,402.945639 L220.112887,507.285426 C219.535073,507.162097 218.984666,507.100432 218.445677,507.100432 C217.952365,507.100432 217.45106,507.150677 216.899511,507.255735 L193.523165,432.363039 C196.650897,430.942471 198.643556,427.884368 198.643556,424.428871 Z M138.533768,421.846955 L181.194943,424.894781 C181.437031,429.496781 185.254486,433.166961 189.912398,433.166961 C190.402284,433.166961 190.913866,433.115574 191.465416,433.011658 L214.837194,507.902071 C214.339315,508.135026 213.858564,508.42051 213.385808,508.76309 L136.671289,425.766077 C137.614519,424.641271 138.250571,423.302923 138.533768,421.846955 Z M98.1998369,360.051116 C98.4270799,359.140994 98.5389886,358.293677 98.5389886,357.478335 C98.5389886,352.357897 95.033279,347.897497 90.1287113,346.671058 L97.9097879,293.199929 C98.0022838,293.194219 98.0947798,293.183942 98.1872757,293.172523 L114.79429,361.855374 L98.1998369,360.051116 Z M146.064763,365.147574 C146.064763,365.179548 146.064763,365.209239 146.065905,365.238929 L117.08385,362.094039 L100.312398,292.750006 C100.602447,292.652942 100.892496,292.536465 101.180261,292.402858 L147.310604,361.679516 C146.503263,362.653587 146.064763,363.867465 146.064763,365.147574 Z M106.329201,284.475542 C106.329201,282.429194 105.612072,280.470774 104.298858,278.901755 L138.936868,244.225742 C140.3323,245.309439 141.952692,245.934077 143.675856,246.050555 L149.986134,359.914084 C149.646982,360.013432 149.314682,360.148181 148.999511,360.312619 L103.043883,291.295181 C105.109625,289.641658 106.329201,287.132826 106.329201,284.475542 Z M379.841925,87.7440387 L410.546003,126.967239 C409.236215,128.296452 408.391191,130.005929 408.126264,131.869568 L340.820065,130.70251 C340.704731,129.28651 340.190865,127.949303 339.315008,126.781103 L370.772757,87.6800903 C373.501958,89.3758645 377.059054,89.4089806 379.841925,87.7440387 Z M423.769494,125.518123 C423.769494,126.630368 423.947635,127.739187 424.303915,128.828594 C422.786297,126.103935 419.918923,124.367052 416.71925,124.367052 C415.137684,124.367052 413.600653,124.795277 412.24062,125.609477 L381.530832,86.3839935 C381.694127,86.2206968 381.846003,86.0562581 381.987602,85.8906774 L428.614682,116.375787 C425.60571,118.456394 423.769494,121.8822 423.769494,125.518123 Z M482.580914,194.886135 L423.694127,138.287245 C424.844046,136.759335 425.449266,134.976774 425.449266,133.096006 C425.449266,132.759135 425.424144,132.414271 425.372757,132.051135 L425.815824,131.94151 C427.910114,134.908258 431.285644,136.666839 434.926101,136.666839 C437.054649,136.666839 439.110114,136.067323 440.893801,134.927671 C443.391191,136.405335 446.537194,136.521813 449.193312,135.146923 L482.862969,194.692006 C482.765905,194.755955 482.671126,194.821045 482.580914,194.886135 Z M503.568352,238.771858 C503.568352,240.560129 504.117618,242.27189 505.161338,243.755265 L445.238825,297.870445 C444.925938,297.606658 444.584502,297.361142 444.207667,297.128187 L485.162806,210.301123 C487.528874,211.027394 489.893801,210.7008 491.918434,209.560006 L506.662969,232.140639 C504.688581,233.813574 503.568352,236.200219 503.568352,238.771858 Z M97.4438825,362.284742 L115.365253,364.221465 L126.928385,412.022884 C126.617781,412.145071 126.300326,412.292381 125.956607,412.477374 L93.0920065,367.008929 C94.9955954,365.871561 96.5166395,364.221465 97.4438825,362.284742 Z M325.086623,168.869419 L318.010114,244.526071 C315.500163,245.027381 313.346493,246.606677 312.101794,248.851723 L238.123328,213.017787 C238.430506,212.104239 238.585808,211.173561 238.585808,210.245168 C238.585808,209.241406 238.415661,208.259342 238.077651,207.317245 L319.944535,166.333181 C321.32969,167.745755 323.124796,168.630755 325.086623,168.869419 Z M559.705383,328.764368 L448.215824,305.190252 C448.244372,304.953871 448.263785,304.712923 448.263785,304.468548 C448.263785,302.674568 447.715661,300.967374 446.670799,299.496561 L506.596737,245.384806 C509.096411,247.539639 512.666069,248.14829 515.80522,246.738 L562.547635,324.740187 C561.249266,325.762219 560.259217,327.163374 559.705383,328.764368 Z M267.119086,395.154213 C267.119086,394.771665 267.09168,394.383406 267.036868,393.992865 L385.346003,372.800826 C385.698858,374.832329 386.733442,376.629735 388.309299,377.950955 L322.990049,494.904561 C320.875204,494.025271 318.550245,494.025271 316.425122,494.923974 L263.862316,401.9316 C265.91093,400.274652 267.119086,397.778381 267.119086,395.154213 Z M134.187602,412.515058 L150.727243,370.539794 C151.582545,370.677968 152.322512,370.604884 153.064763,370.375355 L182.755954,415.506929 L184.270147,417.813639 C182.778793,419.084613 181.773899,420.800942 181.392496,422.733097 L138.722186,419.685271 C138.561175,416.6934 136.8323,413.963032 134.187602,412.515058 Z M237.159543,214.961361 L311.313866,250.8798 C311.10261,251.644897 310.999837,252.362032 310.999837,253.058613 C310.999837,254.680161 311.448613,256.252606 312.301631,257.636632 L259.360848,311.822613 C257.831811,310.656697 255.985318,310.018355 254.109135,310.018355 C253.822512,310.018355 253.547308,310.041194 253.289233,310.075452 L232.805383,218.420284 C234.605057,217.781942 236.123817,216.574916 237.159543,214.961361 Z M442.25155,296.183806 C438.17031,294.85231 434.033116,296.625735 432.026754,300.105213 L327.947145,255.973974 C328.282871,255.023884 328.453018,254.045245 328.453018,253.058613 C328.453018,252.370026 328.343393,251.730542 328.212072,251.189265 L479.626754,205.327994 C480.35416,207.050032 481.59429,208.477452 483.18385,209.421832 L442.25155,296.183806 Z M479.484013,402.850858 C478.839967,402.850858 478.181077,402.936503 477.483361,403.111219 L443.583034,312.204019 C445.492333,311.196832 446.96199,309.50791 447.706525,307.463845 L559.228059,331.029968 C559.206362,331.217245 559.189233,331.407948 559.189233,331.604361 C559.189233,333.223626 559.647145,334.799497 560.519576,336.1938 L484.782545,404.685948 C483.245514,403.499477 481.383034,402.850858 479.484013,402.850858 Z M390.138662,379.12829 C391.343393,379.715245 392.60522,380.01329 393.897879,380.01329 C397.247145,380.01329 400.25155,378.125671 401.716639,375.153213 L471.227896,408.778645 C470.917292,409.683058 470.760848,410.621729 470.760848,411.574103 C470.760848,412.710329 470.992659,413.835135 471.449429,414.922258 L399.559543,456.066194 L326.693312,497.743413 C326.188581,497.069671 325.583361,496.471297 324.884502,495.957426 L390.138662,379.12829 Z M323.368026,245.159845 C322.347145,244.677948 321.284013,244.405026 320.200326,244.342219 L327.274551,168.85229 C331.56248,168.298452 334.856933,164.613426 334.868352,160.256942 L408.817129,136.7502 C409.217945,137.620355 409.751223,138.403723 410.408972,139.087742 L323.368026,245.159845 Z M472.196248,406.845348 L456.48907,399.24691 L402.409788,373.084026 C402.558238,372.434265 402.627896,371.854161 402.627896,371.288903 C402.627896,368.569955 401.369494,366.028006 399.234095,364.37791 L435.506199,312.18689 C437.192822,313.079884 439.041599,313.397342 440.892659,313.095871 L474.869494,404.215471 C473.790375,404.891497 472.879119,405.787916 472.196248,406.845348 Z M322.368842,261.3582 L388.782055,364.235168 C387.982708,364.820981 387.291843,365.538116 386.720881,366.376297 L262.577651,320.709155 C262.74323,320.013716 262.825449,319.367381 262.825449,318.748452 C262.825449,316.787748 262.149429,314.886426 260.912724,313.335677 L313.68907,259.324413 C315.946656,261.508935 319.149755,262.392794 322.368842,261.3582 Z M433.738499,310.943323 L397.345351,363.293071 C396.233116,362.806606 395.075204,362.559948 393.897879,362.559948 C392.802773,362.559948 391.725938,362.771206 390.685644,363.189155 L324.344372,260.428665 C325.372104,259.780045 326.257096,258.922452 326.938825,257.910697 L430.366395,301.756452 L431.178303,302.101316 C430.943067,302.892677 430.824307,303.686323 430.824307,304.468548 C430.824307,306.94769 431.879445,309.278381 433.738499,310.943323 Z M261.849103,322.762355 L312.797227,341.486671 L385.712561,368.308452 C385.445351,369.046142 385.279772,369.821516 385.218108,370.623155 L266.447635,391.897413 C265.202936,388.810761 262.312724,386.695897 259.019413,386.458374 L255.682708,327.299265 C258.326264,326.815084 260.61925,325.127303 261.849103,322.762355 Z M479.012398,203.255381 L327.520065,249.132639 C326.967374,248.050084 326.192007,247.089716 325.243067,246.310916 L412.079608,140.474052 C415.147961,142.427903 419.327406,142.189239 422.198206,139.866542 L480.967374,196.354665 C479.639315,197.931677 478.913051,199.896948 478.913051,201.949006 C478.913051,202.390935 478.946166,202.828297 479.012398,203.255381 Z M156.938173,364.532071 L246.7323,323.335606 C248.214519,325.731387 250.739315,327.265006 253.513051,327.457994 L256.857749,386.508619 L256.862316,386.598832 C254.154812,387.080729 251.82186,388.808477 250.597716,391.2408 L156.852529,366.216426 C156.933605,365.846439 156.973573,365.493581 156.973573,365.147574 C156.973573,364.943168 156.962153,364.738761 156.938173,364.532071 Z M249.886297,396.984735 L197.384013,419.969613 C195.81044,417.327174 192.994454,415.706768 189.912398,415.706768 C188.57863,415.706768 187.292822,416.013948 186.08124,416.623742 L154.988907,369.353323 C155.368026,369.035865 155.709462,368.6556 155.997227,368.228516 L249.89429,393.295142 C249.741272,393.946045 249.665905,394.558123 249.665905,395.154213 C249.665905,395.737742 249.736705,396.330406 249.886297,396.984735 Z M333.357586,138.983826 C336.905546,138.908458 339.948777,136.339103 340.665905,132.872187 L408.080587,134.034677 C408.103426,134.252787 408.134258,134.468613 408.173083,134.679871 L334.579445,158.072419 C333.970799,155.675497 332.362969,153.642852 330.152202,152.490639 L333.357586,138.983826 Z M150.557096,243.356729 L246.515334,314.474187 C245.774225,315.785129 245.384829,317.251374 245.384829,318.748452 C245.384829,319.62089 245.524144,320.484194 245.810767,321.370335 L156.263295,362.456032 C155.40571,360.952103 153.870962,359.939206 152.146656,359.738226 L145.830669,245.903245 C147.639478,245.574368 149.286134,244.687084 150.557096,243.356729 Z M146.650571,367.616439 C147.103915,368.509432 147.813051,369.265394 148.693475,369.798677 L132.161827,411.717987 C131.434421,411.517006 130.728711,411.4188 130.017292,411.4188 C129.672431,411.4188 129.344698,411.446206 129.032953,411.485032 L117.655954,364.47269 L146.650571,367.616439 Z M621.557749,269.086819 L520.906199,240.130761 C520.979282,239.656858 521.014682,239.208077 521.014682,238.771858 C521.014682,238.195181 520.945024,237.611652 520.797716,236.964174 L549.687276,226.886594 C551.370473,227.802426 553.151876,228.266052 554.982382,228.266052 C559.480424,228.266052 563.472594,225.605342 565.227732,221.4624 L592.388418,211.993471 L625.253018,257.238097 C625.015498,257.42309 624.779119,257.616077 624.558728,257.831903 L624.555302,257.836471 C621.617129,260.772387 620.495759,265.088903 621.557749,269.086819 Z M287.309462,122.136852 L325.567374,130.857813 C325.549103,131.014258 325.538825,131.170703 325.538825,131.330574 C325.538825,134.802058 327.886623,137.816768 331.202773,138.712045 L328.103589,151.755232 C327.395595,151.579374 326.761827,151.496013 326.144046,151.496013 C322.725122,151.496013 319.693312,153.451006 318.26248,156.525097 L274.514192,136.449871 C275.22447,136.592613 275.961011,136.666839 276.712398,136.666839 C282.860522,136.666839 287.862153,131.665161 287.862153,125.518123 C287.862153,124.393316 287.67602,123.258232 287.309462,122.136852 Z M246.728874,123.696735 L265.561501,125.566084 C265.577488,129.120929 267.264111,132.288658 269.877977,134.321303 L246.728874,123.696735 Z M318.579935,164.584877 L237.071615,205.391942 C235.440946,202.95391 232.779119,201.513929 229.850082,201.513929 C229.243719,201.513929 228.625938,201.590439 227.973899,201.746884 L198.266721,118.901748 L240.098858,123.042406 L317.591028,158.602277 C317.472268,159.180097 317.414029,159.716806 317.414029,160.232961 C317.414029,161.765439 317.815987,163.255665 318.579935,164.584877 Z M620.791517,470.665839 L481.525775,521.823406 C480.283361,519.435619 477.964111,517.740987 475.288581,517.269368 L480.137194,420.284787 C483.142741,420.05069 485.768026,418.332077 487.17602,415.673652 L620.815498,466.649652 C620.628222,467.366787 620.536868,468.043955 620.536868,468.702852 C620.536868,469.33891 620.617945,469.972684 620.791517,470.665839 Z M606.210277,204.880355 L593.319086,209.375013 L585.171452,198.148645 L604.152529,197.24309 C604.095432,197.693013 604.068026,198.102968 604.068026,198.501503 C604.068026,200.781948 604.822838,203.017858 606.210277,204.880355 Z M384.043067,79.6911097 L401.543067,76.3246839 L478.222186,101.232581 L450.831974,120.700297 C449.254976,119.377935 447.290865,118.65509 445.25367,118.65509 C444.76721,118.65509 444.273899,118.698484 443.785155,118.785271 C441.671452,116.008084 438.387276,114.360271 434.926101,114.360271 C433.497553,114.360271 432.094127,114.635477 430.750082,115.180181 L383.16721,84.0704323 C383.774715,82.8417097 384.081892,81.5604581 384.081892,80.2563677 C384.081892,80.0656645 384.065905,79.8783871 384.043067,79.6911097 Z M210.134747,518.491239 L146.295432,519.045077 C145.756444,513.347961 140.998042,508.961787 135.231321,508.961787 C134.830506,508.961787 134.403426,508.990335 133.93752,509.050858 L129.850571,428.874426 C129.905383,428.877852 129.960196,428.878994 130.017292,428.878994 C131.834095,428.878994 133.568679,428.306884 135.065742,427.218619 L211.779119,510.2202 C210.452202,511.789219 209.729364,513.7602 209.729364,515.824819 C209.729364,516.748645 209.865253,517.641639 210.134747,518.491239 Z M568.588418,146.858613 L554.624959,156.10829 L528.40522,120.016277 C529.190865,119.119858 529.833768,118.108103 530.322512,116.999284 L568.515334,142.2018 C568.215008,142.937206 568.063132,143.6886 568.063132,144.438852 C568.063132,145.264471 568.240131,146.076387 568.588418,146.858613 Z M240.300979,120.752826 L209.118434,106.445516 C209.269168,105.714677 209.343393,105.028374 209.344535,104.362626 L268.641272,117.884284 C267.220718,119.387071 266.240946,121.258703 265.823002,123.282213 L240.300979,120.752826 Z M176.087113,112.03529 L187.78956,108.238355 C188.93491,111.307877 191.399184,113.731065 194.506362,114.825039 L195.022512,116.265019 L176.322349,114.408232 C176.318923,113.590606 176.240131,112.796961 176.087113,112.03529 Z M82.8637847,347.311684 C81.4934747,347.922619 80.2384992,348.838452 79.1902121,349.992948 L54.8797716,332.058852 L54.8797716,273.886374 C56.1849918,274.047387 57.5301794,273.982297 58.82969,273.696813 L82.8637847,347.311684 Z M125.158401,122.676987 L153.48956,117.590806 C153.876672,118.946284 154.519576,120.222968 155.403426,121.398019 L114.546493,159.025935 C112.501305,157.212542 109.90571,156.2202 107.176509,156.2202 C101.020392,156.2202 96.0130506,161.225303 96.0130506,167.37691 C96.0130506,172.731445 99.9115824,177.335729 105.167863,178.300665 L103.757586,196.2576 L62.7944535,252.642948 C58.1570962,249.525465 52.0523654,250.080445 48.0704731,254.052097 C43.5575856,258.570735 43.522186,265.896252 47.9288744,270.419458 L26.0130506,296.235194 C25.8611746,296.128994 25.7058728,296.023935 25.5482871,295.922303 L107.230179,135.61169 C108.885971,136.339103 110.598858,136.707948 112.330016,136.707948 C119.439641,136.707948 125.224633,130.924045 125.224633,123.813213 C125.224633,123.461497 125.202936,123.09151 125.158401,122.676987 Z M28.2443719,315.27811 L52.5719413,333.221342 L52.5719413,442.807181 C50.445677,443.300497 48.51354,444.372774 46.9593801,445.92809 C42.4122349,450.474135 42.4122349,457.884155 46.960522,462.447329 C48.5946166,464.074587 50.6455139,465.160568 52.9168026,465.609348 L50.0094617,494.918265 C49.8804241,494.902277 49.7513866,494.892 49.6189233,494.892 C49.5892333,494.892 49.5606852,494.893142 49.533279,494.894284 L21.7125612,319.247477 C24.2350734,318.613703 26.5223491,317.22511 28.2443719,315.27811 Z M355.54062,673.230348 C356.112724,672.619413 356.615171,671.952523 357.039967,671.239955 L382.712724,683.464374 L355.54062,673.230348 Z M581.132463,597.980226 L533.92186,605.258923 C533.540457,603.89431 532.900979,602.613058 532.015987,601.438006 L581.423654,555.829103 C583.477977,557.633361 586.072431,558.621135 588.786786,558.622277 L591.336705,583.189877 C585.263948,584.360361 580.912072,589.577865 580.912072,595.794561 C580.912072,596.482006 580.981729,597.174019 581.132463,597.980226 Z M687.034584,400.520168 C686.775367,400.520168 686.51615,400.547574 686.258075,400.58069 L657.164111,216.853548 C662.26509,215.001329 665.657749,210.216619 665.657749,204.798135 C665.657749,197.688445 659.876183,191.9034 652.768842,191.9034 C649.78385,191.9034 646.885644,192.968826 644.549266,194.9124 L515.420392,65.7960387 C516.955139,63.6126581 517.763622,61.0889806 517.763622,58.4648129 C517.763622,51.3574065 511.97863,45.5757871 504.869005,45.5757871 C499.013214,45.5757871 493.983034,49.4503742 492.457423,55.064129 L308.301468,25.895671 C307.937194,19.1297032 302.270962,13.7032258 295.450245,13.7032258 C288.339478,13.7032258 282.554486,19.4837032 282.554486,26.5911097 C282.554486,28.6477355 283.056933,30.6347032 284.050408,32.5063355 L121.817129,115.167619 C119.363132,112.461232 115.930506,110.917335 112.330016,110.917335 C105.21925,110.917335 99.4353997,116.703523 99.4353997,123.813213 C99.4353997,128.145716 101.582219,132.104806 105.203263,134.507439 L23.5213703,294.838606 C21.9352365,294.172858 20.2840131,293.835987 18.6053834,293.835987 C11.4946166,293.835987 5.7096248,299.61989 5.7096248,306.730723 C5.7096248,313.838129 11.4946166,319.619748 18.6053834,319.619748 C18.885155,319.619748 19.1569331,319.5912 19.4287113,319.5558 L47.2425775,495.170632 C41.2075041,496.303432 36.7243067,501.628277 36.7243067,507.786735 C36.7243067,514.894142 42.5081566,520.676903 49.6189233,520.676903 C51.5898858,520.676903 53.5265905,520.200716 55.3822186,519.258619 L188.409625,652.2804 C187.082708,654.36329 186.382708,656.7408 186.382708,659.186826 C186.382708,666.296516 192.168842,672.081561 199.278467,672.081561 C204.377162,672.081561 208.936868,669.117097 211.018597,664.488832 L395.01925,693.631026 C394.999837,693.8046 394.98385,693.980458 394.98385,694.160884 C394.98385,701.271716 400.765416,707.055619 407.871615,707.055619 C414.982382,707.055619 420.766232,701.271716 420.766232,694.160884 C420.766232,692.24129 420.307178,690.342252 419.399347,688.506019 L584.340131,604.459568 C586.792985,607.156819 590.221044,608.696148 593.814682,608.696148 C600.922023,608.696148 606.702447,602.907677 606.702447,595.794561 C606.702447,591.412955 604.403752,587.301987 600.66509,584.939323 L682.034095,425.251065 C683.65677,425.948787 685.336542,426.302787 687.034584,426.302787 C694.149918,426.302787 699.937194,420.52231 699.937194,413.414903 C699.937194,406.304071 694.149918,400.520168 687.034584,400.520168 Z" id="Fill-1" fill="url(#linearGradient-1)"></path> <path d="M676.884013,272.783265 C676.884013,297.933252 656.496085,318.32251 631.34633,318.32251 C606.196574,318.32251 585.807504,297.933252 585.807504,272.783265 C585.807504,247.633277 606.196574,227.245161 631.34633,227.245161 C656.496085,227.245161 676.884013,247.633277 676.884013,272.783265" id="Fill-17" fill="#ECECEC"></path> <path d="M629.717945,295.882335 L620.641925,295.882335 L620.641925,276.965032 C620.641925,274.495026 622.672268,272.488645 625.179935,272.488645 C627.685318,272.488645 629.717945,274.495026 629.717945,276.965032 L629.717945,295.882335 Z M641.705873,295.882335 L632.628711,295.882335 L632.628711,264.945019 C632.628711,262.475013 634.660196,260.472058 637.167863,260.472058 C639.676672,260.472058 641.705873,262.475013 641.705873,264.945019 L641.705873,295.882335 Z M653.697227,295.882335 L644.617781,295.882335 L644.617781,253.418323 C644.617781,250.947174 646.653834,248.941935 649.160359,248.941935 C651.666884,248.941935 653.697227,250.947174 653.697227,253.418323 L653.697227,295.882335 Z M617.727732,295.882335 L608.646003,295.882335 L608.646003,288.571665 C608.646003,286.101658 610.683197,284.097561 613.189723,284.097561 C615.696248,284.097561 617.727732,286.101658 617.727732,288.571665 L617.727732,295.882335 Z" id="Combined-Shape" fill="url(#linearGradient-2)"></path> <path d="M363.996574,256.796168 C363.996574,281.946155 343.608646,302.335413 318.457749,302.335413 C293.307993,302.335413 272.920065,281.946155 272.920065,256.796168 C272.920065,231.647323 293.307993,211.258065 318.457749,211.258065 C343.608646,211.258065 363.996574,231.647323 363.996574,256.796168" id="Fill-26" fill="#ECECEC"></path> <path d="M323.367684,233.318928 C322.607162,240.725521 320.04354,246.315296 318.468825,252.907689 C312.509119,250.414844 304.541909,249.326579 297.482529,251.50996 C298.909935,245.233883 300.932284,239.559605 302.382529,233.318928 C307.576003,229.065218 317.67633,230.593128 323.367684,233.318928 Z M326.860261,236.813936 C332.20447,239.940555 340.99615,240.26829 347.854551,238.2208 C345.77168,244.299323 344.509853,251.195471 342.252268,257.107271 C336.498108,260.153955 325.492235,259.928994 321.269396,255.707258 C323.024535,249.299858 324.779674,242.900452 326.860261,236.813936 Z M317.069168,256.407493 C315.979772,263.477216 313.185481,268.839745 312.173736,275.991687 C306.007341,273.155119 298.14633,271.257222 291.190865,274.591674 C292.070147,267.545932 294.420228,261.974428 296.084013,255.707487 C301.472757,252.366183 312.20571,253.353958 317.069168,256.407493 Z M320.573051,259.199868 C325.916117,262.976248 334.848254,263.194358 341.560489,260.598739 C339.578108,266.785745 337.991974,273.357584 335.967341,279.489778 C330.552333,283.169094 319.959837,282.604978 314.976476,278.788629 C316.35478,271.774861 318.17044,265.204165 320.573051,259.199868 Z" id="Combined-Shape" fill="url(#linearGradient-3)"></path> <path d="M474.763295,141.460684 C474.763295,166.610671 454.375367,186.999929 429.225612,186.999929 C404.075856,186.999929 383.686786,166.610671 383.686786,141.460684 C383.686786,116.310697 404.075856,95.9225806 429.225612,95.9225806 C454.375367,95.9225806 474.763295,116.310697 474.763295,141.460684" id="Fill-33" fill="#ECECEC"></path> <path d="M416.812887,168.333852 L441.929527,168.333852 L441.929527,146.046697 C441.929527,139.122 436.292985,133.486548 429.37292,133.486548 C422.442577,133.486548 416.812887,139.122 416.812887,146.046697 L416.812887,168.333852 Z M414.830506,146.046697 L414.830506,163.332174 L405.383361,163.332174 L405.383361,147.742471 C405.383361,142.968039 409.267047,139.085458 414.044861,139.085458 C414.895595,139.085458 415.700653,139.247613 416.471452,139.476 C415.457423,141.459542 414.830506,143.669187 414.830506,146.046697 Z M453.371615,163.332174 L443.911909,163.332174 L443.911909,146.046697 C443.911909,143.669187 443.28956,141.459542 442.269821,139.476 C443.045188,139.247613 443.858238,139.085458 444.708972,139.085458 C449.479935,139.085458 453.371615,142.963471 453.371615,147.742471 L453.371615,163.332174 Z M429.37292,115.335484 C424.95938,115.335484 421.362316,118.926871 421.362316,123.343877 C421.362316,127.760884 424.954812,131.356839 429.37292,131.356839 C433.789886,131.356839 437.383524,127.760884 437.383524,123.343877 C437.388091,118.926871 433.789886,115.335484 429.37292,115.335484 Z M414.040294,126.161032 C411.050734,126.161032 408.618434,128.587645 408.618434,131.5818 C408.618434,134.564535 411.050734,136.990006 414.040294,136.990006 C417.02186,136.990006 419.45416,134.564535 419.45416,131.5818 C419.45416,128.592213 417.02186,126.161032 414.040294,126.161032 Z M444.716966,126.161032 C441.727406,126.161032 439.3031,128.587645 439.3031,131.5818 C439.3031,134.564535 441.727406,136.990006 444.716966,136.990006 C447.707667,136.990006 450.138825,134.564535 450.138825,131.5818 C450.138825,128.592213 447.698532,126.161032 444.716966,126.161032 Z" id="Fill-34" fill="url(#linearGradient-2)"></path> <path d="M149.314682,155.16391 C149.314682,180.313897 128.926754,200.703155 103.776998,200.703155 C78.6272431,200.703155 58.2381729,180.313897 58.2381729,155.16391 C58.2381729,130.015065 78.6272431,109.625806 103.776998,109.625806 C128.926754,109.625806 149.314682,130.015065 149.314682,155.16391" id="Fill-35" fill="#ECECEC"></path> <path d="M122.1677,167.533355 L79.8194127,167.533355 C77.3231648,167.679523 75.9437194,166.505613 76.08646,163.593677 L76.08646,147.362206 C76.1309951,144.669523 77.0730832,143.368858 79.8194127,143.415677 L122.1677,143.415677 C125.040783,143.368858 125.920065,144.728903 125.899511,147.362206 L125.899511,163.593677 C126.108483,166.564994 124.666232,167.432865 122.1677,167.533355 M130.269657,147.500381 C133.098206,148.166129 135.184502,150.680671 135.184502,153.629148 L135.184502,156.294426 C135.184502,159.241761 133.098206,161.757445 130.269657,162.426619 L130.269657,164.924032 C130.269657,168.413787 127.396574,171.253781 123.863458,171.253781 L78.3463295,171.253781 C74.8143556,171.253781 71.9412724,168.413787 71.9412724,164.924032 L71.9412724,145.644735 C71.9412724,142.154981 74.8143556,139.316129 78.3463295,139.316129 L123.863458,139.316129 C127.396574,139.316129 130.269657,142.154981 130.269657,145.644735 L130.269657,147.500381 Z M88.2392822,165.680679 L94.5541272,165.680679 L94.5541272,145.270866 L88.2392822,145.270866 L88.2392822,165.680679 Z M97.7126917,165.680679 L104.029821,165.680679 L104.029821,145.270866 L97.7126917,145.270866 L97.7126917,165.680679 Z M85.0819739,145.271208 L81.8720228,145.271208 C79.3700653,145.231241 78.5181892,146.329783 78.4770799,148.610228 L78.4770799,162.344286 C78.3411909,164.808583 79.6007341,165.802066 81.8720228,165.681021 L85.0819739,165.681021 L85.0819739,145.271208 Z" id="Combined-Shape" fill="url(#linearGradient-4)"></path> <path d="M357.146166,45.5381032 C357.146166,70.6880903 336.758238,91.0773484 311.607341,91.0773484 C286.457586,91.0773484 266.068515,70.6880903 266.068515,45.5381032 C266.068515,20.3881161 286.457586,0 311.607341,0 C336.758238,0 357.146166,20.3881161 357.146166,45.5381032" id="Fill-40" fill="#ECECEC"></path> <path d="M334.121132,44.2694129 L334.099435,64.2521419 L330.24658,42.8328581 C329.921132,41.6566645 328.590789,41.7366 328.590789,41.7366 L295.850658,41.7366 L295.850658,34.9386581 L334.123415,34.9386581 L334.123415,44.2694129 L334.121132,44.2694129 Z M336.21428,63.4516452 L336.225699,32.8374968 C336.221132,31.8976839 335.457184,31.133729 334.518521,31.133729 L312.927004,31.133729 C312.26012,31.1177419 311.740544,29.8924452 311.740544,29.4219677 L311.740544,29.2266968 C311.740544,28.2286452 310.926352,27.4064516 309.9226,27.4064516 L298.431409,27.4064516 C297.431083,27.4064516 296.619174,28.2275032 296.619174,29.2266968 L296.619174,29.4219677 C296.619174,29.8992968 296.092747,31.1428645 295.411017,31.1428645 L295.429288,31.1428645 C294.500903,31.1554258 293.747233,31.912529 293.747233,32.8443484 L293.752942,41.7080516 L290.080512,41.7080516 C290.080512,41.7080516 288.455552,41.6201226 289.029941,43.5557032 L292.904492,63.4516452 C292.904492,64.4542645 293.602208,65.2627548 294.604818,65.2627548 L335.378391,65.2627548 C336.379859,65.2627548 336.21428,63.4516452 336.21428,63.4516452 Z" id="Fill-41" fill="url(#linearGradient-5)"></path> </g> </g> </g> </g></svg>