<?xml version="1.0" encoding="UTF-8"?>
<svg width="409px" height="483px" viewBox="0 0 409 483" version="1.1" xmlns="http://www.w3.org/2000/svg" xmlns:xlink="http://www.w3.org/1999/xlink">
    <!-- Generator: Sketch 51.3 (57544) - http://www.bohemiancoding.com/sketch -->
    <title>Group 27</title>
    <desc>Created with Sketch.</desc>
    <defs>
        <linearGradient x1="50%" y1="3.19475446%" x2="50%" y2="100%" id="linearGradient-1">
            <stop stop-color="#EEEEEE" offset="0%"></stop>
            <stop stop-color="#D8D8D8" offset="100%"></stop>
        </linearGradient>
        <linearGradient x1="0%" y1="0%" x2="100%" y2="100%" id="linearGradient-2">
            <stop stop-color="#E1E648" offset="0%"></stop>
            <stop stop-color="#ED3C3C" offset="100%"></stop>
        </linearGradient>
        <linearGradient x1="0%" y1="0%" x2="101.999998%" y2="100.999999%" id="linearGradient-3">
            <stop stop-color="#C33764" offset="0%"></stop>
            <stop stop-color="#1D2671" offset="100%"></stop>
        </linearGradient>
    </defs>
    <g id="Page-2" stroke="none" stroke-width="1" fill="none" fill-rule="evenodd">
        <g id="-----" transform="translate(-225.000000, -2155.000000)">
            <g id="Group-27" transform="translate(225.000000, 2155.000000)">
                <path d="M55.3852062,97.3714279 C53.8002985,96.5491297 53.1814997,94.5897663 54.0008578,93.0037312 C66.7461572,68.5665905 86.3447149,48.7679925 110.685766,35.7478644 C112.309808,34.915806 114.23958,35.501419 115.085842,37.0752538 C115.927213,38.6515287 115.330426,40.6182122 113.760194,41.4624709 C90.5735813,53.8579451 71.9044448,72.7146823 59.7730525,95.9927974 C59.2080623,97.0688612 58.1025403,97.7349959 56.8869552,97.7349959 C56.3562068,97.7349959 55.8523627,97.6154333 55.3852062,97.3714279 Z M147.548812,29.0023352 C146.02505,29.0023352 144.689619,27.9213913 144.369213,26.4329583 C144.007228,24.6809996 145.134762,22.9583215 146.881096,22.5923134 C151.264051,21.6748531 155.783973,20.9599172 160.316124,20.4694664 C162.148062,20.2767021 163.703619,21.5479702 163.894395,23.3511701 C163.989783,24.205189 163.742753,25.0494477 163.199775,25.7229026 C162.656798,26.4012376 161.881465,26.823367 161.018081,26.9185291 C156.728069,27.3748192 152.423381,28.0507141 148.218973,28.9340137 C147.996401,28.9803747 147.776275,29.0023352 147.548812,29.0023352 Z M174.996331,291.348644 C100.009163,291.348644 39,230.486377 39,155.671882 C39,144.620877 40.3403232,133.618674 42.981836,122.975158 C43.1726119,122.204101 43.6471059,121.555047 44.3172675,121.152438 C44.7746405,120.876712 45.2858222,120.735189 45.8067872,120.735189 C46.0489259,120.735189 46.2959563,120.766909 46.5380949,120.827911 C47.3085362,121.018235 47.9542393,121.496486 48.3578038,122.169941 C48.7613682,122.838515 48.8787688,123.629093 48.6831012,124.38551 C46.1638806,134.575175 44.8871494,145.101568 44.8871494,155.671882 C44.8871494,227.248425 103.252354,285.480314 174.996331,285.480314 C246.742755,285.480314 305.115296,227.248425 305.115296,155.671882 C305.115296,87.3650105 251.644228,30.4653915 183.38558,26.1342957 C180.563075,25.9561718 177.743015,25.8683298 174.996331,25.8683298 C173.374736,25.8683298 172.053979,24.5531407 172.053979,22.9353849 C172.053979,21.3176292 173.374736,20 174.996331,20 C177.955804,20 180.905493,20.0927221 183.76224,20.2757261 C255.109991,24.8020262 311,84.2759021 311,155.671882 C311,230.486377 249.988391,291.348644 174.996331,291.348644 Z M67.5738313,453.724232 C69.2736937,453.724232 70.6555962,455.102863 70.6555962,456.80114 L70.6555962,479.923092 C70.6555962,481.621369 69.2736937,483 67.5738313,483 C65.8739688,483 64.4896204,481.621369 64.4896204,479.923092 L64.4896204,456.80114 C64.4896204,455.102863 65.8739688,453.724232 67.5738313,453.724232 Z M67.5738313,428.727831 C69.2736937,428.727831 70.6555962,430.108902 70.6555962,431.807179 L70.6555962,439.276185 C70.6555962,440.974462 69.2736937,442.353093 67.5738313,442.353093 C65.8739688,442.353093 64.4896204,440.974462 64.4896204,439.276185 L64.4896204,431.807179 C64.4896204,430.108902 65.8739688,428.727831 67.5738313,428.727831 Z M143.902546,428.727831 C145.602408,428.727831 146.986756,430.108902 146.986756,431.807179 L146.986756,439.276185 C146.986756,440.974462 145.602408,442.353093 143.902546,442.353093 C142.202683,442.353093 140.818335,440.974462 140.818335,439.276185 L140.818335,431.807179 C140.818335,430.108902 142.202683,428.727831 143.902546,428.727831 Z M143.902546,453.724232 C145.602408,453.724232 146.986756,455.102863 146.986756,456.80114 L146.986756,479.923092 C146.986756,481.621369 145.602408,483 143.902546,483 C142.202683,483 140.818335,481.621369 140.818335,479.923092 L140.818335,456.80114 C140.818335,455.102863 142.202683,453.724232 143.902546,453.724232 Z M220.231505,388.655313 C221.931367,388.655313 223.315715,390.036383 223.315715,391.734661 L223.315715,399.203666 C223.315715,400.901944 221.931367,402.280574 220.231505,402.280574 C218.531642,402.280574 217.14974,400.901944 217.14974,399.203666 L217.14974,391.734661 C217.14974,390.036383 218.531642,388.655313 220.231505,388.655313 Z M220.231505,413.901575 C221.931367,413.901575 223.315715,415.280206 223.315715,416.978483 L223.315715,479.924556 C223.315715,481.620393 221.931367,482.999024 220.231505,482.999024 C218.531642,482.999024 217.14974,481.620393 217.14974,479.924556 L217.14974,416.978483 C217.14974,415.280206 218.531642,413.901575 220.231505,413.901575 Z M296.562665,367.397562 C298.262527,367.397562 299.64443,368.778633 299.64443,370.47691 L299.64443,377.945916 C299.64443,379.641753 298.262527,381.020384 296.562665,381.020384 C294.862802,381.020384 293.478454,379.641753 293.478454,377.945916 L293.478454,370.47691 C293.478454,368.778633 294.862802,367.397562 296.562665,367.397562 Z M296.562665,392.827561 C298.262527,392.827561 299.64443,394.206191 299.64443,395.904469 L299.64443,479.922848 C299.64443,481.621125 298.262527,482.999756 296.562665,482.999756 C294.862802,482.999756 293.478454,481.621125 293.478454,479.922848 L293.478454,395.904469 C293.478454,394.206191 294.862802,392.827561 296.562665,392.827561 Z" id="Combined-Shape" fill="url(#linearGradient-1)"></path>
                <path d="M66.9384111,152.250393 C66.9873675,150.710329 67.0705934,149.126403 67.1905366,147.532729 C67.2199104,147.108724 67.266419,146.682283 67.3129275,146.258278 L67.4744837,144.628052 C67.5454704,143.867768 67.6164572,143.102609 67.7094744,142.344762 C67.7780133,141.813537 67.8587914,141.282313 67.9420173,140.758399 L68.1990384,139.067253 C68.2847121,138.453177 68.3728336,137.834227 68.4829855,137.222588 C68.5784504,136.664558 68.6959458,136.113839 68.8085455,135.56312 L69.1365534,133.930458 C69.2516009,133.345624 69.3666485,132.763226 69.4963829,132.185702 C69.6187739,131.642294 69.7582996,131.106196 69.8953776,130.572534 L70.3482242,128.78879 C70.4779587,128.267313 70.6076931,127.748272 70.7496667,127.236542 C70.9038794,126.690697 71.0703311,126.149725 71.2367829,125.608753 L71.7287947,124.01508 C71.8903508,123.466798 72.0543547,122.920952 72.2354934,122.382417 C72.4264233,121.804894 72.6369359,121.232243 72.8450005,120.659593 L73.3541471,119.24868 C73.5426292,118.705272 73.736007,118.1643 73.9440717,117.628202 C74.1619277,117.065299 74.3944705,116.509706 74.6294613,115.951677 L75.216938,114.538327 C75.4298984,114.019287 75.6453065,113.49781 75.8729538,112.981206 C76.1299749,112.398808 76.4041307,111.828595 76.6758387,111.260818 L77.2461807,110.052161 C77.4983062,109.511189 77.7504316,108.975091 78.017244,108.44143 C78.2522347,107.975999 78.4970167,107.515442 78.7442465,107.054885 L79.4614578,105.707329 C79.757644,105.144426 80.0538302,104.581523 80.3671511,104.028368 C80.6780243,103.472775 81.0035843,102.931803 81.3291444,102.388395 L81.9973992,101.265025 C82.298481,100.753295 82.6020107,100.241565 82.9177795,99.7371458 C83.2482352,99.210795 83.59093,98.6917545 83.9336247,98.1775877 L84.5676101,97.2174847 C84.9274396,96.6667657 85.289717,96.1184836 85.6642334,95.5799487 C86.0191673,95.0682186 86.3863403,94.5637991 86.7535133,94.0642531 L87.3874986,93.1991857 C87.7864933,92.6484667 88.1854879,92.0977478 88.5967217,91.5616496 C88.9810294,91.0596669 89.3775762,90.5674313 89.7765709,90.072759 L90.3689433,89.3368425 C90.8119987,88.7812499 91.2575019,88.2280941 91.7127964,87.6895592 C92.1289258,87.1948869 92.5572943,86.7099617 92.9856628,86.2250366 L93.6123047,85.515925 C94.0724948,84.9944478 94.5302371,84.4754073 95.0026664,83.9661141 C95.3992132,83.5372357 95.8055513,83.1181044 96.2118894,82.6940995 L97.0661786,81.8192849 C97.5288165,81.3392334 97.9939023,80.8616187 98.4663315,80.3961881 C98.8628784,80.0038617 99.2692165,79.6188458 99.6780024,79.2387035 L100.44417,78.5174079 C100.987586,78.0056779 101.531002,77.4963847 102.086657,76.9968387 C102.515026,76.6142596 102.950738,76.2389909 103.388897,75.8637222 L104.054704,75.2959456 C104.65442,74.779342 105.254136,74.2651751 105.870987,73.7656292 C106.407059,73.3245666 106.955371,72.9005618 107.503683,72.4765569 L107.973664,72.1085987 C108.578276,71.6382944 109.182887,71.1679902 109.799738,70.7074331 C110.39211,70.2712442 110.999169,69.8448025 111.603781,69.4183609 L111.716381,69.340383 C112.431144,68.8310898 113.145908,68.3266702 113.877806,67.8368714 C114.416326,67.4737868 114.964638,67.1228862 115.512949,66.7719857 L116.117561,66.3869697 C116.771129,65.9702753 117.427145,65.5560177 118.088056,65.1539441 C118.758759,64.7494337 119.439253,64.361981 120.117299,63.9696546 C120.885914,63.5310289 121.652082,63.0899664 122.430488,62.6659615 C123.069369,62.3223713 123.713146,61.9909652 124.356923,61.6571223 L124.516031,61.5767076 C125.306677,61.1721972 126.099771,60.7676868 126.902655,60.3802341 C127.441176,60.1170587 127.984592,59.8685041 128.530456,59.6175127 L129.037154,59.3884526 C129.849831,59.0180575 130.664955,58.6525361 131.492318,58.2967619 C132.211977,57.9921607 132.941427,57.7021803 133.670877,57.4097632 C134.505584,57.0759203 135.345186,56.7493878 136.192132,56.4350394 C136.928926,56.1645535 137.673063,55.9038149 138.419648,55.645513 C139.276385,55.3530959 140.133122,55.0606787 140.99965,54.7901929 C141.751131,54.5538223 142.512403,54.3271991 143.271227,54.110323 C144.142651,53.8520212 145.021418,53.6083402 145.905081,53.3719697 C146.673697,53.1721513 147.44476,52.984517 148.218271,52.7968826 C149.111725,52.5824434 150.007628,52.3777514 150.910873,52.1876802 C151.68928,52.0219772 152.470134,51.8684582 153.255885,51.7222496 C154.166474,51.5516729 155.081958,51.3884067 155.999891,51.2421981 C156.790537,51.1130472 157.581182,50.9960803 158.374276,50.8888607 C159.304448,50.7621466 160.241963,50.642743 161.179478,50.5379601 C161.972571,50.4526718 162.770561,50.3722571 163.56855,50.3015896 C164.520752,50.2163013 165.472954,50.1456338 166.432499,50.0871504 C167.232936,50.0384142 168.035821,49.9994252 168.838706,49.9677467 C169.13734,49.9555626 169.435974,49.950689 169.737056,49.9433786 L170.050377,49.9360682 L170.050377,152.564741 L66.9286198,152.564741 L66.9384111,152.250393 Z M175.937384,49.938505 L176.434291,49.950689 C176.686417,49.9555626 176.938542,49.9579995 177.18822,49.9701835 C178.010687,50.0042988 178.835603,50.0432878 179.655622,50.092024 C180.617616,50.1529442 181.577161,50.2260485 182.531811,50.3089 C183.354278,50.3868779 184.174298,50.4672927 184.99187,50.5574546 C185.93428,50.6646742 186.874243,50.7840779 187.806863,50.9156656 C188.621987,51.0277589 189.437111,51.1495993 190.247339,51.2811871 C191.170167,51.4322693 192.085652,51.5979723 193.001136,51.7758594 C193.808917,51.9245048 194.619145,52.087771 195.419583,52.2607845 C196.32038,52.4532925 197.216282,52.6604213 198.107289,52.8797342 C198.907726,53.0722421 199.705715,53.2720605 200.498809,53.4816261 C201.380024,53.7204335 202.251448,53.968988 203.120424,54.2224162 L203.328489,54.2857733 C204.048148,54.5026493 204.765359,54.7170886 205.477675,54.9461487 C206.336859,55.223945 207.186253,55.5114885 208.038094,55.8112161 C208.809157,56.081702 209.585116,56.3521878 210.351284,56.6421682 C211.188438,56.9589534 212.018249,57.2854859 212.843165,57.6193288 C213.604437,57.9288036 214.360813,58.2382785 215.112294,58.5648109 C215.927418,58.9157115 216.732751,59.2836698 217.538083,59.6565016 C218.282221,60.0000918 219.02391,60.3461188 219.760704,60.7067666 C220.55135,61.0966561 221.332204,61.5011665 222.115507,61.9105505 C222.840061,62.2858192 223.562168,62.6635247 224.276931,63.0582878 C225.045547,63.4798559 225.804371,63.925792 226.563195,64.3717282 L226.700273,64.4497061 C227.361185,64.834722 228.019648,65.2197379 228.670768,65.6218115 C229.41001,66.0799317 230.13946,66.550236 230.927658,67.0644028 C231.637526,67.5249598 232.286198,67.9465279 232.925079,68.3851536 C233.566408,68.8213425 234.195498,69.2745891 234.871096,69.7595142 L235.164834,69.9690798 C235.79882,70.4272 236.420566,70.8731362 237.030073,71.33613 C237.703224,71.8454232 238.364135,72.3693373 239.083794,72.9419875 L239.551328,73.3123826 C240.033548,73.6973985 240.515769,74.0799776 240.988198,74.4747408 C241.570779,74.9596659 242.141121,75.4592119 242.713911,75.9587578 L243.29894,76.4729246 C243.800743,76.9091136 244.302546,77.3477393 244.789662,77.7936754 C245.391826,78.349268 245.979303,78.912171 246.564332,79.4823845 L247.073478,79.9697464 C247.526325,80.4059353 247.981619,80.8372506 248.424675,81.2856236 C248.921582,81.7876064 249.406251,82.3017732 249.893367,82.81594 L250.644848,83.6103399 C251.063425,84.0538393 251.48445,84.4949018 251.895684,84.9505852 C252.3265,85.4281999 252.747525,85.9155618 253.166102,86.4053605 L253.942061,87.3069801 C254.35819,87.7870316 254.779215,88.2719567 255.185553,88.7715027 C255.609026,89.2881063 256.02026,89.8144572 256.431494,90.340808 L257.185422,91.3106583 C257.562387,91.7858361 257.934455,92.2658876 258.29918,92.7532495 C258.71531,93.3112789 259.116752,93.8814924 259.518195,94.4517058 L260.203584,95.421556 C260.546279,95.9016075 260.886526,96.381659 261.216982,96.8665841 C261.608633,97.4587289 261.988045,98.0533104 262.365009,98.6478919 L262.974516,99.6055581 C263.302524,100.112415 263.628084,100.621708 263.941405,101.135875 C264.281652,101.698778 264.607212,102.268991 264.930325,102.839204 L265.593684,103.996689 C265.887422,104.503545 266.181161,105.015275 266.465108,105.541626 C266.785772,106.133771 267.094197,106.7381 267.402623,107.344865 L267.994995,108.514534 C268.261807,109.026264 268.526172,109.540431 268.77585,110.064345 C269.042662,110.615064 269.294787,111.180404 269.546913,111.74087 L270.210272,113.212703 C270.435472,113.709812 270.663119,114.206921 270.873631,114.716214 C271.120861,115.291301 271.346061,115.876136 271.576156,116.46097 L272.151393,117.93524 C272.35701,118.44697 272.560179,118.9587 272.751109,119.480177 C272.981204,120.111311 273.196612,120.752192 273.407125,121.388199 L273.891793,122.828354 C274.065588,123.332773 274.239384,123.837193 274.398492,124.35136 C274.599213,124.999551 274.7828,125.662363 274.966386,126.322738 L275.438815,127.987079 C275.566102,128.433016 275.693389,128.874078 275.810884,129.324888 C275.974888,129.968206 276.121757,130.618834 276.268626,131.269462 L276.645591,132.924056 C276.763086,133.413854 276.878134,133.901216 276.978494,134.398325 C277.120468,135.087943 277.242859,135.789744 277.360354,136.489108 L277.651645,138.124207 C277.739766,138.594512 277.827888,139.072126 277.901322,139.552178 C278.018818,140.334394 278.114283,141.126357 278.209748,141.920757 L278.405573,143.477878 C278.464321,143.914067 278.523069,144.352693 278.569577,144.796192 C278.669938,145.79041 278.736029,146.791939 278.799672,147.761789 L278.902481,149.14346 C278.929407,149.462682 278.956333,149.786778 278.973467,150.110874 C279.064037,151.928734 279.110545,153.739283 279.110545,155.49866 C279.110545,173.418958 274.506196,191.119942 265.796853,206.691156 C261.508272,214.354922 256.282177,221.467969 250.262988,227.837789 L250.047579,228.064413 L249.82238,227.842663 L175.937384,154.282692 L175.937384,49.938505 Z M63.9447274,158.427705 L171.771194,158.427705 L171.861764,158.51543 L248.135832,234.439107 C248.219058,234.526832 248.30718,234.621867 248.434466,234.709592 C249.555568,235.440635 251.173577,235.284679 252.130674,234.331887 L252.972724,233.47413 C253.229745,233.215828 253.476975,232.950216 253.721757,232.68704 C253.893105,232.496969 254.071795,232.304461 254.252934,232.11439 L254.673959,231.673328 C255.263884,231.051941 255.853808,230.432992 256.42415,229.801858 C256.791323,229.392474 257.146257,228.978216 257.498743,228.563959 L258.237985,227.711075 C258.837701,227.016585 259.437417,226.322094 260.012654,225.612982 C260.330871,225.225529 260.636848,224.833203 260.942826,224.440877 L261.620872,223.573373 C262.21814,222.810651 262.81296,222.052803 263.38575,221.280335 C263.635428,220.936745 263.88021,220.590718 264.124992,220.242254 L264.697782,219.425923 C265.31708,218.555982 265.936379,217.686041 266.526303,216.799042 C266.719681,216.509062 266.905715,216.214208 267.09175,215.919354 L267.493192,215.28091 C268.195716,214.189219 268.827254,213.204748 269.431865,212.193472 C269.593421,211.920549 269.750082,211.642753 269.904295,211.364956 L270.220063,210.80449 C270.905453,209.622638 271.51496,208.557752 272.095093,207.470935 C272.217484,207.237001 272.337428,207.000631 272.454923,206.761823 L272.731527,206.215978 C273.314108,205.082861 273.933406,203.876641 274.51354,202.643615 C274.611452,202.429176 274.704469,202.217173 274.799934,202.000297 L275.012895,201.520246 C275.561206,200.326209 276.14134,199.037137 276.687204,197.711512 C276.767982,197.514131 276.843864,197.316749 276.919746,197.116931 L277.08375,196.692926 C277.585553,195.435532 278.119178,194.080666 278.613638,192.691685 C278.674833,192.521108 278.728685,192.350531 278.782537,192.179955 L278.929407,191.734018 C279.387149,190.408394 279.864474,188.992608 280.287947,187.586568 C280.344247,187.406245 280.393203,187.223484 280.442159,187.040723 L280.562103,186.609408 C280.919484,185.376382 281.338061,183.91917 281.712578,182.408348 C281.759086,182.223151 281.800699,182.037953 281.842312,181.847882 L281.964703,181.297163 C282.329428,179.757099 282.625615,178.46559 282.885084,177.154587 C282.936488,176.893848 282.980549,176.635546 283.022162,176.374808 L283.122522,175.794847 C283.350169,174.574005 283.604743,173.192334 283.803016,171.837468 C283.85442,171.486567 283.896033,171.138104 283.937646,170.78233 L284.113889,169.366543 C284.241176,168.396693 284.368462,167.426843 284.463927,166.447245 C284.522675,165.855101 284.56184,165.260519 284.601005,164.665937 L284.73074,162.908998 C284.782144,162.260806 284.833548,161.634546 284.862922,161.003413 C284.953491,159.163621 285,157.311646 285,155.49866 C285,94.0203905 234.753601,44 172.995104,44 C111.241504,44 61,94.0203905 61,155.49866 C61,157.114265 62.3193749,158.427705 63.9447274,158.427705 Z M226.090766,246.974299 C210.006141,256.239049 191.645044,261.137036 172.995104,261.137036 C149.075008,261.137036 126.559961,253.531753 107.88799,239.147266 C89.4436674,224.93823 76.5020435,205.458374 70.4632718,182.813102 L70.3604633,182.430523 L161.791433,182.430523 L161.882002,182.518248 L226.435909,246.77448 L226.090766,246.974299 Z M163.012895,176.565122 C163.805988,176.565122 164.542782,176.869724 165.09599,177.427753 L233.243296,245.268532 C233.882177,245.902103 234.190602,246.776917 234.090242,247.668789 C233.989881,248.553351 233.497869,249.340441 232.739045,249.822929 C214.862616,261.059058 194.203016,267 172.995104,267 C120.269063,267 75.3417769,231.283682 63.7415583,180.139922 C63.5408371,179.274855 63.7513496,178.373235 64.316796,177.668997 C64.8773467,176.967196 65.7145011,176.565122 66.6152989,176.565122 L163.012895,176.565122 Z M295.974148,289 C311.428592,289 324,301.607806 324,317.103421 C324,332.599035 311.428592,345.206841 295.974148,345.206841 C284.884606,345.206841 274.819655,338.597732 270.330041,328.365381 L270.212666,328.098173 L245.407305,337.585284 L245.529571,337.877006 C246.962531,341.318842 247.688792,344.944536 247.688792,348.646225 C247.688792,364.144291 235.114939,376.752097 219.660495,376.752097 C209.969678,376.752097 201.088263,371.756042 195.901732,363.386793 L195.750122,363.141648 L169.311285,377.607653 L169.069198,377.73758 L169.176793,377.994982 C170.636651,381.456429 171.375138,385.123798 171.375138,388.896579 C171.375138,404.392194 158.801285,417 143.346841,417 C128.995238,417 117.06695,406.135174 115.599756,391.728004 L115.572858,391.453442 L94.8022806,391.453442 L94.7729367,391.728004 C93.308188,406.135174 81.3823456,417 67.0331878,417 C51.5762984,417 39,404.392194 39,388.896579 C39,373.400965 51.5762984,360.793159 67.0331878,360.793159 C81.3823456,360.793159 93.308188,371.657984 94.7729367,386.065155 L94.8022806,386.339717 L115.572858,386.339717 L115.599756,386.065155 C117.06695,371.657984 128.995238,360.793159 143.346841,360.793159 C152.558375,360.793159 161.190366,365.370016 166.442921,373.030796 L166.599422,373.258781 L193.524878,358.528019 L193.431956,358.280423 C192.236193,355.017543 191.627307,351.776727 191.627307,348.646225 C191.627307,333.155514 204.203605,320.55261 219.660495,320.55261 C228.908708,320.55261 237.560262,325.146627 242.807926,332.84418 L242.944864,333.045199 L268.386009,323.315394 L268.630542,323.219788 L268.574299,322.964837 C268.153704,320.988968 267.94096,319.015551 267.94096,317.103421 C267.94096,301.607806 280.517259,289 295.974148,289 Z M295.974148,340.093117 C308.61647,340.093117 318.901501,329.779867 318.901501,317.103421 C318.901501,304.426974 308.61647,294.113724 295.974148,294.113724 C283.329381,294.113724 273.041905,304.426974 273.041905,317.103421 C273.041905,329.779867 283.329381,340.093117 295.974148,340.093117 Z M219.660495,371.635921 C232.302817,371.635921 242.587847,361.322672 242.587847,348.646225 C242.587847,335.974681 232.302817,325.666335 219.660495,325.666335 C207.015727,325.666335 196.728252,335.974681 196.728252,348.646225 C196.728252,361.322672 207.015727,371.635921 219.660495,371.635921 Z M143.346841,411.886276 C155.989163,411.886276 166.274194,401.573026 166.274194,388.896579 C166.274194,376.220133 155.989163,365.906883 143.346841,365.906883 C130.702074,365.906883 120.414598,376.220133 120.414598,388.896579 C120.414598,401.573026 130.702074,411.886276 143.346841,411.886276 Z M89.9580949,388.960317 L89.9580949,388.862259 C89.936087,376.202972 79.653502,365.906883 67.0331878,365.906883 C54.3884203,365.906883 44.1009447,376.220133 44.1009447,388.896579 C44.1009447,401.573026 54.3884203,411.886276 67.0331878,411.886276 C79.6437207,411.886276 89.921415,401.604895 89.9580949,388.960317 Z" id="Combined-Shape" fill="url(#linearGradient-2)"></path>
                <circle id="Oval-4" fill="url(#linearGradient-3)" opacity="0.2" cx="345" cy="96" r="64"></circle>
                <circle id="Oval-4-Copy" fill="url(#linearGradient-2)" opacity="0.5" cx="303.5" cy="32.5" r="32.5"></circle>
                <circle id="Oval-4-Copy-2" fill="url(#linearGradient-2)" opacity="0.1" cx="45.5" cy="251.5" r="45.5"></circle>
            </g>
        </g>
    </g>
</svg>