<?xml version="1.0" encoding="UTF-8"?><svg width="321px" height="295px" viewBox="0 0 321 295" version="1.1" xmlns="http://www.w3.org/2000/svg" xmlns:xlink="http://www.w3.org/1999/xlink"> <!-- Generator: Sketch 51.3 (57544) - http://www.bohemiancoding.com/sketch --> <title>Path 27 + Path 28 Mask</title> <desc>Created with Sketch.</desc> <defs> <linearGradient x1="0%" y1="0%" x2="0%" y2="100%" id="linearGradient-1"> <stop stop-color="#C33764" offset="0%"></stop> <stop stop-color="#1D2671" offset="100%"></stop> </linearGradient> <linearGradient x1="60.9576841%" y1="0%" x2="63.8134693%" y2="100%" id="linearGradient-2"> <stop stop-color="#E1E648" offset="0%"></stop> <stop stop-color="#ED3C3C" offset="100%"></stop> </linearGradient> </defs> <g id="Page-2" stroke="none" stroke-width="1" fill="none" fill-rule="evenodd" fill-opacity="0.3"> <g id="09.Porfolio-Main" transform="translate(-171.000000, -2920.000000)"> <g id="Google-ads" transform="translate(170.000000, 2910.000000)"> <g id="Path-27-+-Path-28-Mask" transform="translate(1.000000, 10.000000)"> <path d="M318.153074,269.154471 C319.342755,269.154471 320.310523,270.122239 320.310523,271.312722 C320.310523,284.184513 309.838122,294.657714 296.966331,294.657714 L149.966579,294.657714 C137.094788,294.657714 126.623188,284.184513 126.623188,271.312722 L126.623188,104.766145 C126.623188,103.576463 127.590956,102.608696 128.780637,102.608696 L296.966331,102.608696 C298.156012,102.608696 299.12378,103.576463 299.12378,104.766145 L299.12378,269.154471 L318.153074,269.154471 Z M315.745671,274.401086 L315.898687,273.470171 L173.223448,273.470171 L173.136925,274.173565 C172.434332,279.891245 169.636779,285.133855 165.259392,288.936028 L163.641105,290.341214 L296.966331,290.341214 C306.33397,290.341214 314.231531,283.63734 315.745671,274.401086 Z M149.966579,290.341214 C160.459809,290.341214 168.995873,281.80515 168.995873,271.312722 C168.995873,270.122239 169.963641,269.154471 171.154123,269.154471 L294.808081,269.154471 L294.808081,133.554831 L130.938087,133.554831 L130.938087,271.312722 C130.938087,281.80515 139.474952,290.341214 149.966579,290.341214 Z M130.938087,129.239132 L294.808081,129.239132 L294.808081,106.924395 L130.938087,106.924395 L130.938087,129.239132 Z M279.451417,115.974065 C280.545764,114.875712 282.528566,114.875712 283.622112,116.004508 C284.184507,116.536459 284.509766,117.303143 284.509766,118.073832 C284.509766,118.874964 284.184507,119.614409 283.622112,120.1736 C283.09016,120.74 282.319471,121.032414 281.520742,121.032414 C280.751655,121.032414 279.982568,120.74 279.451417,120.1736 C278.889023,119.614409 278.562161,118.874964 278.562161,118.073832 C278.562161,117.303143 278.889023,116.536459 279.451417,115.974065 Z M265.246141,115.11469 C266.904485,115.11469 268.235166,116.447774 268.235166,118.074073 C268.235166,119.703575 266.904485,121.032654 265.246141,121.032654 C263.620644,121.032654 262.318003,119.703575 262.318003,118.074073 C262.318003,116.447774 263.620644,115.11469 265.246141,115.11469 Z M246.903017,115.974065 C247.996563,114.875712 249.979365,114.875712 251.072911,115.974065 C251.636107,116.536459 251.930122,117.303143 251.930122,118.073832 C251.930122,118.874964 251.636107,119.614409 251.072911,120.1736 C250.54176,120.74 249.771071,121.032414 249.002785,121.032414 C248.203255,121.032414 247.434168,120.70475 246.903017,120.1736 C246.339821,119.614409 246.043402,118.874964 246.043402,118.073832 C246.043402,117.303143 246.339821,116.536459 246.903017,115.974065 Z M187.632772,197.750277 L187.632772,252.028588 C187.632772,253.21907 186.665004,254.186838 185.474522,254.186838 L149.963535,254.186838 C149.752837,254.186838 149.510895,254.134764 149.228897,254.031418 C149.180829,254.012191 149.135164,253.988958 149.088698,253.965725 L149.006983,253.92647 C148.958114,253.902436 148.909245,253.880805 148.809904,253.838345 C148.765041,253.787874 148.716172,253.737403 148.644871,253.675715 C148.515889,253.571568 148.418151,253.476234 148.320413,253.355263 C148.234691,253.252718 148.168198,253.15498 148.100101,253.023594 C148.04242,252.920248 147.991147,252.80168 147.95029,252.672698 C147.906227,252.529295 147.878188,252.388296 147.862165,252.231274 C147.853353,252.15036 147.835728,252.073451 147.80929,251.975713 L147.80929,197.692596 C147.80929,196.502914 148.777058,195.535147 149.966739,195.535147 L185.405624,195.535147 C185.46651,195.552772 185.555436,195.576806 185.669998,195.586419 C185.782157,195.595232 185.90473,195.620067 186.075371,195.668135 C186.238001,195.715401 186.357369,195.763469 186.491159,195.838776 C186.540829,195.864412 186.593703,195.886043 186.651385,195.906071 C186.698652,195.955741 186.744316,196.001406 186.785975,196.033451 C186.934986,196.158428 187.028718,196.249757 187.107229,196.348296 C187.193752,196.455648 187.269859,196.561397 187.338756,196.690379 C187.39804,196.799333 187.446108,196.915497 187.49017,197.054894 C187.533432,197.191888 187.561471,197.328882 187.576693,197.484301 C187.585505,197.570022 187.604732,197.650937 187.632772,197.750277 Z M183.317073,249.871139 L183.317073,204.938837 L153.954776,249.871139 L183.317073,249.871139 Z M152.124188,199.850045 L152.124188,244.783148 L181.486486,199.850045 L152.124188,199.850045 Z M278.482288,196.884253 C278.542373,197.032463 278.565605,197.219928 278.591242,197.470682 C278.600855,197.558006 278.620884,197.641323 278.650525,197.747073 L278.650525,252.028588 C278.650525,253.21907 277.682758,254.186838 276.492275,254.186838 L252.890119,254.186838 C252.815614,254.165207 252.737904,254.148384 252.647376,254.139571 C252.458309,254.123548 252.224378,254.097111 252.03451,254.03302 L251.960004,253.993765 C251.895113,253.941691 251.827817,253.89122 251.758119,253.850362 L251.676403,253.800692 C251.516978,253.706159 251.365564,253.617233 251.285451,253.53712 C251.255809,253.505074 251.211747,253.430569 251.169287,253.357666 C251.132435,253.295979 251.096384,253.235093 251.057929,253.17661 C251.018674,253.114923 250.976214,253.055639 250.932953,252.996355 C250.891294,252.939475 250.840021,252.868174 250.828806,252.840936 C250.769522,252.693527 250.747891,252.494847 250.71905,252.2497 C250.710238,252.15757 250.688607,252.070247 250.662971,251.990934 L250.662971,197.692596 C250.662971,196.502914 251.630739,195.535147 252.821221,195.535147 L276.500287,195.539152 C276.571587,195.539152 276.699768,195.573601 276.823143,195.60805 L276.993784,195.652913 C277.079505,195.674544 277.166829,195.688964 277.255754,195.701782 C277.282993,195.705788 277.310231,195.708992 277.329458,195.711396 L277.333464,195.712998 C277.403163,195.77068 277.475264,195.825958 277.597838,195.89806 C277.777291,196.001406 277.932711,196.090331 278.022438,196.182461 C278.055284,196.21691 278.098545,196.292217 278.145812,196.370728 L278.367726,196.709606 C278.414191,196.772095 278.465464,196.843396 278.479884,196.878645 L278.482288,196.884253 Z M274.334826,249.871139 L274.334826,208.05444 L256.113074,249.871139 L274.334826,249.871139 Z M254.978671,199.850045 L254.978671,241.669147 L273.195616,199.850045 L254.978671,199.850045 Z M235.42119,195.534986 C236.610872,195.534986 237.578639,196.502754 237.578639,197.692436 C237.578639,198.882918 236.610872,199.850686 235.42119,199.850686 L202.871989,199.850686 C201.682308,199.850686 200.71454,198.882918 200.71454,197.692436 C200.71454,196.502754 201.682308,195.534986 202.871989,195.534986 L235.42119,195.534986 Z M202.872069,217.962763 C201.682388,217.962763 200.71462,216.994995 200.71462,215.805314 C200.71462,214.614832 201.682388,213.647064 202.872069,213.647064 L226.542322,213.647064 C227.732003,213.647064 228.699771,214.614832 228.699771,215.805314 C228.699771,216.994995 227.732003,217.962763 226.542322,217.962763 L202.872069,217.962763 Z M235.42119,231.759221 C236.610872,231.759221 237.578639,232.726989 237.578639,233.91667 C237.578639,235.107153 236.610872,236.074921 235.42119,236.074921 L202.871989,236.074921 C201.682308,236.074921 200.71454,235.107153 200.71454,233.91667 C200.71454,232.726989 201.682308,231.759221 202.871989,231.759221 L235.42119,231.759221 Z M217.665617,249.871139 C218.855298,249.871139 219.823066,250.838906 219.823066,252.028588 C219.823066,253.21907 218.855298,254.186838 217.665617,254.186838 L202.871909,254.186838 C201.682228,254.186838 200.71446,253.21907 200.71446,252.028588 C200.71446,250.838906 201.682228,249.871139 202.871909,249.871139 L217.665617,249.871139 Z M147.148997,177.399997 C147.154605,177.326292 147.156207,177.250986 147.148997,177.171674 C147.140986,177.089157 147.124162,177.011447 147.098526,176.919317 L147.098526,153.308348 C147.098526,152.117866 148.066293,151.150098 149.256776,151.150098 L276.449335,151.152502 C276.537459,151.176536 276.625584,151.197365 276.727327,151.208581 C276.873133,151.2222 277.012531,151.249439 277.141513,151.288694 C277.2737,151.331154 277.379449,151.37762 277.505227,151.449722 C277.644624,151.525829 277.749572,151.595528 277.84731,151.678845 C277.949054,151.763765 278.03798,151.855095 278.130911,151.971259 C278.221439,152.080213 278.29274,152.18436 278.35683,152.30453 C278.411307,152.405472 278.460978,152.529648 278.513852,152.698687 C278.537085,152.773993 278.566727,152.845294 278.59717,152.890157 C278.592363,152.950242 278.589159,153.028753 278.598772,153.114474 C278.607585,153.195389 278.623607,153.272297 278.650045,153.365229 L278.650045,176.979402 C278.650045,178.169885 277.682277,179.137652 276.492596,179.137652 L149.25277,179.137652 C149.009226,179.137652 148.751262,179.083175 148.47407,178.976625 C148.446831,178.963807 148.423598,178.946182 148.397962,178.930159 C148.348292,178.898114 148.297821,178.866069 148.245747,178.836427 L148.244946,178.835626 C148.065492,178.735484 147.921289,178.650564 147.813937,178.552826 C147.765869,178.510366 147.730619,178.459895 147.692165,178.410224 L147.620063,178.3221 C147.491882,178.162675 147.41257,178.04651 147.350081,177.919931 C147.29961,177.825398 147.27157,177.726057 147.234718,177.605086 C147.213088,177.540996 147.187451,177.479309 147.148997,177.399997 Z M151.414225,155.465797 L151.414225,174.383734 L244.558664,157.054443 L244.412057,155.465797 L151.414225,155.465797 Z M274.335147,174.821953 L274.335147,155.904017 L181.189105,173.233308 L181.335712,174.821953 L274.335147,174.821953 Z" id="Combined-Shape" fill="url(#linearGradient-1)"></path> <path d="M93.9984663,0 L187.181876,0 C190.194768,0 192.844741,1.92508814 193.778232,4.79033559 L287.13057,266.301868 C287.554271,267.488798 287.770849,268.739712 287.770849,270 C287.770849,276.075132 282.845981,281 276.770849,281 L276.714158,281 L187.182829,29.3478305 L147.885693,150.067336 L179.181473,246.202675 C183.285978,258.717176 194.889849,267.12622 208.054937,267.12622 L275.605393,267.12622 L275.605393,281 L208.054937,281 C188.876449,281 171.972632,268.745542 165.993524,250.511024 L140.590171,172.475895 L115.194439,250.48721 C109.209615,268.737922 92.3029409,281 73.1254053,281 L7.02658494,281 C4.81287647,281 2.71442562,279.930295 1.41325274,278.13761 C0.112079858,276.346831 -0.254648956,274.020722 0.43022901,271.914651 L87.4021104,4.78938305 C88.3346493,1.92508814 90.9865273,0 93.9984663,0 Z M102.005537,246.182671 L177.628829,13.8737797 L99.0345578,13.8737797 L16.5805849,267.12622 L73.1263578,267.12622 C86.2923985,267.12622 97.8981748,258.709556 102.005537,246.182671 Z" id="Combined-Shape" fill="url(#linearGradient-2)" opacity="0.200000018"></path> </g> </g> </g> </g></svg>