<?xml version="1.0" encoding="UTF-8"?>
<svg width="311px" height="334px" viewBox="0 0 311 334" version="1.1" xmlns="http://www.w3.org/2000/svg" xmlns:xlink="http://www.w3.org/1999/xlink">
    <!-- Generator: Sketch 51.3 (57544) - http://www.bohemiancoding.com/sketch -->
    <title>Fill 1</title>
    <desc>Created with Sketch.</desc>
    <defs>
        <linearGradient x1="0%" y1="0%" x2="100%" y2="100%" id="linearGradient-1">
            <stop stop-color="#237AAE" offset="0%"></stop>
            <stop stop-color="#B0EC51" offset="100%"></stop>
        </linearGradient>
    </defs>
    <g id="Page-2" stroke="none" stroke-width="1" fill="none" fill-rule="evenodd">
        <g id="18.Cộng-tác-viên-2" transform="translate(-265.000000, -2288.000000)" fill="url(#linearGradient-1)">
            <path d="M569.308516,2479.30779 L568.613,2487 L512,2400.50135 L541.459645,2378 L543.066389,2380.29713 C560.649172,2405.4299 569.96304,2434.92064 570,2465.58075 C570,2469.72994 569.780257,2474.09126 569.308516,2479.30779 Z M567.8399,2496.1248 C560.309726,2533.91434 538.793495,2566.90364 507.253923,2589.0175 L503,2592 L503,2525.73141 L505.35263,2525.42383 C510.142348,2524.79651 514.436135,2522.13646 517.131323,2518.12577 C519.853536,2514.01774 520.677835,2508.91532 519.384632,2504.14144 L518.975185,2502.62924 L533.596358,2488 L539.964405,2497.55859 C542.474463,2501.3347 547.531065,2502.54879 551.479592,2500.32071 L569,2490.30312 L567.8399,2496.1248 Z M496.731803,2518.49141 L496.597547,2518.40221 L459.411321,2492.64867 C458.07011,2491.7255 456.222234,2492.06476 455.294585,2493.40964 C454.366262,2494.75453 454.701565,2496.60696 456.042101,2497.53959 L492.056454,2522.48079 C497.112308,2525.87003 498.504793,2532.80734 495.125453,2537.92467 C491.746789,2543.04131 484.827542,2544.4727 479.7022,2541.11387 L442.428943,2515.34817 C441.778577,2514.89875 440.990581,2514.72911 440.211357,2514.87171 C439.432807,2515.01499 438.756129,2515.4536 438.30681,2516.10644 C437.856816,2516.75928 437.688153,2517.54864 437.831179,2518.32922 C437.974206,2519.10911 438.411381,2519.78696 439.063096,2520.23706 L466.249609,2539.03031 C471.37765,2542.6392 472.770809,2549.60084 469.441394,2554.89185 C466.058007,2560.01255 459.175867,2561.46894 454.064692,2558.18918 L453.958096,2558.11754 L433.729286,2543.73335 C432.402917,2542.79599 430.552342,2543.1116 429.607828,2544.44432 C428.664662,2545.77569 428.977701,2547.63149 430.305419,2548.57967 L440.854301,2556.08332 C441.468236,2556.56518 442.051137,2557.09164 442.587486,2557.6492 C446.787879,2561.69196 447.223705,2568.16701 443.59272,2572.73962 C441.378507,2575.52806 438.134099,2577 434.834368,2577 C432.703138,2577.00068 430.549644,2576.38703 428.632953,2575.11851 L407.801677,2561.1709 L409.393859,2558.90623 C412.297568,2554.77628 412.764428,2549.37241 410.612283,2544.80385 C408.460139,2540.23665 403.99933,2537.16234 398.970463,2536.78118 L396.505279,2536.59532 L396.475594,2534.11844 C396.436464,2530.88734 395.272687,2527.74544 393.196778,2525.27328 C390.379425,2521.96108 386.087954,2520.09919 381.730367,2520.31681 L378.974407,2520.45197 L378.90087,2517.68854 C378.741652,2511.6967 375.390648,2506.17118 370.156011,2503.26921 C364.9207,2500.36723 358.46764,2500.45711 353.315311,2503.50237 L350.408903,2505.22098 L349.37466,2502.00339 C347.611115,2496.5191 342.769127,2492.66354 337.03862,2492.181 C333.340844,2491.8485 329.742243,2492.97374 326.898578,2495.34722 L326.821668,2495.40872 L317.410251,2502.69881 L305,2492.76964 L346.773196,2430 L405.087546,2430 L399.700438,2434.73481 C395.759112,2438.19974 394.151413,2443.70093 395.604616,2448.74932 C397.057145,2453.79636 401.34187,2457.59515 406.519835,2458.42776 C416.456132,2459.83482 426.583356,2458.37302 435.761342,2454.19306 L437.091759,2453.58618 L452.709987,2463.53562 C452.865832,2463.6228 453.028424,2463.69512 453.194389,2463.75053 L453.517548,2463.85799 L453.80495,2464.04249 L509.062445,2499.69343 C510.48394,2500.6754 511.654464,2501.92432 512.541633,2503.40843 L512.729862,2503.77472 C515.070909,2508.27502 514.110878,2513.81067 510.385441,2517.25736 C506.645162,2520.71892 501.030021,2521.22714 496.731803,2518.49141 Z M497,2594.23198 L495.657861,2595.00573 C472.902106,2608.11526 447.10179,2615 420.841523,2615 C419.711513,2615 418.584197,2614.98795 417.452841,2614.96185 C390.025526,2614.34339 363.325512,2606.23109 340.238431,2591.50111 L339,2590.71063 L339,2547.15054 L342.078233,2547.59163 C342.313258,2547.62577 342.544917,2547.67329 342.774556,2547.72349 C342.890385,2547.74959 343.049314,2547.78373 343.103861,2547.78842 C343.568525,2547.82724 344.006926,2547.84799 344.44196,2547.85066 C344.559809,2547.83795 344.672945,2547.83125 344.788101,2547.82991 L347.388201,2547.80917 L347.500663,2550.39145 C347.632654,2553.43557 348.792968,2556.39535 350.766781,2558.7273 L350.871162,2558.85046 C353.574296,2561.9421 357.472762,2563.7098 361.5975,2563.7098 L361.620396,2563.7098 C363.289821,2563.70579 364.927594,2563.40994 366.48725,2562.82896 L369.246951,2561.80154 L370.029473,2564.62545 C370.562827,2566.55044 371.488115,2568.30008 372.779747,2569.82615 L372.873353,2569.93726 C375.563692,2573.01217 379.441955,2574.76983 383.545143,2574.76983 L383.634709,2574.76983 C386.9446,2574.76983 390.141356,2573.60854 392.659297,2571.4968 L392.746843,2571.42719 L402.981579,2563.54582 L425.480085,2578.49333 C430.431117,2581.77372 436.851565,2582.24091 442.234263,2579.71017 C447.616288,2577.18077 451.326868,2571.95128 451.917463,2566.06317 L452.242054,2562.82294 L455.377528,2563.76536 C460.278053,2565.24056 465.516637,2564.44205 469.74845,2561.57597 C473.979588,2558.71057 476.643664,2554.1571 477.055801,2549.08491 L477.331905,2545.6914 L480.584556,2546.75765 C482.268795,2547.30917 484.021724,2547.59297 485.792836,2547.599 C486.922172,2547.59833 488.067671,2547.48521 489.187579,2547.26165 C490.524331,2546.97652 491.857715,2546.51602 493.116349,2545.90023 L497,2544 L497,2594.23198 Z M392.283947,2544.07884 C394.47779,2542.12976 397.549577,2541.49143 400.330068,2542.41891 C403.145028,2543.35458 405.257093,2545.75991 405.839685,2548.69444 C406.422277,2551.62829 405.392265,2554.66854 403.152463,2556.62853 L403.036891,2556.72401 L388.713374,2567.92134 C387.186605,2569.27847 385.232692,2570 383.248365,2570 C382.387994,2570 381.522892,2569.86497 380.683473,2569.58672 C377.871892,2568.65719 375.757124,2566.26142 375.165746,2563.33438 C374.574368,2560.40803 375.590187,2557.36847 377.818499,2555.40166 L377.934072,2555.3055 L379.435834,2554.12227 L392.283947,2544.07884 Z M389.972639,2533.92222 C389.820453,2536.01512 388.895371,2537.9424 387.36686,2539.35186 L387.217996,2539.47894 L366.319922,2556.07813 C364.825968,2557.34631 362.98378,2558 361.123648,2558 C359.857641,2558 358.582996,2557.69648 357.403384,2557.07929 C354.474623,2555.5468 352.757374,2552.39799 353.027854,2549.05854 C353.174059,2546.98863 354.10047,2545.05527 355.632304,2543.64243 L355.781168,2543.51534 L372.513716,2530.25627 C372.56223,2530.20557 372.612737,2530.1569 372.666567,2530.10958 L372.784196,2530.01021 L376.688546,2526.90872 C378.332693,2525.53103 380.410139,2524.86314 382.531447,2525.02336 C384.71456,2525.20858 386.676371,2526.23542 388.076621,2527.91731 C389.475541,2529.59717 390.148086,2531.72928 389.972639,2533.92222 Z M335.645475,2538.03763 C333.736231,2535.79373 332.786998,2532.82364 333.040306,2529.88723 C333.248477,2527.04647 334.551399,2524.40714 336.707215,2522.49197 L336.84869,2522.37476 L354.618677,2508.63581 C359.283324,2504.72532 366.088966,2505.21775 370.143247,2509.76888 C374.211676,2514.33483 373.899083,2521.18511 369.432502,2525.36304 L369.249931,2525.51933 L364.960531,2528.86868 L351.358006,2539.3829 C349.367918,2541.07172 346.812602,2542 344.21417,2542 C343.887429,2542 343.559341,2541.98451 343.231927,2541.95487 C340.320901,2541.72246 337.545288,2540.29366 335.645475,2538.03763 Z M316.608592,2509.8485 L316.792609,2509.69163 L330.692151,2498.89376 C332.143023,2497.6722 333.980529,2497 335.875831,2497 L335.879817,2497 C336.093063,2497 336.308302,2497.01001 336.526863,2497.02537 C341.013672,2497.40519 344.337924,2501.35225 343.972548,2505.82533 C343.828391,2507.85594 342.91296,2509.75705 341.396984,2511.15017 L341.229576,2511.29235 L327.33402,2522.09355 C325.805422,2523.37253 323.963266,2524 322.133068,2524 C319.898299,2524 317.679474,2523.0648 316.065844,2521.23645 C313.114275,2517.89483 313.352102,2512.89241 316.608592,2509.8485 Z M333,2587 L328.653646,2583.61654 C300.597094,2561.77666 281.25074,2530.59016 274.179254,2495.79946 L273,2490 L290.41636,2499.92832 C291.685757,2500.64486 293.139474,2501.02594 294.611355,2501.02594 L294.6201,2501.02594 C296.821195,2501.02125 298.919365,2500.19132 300.525114,2498.68845 L302.22437,2497.09836 L312.673513,2505.41915 L311.02942,2507.51243 C306.920531,2512.74361 307.06449,2520.2197 311.3725,2525.2892 C314.534891,2529.05777 319.502153,2530.90214 324.350345,2530.11648 L327.205983,2529.65355 L327.462284,2532.52644 C327.773747,2536.00853 329.134631,2539.25781 331.398287,2541.92271 C331.454794,2541.98913 331.585299,2542.10722 331.711768,2542.22127 C331.89138,2542.38364 332.07032,2542.54734 332.240515,2542.72178 L333,2543.50274 L333,2587 Z M271.699621,2479.33048 C271.222465,2474.15081 271.000016,2469.79258 271.000016,2465.61891 C270.985903,2434.94756 280.274987,2405.44462 297.862551,2380.29857 L299.470096,2378 L329,2400.56024 L272.405946,2487 L271.699621,2479.33048 Z M304.778552,2371.29231 C311.829674,2362.82524 319.849436,2355.11309 328.616026,2348.37148 L333,2345 L333,2396 L303,2373.4276 L304.778552,2371.29231 Z M334.02433,2405 L349,2416.51183 L295.616639,2497 L280,2488.03074 L334.02433,2405 Z M358.579666,2294 L505,2294 L501.678671,2298.32764 C498.331169,2302.69092 496.476889,2308.12383 496.457427,2313.62734 L496.457427,2405.08199 L490.477827,2409.66242 C487.13368,2412.31064 486.236405,2417.13041 488.424898,2420.84558 L490.212738,2423.88038 L471.454512,2429 L449.511864,2419.64081 C449.319255,2419.55811 449.119935,2419.49693 448.917259,2419.45861 C429.488593,2415.71857 419.701109,2419.30465 414.911389,2422.97075 L414.189945,2423.52338 L351.695409,2423.52338 L353.226213,2419.80821 C354.71004,2416.20599 353.608746,2412.01281 350.547137,2409.60998 L339,2400.76578 L339,2313.61457 C339.011409,2302.81059 347.79424,2294.01143 358.579666,2294 Z M522.5,2294 C533.25203,2294 542,2302.82419 542,2313.67073 L542,2339 L503,2339 L503.000668,2313.67073 C503.000668,2302.82419 511.74797,2294 522.5,2294 Z M530,2482.62262 L515.55887,2497 L513.65365,2495.15938 C513.15561,2494.6796 512.627243,2494.22733 512.08068,2493.81397 L456.375714,2458.08995 C456.285407,2458.05171 456.192403,2458.01815 456.098726,2457.99064 L455.739517,2457.88395 L438.795385,2447.15158 C437.868721,2446.5698 436.694048,2446.54162 435.734361,2447.07911 L435.644727,2447.12742 C426.972502,2451.57162 417.273195,2453.272 407.598825,2452.04603 C404.328207,2451.66758 401.662784,2449.12909 401.131722,2445.86791 C400.50833,2442.49802 402.136562,2439.17645 405.19152,2437.59216 C409.249297,2435.49185 413.076587,2432.93927 416.568931,2430.00421 C416.692261,2429.90154 416.786612,2429.78344 416.856702,2429.64924 L416.963858,2429.44189 L417.104711,2429.25669 C417.401917,2428.86682 417.744277,2428.50984 418.12303,2428.19513 C420.508768,2426.1693 428.186263,2421.79288 447.444696,2425.34663 L447.735837,2425.40031 L470.425286,2435.02079 C471.035199,2435.27981 471.721942,2435.32745 472.36016,2435.15365 L494.241558,2429.21777 L530,2482.62262 Z M492,2416.52349 L506.990849,2405 L561,2488.05569 L545.382459,2497 L492,2416.52349 Z M536.25926,2371.72632 L538,2373.88557 L503,2401 L503,2345 L508.238209,2345 L508.940367,2345.51906 C519.106342,2353.03423 528.297689,2361.85143 536.25926,2371.72632 Z M544.552651,2372.53398 C544.505538,2372.46393 544.464482,2372.39522 544.428138,2372.33055 C544.405927,2372.3063 544.383044,2372.28071 544.36016,2372.25444 L544.262569,2372.13319 C538.0248,2363.93273 530.941689,2356.32504 523.208418,2349.52164 L517.844933,2344.80371 L544.791581,2344.80371 C545.581734,2344.80371 546.324101,2344.49587 546.883401,2343.93678 C547.441354,2343.37836 547.748935,2342.6347 547.748935,2341.84457 L547.748935,2313.57474 C547.732782,2299.49034 536.268156,2288.01617 522.192122,2288 L358.369935,2288 C344.297938,2288.01617 332.833313,2299.49034 332.816487,2313.57743 L332.816487,2337.79957 L331.664909,2338.60318 C318.332588,2347.91105 306.583265,2359.19662 296.743367,2372.14666 L296.655198,2372.25646 C296.629622,2372.28677 296.60472,2372.31573 296.579144,2372.34335 C296.552222,2372.38781 296.523282,2372.43362 296.491649,2372.47942 L296.415595,2372.58518 C273.008483,2403.60466 262.087677,2442.0055 265.66625,2480.7135 C269.244823,2519.42016 287.019905,2555.16363 315.71714,2581.35943 C344.414375,2607.55388 381.608785,2621.9872 420.449461,2622 L420.500612,2622 C459.323115,2622 496.506757,2607.59228 525.20803,2581.42679 C553.922764,2555.25052 571.72073,2519.5185 575.324206,2480.81319 C578.928354,2442.10856 568.032451,2403.70031 544.644858,2372.66466 L544.552651,2372.53398 Z" id="Fill-1"></path>
        </g>
    </g>
</svg>