<?xml version="1.0" encoding="UTF-8"?>
<svg width="177px" height="126px" viewBox="0 0 177 126" version="1.1" xmlns="http://www.w3.org/2000/svg" xmlns:xlink="http://www.w3.org/1999/xlink">
    <!-- Generator: Sketch 51.3 (57544) - http://www.bohemiancoding.com/sketch -->
    <title>Page 1</title>
    <desc>Created with Sketch.</desc>
    <defs></defs>
    <g id="Page-2" stroke="none" stroke-width="1" fill="none" fill-rule="evenodd">
        <g id="05.Google-adwordS-&amp;-GDN" transform="translate(-278.000000, -1842.000000)">
            <g id="Group" transform="translate(-240.000000, 931.000000)">
                <g id="What-is-search-ads?" transform="translate(462.000000, 581.000000)">
                    <g id="Group-15" transform="translate(0.000000, 330.000000)">
                        <g id="Page-1" transform="translate(56.000000, 0.000000)">
                            <path d="M7.66412661,70 C3.44372802,70 0,73.4290739 0,77.6641266 L0,96.4800703 C0,100.700469 3.44372802,104.144197 7.66412661,104.144197 L105.009525,104.144197 C104.344812,102.854777 103.873095,101.449883 103.630862,99.9677608 L7.66412661,99.9677608 C5.74443142,99.9677608 4.17643611,98.3997655 4.17643611,96.4800703 L4.17643611,77.6641266 C4.17643611,75.7444314 5.74443142,74.1764361 7.66412661,74.1764361 L164.654162,74.1764361 C166.573857,74.1764361 168.141852,75.7444314 168.141852,77.6641266 L168.141852,96.4800703 C168.141852,98.3997655 166.573857,99.9677608 164.654162,99.9677608 L131.568435,99.9677608 C131.326202,101.449883 130.854484,102.854777 130.189625,104.144197 L164.654162,104.144197 C168.87456,104.144197 172.318288,100.700469 172.318288,96.4800703 L172.318288,77.6641266 C172.318288,73.4290739 168.889215,70 164.654162,70 L7.66412661,70 Z" id="Fill-1" fill="#D3D3D3"></path>
                            <g id="Group-33" transform="translate(13.628370, 82.502931)" fill="#9B9B9B">
                                <path d="M2.75498242,3.76611958 L5.21688159,3.76611958 L5.21688159,6.99003517 C5.0996483,7.07796014 4.96776084,7.15123095 4.82121923,7.22450176 C4.66002345,7.29777257 4.49882767,7.35638921 4.32297773,7.4003517 C4.14712778,7.44431419 3.95662368,7.48827667 3.76611958,7.51758499 C3.57561547,7.54689332 3.38511137,7.54689332 3.20926143,7.54689332 C2.74032825,7.54689332 2.31535756,7.47362251 1.91969519,7.32708089 C1.52403283,7.18053927 1.1869871,6.94607268 0.90855803,6.63833529 C0.615474795,6.33059789 0.395662368,5.93493552 0.234466589,5.45134818 C0.0732708089,4.96776084 0,4.4109027 0,3.76611958 C0,3.09202814 0.102579132,2.50586166 0.293083236,2.03692849 C0.483587339,1.55334115 0.747362251,1.15767878 1.05509965,0.864595545 C1.36283705,0.556858148 1.71453693,0.337045721 2.1101993,0.205158265 C2.50586166,0.0586166471 2.88686987,0 3.28253224,0 C3.69284877,0 4.04454865,0.0293083236 4.32297773,0.0732708089 C4.58675264,0.117233294 4.82121923,0.175849941 5.01172333,0.263774912 L4.7919109,1.04044549 C4.45486518,0.879249707 3.985932,0.791324736 3.35580305,0.791324736 C3.06271981,0.791324736 2.76963658,0.835287222 2.47655334,0.937866354 C2.18347011,1.04044549 1.93434936,1.20164127 1.69988277,1.45076202 C1.46541618,1.6852286 1.27491208,1.992966 1.12837046,2.37397421 C0.981828839,2.75498242 0.90855803,3.22391559 0.90855803,3.7954279 C0.90855803,4.30832356 0.967174678,4.76260258 1.08440797,5.12895662 C1.20164127,5.50996483 1.36283705,5.81770223 1.58264947,6.06682298 C1.78780774,6.31594373 2.05158265,6.49179367 2.34466589,6.62368113 C2.63774912,6.74091442 2.97479484,6.79953107 3.32649472,6.79953107 C3.76611958,6.79953107 4.14712778,6.7116061 4.46951934,6.53575615 L4.46951934,4.49882767 L2.76963658,4.2936694 L2.76963658,3.76611958 L2.75498242,3.76611958 Z" id="Fill-3"></path>
                                <path d="M7.86459555,4.74032825 C7.86459555,5.00410317 7.89390387,5.25322392 7.93786635,5.50234467 C7.996483,5.75146542 8.06975381,5.95662368 8.1869871,6.14712778 C8.3042204,6.32297773 8.45076202,6.46951934 8.62661196,6.58675264 C8.8024619,6.70398593 9.02227433,6.74794842 9.28604924,6.74794842 C10.2385698,6.76260258 10.7075029,6.08851114 10.7075029,4.74032825 C10.7075029,4.46189918 10.6781946,4.21277843 10.6342321,3.96365768 C10.5756155,3.71453693 10.5023447,3.50937866 10.3851114,3.33352872 C10.2678781,3.15767878 10.1213365,3.01113716 9.94548652,2.89390387 C9.76963658,2.79132474 9.54982415,2.73270809 9.28604924,2.73270809 C8.33352872,2.71805393 7.86459555,3.39214537 7.86459555,4.74032825 M7,4.74032825 C7,3.86107855 7.1905041,3.17233294 7.58616647,2.70339977 C7.98182884,2.23446659 8.55334115,2 9.28604924,2 C9.68171161,2 10.0187573,2.05861665 10.3118406,2.1905041 C10.6049238,2.32239156 10.8393904,2.4982415 11.0298945,2.74736225 C11.2203986,2.98182884 11.352286,3.27491208 11.4548652,3.6119578 C11.5427902,3.94900352 11.5867526,4.33001172 11.5867526,4.74032825 C11.5867526,5.61957796 11.3962485,6.30832356 11.0005862,6.77725674 C10.6049238,7.24618992 10.0334115,7.48065651 9.3007034,7.48065651 C8.90504103,7.48065651 8.56799531,7.42203986 8.27491208,7.2901524 C7.98182884,7.15826495 7.74736225,6.98241501 7.55685815,6.73329426 C7.36635404,6.49882767 7.23446659,6.20574443 7.13188746,5.86869871 C7.04396249,5.51699883 7,5.15064478 7,4.74032825" id="Fill-5"></path>
                                <path d="M12.8645955,4.74032825 C12.8645955,5.00410317 12.8939039,5.25322392 12.9378664,5.50234467 C12.996483,5.75146542 13.0697538,5.95662368 13.1869871,6.14712778 C13.3042204,6.32297773 13.450762,6.46951934 13.626612,6.58675264 C13.8024619,6.70398593 14.0222743,6.74794842 14.2860492,6.74794842 C15.2385698,6.76260258 15.7075029,6.08851114 15.7075029,4.74032825 C15.7075029,4.46189918 15.6781946,4.21277843 15.6342321,3.96365768 C15.5756155,3.71453693 15.5023447,3.50937866 15.3851114,3.33352872 C15.2678781,3.15767878 15.1213365,3.01113716 14.9454865,2.89390387 C14.7696366,2.79132474 14.5498242,2.73270809 14.2860492,2.73270809 C13.3335287,2.71805393 12.8645955,3.39214537 12.8645955,4.74032825 M12,4.74032825 C12,3.86107855 12.1905041,3.17233294 12.5861665,2.70339977 C12.9818288,2.23446659 13.5533411,2 14.2860492,2 C14.6817116,2 15.0187573,2.05861665 15.3118406,2.1905041 C15.6049238,2.32239156 15.8393904,2.4982415 16.0298945,2.74736225 C16.2203986,2.98182884 16.352286,3.27491208 16.4548652,3.6119578 C16.5427902,3.94900352 16.5867526,4.33001172 16.5867526,4.74032825 C16.5867526,5.61957796 16.3962485,6.30832356 16.0005862,6.77725674 C15.6049238,7.24618992 15.0334115,7.48065651 14.3007034,7.48065651 C13.905041,7.48065651 13.5679953,7.42203986 13.2749121,7.2901524 C12.9818288,7.15826495 12.7473623,6.98241501 12.5568581,6.73329426 C12.366354,6.49882767 12.2344666,6.20574443 12.1318875,5.86869871 C12.0439625,5.51699883 12,5.15064478 12,4.74032825" id="Fill-7"></path>
                                <path d="M20.2274326,6.70398593 C20.5791325,6.70398593 20.8575615,6.61606096 21.0627198,6.44021102 C21.2678781,6.26436108 21.4144197,5.985932 21.4876905,5.6049238 L21.4876905,2.92321219 C21.2092614,2.79132474 20.8575615,2.71805393 20.4179367,2.71805393 C19.9490035,2.71805393 19.5679953,2.87924971 19.3042204,3.20164127 C19.0257913,3.52403283 18.8939039,4.02227433 18.8939039,4.71101993 C18.8939039,5.00410317 18.9232122,5.26787808 18.9671747,5.51699883 C19.0111372,5.76611958 19.0990621,5.97127784 19.2016413,6.14712778 C19.3042204,6.32297773 19.4361079,6.45486518 19.6119578,6.55744431 C19.7731536,6.66002345 19.9783118,6.70398593 20.2274326,6.70398593 Z M22.3229777,7.55392732 C22.3229777,8.22801876 22.1471278,8.72626026 21.7807737,9.04865182 C21.4290739,9.37104338 20.8868699,9.53223916 20.1834701,9.53223916 C19.7584994,9.53223916 19.4214537,9.50293083 19.1723329,9.45896835 C18.9232122,9.4003517 18.7033998,9.34173505 18.5128957,9.25381008 L18.7327081,8.53575615 C18.8939039,8.5943728 19.0697538,8.65298945 19.2602579,8.7116061 C19.450762,8.77022274 19.7145369,8.79953107 20.0222743,8.79953107 C20.3153576,8.79953107 20.5498242,8.77022274 20.7403283,8.72626026 C20.9308324,8.66764361 21.077374,8.57971864 21.1799531,8.46248535 C21.2971864,8.34525205 21.3704572,8.18405627 21.4144197,7.99355217 C21.4583822,7.80304807 21.4730363,7.56858148 21.4730363,7.30480657 L21.4730363,6.80656506 L21.4290739,6.80656506 C21.2825322,7.01172333 21.1066823,7.15826495 20.901524,7.27549824 C20.6817116,7.37807737 20.4032825,7.43669402 20.0515826,7.43669402 C19.3481829,7.43669402 18.8352872,7.21688159 18.4982415,6.77725674 C18.1611958,6.33763189 18,5.64888628 18,4.72567409 C18,3.83177022 18.2051583,3.15767878 18.630129,2.6887456 C19.0550996,2.21981243 19.6852286,2 20.5058617,2 C20.901524,2 21.2385698,2.02930832 21.531653,2.08792497 C21.8100821,2.14654162 22.073857,2.21981243 22.2936694,2.3077374 L22.2936694,7.55392732 L22.3229777,7.55392732 Z" id="Fill-9"></path>
                                <path d="M24.8499414,6.00820633 C24.8499414,6.25732708 24.8939039,6.43317702 24.9818288,6.53575615 C25.0697538,6.63833529 25.1869871,6.69695193 25.3335287,6.69695193 C25.4214537,6.69695193 25.5240328,6.69695193 25.626612,6.68229777 C25.7291911,6.66764361 25.8464244,6.63833529 25.9783118,6.5943728 L26.0662368,7.25381008 C25.9490035,7.31242673 25.8024619,7.35638921 25.5973036,7.38569754 C25.3921454,7.41500586 25.2309496,7.44431419 25.084408,7.44431419 C24.7766706,7.44431419 24.5128957,7.35638921 24.3077374,7.18053927 C24.1025791,7.00468933 24,6.69695193 24,6.27198124 L24,0 L24.8352872,0 L24.8352872,6.00820633 L24.8499414,6.00820633 Z" id="Fill-11"></path>
                                <path d="M29.3153576,2.74736225 C28.905041,2.74736225 28.5679953,2.84994138 28.3335287,3.06975381 C28.084408,3.28956624 27.9378664,3.65592028 27.8939039,4.18347011 L30.4730363,4.18347011 C30.4730363,3.65592028 30.3704572,3.27491208 30.1652989,3.06975381 C29.9747948,2.84994138 29.6817116,2.74736225 29.3153576,2.74736225 Z M31.1178195,6.93845252 C30.9126612,7.0996483 30.6488863,7.23153576 30.3264947,7.33411489 C30.0041032,7.43669402 29.6670574,7.48065651 29.3153576,7.48065651 C28.9196952,7.48065651 28.5679953,7.42203986 28.2749121,7.2901524 C27.9818288,7.15826495 27.7473623,6.98241501 27.5568581,6.73329426 C27.366354,6.49882767 27.2344666,6.20574443 27.1318875,5.86869871 C27.0439625,5.53165299 27,5.15064478 27,4.74032825 C27,3.84642438 27.2051583,3.17233294 27.6008206,2.70339977 C27.996483,2.23446659 28.5679953,2 29.3007034,2 C29.53517,2 29.7696366,2.02930832 30.0187573,2.07327081 C30.2532239,2.13188746 30.4730363,2.21981243 30.6635404,2.36635404 C30.8540445,2.51289566 31.0005862,2.71805393 31.1178195,2.98182884 C31.2350528,3.24560375 31.2936694,3.59730363 31.2936694,4.03692849 C31.2936694,4.27139508 31.2790152,4.52051583 31.2350528,4.7989449 L27.8792497,4.7989449 C27.8792497,5.1066823 27.908558,5.38511137 27.9671747,5.61957796 C28.0257913,5.85404455 28.1283705,6.05920281 28.2602579,6.22039859 C28.3921454,6.38159437 28.5679953,6.51348183 28.7731536,6.6014068 C28.992966,6.68933177 29.2420868,6.73329426 29.5498242,6.73329426 C29.7842907,6.73329426 30.0187573,6.68933177 30.2678781,6.6014068 C30.5023447,6.51348183 30.6781946,6.42555686 30.7954279,6.30832356 L31.1178195,6.93845252 Z" id="Fill-13"></path>
                                <path d="M37.7403283,5.9126612 C37.7403283,5.70750293 37.6817116,5.54630715 37.5498242,5.42907386 C37.4179367,5.31184056 37.2713951,5.20926143 37.080891,5.13599062 C36.8903869,5.06271981 36.6998828,4.97479484 36.4800703,4.90152403 C36.2602579,4.82825322 36.0550996,4.74032825 35.8792497,4.62309496 C35.6887456,4.50586166 35.542204,4.35932005 35.4103165,4.18347011 C35.2784291,4.00762016 35.2198124,3.75849941 35.2198124,3.45076202 C35.2198124,2.95252052 35.366354,2.58616647 35.6447831,2.35169988 C35.9232122,2.11723329 36.3335287,2 36.8317702,2 C37.2127784,2 37.5205158,2.02930832 37.7842907,2.10257913 C38.0334115,2.16119578 38.2532239,2.24912075 38.443728,2.33704572 L38.2385698,3.02579132 C38.077374,2.95252052 37.8868699,2.87924971 37.6524033,2.82063306 C37.4325909,2.76201641 37.1834701,2.73270809 36.9196952,2.73270809 C36.6119578,2.73270809 36.3921454,2.79132474 36.2456038,2.89390387 C36.0990621,2.996483 36.0257913,3.17233294 36.0257913,3.43610785 C36.0257913,3.6119578 36.084408,3.75849941 36.2162954,3.86107855 C36.3481829,3.96365768 36.4947245,4.05158265 36.6852286,4.13950762 C36.8757327,4.21277843 37.0662368,4.3007034 37.2860492,4.37397421 C37.5058617,4.44724502 37.7110199,4.54982415 37.8868699,4.68171161 C38.077374,4.81359906 38.2239156,4.96014068 38.355803,5.15064478 C38.4876905,5.34114889 38.5463072,5.59026964 38.5463072,5.9126612 C38.5463072,6.13247362 38.5169988,6.33763189 38.4290739,6.54279015 C38.355803,6.73329426 38.2385698,6.9091442 38.0920281,7.04103165 C37.9454865,7.18757327 37.7549824,7.2901524 37.5205158,7.36342321 C37.3007034,7.43669402 37.0222743,7.48065651 36.7145369,7.48065651 C36.3188746,7.48065651 35.9818288,7.43669402 35.7033998,7.36342321 C35.4249707,7.2901524 35.1905041,7.20222743 35,7.08499414 L35.2491208,6.36694021 C35.4103165,6.45486518 35.6154748,6.54279015 35.8792497,6.61606096 C36.1430246,6.68933177 36.3921454,6.73329426 36.6559203,6.73329426 C36.9490035,6.73329426 37.1981243,6.67467761 37.4032825,6.55744431 C37.6524033,6.42555686 37.7403283,6.22039859 37.7403283,5.9126612" id="Fill-15"></path>
                                <path d="M41.3153576,2.74736225 C40.905041,2.74736225 40.5679953,2.84994138 40.3335287,3.06975381 C40.084408,3.28956624 39.9378664,3.65592028 39.8939039,4.18347011 L42.4876905,4.18347011 C42.4876905,3.65592028 42.3851114,3.27491208 42.1799531,3.06975381 C41.9747948,2.84994138 41.6817116,2.74736225 41.3153576,2.74736225 Z M43.1178195,6.93845252 C42.9126612,7.0996483 42.6488863,7.23153576 42.3264947,7.33411489 C42.0041032,7.43669402 41.6670574,7.48065651 41.3153576,7.48065651 C40.9196952,7.48065651 40.5679953,7.42203986 40.2749121,7.2901524 C39.9818288,7.15826495 39.7473623,6.98241501 39.5568581,6.73329426 C39.366354,6.49882767 39.2344666,6.20574443 39.1318875,5.86869871 C39.0439625,5.53165299 39,5.15064478 39,4.74032825 C39,3.84642438 39.2051583,3.17233294 39.6008206,2.70339977 C39.996483,2.23446659 40.5679953,2 41.3007034,2 C41.53517,2 41.7696366,2.02930832 42.0187573,2.07327081 C42.2532239,2.13188746 42.4730363,2.21981243 42.6635404,2.36635404 C42.8540445,2.51289566 43.0005862,2.71805393 43.1178195,2.98182884 C43.2350528,3.24560375 43.2936694,3.59730363 43.2936694,4.03692849 C43.2936694,4.27139508 43.2790152,4.52051583 43.2350528,4.7989449 L39.8792497,4.7989449 C39.8792497,5.1066823 39.908558,5.38511137 39.9671747,5.61957796 C40.0257913,5.85404455 40.1283705,6.05920281 40.2602579,6.22039859 C40.3921454,6.38159437 40.5679953,6.51348183 40.7731536,6.6014068 C40.992966,6.68933177 41.2420868,6.73329426 41.5498242,6.73329426 C41.7842907,6.73329426 42.0187573,6.68933177 42.2678781,6.6014068 C42.5023447,6.51348183 42.6781946,6.42555686 42.7954279,6.30832356 L43.1178195,6.93845252 Z" id="Fill-17"></path>
                                <path d="M45.7878077,6.66002345 C45.9783118,6.66002345 46.1541618,6.63071512 46.3153576,6.58675264 C46.4618992,6.52813599 46.5937866,6.46951934 46.7110199,6.38159437 C46.8282532,6.30832356 46.9161782,6.20574443 46.989449,6.11781946 C47.0627198,6.01524033 47.1213365,5.92731536 47.1506448,5.83939039 L47.1506448,4.97479484 C47.0480657,4.97479484 46.9601407,4.96014068 46.8575615,4.96014068 L46.5644783,4.96014068 C46.3446659,4.96014068 46.1395076,4.97479484 45.9343494,4.989449 C45.7291911,5.01875733 45.5533411,5.06271981 45.3921454,5.12133646 C45.2309496,5.19460727 45.1137163,5.28253224 45.0111372,5.39976553 C44.9232122,5.51699883 44.8645955,5.66354045 44.8645955,5.83939039 C44.8645955,6.08851114 44.9525205,6.27901524 45.1283705,6.44021102 C45.2895662,6.57209848 45.5093787,6.66002345 45.7878077,6.66002345 Z M44.2930832,2.46893318 C44.5568581,2.3077374 44.8645955,2.1905041 45.2162954,2.11723329 C45.5679953,2.04396249 45.9343494,2 46.3153576,2 C46.6817116,2 46.9747948,2.04396249 47.1946073,2.14654162 C47.4144197,2.24912075 47.5756155,2.36635404 47.6928488,2.52754982 C47.8100821,2.6887456 47.8833529,2.84994138 47.9273154,3.04044549 C47.9712778,3.23094959 47.985932,3.42145369 47.985932,3.6119578 C47.985932,4.03692849 47.9712778,4.43259086 47.9566237,4.82825322 C47.9419695,5.22391559 47.9273154,5.6049238 47.9273154,5.95662368 C47.9273154,6.22039859 47.9419695,6.45486518 47.9566237,6.68933177 C47.9712778,6.92379836 48.0152403,7.12895662 48.073857,7.31946073 L47.4583822,7.31946073 L47.2385698,6.58675264 L47.1799531,6.58675264 C47.1213365,6.68933177 47.0334115,6.77725674 46.9454865,6.87983587 C46.8575615,6.96776084 46.7403283,7.05568581 46.6084408,7.12895662 C46.4765533,7.20222743 46.3300117,7.26084408 46.1541618,7.31946073 C45.9783118,7.36342321 45.7878077,7.39273154 45.5533411,7.39273154 C45.3188746,7.39273154 45.1283705,7.36342321 44.9378664,7.2901524 C44.7473623,7.21688159 44.5861665,7.11430246 44.4396249,6.99706917 C44.2930832,6.86518171 44.1905041,6.71864009 44.1172333,6.52813599 C44.0439625,6.35228605 44,6.14712778 44,5.9126612 C44,5.6049238 44.0586166,5.35580305 44.1905041,5.15064478 C44.3223916,4.94548652 44.4982415,4.78429074 44.7180539,4.65240328 C44.9378664,4.53516999 45.2162954,4.44724502 45.538687,4.38862837 C45.8610785,4.33001172 46.2127784,4.31535756 46.5937866,4.31535756 L46.8868699,4.31535756 C46.989449,4.31535756 47.077374,4.31535756 47.1799531,4.33001172 C47.1946073,4.12485346 47.2092614,3.93434936 47.2092614,3.77315358 C47.2092614,3.39214537 47.1359906,3.12837046 46.9747948,2.96717468 C46.8282532,2.82063306 46.5498242,2.73270809 46.1395076,2.73270809 C46.0222743,2.73270809 45.8903869,2.74736225 45.7584994,2.76201641 C45.626612,2.77667057 45.4800703,2.8059789 45.3335287,2.83528722 C45.1869871,2.86459555 45.0550996,2.90855803 44.9232122,2.95252052 C44.7913247,2.996483 44.6740914,3.05509965 44.5861665,3.1137163 L44.2930832,2.46893318 Z" id="Fill-19"></path>
                                <path d="M52.4765533,2.89390387 C52.2713951,2.82063306 52.0662368,2.79132474 51.8757327,2.79132474 C51.5679953,2.79132474 51.3335287,2.87924971 51.1576788,3.04044549 C50.9818288,3.20164127 50.8792497,3.40679953 50.8352872,3.65592028 L50.8352872,7.31946073 L50,7.31946073 L50,2.08792497 L50.5861665,2.08792497 L50.7473623,2.73270809 L50.7913247,2.73270809 C50.9232122,2.4982415 51.084408,2.3077374 51.2602579,2.1905041 C51.450762,2.05861665 51.6852286,2 51.9636577,2 C52.1688159,2 52.3886284,2.02930832 52.6377491,2.10257913 L52.4765533,2.89390387 Z" id="Fill-21"></path>
                                <path d="M56.8540445,7.01172333 C56.6488863,7.15826495 56.3997655,7.27549824 56.1066823,7.36342321 C55.8282532,7.43669402 55.5205158,7.48065651 55.2127784,7.48065651 C54.8024619,7.48065651 54.4654162,7.42203986 54.1869871,7.2901524 C53.908558,7.15826495 53.6740914,6.98241501 53.4982415,6.73329426 C53.3223916,6.49882767 53.1905041,6.20574443 53.1172333,5.86869871 C53.0439625,5.53165299 53,5.15064478 53,4.74032825 C53,3.86107855 53.1905041,3.17233294 53.5861665,2.70339977 C53.9818288,2.23446659 54.538687,2 55.2713951,2 C55.6084408,2 55.8868699,2.02930832 56.1213365,2.07327081 C56.355803,2.13188746 56.5609613,2.20515826 56.7514654,2.29308324 L56.5169988,3.01113716 C56.355803,2.92321219 56.1799531,2.84994138 55.989449,2.79132474 C55.7989449,2.73270809 55.5791325,2.71805393 55.35932,2.71805393 C54.362837,2.71805393 53.8792497,3.39214537 53.8792497,4.72567409 C53.8792497,4.989449 53.908558,5.23856975 53.9525205,5.4876905 C54.0111372,5.72215709 54.0990621,5.94196952 54.2162954,6.13247362 C54.3335287,6.32297773 54.4947245,6.46951934 54.6998828,6.57209848 C54.905041,6.68933177 55.1395076,6.73329426 55.4325909,6.73329426 C55.6817116,6.73329426 55.901524,6.68933177 56.1066823,6.61606096 C56.3118406,6.54279015 56.4730363,6.45486518 56.5902696,6.35228605 L56.8540445,7.01172333 Z" id="Fill-23"></path>
                                <path d="M61.355803,7.29777257 L61.355803,4.32297773 C61.355803,4.05920281 61.3411489,3.81008206 61.3118406,3.6049238 C61.2825322,3.39976553 61.2239156,3.22391559 61.1359906,3.09202814 C61.0480657,2.96014068 60.9454865,2.85756155 60.7989449,2.78429074 C60.6524033,2.71101993 60.4765533,2.68171161 60.2420868,2.68171161 C59.9196952,2.68171161 59.6119578,2.78429074 59.3481829,3.00410317 C59.084408,3.20926143 58.908558,3.4876905 58.8352872,3.82473623 L58.8352872,7.31242673 L58,7.31242673 L58,0 L58.8352872,0 L58.8352872,2.68171161 L58.8792497,2.68171161 C59.0550996,2.46189918 59.2749121,2.28604924 59.538687,2.16881594 C59.7878077,2.03692849 60.1101993,1.97831184 60.4912075,1.97831184 C60.7842907,1.97831184 61.0334115,2.00762016 61.2532239,2.08089097 C61.4730363,2.13950762 61.6488863,2.25674091 61.7954279,2.43259086 C61.9419695,2.59378664 62.0445487,2.82825322 62.1031653,3.1066823 C62.1764361,3.38511137 62.2057444,3.75146542 62.2057444,4.17643611 L62.2057444,7.32708089 L61.355803,7.32708089 L61.355803,7.29777257 Z" id="Fill-25"></path>
                                <path d="M64,6.60082063 C64,6.41031653 64.0586166,6.26377491 64.1611958,6.16119578 C64.2637749,6.05861665 64.4103165,6 64.6008206,6 C64.7913247,6 64.9378664,6.05861665 65.0550996,6.16119578 C65.1723329,6.26377491 65.2162954,6.41031653 65.2162954,6.60082063 C65.2162954,6.77667057 65.1576788,6.92321219 65.0550996,7.04044549 C64.9378664,7.15767878 64.7913247,7.20164127 64.6008206,7.20164127 C64.4249707,7.20164127 64.2784291,7.14302462 64.1611958,7.04044549 C64.0586166,6.93786635 64,6.79132474 64,6.60082063" id="Fill-27"></path>
                                <path d="M67,6.60082063 C67,6.41031653 67.0586166,6.26377491 67.1611958,6.16119578 C67.2637749,6.05861665 67.4103165,6 67.6008206,6 C67.7913247,6 67.9378664,6.05861665 68.0550996,6.16119578 C68.1723329,6.26377491 68.2162954,6.41031653 68.2162954,6.60082063 C68.2162954,6.77667057 68.1576788,6.92321219 68.0550996,7.04044549 C67.9378664,7.15767878 67.7913247,7.20164127 67.6008206,7.20164127 C67.4249707,7.20164127 67.2784291,7.14302462 67.1611958,7.04044549 C67.0586166,6.93786635 67,6.79132474 67,6.60082063" id="Fill-29"></path>
                                <path d="M69,6.60082063 C69,6.41031653 69.0586166,6.26377491 69.1611958,6.16119578 C69.2637749,6.05861665 69.4103165,6 69.6008206,6 C69.7913247,6 69.9378664,6.05861665 70.0550996,6.16119578 C70.1723329,6.26377491 70.2162954,6.41031653 70.2162954,6.60082063 C70.2162954,6.77667057 70.1576788,6.92321219 70.0550996,7.04044549 C69.9378664,7.15767878 69.7913247,7.20164127 69.6008206,7.20164127 C69.4249707,7.20164127 69.2784291,7.14302462 69.1611958,7.04044549 C69.0586166,6.93786635 69,6.79132474 69,6.60082063" id="Fill-31"></path>
                            </g>
                            <path d="M121.757327,31.4273154 C123.061547,30.123095 123.164127,28.3059789 123.164127,27.2948417 C123.164127,23.2063306 120.731536,16.8610785 116.02755,16.8610785 C114.547479,16.8610785 112.96483,17.5937866 112.056272,18.7368113 C111.089097,19.9237984 110.810668,21.4624853 110.810668,22.9279015 C110.810668,26.7233294 113.023447,33.024619 117.903283,33.024619 C119.310082,33.024619 120.848769,32.3358734 121.757327,31.4273154 Z M120.101407,42.2127784 C119.647128,42.1541618 119.368699,42.1541618 118.797186,42.1541618 C118.284291,42.1541618 115.221571,42.2713951 112.847597,43.0627198 C111.601993,43.5169988 107.967761,44.8798359 107.967761,48.8950762 C107.967761,52.9103165 111.880422,55.8118406 117.947245,55.8118406 C123.383939,55.8118406 126.285463,53.2033998 126.285463,49.6864009 C126.285463,46.7995311 124.424385,45.2608441 120.101407,42.2127784 Z M124.131301,17.0369285 C125.435522,18.1213365 128.161196,20.3780774 128.161196,24.6864009 C128.161196,28.8774912 125.787222,30.8704572 123.398593,32.7315358 C122.665885,33.4642438 121.815944,34.2702227 121.815944,35.5158265 C121.815944,36.7614302 122.665885,37.4355217 123.296014,37.9484174 L125.332943,39.5310668 C127.82415,41.626612 130.095545,43.5609613 130.095545,47.4736225 C130.095545,52.8077374 124.93728,58.1858148 115.192263,58.1858148 C106.971278,58.1858148 103,54.2731536 103,50.0820633 C103,48.0451348 104.011137,45.1582649 107.36694,43.1652989 C110.883939,41.0111372 115.646542,40.7327081 118.196366,40.5568581 C117.405041,39.5310668 116.496483,38.461313 116.496483,36.7028136 C116.496483,35.7356389 116.774912,35.1787808 117.067995,34.4900352 C116.437866,34.5486518 115.822392,34.6072685 115.250879,34.6072685 C109.242673,34.6072685 105.842907,30.123095 105.842907,25.7121923 C105.842907,23.1037515 107.029894,20.2168816 109.462485,18.1213365 C112.701055,15.454279 116.5551,15 119.617819,15 L131.297186,15 L127.662954,17.0369285 L124.131301,17.0369285 Z" id="Fill-34" fill="#4A90E2"></path>
                            <path d="M95.8821805,36.5234467 C97.2450176,34.7063306 97.5820633,32.4495897 97.5820633,30.2368113 C97.5820633,25.2543962 95.2080891,15.7438453 88.1887456,15.7438453 C86.3276671,15.7438453 84.4519343,16.4765533 83.1037515,17.6781946 C80.890973,19.6565064 80.4953107,22.147714 80.4953107,24.5803048 C80.4953107,30.1781946 83.2649472,39.3956624 90.123095,39.3956624 C92.3065651,39.4103165 94.5779601,38.3259086 95.8821805,36.5234467 M88.8042204,41.1101993 C79.8065651,41.1101993 75,34.0908558 75,27.7456038 C75,20.3305979 81.0521688,14 89.6688159,14 C97.9777257,14 103.194607,20.5064478 103.194607,27.3499414 C103.179953,34.0322392 98.0363423,41.1101993 88.8042204,41.1101993" id="Fill-36" fill="#FFBB4C"></path>
                            <path d="M64.8675264,36.5234467 C66.2303634,34.7063306 66.5674091,32.4495897 66.5674091,30.2368113 C66.5674091,25.2543962 64.1934349,15.7438453 57.1740914,15.7438453 C55.3130129,15.7438453 53.4372802,16.4765533 52.0744431,17.6781946 C49.8616647,19.6565064 49.4660023,22.147714 49.4660023,24.5803048 C49.4660023,30.1781946 52.2356389,39.3956624 59.0937866,39.3956624 C61.3065651,39.4103165 63.5779601,38.3259086 64.8675264,36.5234467 M57.8042204,41.1101993 C48.8065651,41.1101993 44,34.0908558 44,27.7456038 C44,20.3305979 50.0521688,14 58.6541618,14 C66.9777257,14 72.1799531,20.5064478 72.1799531,27.3499414 C72.1799531,34.0322392 67.0216882,41.1101993 57.8042204,41.1101993" id="Fill-38" fill="#E5001C"></path>
                            <path d="M39.1998828,40.038687 L31.066823,41.9144197 C27.7696366,42.4273154 24.8094959,42.8815944 21.6735053,42.8815944 C5.97889801,42.8815944 0,31.3341149 0,22.2778429 C0,11.2432591 8.47010551,1 22.9923798,1 C26.0697538,1 29.0298945,1.45427902 31.6969519,2.1869871 C35.961313,3.40328253 37.954279,4.86869871 39.1998828,5.73329426 L34.4812427,10.2321219 L32.4882767,10.6864009 L33.9097304,8.41500586 C31.975381,6.53927315 28.443728,3.06623681 21.7321219,3.06623681 C12.7491208,3.05158265 5.97889801,9.88042204 5.97889801,19.8452521 C5.97889801,30.5427902 13.7162954,40.6101993 26.1137163,40.6101993 C29.7626026,40.6101993 31.6383353,39.8774912 33.3382181,39.1887456 L33.3382181,30.0298945 L24.7508792,30.4841735 L29.3083236,28.0369285 L41.3686987,28.0369285 L39.8886284,29.4583822 C39.492966,29.7954279 39.4343494,29.9126612 39.3171161,30.3669402 C39.2584994,30.8798359 39.1998828,32.5357562 39.1998828,33.1072685 L39.1998828,40.038687 Z" id="Fill-40" fill="#4A90E2"></path>
                            <path d="M142.075029,38.6576788 C140.199297,38.4818288 139.803634,38.1447831 139.803634,35.9173505 L139.803634,35.2872216 L139.803634,3.72215709 C139.818288,3.6049238 139.818288,3.47303634 139.832943,3.35580305 C140.067409,1.36283705 140.638921,1.02579132 142.397421,0 L134.264361,0 L130,2.05158265 L134.352286,2.05158265 L134.352286,2.08089097 L134.352286,2.06623681 L134.352286,35.3165299 L134.352286,37.1922626 C134.352286,38.3352872 134.132474,38.496483 132.813599,40.2110199 L142.881008,40.2110199 L144.991208,38.9654162 C144.024033,38.8335287 143.056858,38.7749121 142.075029,38.6576788" id="Fill-42" fill="#56A100"></path>
                            <path d="M160.313599,22.2649472 C161.383353,21.8692849 161.954865,21.5322392 161.954865,20.7409144 C161.954865,18.4841735 159.419695,15.8757327 156.356975,15.8757327 C154.100234,15.8757327 149.865182,17.6342321 149.865182,23.7303634 C149.865182,24.6975381 149.982415,25.7086753 150.041032,26.7344666 L160.313599,22.2649472 Z M165.618406,39.1025791 C165.002931,39.4396249 164.372802,39.8352872 163.757327,40.1137163 C161.881594,40.9636577 159.961899,41.1834701 158.276671,41.1834701 C156.474209,41.1834701 153.645955,41.0662368 150.759086,38.9853458 C146.743845,36.1570926 145,31.2919109 145,27.0568581 C145,18.2936694 152.121923,14 157.939625,14 C159.976553,14 162.072098,14.5128957 163.757327,15.5826495 C166.58558,17.443728 167.318288,19.8763189 167.713951,21.1805393 L154.43728,26.5439625 L150.084994,26.8810082 C151.491794,34.0615475 156.356975,38.2379836 161.720399,38.2379836 C164.607268,38.2379836 166.688159,37.2268464 168.607855,36.2596717 L165.618406,39.1025791 Z" id="Fill-44" fill="#E5001C"></path>
                            <polygon id="Fill-46" fill="#9B9B9B" points="170.685229 14.3810082 170.685229 18.1031653 170.23095 18.1031653 170.23095 14.3810082 169 14.3810082 169 14 171.916178 14 171.916178 14.3810082"></polygon>
                            <polygon id="Fill-48" fill="#9B9B9B" points="176.092028 18.1178195 176.092028 14.3516999 176.077374 14.3516999 174.934349 18.1178195 174.582649 18.1178195 173.424971 14.3516999 173.410317 14.3516999 173.410317 18.1178195 173 18.1178195 173 14 173.7034 14 174.758499 17.3264947 174.773154 17.3264947 175.798945 14 176.516999 14 176.516999 18.1178195"></polygon>
                            <path d="M117.845252,111.004531 C125.113716,110.960569 130.916764,105.172175 131.019343,98.0209439 C131.121923,90.6205922 125.23095,84.7442733 118.05041,84.6416942 C110.650059,84.539115 104.715123,90.4447422 104.671161,97.6985523 C104.612544,105.069596 110.532825,111.004531 117.845252,111.004531 Z M99,96.4676027 C99.1025791,95.764203 99.1905041,95.0608032 99.3223916,94.3574034 C100.201641,89.7413425 102.502345,85.9898771 106.151231,83.0590447 C108.759672,80.9634996 111.734467,79.6153167 115.046307,79.190346 C122.182884,78.281788 128.088511,80.6264538 132.645955,86.2096895 C134.741501,88.7741678 136.031067,91.7489626 136.470692,95.0314949 C137.276671,100.951776 135.679367,106.183312 131.664127,110.608869 C128.953107,113.583664 125.582649,115.518013 121.626026,116.280029 C115.383353,117.481671 109.829426,115.942984 105.096131,111.678623 C101.813599,108.718482 99.8939039,104.981671 99.1905041,100.629385 C99.1172333,100.145797 99.0586166,99.66221 99,99.1786227 L99,96.4676027 Z" id="Fill-50" fill="#F69C1D"></path>
                            <path d="M141.67038,125.012052 C141.040251,124.850856 140.424776,124.675006 139.911881,124.235381 C139.648106,124.015569 139.413639,123.781102 139.164518,123.531982 C138.138727,122.50619 132.467567,116.732451 131.441775,115.721313 C130.811646,115.091184 130.855609,114.373131 131.573663,113.830927 C132.804612,112.907714 133.88902,111.837961 134.812232,110.592357 C135.339782,109.874303 136.057836,109.801032 136.673311,110.416507 C137.860298,111.58884 143.692654,117.509121 144.850333,118.710762 C145.86147,119.751208 146.154554,121.02612 145.729583,122.403611 C145.289958,123.810411 144.293475,124.660352 142.842713,124.953435 C142.798751,124.96809 142.769442,124.997398 142.72548,125.012052 L141.67038,125.012052 Z" id="Fill-52" fill="#F69C1D"></path>
                        </g>
                    </g>
                </g>
            </g>
        </g>
    </g>
</svg>