<?xml version="1.0" encoding="UTF-8"?>
<svg width="447px" height="500px" viewBox="0 0 447 500" version="1.1" xmlns="http://www.w3.org/2000/svg" xmlns:xlink="http://www.w3.org/1999/xlink">
    <!-- Generator: Sketch 51.3 (57544) - http://www.bohemiancoding.com/sketch -->
    <title>Group 28</title>
    <desc>Created with Sketch.</desc>
    <defs>
        <linearGradient x1="50%" y1="3.19475446%" x2="50%" y2="96.6856665%" id="linearGradient-1">
            <stop stop-color="#EEEEEE" offset="0%"></stop>
            <stop stop-color="#D8D8D8" offset="100%"></stop>
        </linearGradient>
        <linearGradient x1="0%" y1="0%" x2="101.999998%" y2="100.999999%" id="linearGradient-2">
            <stop stop-color="#260046" offset="0%"></stop>
            <stop stop-color="#215E96" offset="57.7966944%"></stop>
            <stop stop-color="#1CB5E0" offset="100%"></stop>
        </linearGradient>
        <linearGradient x1="40.6746931%" y1="0%" x2="40.6746924%" y2="168.662813%" id="linearGradient-3">
            <stop stop-color="#237AAE" offset="0%"></stop>
            <stop stop-color="#B0EC51" offset="100%"></stop>
        </linearGradient>
    </defs>
    <g id="Page-2" stroke="none" stroke-width="1" fill="none" fill-rule="evenodd">
        <g id="-----" transform="translate(-782.000000, -1334.000000)">
            <g id="Group-28" transform="translate(782.000000, 1334.000000)">
                <path d="M109.196002,227.616686 C108.520963,228.343761 108.151079,229.265505 108.151079,230.215393 C108.151079,231.158245 108.539457,232.112824 109.191378,232.769537 C110.578443,234.179124 113.001184,234.127525 114.31196,232.814099 C114.968504,232.14566 115.345324,231.198117 115.345324,230.215393 C115.345324,229.20687 114.973128,228.264018 114.323519,227.633104 C112.991937,226.284497 110.557637,226.282152 109.196002,227.616686" id="Fill-1" fill="#417505"></path>
                <path d="M96.4615864,233.81295 C98.4454889,233.81295 100.057554,232.197303 100.057554,230.214673 C100.057554,228.234352 98.4454889,226.618705 96.4615864,226.618705 C94.477684,226.618705 92.8633094,228.234352 92.8633094,230.214673 C92.8633094,232.197303 94.477684,233.81295 96.4615864,233.81295 Z" id="Fill-3" fill="#F5A623"></path>
                <path d="M78.6217652,227.629152 C77.9658533,228.338074 77.5755396,229.306699 77.5755396,230.221512 C77.5755396,231.173759 77.972782,232.116648 78.6610275,232.813871 C79.984399,234.161523 82.4163539,234.131108 83.7304872,232.811531 C84.3910182,232.144724 84.7697842,231.197156 84.7697842,230.221512 C84.7697842,229.222471 84.4094946,228.326375 83.7258681,227.631492 C82.3909489,226.2815 80.0074945,226.2815 78.6217652,227.629152" id="Fill-5" fill="#D0021B"></path>
                <path d="M299.114534,250.690042 L325.499812,250.690042 L330.987181,256.217855 L52.531868,256.217855 L52.531868,494.479196 L336.631467,494.479196 L336.631467,261.899867 L342.168019,267.479079 L342.168019,497.236094 C342.168019,498.761733 340.924402,500 339.397401,500 L49.768276,500 C48.2412744,500 47,498.761733 47,497.236094 L47,208.308587 C47,206.785285 48.2412744,205.547017 49.768276,205.547017 L197.65792,205.547017 C198.51276,207.423109 199.442545,209.275838 200.426196,211.07483 L52.531868,211.07483 L52.531868,250.690042 L248.676639,250.690042 C264.927965,255.811329 282.828078,255.811329 299.114534,250.690042 Z M384.420296,96.1502967 C401.458543,98.0707794 414.805755,112.979052 414.805755,130.090506 C414.805755,138.86585 407.650863,146.008083 398.856551,146.008083 L340.87967,146.008083 L341.591646,148.033701 C347.786308,165.565699 346.931468,185.177051 339.244935,201.839925 C335.724868,209.475129 337.427522,218.661671 343.484004,224.698809 L384.024493,265.11539 C388.577394,269.664271 388.577394,277.068175 384.026835,281.617056 C381.820646,283.820237 378.881402,285.032805 375.752453,285.032805 C372.630531,285.032805 369.693629,283.822574 367.482756,281.624065 L326.855611,241.109357 C323.084948,237.350164 317.817729,235.193709 312.405304,235.193709 C309.421562,235.193709 306.538526,235.819852 303.831143,237.05812 C276.600394,249.419767 244.158634,243.501783 223.10381,222.322737 C203.882794,202.99642 197.343854,173.834054 206.440287,148.031365 L207.152264,146.008083 L145.032337,146.008083 C136.235683,146.008083 129.078448,138.86585 129.078448,130.090506 C129.078448,114.327128 140.905685,101.021594 156.587898,99.1361566 L157.772964,98.9913027 L157.91817,97.8067714 C159.630192,83.4919328 170.853185,72.2961263 185.20747,70.5859154 L186.397219,70.4410615 L186.540083,69.2565302 C188.247421,54.9720642 199.44231,43.7832668 213.763806,42.047356 L214.991028,41.8978294 L215.094078,40.666571 C217.023908,17.8614234 236.523626,0 259.487201,0 C282.333676,0 301.824026,17.7586238 303.861589,40.435272 L303.985717,41.8183934 L326.319287,41.8183934 C356.163739,41.8183934 381.092275,65.0674482 383.07363,94.7414755 L383.155601,96.0077791 L384.420296,96.1502967 Z M398.856551,140.75596 C404.749091,140.75596 409.540878,135.971108 409.540878,130.090506 C409.540878,114.154238 396.542628,101.187475 380.565319,101.187475 C379.115604,101.187475 377.935223,100.012289 377.935223,98.5614136 C377.935223,70.1700445 354.781943,47.0705163 326.319287,47.0705163 L301.409487,47.0705163 C299.955088,47.0705163 298.774706,45.8929941 298.774706,44.4444548 C298.774706,22.8331839 281.150952,5.25212293 259.487201,5.25212293 C237.825793,5.25212293 220.204381,22.8331839 220.204381,44.4444548 C220.204381,45.8929941 219.023999,47.0705163 217.571942,47.0705163 C203.245762,47.0705163 191.589494,58.7008846 191.589494,72.9923597 C191.589494,74.4408989 190.40677,75.6184211 188.952371,75.6184211 C174.623849,75.6184211 162.965238,87.2487894 162.965238,101.542601 C162.965238,102.99114 161.782514,104.168662 160.330458,104.168662 C146.001936,104.168662 134.348009,115.796694 134.348009,130.090506 C134.348009,135.971108 139.139796,140.75596 145.032337,140.75596 L209.379531,140.75596 L210.318684,139.041076 C210.61378,138.466333 210.929953,137.889254 211.323414,137.176666 C211.897211,136.153343 212.480375,135.146375 213.103355,134.153425 C213.693545,133.200192 214.314183,132.256305 214.951214,131.331109 L215.30486,130.819448 C215.508616,130.522731 215.712373,130.226014 215.925497,129.931634 C216.857624,128.648975 217.862354,127.366317 218.906898,126.118705 L219.550955,125.366399 C220.98896,123.702915 222.145921,122.44362 223.305225,121.287125 C251.283081,93.3887267 296.807403,93.3887267 324.789943,121.287125 C326.117873,122.611838 327.427066,124.034677 328.687077,125.513589 C329.122694,126.02525 329.532548,126.557939 329.954113,127.099973 L331.012709,128.448049 C331.392118,128.929338 331.773868,129.40829 332.13454,129.901261 C332.860569,130.903557 333.535073,131.943234 334.211918,132.989921 L334.67564,133.697836 C334.851292,133.959507 335.02226,134.216506 335.18386,134.475841 C335.963755,135.744481 336.673389,137.043494 337.324472,138.260734 L337.851429,139.232657 C337.954478,139.438256 338.064553,139.636847 338.263625,139.989636 L338.701584,140.75596 L398.856551,140.75596 Z M334.460173,199.646089 C342.804816,181.553367 342.397303,160.030877 333.368789,142.071327 L332.764546,140.882123 C332.190749,139.798055 331.581822,138.730341 330.947133,137.67431 C330.600513,137.104239 330.23984,136.536505 329.876826,135.973444 C329.296004,135.071612 328.708155,134.181461 328.078149,133.300656 C327.555877,132.578722 327.005501,131.87548 326.441073,131.158219 L325.815751,130.349841 C325.476157,129.912943 325.138905,129.480717 324.780575,129.060174 C323.79224,127.894333 322.689145,126.691111 321.51579,125.497234 L321.068462,125.013609 C314.721569,118.684427 307.323105,113.78743 299.074486,110.45579 C274.225578,100.425824 245.945601,106.133536 227.033732,125.0066 C225.897849,126.142068 224.752597,127.387345 223.431694,128.929338 L222.747822,129.726035 C221.83209,130.826457 220.904647,132.036688 219.909285,133.424482 C219.555639,133.919789 219.209019,134.41276 218.876451,134.908067 C218.148081,135.980453 217.440789,137.099567 216.710076,138.333161 C216.290853,139.048085 215.888025,139.774691 215.494564,140.503634 C215.159654,141.122767 214.850507,141.751247 214.539017,142.375053 C201.878019,167.852989 206.822038,198.494267 226.841686,218.621953 C246.397612,238.268351 276.459872,243.758782 301.634321,232.270931 C305.027919,230.731274 308.646351,229.950932 312.391252,229.950932 C319.204209,229.950932 325.832145,232.661102 330.579434,237.389882 L371.208921,277.906926 C372.424433,279.112485 374.040432,279.776009 375.759479,279.780682 C377.480869,279.780682 379.092184,279.114821 380.293644,277.90459 C382.801955,275.409364 382.804297,271.339436 380.298328,268.827856 L339.764865,228.418284 C332.153277,220.83448 330.01969,209.271866 334.460173,199.646089 Z" id="Combined-Shape" fill="url(#linearGradient-1)"></path>
                <path d="M272.733338,297.738237 C288.019397,297.738237 300.456584,310.043982 300.456584,325.172592 C300.456584,340.303517 288.019397,352.613893 272.733338,352.613893 C257.444939,352.613893 245.005411,340.303517 245.005411,325.172592 C245.005411,310.043982 257.444939,297.738237 272.733338,297.738237 M84.8388829,372.302158 C86.3651479,372.302158 87.6081643,371.074826 87.6081643,369.564975 L87.6081643,327.557785 L113.278443,327.557785 L113.278443,351.669078 C113.278443,353.176613 114.52146,354.403946 116.047725,354.403946 C117.573989,354.403946 118.814665,353.176613 118.814665,351.669078 L118.814665,327.557785 L144.948441,327.557785 L144.948441,351.669078 C144.948441,353.176613 146.189117,354.403946 147.717723,354.403946 C149.241647,354.403946 150.482322,353.176613 150.482322,351.669078 L150.482322,327.557785 L239.546439,327.557785 L239.731369,329.088477 C241.723473,345.622729 255.90931,358.088259 272.733338,358.088259 C291.071927,358.088259 305.992806,343.323218 305.992806,325.172592 C305.992806,307.028912 291.071927,292.266187 272.733338,292.266187 C256.269808,292.266187 242.128448,304.439936 239.83671,320.580516 L239.623688,322.078787 L84.8388829,322.078787 C83.3149589,322.078787 82.0719424,323.308436 82.0719424,324.818286 L82.0719424,369.564975 C82.0719424,371.074826 83.3149589,372.302158 84.8388829,372.302158" id="Fill-25" fill="url(#linearGradient-2)"></path>
                <path d="M162.900832,385.459329 C164.425492,385.459329 165.669108,386.697597 165.669108,388.223236 C165.669108,389.746538 164.425492,390.987142 162.900832,390.987142 L117.397588,390.987142 C115.870586,390.987142 114.62697,389.746538 114.62697,388.223236 C114.62697,386.697597 115.870586,385.459329 117.397588,385.459329 L162.900832,385.459329 Z M251.658976,388.222301 C251.658976,389.745604 250.417701,390.988544 248.8907,390.988544 L190.272103,390.988544 C188.745102,390.988544 187.501485,389.745604 187.501485,388.222301 C187.501485,386.698999 188.745102,385.458395 190.272103,385.458395 L248.8907,385.458395 C250.417701,385.458395 251.658976,386.698999 251.658976,388.222301 Z M303.20184,385.459329 C304.728842,385.459329 305.972458,386.697597 305.972458,388.223236 C305.972458,389.746538 304.728842,390.987142 303.20184,390.987142 L276.263844,390.987142 C274.736843,390.987142 273.493226,389.746538 273.493226,388.223236 C273.493226,386.697597 274.736843,385.459329 276.263844,385.459329 L303.20184,385.459329 Z M86.1732139,422.674405 C84.6485542,422.674405 83.4049378,421.433802 83.4049378,419.908163 C83.4049378,418.387196 84.6485542,417.151265 86.1732139,417.151265 L122.165486,417.151265 C123.690146,417.151265 124.931421,418.387196 124.931421,419.908163 C124.931421,421.433802 123.690146,422.674405 122.165486,422.674405 L86.1732139,422.674405 Z M149.537226,422.674405 C148.010224,422.674405 146.766608,421.433802 146.766608,419.908163 C146.766608,418.387196 148.010224,417.151265 149.537226,417.151265 L208.160506,417.151265 C209.685166,417.151265 210.924098,418.387196 210.924098,419.908163 C210.924098,421.433802 209.685166,422.674405 208.160506,422.674405 L149.537226,422.674405 Z M303.20184,417.150798 C304.728842,417.150798 305.972458,418.386729 305.972458,419.910032 C305.972458,421.433334 304.728842,422.673938 303.20184,422.673938 L235.531309,422.673938 C234.006649,422.673938 232.763033,421.433334 232.763033,419.910032 C232.763033,418.386729 234.006649,417.150798 235.531309,417.150798 L303.20184,417.150798 Z M86.1732139,454.365874 C84.6485542,454.365874 83.4049378,453.122934 83.4049378,451.594959 C83.4049378,450.073992 84.6485542,448.838061 86.1732139,448.838061 L153.848429,448.838061 C155.375431,448.838061 156.616705,450.073992 156.616705,451.594959 C156.616705,453.122934 155.375431,454.365874 153.848429,454.365874 L86.1732139,454.365874 Z M244.365201,448.837594 C245.892203,448.837594 247.135819,450.073525 247.135819,451.596828 C247.135819,453.122467 245.892203,454.365407 244.365201,454.365407 L181.221808,454.365407 C179.694806,454.365407 178.45119,453.122467 178.45119,451.596828 C178.45119,450.073525 179.694806,448.837594 181.221808,448.837594 L244.365201,448.837594 Z M303.20184,448.837594 C304.728842,448.837594 305.972458,450.073525 305.972458,451.596828 C305.972458,453.122467 304.728842,454.365407 303.20184,454.365407 L271.736706,454.365407 C270.212046,454.365407 268.973114,453.122467 268.973114,451.596828 C268.973114,450.073525 270.212046,448.837594 271.736706,448.837594 L303.20184,448.837594 Z" id="Combined-Shape" fill="url(#linearGradient-3)"></path>
                <path d="M307.773431,206.813824 C298.407695,216.17976 285.956831,221.340534 272.721772,221.340534 C259.47967,221.340534 247.031154,216.17976 237.667766,206.811476 C228.302031,197.452584 223.146063,185.003802 223.146063,171.759068 C223.146063,158.521378 228.302031,146.070248 237.667766,136.704312 C247.021762,127.340724 259.470278,122.184646 272.721772,122.184646 C285.968571,122.184646 298.417087,127.340724 307.773431,136.70666 C317.136818,146.065552 322.295134,158.514334 322.295134,171.759068 C322.295134,185.00615 317.136818,197.454932 307.773431,206.813824 M272.721772,116.906475 C258.068587,116.906475 244.291166,122.611971 233.929924,132.968738 C223.568683,143.330201 217.863309,157.105569 217.863309,171.759068 C217.863309,186.414915 223.568683,200.192631 233.929924,210.549398 C244.288818,220.910861 258.066239,226.618705 272.721772,226.618705 C287.374957,226.618705 301.150031,220.913209 311.508924,210.551746 C321.867818,200.199675 327.57554,186.421958 327.57554,171.759068 C327.57554,157.098526 321.867818,143.323157 311.508924,132.968738 C301.147683,122.611971 287.372609,116.906475 272.721772,116.906475" id="Fill-32" fill="url(#linearGradient-2)"></path>
                <path d="M309.519423,172 C306.475392,172 304,169.528191 304,166.490327 C304,159.10628 310.020308,153.099348 317.422287,153.099348 C318.172406,153.099348 318.78339,152.491051 318.78339,151.74275 C318.78339,144.358702 324.806118,138.350564 332.208097,138.350564 C332.959425,138.350564 333.570409,137.742267 333.570409,136.993965 C333.570409,129.611125 339.591928,123.602986 346.992696,123.602986 C347.742815,123.602986 348.352589,122.994689 348.352589,122.246388 C348.352589,111.08221 357.455644,102 368.645723,102 C379.837011,102 388.941276,111.08221 388.941276,122.246388 C388.941276,122.994689 389.55105,123.602986 390.302379,123.602986 L403.170546,123.602986 C417.874084,123.602986 429.83485,135.535984 429.83485,150.202697 C429.83485,150.952205 430.444624,151.559295 431.193533,151.559295 C439.447259,151.559295 446.162032,158.257802 446.162032,166.490327 C446.162032,169.528191 443.68664,172 440.64261,172 L309.519423,172 Z" id="Fill-30" fill="url(#linearGradient-2)" opacity="0.3"></path>
                <path d="M7.09640046,120 C3.18264694,120 0,116.821959 0,112.916135 C0,103.422359 7.74039647,95.699162 17.2572264,95.699162 C18.2216648,95.699162 19.0072155,94.9170661 19.0072155,93.954964 C19.0072155,84.4611883 26.7507231,76.7364392 36.267553,76.7364392 C37.233547,76.7364392 38.0190977,75.9543433 38.0190977,74.9922411 C38.0190977,65.5000172 45.7610497,57.7752681 55.276324,57.7752681 C56.2407625,57.7752681 57.0247577,56.9931722 57.0247577,56.03107 C57.0247577,41.6771268 68.7286851,30 83.1159293,30 C97.504729,30 109.210212,41.6771268 109.210212,56.03107 C109.210212,56.9931722 109.994207,57.7752681 110.960201,57.7752681 L127.504987,57.7752681 C146.409537,57.7752681 161.787664,73.1176937 161.787664,91.9748957 C161.787664,92.9385496 162.571659,93.7190938 163.534542,93.7190938 C174.146476,93.7190938 182.779756,102.33146 182.779756,112.916135 C182.779756,116.821959 179.597109,120 175.683356,120 L7.09640046,120 Z" id="Fill-30-Copy" fill="url(#linearGradient-2)" opacity="0.1"></path>
            </g>
        </g>
    </g>
</svg>