<?xml version="1.0" encoding="UTF-8"?><svg width="18px" height="16px" viewBox="0 0 18 16" version="1.1" xmlns="http://www.w3.org/2000/svg" xmlns:xlink="http://www.w3.org/1999/xlink"> <!-- Generator: Sketch 51.3 (57544) - http://www.bohemiancoding.com/sketch --> <title>Combined Shape</title> <desc>Created with Sketch.</desc> <defs></defs> <g id="Page-2" stroke="none" stroke-width="1" fill="none" fill-rule="evenodd"> <g id="12.Recruit-Detail" transform="translate(-395.000000, -2999.000000)" fill="#9B9B9B"> <g id="Group-6" transform="translate(360.000000, 2623.000000)"> <g id="Group-5" transform="translate(0.000000, 367.000000)"> <path d="M52.7096346,19.7395858 L52.7096346,24.0432702 C52.7096346,24.0933998 52.6915026,24.1371299 52.6819033,24.1840598 C52.6915026,24.2309897 52.7096346,24.2747199 52.7096346,24.3248495 C52.7096346,24.6970889 52.4088567,25 52.0355507,25 L35.6751505,25 C35.3018445,25 35,24.6970889 35,24.3248495 C35,24.2747199 35.0191986,24.2309897 35.0287979,24.1840598 C35.0191986,24.1371299 35,24.0933998 35,24.0432702 L35,19.7395858 C35,19.3673464 35.3018445,19.0655019 35.6751505,19.0655019 C36.0484564,19.0655019 36.350301,19.3673464 36.350301,19.7395858 L36.350301,23.649699 L51.3604002,23.649699 L51.3604002,19.7395858 C51.3604002,19.3673464 51.6633114,19.0655019 52.0355507,19.0655019 C52.4088567,19.0655019 52.7096346,19.3673464 52.7096346,19.7395858 Z M43.8972675,21.8342588 C43.5239616,21.8342588 43.2231836,21.5324143 43.2231836,21.1591083 L43.2231836,11.3038311 L40.2847325,14.2422822 C40.1524755,14.3734726 39.9807547,14.4396011 39.8079674,14.4396011 C39.6351801,14.4396011 39.4623928,14.3734726 39.3301358,14.2422822 C39.067755,13.9788349 39.067755,13.5521995 39.3301358,13.2887522 L43.4205025,9.19838545 C43.6839498,8.93387152 44.1116518,8.93387152 44.3740326,9.19838545 L48.4643993,13.2887522 C48.7289132,13.5521995 48.7289132,13.9788349 48.4643993,14.2422822 C48.3332089,14.3734726 48.1604216,14.4396011 47.9876342,14.4396011 C47.8148469,14.4396011 47.6420596,14.3734726 47.5098026,14.2422822 L44.572418,11.3038311 L44.572418,21.1591083 C44.572418,21.5324143 44.2705735,21.8342588 43.8972675,21.8342588 Z" id="Combined-Shape"></path> </g> </g> </g> </g></svg>