<?xml version="1.0" encoding="utf-8"?><!-- Generator: Adobe Illustrator 21.0.2, SVG Export Plug-In . SVG Version: 6.00 Build 0) --><svg version="1.1" id="Layer_1" xmlns="http://www.w3.org/2000/svg" xmlns:xlink="http://www.w3.org/1999/xlink" x="0px" y="0px" viewBox="0 0 846.2 722.9" enable-background="new 0 0 846.2 722.9" xml:space="preserve"><g><g><path fill="#FFCE4F" d="M538,192c-4-4.4-9.8-7.4-16.2-8.5v-10.7h2.5v-4.3H392.4v4.3h2.3v10.6c-6.6,1.1-12.5,4.1-16.7,8.6c-4.3,4.7-6.2,10.4-5.4,16.1l1,6.3c1.5,9.9,10.7,17.1,21.1,17.2c0.8,32.7,27.7,58.2,62,58.2h1.9c34.3,0,62.3-26,63.1-58.2c10.3-0.3,19.1-7.4,20.6-17.2l1-6.3C544.3,202.4,542.3,196.7,538,192z M377.8,213.7l-1-6.3c-0.7-4.3,0.9-8.8,4.3-12.5s8.1-6.2,13.5-7.2v39.6C386.3,227.2,379,221.6,377.8,213.7z M539.2,207.4l-1,6.3c-1.2,7.7-8.2,13.2-16.4,13.6v-39.5c5.2,1.1,9.8,3.5,13.1,7.1C538.3,198.6,539.8,203.1,539.2,207.4z"/><g><g><path fill="#FFCE4F" d="M500.5,369h-79.2v-3.2c0-6.1,5-11.1,11.1-11.1c3.7,0,6.6-3,6.6-6.6v-22.6h43.7v22.6c0,3.7,3,6.6,6.6,6.6c6.1,0,11.1,5,11.1,11.1L500.5,369L500.5,369z"/></g></g><g><g><path fill="#D3A133" d="M478.4,255.8L458,245l-20.4,10.7l3.9-22.7L425,217l22.8-3.3L458,193l10.2,20.7L491,217l-16.5,16L478.4,255.8z M434.2,219.9l11.9,11.6l-2.8,16.4l14.7-7.7l14.7,7.7l-2.8-16.4l11.9-11.6l-16.5-2.4l-7.4-14.9l-7.4,14.9L434.2,219.9z"/></g></g><g><g><rect x="453.7" y="288.5" fill="#FFCE4F" width="4.3" height="31.8"/></g></g><g><g><rect x="462" y="297.4" fill="#FFCE4F" width="4.3" height="31.8"/></g></g><g><polygon fill="#D3A133" points="482.2,355.2 439.4,355.2 440.5,353.1 480.9,353.1 "/></g></g><g><g><linearGradient id="SVGID_1_" gradientUnits="userSpaceOnUse" x1="392.1" y1="109.3939" x2="392.1" y2="30.7584" gradientTransform="matrix(1 0 0 -1 0 722)"><stop offset="0" style="stop-color:#4F5B7E"/><stop offset="7.132825e-02" style="stop-color:#66718F"/><stop offset="0.2311" style="stop-color:#949CB1"/><stop offset="0.3913" style="stop-color:#BBBFCD"/><stop offset="0.5492" style="stop-color:#D9DBE3"/><stop offset="0.7041" style="stop-color:#EEEFF2"/><stop offset="0.8549" style="stop-color:#FBFBFC"/><stop offset="0.9965" style="stop-color:#FFFFFF"/></linearGradient><polygon fill="url(#SVGID_1_)" points="540.3,700 178,700 243.9,619.2 606.2,619.2 "/></g><g><rect x="245.8" y="601" fill="#B62737" width="360.4" height="18.2"/><rect x="264.1" y="526.5" fill="#38B8D2" width="296.5" height="38.9"/><rect x="245.8" y="367.8" fill="#38B8D2" width="302.2" height="31.1"/><rect x="319.7" y="469.6" fill="#B62737" width="276.6" height="56.9"/><rect x="319.7" y="475.2" fill="#E5E5E5" width="276.6" height="45.6"/><rect x="319.7" y="475.2" fill="#CBC9CA" width="276.6" height="12"/><g><rect x="242.7" y="424.7" fill="#335FA8" width="301.3" height="44.9"/><rect x="242.7" y="429.2" fill="#E5E5E5" width="301.3" height="35.9"/><rect x="242.7" y="429.2" fill="#CBC9CA" width="301.3" height="9.4"/></g><g><rect x="229.8" y="565.4" fill="#335FA8" width="352.5" height="35.7"/><rect x="375.7" y="568.9" fill="#E5E5E5" width="206.6" height="28.6"/><rect x="375.7" y="568.9" fill="#CBC9CA" width="206.6" height="7.5"/></g><g><rect x="298.4" y="398.9" fill="#EA8FB0" width="319.2" height="25.7"/><rect x="298.4" y="401.4" fill="#E5E5E5" width="319.2" height="20.6"/><rect x="298.4" y="401.4" fill="#CBC9CA" width="249.6" height="5.4"/><rect x="503.7" y="401.4" fill="#CBC9CA" width="113.9" height="20.6"/></g></g></g><g><g><linearGradient id="SVGID_2_" gradientUnits="userSpaceOnUse" x1="96.55" y1="140.4518" x2="96.55" y2="61.8163" gradientTransform="matrix(1 0 0 -1 0 722)"><stop offset="0" style="stop-color:#4F5B7E"/><stop offset="7.132825e-02" style="stop-color:#66718F"/><stop offset="0.2311" style="stop-color:#949CB1"/><stop offset="0.3913" style="stop-color:#BBBFCD"/><stop offset="0.5492" style="stop-color:#D9DBE3"/><stop offset="0.7041" style="stop-color:#EEEFF2"/><stop offset="0.8549" style="stop-color:#FBFBFC"/><stop offset="0.9965" style="stop-color:#FFFFFF"/></linearGradient><polygon fill="url(#SVGID_2_)" points="127.2,668.9 0,668.9 65.9,588.1 193.1,588.1 "/></g><g><polygon fill="#3862AD" points="177.3,390.5 165.5,578 152.5,578 138.8,411.6 129.6,424.9 104.5,582.6 94.5,582.3 97.5,393.8 95.2,361 177,362.1 "/><path fill="#E5CAB7" d="M112.6,226.8c-3.2,11.7,1.9,30.5,13.6,33.7s25.7-10.4,28.9-22.1c3.2-11.7-3.7-23.8-15.4-27C127.9,208.2,115.8,215.1,112.6,226.8z"/><path fill="#2B159B" d="M128.2,220.1c-2.4-0.7-5.8-2.3-7-4.6c-0.1-0.2-0.2-0.4-0.2-0.6c5.2-3.8,12-5.3,18.6-3.5c11.7,3.2,18.6,15.3,15.4,27c-2.3,8.4-10.1,17.7-18.6,21.1c0.2-2.4,0.7-4.7,1.3-7c2.4-9.3,5.1-18.5,8.1-27.6C139.9,223.8,134,222.2,128.2,220.1z"/><path fill="#E5CAB7" d="M141.9,238c1.6-1.2,3.8-1.7,5.6-0.9c0.4,0.2,0.8,0.4,1.1,0.7c0.9,0.9,1.1,2.2,1,3.4c-0.3,3.4-3.1,6.3-6.4,7.3c-0.9,0.3-1.9,0.4-2.9,0.3c-1-0.1-1.9-0.6-2.4-1.4C135.9,244.5,139.6,239.6,141.9,238z"/><path fill="#3862AD" d="M165.5,575.3l21.4,2.4c3.9,0.4,6.6,8,6.1,11.9l0,0h-41.8l1.3-14.3L165.5,575.3L165.5,575.3z"/><path fill="#3862AD" d="M104.5,577.1v11.7l-39.2,0.5v1c0-5.8,4.5-11.6,10.3-12l18.9-1.4L104.5,577.1z"/><g opacity="0.4"><polygon fill="#AFC6F5" points="180.7,184.2 197.8,184.2 207.8,142.5 196,140.8 "/><polygon fill="#AFC6F5" points="82.2,139.1 70.3,140.8 75.4,184.2 92.1,184.2 "/></g><circle fill="#E5CAB7" cx="74.7" cy="134.1" r="10.2"/><circle fill="#E5CAB7" cx="197.8" cy="136.9" r="10.2"/><g><path fill="#D8D8D8" d="M110.7,0l108.6,6c0,0,4.9-0.3,8.7,6.5c2.4,4.3,1.5,12.2,1.5,12.2l-107.7-5.9c0,0-0.3-8.3-2-11.1C115.5,1,110.7,0,110.7,0z"/><path fill="#EBEBEB" d="M186.2,149.3l-102-5.6l1.5-27l5.1-92c0,0,0.3-5.9,0.6-10.8c0.9-15.6,22.9-13.7,22.9-13.7L219.8,6c-6.1-0.3-11.8,6-13.3,11.6c-0.8,2.9-1.1,12-1.1,12l-5.2,94.2c0,0-0.7,11-1.3,14.1C196.5,150.3,186.2,149.3,186.2,149.3z"/><polygon fill="#BF282E" points="182.7,148.8 159,140.7 160.5,113.6 184.6,114.9 "/><path fill="#D8D8D8" d="M185.2,149.2l-102.5-5.6c0,0-5.3-0.7-8.7-7.5c-2.2-4.4-0.8-13.1-0.8-13.1l101,5.6c0,0-1.2,7.9,1.4,12.2C179.8,147.4,185.2,149.2,185.2,149.2z"/><path fill="#037EC1" d="M180.3,41.6L114,37.9c-1.7-0.1-2.9-1.5-2.8-3.2s1.5-2.9,3.2-2.8l66.3,3.6c1.7,0.1,2.9,1.5,2.8,3.2C183.4,40.4,182,41.7,180.3,41.6z"/><path fill="#037EC1" d="M178.7,70.2l-66.3-3.6c-1.7-0.1-2.9-1.5-2.8-3.2s1.5-2.9,3.2-2.8l66.3,3.6c1.7,0.1,2.9,1.5,2.8,3.2C181.8,69,180.4,70.3,178.7,70.2z"/><path fill="#037EC1" d="M141,96.4l-30.1-1.7c-1.7-0.1-2.9-1.5-2.8-3.2s1.5-2.9,3.2-2.8l30.1,1.7c1.7,0.1,2.9,1.5,2.8,3.2C144.1,95.2,142.7,96.5,141,96.4z"/><path fill="#DE2D48" d="M168.7,128.1c0,0-5.1,1.8-5.6,10.5s-0.8,14.7-0.8,14.7l-10-4.8l-10.7,3.7c0,0,0.6-11,0.9-16.7c0.3-5.7,3.8-8.6,4.9-8.5C148.4,127,168.7,128.1,168.7,128.1z"/><path fill="#DE2D48" d="M194.1,104c-1-1.8-0.9-4.1,0.3-5.8c2-2.7,1-6.6-2.1-8c-1.9-0.9-3.1-2.8-3.1-4.9c0-3.4-3.1-5.9-6.4-5.2c-1.9,0.4-4.1-0.3-5.4-2.1c-2-2.7-6-3-8.2-0.5c-1.4,1.6-3.6,2.1-5.6,1.5c-3.1-1-6.6,1-6.9,4.5c-0.2,2.1-1.7,3.8-3.6,4.5c-3.2,1-4.7,4.8-3,7.7c1,1.8,0.9,4.1-0.3,5.8c-2,2.7-1,6.6,2.1,8c1.9,0.9,3.1,2.8,3.1,4.9c0,3.4,3.1,5.9,6.4,5.2c2.2-0.4,4.2,0.5,5.4,2.1c2,2.7,6,3,8.2,0.5c2.6-2.9,5.6-1.3,7-1.2c2.7,0.1,5.2-1.9,5.6-4.7c0.2-2.1,1.7-3.8,3.6-4.5C194.4,110.7,195.8,107,194.1,104z"/><ellipse transform="matrix(5.488784e-02 -0.9985 0.9985 5.488784e-02 62.6515 266.2963)" fill="#EB6D59" cx="172" cy="100.1" rx="19.8" ry="19.8"/><path fill="#BF282E" d="M171.4,113.7c-7.6-0.4-13.4-6.9-13-14.5s6.9-13.4,14.5-13s13.4,6.9,13,14.5C185.5,108.3,179,114.1,171.4,113.7z M172.6,92.3c-4.2-0.2-7.8,3-8,7.2s3,7.8,7.2,8s7.8-3,8-7.2C180,96.2,176.7,92.6,172.6,92.3z"/></g><path fill="#00A784" d="M207.8,142.5l-11.9-1.7l-44.1,125.7l-9-0.7c-1.9,4.5-6.3,7.8-11.5,7.8c-5.9,0-10.9-4.1-12.1-9.6l-9.7-0.8l-27.2-124l-11.9,1.7l15.3,130.7l9.7,92.1c1.2,12.7,12.2,22.2,24.9,21.7l33.8-1.4c13-0.6,23.2-11.3,23-24.3l-1.3-82.9L207.8,142.5z"/></g></g><g><g><path fill="#FFE9D8" d="M610.2,290l-25.6-21.4c0.7-2.6,0.2-5.4-1.7-7.6c-3-3.4-8.2-3.8-11.6-0.8s-3.8,8.2-0.8,11.6c2.2,2.6,5.7,3.4,8.7,2.5l21.6,26L610.2,290z"/><polygon fill="#F4F4F4" points="607.6,287.8 638.6,309 671.9,317.1 702.9,327.2 674.9,357.8 626.7,325.5 599.7,298.8 "/><linearGradient id="SVGID_3_" gradientUnits="userSpaceOnUse" x1="332.6041" y1="-844.9188" x2="328.4035" y2="-865.2216" gradientTransform="matrix(0.8699 0.4932 0.4932 -0.8699 778.8322 -588.1476)"><stop offset="8.653847e-03" style="stop-color:#000000"/><stop offset="0.9559" style="stop-color:#000000;stop-opacity:0"/></linearGradient><polygon opacity="0.1" fill="url(#SVGID_3_)" enable-background="new " points="607.6,287.8 638.6,309 671.9,317.1 693.3,324.1 680.2,351.2 626.7,325.5 599.7,298.8 "/></g><path fill="#FFE9D8" d="M604,313l-44-21.2c0-2.1-0.8-4.3-2.4-5.9c-3.2-3.2-8.4-3.2-11.6,0.1c-3.2,3.2-3.2,8.4,0.1,11.6c2,2,4.9,2.7,7.5,2.2l43.1,29L604,313z"/><g><linearGradient id="SVGID_4_" gradientUnits="userSpaceOnUse" x1="688.55" y1="112.8696" x2="688.55" y2="34.234" gradientTransform="matrix(1 0 0 -1 0 722)"><stop offset="0" style="stop-color:#4F5B7E"/><stop offset="7.132825e-02" style="stop-color:#66718F"/><stop offset="0.2311" style="stop-color:#949CB1"/><stop offset="0.3913" style="stop-color:#BBBFCD"/><stop offset="0.5492" style="stop-color:#D9DBE3"/><stop offset="0.7041" style="stop-color:#EEEFF2"/><stop offset="0.8549" style="stop-color:#FBFBFC"/><stop offset="0.9965" style="stop-color:#FFFFFF"/></linearGradient><polygon fill="url(#SVGID_4_)" points="714.8,696.5 596.4,696.5 662.3,615.7 780.7,615.7 "/></g><linearGradient id="SVGID_5_" gradientUnits="userSpaceOnUse" x1="-2695.3511" y1="285.6042" x2="-2701.3447" y2="181.1438" gradientTransform="matrix(1 0 0 -1 3381.0771 722)"><stop offset="3.252340e-03" style="stop-color:#241084"/><stop offset="0.9896" style="stop-color:#0A5DE2"/></linearGradient><path fill="url(#SVGID_5_)" d="M708.1,401.2L696.8,516l7.2,98.8l-42.5,2.2l0,0c-1.4-4.8,1.8-9.8,6.7-10.6l15.3-2.6l-11.7-87.3L659,405.3L708.1,401.2z"/><path fill="#3878FF" d="M721.1,399.9l14,104.6l57.7,71.8c1.3,1.6,1.5,3.7,0.7,5.6l-14.7,33h-7c-5.9,0-8.4-7.5-3.7-11.1l0,0l5.4-20.3l-56.7-58.7c-1.3-1.4-2.4-3-3.1-4.8l-45.4-117L721.1,399.9z"/><path fill="#FFE9D8" d="M711.2,278.7c2.7,13.2,2.8,33.5-17,36.6c-19.7,3.2-31.6-9.3-34.5-22.5s2-30.2,22.4-32.8C695.4,258.3,709,268.1,711.2,278.7z"/><path fill="#F7F5EF" d="M582.9,311l6.7-4.7c9.6,4.5,20.6,9.5,33,13.4l49.2-2.7l31,10.2l25.9,87c1.4,5.2-7.6,13-13,13.5l-47.3,4.5c-5,0.5-9.4-3.4-9.5-8.5l-3.6-74.2l-40.9-7.7c-13.5-9-24.6-15.7-31.5-21.7L582.9,311L582.9,311z"/><path fill="#1F1F89" d="M717,279.9c0-2.5-1.6-4.7-3.8-5.5c0.2-0.8,0.3-1.6,0.3-2.5c0-5-4-9-9-9c-0.4,0-0.8,0-1.2,0.1c0-0.2,0-0.4,0-0.7c0-4.1-3.3-7.4-7.4-7.4c-2,0-3.8,0.8-5.1,2c-1.5-2.5-4.2-4.3-7.4-4.3c-4.7,0-8.5,3.8-8.5,8.5c0,4,2.8,7.4,6.6,8.3c2.8,5.2,7.8,9.3,13.4,11c0,0,4.1,29.6,2,33.9c13.7-3.7,19.1-16.5,17.7-29.8C716,283.6,717,281.9,717,279.9z"/><path fill="#FFE9D8" d="M695.9,284.8c2-0.3,4.1,0.2,5.9,1.2c5.7,3.1,3.7,11.7-1.3,14.5c-1.6,0.9-3.5,1.3-5.3,1.5c-1.6,0.2-3.3,0.1-4.7-0.7c-1.3-0.8-2.2-2.3-2.5-3.8s-0.1-3.1,0.2-4.6C689,289.2,692.3,285.3,695.9,284.8z"/></g></g></svg>