<?xml version="1.0" encoding="utf-8"?><!-- Generator: Adobe Illustrator 21.0.2, SVG Export Plug-In . SVG Version: 6.00 Build 0) --><svg version="1.1" id="Layer_1" xmlns="http://www.w3.org/2000/svg" xmlns:xlink="http://www.w3.org/1999/xlink" x="0px" y="0px" viewBox="0 0 1034.2 1106.2" enable-background="new 0 0 1034.2 1106.2" xml:space="preserve"><g><g><linearGradient id="SVGID_1_" gradientUnits="userSpaceOnUse" x1="431.6" y1="334.4023" x2="431.6" y2="281.2023" gradientTransform="matrix(1 0 0 -1 0 1106)"><stop offset="0" style="stop-color:#4F5B7E"/><stop offset="7.132825e-02" style="stop-color:#66718F"/><stop offset="0.2311" style="stop-color:#949CB1"/><stop offset="0.3913" style="stop-color:#BBBFCD"/><stop offset="0.5492" style="stop-color:#D9DBE3"/><stop offset="0.7041" style="stop-color:#EEEFF2"/><stop offset="0.8549" style="stop-color:#FBFBFC"/><stop offset="0.9965" style="stop-color:#FFFFFF"/></linearGradient><polygon fill="url(#SVGID_1_)" points="707,830.7 111.6,830.7 156.1,776.1 751.6,776.1 "/></g><g><path fill="#1F1F89" d="M857.6,671.6l-103,102.6c-7.4,6.6-21.3,12-31.2,12L161,779.7c-9.8,0-11.8-5.4-4.5-12L264.3,671c7.4-6.6,21.3-12,31.2-12l557.6,0.5C863,659.6,865,665,857.6,671.6z"/><g><path fill="#FFFFFF" d="M855.2,666.3l-103,101.5c-7.4,6.5-21.3,11.8-31.2,11.8l-558.3-6.5c-9.8,0-11.8-5.3-4.5-11.9l107.7-95.6c7.4-6.5,21.3-11.8,31.2-11.8l553.6,0.5C860.6,654.5,862.6,659.8,855.2,666.3z"/><path fill="#3878FF" d="M849,666.6l-103.1,101c-5,4.5-14.4,8.1-21,8.1L169.8,770c-6.6,0-8-3.6-3-8.1L274.6,666c5-4.5,14.4-8.1,21-8.1l550.4,0.5C852.6,658.6,853.9,662.2,849,666.6z"/><path fill="#1F1F89" d="M267.5,663.2l-18.2,16.4l-77.6,69.6l-18.2,16.4c-5.6,5.1,0.2,9.2,13.1,9.2l551.3,6.5c12.9,0,27.9-4.1,33.5-9.1l109.4-108.3c5.6-5.1-0.2-9.2-13.1-9.2L301,654.1C288.1,654.1,273.1,658.2,267.5,663.2z M846,656.1c10.8,0,15.8,3.5,11.1,7.7L747.7,772.1c-4.7,4.2-17.4,7.7-28.2,7.7l-551.3-6.5c-10.8,0-15.8-3.5-11.1-7.7l19-17l7.9-1.1c7.7-1.1,14.7-3.6,17.8-6.4l59.3-53.2c3.1-2.8,1.7-5.3-3.5-6.4l-5.4-1.2l19-17c4.7-4.2,17.4-7.7,28.2-7.7L846,656.1z"/><path fill="#FFFFFF" d="M813.7,695.4l-42.8,39.1c-1.4,1.3-4.1,2.3-6,2.3h-2.1c-1.9,0-2.3-1-0.9-2.3l42.8-39.1c1.4-1.3,4.1-2.3,6-2.3h2.1C814.7,693.1,815.1,694.1,813.7,695.4z"/></g></g><g><path fill="#1F1F89" d="M772,478.6h48.5L835,498l14.8-19.4h164.5c6,0,10.8-4.8,10.8-10.8V366c0-6-4.8-10.8-10.8-10.8H772c-6,0-10.8,4.8-10.8,10.8v101.8C761.2,473.8,766,478.6,772,478.6z"/><g><rect x="792.1" y="383" fill="#FCD923" width="202.1" height="4"/><rect x="792.1" y="400.1" fill="#FCD923" width="202.1" height="4"/><rect x="792.1" y="417.2" fill="#FCD923" width="202.1" height="4"/><rect x="792.1" y="434.3" fill="#FCD923" width="202.1" height="4"/><rect x="792.1" y="451.4" fill="#FCD923" width="132.9" height="4"/></g></g><g><g><linearGradient id="SVGID_2_" gradientUnits="userSpaceOnUse" x1="800.4" y1="290.0234" x2="800.4" y2="130.3149" gradientTransform="matrix(1 0 0 -1 0 1106)"><stop offset="0" style="stop-color:#4F5B7E"/><stop offset="7.132825e-02" style="stop-color:#66718F"/><stop offset="0.2311" style="stop-color:#949CB1"/><stop offset="0.3913" style="stop-color:#BBBFCD"/><stop offset="0.5492" style="stop-color:#D9DBE3"/><stop offset="0.7041" style="stop-color:#EEEFF2"/><stop offset="0.8549" style="stop-color:#FBFBFC"/><stop offset="0.9965" style="stop-color:#FFFFFF"/></linearGradient><polygon fill="url(#SVGID_2_)" points="824.8,993.5 627.3,993.5 776,829.4 973.5,829.4 "/></g><g><path fill="#4D4D4D" d="M807.4,768.3l-60.3,31.9l-6.9,19.8l19.4,18.4l125.7,5.4l15.9,17.1c0,0,6.9,7.9,14.4,5.7l-12-39.6l-17.9,0.4l-85.9-16l43.4-10.1l62.9-19.1L807.4,768.3z"/><path fill="#4D4D4D" d="M907.4,768.3l60.3,31.9l5.2,14.9c1.1,3,0.2,6.4-2.1,8.6l-15.6,14.8l-119.5,23.9l-17.1,9.8c0,0-12.1,9.6-17.9,2.1l25.3-28.4l9.7,1.9l79.4-36.3l-41.5-9.7l-35.2,0.7L907.4,768.3z"/><path fill="#F76D59" d="M908.2,767.8l-5.4-26.8l-3.8-37.1l0.8,20.1l-11.4-9.9l-13.1,9.8l27.2,29.2l11.7,1.1l9.2-14.9L906.7,660l-31-13.2c0,0-10.4,3.5-21.3,3.5c-10.9,0-20.2-3.5-20.2-3.5l-27.7,14.4l-29.9,75.4l0.5,21.5l14,0.8l13.6-8.5l-1.5-11.9l9.8-31.9l-1.8,38.6l-5.3,20.8c-1.2,7.1,3.4,13.9,10.4,15.5l81.6-0.6C905.2,782.3,908.9,775.1,908.2,767.8z"/><g><circle fill="#F9EAC5" cx="855.9" cy="606.7" r="37.2"/><path fill="#1F1F89" d="M863.2,613.8c-11.7,4.3-36.4,7.2-45.2-2.8c-5.3-16.7,2.8-38,17.5-44.6c12.1-5.4,38.8-5,47.6,6.6C890.1,582.2,880.7,607.4,863.2,613.8z"/><path fill="#1F1F89" d="M871.2,608.8c0,0-1.7,8,8.2,9.5c1.6-6,5.8-6.3,8.3-4.7c2.5,1.5,3.9,6.1,0.7,9.4c0,0-0.9,1.8,2,0.9c0,0,8.8-10.6,6-27.4c-2.9-17.1-14.8-17.1-14.8-17.1L871.2,608.8z"/></g><linearGradient id="SVGID_3_" gradientUnits="userSpaceOnUse" x1="866.1308" y1="259.7729" x2="834.5885" y2="272.0328" gradientTransform="matrix(1 0 0 -1 0 1106)"><stop offset="0" style="stop-color:#000000;stop-opacity:0.8"/><stop offset="0.9922" style="stop-color:#000000;stop-opacity:0"/></linearGradient><polygon fill="url(#SVGID_3_)" points="847.8,842.2 881.8,826.6 844,819.6 782.4,839.4 "/><linearGradient id="SVGID_4_" gradientUnits="userSpaceOnUse" x1="899.166" y1="260.0011" x2="905.1174" y2="249.2887" gradientTransform="matrix(1 0 0 -1 0 1106)"><stop offset="0" style="stop-color:#000000;stop-opacity:0.8"/><stop offset="0.9922" style="stop-color:#000000;stop-opacity:0"/></linearGradient><path fill="url(#SVGID_4_)" d="M892.1,851.1l17.8-3.6l5.8,19.1c0,0-6.6,2-13.2-4.5C896.4,856.1,892.7,851.1,892.1,851.1z"/><linearGradient id="SVGID_5_" gradientUnits="userSpaceOnUse" x1="815.5026" y1="383.6271" x2="804.8413" y2="393.6612" gradientTransform="matrix(1 0 0 -1 0 1106)"><stop offset="0" style="stop-color:#000000"/><stop offset="1" style="stop-color:#000000;stop-opacity:0"/></linearGradient><polygon opacity="0.3" fill="url(#SVGID_5_)" enable-background="new " points="807.5,725.1 786.3,736.5 813.1,678.5 813.1,706.5 "/><linearGradient id="SVGID_6_" gradientUnits="userSpaceOnUse" x1="890.7165" y1="387.9166" x2="907.3071" y2="396.85" gradientTransform="matrix(1 0 0 -1 0 1106)"><stop offset="0" style="stop-color:#000000"/><stop offset="1" style="stop-color:#000000;stop-opacity:0"/></linearGradient><polygon opacity="0.3" fill="url(#SVGID_6_)" enable-background="new " points="900.3,723.2 913.1,733.3 900.4,685.6 897.2,699.7 "/><linearGradient id="SVGID_7_" gradientUnits="userSpaceOnUse" x1="893.4254" y1="369.4811" x2="877.8929" y2="359.5532" gradientTransform="matrix(1 0 0 -1 0 1106)"><stop offset="0" style="stop-color:#000000"/><stop offset="1" style="stop-color:#000000;stop-opacity:0"/></linearGradient><path opacity="0.3" fill="url(#SVGID_7_)" enable-background="new " d="M860.3,708.6l24.5,72.2h13.1c6.6,0,11.6-6.1,10.3-12.6l-2.9-14.9l-2.7-0.3L860.3,708.6z"/><g><path fill="#F9EAC5" d="M864.1,687.5c-5.4-3.2-12.4-1.3-15.6,4.1c-3.2,5.4-1.3,12.4,4.1,15.6c2.4,1.4,5.1,1.8,7.6,1.4l20.7,20.9l13.1-10.9l-24.4-19.8C870.3,694.4,868.2,689.9,864.1,687.5z"/><g><path fill="#333333" d="M856,720.6l-17.2-0.4c-1.3,0-2.5-1.1-2.7-2.4l-5.4-39.3c-0.2-1.3,0.7-2.4,2.1-2.3l17.2,0.4c1.3,0,2.5,1.1,2.7,2.4l5.4,39.3C858.2,719.6,857.3,720.6,856,720.6z"/><g><path fill="#666666" d="M834.2,683.9L834.2,683.9c-0.7,0-1.2-0.5-1.3-1.1l-0.5-4c-0.1-0.6,0.3-1,0.9-1h0.1c0.6,0,1.1,0.5,1.2,1.1l0.5,4C835.2,683.4,834.8,683.9,834.2,683.9z"/><path fill="#333333" d="M834,679.3c0,0.3-0.2,0.5-0.4,0.5c-0.3,0-0.5-0.2-0.6-0.5s0.2-0.5,0.4-0.5C833.7,678.8,834,679,834,679.3z"/><ellipse transform="matrix(0.6611 -0.7503 0.7503 0.6611 -228.3361 856.3163)" fill="#CCCCCC" cx="833.7" cy="680.9" rx="0.5" ry="0.5"/><ellipse transform="matrix(0.6611 -0.7503 0.7503 0.6611 -229.4768 857.0188)" fill="#333333" cx="833.9" cy="682.5" rx="0.5" ry="0.5"/></g><path fill="#666666" d="M845.9,689.9c0.2,1.5-0.8,2.6-2.3,2.6s-2.8-1.2-3-2.7s0.8-2.6,2.3-2.6S845.7,688.4,845.9,689.9z"/></g><path fill="#F9EAC5" d="M836.7,702.6c5.9-2.2,12.4,0.7,14.7,6.6c2.2,5.9-0.7,12.4-6.6,14.7c-2.6,1-5.3,1-7.7,0.1L804,750.9l-7.6-19.6l33-18.5C829.6,708.4,832.3,704.3,836.7,702.6z"/></g></g></g><g><g><g><linearGradient id="SVGID_8_" gradientUnits="userSpaceOnUse" x1="104.1" y1="302.0952" x2="104.1" y2="198.3461" gradientTransform="matrix(1 0 0 -1 0 1106)"><stop offset="0" style="stop-color:#4F5B7E"/><stop offset="7.132825e-02" style="stop-color:#66718F"/><stop offset="0.2311" style="stop-color:#949CB1"/><stop offset="0.3913" style="stop-color:#BBBFCD"/><stop offset="0.5492" style="stop-color:#D9DBE3"/><stop offset="0.7041" style="stop-color:#EEEFF2"/><stop offset="0.8549" style="stop-color:#FBFBFC"/><stop offset="0.9965" style="stop-color:#FFFFFF"/></linearGradient><polygon fill="url(#SVGID_8_)" points="131.3,919.2 0,919.2 92.5,812.6 208.2,832.7 "/></g><g><g><path fill="#0A5DE2" d="M129.5,580.1l75.1-0.8l2.1,148.6l-20.2,89c10.1-1.6,21,2.1,23,7.1l-1.3,8.6l-37.2-3.2L181.4,728l-11.5-58.8l-4.6,56.5l-47.7,62.8l-1.4,24.1c-0.5,2.8-7.5,4.3-10.3,3.9l0,0c-2.5-0.4-10.3-5.5-10.3-8.1l8.5-27l37.1-57.8l-18.9-92.4L129.5,580.1z"/><linearGradient id="SVGID_9_" gradientUnits="userSpaceOnUse" x1="10329.6396" y1="64.1466" x2="10282.3203" y2="-54.1521" gradientTransform="matrix(-0.9988 -4.851786e-02 4.851786e-02 -0.9988 10497.5176 1189.6025)"><stop offset="0" style="stop-color:#241084;stop-opacity:0.8"/><stop offset="0.9896" style="stop-color:#0A5DE2;stop-opacity:0"/></linearGradient><path fill="url(#SVGID_9_)" d="M180.3,722.3l-10.4-52.2l8.6-89.9l26.2-0.9l1.5,118.7C194.8,703.4,188.4,718.7,180.3,722.3z"/></g><path fill="#F76D59" d="M126,622.9l5.1-61.5l-3.7-30.3l-18.3,33.6l11.3,20.8l-13.1,11.9l-19.5-31l32.4-71.9l28.2-11l42.9,3.4l12.3,8.4l15.3,62.6l8.9-8.6l10,13.5L222.7,580l-11,2.4l-9.1-18.6l8.9,51.6c1,5.8-2.8,11.3-8.5,12.6l-66.7,4.1C130.8,633.5,125.4,628.8,126,622.9z"/><circle fill="#F9EAC5" cx="171.3" cy="448.4" r="30.3"/><path fill="#1F1F89" d="M160.2,446.4c-0.6,0.3-1.3,0.6-1.9,0.3c-0.6-0.2-0.9-0.9-1.3-1.4c-1.6-2.1-5-2-6.9-0.2c-1.8,1.8-2,4.9-0.7,7.2c1.3,2.3,3.8,3.7,6.3,4c1.7,6,2.4,12.3,2,18.5c-4.2,0.3-16.7-4.8-18.1-24.4c-0.5-7.1,0-15.3,5.7-22.3c5.4-6.6,21.3-16.5,30.1-9.7C185.1,425.8,166.9,443.2,160.2,446.4z"/><path fill="#1F1F89" d="M185.3,436c5.1,5,11.8,8.9,19,9.2c0.3-8-3.2-16.1-9.3-21.3c-3.4-2.9-14.9-9.4-19.6-6.3C170.4,420.8,181.8,432.6,185.3,436z"/><polygon fill="#F7F5EF" points="156.6,484.1 171.2,509.9 178.5,485.8 "/><path fill="#F9EAC5" d="M227.1,550.4l18.5-22.1c-1.2-2.5-1.4-5.4-0.4-8.1c2-5.5,8-8.4,13.5-6.4c5.5,2,8.4,8,6.4,13.5c-1.4,3.8-4.7,6.4-8.5,6.9L238,562.9L227.1,550.4z"/><path fill="#F9EAC5" d="M151.1,629.9c2.1,5.5-0.7,11.6-6.2,13.7c-5.5,2.1-11.6-0.7-13.7-6.2c-0.9-2.4-0.9-5-0.1-7.2l-23.8-32.8l13.1-11.9l21.3,37.6C145.8,623.2,149.6,625.8,151.1,629.9z"/><path fill="#0A5DE2" d="M147.2,632.4c0,0-2.3,7.3-17.6,4.3l4.5,12.9h18.8v-17.2H147.2z"/><circle fill="#1F1F89" cx="159.1" cy="406.4" r="14.8"/><linearGradient id="SVGID_10_" gradientUnits="userSpaceOnUse" x1="10228.5488" y1="541.8934" x2="10216.0869" y2="545.0088" gradientTransform="matrix(-1 0 0 -1 10426.6719 1106)"><stop offset="0" style="stop-color:#000000"/><stop offset="1" style="stop-color:#000000;stop-opacity:0"/></linearGradient><polygon opacity="0.15" fill="url(#SVGID_10_)" enable-background="new " points="202.8,563.9 202.8,541.1 214.7,540.3 219.1,557.9 211.9,582.5 "/><polygon fill="#333333" points="233.5,539.3 270.6,501.7 267.5,498.5 230.3,536.2 "/></g></g><g><path fill="#1F1F89" d="M328.8,327.3H194l-21.1,24.8l-22.1-24.8H26.1c-6.3,0-11.4-5.1-11.4-11.4v-94c0-6.3,5.1-11.4,11.4-11.4h302.8c6.3,0,11.4,5.1,11.4,11.4v94C340.2,322.2,335.1,327.3,328.8,327.3z"/><circle fill="#FCD923" cx="54.4" cy="260" r="22.2"/><g><rect x="96.5" y="244.6" fill="#FFFFFF" width="164.4" height="5.8"/><rect x="96.5" y="263" fill="#FFFFFF" width="217.8" height="5.2"/><rect x="96.5" y="279.7" fill="#FFFFFF" width="217.8" height="5.2"/><rect x="96.5" y="296.3" fill="#FFFFFF" width="217.8" height="5.2"/></g></g></g><g><g><circle fill="#3878FF" cx="420.8" cy="148.5" r="49.5"/><path fill="#FFFFFF" d="M430,131.7c-3.9,0-7.3,2-9.2,5c-1.9-3-5.3-5-9.2-5c-6,0-10.9,4.9-10.9,10.9c0,3.1,1.3,5.8,3.3,7.8l0,0l16.8,16.8l16.5-16.5c2.2-2,3.6-4.9,3.6-8.2C440.9,136.6,436,131.7,430,131.7z"/></g><g><circle fill="#F76D59" cx="519.7" cy="49.5" r="49.5"/><path fill="#FFFFFF" d="M509,66.8V32.2c0-2.8,3.1-4.4,5.4-2.8l25.5,17.3c2,1.4,2,4.3,0,5.7l-25.5,17.3C512.1,71.2,509,69.6,509,66.8z"/></g><g><circle fill="#1F1F89" cx="618.7" cy="148.5" r="49.5"/><path fill="#FFFFFF" d="M639.1,126.4c-0.2-0.2-0.4-0.2-0.6-0.2l-25.1,3.2c-0.4,0.1-0.7,0.4-0.7,0.8v4.9v3.4V159c-1.5-1.8-3.8-2.9-6.5-2.9c-4.5,0-8.1,3.3-8.1,7.3s3.6,7.3,8.1,7.3s8.1-3.3,8.1-7.3c0-0.2,0-0.4,0-0.6c0-0.1,0-0.1,0-0.2v-23.5l23.5-3V151c-1.5-1.8-3.8-2.9-6.5-2.9c-4.5,0-8.1,3.3-8.1,7.3s3.6,7.3,8.1,7.3c4.4,0,8-3.2,8.1-7.2l0,0v-20.1V132v-5C639.4,126.8,639.3,126.6,639.1,126.4z"/></g><g><circle fill="#3878FF" cx="519.7" cy="247.8" r="49.5"/><g><g><path fill="#FFFFFF" d="M539.9,250.1c1-1.1,1.5-2.5,1.5-4c0-1.4-0.5-2.6-1.5-3.7c-1-1-2.2-1.5-3.6-1.5h-7.5c0.1-0.3,0.1-0.5,0.2-0.6c0.1-0.2,0.2-0.4,0.3-0.6c0.1-0.2,0.2-0.4,0.3-0.5c0.3-0.6,0.6-1.1,0.7-1.5c0.2-0.4,0.3-0.9,0.5-1.6c0.2-0.7,0.3-1.4,0.3-2.1c0-0.4,0-0.8,0-1.1s-0.1-0.7-0.1-1.2c-0.1-0.5-0.2-1-0.3-1.4s-0.4-0.8-0.6-1.2c-0.3-0.5-0.7-0.8-1.1-1.1c-0.4-0.3-1-0.5-1.6-0.7c-0.7-0.2-1.4-0.3-2.2-0.3c-0.5,0-0.9,0.2-1.2,0.5c-0.4,0.4-0.7,0.8-0.9,1.4c-0.3,0.5-0.4,1-0.5,1.4s-0.2,0.9-0.3,1.6c-0.2,0.8-0.3,1.3-0.4,1.6c-0.1,0.3-0.2,0.8-0.5,1.3c-0.2,0.5-0.5,1-0.8,1.3c-0.6,0.6-1.5,1.7-2.7,3.2c-0.9,1.2-1.8,2.2-2.7,3.3c-0.9,1-1.6,1.6-2.1,1.6s-0.8,0.2-1.2,0.6c-0.3,0.3-0.5,0.7-0.5,1.2v17.3c0,0.5,0.2,0.9,0.5,1.2c0.3,0.3,0.7,0.5,1.2,0.5c0.6,0,2.1,0.4,4.3,1.2c1.4,0.5,2.5,0.8,3.3,1.1c0.8,0.2,1.9,0.5,3.3,0.8c1.4,0.3,2.7,0.4,3.9,0.4h0.5h2.1h1c2.4,0,4.2-0.7,5.3-2.1c1-1.2,1.5-2.9,1.3-4.9c0.7-0.7,1.2-1.5,1.5-2.5c0.3-1.1,0.3-2.2,0-3.2c0.8-1.1,1.2-2.3,1.2-3.7C540.3,251.6,540.1,250.9,539.9,250.1z"/><path fill="#FFFFFF" d="M507.6,244.4h-7.8c-0.5,0-0.9,0.2-1.2,0.5c-0.3,0.3-0.5,0.7-0.5,1.2v17.3c0,0.5,0.2,0.9,0.5,1.2c0.3,0.3,0.7,0.5,1.2,0.5h7.8c0.5,0,0.9-0.2,1.2-0.5c0.3-0.3,0.5-0.7,0.5-1.2v-17.3c0-0.5-0.2-0.9-0.5-1.2C508.5,244.5,508.1,244.4,507.6,244.4z M504.5,261.2c-0.3,0.3-0.7,0.5-1.2,0.5s-0.9-0.2-1.2-0.5c-0.3-0.3-0.5-0.7-0.5-1.2s0.2-0.9,0.5-1.2c0.3-0.3,0.7-0.5,1.2-0.5s0.9,0.2,1.2,0.5c0.3,0.3,0.5,0.7,0.5,1.2C505,260.4,504.9,260.8,504.5,261.2z"/></g></g></g></g><g><g><linearGradient id="SVGID_11_" gradientUnits="userSpaceOnUse" x1="497" y1="425.603" x2="497" y2="372.4029" gradientTransform="matrix(1 0 0 -1 0 1106)"><stop offset="0" style="stop-color:#3E5384"/><stop offset="0.797" style="stop-color:#3E5384;stop-opacity:0"/></linearGradient><polygon opacity="0.6" fill="url(#SVGID_11_)" enable-background="new " points="639.3,739.5 310.1,739.5 354.7,684.9 683.9,684.9 "/><g><path fill="#FCD923" d="M675.6,688.9H363.9c-5,0-9-4-9-9V498.8h329.7v181.1C684.6,684.9,680.6,688.9,675.6,688.9z"/><path fill="#F2F2F2" d="M361.8,505.2V374.8c0-10.2,8.3-18.5,18.5-18.5h277.8c10.2,0,18.5,8.3,18.5,18.5v130.4L529,624.5c-5.4,4.4-13.1,4.4-18.5,0L361.8,505.2z"/><g><path fill="#1F1F89" d="M537.4,521.8c-7.1,4.1-13.9,5.5-21.7,5.5c-17.4,0-34.3-13.9-34.3-41c0-27.3,17.6-53.6,44.3-53.6c21.9,0,32.3,17,32.3,35.4c0,23.6-8.3,36.8-21.6,36.8c-6.8,0-10-4.2-10-11.6H526c-3.3,7.4-9,11.6-15,11.6c-7.2,0-11.8-6.3-11.8-16.4c0-17.1,10.5-33.2,28.3-33.2c4.5,0,9.7,1.2,12.7,2.9l-4.6,25.2c-1.8,9.8-0.3,14.1,3.8,14.1c5.5,0,11.2-9,11.2-27.3c0-17.5-7.9-31.2-26.4-31.2c-18,0-35.3,18.9-35.3,47.4c0,23.2,12.3,34.7,28.7,34.7c6.4,0,12.3-1.8,17.8-4.9L537.4,521.8z M527.8,464.2c-1-0.5-2-0.7-3.6-0.7c-6.4,0-13.7,10.4-13.7,24.2c0,4.8,1.5,7.5,4.8,7.5c4.2,0,8.2-6.7,9.3-13.3L527.8,464.2z"/></g></g></g><linearGradient id="SVGID_12_" gradientUnits="userSpaceOnUse" x1="560.3237" y1="408.1738" x2="615.1577" y2="463.0077" gradientTransform="matrix(1 0 0 -1 0 1106)"><stop offset="0" style="stop-color:#000000"/><stop offset="1" style="stop-color:#000000;stop-opacity:0"/></linearGradient><polygon opacity="0.3" fill="url(#SVGID_12_)" enable-background="new " points="519.7,632.1 603,688.9 675.6,688.9 607.2,561.4 "/></g><g><g><linearGradient id="SVGID_13_" gradientUnits="userSpaceOnUse" x1="167.55" y1="90.2282" x2="167.55" y2="8.8284" gradientTransform="matrix(1 0 0 -1 0 1106)"><stop offset="0" style="stop-color:#4F5B7E"/><stop offset="7.132825e-02" style="stop-color:#66718F"/><stop offset="0.2311" style="stop-color:#949CB1"/><stop offset="0.3913" style="stop-color:#BBBFCD"/><stop offset="0.5492" style="stop-color:#D9DBE3"/><stop offset="0.7041" style="stop-color:#EEEFF2"/><stop offset="0.8549" style="stop-color:#FBFBFC"/><stop offset="0.9965" style="stop-color:#FFFFFF"/></linearGradient><polygon fill="url(#SVGID_13_)" points="232.2,1106.2 34.7,1106.2 102.9,1022.6 300.4,1022.6 "/></g><g><path fill="#3878FF" d="M297.4,1023.8H107.6c-2.9,0-5.3-2.4-5.3-5.3v-142c0-2.9,2.4-5.3,5.3-5.3h189.8c2.9,0,5.3,2.4,5.3,5.3v142.1C302.7,1021.4,300.3,1023.8,297.4,1023.8z"/><path fill="#F2F2F2" d="M302.7,991.2l-85-50.6l-26.4,26.9l-49.5-43.4l-39.5,40.7v53.4c0,3.1,2.5,5.6,5.6,5.6H297c3.1,0,5.6-2.5,5.6-5.6L302.7,991.2L302.7,991.2z"/><circle fill="#FCD923" cx="233.6" cy="908.2" r="15.9"/></g></g><g><g><g><linearGradient id="SVGID_14_" gradientUnits="userSpaceOnUse" x1="523.3" y1="261.9442" x2="523.3" y2="180.5444" gradientTransform="matrix(1 0 0 -1 0 1106)"><stop offset="0" style="stop-color:#4F5B7E"/><stop offset="7.132825e-02" style="stop-color:#66718F"/><stop offset="0.2311" style="stop-color:#949CB1"/><stop offset="0.3913" style="stop-color:#BBBFCD"/><stop offset="0.5492" style="stop-color:#D9DBE3"/><stop offset="0.7041" style="stop-color:#EEEFF2"/><stop offset="0.8549" style="stop-color:#FBFBFC"/><stop offset="0.9965" style="stop-color:#FFFFFF"/></linearGradient><polygon fill="url(#SVGID_14_)" points="644.6,934.5 333.8,934.5 402,850.9 712.8,850.9 "/></g><g><path fill="#F2F2F2" d="M706.3,853.3H403.5c-6.3,0-11.4-5.1-11.4-11.4v-89.3c0-6.3,5.1-11.4,11.4-11.4h302.8c6.3,0,11.4,5.1,11.4,11.4v89.3C717.7,848.2,712.6,853.3,706.3,853.3z"/><g><path fill="#F76D59" d="M455.1,781.3c-4.1,0-7.6,2.1-9.7,5.3c-2.1-3.2-5.6-5.3-9.7-5.3c-6.4,0-11.5,5.2-11.5,11.5c0,3.2,1.3,6.1,3.5,8.2l0,0l17.8,17.8l17.4-17.4c2.4-2.1,3.8-5.2,3.8-8.6C466.6,786.5,461.5,781.3,455.1,781.3z"/><path fill="#3878FF" d="M637.9,791.8c0,8-7.9,14.7-18.4,16.2c-1.5,0.2-10.7,11.1-10.7,11.1s1.9-10.9,0-11.3c-9.8-1.9-16.9-8.3-16.9-16c0-9.1,10.3-16.5,23-16.5S637.9,782.7,637.9,791.8z"/><g><g><path fill="#F76D59" d="M481.8,788.8L481.8,788.8l-4.6,2.4l-0.9-4.3l6.2-3.2h4.8v27h-5.4v-21.9H481.8z"/><path fill="#F76D59" d="M508.8,797.1c0,9.7-3.5,13.9-7.9,13.9c-5.9,0-7.9-6.8-7.9-13.7c0-7.8,2.5-13.9,8.1-13.9C507.4,783.4,508.8,790.6,508.8,797.1z M498.5,797.2c-0.1,6.3,0.7,9.2,2.5,9.2c1.7,0,2.3-3,2.3-9.2c0-5.8-0.5-9.2-2.3-9.2C499.3,788,498.5,790.9,498.5,797.2z"/><path fill="#F76D59" d="M524.9,788.4h-7.1l-0.6,4.8c0.2,0,0.5,0,0.8,0c1.2,0,3.5,0.6,5.1,2c1.5,1.5,2.3,3.5,2.3,6.2c0,5.3-3.5,9.5-9.4,9.5c-1.9,0-4-0.5-5.1-1.1l0.8-4.3c1,0.5,2.4,1,3.9,1c2.7,0,4.4-1.7,4.4-4.6c0-3.6-2.7-4.8-5.9-4.8c-0.7,0-1.4,0-1.9,0.1l1.5-13.5h11.2L524.9,788.4L524.9,788.4z"/></g></g><g><path fill="#3878FF" d="M650.4,806.5c1,0,1.6,0,2.5-0.2c1-0.2,2.2-0.7,3.2-1.6c1.2-1.1,2.2-3,2.6-5.4h-0.1c-0.9,1-2.1,1.7-3.9,1.7c-3.5,0-6.4-3.1-6.4-8.1c0-4.6,2.9-9.5,8.1-9.5c5,0,7.6,4.6,7.6,11.1c0,6.1-2,10.4-4.4,13c-1.7,1.8-4,3-6.6,3.4c-0.9,0.1-1.7,0.1-2.5,0.1L650.4,806.5L650.4,806.5z M656,787.3c-1.4,0-2.4,1.8-2.4,5.1c0,2.6,0.9,4.8,2.5,4.8c1,0,1.8-0.7,2.1-1.4c0.2-0.5,0.2-1.1,0.2-2.9C658.5,789.3,657.5,787.3,656,787.3L656,787.3z"/><path fill="#3878FF" d="M681.3,783.7v3.6l-8.5,23.4h-5.3l8.3-22.1v-0.1h-9.2v-4.8L681.3,783.7L681.3,783.7z"/></g></g></g></g><g><g><linearGradient id="SVGID_15_" gradientUnits="userSpaceOnUse" x1="344.65" y1="158.1449" x2="344.65" y2="94.476" gradientTransform="matrix(1 0 0 -1 0 1106)"><stop offset="0" style="stop-color:#4F5B7E"/><stop offset="7.132825e-02" style="stop-color:#66718F"/><stop offset="0.2311" style="stop-color:#949CB1"/><stop offset="0.3913" style="stop-color:#BBBFCD"/><stop offset="0.5492" style="stop-color:#D9DBE3"/><stop offset="0.7041" style="stop-color:#EEEFF2"/><stop offset="0.8549" style="stop-color:#FBFBFC"/><stop offset="0.9965" style="stop-color:#FFFFFF"/></linearGradient><polygon fill="url(#SVGID_15_)" points="335,1018.6 293,1018.6 354.2,953.2 396.3,953.2 "/></g><g><linearGradient id="SVGID_16_" gradientUnits="userSpaceOnUse" x1="432.8" y1="158.1449" x2="432.8" y2="94.476" gradientTransform="matrix(1 0 0 -1 0 1106)"><stop offset="0" style="stop-color:#4F5B7E"/><stop offset="7.132825e-02" style="stop-color:#66718F"/><stop offset="0.2311" style="stop-color:#949CB1"/><stop offset="0.3913" style="stop-color:#BBBFCD"/><stop offset="0.5492" style="stop-color:#D9DBE3"/><stop offset="0.7041" style="stop-color:#EEEFF2"/><stop offset="0.8549" style="stop-color:#FBFBFC"/><stop offset="0.9965" style="stop-color:#FFFFFF"/></linearGradient><polygon fill="url(#SVGID_16_)" points="423.2,1018.6 381.1,1018.6 442.4,953.2 484.5,953.2 "/></g><g><linearGradient id="SVGID_17_" gradientUnits="userSpaceOnUse" x1="520.3" y1="158.1449" x2="520.3" y2="94.476" gradientTransform="matrix(1 0 0 -1 0 1106)"><stop offset="0" style="stop-color:#4F5B7E"/><stop offset="7.132825e-02" style="stop-color:#66718F"/><stop offset="0.2311" style="stop-color:#949CB1"/><stop offset="0.3913" style="stop-color:#BBBFCD"/><stop offset="0.5492" style="stop-color:#D9DBE3"/><stop offset="0.7041" style="stop-color:#EEEFF2"/><stop offset="0.8549" style="stop-color:#FBFBFC"/><stop offset="0.9965" style="stop-color:#FFFFFF"/></linearGradient><polygon fill="url(#SVGID_17_)" points="510.7,1018.6 468.6,1018.6 529.9,953.2 572,953.2 "/></g><g><linearGradient id="SVGID_18_" gradientUnits="userSpaceOnUse" x1="607.8" y1="158.1449" x2="607.8" y2="94.476" gradientTransform="matrix(1 0 0 -1 0 1106)"><stop offset="0" style="stop-color:#4F5B7E"/><stop offset="7.132825e-02" style="stop-color:#66718F"/><stop offset="0.2311" style="stop-color:#949CB1"/><stop offset="0.3913" style="stop-color:#BBBFCD"/><stop offset="0.5492" style="stop-color:#D9DBE3"/><stop offset="0.7041" style="stop-color:#EEEFF2"/><stop offset="0.8549" style="stop-color:#FBFBFC"/><stop offset="0.9965" style="stop-color:#FFFFFF"/></linearGradient><polygon fill="url(#SVGID_18_)" points="598.2,1018.6 556.1,1018.6 617.4,953.2 659.5,953.2 "/></g><g><linearGradient id="SVGID_19_" gradientUnits="userSpaceOnUse" x1="702.65" y1="158.1449" x2="702.65" y2="94.476" gradientTransform="matrix(1 0 0 -1 0 1106)"><stop offset="0" style="stop-color:#4F5B7E"/><stop offset="7.132825e-02" style="stop-color:#66718F"/><stop offset="0.2311" style="stop-color:#949CB1"/><stop offset="0.3913" style="stop-color:#BBBFCD"/><stop offset="0.5492" style="stop-color:#D9DBE3"/><stop offset="0.7041" style="stop-color:#EEEFF2"/><stop offset="0.8549" style="stop-color:#FBFBFC"/><stop offset="0.9965" style="stop-color:#FFFFFF"/></linearGradient><polygon fill="url(#SVGID_19_)" points="693,1018.6 651,1018.6 712.3,953.2 754.3,953.2 "/></g><g><g><circle fill="#FFCA28" cx="727.6" cy="934.7" r="32.3"/><g><path fill="#6D4C41" d="M745.8,928.7c-1.1,0-2-0.9-2-2c0-2.2-1.8-4-4-4s-4,1.8-4,4c0,1.1-0.9,2-2,2s-2-0.9-2-2c0-4.5,3.6-8.1,8.1-8.1s8.1,3.6,8.1,8.1C747.8,927.8,746.9,928.7,745.8,928.7z"/><path fill="#6D4C41" d="M721.5,928.7c-1.1,0-2-0.9-2-2c0-2.2-1.8-4-4-4s-4,1.8-4,4c0,1.1-0.9,2-2,2s-2-0.9-2-2c0-4.5,3.6-8.1,8.1-8.1s8.1,3.6,8.1,8.1C723.5,927.8,722.6,928.7,721.5,928.7z"/></g><path fill="#FAFAFA" d="M750.6,939.6c-0.4-0.5-1-0.8-1.6-0.8h-42.8c-0.6,0-1.2,0.3-1.6,0.8c-0.4,0.5-0.5,1.2-0.3,1.8c2.9,10.4,12.5,17.6,23.3,17.6s20.4-7.3,23.3-17.6C751.1,940.8,751,940.1,750.6,939.6z"/></g><g><circle fill="#FFC10E" cx="462.7" cy="932.3" r="29.9"/><g><path fill="#333333" d="M477.9,947.1c-8.4-8.5-22-8.5-30.3,0.1c-1.1,1.1,0.6,2.8,1.7,1.7c7.4-7.7,19.5-7.7,27-0.1C477.3,949.9,478.9,948.2,477.9,947.1L477.9,947.1z"/><circle fill="#333333" cx="453.6" cy="922" r="4.7"/><circle fill="#333333" cx="471.4" cy="922" r="4.7"/></g></g><g><circle fill="#FFC10E" cx="550.2" cy="932.3" r="29.9"/><g><path fill="#333333" d="M565.4,947.2c-8.4-8.6-22.1-8.6-30.4,0c-1.1,1.1,0.6,2.8,1.7,1.7c7.5-7.7,19.6-7.7,27.1,0C564.8,950,566.5,948.3,565.4,947.2L565.4,947.2z"/><circle fill="#333333" cx="541.1" cy="926.7" r="4.7"/><circle fill="#333333" cx="558.9" cy="926.7" r="4.7"/><path fill="#333333" d="M560.3,911c-3.6,3.6-7.2,7.2-10.9,10.9c0.6,0,1.1,0,1.7,0c-3.6-3.6-7.2-7.2-10.9-10.9c-1.1-1.1-2.8,0.6-1.7,1.7c3.6,3.6,7.2,7.2,10.9,10.9c0.5,0.5,1.2,0.5,1.7,0c3.6-3.6,7.2-7.2,10.9-10.9C563,911.6,561.3,910,560.3,911L560.3,911z"/></g></g><g><circle fill="#FFC10E" cx="637.7" cy="932.3" r="29.9"/><g><path fill="#ED3533" d="M630.8,916.3c-1.8,0-3.4,0.9-4.4,2.3l-0.2,0.3l-0.1-0.2c-1-1.5-2.6-2.4-4.5-2.4c-3.1,0-5.3,2.2-5.3,5.3c0,4.5,8.2,11.2,8.8,11.7c0.3,0.3,0.7,0.4,1,0.4s0.8-0.1,1-0.4c0.6-0.5,8.9-7.3,8.9-11.7C636.1,918.5,633.9,916.3,630.8,916.3z"/><path fill="#ED3533" d="M654.1,916.3c-1.8,0-3.4,0.9-4.4,2.3l-0.2,0.3l-0.1-0.2c-1-1.5-2.6-2.4-4.5-2.4c-3.1,0-5.3,2.2-5.3,5.3c0,4.5,8.2,11.2,8.8,11.7c0.3,0.3,0.7,0.4,1,0.4c0.4,0,0.8-0.1,1-0.4c0.6-0.5,8.9-7.3,8.9-11.7C659.4,918.5,657.2,916.3,654.1,916.3z"/></g><path fill="#333333" d="M651.2,942.4c-7.5,7.6-19.5,7.6-27-0.1c-1.1-1.1-2.7,0.6-1.7,1.7c8.3,8.6,21.9,8.6,30.3,0.1C653.9,943,652.2,941.3,651.2,942.4L651.2,942.4z"/></g><g><circle fill="#FFC10E" cx="375.2" cy="932.3" r="29.9"/><g><path fill="#333333" d="M393.7,932.4c-0.2,10.2-8.3,18.3-18.5,18.5s-18.3-8.5-18.5-18.5c0-1.5-2.4-1.5-2.4,0c0.2,11.5,9.3,20.6,20.8,20.8s20.7-9.6,20.8-20.8C396.1,930.8,393.7,930.8,393.7,932.4L393.7,932.4z"/><circle fill="#333333" cx="366.1" cy="922" r="4.7"/><circle fill="#333333" cx="383.9" cy="922" r="4.7"/></g></g></g></g></g></g></svg>