<?xml version="1.0" encoding="utf-8"?><!-- Generator: Adobe Illustrator 21.0.2, SVG Export Plug-In . SVG Version: 6.00 Build 0) --><svg version="1.1" id="Layer_1" xmlns="http://www.w3.org/2000/svg" xmlns:xlink="http://www.w3.org/1999/xlink" x="0px" y="0px" viewBox="0 0 1000 806.6" enable-background="new 0 0 1000 806.6" xml:space="preserve"><g><linearGradient id="SVGID_1_" gradientUnits="userSpaceOnUse" x1="374.45" y1="112.8959" x2="374.45" y2="21.3771" gradientTransform="matrix(1 0 0 -1 0 806)"><stop offset="0" style="stop-color:#4F5B7E"/><stop offset="7.132825e-02" style="stop-color:#66718F"/><stop offset="0.2311" style="stop-color:#949CB1"/><stop offset="0.3913" style="stop-color:#BBBFCD"/><stop offset="0.5492" style="stop-color:#D9DBE3"/><stop offset="0.7041" style="stop-color:#EEEFF2"/><stop offset="0.8549" style="stop-color:#FBFBFC"/><stop offset="0.9965" style="stop-color:#FFFFFF"/></linearGradient><polygon fill="url(#SVGID_1_)" points="446.2,794.8 226,794.8 302.7,700.8 522.9,700.8 "/></g><g><linearGradient id="SVGID_2_" gradientUnits="userSpaceOnUse" x1="107.75" y1="85.5211" x2="107.75" y2="28.2644" gradientTransform="matrix(1 0 0 -1 0 806)"><stop offset="0" style="stop-color:#4F5B7E"/><stop offset="7.132825e-02" style="stop-color:#66718F"/><stop offset="0.2311" style="stop-color:#949CB1"/><stop offset="0.3913" style="stop-color:#BBBFCD"/><stop offset="0.5492" style="stop-color:#D9DBE3"/><stop offset="0.7041" style="stop-color:#EEEFF2"/><stop offset="0.8549" style="stop-color:#FBFBFC"/><stop offset="0.9965" style="stop-color:#FFFFFF"/></linearGradient><polygon fill="url(#SVGID_2_)" points="137.6,784.1 29.9,784.1 77.8,725.3 185.6,725.3 "/></g><g><linearGradient id="SVGID_3_" gradientUnits="userSpaceOnUse" x1="583.6" y1="91.4897" x2="583.6" y2="10.1671" gradientTransform="matrix(1 0 0 -1 0 806)"><stop offset="0" style="stop-color:#4F5B7E"/><stop offset="7.132825e-02" style="stop-color:#66718F"/><stop offset="0.2311" style="stop-color:#949CB1"/><stop offset="0.3913" style="stop-color:#BBBFCD"/><stop offset="0.5492" style="stop-color:#D9DBE3"/><stop offset="0.7041" style="stop-color:#EEEFF2"/><stop offset="0.8549" style="stop-color:#FBFBFC"/><stop offset="0.9965" style="stop-color:#FFFFFF"/></linearGradient><polygon fill="url(#SVGID_3_)" points="673.5,804.9 437.3,804.9 506,721.3 729.9,721.3 729.9,736.9 "/></g><g><g><g><path fill="#EE6D32" d="M759.8,0c-18.6,0-38.9,14.5-38.8,38.5c0,36.6,39.1,75.2,39.1,75.2S799,74.4,799,38.4C798.9,14.4,777.3,0,759.8,0z M769.5,54.9c-2.6,1.6-5.8,2.6-9.6,2.6c-5.3-0.1-9.4-1.9-12.4-4.8c-10.9-10.1-6.8-33.5,12.5-33.5C780.8,19.2,784,46.6,769.5,54.9z"/></g></g><g><path fill="#3878FF" d="M170.7,87.9c-5.1,0-9.3-4.1-9.3-9.2s4.1-9.3,9.3-9.3c5.1,0,9.2,4.2,9.2,9.3C179.9,83.7,175.8,87.9,170.7,87.9z M152.2,64.5c-1.4,0-2.6-0.5-3.6-1.5c-0.9-1-1.5-2.2-1.5-3.6c0-1.4,0.5-2.6,1.5-3.6c5.9-5.9,13.8-9.2,22.1-9.2c8.4,0,16.2,3.3,22.1,9.2c1,1,1.5,2.2,1.5,3.6c0,1.4-0.5,2.6-1.5,3.6s-2.2,1.5-3.6,1.5c-1.4,0-2.6-0.5-3.6-1.5c-4-4-9.3-6.2-14.9-6.2c-5.7,0-11,2.2-15,6.2C154.8,63.9,153.5,64.5,152.2,64.5z M205.3,48.3c-1.5,0-2.9-0.6-4-1.7c-8.2-8.2-19.1-12.7-30.7-12.7c-11.6,0-22.5,4.5-30.7,12.7c-1.1,1.1-2.5,1.7-4,1.7s-2.9-0.6-4-1.7c-2.2-2.2-2.2-5.7,0-7.9c10.3-10.3,24-16,38.6-16c14.6,0,28.3,5.7,38.6,16c2.2,2.2,2.2,5.7,0,7.9C208.2,47.8,206.8,48.3,205.3,48.3z M221.2,32.5c-1.5,0-2.9-0.6-4-1.7c-12.4-12.4-28.9-19.2-46.5-19.2s-34.1,6.8-46.5,19.2c-1.1,1.1-2.5,1.7-4,1.7s-2.9-0.6-4-1.7c-2.2-2.2-2.2-5.7,0-7.9c14.5-14.5,33.9-22.5,54.5-22.5s39.9,8,54.4,22.5c1.1,1.1,1.6,2.5,1.6,4s-0.6,2.9-1.6,4C224.1,31.9,222.7,32.5,221.2,32.5z"/></g><g><g><g><g><path fill="#FFFFFF" d="M880.2,499.3l19-18.7l49.4,50.1c5.1,5.2,5.1,13.6-0.1,18.7l-0.2,0.2c-5.2,5.1-13.6,5.1-18.7-0.1L880.2,499.3z"/></g></g><g><g><g><path fill="#FFFFFF" d="M880.2,499.3l19-18.7l49.4,50.1c5.1,5.2,5.1,13.6-0.1,18.7l-0.2,0.2c-5.2,5.1-13.6,5.1-18.7-0.1L880.2,499.3z"/></g></g></g><path fill="#B3B3B3" d="M993,559.4l-66.4-66.9l-8,7.9L903,484.5c14.6-18.5,22.5-40.8,22.7-64.4c0.2-28.3-10.5-55-30.4-75.3c-17.7-18-41.1-29.1-66-31.3c-2.9-0.2-5.8-0.4-8.7-0.4c-28.3-0.2-55.1,10.6-75.3,30.5s-31.4,46.3-31.6,74.5c-0.3,30,12.3,57.6,32.7,77.3c16.8,16.3,39,27,63.7,29.3c2.9,0.2,5.8,0.4,8.6,0.4c14.5,0.2,28.6-2.6,41.9-8.1c2.2-0.9,4.3-1.9,6.4-2.9c5.8-2.9,11.4-6.4,16.7-10.4c0.1-0.1,0.3-0.2,0.4-0.3l15.6,15.8l-8,7.8l66.4,66.9c9.4,9.6,24.8,9.7,34.3,0.3l0.4-0.3C1002.3,584.4,1002.4,569,993,559.4z M882.7,483l-1.6,1.5c-3,2.8-6.2,5.3-9.4,7.6c-15.4,11-33.5,16.7-52.2,16.7h-0.7c-2.5,0-4.9-0.1-7.3-0.4c-24.8-2.2-47.9-15.1-63.2-35.2c-12.2-16-18.6-35.1-18.4-55c0.3-23.9,9.8-46.3,26.8-63.1l0,0c17.2-16.9,39.8-26.2,63.8-25.9c2.8,0.1,5.2,0.2,7.3,0.4c21.1,1.9,40.9,11.3,55.9,26.6c16.9,17.1,26,39.7,25.8,63.7C909.3,443.7,899.8,466.1,882.7,483z"/></g><g><g><path fill="#F5C826" d="M968.6,334.2l-6.4,30.3l-4.9-8c0,0-36.6,45.9-37,46.2c-1.4,1.2-3.9,2.8-7.5,1l-18.2-15.1L841.1,443c-0.9,0.8-2.2,1.2-3.5,1.1c-0.7-0.1-1.4-0.3-1.9-0.7l-45.1-33.8c-4.3,4.1-28.6,27.6-50.7,45.5c-1.4-3-2.6-6.2-3.6-9.4l50.4-44.8c0.8-1,2.2-2.3,4.1-2.1c0.6,0.1,46.9,34.5,46.9,34.5l50.6-52.4c0.1-0.1,5.4-6,8.3-4l18.3,16.5l34.6-41.5l-9.2-2L968.6,334.2z"/></g></g></g><g><g><g><g><path fill="#3878FF" d="M928,124.6h-88c-6.2,0-11.2,5-11.2,11.2v49.1c0,6.2,5,11.2,11.2,11.2h47.2v27.5l27-27.5H928c6.2,0,11.2-5,11.2-11.2v-49.1C939.2,129.6,934.2,124.6,928,124.6z"/></g></g></g><g><g><g><path fill="#FFFFFF" d="M862.2,173.1l-12.8-12.8c-0.7-0.7-0.7-1.9,0-2.6l12.4-12.4l2.6,2.6l-11,11.1l11.4,11.4L862.2,173.1z"/></g></g></g><g><g><g><path fill="#FFFFFF" d="M907.2,173.7l-2.6-2.6l11.7-11.7l-11.7-11.7l2.6-2.6l13,13c0.3,0.3,0.5,0.8,0.5,1.3s-0.2,1-0.5,1.3L907.2,173.7z"/></g></g></g><g><g><g><rect x="860.9" y="157.3" transform="matrix(0.406 -0.9139 0.9139 0.406 380.6687 903.8967)" fill="#FFFFFF" width="49.6" height="3.7"/></g></g></g></g><g><g><g><g><g><path fill="#CCCCCC" d="M531.9,629.8c0-26.3-0.1-64.5-0.1-64.5l-74.9,0.1l-74.9,0.1c0,0,0,56.2,0.1,82.5c0,20.9-43.9,28.7-70.4,35.2c-6.7,1.6-11.3,3.6-11.3,10.4v-0.7c0,8.2,6.7,11.8,14.9,11.8l303.6-0.4c8.2,0,14.8-6.7,14.8-14.9v-0.3c0-6.9-4.7-12.8-11.3-14.4C595.9,668.4,532,650.7,531.9,629.8z"/></g></g></g></g><g><g><g><path fill="#E6E6E6" d="M115.1,553.7v26.5c0,11.4,9.1,20.7,20.2,20.6l643.4-0.8c11.2,0,20.2-9.3,20.2-20.7v-26.5L115.1,553.7z"/></g></g></g><g><g><g><g><path fill="#CCCCCC" d="M778.1,124.2L134.8,125c-11.2,0-20.2,9.3-20.2,20.7l0.5,408.3l683.8-0.8l-0.5-408.3C798.4,133.5,789.3,124.2,778.1,124.2z"/></g></g></g></g><g><g><g><g><rect x="134.9" y="144.9" transform="matrix(1 -1.234194e-03 1.234194e-03 1 -0.418 0.5644)" fill="#FFFFFF" width="644.4" height="388.1"/></g></g></g></g></g><g><g><g><path fill="#999999" d="M642.7,279.9L643,17.8c0-9.6-7.7-17.4-17.3-17.4s-17.4,7.7-17.4,17.3L608,264.5C608,265,642.7,280.3,642.7,279.9z"/></g></g><g><g><g><path fill="#F5C826" d="M657.9,190.2l0.1-86.3c0-8.8-7.1-16-16-16h-33c-8.8,0-15.9,7.1-16,15.9l-0.1,86.3c0,8.8,7.1,16,16,16h33C650.7,206.1,657.9,199,657.9,190.2z"/></g></g></g><g><path fill="#FFFFFF" d="M645.5,121.5c0,2.7-2.2,4.8-4.8,4.8h-30.3c-2.7,0-4.8-2.2-4.8-4.8l0,0c0-2.7,2.2-4.8,4.8-4.8h30.3C643.3,116.6,645.5,118.8,645.5,121.5L645.5,121.5z"/></g><g><path fill="#FFFFFF" d="M645.5,148.1c0,2.7-2.2,4.8-4.8,4.8h-30.3c-2.7,0-4.8-2.2-4.8-4.8l0,0c0-2.7,2.2-4.8,4.8-4.8h30.3C643.3,143.3,645.5,145.4,645.5,148.1L645.5,148.1z"/></g><g><path fill="#FFFFFF" d="M645.5,174.8c0,2.7-2.2,4.8-4.8,4.8h-30.3c-2.7,0-4.8-2.2-4.8-4.8l0,0c0-2.7,2.2-4.8,4.8-4.8h30.3C643.3,169.9,645.5,172.1,645.5,174.8L645.5,174.8z"/></g></g><g><path fill="#151D79" d="M584.7,281.1c-3.7-0.7-7.4-1-11.2-1.1c-3.8,0-7.6,0.3-11.2,1c-29.3,5.2-51.6,30.8-51.7,61.6c-0.1,31,22.4,56.8,51.9,62c3.5,0.6,7,0.9,10.7,1c3.6,0,7.2-0.3,10.7-0.9c29.6-5,52.2-30.7,52.2-61.7C636.1,312.1,613.9,286.5,584.7,281.1z M579.8,381.3c-2.2,0.4-4.4,0.6-6.6,0.6c-2.3,0-4.5-0.2-6.6-0.6c-18.4-3.2-32.3-19.2-32.3-38.5c0-19.2,13.9-35.1,32.1-38.3c2.3-0.4,4.6-0.6,7-0.6s4.7,0.2,7,0.7c18.2,3.3,32,19.3,31.9,38.5C612.2,362.2,598.2,378.2,579.8,381.3z"/><g id="XMLID_12_"><g><g><g><path fill="#EE6D32" d="M671,344.8c0.3-14-2.4-27.5-7.6-39.9l14.1-9.3L658,265.8l-14.1,9.3c-7.3-7.6-15.9-14.1-25.6-19.1c-2.5-1.3-5.1-2.5-7.7-3.6c-0.1,0-0.2-0.1-0.3-0.1l3.5-16.6l-35-7.2l-3.4,16.6c-3.7-0.1-7.3,0.1-10.9,0.4c-10.1,0.9-19.9,3.4-29,7.2l-9.3-14.1l-29.8,19.6l9.3,14.1c-9.7,9.3-17.5,20.7-22.8,33.6l-16.6-3.4l-7.2,35l16.6,3.4c-0.3,13.9,2.4,27.5,7.6,39.9L469,390l19.6,29.8l14.2-9.3c9.3,9.7,20.7,17.6,33.6,22.8l-3.4,16.6l35,7.2l3.4-16.6c3.7,0.1,7.3-0.1,10.9-0.4c10.1-0.9,19.8-3.4,29-7.2l9.3,14.1l29.8-19.6l-9.3-14.1c9.7-9.3,17.5-20.7,22.8-33.6l16.6,3.4l7.2-35L671,344.8z M645.7,357.8c-6.6,32.1-33.1,55.7-65.7,58.7c-2.2,0.2-4.5,0.3-6.7,0.3c-5.1,0-10.1-0.5-15-1.6c-40-8.3-65.8-47.5-57.5-87.4c6.7-32.2,33.1-55.8,65.7-58.7c7.3-0.7,14.6-0.3,21.7,1.3c4.2,0.9,8.3,2.1,12.2,3.6c2.7,1,5.3,2.2,7.9,3.6C636.9,293,652.3,326,645.7,357.8z"/></g></g></g></g><g><path fill="#151D79" d="M226,364.2l25.6-2.5c1.5,8.6,4.7,14.9,9.4,18.9c4.7,4,11.1,6,19.1,6c8.5,0,14.9-1.8,19.2-5.4c4.3-3.6,6.4-7.8,6.4-12.6c0-3.1-0.9-5.7-2.7-7.9c-1.8-2.2-5-4-9.5-5.6c-3.1-1.1-10.1-3-21.1-5.7c-14.1-3.5-24-7.8-29.7-12.9c-8-7.2-12-15.9-12-26.2c0-6.6,1.9-12.9,5.6-18.6c3.8-5.8,9.2-10.2,16.3-13.2s15.6-4.5,25.7-4.5c16.4,0,28.7,3.6,37,10.8c8.3,7.2,12.6,16.7,13,28.7l-26.3,1.2c-1.1-6.7-3.5-11.5-7.2-14.5c-3.7-2.9-9.3-4.4-16.7-4.4c-7.6,0-13.6,1.6-18,4.7c-2.8,2-4.2,4.7-4.2,8.1c0,3.1,1.3,5.7,3.9,7.9c3.3,2.8,11.4,5.7,24.2,8.7c12.8,3,22.3,6.1,28.4,9.4c6.1,3.2,10.9,7.6,14.4,13.3c3.5,5.6,5.2,12.5,5.2,20.8c0,7.5-2.1,14.5-6.2,21c-4.2,6.5-10,11.4-17.6,14.5c-7.6,3.2-17,4.8-28.4,4.8c-16.5,0-29.1-3.8-38-11.4C233,389.9,227.8,378.8,226,364.2z"/></g><g><path fill="#151D79" d="M354.2,406.6V276.3h96.7v22.1h-70.3v28.9H446v22h-65.5v35.5h72.8v22h-99.1V406.6z"/></g></g><g><g><g><rect x="104.6" y="449.9" fill="#E6E6E6" width="54" height="32.3"/></g><g><g><g><path fill="#B3B3B3" d="M161.6,455.4h-59.9c-7.8,0-14.2-6.3-14.2-14.2v-4c0-7.8,6.3-14.1,14.2-14.1h59.9c7.8,0,14.1,6.3,14.1,14.1v4C175.7,449,169.4,455.4,161.6,455.4z"/></g></g></g></g><g><g><rect x="217.2" y="490.5" transform="matrix(0.6947 -0.7193 0.7193 0.6947 -295.1641 317.8947)" fill="#E6E6E6" width="19.4" height="32.4"/></g><g><g><g><path fill="#B3B3B3" d="M244.4,514.6l-25.9-25c-3.4-3.3-3.5-8.6-0.2-12l1.7-1.7c3.3-3.4,8.6-3.5,12-0.2l25.9,25c3.4,3.3,3.5,8.6,0.2,12l-1.7,1.7C253.1,517.7,247.8,517.8,244.4,514.6z"/></g></g></g></g><g><g><rect x="17.8" y="497.1" transform="matrix(0.7193 -0.6947 0.6947 0.7193 -342.5101 165.8374)" fill="#E6E6E6" width="32.4" height="19.4"/></g><g><g><g><path fill="#B3B3B3" d="M16.6,514.6l25.9-25c3.4-3.3,3.5-8.6,0.2-12l-1.7-1.7c-3.3-3.4-8.6-3.5-12-0.2l-25.9,25c-3.4,3.3-3.5,8.6-0.2,12l1.7,1.7C7.8,517.7,13.2,517.8,16.6,514.6z"/></g></g></g></g><g><circle fill="#F5C826" cx="131.6" cy="605.3" r="131.6"/></g><g><path fill="#F1EFF3" d="M244.8,625.9c6.1-33.8-3-70-27.9-97.5c-42.6-47.2-115.5-51-162.7-8.3c-21.1,19-33.5,44-37,70.1c-4.4,32.4,5,66.4,28.6,92.6c42.6,47.2,115.5,51,162.7,8.3C228.3,673.2,240.5,650.2,244.8,625.9z"/></g><path fill="#3878FF" d="M248.7,605.5c0-27-9.2-51.9-24.5-71.7c-21.4-27.6-54.9-45.4-92.6-45.4c-0.2,0-0.4,0-0.6,0v117.1H248.7z"/><g><path fill="#3878FF" d="M177.2,673.7l-38.8-64.3c0.4-1,0.6-2,0.6-3.1v-0.6c0-4.5-3.6-8.1-8.1-8.1s-8.1,3.6-8.1,8.1v0.6c0,4.5,3.6,8.1,8.1,8.1c0.5,0,1-0.1,1.5-0.1l38.2,63.3c1.1,1.8,3.4,2.4,5.2,1.3C177.6,677.9,178.2,675.6,177.2,673.7z"/></g><g><path fill="#151D79" d="M136.2,594.2c0-0.1,0-0.1,0-0.2v-48.8c0-2.5-2-4.5-4.5-4.5s-4.5,2-4.5,4.5V594c0,0.1,0,0.1,0,0.2c-4.7,1.8-8,6.3-8,11.6c0,6.9,5.6,12.4,12.4,12.4c6.9,0,12.4-5.6,12.4-12.4C144.1,600.5,140.8,596,136.2,594.2z M131.7,612.1c-3.5,0-6.4-2.8-6.4-6.4c0-3.5,2.8-6.4,6.4-6.4c3.5,0,6.4,2.8,6.4,6.4C138.1,609.3,135.2,612.1,131.7,612.1z"/></g><g><g><rect x="126.3" y="490.4" fill="#151D79" width="10.6" height="24.6"/></g></g><g><g><rect x="183.8" y="520.2" transform="matrix(0.6283 -0.778 0.778 0.6283 -335.9409 347.9336)" fill="#151D79" width="24.6" height="10.6"/></g></g><g><g><rect x="218" y="571.6" transform="matrix(0.9609 -0.2768 0.2768 0.9609 -150.6811 86.2895)" fill="#151D79" width="24.6" height="10.6"/></g></g><g><g><rect x="223.4" y="626.3" transform="matrix(0.3245 -0.9459 0.9459 0.3245 -449.6043 647.7316)" fill="#151D79" width="10.6" height="24.6"/></g></g><g><g><rect x="186.7" y="676" transform="matrix(0.8084 -0.5886 0.5886 0.8084 -368.3879 244.8835)" fill="#151D79" width="10.6" height="24.6"/></g></g><g><g><rect x="128.2" y="695.6" transform="matrix(0.9998 -1.856639e-02 1.856639e-02 0.9998 -13.1198 2.6005)" fill="#151D79" width="10.6" height="24.6"/></g></g><g><g><rect x="62" y="685.2" transform="matrix(0.558 -0.8298 0.8298 0.558 -540.1468 366.8684)" fill="#151D79" width="24.6" height="10.6"/></g></g><g><g><rect x="23.6" y="636.9" transform="matrix(0.9332 -0.3595 0.3595 0.9332 -228.4662 55.8384)" fill="#151D79" width="24.6" height="10.6"/></g></g><g><g><rect x="26.7" y="568.3" transform="matrix(0.2407 -0.9706 0.9706 0.2407 -539.2334 471.9403)" fill="#151D79" width="10.6" height="24.6"/></g></g><g><g><rect x="58.9" y="515.6" transform="matrix(0.754 -0.6569 0.6569 0.754 -330.9978 172.0408)" fill="#151D79" width="10.6" height="24.6"/></g></g></g><g id="XMLID_6_"><g id="XMLID_11_"><g><g><g><g><g><path fill="#151D79" d="M491.3,0.4c25.1,0,45.4,17.5,45.4,39.2c0,13-7.3,24.5-18.6,31.6l6.4,16.2l-15.7-11.7c-5.4,1.9-11.3,3-17.5,3c-25.1,0-45.4-17.5-45.4-39.2S466.2,0.4,491.3,0.4z"/></g></g></g></g></g></g><g id="XMLID_7_"><g id="XMLID_10_"><g><g><path fill="#FFFFFF" d="M511.1,46.5c-3.4,0-6.2-2.8-6.2-6.2s2.8-6.2,6.2-6.2c3.4,0,6.2,2.8,6.2,6.2S514.5,46.5,511.1,46.5z"/></g></g></g><g id="XMLID_9_"><g><g><path fill="#FFFFFF" d="M491.3,46.5c-3.4,0-6.2-2.8-6.2-6.2s2.8-6.2,6.2-6.2c3.4,0,6.2,2.8,6.2,6.2C497.4,43.7,494.7,46.5,491.3,46.5z"/></g></g></g><g id="XMLID_8_"><g><g><path fill="#FFFFFF" d="M471.4,46.5c-3.4,0-6.2-2.8-6.2-6.2s2.8-6.2,6.2-6.2c3.4,0,6.2,2.8,6.2,6.2S474.8,46.5,471.4,46.5z"/></g></g></g></g></g><g><g id="XMLID_2_"><g><g><path fill="#151D79" d="M708.1,593.7l15-2.1l-4.5-31.8l-15,2.1c-4-11.9-10.4-22.5-18.6-31.4l9.1-12.2L668.4,499l-9.1,12.2c-8.5-4.2-17.8-7.1-27.4-8.4c-2.5-0.3-5-0.6-7.6-0.7c-0.1,0-0.2,0-0.3,0l-2.1-15.1l-31.8,4.5l2.1,15.1c-3.1,1-6.2,2.3-9.1,3.6c-8.3,3.8-15.8,8.9-22.3,14.9l-12.2-9.1l-19.2,25.6l12.2,9.1c-5.4,10.8-8.5,22.8-9.1,35.3l-15,2.1l4.5,31.8l15.1-2.1c4,11.9,10.4,22.5,18.6,31.4l-9.1,12.2l25.6,19.3l9.1-12.2c10.8,5.4,22.8,8.6,35.3,9.1l2.1,15.1l31.7-4.5l-2.1-15c3.1-1.1,6.2-2.3,9.1-3.6c8.2-3.8,15.7-8.9,22.3-14.9l12.2,9.1l19.2-25.7L699,629C704.4,618.2,707.5,606.2,708.1,593.7z M647.7,648.8c-5.7,2.6-11.8,4.5-18.3,5.4c-35.5,5.1-68.3-19.6-73.4-55.1c-4.1-29,11.6-56.2,36.8-68c5.7-2.6,11.8-4.5,18.3-5.4c3.7-0.5,7.4-0.7,11.1-0.6c2.6,0.1,5.1,0.3,7.6,0.7c27.7,4.1,50.5,25.9,54.7,55.1C688.6,609.8,672.9,637,647.7,648.8z M643.1,653.2c-4.3,1.6-8.8,2.7-13.3,3.3c-17.8,2.5-35.5-2-49.8-12.8c-14.4-10.8-23.7-26.5-26.2-44.3c-4.2-29.5,11.1-57.8,38.1-70.4c6-2.8,12.4-4.7,19-5.6c3.9-0.5,7.7-0.8,11.5-0.6c2.6,0.1,5.2,0.3,7.9,0.7c29.2,4.3,52.5,27.8,56.7,57.1c4.2,29.5-11.1,57.8-38.1,70.4l0,0C646.9,651.8,645,652.6,643.1,653.2z M599,531.1c-1.8,0.6-3.5,1.4-5.2,2.2c-25.1,11.7-39.4,38-35.5,65.5c2.4,16.5,11,31.2,24.4,41.2s29.8,14.2,46.4,11.9c6.1-0.9,12.1-2.6,17.6-5.2l0,0c25.1-11.7,39.4-38,35.5-65.5c-3.9-27.2-25.5-49-52.7-53.1c-2.4-0.4-4.9-0.6-7.3-0.6c-3.5-0.1-7.1,0.1-10.7,0.6C607.2,528.7,603,529.7,599,531.1z"/></g></g></g><g><polygon fill="#DDB01F" points="542.9,736.9 505.4,723.5 505.4,610.5 542.9,610.5 "/></g><g><g><g><polygon fill="#EFC243" points="482.9,632.4 520.4,632.4 542.9,610.5 505.4,610.5 "/></g></g></g><g><g><rect x="542.9" y="610.5" fill="#F5C826" width="187" height="126.5"/></g></g><g><polygon fill="#FFD961" points="752.4,632.4 565.4,632.4 542.9,610.5 729.9,610.5 "/></g></g><path fill="#999999" d="M300.5,692.9c0,0-0.9,4.8,7.2,7.2c4.7,1.5,12.9,1.2,25.3,1.2c33.4,0,172.5,0,172.5,0v3.3H318.3C318.3,704.7,300.5,706.4,300.5,692.9z"/></g></svg>