<?xml version="1.0" encoding="utf-8"?><!-- Generator: Adobe Illustrator 21.0.2, SVG Export Plug-In . SVG Version: 6.00 Build 0) --><svg version="1.1" id="Layer_1" xmlns="http://www.w3.org/2000/svg" xmlns:xlink="http://www.w3.org/1999/xlink" x="0px" y="0px" viewBox="0 0 614.2 722.9" enable-background="new 0 0 614.2 722.9" xml:space="preserve"><g><g><linearGradient id="SVGID_1_" gradientUnits="userSpaceOnUse" x1="418.1" y1="535.85" x2="103.3" y2="535.85" gradientTransform="matrix(1 0 0 -1 0 722)"><stop offset="0.1026" style="stop-color:#F1C53C"/><stop offset="0.659" style="stop-color:#EEB33E"/><stop offset="1" style="stop-color:#CF9C38"/></linearGradient><polygon fill="url(#SVGID_1_)" points="392.1,231 392.1,0 103.3,0 103.3,372.3 418.1,372.3 418.1,244 "/><rect x="135.5" y="11.9" fill="#ECECEC" width="248" height="327.2"/><rect x="112.1" y="34.8" fill="#FFFFFF" width="248" height="327.2"/><g><rect x="232.7" y="77.7" fill="#E4E4EA" width="107.5" height="3.2"/></g><g><path fill="#E4E4EA" d="M340.2,171.5H333v-3.2h7.2V171.5z M325.9,171.5h-7.2v-3.2h7.2V171.5z M311.6,171.5h-7.2v-3.2h7.2V171.5z M297.2,171.5H290v-3.2h7.2V171.5z M282.9,171.5h-7.2v-3.2h7.2V171.5z M268.6,171.5h-7.2v-3.2h7.2V171.5z M254.2,171.5H247v-3.2h7.2V171.5z M239.9,171.5h-7.2v-3.2h7.2V171.5z M225.6,171.5h-7.2v-3.2h7.2V171.5z M211.3,171.5h-7.2v-3.2h7.2V171.5z M196.9,171.5h-7.2v-3.2h7.2V171.5z M182.6,171.5h-0.4v-3.2h0.4V171.5z"/></g><g><rect x="182.3" y="182.2" fill="#E4E4EA" width="157.9" height="3.2"/></g><g><rect x="182.3" y="196.7" fill="#E4E4EA" width="157.9" height="3.2"/></g><g><rect x="182.3" y="302.6" fill="#E4E4EA" width="157.9" height="3.2"/></g><polygon fill="#F1C53C" points="0,333.8 16.3,319.7 16.3,447.9 103.3,372.3 103.3,0 0,89.8 "/></g><g><g><linearGradient id="SVGID_2_" gradientUnits="userSpaceOnUse" x1="456.8" y1="123.6409" x2="456.8" y2="50.0984" gradientTransform="matrix(1 0 0 -1 0 722)"><stop offset="0" style="stop-color:#4F5B7E"/><stop offset="7.132825e-02" style="stop-color:#66718F"/><stop offset="0.2311" style="stop-color:#949CB1"/><stop offset="0.3913" style="stop-color:#BBBFCD"/><stop offset="0.5492" style="stop-color:#D9DBE3"/><stop offset="0.7041" style="stop-color:#EEEFF2"/><stop offset="0.8549" style="stop-color:#FBFBFC"/><stop offset="0.9965" style="stop-color:#FFFFFF"/></linearGradient><polygon fill="url(#SVGID_2_)" points="498.1,680.1 363.7,680.1 425.3,604.5 549.6,604.5 549.9,616.6 "/></g><path fill="#E2CAC3" d="M482.1,205.6l4.3-0.9V191l21.3-3.3c0,0,2.3,13,2.8,13s6,1.8,6,1.8l-25.2,46.9L482.1,205.6z"/><path fill="#0A5DE2" d="M543.3,325.6l-90.1,5.2l3.1,262c0,0-27.1,0.8-31.4,10.3l-2,4.4l49.2-0.9L492.6,400c0.9-2.6,4.7-1.9,4.7,0.8l11.5,84.7L533,591.2l-2,17.5l0.8,6c0.4,3,3.1,5.1,6.1,4.7l0,0c2.7-0.3,13-1.6,13.1-4.3l-5.4-40l-10.8-92L546.4,361L543.3,325.6z"/><linearGradient id="SVGID_3_" gradientUnits="userSpaceOnUse" x1="476.781" y1="348.3774" x2="441.4819" y2="260.1297" gradientTransform="matrix(1 0 0 -1 0 722)"><stop offset="0" style="stop-color:#241084;stop-opacity:0.8"/><stop offset="0.9896" style="stop-color:#0A5DE2;stop-opacity:0"/></linearGradient><path fill="url(#SVGID_3_)" d="M487.7,449.5l5.2-51.5l4.2,0.7l-43.9-69.3l1.2,108.5C465.9,444.1,479.4,445.3,487.7,449.5z"/><polygon fill="#1F1F89" points="467.1,146.7 467.3,208.1 487.1,204.7 488.1,152.6 "/><circle fill="#E2CAC3" cx="491.4" cy="163.6" r="31.6"/><path fill="#1F1F89" d="M476.8,150.6c-5.4,5.2-12.3,9.2-19.8,9.6c-0.3-8.4,2.5-18.1,8.2-24.2c3.8-4,15.7-11.2,21.9-4.7C491.4,135.7,480.4,147,476.8,150.6z"/><path fill="#F76D59" d="M555.3,300h22l-19-75.4c-1.9-7.4-7.2-13.5-14.2-16.5l-31.4-6.5l-22.5,40.3l-7.2-36.3l-16.5,2.3c-4.2,0.7-7.9,2.8-10.6,6.1l-48.3,60.1l3.2,23.4l45.3-42.7l3.6,47.8l-6.5,25.9c-1,6,2.9,11.8,8.8,13.2l72,16.4c6,1.4,11.7-3.6,11.1-9.7l-9.9-45.8l7.6-49.9L555.3,300z"/><path fill="#E2CAC3" d="M407.6,274.1l-54.7-18c0.8-2.9-0.4-7.7-3.1-10.1c-5.2-4.7-12.8-5.2-17.5,0s-4.2,13.2,1,17.9c3.6,3.2,8.6,4,12.8,2.4l64.6,31.1L407.6,274.1z"/><g><path fill="#2D4B9A" d="M532,398.9l37.9-23.7c2.2-1.4,2.8-4.2,1.5-6.4l-37.8-60.6c-1.4-2.2-4.2-2.8-6.4-1.5l-37.9,23.7c-2.2,1.4-2.8,4.2-1.5,6.4l37.8,60.6C526.9,399.6,529.8,400.2,532,398.9z"/><path fill="#335FA9" d="M531.7,398.3l37.8-23.6c1.9-1.2,2.5-3.7,1.3-5.6l-37.7-60.4c-1.2-1.9-3.7-2.5-5.6-1.3L489.7,331c-1.9,1.2-2.5,3.7-1.3,5.6l37.7,60.4C527.2,398.9,529.7,399.4,531.7,398.3z"/><rect x="504.9" y="320.4" transform="matrix(0.8482 -0.5296 0.5296 0.8482 -106.5035 333.9773)" fill="#7CCAE1" width="49.2" height="64.8"/><ellipse transform="matrix(0.8482 -0.5297 0.5297 0.8482 -93.1112 319.196)" fill="#F1C53C" cx="510.3" cy="322" rx="0.4" ry="0.4"/><g><ellipse transform="matrix(0.8482 -0.5296 0.5296 0.8482 -119.7809 348.7711)" fill="#ECC541" cx="548.7" cy="383.4" rx="1.9" ry="1.9"/><linearGradient id="SVGID_4_" gradientUnits="userSpaceOnUse" x1="864.5865" y1="1328.9836" x2="869.3264" y2="1328.9836" gradientTransform="matrix(0.9226 -0.3858 -0.3858 -0.9226 261.5387 1943.9803)"><stop offset="0.1026" style="stop-color:#F1C53C"/><stop offset="0.659" style="stop-color:#EEB33E"/><stop offset="1" style="stop-color:#CF9C38"/></linearGradient><path fill="url(#SVGID_4_)" d="M549.6,385.6c-0.5,0.2-1,0.2-1.4,0.1c-0.6-0.1-1.1-0.5-1.5-1.1c-0.3-0.5-0.4-1.2-0.3-1.8c0.1-0.6,0.5-1.1,1.1-1.5c0.5-0.3,1.2-0.4,1.8-0.3s1.1,0.5,1.5,1.1c0.3,0.5,0.4,1.2,0.3,1.8c-0.1,0.6-0.5,1.1-1.1,1.5C549.8,385.5,549.7,385.5,549.6,385.6z M548.1,382.1c-0.1,0-0.1,0.1-0.2,0.1c-0.3,0.2-0.5,0.5-0.6,0.9s0,0.7,0.2,1l0,0c0.2,0.3,0.5,0.5,0.9,0.6s0.7,0,1-0.2s0.5-0.5,0.6-0.9s0-0.7-0.2-1s-0.5-0.5-0.9-0.6C548.7,382,548.4,382,548.1,382.1z"/></g><rect x="490.9" y="327.7" transform="matrix(0.8482 -0.5296 0.5296 0.8482 -98.9127 310.8691)" fill="#2D4B9A" width="4.1" height="0.7"/><rect x="491.1" y="341.5" transform="matrix(0.8482 -0.5297 0.5297 0.8482 -107.1869 312.4843)" fill="#2D4B9A" width="0.9" height="3.4"/><rect x="494" y="345.9" transform="matrix(0.8482 -0.5296 0.5296 0.8482 -109.0639 314.6088)" fill="#2D4B9A" width="0.9" height="3.4"/></g><path fill="#E2CAC3" d="M499.6,359.9c-3.4,6.1-1.3,13.8,4.8,17.2c6.1,3.4,13.8,1.3,17.2-4.8c1.5-2.7,2-5.7,1.4-8.5l54.3-63.9h-22L512,353.6C507.1,353.1,502.2,355.4,499.6,359.9z"/><path fill="#1F1F89" d="M503,161.5c0.6,0.3,1.3,0.6,2,0.3c0.6-0.2,1-0.9,1.4-1.5c1.6-2.1,5.2-2.1,7.1-0.2c1.9,1.9,2.1,5.1,0.8,7.5c-1.3,2.3-3.9,3.8-6.6,4.2c-0.9,3.1-1.4,6.6,0.3,16c1.4,7.5-0.6,13.9-2.7,16.4c4.3,0.3,9.9-0.3,14.3,0c0.8,0.1,1.8,0.1,2.4-0.4c0.6-0.5,0.8-1.3,1-2.1c1.6-7.5,3.9-27.2,3.8-34.8c0-7.4-1.1-16.2-3.8-23.1c-4.1-10.1-22-22.8-35.9-11.5C477.3,140.3,496,158.1,503,161.5z"/></g><line fill="none" stroke="#000000" stroke-width="4" stroke-linecap="round" stroke-linejoin="round" stroke-miterlimit="10" x1="340.2" y1="244.7" x2="295.2" y2="187.7"/><path fill="#C1272D" d="M171.5,110.7L191,141c-5.8,3.7-12.6,5.7-19.5,5.7c-19.8,0-36-16.3-36-36s16.3-36,36-36s36,16.3,36,36H171.5z"/><polygon fill="#E6E6E6" points="182.3,286.9 196.8,257.5 210.4,272.2 227,244.7 249.8,270 259.5,259.2 274.6,268.3 295.2,270 301.5,239.7 311.8,265.8 326.7,260.9 340.2,305.8 177.3,305.8 "/><circle fill="#C1272D" cx="182.8" cy="285.4" r="1.3"/><ellipse transform="matrix(0.6033 -0.7975 0.7975 0.6033 -127.8183 259.1497)" fill="#C1272D" cx="196.6" cy="258.1" rx="1.3" ry="1.3"/><ellipse transform="matrix(0.6033 -0.7975 0.7975 0.6033 -105.0694 278.2)" fill="#C1272D" cx="227.1" cy="244.7" rx="1.3" ry="1.3"/><ellipse transform="matrix(0.6033 -0.7975 0.7975 0.6033 -104.1534 309.9511)" fill="#C1272D" cx="259.5" cy="259.7" rx="1.3" ry="1.3"/><ellipse transform="matrix(0.6033 -0.7975 0.7975 0.6033 -98.2036 342.5297)" fill="#C1272D" cx="295.2" cy="270" rx="1.3" ry="1.3"/><ellipse transform="matrix(0.6033 -0.7975 0.7975 0.6033 -78.9136 364.3978)" fill="#C1272D" cx="326.8" cy="261.5" rx="1.3" ry="1.3"/><ellipse transform="matrix(0.6033 -0.7975 0.7975 0.6033 -88.2217 353.9663)" fill="#C1272D" cx="311.7" cy="265.7" rx="1.3" ry="1.3"/><ellipse transform="matrix(0.6033 -0.7975 0.7975 0.6033 -133.5592 275.9314)" fill="#C1272D" cx="210.6" cy="272.2" rx="1.3" ry="1.3"/><ellipse transform="matrix(0.6033 -0.7975 0.7975 0.6033 -116.2729 306.2692)" fill="#C1272D" cx="249.7" cy="270" rx="1.3" ry="1.3"/><ellipse transform="matrix(0.6033 -0.7975 0.7975 0.6033 -104.9391 325.2979)" fill="#C1272D" cx="274.5" cy="268.1" rx="1.3" ry="1.3"/><ellipse transform="matrix(0.6033 -0.7975 0.7975 0.6033 -72.5349 336.187)" fill="#C1272D" cx="301.7" cy="241" rx="1.3" ry="1.3"/><g opacity="0.2"><linearGradient id="SVGID_5_" gradientUnits="userSpaceOnUse" x1="182.8" y1="435.3377" x2="182.8" y2="416.1666" gradientTransform="matrix(1 0 0 -1 0 722)"><stop offset="0" style="stop-color:#000000"/><stop offset="0.9965" style="stop-color:#000000;stop-opacity:0"/></linearGradient><line fill="none" stroke="url(#SVGID_5_)" stroke-width="0.9682" stroke-miterlimit="10" x1="182.8" y1="305.8" x2="182.8" y2="286.7"/><linearGradient id="SVGID_6_" gradientUnits="userSpaceOnUse" x1="210.6" y1="448.5" x2="210.6" y2="416.1579" gradientTransform="matrix(1 0 0 -1 0 722)"><stop offset="0" style="stop-color:#000000"/><stop offset="0.9965" style="stop-color:#000000;stop-opacity:0"/></linearGradient><line fill="none" stroke="url(#SVGID_6_)" stroke-width="0.9682" stroke-miterlimit="10" x1="210.6" y1="305.8" x2="210.6" y2="273.5"/><linearGradient id="SVGID_7_" gradientUnits="userSpaceOnUse" x1="227.1" y1="476.3" x2="227.1" y2="416.2" gradientTransform="matrix(1 0 0 -1 0 722)"><stop offset="0" style="stop-color:#000000"/><stop offset="0.9965" style="stop-color:#000000;stop-opacity:0"/></linearGradient><line fill="none" stroke="url(#SVGID_7_)" stroke-width="0.9682" stroke-miterlimit="10" x1="227.1" y1="305.8" x2="227.1" y2="245.7"/><linearGradient id="SVGID_8_" gradientUnits="userSpaceOnUse" x1="249.7" y1="450.7508" x2="249.7" y2="416.1508" gradientTransform="matrix(1 0 0 -1 0 722)"><stop offset="0" style="stop-color:#000000"/><stop offset="0.9965" style="stop-color:#000000;stop-opacity:0"/></linearGradient><line fill="none" stroke="url(#SVGID_8_)" stroke-width="0.9682" stroke-miterlimit="10" x1="249.7" y1="305.8" x2="249.7" y2="271.2"/><linearGradient id="SVGID_9_" gradientUnits="userSpaceOnUse" x1="259.5" y1="461.5" x2="259.5" y2="416.1357" gradientTransform="matrix(1 0 0 -1 0 722)"><stop offset="0" style="stop-color:#000000"/><stop offset="0.9965" style="stop-color:#000000;stop-opacity:0"/></linearGradient><line fill="none" stroke="url(#SVGID_9_)" stroke-width="0.9682" stroke-miterlimit="10" x1="259.5" y1="305.8" x2="259.5" y2="260.5"/><linearGradient id="SVGID_10_" gradientUnits="userSpaceOnUse" x1="274.5" y1="452.6" x2="274.5" y2="416.132" gradientTransform="matrix(1 0 0 -1 0 722)"><stop offset="0" style="stop-color:#000000"/><stop offset="0.9965" style="stop-color:#000000;stop-opacity:0"/></linearGradient><line fill="none" stroke="url(#SVGID_10_)" stroke-width="0.9682" stroke-miterlimit="10" x1="274.5" y1="305.8" x2="274.5" y2="269.4"/><linearGradient id="SVGID_11_" gradientUnits="userSpaceOnUse" x1="295.3" y1="450.7543" x2="295.3" y2="416.1543" gradientTransform="matrix(1 0 0 -1 0 722)"><stop offset="0" style="stop-color:#000000"/><stop offset="0.9965" style="stop-color:#000000;stop-opacity:0"/></linearGradient><line fill="none" stroke="url(#SVGID_11_)" stroke-width="0.9682" stroke-miterlimit="10" x1="295.3" y1="305.8" x2="295.3" y2="271.2"/><linearGradient id="SVGID_12_" gradientUnits="userSpaceOnUse" x1="301.7" y1="479.6" x2="301.7" y2="416.2" gradientTransform="matrix(1 0 0 -1 0 722)"><stop offset="0" style="stop-color:#000000"/><stop offset="0.9965" style="stop-color:#000000;stop-opacity:0"/></linearGradient><line fill="none" stroke="url(#SVGID_12_)" stroke-width="0.9682" stroke-miterlimit="10" x1="301.7" y1="305.8" x2="301.7" y2="242.4"/><linearGradient id="SVGID_13_" gradientUnits="userSpaceOnUse" x1="311.8" y1="455.5486" x2="311.8" y2="416.1666" gradientTransform="matrix(1 0 0 -1 0 722)"><stop offset="0" style="stop-color:#000000"/><stop offset="0.9965" style="stop-color:#000000;stop-opacity:0"/></linearGradient><line fill="none" stroke="url(#SVGID_13_)" stroke-width="0.9682" stroke-miterlimit="10" x1="311.8" y1="305.8" x2="311.8" y2="266.5"/><linearGradient id="SVGID_14_" gradientUnits="userSpaceOnUse" x1="326.8" y1="459.5" x2="326.8" y2="416.1357" gradientTransform="matrix(1 0 0 -1 0 722)"><stop offset="0" style="stop-color:#000000"/><stop offset="0.9965" style="stop-color:#000000;stop-opacity:0"/></linearGradient><line fill="none" stroke="url(#SVGID_14_)" stroke-width="0.9682" stroke-miterlimit="10" x1="326.8" y1="305.8" x2="326.8" y2="262.5"/><linearGradient id="SVGID_15_" gradientUnits="userSpaceOnUse" x1="196.6" y1="462.3" x2="196.6" y2="416.2" gradientTransform="matrix(1 0 0 -1 0 722)"><stop offset="0" style="stop-color:#000000"/><stop offset="0.9965" style="stop-color:#000000;stop-opacity:0"/></linearGradient><line fill="none" stroke="url(#SVGID_15_)" stroke-width="0.9682" stroke-miterlimit="10" x1="196.6" y1="305.8" x2="196.6" y2="259.7"/></g></g></svg>