<?xml version="1.0" encoding="utf-8"?><!-- Generator: Adobe Illustrator 21.0.2, SVG Export Plug-In . SVG Version: 6.00 Build 0) --><svg version="1.1" id="Layer_1" xmlns="http://www.w3.org/2000/svg" xmlns:xlink="http://www.w3.org/1999/xlink" x="0px" y="0px" viewBox="0 0 787.1 986" enable-background="new 0 0 787.1 986" xml:space="preserve"><g><g><rect x="590.7" fill="#DBAD45" width="52.2" height="586"/><rect x="590.7" y="580.8" fill="#DBAD45" width="52.2" height="5.2"/><rect x="590.7" fill="#DBAD45" width="52.2" height="5.2"/><g><rect x="590.7" y="570.5" fill="#FFFFFF" width="17.6" height="3"/><rect x="590.7" y="561.8" fill="#FFFFFF" width="17.6" height="3"/><rect x="590.7" y="553.1" fill="#FFFFFF" width="17.6" height="3"/><rect x="590.7" y="544.4" fill="#FFFFFF" width="17.6" height="3"/><rect x="590.7" y="535.6" fill="#FFFFFF" width="35.2" height="3"/><rect x="590.7" y="526.9" fill="#FFFFFF" width="17.6" height="3"/><rect x="590.7" y="518.2" fill="#FFFFFF" width="17.6" height="3"/><rect x="590.7" y="509.4" fill="#FFFFFF" width="17.6" height="3"/><rect x="590.7" y="500.7" fill="#FFFFFF" width="17.6" height="3"/><rect x="590.7" y="492" fill="#FFFFFF" width="35.2" height="3"/><rect x="590.7" y="483.3" fill="#FFFFFF" width="17.6" height="3"/><rect x="590.7" y="474.5" fill="#FFFFFF" width="17.6" height="3"/><rect x="590.7" y="465.8" fill="#FFFFFF" width="17.6" height="3"/><rect x="590.7" y="457.1" fill="#FFFFFF" width="17.6" height="3"/><rect x="590.7" y="448.4" fill="#FFFFFF" width="35.2" height="3"/><rect x="590.7" y="439.6" fill="#FFFFFF" width="17.6" height="3"/><rect x="590.7" y="430.9" fill="#FFFFFF" width="17.6" height="3"/><rect x="590.7" y="422.2" fill="#FFFFFF" width="17.6" height="3"/><rect x="590.7" y="413.4" fill="#FFFFFF" width="17.6" height="3"/><rect x="590.7" y="404.7" fill="#FFFFFF" width="35.2" height="3"/><rect x="590.7" y="396" fill="#FFFFFF" width="17.6" height="3"/><rect x="590.7" y="387.3" fill="#FFFFFF" width="17.6" height="3"/><rect x="590.7" y="378.5" fill="#FFFFFF" width="17.6" height="3"/><rect x="590.7" y="369.8" fill="#FFFFFF" width="17.6" height="3"/><rect x="590.7" y="361.1" fill="#FFFFFF" width="35.2" height="3"/><rect x="590.7" y="352.3" fill="#FFFFFF" width="17.6" height="3"/><rect x="590.7" y="343.6" fill="#FFFFFF" width="17.6" height="3"/><rect x="590.7" y="334.9" fill="#FFFFFF" width="17.6" height="3"/><rect x="590.7" y="326.2" fill="#FFFFFF" width="17.6" height="3"/><rect x="590.7" y="317.4" fill="#FFFFFF" width="35.2" height="3"/><rect x="590.7" y="308.7" fill="#FFFFFF" width="17.6" height="3"/><rect x="590.7" y="300" fill="#FFFFFF" width="17.6" height="3"/><rect x="590.7" y="291.3" fill="#FFFFFF" width="17.6" height="3"/><rect x="590.7" y="282.5" fill="#FFFFFF" width="17.6" height="3"/><rect x="590.7" y="273.8" fill="#FFFFFF" width="35.2" height="3"/><rect x="590.7" y="265.1" fill="#FFFFFF" width="17.6" height="3"/><rect x="590.7" y="256.3" fill="#FFFFFF" width="17.6" height="3"/><rect x="590.7" y="247.6" fill="#FFFFFF" width="17.6" height="3"/><rect x="590.7" y="238.9" fill="#FFFFFF" width="17.6" height="3"/><rect x="590.7" y="230.2" fill="#FFFFFF" width="35.2" height="3"/><rect x="590.7" y="221.4" fill="#FFFFFF" width="17.6" height="3"/><rect x="590.7" y="212.7" fill="#FFFFFF" width="17.6" height="3"/><rect x="590.7" y="204" fill="#FFFFFF" width="17.6" height="3"/><rect x="590.7" y="195.3" fill="#FFFFFF" width="17.6" height="3"/><rect x="590.7" y="186.5" fill="#FFFFFF" width="35.2" height="3"/><rect x="590.7" y="177.8" fill="#FFFFFF" width="17.6" height="3"/><rect x="590.7" y="169.1" fill="#FFFFFF" width="17.6" height="3"/><rect x="590.7" y="160.3" fill="#FFFFFF" width="17.6" height="3"/><rect x="590.7" y="151.6" fill="#FFFFFF" width="17.6" height="3"/><rect x="590.7" y="142.9" fill="#FFFFFF" width="35.2" height="3"/><rect x="590.7" y="134.2" fill="#FFFFFF" width="17.6" height="3"/><rect x="590.7" y="125.4" fill="#FFFFFF" width="17.6" height="3"/><rect x="590.7" y="116.7" fill="#FFFFFF" width="17.6" height="3"/><rect x="590.7" y="108" fill="#FFFFFF" width="17.6" height="3"/><rect x="590.7" y="99.2" fill="#FFFFFF" width="35.2" height="3"/><rect x="590.7" y="90.5" fill="#FFFFFF" width="17.6" height="3"/><rect x="590.7" y="81.8" fill="#FFFFFF" width="17.6" height="3"/><rect x="590.7" y="73.1" fill="#FFFFFF" width="17.6" height="3"/><rect x="590.7" y="64.3" fill="#FFFFFF" width="17.6" height="3"/><rect x="590.7" y="55.6" fill="#FFFFFF" width="35.2" height="3"/><rect x="590.7" y="46.9" fill="#FFFFFF" width="17.6" height="3"/><rect x="590.7" y="38.2" fill="#FFFFFF" width="17.6" height="3"/><rect x="590.7" y="29.4" fill="#FFFFFF" width="17.6" height="3"/><rect x="590.7" y="20.7" fill="#FFFFFF" width="17.6" height="3"/><rect x="590.7" y="12" fill="#FFFFFF" width="35.2" height="3"/></g></g><g><linearGradient id="SVGID_1_" gradientUnits="userSpaceOnUse" x1="588.7" y1="405.5598" x2="588.7" y2="338.0779" gradientTransform="matrix(1 0 0 -1 0 986)"><stop offset="0" style="stop-color:#4F5B7E"/><stop offset="7.132825e-02" style="stop-color:#66718F"/><stop offset="0.2311" style="stop-color:#949CB1"/><stop offset="0.3913" style="stop-color:#BBBFCD"/><stop offset="0.5492" style="stop-color:#D9DBE3"/><stop offset="0.7041" style="stop-color:#EEEFF2"/><stop offset="0.8549" style="stop-color:#FBFBFC"/><stop offset="0.9965" style="stop-color:#FFFFFF"/></linearGradient><polygon fill="url(#SVGID_1_)" points="585.8,655.4 535,655.4 591.6,586.1 642.5,586.1 "/></g><g><g><linearGradient id="SVGID_2_" gradientUnits="userSpaceOnUse" x1="650.25" y1="250.6638" x2="650.25" y2="141.6646" gradientTransform="matrix(1 0 0 -1 0 986)"><stop offset="0" style="stop-color:#4F5B7E"/><stop offset="7.132825e-02" style="stop-color:#66718F"/><stop offset="0.2311" style="stop-color:#949CB1"/><stop offset="0.3913" style="stop-color:#BBBFCD"/><stop offset="0.5492" style="stop-color:#D9DBE3"/><stop offset="0.7041" style="stop-color:#EEEFF2"/><stop offset="0.8549" style="stop-color:#FBFBFC"/><stop offset="0.9965" style="stop-color:#FFFFFF"/></linearGradient><path fill="url(#SVGID_2_)" d="M699,852.3H516.3c-2.5,0-3.9-2.9-2.3-4.8l85.2-105.4c0.6-0.7,1.4-1.1,2.3-1.1h182.7c2.5,0,3.9,2.9,2.3,4.8l-85.2,105.4C700.7,851.9,699.9,852.3,699,852.3z"/></g><g><g><g><g><rect x="760.4" y="455.7" transform="matrix(0.9865 -0.164 0.164 0.9865 -88.3302 133.1321)" fill="#1F1F89" width="3.6" height="291.7"/></g><g><rect x="672.5" y="455.7" transform="matrix(0.9865 -0.164 0.164 0.9865 -89.5211 118.7321)" fill="#1F1F89" width="3.6" height="291.7"/></g><g><rect x="660.6" y="517" fill="#1F1F89" width="88.6" height="3.6"/></g><g><rect x="666.9" y="555.4" fill="#1F1F89" width="88.6" height="3.6"/></g><g><rect x="673.1" y="593.9" fill="#1F1F89" width="88.6" height="3.6"/></g><g><rect x="679.4" y="632.3" fill="#1F1F89" width="88.6" height="3.6"/></g><g><rect x="685.7" y="670.7" fill="#1F1F89" width="88.6" height="3.6"/></g><g><rect x="691.9" y="709.1" fill="#1F1F89" width="88.6" height="3.6"/></g></g><g><g><rect x="478" y="599.8" transform="matrix(0.1641 -0.9864 0.9864 0.1641 -71.9834 1118.2097)" fill="#3878FF" width="291.7" height="3.6"/></g><g><rect x="565.8" y="599.7" transform="matrix(0.1642 -0.9864 0.9864 0.1642 1.4654 1204.7468)" fill="#3878FF" width="291.7" height="3.6"/></g><g><rect x="636.8" y="517" fill="#3878FF" width="88.6" height="3.6"/></g><g><rect x="630.5" y="555.4" fill="#3878FF" width="88.6" height="3.6"/></g><g><rect x="624.3" y="593.9" fill="#3878FF" width="88.6" height="3.6"/></g><g><rect x="618" y="632.3" fill="#3878FF" width="88.6" height="3.6"/></g><g><rect x="611.7" y="670.7" fill="#3878FF" width="88.6" height="3.6"/></g><g><rect x="605.5" y="709.1" fill="#3878FF" width="88.6" height="3.6"/></g></g><g><rect x="640.6" y="453.2" fill="#0A5DE2" width="108" height="10.8"/></g></g><g><g><path fill="#FCD923" d="M720.3,374.1c0-18.1-14.7-32.8-32.8-32.8s-32.8,14.7-32.8,32.8c0,11.3,8.1,17.9,13,27.1c1.5,2.8,2.6,12.8,2.6,12.8c0,6.1,5,11.1,11.1,11.1h12.2c6.1,0,11.1-5,11.1-11.1c0,0,1.4-9.9,2.9-12.8C712.5,392,720.3,385.4,720.3,374.1z"/><path fill="#FCD923" d="M687.5,334.7c-1.4,0-2.6-1.2-2.6-2.6v-20.2c0-1.4,1.2-2.6,2.6-2.6s2.6,1.2,2.6,2.6v20.2C690.1,333.5,689,334.7,687.5,334.7z"/><path fill="#FCD923" d="M703.3,337.3c-0.4,0-0.7-0.1-1-0.2c-1.3-0.6-1.9-2.1-1.3-3.4l7.8-17.6c0.6-1.3,2.1-1.9,3.4-1.3c1.3,0.6,1.9,2.1,1.3,3.4l-7.8,17.6C705.2,336.8,704.3,337.3,703.3,337.3z"/><path fill="#FCD923" d="M716.4,344.8c-0.7,0-1.4-0.3-1.9-0.9c-1-1.1-0.9-2.7,0.2-3.7l12.8-11.5c1.1-1,2.7-0.9,3.7,0.2s0.9,2.7-0.2,3.7l-12.8,11.5C717.6,344.6,717,344.8,716.4,344.8z"/><path fill="#FCD923" d="M656.9,344.8c-0.6,0-1.2-0.2-1.7-0.7l-12.8-11.5c-1.1-1-1.2-2.6-0.2-3.7s2.6-1.2,3.7-0.2l12.8,11.5c1.1,1,1.2,2.6,0.2,3.7C658.3,344.5,657.6,344.8,656.9,344.8z"/><path fill="#FCD923" d="M671.8,337.3c-1,0-1.9-0.6-2.4-1.5l-7.8-17.6c-0.6-1.3,0-2.8,1.3-3.4s2.8,0,3.4,1.3l7.8,17.6c0.6,1.3,0,2.8-1.3,3.4C672.5,337.3,672.2,337.3,671.8,337.3z"/><g><g><circle fill="none" stroke="#FFFFFF" stroke-width="0.7782" stroke-miterlimit="10" cx="677.2" cy="379.8" r="5.4"/><circle fill="none" stroke="#FFFFFF" stroke-width="0.7782" stroke-miterlimit="10" cx="684.1" cy="379.8" r="5.4"/><circle fill="none" stroke="#FFFFFF" stroke-width="0.7782" stroke-miterlimit="10" cx="691" cy="379.8" r="5.4"/><circle fill="none" stroke="#FFFFFF" stroke-width="0.7782" stroke-miterlimit="10" cx="697.9" cy="379.8" r="5.4"/></g><path fill="none" stroke="#FFFFFF" stroke-width="0.7782" stroke-miterlimit="10" d="M682.6,422.6v-20.3c0-3.2-0.7-6.4-2-9.4l-4.8-7.9"/><path fill="none" stroke="#FFFFFF" stroke-width="0.7782" stroke-miterlimit="10" d="M691.5,422.6v-20.3c0-3.2,0.7-6.4,2-9.3l4.8-7.9"/></g><path fill="#1F1F89" d="M701.3,427.9h-27.5c-1.5,0-2.7-1.2-2.7-2.7l0,0c0-1.5,1.2-2.7,2.7-2.7h27.5c1.5,0,2.7,1.2,2.7,2.7l0,0C704,426.6,702.8,427.9,701.3,427.9z"/><path fill="#1F1F89" d="M701.3,435.9h-27.5c-1.5,0-2.7-1.2-2.7-2.7l0,0c0-1.5,1.2-2.7,2.7-2.7h27.5c1.5,0,2.7,1.2,2.7,2.7l0,0C704,434.7,702.8,435.9,701.3,435.9z"/><path fill="#1F1F89" d="M701.3,443.9h-27.5c-1.5,0-2.7-1.2-2.7-2.7l0,0c0-1.5,1.2-2.7,2.7-2.7h27.5c1.5,0,2.7,1.2,2.7,2.7l0,0C704,442.7,702.8,443.9,701.3,443.9z"/></g></g></g></g><g><g><linearGradient id="SVGID_3_" gradientUnits="userSpaceOnUse" x1="366.6" y1="418.4456" x2="366.6" y2="284.8856" gradientTransform="matrix(1 0 0 -1 0 986)"><stop offset="0" style="stop-color:#4F5B7E"/><stop offset="7.132825e-02" style="stop-color:#66718F"/><stop offset="0.2311" style="stop-color:#949CB1"/><stop offset="0.3913" style="stop-color:#BBBFCD"/><stop offset="0.5492" style="stop-color:#D9DBE3"/><stop offset="0.7041" style="stop-color:#EEEFF2"/><stop offset="0.8549" style="stop-color:#FBFBFC"/><stop offset="0.9965" style="stop-color:#FFFFFF"/></linearGradient><polygon fill="url(#SVGID_3_)" points="439.9,716 181.3,716 293.2,578.8 551.9,578.8 "/></g><g><g><path fill="#CCCCCC" d="M534.5,588.2H304.3c-11.4,0-20.6-9.2-20.6-20.6V78.1c0-11.4,9.2-20.6,20.6-20.6h230.2c11.4,0,20.6,9.2,20.6,20.6v489.4C555.1,578.9,545.9,588.2,534.5,588.2z"/><path fill="#E6E6E6" d="M534.5,57.5h-36.8H341.1h-36.8c-11.4,0-20.6,9.2-20.6,20.6v489.4c0,11.4,9.2,20.6,20.6,20.6h230.2c11.4,0,20.6-9.2,20.6-20.6V78.1C555.1,66.7,545.9,57.5,534.5,57.5z M551.8,567.6c0,9.6-7.8,17.3-17.3,17.3H304.3c-9.6,0-17.3-7.8-17.3-17.3V78.1c0-9.6,7.8-17.3,17.3-17.3h38.3l2.6,5.9c2.5,5.7,8.2,9.4,14.4,9.4h119.7c6.2,0,11.9-3.7,14.4-9.4l2.6-5.9h38.3c9.6,0,17.3,7.8,17.3,17.3L551.8,567.6L551.8,567.6z"/></g><path fill="#F76D59" d="M526.2,252.3h-213c-4.7,0-8.6-3.9-8.6-8.6V106.9c0-4.7,3.9-8.6,8.6-8.6h213c4.7,0,8.6,3.9,8.6,8.6v136.8C534.8,248.5,531,252.3,526.2,252.3z"/><path fill="#3878FF" d="M525.8,364.3h-88.1c-5,0-9.1-4.1-9.1-9.1v-64.6c0-5,4.1-9.1,9.1-9.1h88.1c5,0,9.1,4.1,9.1,9.1v64.6C534.8,360.2,530.8,364.3,525.8,364.3z"/><rect x="304.6" y="432.2" fill="#1F1F89" width="150.3" height="14.5"/><rect x="304.6" y="462.5" fill="#B3B3B3" width="230.2" height="6.9"/><rect x="304.6" y="481.6" fill="#B3B3B3" width="230.2" height="6.9"/><rect x="304.6" y="500.8" fill="#B3B3B3" width="230.2" height="6.9"/><rect x="304.6" y="520" fill="#B3B3B3" width="230.2" height="6.9"/><rect x="304.6" y="539.2" fill="#B3B3B3" width="230.2" height="6.9"/></g></g><g><linearGradient id="SVGID_4_" gradientUnits="userSpaceOnUse" x1="69.7" y1="374.0824" x2="69.7" y2="265.0833" gradientTransform="matrix(1 0 0 -1 0 986)"><stop offset="0" style="stop-color:#3E5384"/><stop offset="0.797" style="stop-color:#3E5384;stop-opacity:0"/></linearGradient><path opacity="0.6" fill="url(#SVGID_4_)" enable-background="new " d="M51.2,728.9H3c-2.5,0-3.9-2.9-2.3-4.8l79.1-98.6c0.6-0.7,1.4-1.1,2.3-1.1l54.3-6.8c2.5,0,3.9,2.9,2.3,4.8L53.5,727.8C52.9,728.5,52.1,728.9,51.2,728.9z"/><g><g><linearGradient id="SVGID_5_" gradientUnits="userSpaceOnUse" x1="2126.3743" y1="667.2096" x2="2120.7598" y2="569.3605" gradientTransform="matrix(-0.9975 7.042295e-02 -7.042295e-02 -0.9975 2271.2732 971.3264)"><stop offset="3.252340e-03" style="stop-color:#241084"/><stop offset="0.9896" style="stop-color:#0A5DE2"/></linearGradient><path fill="url(#SVGID_5_)" d="M72.8,425l31.6,196.5l34.4,1c0,0,5-10-4.1-12.6l-18.5-0.5l9.7-183.7L72.8,425z"/><path fill="#3878FF" d="M57.8,447.4l20,174.1c-1.4,1.7-0.6,4.3-0.3,7.5l11.4,13.3c0,0,2.4,3,5.9,3.9c5.2,1.3,15,1.9,11.6-11.3l-13.6-14.2l15.6-173.2L57.8,447.4z"/><g><path fill="#D8B18B" d="M62.8,291.2c-4.3,12.5-7,32,11.8,37.6c18.7,5.6,31.7-5,36.2-17.4s1.9-29.4-17.5-34.6C80.6,273.5,66.2,281.2,62.8,291.2z"/><path fill="#1F1F89" d="M63.7,321.7c-11.6-5.8-12.8-33,1.4-42.9c15.5-10.7,33.9-6.1,41.8,4.4c0.5,0.6,0.5,3.2,1,3.9c-1.1,1.7-2.5,3.2-4,4.1c-5.8,3.4-13.6,3.8-19.7,1.1C84.1,292.3,67.2,303.2,63.7,321.7z"/><path fill="#D8B18B" d="M80,291.6c-1.3-1.5-3.2-2.4-5.1-2.8c-6.2-1.3-10.2,6.4-8.1,11.6c0.7,1.7,1.8,3.2,3,4.5c1.1,1.1,2.4,2.2,3.9,2.4c1.5,0.2,3-0.3,4.2-1.3c1.2-0.9,2.1-2.2,2.8-3.6C82.3,299.4,82.3,294.3,80,291.6z"/></g><path fill="#C69C6D" d="M154.7,404c4.7-1.2,7.7-6,6.5-10.7s-6-7.7-10.7-6.5c-3,0.7-5.2,2.9-6.2,5.6l-35.8,2.9l1.9,14.8l35.2-9.4C147.5,403.4,151.1,404.8,154.7,404z"/><path fill="#F7F5EF" d="M101.2,336.9l-28.4-1.8L61,346.6l-3.4,105.8c-1.5,5.6,2.4,11.3,8.2,11.8l55.2-2.3c5.4,0.5,10.1-3.7,10.3-9.1l-9.3-63.9c-2.8-11.8-8.7-30.7-14.2-41.7L101.2,336.9z"/><path fill="#D8B18B" d="M136.4,429.1c4.7-1.3,7.5-6.2,6.2-10.9c-1.3-4.7-6.2-7.5-10.9-6.2c-2.4,0.7-4.3,2.2-5.4,4.2l-59.6-4.6l-1.4,18.7l62.9-3.2C130.4,429.1,133.5,429.9,136.4,429.1z"/><path fill="#EAE8E4" d="M61,346.6c-1.2,1.3-14,77-14,77l8.8,7.7l25.8-0.9l0.3-19.8l-12.3,0.8l11.2-34.3l4.5-25.6C85.3,351.5,75.5,330.9,61,346.6z"/></g><g><path fill="#1F1F89" d="M124.3,421.1H69.9c-2.1,0-2.7-2.8-0.8-3.7l48.3-21.8c0.3-0.1,0.5-0.2,0.8-0.2h54.3c2.1,0,2.7,2.8,0.8,3.7L125.1,421C124.8,421.1,124.6,421.1,124.3,421.1z"/><path fill="#FFCE4F" d="M124.3,411.9H69.9c-2.1,0-2.7-2.8-0.8-3.7l48.3-21.8c0.3-0.1,0.5-0.2,0.8-0.2h54.3c2.1,0,2.7,2.8,0.8,3.7L125,411.7C124.8,411.8,124.6,411.9,124.3,411.9z"/><path fill="#AFC6F5" d="M124.3,403.2H69.9c-2.1,0-2.7-2.8-0.8-3.7l48.3-21.8c0.3-0.1,0.5-0.2,0.8-0.2h54.3c2.1,0,2.7,2.8,0.8,3.7L125.1,403C124.8,403.1,124.6,403.2,124.3,403.2z"/></g></g></g><g><g><linearGradient id="SVGID_6_" gradientUnits="userSpaceOnUse" x1="181.85" y1="291.072" x2="181.85" y2="182.0728" gradientTransform="matrix(1 0 0 -1 0 986)"><stop offset="0" style="stop-color:#4F5B7E"/><stop offset="7.132825e-02" style="stop-color:#66718F"/><stop offset="0.2311" style="stop-color:#949CB1"/><stop offset="0.3913" style="stop-color:#BBBFCD"/><stop offset="0.5492" style="stop-color:#D9DBE3"/><stop offset="0.7041" style="stop-color:#EEEFF2"/><stop offset="0.8549" style="stop-color:#FBFBFC"/><stop offset="0.9965" style="stop-color:#FFFFFF"/></linearGradient><path fill="url(#SVGID_6_)" d="M197.7,811.9H80.8c-2.5,0-3.9-2.9-2.3-4.8l85.2-105.4c0.6-0.7,1.4-1.1,2.3-1.1h116.9c2.5,0,3.9,2.9,2.3,4.8L200,810.8C199.5,811.5,198.6,811.9,197.7,811.9z"/></g><g><g><path fill="#5A96FF" d="M360.9,427.9l-80.3-32.2c-4.9-2-7.3-7.5-5.3-12.4l23.8-59.4c2-4.9,7.5-7.3,12.4-5.3l80.3,32.2c4.9,2,7.3,7.5,5.3,12.4l-23.8,59.4C371.4,427.5,365.8,429.9,360.9,427.9z"/><path fill="#3878FF" d="M257.9,688.7l19.5,2.1c4.6,0.5,9,5.8,8.4,10.4v1.8h-40.6l0.1-14.3H257.9z"/><path fill="#3878FF" d="M199.4,688.4V703h-38.1l0,0c0-4.9,3.8-13,8.7-13.3l19.7-1.4L199.4,688.4z"/><polygon fill="#007F61" points="283.6,399.6 251.4,443.7 189.6,437.9 197.4,405.1 240.6,422.4 272.2,394 "/><polygon fill="#3878FF" points="270.1,528.6 267,691.7 246,691.7 229.4,550.2 199.3,696.1 181,695.9 192.4,531.9 190.2,509.3 269.8,510.3 "/><path fill="#00A784" d="M186.9,503.1l2.2-77.1l5-15.4c1.5-4.6,5-8.4,9.5-10.2l10-4h36.6l14,4.8l55.2,25l54-20.9l4.9,11.6L322.9,449l-52.5-9.5l4.1,61.4c0,8.9-7.1,16.3-16,16.6l-54.3,2.1C194.8,520,186.9,512.5,186.9,503.1z"/><circle fill="#D8B18B" cx="278.2" cy="392.1" r="9.9"/><circle fill="#D8B18B" cx="377.5" cy="407.2" r="9.9"/><circle fill="#D8B18B" cx="230.9" cy="362.5" r="27.2"/><circle fill="#1F1F89" cx="226.6" cy="362.5" r="27.2"/></g></g></g><g><g><linearGradient id="SVGID_7_" gradientUnits="userSpaceOnUse" x1="342.25" y1="249.6541" x2="342.25" y2="182.1722" gradientTransform="matrix(1 0 0 -1 0 986)"><stop offset="0" style="stop-color:#4F5B7E"/><stop offset="7.132825e-02" style="stop-color:#66718F"/><stop offset="0.2311" style="stop-color:#949CB1"/><stop offset="0.3913" style="stop-color:#BBBFCD"/><stop offset="0.5492" style="stop-color:#D9DBE3"/><stop offset="0.7041" style="stop-color:#EEEFF2"/><stop offset="0.8549" style="stop-color:#FBFBFC"/><stop offset="0.9965" style="stop-color:#FFFFFF"/></linearGradient><polygon fill="url(#SVGID_7_)" points="328.7,811.3 299.3,811.3 355.8,742 385.2,742 "/></g><g><linearGradient id="SVGID_8_" gradientUnits="userSpaceOnUse" x1="399.15" y1="249.6541" x2="399.15" y2="182.1722" gradientTransform="matrix(1 0 0 -1 0 986)"><stop offset="0" style="stop-color:#4F5B7E"/><stop offset="7.132825e-02" style="stop-color:#66718F"/><stop offset="0.2311" style="stop-color:#949CB1"/><stop offset="0.3913" style="stop-color:#BBBFCD"/><stop offset="0.5492" style="stop-color:#D9DBE3"/><stop offset="0.7041" style="stop-color:#EEEFF2"/><stop offset="0.8549" style="stop-color:#FBFBFC"/><stop offset="0.9965" style="stop-color:#FFFFFF"/></linearGradient><polygon fill="url(#SVGID_8_)" points="385.6,811.3 356.2,811.3 412.8,742 442.1,742 "/></g><g><linearGradient id="SVGID_9_" gradientUnits="userSpaceOnUse" x1="456.1" y1="249.6541" x2="456.1" y2="182.1722" gradientTransform="matrix(1 0 0 -1 0 986)"><stop offset="0" style="stop-color:#4F5B7E"/><stop offset="7.132825e-02" style="stop-color:#66718F"/><stop offset="0.2311" style="stop-color:#949CB1"/><stop offset="0.3913" style="stop-color:#BBBFCD"/><stop offset="0.5492" style="stop-color:#D9DBE3"/><stop offset="0.7041" style="stop-color:#EEEFF2"/><stop offset="0.8549" style="stop-color:#FBFBFC"/><stop offset="0.9965" style="stop-color:#FFFFFF"/></linearGradient><polygon fill="url(#SVGID_9_)" points="442.5,811.3 413.1,811.3 469.7,742 499.1,742 "/></g><rect x="355.9" y="553.3" fill="#1F1F89" width="29.3" height="188.1"/><rect x="412.9" y="599.3" fill="#DBAD45" width="29.3" height="142.2"/><rect x="469.8" y="634.6" fill="#BA4D42" width="29.3" height="106.8"/><ellipse fill="#1F1F89" cx="370.6" cy="741.4" rx="14.6" ry="4.7"/><ellipse fill="#3878FF" cx="370.6" cy="553.3" rx="14.6" ry="4.7"/><ellipse fill="#DBAD45" cx="427.5" cy="741.4" rx="14.6" ry="4.7"/><ellipse fill="#FFCE4F" cx="427.5" cy="599.3" rx="14.6" ry="4.7"/><ellipse fill="#BA4D42" cx="484.4" cy="741.4" rx="14.6" ry="4.7"/><ellipse fill="#ED673E" cx="484.4" cy="634.6" rx="14.6" ry="4.7"/><g><path fill="#1F1F89" d="M483.7,609H479l-0.4,3.2c0.2,0,0.4,0,0.5,0c0.8,0,2.3,0.4,3.4,1.3c1,1,1.5,2.3,1.5,4.1c0,3.5-2.3,6.3-6.2,6.3c-1.3,0-2.6-0.3-3.4-0.7l0.5-2.9c0.7,0.3,1.6,0.6,2.6,0.6c1.8,0,2.9-1.1,2.9-3.1c0-2.4-1.8-3.2-3.9-3.2c-0.5,0-0.9,0-1.3,0.1l1-9h7.4v3.3H483.7z"/><path fill="#1F1F89" d="M496.4,614.7c0,6.4-2.3,9.2-5.2,9.2c-3.9,0-5.2-4.5-5.2-9.1c0-5.1,1.7-9.2,5.4-9.2C495.4,605.6,496.4,610.4,496.4,614.7z M489.6,614.8c-0.1,4.2,0.5,6.1,1.7,6.1c1.1,0,1.5-2,1.5-6.1c0-3.8-0.4-6.1-1.5-6.1C490.1,608.7,489.6,610.6,489.6,614.8z"/></g><g><path fill="#1F1F89" d="M428.1,569.7v2.4l-5.6,15.5H419l5.5-14.6v-0.1h-6.1v-3.2L428.1,569.7L428.1,569.7z"/><path fill="#1F1F89" d="M439.1,572.9h-4.7l-0.4,3.2c0.2,0,0.4,0,0.5,0c0.8,0,2.3,0.4,3.4,1.3c1,1,1.5,2.3,1.5,4.1c0,3.5-2.3,6.3-6.2,6.3c-1.3,0-2.6-0.3-3.4-0.7l0.5-2.9c0.7,0.3,1.6,0.6,2.6,0.6c1.8,0,2.9-1.1,2.9-3.1c0-2.4-1.8-3.2-3.9-3.2c-0.5,0-0.9,0-1.3,0.1l1-9h7.4v3.3H439.1z"/></g><g><path fill="#1F1F89" d="M360.7,538c0.7,0,1,0,1.6-0.1c0.7-0.1,1.5-0.5,2.1-1.1c0.8-0.7,1.4-2,1.7-3.6H366c-0.6,0.6-1.4,1.1-2.6,1.1c-2.3,0-4.2-2.1-4.2-5.3c0-3.1,1.9-6.3,5.3-6.3c3.3,0,5.1,3,5.1,7.3c0,4-1.3,6.9-2.9,8.6c-1.1,1.2-2.7,2-4.4,2.3c-0.6,0.1-1.1,0.1-1.7,0.1v-3H360.7z M364.4,525.3c-0.9,0-1.6,1.2-1.6,3.4c0,1.7,0.6,3.2,1.7,3.2c0.6,0,1.2-0.5,1.4-0.9c0.1-0.4,0.2-0.7,0.2-1.9C366.1,526.6,365.4,525.3,364.4,525.3L364.4,525.3z"/><path fill="#1F1F89" d="M373.6,531.3c-1.5-1-2.2-2.5-2.2-3.9c0-2.9,2.3-4.7,5.1-4.7c2.6,0,4.6,1.7,4.6,4.4c0,1.2-0.5,2.8-2.3,4v0.1c1.6,0.9,2.8,2.6,2.8,4.7c0,3.3-2.4,5.2-5.4,5.2c-3.1,0-5.2-2-5.2-4.9C370.9,533.9,372.1,532.3,373.6,531.3L373.6,531.3z M378,535.9c0-1.7-1-2.8-2.1-3.3c-0.9,0.6-1.5,1.7-1.5,3.1c0,1.5,0.6,2.9,1.9,2.9C377.4,538.6,378,537.4,378,535.9z M374.8,527.3c0,1.3,0.7,2.1,1.8,2.7c0.8-0.4,1.2-1.5,1.2-2.6c0-1.2-0.4-2.3-1.5-2.3C375.3,525.1,374.8,526.2,374.8,527.3z"/></g></g><g><g><g><linearGradient id="SVGID_10_" gradientUnits="userSpaceOnUse" x1="99.15" y1="152.3971" x2="99.15" y2="43.3979" gradientTransform="matrix(1 0 0 -1 0 986)"><stop offset="0" style="stop-color:#4F5B7E"/><stop offset="7.132825e-02" style="stop-color:#66718F"/><stop offset="0.2311" style="stop-color:#949CB1"/><stop offset="0.3913" style="stop-color:#BBBFCD"/><stop offset="0.5492" style="stop-color:#D9DBE3"/><stop offset="0.7041" style="stop-color:#EEEFF2"/><stop offset="0.8549" style="stop-color:#FBFBFC"/><stop offset="0.9965" style="stop-color:#FFFFFF"/></linearGradient><path fill="url(#SVGID_10_)" d="M109.4,950.6H3.7c-2.5,0-3.9-2.9-2.3-4.8l85.2-105.4c0.6-0.7,1.4-1.1,2.3-1.1h105.7c2.5,0,3.9,2.9,2.3,4.8l-85.2,105.4C111.1,950.2,110.3,950.6,109.4,950.6z"/></g><path fill="#E6E6E6" d="M184.7,671.3H84.8c-3.9,0-7.1,3.2-7.1,7.1V838c0,3.9,3.2,7.1,7.1,7.1h99.9c3.9,0,7.1-3.2,7.1-7.1V678.5C191.9,674.5,188.7,671.3,184.7,671.3z"/><rect x="93.3" y="704.3" fill="#1F1F89" width="84.5" height="9.9"/><g><rect x="93.3" y="726.2" fill="#B3B3B3" width="84.5" height="1.4"/><rect x="93.3" y="731.6" fill="#B3B3B3" width="84.5" height="1.4"/><rect x="93.3" y="737" fill="#B3B3B3" width="84.5" height="1.4"/><rect x="93.3" y="742.3" fill="#B3B3B3" width="84.5" height="1.4"/><rect x="93.3" y="747.7" fill="#B3B3B3" width="84.5" height="1.4"/><rect x="93.3" y="753.1" fill="#B3B3B3" width="84.5" height="1.4"/><rect x="93.3" y="758.5" fill="#B3B3B3" width="84.5" height="1.4"/></g><g><rect x="93.3" y="769.6" fill="#B3B3B3" width="84.5" height="1.4"/><rect x="93.3" y="775" fill="#B3B3B3" width="84.5" height="1.4"/><rect x="93.3" y="780.3" fill="#B3B3B3" width="84.5" height="1.4"/><rect x="93.3" y="785.7" fill="#B3B3B3" width="84.5" height="1.4"/><rect x="93.3" y="791.1" fill="#B3B3B3" width="84.5" height="1.4"/><rect x="93.3" y="796.5" fill="#B3B3B3" width="84.5" height="1.4"/><rect x="93.3" y="801.9" fill="#B3B3B3" width="84.5" height="1.4"/></g></g><g><linearGradient id="SVGID_11_" gradientUnits="userSpaceOnUse" x1="236.5" y1="151.1281" x2="236.5" y2="102.5759" gradientTransform="matrix(1 0 0 -1 0 986)"><stop offset="0" style="stop-color:#3E5384"/><stop offset="0.797" style="stop-color:#3E5384;stop-opacity:0"/></linearGradient><path opacity="0.6" fill="url(#SVGID_11_)" enable-background="new " d="M265.6,886.5H174c-2.5,0-3.9-2.9-2.3-4.8l33.4-41c0.6-0.7,1.4-1.1,2.3-1.1H299c2.5,0,3.9,2.9,2.3,4.8l-33.4,41C267.4,886.1,266.5,886.5,265.6,886.5z"/><path fill="#1F1F89" d="M297.6,774.4h-87.4c-4.2,0-7.6,3.4-7.6,7.6v55.1c0,4.2,3.4,7.6,7.6,7.6h87.4c4.2,0,7.6-3.4,7.6-7.6V782C305.2,777.8,301.8,774.4,297.6,774.4z"/><g><rect x="212.2" y="790" fill="#FFFFFF" width="58.8" height="3"/><rect x="212.2" y="801" fill="#FFFFFF" width="83.4" height="1.5"/><rect x="212.2" y="807.7" fill="#FFFFFF" width="83.4" height="1.5"/><rect x="212.2" y="814.4" fill="#FFFFFF" width="83.4" height="1.5"/><rect x="212.2" y="821" fill="#FFFFFF" width="83.4" height="1.5"/><rect x="212.2" y="827.7" fill="#FFFFFF" width="83.4" height="1.5"/></g></g><g><linearGradient id="SVGID_12_" gradientUnits="userSpaceOnUse" x1="207.45" y1="112.6221" x2="207.45" y2="65.0208" gradientTransform="matrix(1 0 0 -1 0 986)"><stop offset="0" style="stop-color:#3E5384"/><stop offset="0.797" style="stop-color:#3E5384;stop-opacity:0"/></linearGradient><path opacity="0.6" fill="url(#SVGID_12_)" enable-background="new " d="M236.5,922.4h-91.6c-2.5,0-3.9-2.9-2.3-4.8l33.4-41c0.6-0.7,1.4-1.1,2.3-1.1H270c2.5,0,3.9,2.9,2.3,4.8l-33.4,41C238.3,922,237.4,922.4,236.5,922.4z"/><path fill="#F76D59" d="M267.6,811h-86.3c-4.5,0-8.1,3.6-8.1,8.1v54.1c0,4.5,3.6,8.1,8.1,8.1h86.3c4.5,0,8.1-3.6,8.1-8.1v-54.1C275.7,814.6,272.1,811,267.6,811z"/><g><rect x="182.7" y="826.6" fill="#FFFFFF" width="58.8" height="3"/><rect x="182.7" y="837.6" fill="#FFFFFF" width="83.4" height="1.5"/><rect x="182.7" y="844.2" fill="#FFFFFF" width="83.4" height="1.5"/><rect x="182.7" y="850.9" fill="#FFFFFF" width="83.4" height="1.5"/><rect x="182.7" y="857.6" fill="#FFFFFF" width="83.4" height="1.5"/><rect x="182.7" y="864.2" fill="#FFFFFF" width="83.4" height="1.5"/></g></g><g><g><linearGradient id="SVGID_13_" gradientUnits="userSpaceOnUse" x1="170.1" y1="71.0472" x2="170.1" y2="23.4756" gradientTransform="matrix(1 0 0 -1 0 986)"><stop offset="0" style="stop-color:#4F5B7E"/><stop offset="7.132825e-02" style="stop-color:#66718F"/><stop offset="0.2311" style="stop-color:#949CB1"/><stop offset="0.3913" style="stop-color:#BBBFCD"/><stop offset="0.5492" style="stop-color:#D9DBE3"/><stop offset="0.7041" style="stop-color:#EEEFF2"/><stop offset="0.8549" style="stop-color:#FBFBFC"/><stop offset="0.9965" style="stop-color:#FFFFFF"/></linearGradient><path fill="url(#SVGID_13_)" d="M199.2,963.4h-91.6c-2.5,0-3.9-2.9-2.3-4.8l33.4-41c0.6-0.7,1.4-1.1,2.3-1.1h91.6c2.5,0,3.9,2.9,2.3,4.8l-33.4,41C200.9,963,200.1,963.4,199.2,963.4z"/></g><path fill="#F2F2F2" d="M229.6,852.7h-86.9c-4.3,0-7.9,3.5-7.9,7.9v54.6c0,4.3,3.5,7.9,7.9,7.9h86.9c4.3,0,7.9-3.5,7.9-7.9v-54.6C237.5,856.2,234,852.7,229.6,852.7z"/><g><rect x="144.5" y="868.3" fill="#1F1F89" width="58.8" height="3"/><rect x="144.5" y="879.3" fill="#B3B3B3" width="83.4" height="1.5"/><rect x="144.5" y="885.9" fill="#B3B3B3" width="83.4" height="1.5"/><rect x="144.5" y="892.6" fill="#B3B3B3" width="83.4" height="1.5"/><rect x="144.5" y="899.3" fill="#B3B3B3" width="83.4" height="1.5"/><rect x="144.5" y="906" fill="#B3B3B3" width="83.4" height="1.5"/></g></g></g><g><g><g><linearGradient id="SVGID_14_" gradientUnits="userSpaceOnUse" x1="381.6" y1="135.623" x2="381.6" y2="86.8886" gradientTransform="matrix(1 0 0 -1 0 986)"><stop offset="0" style="stop-color:#4F5B7E"/><stop offset="7.132825e-02" style="stop-color:#66718F"/><stop offset="0.2311" style="stop-color:#949CB1"/><stop offset="0.3913" style="stop-color:#BBBFCD"/><stop offset="0.5492" style="stop-color:#D9DBE3"/><stop offset="0.7041" style="stop-color:#EEEFF2"/><stop offset="0.8549" style="stop-color:#FBFBFC"/><stop offset="0.9965" style="stop-color:#FFFFFF"/></linearGradient><polygon fill="url(#SVGID_14_)" points="411.1,900.3 305.8,900.3 362.4,831 457.4,831 457.1,842.9 "/></g><g><path fill="#BA4D42" d="M457.4,829.4h-7.8c-1-0.6-2.2-1.2-3.4-1.8l-8,3c-2.3-1.2-5.1-2.2-8.2-3.1l8-2.9v-8.3l-8,3v3.4c-5.8-1.2-12.1-1.9-18.9-2.2v3.2c-1.9-0.1-3.8-0.2-5.8-0.2s-3.9,0.1-5.8,0.2v-3.2c-6.8,0.3-13.3,1.1-19,2.2l0.1-3.4l-8-3v9.4l8,1.8c-3.1,0.9-5.9,1.9-8.2,3.1l-8-3c-1.2,0.6-2.3,1.2-3.4,1.8h-7.8v4.3v5.3v3c1.1,3.8,5.1,7.2,11.2,10.1l8-3c0.1,0,0.2,0.1,0.3,0.1v5.9c7.5,2.3,16.8,3.7,26.9,4.2v-4.2c1.9,0.1,3.8,0.2,5.8,0.2s3.9-0.1,5.8-0.2v4.2c10.1-0.4,19.4-1.9,26.9-4.2v-5.9c0.1,0,0.2-0.1,0.3-0.1l8,3c6-2.8,10-6.3,11.2-10.1v-7.4C457.9,834.6,457.4,829.4,457.4,829.4z M405.3,847c-11.5,0-20.8-2.8-20.8-7.1s9.3-7.8,20.8-7.8s20.8,3.5,20.8,7.8C426.1,844.1,416.8,847,405.3,847z"/><path fill="#F76D59" d="M446.6,831.6c0-0.7-0.1-1.5-0.4-2.2h11.3c-1.1-3.8-5.1-7.2-11.2-10.1l-8,3c-2.3-1.2-5.1-2.2-8.2-3.1l8-3c-7.5-2.3-16.8-3.7-26.9-4.2v4.2c-1.9-0.1-3.8-0.2-5.8-0.2s-3.9,0.1-5.8,0.2V812c-10.1,0.4-19.4,1.9-26.9,4.2l8,3c-3.1,0.9-5.9,1.9-8.2,3.1l-8-3c-6,2.8-10,6.3-11.2,10.1h11.3c-0.3,0.7-0.4,1.4-0.4,2.2c0,0.7,0.1,1.5,0.4,2.2h-11.3c1.1,3.8,5.1,7.2,11.2,10.1l8-3c2.3,1.2,5.1,2.2,8.2,3.1l-8,3c7.5,2.3,16.8,3.7,26.9,4.2V847c1.9,0.1,3.8,0.2,5.8,0.2s3.9-0.1,5.8-0.2v4.2c10.1-0.4,19.4-1.9,26.9-4.2l-8-3c3.1-0.9,5.9-1.9,8.2-3.1l8,3c6-2.8,10-6.3,11.2-10.1h-11.3C446.4,833,446.6,832.3,446.6,831.6z M405.3,839.3c-11.5,0-20.8-3.5-20.8-7.8s9.3-7.8,20.8-7.8s20.8,3.5,20.8,7.8S416.8,839.3,405.3,839.3z"/></g></g><g><g><linearGradient id="SVGID_15_" gradientUnits="userSpaceOnUse" x1="517.7" y1="138.187" x2="517.7" y2="89.0844" gradientTransform="matrix(1 0 0 -1 0 986)"><stop offset="0" style="stop-color:#4F5B7E"/><stop offset="7.132825e-02" style="stop-color:#66718F"/><stop offset="0.2311" style="stop-color:#949CB1"/><stop offset="0.3913" style="stop-color:#BBBFCD"/><stop offset="0.5492" style="stop-color:#D9DBE3"/><stop offset="0.7041" style="stop-color:#EEEFF2"/><stop offset="0.8549" style="stop-color:#FBFBFC"/><stop offset="0.9965" style="stop-color:#FFFFFF"/></linearGradient><polygon fill="url(#SVGID_15_)" points="547.2,900.3 441.9,900.3 498.4,831 593.5,831 593.2,842.9 "/></g><g><path fill="#1F1F89" d="M593.5,829.4h-7.8c-1-0.6-2.2-1.2-3.4-1.8l-8,3c-2.3-1.2-5.1-2.2-8.2-3.1l8-2.9v-8.3l-8,3v3.4c-5.8-1.2-12.1-1.9-18.9-2.2v3.2c-1.9-0.1-3.8-0.2-5.8-0.2s-3.9,0.1-5.8,0.2v-3.2c-6.8,0.3-13.3,1.1-19,2.2l0.1-3.4l-8-3v9.4l8,1.8c-3.1,0.9-5.9,1.9-8.2,3.1l-8-3c-1.2,0.6-2.3,1.2-3.4,1.8h-7.8v4.3v5.3v3c1.1,3.8,5.1,7.2,11.2,10.1l8-3c0.1,0,0.2,0.1,0.3,0.1v5.9c7.5,2.3,16.8,3.7,26.9,4.2v-4.2c1.9,0.1,3.8,0.2,5.8,0.2s3.9-0.1,5.8-0.2v4.2c10.1-0.4,19.4-1.9,26.9-4.2v-5.9c0.1,0,0.2-0.1,0.3-0.1l8,3c6-2.8,10-6.3,11.2-10.1v-7.4C593.9,834.6,593.5,829.4,593.5,829.4z M541.4,847c-11.5,0-20.8-2.8-20.8-7.1s9.3-7.8,20.8-7.8s20.8,3.5,20.8,7.8C562.1,844.1,552.8,847,541.4,847z"/><path fill="#3878FF" d="M582.6,831.6c0-0.7-0.1-1.5-0.4-2.2h11.3c-1.1-3.8-5.1-7.2-11.2-10.1l-8,3c-2.3-1.2-5.1-2.2-8.2-3.1l8-3c-7.5-2.3-16.8-3.7-26.9-4.2v4.2c-1.9-0.1-3.8-0.2-5.8-0.2s-3.9,0.1-5.8,0.2V812c-10.1,0.4-19.4,1.9-26.9,4.2l8,3c-3.1,0.9-5.9,1.9-8.2,3.1l-8-3c-6,2.8-10,6.3-11.2,10.1h11.3c-0.3,0.7-0.4,1.4-0.4,2.2c0,0.7,0.1,1.5,0.4,2.2h-11.3c1.1,3.8,5.1,7.2,11.2,10.1l8-3c2.3,1.2,5.1,2.2,8.2,3.1l-8,3c7.5,2.3,16.8,3.7,26.9,4.2V847c1.9,0.1,3.8,0.2,5.8,0.2s3.9-0.1,5.8-0.2v4.2c10.1-0.4,19.4-1.9,26.9-4.2l-8-3c3.1-0.9,5.9-1.9,8.2-3.1l8,3c6-2.8,10-6.3,11.2-10.1h-11.3C582.5,833,582.6,832.3,582.6,831.6z M541.4,839.3c-11.5,0-20.8-3.5-20.8-7.8s9.3-7.8,20.8-7.8s20.8,3.5,20.8,7.8S552.8,839.3,541.4,839.3z"/></g></g><g><g><g><linearGradient id="SVGID_16_" gradientUnits="userSpaceOnUse" x1="507.25" y1="74.9806" x2="507.25" y2="7.4987" gradientTransform="matrix(1 0 0 -1 0 986)"><stop offset="0" style="stop-color:#4F5B7E"/><stop offset="7.132825e-02" style="stop-color:#66718F"/><stop offset="0.2311" style="stop-color:#949CB1"/><stop offset="0.3913" style="stop-color:#BBBFCD"/><stop offset="0.5492" style="stop-color:#D9DBE3"/><stop offset="0.7041" style="stop-color:#EEEFF2"/><stop offset="0.8549" style="stop-color:#FBFBFC"/><stop offset="0.9965" style="stop-color:#FFFFFF"/></linearGradient><polygon fill="url(#SVGID_16_)" points="517.3,986 440.7,986 497.3,916.7 573.8,916.7 "/></g><g><path fill="#DBAD45" d="M573.4,914.3v-16.7h-76.1v17.2c0,7.1,17,12.8,38.1,12.8c21,0,38.1-5.8,38.1-12.8C573.5,914.7,573.5,914.5,573.4,914.3z"/><ellipse fill="#FFFFFF" cx="535.4" cy="898.2" rx="38.1" ry="12.8"/></g></g><polygon fill="#FFCE4F" points="534,889.1 539.4,895.1 551.3,896.1 542.7,900.8 544.7,907.4 534,904.3 523.4,907.4 525.4,900.8 516.8,896.1 528.7,895.1 "/></g><g><g><g><linearGradient id="SVGID_17_" gradientUnits="userSpaceOnUse" x1="404.65" y1="74.9806" x2="404.65" y2="7.4987" gradientTransform="matrix(1 0 0 -1 0 986)"><stop offset="0" style="stop-color:#4F5B7E"/><stop offset="7.132825e-02" style="stop-color:#66718F"/><stop offset="0.2311" style="stop-color:#949CB1"/><stop offset="0.3913" style="stop-color:#BBBFCD"/><stop offset="0.5492" style="stop-color:#D9DBE3"/><stop offset="0.7041" style="stop-color:#EEEFF2"/><stop offset="0.8549" style="stop-color:#FBFBFC"/><stop offset="0.9965" style="stop-color:#FFFFFF"/></linearGradient><polygon fill="url(#SVGID_17_)" points="414.6,986 338.1,986 394.6,916.7 471.2,916.7 "/></g><g><path fill="#3878FF" d="M470.8,914.3v-16.7h-76.1v17.2c0,7.1,17,12.8,38.1,12.8c21,0,38.1-5.8,38.1-12.8C470.8,914.7,470.8,914.5,470.8,914.3z"/><ellipse fill="#FFFFFF" cx="432.7" cy="898.2" rx="38.1" ry="12.8"/></g></g><g><path fill="#1F1F89" d="M439.6,905.1c-2.6,0.6-4.9,0.8-8,0.8c-7.3,0-13.6-2.6-13.6-7c0-4.5,6.4-8.4,16.3-8.4c7.8,0,13.1,2.7,13.1,6.4c0,3.3-3.7,5.3-8.1,5.3c-1.9,0-3.5-0.6-3.6-1.8h-0.1c-1.5,1.2-3.4,1.8-5.9,1.8c-2.7,0-4.9-1.1-4.9-2.8c0-2.7,4.1-5.2,10.4-5.2c1.9,0,3.9,0.2,5,0.5l-1.4,4c-0.5,1.5-0.1,2.2,1.2,2.2c2.1,0,4.5-1.3,4.5-3.8c0-3-3.8-5.3-10.6-5.3c-7,0-12.9,2.7-12.9,7.1c0,3.7,4.8,5.9,11.3,5.9c2.4,0,4.8-0.3,6.5-0.7L439.6,905.1z M436.4,895.8c-0.4-0.1-1-0.1-1.8-0.1c-3.4,0-6,1.6-6,3.5c0,0.9,0.8,1.5,2.5,1.5c2.1,0,4.1-1.3,4.5-2.6L436.4,895.8z"/></g></g><g><g><g><linearGradient id="SVGID_18_" gradientUnits="userSpaceOnUse" x1="299.75" y1="74.9806" x2="299.75" y2="7.4987" gradientTransform="matrix(1 0 0 -1 0 986)"><stop offset="0" style="stop-color:#4F5B7E"/><stop offset="7.132825e-02" style="stop-color:#66718F"/><stop offset="0.2311" style="stop-color:#949CB1"/><stop offset="0.3913" style="stop-color:#BBBFCD"/><stop offset="0.5492" style="stop-color:#D9DBE3"/><stop offset="0.7041" style="stop-color:#EEEFF2"/><stop offset="0.8549" style="stop-color:#FBFBFC"/><stop offset="0.9965" style="stop-color:#FFFFFF"/></linearGradient><polygon fill="url(#SVGID_18_)" points="309.7,986 233.2,986 289.7,916.7 366.3,916.7 "/></g><g><path fill="#ED673E" d="M365.9,914.3v-16.7h-76.1v17.2c0,7.1,17,12.8,38.1,12.8c21,0,38.1-5.8,38.1-12.8C365.9,914.7,365.9,914.5,365.9,914.3z"/><ellipse fill="#FFFFFF" cx="327.8" cy="898.2" rx="38.1" ry="12.8"/></g></g><path fill="#ED673E" d="M335.7,890.6c-3.3,0-6.3,0.9-8,2.2c-1.7-1.3-4.6-2.2-8-2.2c-5.2,0-9.5,2.1-9.5,4.7c0,1.3,1.1,2.5,2.8,3.4l0,0l14.6,7.3l14.3-7.1c1.9-0.9,3.2-2.1,3.2-3.5C345.2,892.7,341,890.6,335.7,890.6z"/></g></g></g></svg>