<?xml version="1.0" encoding="utf-8"?><!-- Generator: Adobe Illustrator 21.0.2, SVG Export Plug-In . SVG Version: 6.00 Build 0) --><svg version="1.1" id="Layer_1" xmlns="http://www.w3.org/2000/svg" xmlns:xlink="http://www.w3.org/1999/xlink" x="0px" y="0px" viewBox="0 0 1009.1 952.3" enable-background="new 0 0 1009.1 952.3" xml:space="preserve"><g><g><g><linearGradient id="SVGID_1_" gradientUnits="userSpaceOnUse" x1="395.9" y1="496.72" x2="395.9" y2="430.9218" gradientTransform="matrix(1 0 0 -1 0 952)"><stop offset="0" style="stop-color:#4F5B7E"/><stop offset="7.132825e-02" style="stop-color:#66718F"/><stop offset="0.2311" style="stop-color:#949CB1"/><stop offset="0.3913" style="stop-color:#BBBFCD"/><stop offset="0.5492" style="stop-color:#D9DBE3"/><stop offset="0.7041" style="stop-color:#EEEFF2"/><stop offset="0.8549" style="stop-color:#FBFBFC"/><stop offset="0.9965" style="stop-color:#FFFFFF"/></linearGradient><polygon fill="url(#SVGID_1_)" points="566.3,528.4 170.4,528.4 225.6,460.8 621.4,460.8 "/></g><g><path fill="#E6E6E6" d="M928.7,464.3h-699c-5.3,0-9.6-4.3-9.6-9.6V9.6c0-5.3,4.3-9.6,9.6-9.6h699c5.3,0,9.6,4.3,9.6,9.6v445.1C938.3,460,934,464.3,928.7,464.3z"/><g><path fill="#3878FF" d="M938.3,28.6H220.1V9.4c0-5.2,4.2-9.4,9.4-9.4H929c5.2,0,9.4,4.2,9.4,9.4v19.2H938.3z"/><g><circle fill="#FFFFFF" cx="236.5" cy="14.3" r="4.5"/><circle fill="#FFFFFF" cx="257.7" cy="14.3" r="4.5"/><circle fill="#FFFFFF" cx="278.9" cy="14.3" r="4.5"/></g></g></g></g><g><g><g><path fill="#999999" d="M273.4,115.6h12.2c-1.5-24.8-21.7-44.5-46.7-45.3v12.2C257.1,83.2,271.9,97.5,273.4,115.6z"/><path fill="#F76D59" d="M237.3,154.9c-20,0-36.2-16.2-36.2-36.2c0-19.5,15.4-35.4,34.7-36.2V70.3c-26,0.8-46.8,22.1-46.8,48.3c0,26.7,21.7,48.4,48.4,48.4s48.4-21.7,48.4-48.4h-12.2C273.5,138.6,257.3,154.9,237.3,154.9z"/></g><circle fill="#999999" cx="237.3" cy="118.7" r="28"/></g><g><g><path fill="#3878FF" d="M357,154.9c-20,0-36.2-16.2-36.2-36.2S337,82.5,357,82.5c11.4,0,21.5,5.3,28.2,13.5l9.5-7.6c-8.9-11-22.4-18-37.6-18c-26.7,0-48.4,21.7-48.4,48.4s21.7,48.4,48.4,48.4c11.5,0,22.1-4,30.4-10.7l-7.6-9.5C373.6,151.9,365.7,154.9,357,154.9z"/><path fill="#999999" d="M393.2,118.7c0,10.3-4.3,19.6-11.2,26.2l7.7,9.5c9.6-8.8,15.7-21.5,15.7-35.6c0-10.4-3.3-20-8.9-27.9l-9.5,7.7C391,104.2,393.2,111.2,393.2,118.7z"/></g><circle fill="#999999" cx="357.5" cy="118.8" r="28"/></g><g><g><path fill="#3878FF" d="M476.8,154.9c-15.3,0-28.3-9.5-33.6-22.8l-11.7,3.5c6.9,18.4,24.6,31.5,45.3,31.5c3.8,0,7.5-0.5,11.1-1.3l-3.5-11.7C481.9,154.6,479.3,154.9,476.8,154.9z"/><path fill="#F76D59" d="M525.1,118.7c0-26.7-21.7-48.4-48.4-48.4c-26.7,0-48.4,21.7-48.4,48.4c0,4.9,0.7,9.6,2.1,14l11.6-3.5c-1-3.3-1.5-6.8-1.5-10.5c0-20,16.2-36.2,36.2-36.2s36.2,16.2,36.2,36.2c0,16.3-10.8,30.2-25.7,34.7l3.5,11.6C510.6,159,525.1,140.5,525.1,118.7z"/></g><circle fill="#999999" cx="476.8" cy="118.8" r="28"/></g></g><g><path fill="#CCCCCC" d="M885.4,259.5H583.2c-6.7,0-12.1-5.4-12.1-12.1V88c0-6.7,5.4-12.1,12.1-12.1h302.2c6.7,0,12.1,5.4,12.1,12.1v159.4C897.5,254.1,892.1,259.5,885.4,259.5z"/><path fill="#FFFFFF" d="M883.2,253.9H572.6c-4.4,0-7.9-3.5-7.9-7.9V78.2c0-4.4,3.5-7.9,7.9-7.9h310.5c4.4,0,7.9,3.5,7.9,7.9V246C891.1,250.4,887.6,253.9,883.2,253.9z"/><ellipse transform="matrix(0.9842 -0.177 0.177 0.9842 -24.5537 161.1521)" fill="#FFD6E5" cx="891" cy="218.2" rx="6.1" ry="6.1"/><g><path fill="#C1272D" d="M756.1,175.2h-56.4c-4.5,0-8.2-3.7-8.2-8.2v-25.3c0-4.5,3.7-8.2,8.2-8.2h56.4c4.5,0,8.2,3.7,8.2,8.2V167C764.3,171.5,760.6,175.2,756.1,175.2z"/><polygon fill="#FFFFFF" points="738.4,154.3 722.8,165.5 722.8,143.2 "/></g><rect x="589.8" y="227.1" fill="#E6E6E6" width="281.5" height="3.6"/><rect x="589.8" y="227.1" fill="#C1272D" width="56.1" height="3.6"/><circle fill="#C1272D" cx="645.9" cy="228.9" r="6"/><polygon fill="#E6E6E6" points="582.5,228.9 575.9,233.6 575.9,224.1 "/></g><g><path fill="#CCCCCC" d="M527.3,323.6H219.5V205.5h297c6,0,10.8,4.9,10.8,10.8v34l17.9,14.3l-17.9,14.1V323.6z"/><path fill="#999999" d="M510.6,318.2H204.3c-6.4,0-11.5-5.2-11.5-11.5v-95.1c0-6.4,5.2-11.5,11.5-11.5h306.2c6.4,0,11.5,5.2,11.5,11.5v33.3l17.9,14.3L522,273.3v33.5C522.1,313,516.9,318.2,510.6,318.2z"/><circle fill="#1F1F89" cx="233" cy="250.2" r="22.5"/><rect x="275.6" y="228.7" fill="#FFFFFF" width="166.2" height="11.7"/><rect x="275.6" y="253.2" fill="#FFFFFF" width="220.3" height="5.2"/><rect x="275.6" y="270" fill="#FFFFFF" width="220.3" height="5.2"/><rect x="275.6" y="286.9" fill="#FFFFFF" width="220.3" height="5.2"/></g><g><rect x="220.1" y="364.9" fill="#CCCCCC" width="305.8" height="73.4"/><path fill="#999999" d="M510.4,433.4H204.2c-6.4,0-11.5-5.2-11.5-11.5v-50.3c0-6.4,5.2-11.5,11.5-11.5h306.2c6.4,0,11.5,5.2,11.5,11.5v50.3C521.9,428.2,516.8,433.4,510.4,433.4z"/><path fill="#1F1F89" d="M260.5,382.9c-3.5,0-6.6,1.8-8.4,4.6c-1.8-2.8-4.9-4.6-8.4-4.6c-5.5,0-10,4.5-10,10c0,2.8,1.1,5.3,3,7.1l0,0l15.4,15.4l15-15c2-1.8,3.3-4.5,3.3-7.4C270.4,387.4,266,382.9,260.5,382.9z"/><path fill="#1F1F89" d="M418.4,392c0,6.9-6.8,12.7-15.9,14c-1.3,0.2-9.2,9.6-9.2,9.6s1.7-9.4,0-9.8c-8.4-1.7-14.6-7.2-14.6-13.8c0-7.9,8.9-14.3,19.9-14.3S418.4,384.1,418.4,392z"/><g><path fill="#FFFFFF" d="M283.6,389.4L283.6,389.4l-4,2l-0.8-3.7l5.3-2.8h4.1v23.3h-4.7v-18.8H283.6z"/><path fill="#FFFFFF" d="M306.9,396.5c0,8.4-3,12.1-6.8,12.1c-5.1,0-6.8-5.8-6.8-11.8c0-6.7,2.2-12.1,7-12.1C305.6,384.7,306.9,391,306.9,396.5z M298,396.7c-0.1,5.5,0.6,7.9,2.2,7.9c1.5,0,2-2.6,2-7.9c0-5-0.5-7.9-2-7.9C298.7,388.7,298,391.2,298,396.7z"/><path fill="#FFFFFF" d="M320.8,389.1h-6.2l-0.5,4.2c0.2,0,0.5,0,0.7,0c1,0,3.1,0.5,4.4,1.8s2,3,2,5.3c0,4.6-3,8.3-8.1,8.3c-1.6,0-3.4-0.4-4.4-0.9l0.7-3.7c0.9,0.4,2.1,0.8,3.3,0.8c2.3,0,3.8-1.5,3.8-4c0-3.1-2.4-4.2-5.1-4.2c-0.6,0-1.2,0-1.7,0.1l1.3-11.7h9.7v4H320.8z"/></g><g><path fill="#FFFFFF" d="M429.2,404.7c0.9,0,1.4,0,2.2-0.2c0.9-0.2,1.9-0.6,2.7-1.4c1-1,1.9-2.6,2.3-4.7h-0.1c-0.8,0.8-1.8,1.4-3.3,1.4c-3,0-5.5-2.7-5.5-7c0-4,2.5-8.2,7-8.2c4.3,0,6.6,3.9,6.6,9.6c0,5.3-1.7,9-3.8,11.3c-1.4,1.5-3.5,2.6-5.7,2.9c-0.8,0.1-1.5,0.1-2.2,0.1v-3.8H429.2z M434.1,388.1c-1.2,0-2.1,1.5-2,4.4c0,2.3,0.8,4.1,2.2,4.1c0.8,0,1.5-0.6,1.8-1.2c0.2-0.5,0.2-0.9,0.2-2.5C436.2,389.8,435.4,388.1,434.1,388.1L434.1,388.1z"/><path fill="#FFFFFF" d="M455.9,385v3.1l-7.3,20.2H444l7.2-19.1v-0.1h-8V385H455.9z"/></g></g><g><g><linearGradient id="SVGID_2_" gradientUnits="userSpaceOnUse" x1="940.25" y1="464.0533" x2="940.25" y2="411.0249" gradientTransform="matrix(1 0 0 -1 0 952)"><stop offset="0" style="stop-color:#4F5B7E"/><stop offset="7.132825e-02" style="stop-color:#66718F"/><stop offset="0.2311" style="stop-color:#949CB1"/><stop offset="0.3913" style="stop-color:#BBBFCD"/><stop offset="0.5492" style="stop-color:#D9DBE3"/><stop offset="0.7041" style="stop-color:#EEEFF2"/><stop offset="0.8549" style="stop-color:#FBFBFC"/><stop offset="0.9965" style="stop-color:#FFFFFF"/></linearGradient><polygon fill="url(#SVGID_2_)" points="964.7,546.9 871.4,546.9 915.8,492.4 1009.1,492.4 "/></g><g><g><polygon fill="#D64536" points="891.6,239 916.3,246.3 952.2,226.3 967.9,225.7 960,249.8 916.9,257.2 891,246.2 "/><ellipse transform="matrix(0.934 -0.3573 0.3573 0.934 -9.7787 357.3307)" fill="#FFD6E5" cx="962.2" cy="205.1" rx="17" ry="17"/><linearGradient id="SVGID_3_" gradientUnits="userSpaceOnUse" x1="955.8265" y1="630.1366" x2="943.5715" y2="554.7219" gradientTransform="matrix(1 0 0 -1 0 952)"><stop offset="3.252340e-03" style="stop-color:#241084"/><stop offset="0.9896" style="stop-color:#0A5DE2"/></linearGradient><path fill="url(#SVGID_3_)" d="M967.9,283.2l-7,70.7l3.6,62.1h-26.9l0.1-1.4c0.2-3.2,2.6-5.8,5.7-6.2L954,407l-8.4-52.7l-7.9-68.4L967.9,283.2z"/><path fill="#0A5DE2" d="M986.5,287.5l-7,66.4l3.6,62.1h-26.9l0.1-1.4c0.2-3.2,2.6-5.8,5.7-6.2l10.6-1.4l-8.4-52.7l-7.9-68.4L986.5,287.5z"/><path fill="#F76D59" d="M897.6,223.7c4.6,4.4,11.1,10.3,20.1,16.8l23.7-10l11.3-4.4l18.6-1.2L997.4,336c1.4,5.6-2.9,11.1-8.7,11.1h-47.1c-3.4,0-6.1-2.8-5.9-6.2l2.4-88.7l-23.6,1.9c-9.8-8.1-17.8-20.2-22.9-26.1L897.6,223.7z"/><path fill="#333333" d="M980.7,194.7c-3.5-8-17.7-10-25.7-6.2c-0.5,0.2-0.9,0.5-1.3,0.8c0.1,1.3,0.5,2.6,1.1,3.6c2.4,3.8,6.8,6.4,11.3,6.7c0,0,0.3,0.9,0.8,2.2c0.5-0.6,1.1-1.1,1.8-1.3c1.2-0.5,2.6-0.5,3.9-0.1c4.1,1.1,4,6.9,1.2,9.3c-0.9,0.8-2,1.3-3.2,1.7c-0.1,0-0.3,0.1-0.4,0.1c-0.4,5.5,0,6.1,1.2,7.9C977.9,214.7,985.4,205.3,980.7,194.7z"/><path fill="#333333" d="M972.4,186.7c0,0,0.2-3.9,3.1-5.9c3.5-2.4,12.7-0.8,13.6,7.3c1.1,9.8-3.7,22.3,1.5,24.2c7,2.5,5.3-2.9,5.3-2.9s3.5,3.3,0.7,7.5c-3.3,5-10.7,6.8-15.7,1.5C975.8,212.8,978.8,186.6,972.4,186.7z"/><path fill="#F76D59" d="M979,194.1c-0.7,0-1.4-0.4-1.7-1.1c-1.9-3.9-5.7-3.4-5.7-3.4c-1.1,0.1-2-0.6-2.2-1.7c-0.1-1.1,0.6-2,1.7-2.2c0.3,0,6.5-0.7,9.6,5.5c0.5,1,0.1,2.1-0.9,2.6C979.6,194,979.3,194.1,979,194.1z"/><linearGradient id="SVGID_4_" gradientUnits="userSpaceOnUse" x1="942.1946" y1="683.8093" x2="942.1946" y2="645.9826" gradientTransform="matrix(1 0 0 -1 0 952)"><stop offset="2.584135e-03" style="stop-color:#852F2E"/><stop offset="0.1817" style="stop-color:#933733"/><stop offset="0.522" style="stop-color:#B94B42"/><stop offset="0.9846" style="stop-color:#F56C58"/><stop offset="0.9991" style="stop-color:#F76D59"/></linearGradient><path opacity="0.15" fill="url(#SVGID_4_)" enable-background="new " d="M938.1,252.2l10.3-0.3l0.2,84.5l-7.1,10.6c-3.3,0-5.9-2.8-5.7-6L938.1,252.2z"/></g><path fill="#1F1F89" d="M1008.7,491.7L992.6,424h14c0-4.6-3.8-8.4-8.4-8.4H926c-4.6,0-8.4,3.8-8.4,8.4h14l-16.2,67.7c-0.4,1.2,0.2,2.5,1.4,2.9c0.2,0.1,0.5,0.1,0.7,0.1c0.9,0,1.8-0.6,2.1-1.5l4.8-13.6h75.1l4.8,13.6c0.3,0.9,1.2,1.5,2.1,1.5c0.2,0,0.5,0,0.7-0.1C1008.5,494.2,1009.2,492.9,1008.7,491.7z M926.2,475.1l10.1-50.3c0.1-0.2,0.1-0.5,0.1-0.7H988c0,0.2,0,0.5,0.1,0.7l10.1,50.3H926.2z"/></g></g><g><g><linearGradient id="SVGID_5_" gradientUnits="userSpaceOnUse" x1="667.2" y1="392.4448" x2="667.2" y2="326.6467" gradientTransform="matrix(1 0 0 -1 0 952)"><stop offset="0" style="stop-color:#4F5B7E"/><stop offset="7.132825e-02" style="stop-color:#66718F"/><stop offset="0.2311" style="stop-color:#949CB1"/><stop offset="0.3913" style="stop-color:#BBBFCD"/><stop offset="0.5492" style="stop-color:#D9DBE3"/><stop offset="0.7041" style="stop-color:#EEEFF2"/><stop offset="0.8549" style="stop-color:#FBFBFC"/><stop offset="0.9965" style="stop-color:#FFFFFF"/></linearGradient><polygon fill="url(#SVGID_5_)" points="837.5,632.7 441.7,632.7 496.8,565.1 892.7,565.1 "/></g><g><g><path fill="#1F1F89" d="M887.2,568.1H499.4c-2.9,0-5.3-2.4-5.3-5.3v-247c0-2.9,2.4-5.3,5.3-5.3h387.8c2.9,0,5.3,2.4,5.3,5.3v247C892.5,565.7,890.1,568.1,887.2,568.1z"/><g><path fill="#FFFFFF" d="M892.5,326.4H494.1v-10.7c0-2.9,2.3-5.2,5.2-5.2h388c2.9,0,5.2,2.3,5.2,5.2L892.5,326.4L892.5,326.4z"/><g><circle fill="#1F1F89" cx="503.1" cy="318.4" r="2.5"/><circle fill="#1F1F89" cx="514.9" cy="318.4" r="2.5"/><circle fill="#1F1F89" cx="526.7" cy="318.4" r="2.5"/></g></g></g><g><path fill="#C1272D" d="M538.7,346.6h-24c-0.6,0-1.1-0.5-1.1-1.1l0,0c0-0.6,0.5-1.1,1.1-1.1h24c0.6,0,1.1,0.5,1.1,1.1l0,0C539.8,346.1,539.3,346.6,538.7,346.6z"/><g><path fill="#FBB03B" d="M603.4,355.4h-24c-0.6,0-1.1-0.5-1.1-1.1l0,0c0-0.6,0.5-1.1,1.1-1.1h24c0.6,0,1.1,0.5,1.1,1.1l0,0C604.6,354.9,604.1,355.4,603.4,355.4z"/><path fill="#C1272D" d="M559.7,355.4h-45.1c-0.6,0-1.1-0.5-1.1-1.1l0,0c0-0.6,0.5-1.1,1.1-1.1h45.1c0.6,0,1.1,0.5,1.1,1.1l0,0C560.9,354.9,560.4,355.4,559.7,355.4z"/><path fill="#FFFFFF" d="M772.7,355.4H608.1c-0.6,0-1.1-0.5-1.1-1.1l0,0c0-0.6,0.5-1.1,1.1-1.1h164.6c0.6,0,1.1,0.5,1.1,1.1l0,0C773.8,354.9,773.3,355.4,772.7,355.4z"/><path fill="#00FF00" d="M574.3,355.4h-9.9c-0.6,0-1.1-0.5-1.1-1.1l0,0c0-0.6,0.5-1.1,1.1-1.1h9.9c0.6,0,1.1,0.5,1.1,1.1l0,0C575.4,354.9,574.9,355.4,574.3,355.4z"/></g><g><path fill="#FBB03B" d="M603.4,416.7h-24c-0.6,0-1.1-0.5-1.1-1.1l0,0c0-0.6,0.5-1.1,1.1-1.1h24c0.6,0,1.1,0.5,1.1,1.1l0,0C604.6,416.2,604.1,416.7,603.4,416.7z"/><path fill="#C1272D" d="M559.7,416.7h-45.1c-0.6,0-1.1-0.5-1.1-1.1l0,0c0-0.6,0.5-1.1,1.1-1.1h45.1c0.6,0,1.1,0.5,1.1,1.1l0,0C560.9,416.2,560.4,416.7,559.7,416.7z"/><path fill="#FFFFFF" d="M772.7,416.7H608.1c-0.6,0-1.1-0.5-1.1-1.1l0,0c0-0.6,0.5-1.1,1.1-1.1h164.6c0.6,0,1.1,0.5,1.1,1.1l0,0C773.8,416.2,773.3,416.7,772.7,416.7z"/><path fill="#00FF00" d="M574.3,416.7h-9.9c-0.6,0-1.1-0.5-1.1-1.1l0,0c0-0.6,0.5-1.1,1.1-1.1h9.9c0.6,0,1.1,0.5,1.1,1.1l0,0C575.4,416.2,574.9,416.7,574.3,416.7z"/></g><g><path fill="#FBB03B" d="M659.6,425.4h-73.2c-0.6,0-1.1-0.5-1.1-1.1l0,0c0-0.6,0.5-1.1,1.1-1.1h73.2c0.6,0,1.1,0.5,1.1,1.1l0,0C660.7,424.9,660.2,425.4,659.6,425.4z"/><path fill="#C1272D" d="M538.6,425.4h-16.9c-0.6,0-1.1-0.5-1.1-1.1l0,0c0-0.6,0.5-1.1,1.1-1.1h16.9c0.6,0,1.1,0.5,1.1,1.1l0,0C539.7,424.9,539.2,425.4,538.6,425.4z"/><path fill="#FFFFFF" d="M779.6,425.4H664.3c-0.6,0-1.1-0.5-1.1-1.1l0,0c0-0.6,0.5-1.1,1.1-1.1h115.4c0.6,0,1.1,0.5,1.1,1.1l0,0C780.8,424.9,780.3,425.4,779.6,425.4z"/><path fill="#00FF00" d="M581.2,425.4h-38c-0.6,0-1.1-0.5-1.1-1.1l0,0c0-0.6,0.5-1.1,1.1-1.1h38c0.6,0,1.1,0.5,1.1,1.1l0,0C582.4,424.9,581.9,425.4,581.2,425.4z"/></g><g><path fill="#FBB03B" d="M678,434.2h-73.2c-0.6,0-1.1-0.5-1.1-1.1l0,0c0-0.6,0.5-1.1,1.1-1.1H678c0.6,0,1.1,0.5,1.1,1.1l0,0C679.1,433.7,678.6,434.2,678,434.2z"/><path fill="#C1272D" d="M556.9,434.2H540c-0.6,0-1.1-0.5-1.1-1.1l0,0c0-0.6,0.5-1.1,1.1-1.1h16.9c0.6,0,1.1,0.5,1.1,1.1l0,0C558.1,433.7,557.6,434.2,556.9,434.2z"/><path fill="#FFFFFF" d="M798,434.2H682.7c-0.6,0-1.1-0.5-1.1-1.1l0,0c0-0.6,0.5-1.1,1.1-1.1H798c0.6,0,1.1,0.5,1.1,1.1l0,0C799.2,433.7,798.6,434.2,798,434.2z"/><path fill="#00FF00" d="M599.6,434.2h-38c-0.6,0-1.1-0.5-1.1-1.1l0,0c0-0.6,0.5-1.1,1.1-1.1h38c0.6,0,1.1,0.5,1.1,1.1l0,0C600.8,433.7,600.3,434.2,599.6,434.2z"/></g><g><path fill="#FBB03B" d="M635.8,442.9h-59.1c-0.6,0-1.1-0.5-1.1-1.1l0,0c0-0.6,0.5-1.1,1.1-1.1h59.1c0.6,0,1.1,0.5,1.1,1.1l0,0C636.9,442.4,636.4,442.9,635.8,442.9z"/><path fill="#C1272D" d="M542.9,442.9H540c-0.6,0-1.1-0.5-1.1-1.1l0,0c0-0.6,0.5-1.1,1.1-1.1h2.9c0.6,0,1.1,0.5,1.1,1.1l0,0C544,442.4,543.5,442.9,542.9,442.9z"/><path fill="#FFFFFF" d="M798,442.9H640.5c-0.6,0-1.1-0.5-1.1-1.1l0,0c0-0.6,0.5-1.1,1.1-1.1H798c0.6,0,1.1,0.5,1.1,1.1l0,0C799.2,442.4,798.6,442.9,798,442.9z"/><path fill="#00FF00" d="M571.5,442.9h-24c-0.6,0-1.1-0.5-1.1-1.1l0,0c0-0.6,0.5-1.1,1.1-1.1h24c0.6,0,1.1,0.5,1.1,1.1l0,0C572.6,442.4,572.1,442.9,571.5,442.9z"/></g><g><path fill="#FBB03B" d="M673.8,364.1h-73.2c-0.6,0-1.1-0.5-1.1-1.1l0,0c0-0.6,0.5-1.1,1.1-1.1h73.2c0.6,0,1.1,0.5,1.1,1.1l0,0C674.9,363.6,674.4,364.1,673.8,364.1z"/><path fill="#C1272D" d="M580.8,364.1h-66.1c-0.6,0-1.1-0.5-1.1-1.1l0,0c0-0.6,0.5-1.1,1.1-1.1h66.1c0.6,0,1.1,0.5,1.1,1.1l0,0C582,363.6,581.5,364.1,580.8,364.1z"/><path fill="#FFFFFF" d="M772.7,364.1h-94.3c-0.6,0-1.1-0.5-1.1-1.1l0,0c0-0.6,0.5-1.1,1.1-1.1h94.3c0.6,0,1.1,0.5,1.1,1.1l0,0C773.8,363.6,773.3,364.1,772.7,364.1z"/><path fill="#00FF00" d="M595.4,364.1h-9.9c-0.6,0-1.1-0.5-1.1-1.1l0,0c0-0.6,0.5-1.1,1.1-1.1h9.9c0.6,0,1.1,0.5,1.1,1.1l0,0C596.5,363.6,596,364.1,595.4,364.1z"/></g><g><path fill="#00FF00" d="M579.3,372.9h-24c-0.6,0-1.1-0.5-1.1-1.1l0,0c0-0.6,0.5-1.1,1.1-1.1h24c0.6,0,1.1,0.5,1.1,1.1l0,0C580.4,372.4,579.9,372.9,579.3,372.9z"/><path fill="#FBB03B" d="M606.6,372.9h-22.1c-0.6,0-1.1-0.5-1.1-1.1l0,0c0-0.6,0.5-1.1,1.1-1.1h22.1c0.6,0,1.1,0.5,1.1,1.1l0,0C607.8,372.4,607.3,372.9,606.6,372.9z"/><path fill="#FFFFFF" d="M693.3,372.9h-82.5c-0.6,0-1.1-0.5-1.1-1.1l0,0c0-0.6,0.5-1.1,1.1-1.1h82.5c0.6,0,1.1,0.5,1.1,1.1l0,0C694.4,372.4,693.9,372.9,693.3,372.9z"/><path fill="#C1272D" d="M550.2,372.9h-9.9c-0.6,0-1.1-0.5-1.1-1.1l0,0c0-0.6,0.5-1.1,1.1-1.1h9.9c0.6,0,1.1,0.5,1.1,1.1l0,0C551.3,372.4,550.8,372.9,550.2,372.9z"/></g><g><path fill="#00FF00" d="M579.3,381.6h-24c-0.6,0-1.1-0.5-1.1-1.1l0,0c0-0.6,0.5-1.1,1.1-1.1h24c0.6,0,1.1,0.5,1.1,1.1l0,0C580.4,381.1,579.9,381.6,579.3,381.6z"/><path fill="#FBB03B" d="M619.3,381.6h-34.7c-0.6,0-1.1-0.5-1.1-1.1l0,0c0-0.6,0.5-1.1,1.1-1.1h34.7c0.6,0,1.1,0.5,1.1,1.1l0,0C620.4,381.1,619.9,381.6,619.3,381.6z"/><path fill="#FFFFFF" d="M674.3,381.6H624c-0.6,0-1.1-0.5-1.1-1.1l0,0c0-0.6,0.5-1.1,1.1-1.1h50.3c0.6,0,1.1,0.5,1.1,1.1l0,0C675.5,381.1,675,381.6,674.3,381.6z"/><path fill="#C1272D" d="M550.2,381.6h-9.9c-0.6,0-1.1-0.5-1.1-1.1l0,0c0-0.6,0.5-1.1,1.1-1.1h9.9c0.6,0,1.1,0.5,1.1,1.1l0,0C551.3,381.1,550.8,381.6,550.2,381.6z"/></g><g><path fill="#FFFFFF" d="M662.1,390.4h-50.3c-0.6,0-1.1-0.5-1.1-1.1l0,0c0-0.6,0.5-1.1,1.1-1.1h50.3c0.6,0,1.1,0.5,1.1,1.1l0,0C663.2,389.9,662.7,390.4,662.1,390.4z"/><path fill="#00FF00" d="M579.3,390.4h-24c-0.6,0-1.1-0.5-1.1-1.1l0,0c0-0.6,0.5-1.1,1.1-1.1h24c0.6,0,1.1,0.5,1.1,1.1l0,0C580.4,389.9,579.9,390.4,579.3,390.4z"/><path fill="#FBB03B" d="M606.6,390.4h-22.1c-0.6,0-1.1-0.5-1.1-1.1l0,0c0-0.6,0.5-1.1,1.1-1.1h22.1c0.6,0,1.1,0.5,1.1,1.1l0,0C607.8,389.9,607.3,390.4,606.6,390.4z"/><path fill="#C1272D" d="M550.2,390.4h-9.9c-0.6,0-1.1-0.5-1.1-1.1l0,0c0-0.6,0.5-1.1,1.1-1.1h9.9c0.6,0,1.1,0.5,1.1,1.1l0,0C551.3,389.9,550.8,390.4,550.2,390.4z"/></g><path fill="#C1272D" d="M531.6,399.2h-9.9c-0.6,0-1.1-0.5-1.1-1.1l0,0c0-0.6,0.5-1.1,1.1-1.1h9.9c0.6,0,1.1,0.5,1.1,1.1l0,0C532.8,398.6,532.2,399.2,531.6,399.2z"/><path fill="#C1272D" d="M525.5,407.9h-9.9c-0.6,0-1.1-0.5-1.1-1.1l0,0c0-0.6,0.5-1.1,1.1-1.1h9.9c0.6,0,1.1,0.5,1.1,1.1l0,0C526.7,407.4,526.2,407.9,525.5,407.9z"/><path fill="#C1272D" d="M538.7,451.7h-24c-0.6,0-1.1-0.5-1.1-1.1l0,0c0-0.6,0.5-1.1,1.1-1.1h24c0.6,0,1.1,0.5,1.1,1.1l0,0C539.8,451.2,539.3,451.7,538.7,451.7z"/><g><path fill="#FBB03B" d="M603.4,460.5h-24c-0.6,0-1.1-0.5-1.1-1.1l0,0c0-0.6,0.5-1.1,1.1-1.1h24c0.6,0,1.1,0.5,1.1,1.1l0,0C604.6,459.9,604.1,460.5,603.4,460.5z"/><path fill="#C1272D" d="M559.7,460.5h-45.1c-0.6,0-1.1-0.5-1.1-1.1l0,0c0-0.6,0.5-1.1,1.1-1.1h45.1c0.6,0,1.1,0.5,1.1,1.1l0,0C560.9,459.9,560.4,460.5,559.7,460.5z"/><path fill="#FFFFFF" d="M772.7,460.5H608.1c-0.6,0-1.1-0.5-1.1-1.1l0,0c0-0.6,0.5-1.1,1.1-1.1h164.6c0.6,0,1.1,0.5,1.1,1.1l0,0C773.8,459.9,773.3,460.5,772.7,460.5z"/><path fill="#00FF00" d="M574.3,460.5h-9.9c-0.6,0-1.1-0.5-1.1-1.1l0,0c0-0.6,0.5-1.1,1.1-1.1h9.9c0.6,0,1.1,0.5,1.1,1.1l0,0C575.4,459.9,574.9,460.5,574.3,460.5z"/></g><g><path fill="#FBB03B" d="M603.4,521.7h-24c-0.6,0-1.1-0.5-1.1-1.1l0,0c0-0.6,0.5-1.1,1.1-1.1h24c0.6,0,1.1,0.5,1.1,1.1l0,0C604.6,521.2,604.1,521.7,603.4,521.7z"/><path fill="#C1272D" d="M559.7,521.7h-45.1c-0.6,0-1.1-0.5-1.1-1.1l0,0c0-0.6,0.5-1.1,1.1-1.1h45.1c0.6,0,1.1,0.5,1.1,1.1l0,0C560.9,521.2,560.4,521.7,559.7,521.7z"/><path fill="#FFFFFF" d="M772.7,521.7H608.1c-0.6,0-1.1-0.5-1.1-1.1l0,0c0-0.6,0.5-1.1,1.1-1.1h164.6c0.6,0,1.1,0.5,1.1,1.1l0,0C773.8,521.2,773.3,521.7,772.7,521.7z"/><path fill="#00FF00" d="M574.3,521.7h-9.9c-0.6,0-1.1-0.5-1.1-1.1l0,0c0-0.6,0.5-1.1,1.1-1.1h9.9c0.6,0,1.1,0.5,1.1,1.1l0,0C575.4,521.2,574.9,521.7,574.3,521.7z"/></g><g><path fill="#FBB03B" d="M659.6,530.5h-73.2c-0.6,0-1.1-0.5-1.1-1.1l0,0c0-0.6,0.5-1.1,1.1-1.1h73.2c0.6,0,1.1,0.5,1.1,1.1l0,0C660.7,530,660.2,530.5,659.6,530.5z"/><path fill="#C1272D" d="M538.6,530.5h-16.9c-0.6,0-1.1-0.5-1.1-1.1l0,0c0-0.6,0.5-1.1,1.1-1.1h16.9c0.6,0,1.1,0.5,1.1,1.1l0,0C539.7,530,539.2,530.5,538.6,530.5z"/><path fill="#FFFFFF" d="M779.6,530.5H664.3c-0.6,0-1.1-0.5-1.1-1.1l0,0c0-0.6,0.5-1.1,1.1-1.1h115.4c0.6,0,1.1,0.5,1.1,1.1l0,0C780.8,530,780.3,530.5,779.6,530.5z"/><path fill="#00FF00" d="M581.2,530.5h-38c-0.6,0-1.1-0.5-1.1-1.1l0,0c0-0.6,0.5-1.1,1.1-1.1h38c0.6,0,1.1,0.5,1.1,1.1l0,0C582.4,530,581.9,530.5,581.2,530.5z"/></g><g><path fill="#FBB03B" d="M678,539.3h-73.2c-0.6,0-1.1-0.5-1.1-1.1l0,0c0-0.6,0.5-1.1,1.1-1.1H678c0.6,0,1.1,0.5,1.1,1.1l0,0C679.1,538.8,678.6,539.3,678,539.3z"/><path fill="#C1272D" d="M556.9,539.3H540c-0.6,0-1.1-0.5-1.1-1.1l0,0c0-0.6,0.5-1.1,1.1-1.1h16.9c0.6,0,1.1,0.5,1.1,1.1l0,0C558.1,538.8,557.6,539.3,556.9,539.3z"/><path fill="#FFFFFF" d="M798,539.3H682.7c-0.6,0-1.1-0.5-1.1-1.1l0,0c0-0.6,0.5-1.1,1.1-1.1H798c0.6,0,1.1,0.5,1.1,1.1l0,0C799.2,538.8,798.6,539.3,798,539.3z"/><path fill="#00FF00" d="M599.6,539.3h-38c-0.6,0-1.1-0.5-1.1-1.1l0,0c0-0.6,0.5-1.1,1.1-1.1h38c0.6,0,1.1,0.5,1.1,1.1l0,0C600.8,538.8,600.3,539.3,599.6,539.3z"/></g><g><path fill="#FBB03B" d="M635.8,548h-59.1c-0.6,0-1.1-0.5-1.1-1.1l0,0c0-0.6,0.5-1.1,1.1-1.1h59.1c0.6,0,1.1,0.5,1.1,1.1l0,0C636.9,547.5,636.4,548,635.8,548z"/><path fill="#C1272D" d="M542.9,548H540c-0.6,0-1.1-0.5-1.1-1.1l0,0c0-0.6,0.5-1.1,1.1-1.1h2.9c0.6,0,1.1,0.5,1.1,1.1l0,0C544,547.5,543.5,548,542.9,548z"/><path fill="#FFFFFF" d="M798,548H640.5c-0.6,0-1.1-0.5-1.1-1.1l0,0c0-0.6,0.5-1.1,1.1-1.1H798c0.6,0,1.1,0.5,1.1,1.1l0,0C799.2,547.5,798.6,548,798,548z"/><path fill="#00FF00" d="M571.5,548h-24c-0.6,0-1.1-0.5-1.1-1.1l0,0c0-0.6,0.5-1.1,1.1-1.1h24c0.6,0,1.1,0.5,1.1,1.1l0,0C572.6,547.5,572.1,548,571.5,548z"/></g><g><path fill="#FBB03B" d="M638.6,469.2h-38c-0.6,0-1.1-0.5-1.1-1.1l0,0c0-0.6,0.5-1.1,1.1-1.1h38c0.6,0,1.1,0.5,1.1,1.1l0,0C639.7,468.7,639.2,469.2,638.6,469.2z"/><path fill="#C1272D" d="M580.8,469.2h-66.1c-0.6,0-1.1-0.5-1.1-1.1l0,0c0-0.6,0.5-1.1,1.1-1.1h66.1c0.6,0,1.1,0.5,1.1,1.1l0,0C582,468.7,581.5,469.2,580.8,469.2z"/><path fill="#FFFFFF" d="M772.3,469.2H642.8c-0.6,0-1.1-0.5-1.1-1.1l0,0c0-0.6,0.5-1.1,1.1-1.1h129.4c0.6,0,1.1,0.5,1.1,1.1l0,0C773.4,468.7,772.9,469.2,772.3,469.2z"/><path fill="#00FF00" d="M595.4,469.2h-9.9c-0.6,0-1.1-0.5-1.1-1.1l0,0c0-0.6,0.5-1.1,1.1-1.1h9.9c0.6,0,1.1,0.5,1.1,1.1l0,0C596.5,468.7,596,469.2,595.4,469.2z"/></g><g><path fill="#FFFFFF" d="M729.8,478h-94.3c-0.6,0-1.1-0.5-1.1-1.1l0,0c0-0.6,0.5-1.1,1.1-1.1h94.3c0.6,0,1.1,0.5,1.1,1.1l0,0C730.9,477.5,730.4,478,729.8,478z"/><path fill="#00FF00" d="M579.3,478h-24c-0.6,0-1.1-0.5-1.1-1.1l0,0c0-0.6,0.5-1.1,1.1-1.1h24c0.6,0,1.1,0.5,1.1,1.1l0,0C580.4,477.5,579.9,478,579.3,478z"/><path fill="#FBB03B" d="M631,478h-46.4c-0.6,0-1.1-0.5-1.1-1.1l0,0c0-0.6,0.5-1.1,1.1-1.1H631c0.6,0,1.1,0.5,1.1,1.1l0,0C632.1,477.5,631.6,478,631,478z"/><path fill="#C1272D" d="M550.2,478h-9.9c-0.6,0-1.1-0.5-1.1-1.1l0,0c0-0.6,0.5-1.1,1.1-1.1h9.9c0.6,0,1.1,0.5,1.1,1.1l0,0C551.3,477.5,550.8,478,550.2,478z"/></g><g><path fill="#FFFFFF" d="M755.4,486.7h-94.3c-0.6,0-1.1-0.5-1.1-1.1l0,0c0-0.6,0.5-1.1,1.1-1.1h94.3c0.6,0,1.1,0.5,1.1,1.1l0,0C756.5,486.2,756,486.7,755.4,486.7z"/><path fill="#00FF00" d="M579.3,486.7h-24c-0.6,0-1.1-0.5-1.1-1.1l0,0c0-0.6,0.5-1.1,1.1-1.1h24c0.6,0,1.1,0.5,1.1,1.1l0,0C580.4,486.2,579.9,486.7,579.3,486.7z"/><path fill="#FBB03B" d="M656.3,486.7h-71.7c-0.6,0-1.1-0.5-1.1-1.1l0,0c0-0.6,0.5-1.1,1.1-1.1h71.7c0.6,0,1.1,0.5,1.1,1.1l0,0C657.4,486.2,656.9,486.7,656.3,486.7z"/><path fill="#C1272D" d="M550.2,486.7h-9.9c-0.6,0-1.1-0.5-1.1-1.1l0,0c0-0.6,0.5-1.1,1.1-1.1h9.9c0.6,0,1.1,0.5,1.1,1.1l0,0C551.3,486.2,550.8,486.7,550.2,486.7z"/></g><g><path fill="#FFFFFF" d="M729.8,495.4h-94.3c-0.6,0-1.1-0.5-1.1-1.1l0,0c0-0.6,0.5-1.1,1.1-1.1h94.3c0.6,0,1.1,0.5,1.1,1.1l0,0C730.9,494.9,730.4,495.4,729.8,495.4z"/><path fill="#00FF00" d="M579.3,495.5h-24c-0.6,0-1.1-0.5-1.1-1.1l0,0c0-0.6,0.5-1.1,1.1-1.1h24c0.6,0,1.1,0.5,1.1,1.1l0,0C580.4,495,579.9,495.5,579.3,495.5z"/><path fill="#FBB03B" d="M631,495.5h-46.4c-0.6,0-1.1-0.5-1.1-1.1l0,0c0-0.6,0.5-1.1,1.1-1.1H631c0.6,0,1.1,0.5,1.1,1.1l0,0C632.1,495,631.6,495.5,631,495.5z"/><path fill="#C1272D" d="M550.2,495.5h-9.9c-0.6,0-1.1-0.5-1.1-1.1l0,0c0-0.6,0.5-1.1,1.1-1.1h9.9c0.6,0,1.1,0.5,1.1,1.1l0,0C551.3,495,550.8,495.5,550.2,495.5z"/></g><path fill="#C1272D" d="M531.6,504.2h-9.9c-0.6,0-1.1-0.5-1.1-1.1l0,0c0-0.6,0.5-1.1,1.1-1.1h9.9c0.6,0,1.1,0.5,1.1,1.1l0,0C532.8,503.7,532.2,504.2,531.6,504.2z"/><path fill="#C1272D" d="M525.5,513h-9.9c-0.6,0-1.1-0.5-1.1-1.1l0,0c0-0.6,0.5-1.1,1.1-1.1h9.9c0.6,0,1.1,0.5,1.1,1.1l0,0C526.7,512.5,526.2,513,525.5,513z"/></g></g></g><g><g><linearGradient id="SVGID_6_" gradientUnits="userSpaceOnUse" x1="751.7" y1="261.7103" x2="751.7" y2="195.9122" gradientTransform="matrix(1 0 0 -1 0 952)"><stop offset="0" style="stop-color:#4F5B7E"/><stop offset="7.132825e-02" style="stop-color:#66718F"/><stop offset="0.2311" style="stop-color:#949CB1"/><stop offset="0.3913" style="stop-color:#BBBFCD"/><stop offset="0.5492" style="stop-color:#D9DBE3"/><stop offset="0.7041" style="stop-color:#EEEFF2"/><stop offset="0.8549" style="stop-color:#FBFBFC"/><stop offset="0.9965" style="stop-color:#FFFFFF"/></linearGradient><polygon fill="url(#SVGID_6_)" points="787.8,763.4 660.4,763.4 715.5,695.8 843,695.8 "/></g><g><g><path fill="#F2F2F2" d="M834.4,700.4H721c-5.6,0-10.1-4.5-10.1-10.1V449.2c0-5.6,4.5-10.1,10.1-10.1h113.4c5.6,0,10.1,4.5,10.1,10.1v241.1C844.6,695.9,840,700.4,834.4,700.4z"/><path fill="#999999" d="M834.4,439h-18.1h-77.1H721c-5.6,0-10.1,4.5-10.1,10.1v241.1c0,5.6,4.5,10.1,10.1,10.1h113.4c5.6,0,10.1-4.5,10.1-10.1v-241C844.6,443.6,840,439,834.4,439z M843,690.3c0,4.7-3.8,8.5-8.5,8.5H721c-4.7,0-8.5-3.8-8.5-8.5V449.2c0-4.7,3.8-8.5,8.5-8.5h18.9l1.3,2.9c1.2,2.8,4,4.6,7.1,4.6h59c3.1,0,5.9-1.8,7.1-4.6l1.3-2.9h18.9c4.7,0,8.5,3.8,8.5,8.5L843,690.3L843,690.3z"/></g><rect x="721.2" y="487" fill="#AFC6F5" width="113.4" height="75.9"/><rect x="721.2" y="571.7" fill="#3878FF" width="52.3" height="40.8"/><rect x="782.3" y="571.7" fill="#3878FF" width="52.3" height="40.8"/><rect x="721.2" y="623.6" fill="#1F1F89" width="74" height="7.2"/><rect x="721.2" y="638.5" fill="#B3B3B3" width="113.4" height="3.4"/><rect x="721.2" y="648" fill="#B3B3B3" width="113.4" height="3.4"/><rect x="721.2" y="657.4" fill="#B3B3B3" width="113.4" height="3.4"/><rect x="721.2" y="666.9" fill="#B3B3B3" width="113.4" height="3.4"/><rect x="721.2" y="676.3" fill="#B3B3B3" width="113.4" height="3.4"/><circle fill="#B3B3B3" cx="730.3" cy="463.9" r="8.6"/><g><rect x="813.7" y="460.2" fill="#999999" width="15.5" height="1.3"/><rect x="813.7" y="463.3" fill="#999999" width="15.5" height="1.3"/><rect x="813.7" y="466.4" fill="#999999" width="15.5" height="1.3"/></g><path fill="none" stroke="#B3B3B3" stroke-width="0.8947" stroke-miterlimit="10" d="M801,467.7h-49.8c-2.3,0-4.2-1.9-4.2-4.2l0,0c0-2.3,1.9-4.2,4.2-4.2H801c2.3,0,4.2,1.9,4.2,4.2l0,0C805.2,465.8,803.3,467.7,801,467.7z"/></g></g><g><g><linearGradient id="SVGID_7_" gradientUnits="userSpaceOnUse" x1="86.1" y1="402.5361" x2="86.1" y2="351.4906" gradientTransform="matrix(1 0 0 -1 0 952)"><stop offset="0" style="stop-color:#4F5B7E"/><stop offset="7.132825e-02" style="stop-color:#66718F"/><stop offset="0.2311" style="stop-color:#949CB1"/><stop offset="0.3913" style="stop-color:#BBBFCD"/><stop offset="0.5492" style="stop-color:#D9DBE3"/><stop offset="0.7041" style="stop-color:#EEEFF2"/><stop offset="0.8549" style="stop-color:#FBFBFC"/><stop offset="0.9965" style="stop-color:#FFFFFF"/></linearGradient><polygon fill="url(#SVGID_7_)" points="129.4,606.2 0,606.2 42.8,553.7 172.2,553.7 "/></g><g><polygon fill="#F76D59" points="170.6,308.3 157.5,322.8 123.3,322.8 124.9,341.3 162.8,334.9 174.3,319.2 "/><linearGradient id="SVGID_8_" gradientUnits="userSpaceOnUse" x1="123.3" y1="627.2" x2="174.3" y2="627.2" gradientTransform="matrix(1 0 0 -1 0 952)"><stop offset="2.584135e-03" style="stop-color:#852F2E"/><stop offset="0.1817" style="stop-color:#933733"/><stop offset="0.522" style="stop-color:#B94B42"/><stop offset="0.9846" style="stop-color:#F56C58"/><stop offset="0.9991" style="stop-color:#F76D59"/></linearGradient><polygon opacity="0.15" fill="url(#SVGID_8_)" enable-background="new " points="170.6,308.3 157.5,322.8 123.3,322.8 124.9,341.3 162.8,334.9 174.3,319.2 "/><linearGradient id="SVGID_9_" gradientUnits="userSpaceOnUse" x1="2490.5059" y1="550.2964" x2="2487.8926" y2="504.7487" gradientTransform="matrix(-1 0 0 -1 2612.3074 952)"><stop offset="3.252340e-03" style="stop-color:#241084"/><stop offset="0.9896" style="stop-color:#0A5DE2"/></linearGradient><path fill="url(#SVGID_9_)" d="M86.1,387.8l52.3,44.6L127.1,478l31,0.9l0,0c1-3.5-1.3-7.1-4.9-7.7l-11.2-1.9l16.3-39.8l-27.4-43.6L86.1,387.8z"/><path fill="#3878FF" d="M85.6,382l-4.4,58l-16.9,39c-0.9,1.1-9.4,3.9-6.2,9.6l9.6,15h5.1c4.3,0,10.3-2.9,2.4-7.2l-4.3-10.6l24.5-35.6l28.8-66L85.6,382z"/><g><path fill="#D8C8BA" d="M92.8,293.7c-2,9.6-2.1,24.4,12.4,26.7c14.4,2.3,23-6.8,25.1-16.4c2.1-9.6-1.5-22-16.3-23.9C104.3,278.8,94.4,286,92.8,293.7z"/><path fill="#333333" d="M103.2,319.7C92.9,316.9,89,307,90.5,296.9c1.8-12.3,13.9-18.9,23.6-16.8c0.6,0.1,1.1,0.4,1.7,0.5c0.2,1.5,0.1,3-0.3,4.3c-1.6,4.7-5.9,8.7-10.7,10.2C104.7,295,101.7,316.6,103.2,319.7z"/><path fill="#D8C8BA" d="M102,296.7c-1.5-0.2-3,0.1-4.3,0.9c-4.2,2.3-2.7,8.5,1,10.5c1.2,0.6,2.5,1,3.9,1.1c1.2,0.1,2.4,0.1,3.4-0.5s1.6-1.7,1.8-2.8c0.2-1.1,0.1-2.3-0.2-3.4C107.1,299.9,104.7,297.1,102,296.7z"/></g><path fill="#D8C8BA" d="M193.3,295.7c1.8-2.8,1-6.5-1.8-8.3s-6.5-1-8.3,1.8c-1.1,1.7-1.2,3.9-0.5,5.6l-16.3,18l7.8,6.4l13-20.9C189.5,298.8,191.9,297.8,193.3,295.7z"/><path fill="#F76D59" d="M181.9,330l-9.1,3c-5.1,3.4-6.7,4.7-12.3,6l-37.3-16.2L98.9,329l-13.6,50.5c-1,3.8,1.6,7.6,5.5,8l34.4,3.2c3.7,0.3,6.9-2.5,7-6.2l2.5-35.8l27.8,7.1c8.6-6.5,9.1-7.1,22.7-17.8L181.9,330z"/><g><rect x="41.1" y="506.9" fill="#3878FF" width="64.2" height="50"/><rect x="105.4" y="481.4" fill="#3878FF" width="64.2" height="75.5"/><rect x="38.4" y="503.4" fill="#1F1F89" width="67" height="3.5"/><rect x="103" y="477.9" fill="#1F1F89" width="69" height="3.5"/></g><path fill="#D8C8BA" d="M211.1,320.3c2.1-2.5,1.8-6.3-0.7-8.4s-6.3-1.8-8.4,0.7c-1.1,1.3-1.5,2.9-1.4,4.4l-35,20.4l6.4,11l33.8-25.9C207.7,322.6,209.7,321.9,211.1,320.3z"/></g></g><g><g><linearGradient id="SVGID_10_" gradientUnits="userSpaceOnUse" x1="138.85" y1="317.939" x2="138.85" y2="252.1408" gradientTransform="matrix(1 0 0 -1 0 952)"><stop offset="0" style="stop-color:#4F5B7E"/><stop offset="7.132825e-02" style="stop-color:#66718F"/><stop offset="0.2311" style="stop-color:#949CB1"/><stop offset="0.3913" style="stop-color:#BBBFCD"/><stop offset="0.5492" style="stop-color:#D9DBE3"/><stop offset="0.7041" style="stop-color:#EEEFF2"/><stop offset="0.8549" style="stop-color:#FBFBFC"/><stop offset="0.9965" style="stop-color:#FFFFFF"/></linearGradient><polygon fill="url(#SVGID_10_)" points="154.9,707.2 67.7,707.2 122.9,639.6 210,639.6 "/></g><g><g><g><path fill="#FCD923" d="M166.5,582.6c-22.7,0-41.2-18.5-41.2-41.2s18.5-41.2,41.2-41.2s41.2,18.5,41.2,41.2S189.2,582.6,166.5,582.6z"/></g></g><g><path fill="#CEAC1B" d="M166.5,510.5c-17,0-30.9,13.8-30.9,30.9c0,17,13.8,30.9,30.9,30.9c17,0,30.9-13.9,30.9-30.9S183.5,510.5,166.5,510.5z M166.5,570.4c-16,0-29-13-29-29s13-29,29-29s29,13,29,29S182.5,570.4,166.5,570.4z"/><path fill="#CEAC1B" d="M168.3,538c-4.3-0.5-7.6-1.1-7.6-4c0-3.8,5.2-4.2,7.4-4.2c2.9,0,6,1.2,7.4,2.9l0.5,0.5l5.1-2.3l-0.6-0.9c-1.8-3-4.7-4.7-9.2-5.3v-4h-6v4c-2.6,0.3-10.8,1.9-10.8,9.4c0,8,7.3,8.8,13.2,9.5c5.6,0.6,8.2,2.1,8.2,4.6c0,3-3.1,4.9-8,4.9c-3.1,0-7.1-1.3-8.9-4.1l-0.4-0.7l-5.5,2.3l0.5,0.9c2.9,5.3,8.6,6.6,11.8,6.9v4.3h6v-4.6c5.5-0.4,11-3.7,11-10C182.4,539.7,174.2,538.7,168.3,538z M171.2,556.2l-1.7,0.1v4.4h-2.2v-4.2l-1.7-0.1c-2.6-0.2-7.2-1.2-9.8-5l2.1-0.9c2.3,3,6.7,4.3,10,4.3c6.1,0,9.9-2.6,9.9-6.8c0-5.3-7.2-6.1-9.9-6.5c-7.8-0.9-11.5-2.2-11.5-7.6c0-5.9,7-7.2,9.2-7.5l1.7-0.2v-3.8h2.2v3.7l1.6,0.2c3.4,0.5,5.7,1.6,7.2,3.6l-1.8,0.8c-1.9-1.8-5.2-3-8.4-3c-5.8,0-9.3,2.3-9.3,6.1c0,4.8,5.3,5.4,9.2,5.9c8.2,1,12.4,2.5,12.4,8.2C180.5,553.2,175.8,555.8,171.2,556.2z"/></g><g><path fill="#FCD923" d="M209.1,607.2h-88.3v-19.7h88.3V607.2z"/></g><g><path fill="#FCD923" d="M218,588h-88.3v-19.7H218V588z"/></g><g><path fill="#FCD923" d="M218,625.1h-88.3v-19.7H218V625.1z"/></g><g><path fill="#FCD923" d="M209.1,642.6h-88.3v-19.7h88.3V642.6z"/></g><rect x="129.7" y="622.9" fill="#CEAC1B" width="88.4" height="3.4"/><rect x="129.7" y="605.3" fill="#CEAC1B" width="88.4" height="3.4"/><rect x="129.7" y="587.5" fill="#CEAC1B" width="88.4" height="3.4"/><rect x="129.7" y="568.3" fill="#CEAC1B" width="88.4" height="3.4"/><g><g><rect x="132.5" y="570.5" fill="#CEAC1B" width="1.1" height="14.2"/><rect x="135.9" y="570.5" fill="#CEAC1B" width="1.1" height="10.8"/><rect x="139.3" y="570.5" fill="#CEAC1B" width="1.1" height="12.5"/><rect x="142.7" y="570.5" fill="#CEAC1B" width="1.1" height="14.2"/><rect x="146.1" y="570.5" fill="#CEAC1B" width="1.1" height="13.6"/></g><g><rect x="149.5" y="570.5" fill="#CEAC1B" width="1.1" height="14.2"/><rect x="152.9" y="570.5" fill="#CEAC1B" width="1.1" height="10.8"/><rect x="156.3" y="570.5" fill="#CEAC1B" width="1.1" height="12.5"/><rect x="159.7" y="570.5" fill="#CEAC1B" width="1.1" height="14.2"/><rect x="163.1" y="570.5" fill="#CEAC1B" width="1.1" height="13.6"/></g><g><rect x="166.5" y="570.5" fill="#CEAC1B" width="1.1" height="14.2"/><rect x="169.9" y="570.5" fill="#CEAC1B" width="1.1" height="10.8"/><rect x="173.3" y="570.5" fill="#CEAC1B" width="1.1" height="12.5"/><rect x="176.7" y="570.5" fill="#CEAC1B" width="1.1" height="14.2"/><rect x="180.1" y="570.5" fill="#CEAC1B" width="1.1" height="13.6"/></g><g><rect x="183.5" y="570.5" fill="#CEAC1B" width="1.1" height="14.2"/><rect x="186.9" y="570.5" fill="#CEAC1B" width="1.1" height="10.8"/><rect x="190.3" y="570.5" fill="#CEAC1B" width="1.1" height="12.5"/><rect x="193.7" y="570.5" fill="#CEAC1B" width="1.1" height="14.2"/><rect x="197.1" y="570.5" fill="#CEAC1B" width="1.1" height="13.6"/></g><g><rect x="200.5" y="570.5" fill="#CEAC1B" width="1.1" height="14.2"/><rect x="203.9" y="570.5" fill="#CEAC1B" width="1.1" height="10.8"/><rect x="207.3" y="570.5" fill="#CEAC1B" width="1.1" height="12.5"/><rect x="210.7" y="570.5" fill="#CEAC1B" width="1.1" height="14.2"/><rect x="214.1" y="570.5" fill="#CEAC1B" width="1.1" height="13.6"/></g></g><g><g><rect x="123.6" y="589.2" fill="#CEAC1B" width="1.1" height="14.2"/><rect x="127" y="589.2" fill="#CEAC1B" width="1.1" height="10.8"/><rect x="130.4" y="589.2" fill="#CEAC1B" width="1.1" height="12.5"/><rect x="133.8" y="589.2" fill="#CEAC1B" width="1.1" height="14.2"/><rect x="137.2" y="589.2" fill="#CEAC1B" width="1.1" height="13.6"/></g><g><rect x="140.6" y="589.2" fill="#CEAC1B" width="1.1" height="14.2"/><rect x="144" y="589.2" fill="#CEAC1B" width="1.1" height="10.8"/><rect x="147.4" y="589.2" fill="#CEAC1B" width="1.1" height="12.5"/><rect x="150.8" y="589.2" fill="#CEAC1B" width="1.1" height="14.2"/><rect x="154.2" y="589.2" fill="#CEAC1B" width="1.1" height="13.6"/></g><g><rect x="157.6" y="589.2" fill="#CEAC1B" width="1.1" height="14.2"/><rect x="161" y="589.2" fill="#CEAC1B" width="1.1" height="10.8"/><rect x="164.4" y="589.2" fill="#CEAC1B" width="1.1" height="12.5"/><rect x="167.8" y="589.2" fill="#CEAC1B" width="1.1" height="14.2"/><rect x="171.2" y="589.2" fill="#CEAC1B" width="1.1" height="13.6"/></g><g><rect x="174.6" y="589.2" fill="#CEAC1B" width="1.1" height="14.2"/><rect x="178" y="589.2" fill="#CEAC1B" width="1.1" height="10.8"/><rect x="181.4" y="589.2" fill="#CEAC1B" width="1.1" height="12.5"/><rect x="184.8" y="589.2" fill="#CEAC1B" width="1.1" height="14.2"/><rect x="188.2" y="589.2" fill="#CEAC1B" width="1.1" height="13.6"/></g><g><rect x="191.6" y="589.2" fill="#CEAC1B" width="1.1" height="14.2"/><rect x="195" y="589.2" fill="#CEAC1B" width="1.1" height="10.8"/><rect x="198.4" y="589.2" fill="#CEAC1B" width="1.1" height="12.5"/><rect x="201.8" y="589.2" fill="#CEAC1B" width="1.1" height="14.2"/><rect x="205.2" y="589.2" fill="#CEAC1B" width="1.1" height="13.6"/></g></g><g><g><rect x="132.5" y="607.3" fill="#CEAC1B" width="1.1" height="14.2"/><rect x="135.9" y="607.3" fill="#CEAC1B" width="1.1" height="10.8"/><rect x="139.3" y="607.3" fill="#CEAC1B" width="1.1" height="12.5"/><rect x="142.7" y="607.3" fill="#CEAC1B" width="1.1" height="14.2"/><rect x="146.1" y="607.3" fill="#CEAC1B" width="1.1" height="13.6"/></g><g><rect x="149.5" y="607.3" fill="#CEAC1B" width="1.1" height="14.2"/><rect x="152.9" y="607.3" fill="#CEAC1B" width="1.1" height="10.8"/><rect x="156.3" y="607.3" fill="#CEAC1B" width="1.1" height="12.5"/><rect x="159.7" y="607.3" fill="#CEAC1B" width="1.1" height="14.2"/><rect x="163.1" y="607.3" fill="#CEAC1B" width="1.1" height="13.6"/></g><g><rect x="166.5" y="607.3" fill="#CEAC1B" width="1.1" height="14.2"/><rect x="169.9" y="607.3" fill="#CEAC1B" width="1.1" height="10.8"/><rect x="173.3" y="607.3" fill="#CEAC1B" width="1.1" height="12.5"/><rect x="176.7" y="607.3" fill="#CEAC1B" width="1.1" height="14.2"/><rect x="180.1" y="607.3" fill="#CEAC1B" width="1.1" height="13.6"/></g><g><rect x="183.5" y="607.3" fill="#CEAC1B" width="1.1" height="14.2"/><rect x="186.9" y="607.3" fill="#CEAC1B" width="1.1" height="10.8"/><rect x="190.3" y="607.3" fill="#CEAC1B" width="1.1" height="12.5"/><rect x="193.7" y="607.3" fill="#CEAC1B" width="1.1" height="14.2"/><rect x="197.1" y="607.3" fill="#CEAC1B" width="1.1" height="13.6"/></g><g><rect x="200.5" y="607.3" fill="#CEAC1B" width="1.1" height="14.2"/><rect x="203.9" y="607.3" fill="#CEAC1B" width="1.1" height="10.8"/><rect x="207.3" y="607.3" fill="#CEAC1B" width="1.1" height="12.5"/><rect x="210.7" y="607.3" fill="#CEAC1B" width="1.1" height="14.2"/><rect x="214.1" y="607.3" fill="#CEAC1B" width="1.1" height="13.6"/></g></g><g><g><rect x="123.6" y="625.4" fill="#CEAC1B" width="1.1" height="14.2"/><rect x="127" y="625.4" fill="#CEAC1B" width="1.1" height="10.8"/><rect x="130.4" y="625.4" fill="#CEAC1B" width="1.1" height="12.5"/><rect x="133.8" y="625.4" fill="#CEAC1B" width="1.1" height="14.2"/><rect x="137.2" y="625.4" fill="#CEAC1B" width="1.1" height="13.6"/></g><g><rect x="140.6" y="625.4" fill="#CEAC1B" width="1.1" height="14.2"/><rect x="144" y="625.4" fill="#CEAC1B" width="1.1" height="10.8"/><rect x="147.4" y="625.4" fill="#CEAC1B" width="1.1" height="12.5"/><rect x="150.8" y="625.4" fill="#CEAC1B" width="1.1" height="14.2"/><rect x="154.2" y="625.4" fill="#CEAC1B" width="1.1" height="13.6"/></g><g><rect x="157.6" y="625.4" fill="#CEAC1B" width="1.1" height="14.2"/><rect x="161" y="625.4" fill="#CEAC1B" width="1.1" height="10.8"/><rect x="164.4" y="625.4" fill="#CEAC1B" width="1.1" height="12.5"/><rect x="167.8" y="625.4" fill="#CEAC1B" width="1.1" height="14.2"/><rect x="171.2" y="625.4" fill="#CEAC1B" width="1.1" height="13.6"/></g><g><rect x="174.6" y="625.4" fill="#CEAC1B" width="1.1" height="14.2"/><rect x="178" y="625.4" fill="#CEAC1B" width="1.1" height="10.8"/><rect x="181.4" y="625.4" fill="#CEAC1B" width="1.1" height="12.5"/><rect x="184.8" y="625.4" fill="#CEAC1B" width="1.1" height="14.2"/><rect x="188.2" y="625.4" fill="#CEAC1B" width="1.1" height="13.6"/></g><g><rect x="191.6" y="625.4" fill="#CEAC1B" width="1.1" height="14.2"/><rect x="195" y="625.4" fill="#CEAC1B" width="1.1" height="10.8"/><rect x="198.4" y="625.4" fill="#CEAC1B" width="1.1" height="12.5"/><rect x="201.8" y="625.4" fill="#CEAC1B" width="1.1" height="14.2"/><rect x="205.2" y="625.4" fill="#CEAC1B" width="1.1" height="13.6"/></g></g></g></g><g><g><path fill="#FCD923" d="M419.4,569.9c0-13.1-10.6-23.8-23.8-23.8c-13.1,0-23.8,10.6-23.8,23.8c0,8.2,5.9,12.9,9.4,19.7c1.1,2,1.9,9.3,1.9,9.3c0,4.4,3.6,8,8,8h8.8c4.4,0,8-3.6,8-8c0,0,1-7.2,2.1-9.3C413.7,582.8,419.4,578.1,419.4,569.9z"/><path fill="#FCD923" d="M395.6,541.3c-1,0-1.9-0.8-1.9-1.9v-14.7c0-1,0.8-1.9,1.9-1.9s1.9,0.8,1.9,1.9v14.7C397.5,540.4,396.7,541.3,395.6,541.3z"/><path fill="#FCD923" d="M407,543.2c-0.3,0-0.5-0.1-0.8-0.2c-0.9-0.4-1.4-1.5-1-2.5l5.6-12.7c0.4-0.9,1.5-1.4,2.5-1c0.9,0.4,1.4,1.5,1,2.5l-5.6,12.7C408.5,542.8,407.8,543.2,407,543.2z"/><path fill="#FCD923" d="M416.6,548.6c-0.5,0-1-0.2-1.4-0.6c-0.7-0.8-0.6-2,0.1-2.7l9.3-8.4c0.8-0.7,2-0.6,2.7,0.1c0.7,0.8,0.6,2-0.1,2.7l-9.3,8.4C417.5,548.5,417,548.6,416.6,548.6z"/><path fill="#FCD923" d="M373.5,548.6c-0.4,0-0.9-0.2-1.3-0.5l-9.3-8.4c-0.8-0.7-0.8-1.9-0.1-2.7c0.7-0.8,1.9-0.8,2.7-0.1l9.3,8.4c0.8,0.7,0.8,1.9,0.1,2.7C374.5,548.4,374,548.6,373.5,548.6z"/><path fill="#FCD923" d="M384.2,543.2c-0.7,0-1.4-0.4-1.7-1.1l-5.6-12.7c-0.4-0.9,0-2.1,1-2.5c0.9-0.4,2.1,0,2.5,1l5.6,12.7c0.4,0.9,0,2.1-1,2.5C384.8,543.2,384.5,543.2,384.2,543.2z"/><g><g><circle fill="none" stroke="#FFFFFF" stroke-width="0.564" stroke-miterlimit="10" cx="388.1" cy="574" r="3.9"/><circle fill="none" stroke="#FFFFFF" stroke-width="0.564" stroke-miterlimit="10" cx="393.1" cy="574" r="3.9"/><circle fill="none" stroke="#FFFFFF" stroke-width="0.564" stroke-miterlimit="10" cx="398.1" cy="574" r="3.9"/><circle fill="none" stroke="#FFFFFF" stroke-width="0.564" stroke-miterlimit="10" cx="403.2" cy="574" r="3.9"/></g><path fill="none" stroke="#FFFFFF" stroke-width="0.564" stroke-miterlimit="10" d="M392.1,605v-14.7c0-2.3-0.5-4.7-1.5-6.8l-3.4-5.7"/><path fill="none" stroke="#FFFFFF" stroke-width="0.564" stroke-miterlimit="10" d="M398.5,605v-14.7c0-2.3,0.5-4.6,1.5-6.7l3.5-5.8"/></g><path fill="#1F1F89" d="M405.6,608.8h-20c-1.1,0-2-0.9-2-2l0,0c0-1.1,0.9-2,2-2h20c1.1,0,2,0.9,2,2l0,0C407.6,607.9,406.7,608.8,405.6,608.8z"/><path fill="#1F1F89" d="M405.6,614.6h-20c-1.1,0-2-0.9-2-2l0,0c0-1.1,0.9-2,2-2h20c1.1,0,2,0.9,2,2l0,0C407.6,613.8,406.7,614.6,405.6,614.6z"/><path fill="#1F1F89" d="M405.6,620.5h-20c-1.1,0-2-0.9-2-2l0,0c0-1.1,0.9-2,2-2h20c1.1,0,2,0.9,2,2l0,0C407.6,619.6,406.7,620.5,405.6,620.5z"/></g></g><g><g><linearGradient id="SVGID_11_" gradientUnits="userSpaceOnUse" x1="470.5" y1="170.6777" x2="470.5" y2="104.8795" gradientTransform="matrix(1 0 0 -1 0 952)"><stop offset="0" style="stop-color:#4F5B7E"/><stop offset="7.132825e-02" style="stop-color:#66718F"/><stop offset="0.2311" style="stop-color:#949CB1"/><stop offset="0.3913" style="stop-color:#BBBFCD"/><stop offset="0.5492" style="stop-color:#D9DBE3"/><stop offset="0.7041" style="stop-color:#EEEFF2"/><stop offset="0.8549" style="stop-color:#FBFBFC"/><stop offset="0.9965" style="stop-color:#FFFFFF"/></linearGradient><polygon fill="url(#SVGID_11_)" points="522.8,854.4 363.1,854.4 418.3,786.8 577.9,786.8 "/></g><g><path fill="#E6E6E6" d="M574.3,788.9H420.9c-2.4,0-4.3-1.9-4.3-4.3V669.8c0-2.4,1.9-4.3,4.3-4.3h153.4c2.4,0,4.3,1.9,4.3,4.3v114.8C578.5,787,576.6,788.9,574.3,788.9z"/><path fill="#ED673E" d="M578.5,690.4H416.6v-19.9c0-2.8,2.2-5,5-5h152c2.8,0,5,2.2,5,5L578.5,690.4L578.5,690.4z"/><g><path fill="#999999" d="M494.3,749.8h-12.9l1-0.8l0,0c2.8-2.5,6.3-5.8,8.8-9.5c2.6-3.8,3.9-7.5,3.9-11.4c0-9.7-6.9-16-17.6-16c-5.9,0-11.7,1.8-15.9,5c-0.6,0.4-0.8,1.2-0.5,1.9l3,7.7c0.2,0.5,0.6,0.8,1.1,1c0.1,0,0.3,0.1,0.4,0.1c0.4,0,0.7-0.1,1-0.3c3-2.3,6-3.5,8.8-3.5c3.9,0,5.9,1.7,5.9,5c-0.1,4.6-4.8,9.6-14.4,18.2l-5.9,5.3c-0.3,0.3-0.5,0.7-0.5,1.2v6.5c0,0.9,0.7,1.6,1.6,1.6h32.4c0.9,0,1.6-0.7,1.6-1.6v-8.8C495.9,750.5,495.2,749.8,494.3,749.8z M482.8,729c0,0.3,0,0.6-0.1,0.9C482.7,729.5,482.8,729.3,482.8,729c0-1-0.2-2-0.6-2.9C482.6,726.9,482.8,727.9,482.8,729z M477.1,751.2l4.2-3.5c2.1-1.8,4-3.7,5.8-5.6c-1.7,1.9-3.7,3.8-5.8,5.6L477.1,751.2z"/><path fill="#999999" d="M528.6,732.1c-3.2-2.3-7.8-3.6-12.9-3.6c-0.4,0-0.7,0-1.1,0l0.5-3.7h16.3c0.9,0,1.6-0.7,1.6-1.6v-8.8c0-0.9-0.7-1.6-1.6-1.6h-25.2c-0.8,0-1.5,0.6-1.6,1.4l-3,24c-0.1,0.5,0.1,1,0.5,1.4c0.3,0.3,0.7,0.5,1.1,0.5c0.1,0,0.2,0,0.2,0c2-0.3,3.6-0.4,6-0.4c11.2,0,11.2,4.5,11.2,6c0,4.2-4.7,5.3-7.5,5.3c-3.6,0-7.5-1.1-9.6-2.1c-0.2-0.1-0.5-0.2-0.7-0.2s-0.5,0.1-0.7,0.2c-0.4,0.2-0.8,0.6-0.9,1.1l-1.9,8c-0.2,0.7,0.2,1.5,0.8,1.8c2.6,1.3,7.4,2.8,13.5,2.8c13.9,0,21.2-8.9,21.2-17.6C534.9,739.3,532.7,734.9,528.6,732.1z M509.4,738c1.7,0,3.2,0.1,4.6,0.3C512.7,738.1,511.1,738,509.4,738z M500.9,758.3c0.8,0.4,1.8,0.8,3,1.2C502.7,759.2,501.7,758.8,500.9,758.3z M527.7,733.5c-0.8-0.6-1.7-1.1-2.6-1.5C526,732.4,526.9,732.9,527.7,733.5c0.4,0.3,0.8,0.6,1.2,0.9C528.5,734.1,528.1,733.7,527.7,733.5z M533.3,744.9c0,1.6-0.3,3.2-0.8,4.6C533,748.1,533.3,746.5,533.3,744.9z"/></g></g></g><g><linearGradient id="SVGID_12_" gradientUnits="userSpaceOnUse" x1="657.1" y1="169.5957" x2="657.1" y2="103.7975" gradientTransform="matrix(1 0 0 -1 0 952)"><stop offset="0" style="stop-color:#141C50"/><stop offset="0.1019" style="stop-color:#3E456F"/><stop offset="0.2581" style="stop-color:#787D9A"/><stop offset="0.4092" style="stop-color:#A8ABBE"/><stop offset="0.5514" style="stop-color:#CED0DA"/><stop offset="0.6825" style="stop-color:#E9EAEF"/><stop offset="0.7987" style="stop-color:#F9F9FB"/><stop offset="0.8877" style="stop-color:#FFFFFF"/></linearGradient><polygon opacity="0.6" fill="url(#SVGID_12_)" enable-background="new " points="709.3,855.5 549.7,855.5 604.8,787.9 764.5,787.9 "/><g><path fill="#3878FF" d="M762,788.9H608.6c-2.4,0-4.3-1.9-4.3-4.3V669.8c0-2.4,1.9-4.3,4.3-4.3H762c2.4,0,4.3,1.9,4.3,4.3v114.8C766.3,787,764.4,788.9,762,788.9z"/><path fill="#F2F2F2" d="M766.3,762.6l-68.7-40.9l-21.3,21.7l-40-35.1l-31.9,32.9v43.2c0,2.5,2,4.5,4.5,4.5h152.9c2.5,0,4.5-2,4.5-4.5L766.3,762.6L766.3,762.6z"/><circle fill="#FCD923" cx="710.5" cy="695.4" r="12.9"/></g></g><g><g><linearGradient id="SVGID_13_" gradientUnits="userSpaceOnUse" x1="514.3" y1="72.8457" x2="514.3" y2="7.0475" gradientTransform="matrix(1 0 0 -1 0 952)"><stop offset="0" style="stop-color:#4F5B7E"/><stop offset="7.132825e-02" style="stop-color:#66718F"/><stop offset="0.2311" style="stop-color:#949CB1"/><stop offset="0.3913" style="stop-color:#BBBFCD"/><stop offset="0.5492" style="stop-color:#D9DBE3"/><stop offset="0.7041" style="stop-color:#EEEFF2"/><stop offset="0.8549" style="stop-color:#FBFBFC"/><stop offset="0.9965" style="stop-color:#FFFFFF"/></linearGradient><polygon fill="url(#SVGID_13_)" points="524,952.3 449.4,952.3 504.5,884.7 579.2,884.7 "/></g><g><g><path fill="#ED673E" d="M578.8,882.4v-16.3h-74.2v16.8c0,6.9,16.6,12.5,37.1,12.5s37.1-5.6,37.1-12.5C578.8,882.7,578.8,882.5,578.8,882.4z"/><ellipse fill="#FF0000" cx="541.7" cy="866.7" rx="37.1" ry="12.5"/></g><g><path fill="#FFFFFF" d="M578.8,866.1v-16.3h-74.2v16.8c0,6.9,16.6,12.5,37.1,12.5s37.1-5.6,37.1-12.5C578.8,866.5,578.8,866.3,578.8,866.1z"/><ellipse fill="#FF0000" cx="541.7" cy="850.5" rx="37.1" ry="12.5"/></g><g><path fill="#ED673E" d="M578.8,849.9v-16.3h-74.2v16.8c0,6.9,16.6,12.5,37.1,12.5s37.1-5.6,37.1-12.5C578.8,850.3,578.8,850.1,578.8,849.9z"/><ellipse fill="#FFFFFF" cx="541.7" cy="834.3" rx="37.1" ry="12.5"/></g></g></g><g><g><linearGradient id="SVGID_14_" gradientUnits="userSpaceOnUse" x1="608.1" y1="72.8457" x2="608.1" y2="7.0475" gradientTransform="matrix(1 0 0 -1 0 952)"><stop offset="0" style="stop-color:#4F5B7E"/><stop offset="7.132825e-02" style="stop-color:#66718F"/><stop offset="0.2311" style="stop-color:#949CB1"/><stop offset="0.3913" style="stop-color:#BBBFCD"/><stop offset="0.5492" style="stop-color:#D9DBE3"/><stop offset="0.7041" style="stop-color:#EEEFF2"/><stop offset="0.8549" style="stop-color:#FBFBFC"/><stop offset="0.9965" style="stop-color:#FFFFFF"/></linearGradient><polygon fill="url(#SVGID_14_)" points="617.8,952.3 543.2,952.3 598.3,884.7 673,884.7 "/></g><g><g><path fill="#3878FF" d="M672.9,882.4v-16.3h-74.2v16.8c0,6.9,16.6,12.5,37.1,12.5s37.1-5.6,37.1-12.5C673,882.7,673,882.5,672.9,882.4z"/><ellipse fill="#FF0000" cx="635.8" cy="866.7" rx="37.1" ry="12.5"/></g><g><path fill="#FFFFFF" d="M672.9,867v-16.3h-74.2v16.8c0,6.9,16.6,12.5,37.1,12.5s37.1-5.6,37.1-12.5C673,867.4,673,867.2,672.9,867z"/><ellipse fill="#FF0000" cx="635.8" cy="851.4" rx="37.1" ry="12.5"/></g><g><path fill="#3878FF" d="M672.9,851.7v-16.3h-74.2v16.8c0,6.9,16.6,12.5,37.1,12.5s37.1-5.6,37.1-12.5C673,852.1,673,851.9,672.9,851.7z"/><ellipse fill="#FFFFFF" cx="635.8" cy="836" rx="37.1" ry="12.5"/></g></g></g><g><g><g><linearGradient id="SVGID_15_" gradientUnits="userSpaceOnUse" x1="701.3" y1="72.8457" x2="701.3" y2="7.0475" gradientTransform="matrix(1 0 0 -1 0 952)"><stop offset="0" style="stop-color:#4F5B7E"/><stop offset="7.132825e-02" style="stop-color:#66718F"/><stop offset="0.2311" style="stop-color:#949CB1"/><stop offset="0.3913" style="stop-color:#BBBFCD"/><stop offset="0.5492" style="stop-color:#D9DBE3"/><stop offset="0.7041" style="stop-color:#EEEFF2"/><stop offset="0.8549" style="stop-color:#FBFBFC"/><stop offset="0.9965" style="stop-color:#FFFFFF"/></linearGradient><polygon fill="url(#SVGID_15_)" points="711,952.3 636.4,952.3 691.5,884.7 766.2,884.7 "/></g><g><path fill="#FCD923" d="M766.1,882.4v-16.3h-74.2v16.8c0,6.9,16.6,12.5,37.1,12.5s37.1-5.6,37.1-12.5C766.1,882.7,766.1,882.5,766.1,882.4z"/><ellipse fill="#FF0000" cx="728.9" cy="866.7" rx="37.1" ry="12.5"/></g><g><path fill="#FFFFFF" d="M766.1,867v-16.3h-74.2v16.8c0,6.9,16.6,12.5,37.1,12.5s37.1-5.6,37.1-12.5C766.1,867.4,766.1,867.2,766.1,867z"/><ellipse fill="#FF0000" cx="728.9" cy="851.4" rx="37.1" ry="12.5"/></g></g><g><path fill="#FCD923" d="M766.1,851.5v-16.3h-74.2V852c0,6.9,16.6,12.5,37.1,12.5s37.1-5.6,37.1-12.5C766.1,851.8,766.1,851.7,766.1,851.5z"/><ellipse fill="#FFFFFF" cx="728.9" cy="835.8" rx="37.1" ry="12.5"/></g></g><g><g><linearGradient id="SVGID_16_" gradientUnits="userSpaceOnUse" x1="252.8" y1="65.3036" x2="252.8" y2="8.1991" gradientTransform="matrix(1 0 0 -1 0 952)"><stop offset="0" style="stop-color:#4F5B7E"/><stop offset="7.132825e-02" style="stop-color:#66718F"/><stop offset="0.2311" style="stop-color:#949CB1"/><stop offset="0.3913" style="stop-color:#BBBFCD"/><stop offset="0.5492" style="stop-color:#D9DBE3"/><stop offset="0.7041" style="stop-color:#EEEFF2"/><stop offset="0.8549" style="stop-color:#FBFBFC"/><stop offset="0.9965" style="stop-color:#FFFFFF"/></linearGradient><polygon fill="url(#SVGID_16_)" points="271.4,950.2 186.4,950.2 234.3,891.5 319.2,891.5 "/></g><g><g><path fill="#7EB2FC" d="M271.7,819.2l-36.1,12.4l-19.4,26.2l-3.1,1.6v-20.3L178,851.5c-7.5,2.6-15.4-3-17-11v-52.7c1.6-4.2,4.2-7.9,8.1-9.2l96.1-33.2c6.3-2.2,13,2.5,13,9.2V810C278.3,814.1,275.7,817.9,271.7,819.2z"/><path fill="#3878FF" d="M274,818.4l-36,12.5l-21.7,27v-19.5L178,851.6c-6.3,2.2-13-2.5-13-9.2v-57.6c0-4.2,2.6-7.9,6.6-9.2l96.1-33.2c6.3-2.2,13,2.5,13,9.2v57.6C280.6,813.4,278,817.1,274,818.4z"/><line fill="none" stroke="#FFFFFF" stroke-width="4.1745" stroke-linecap="round" stroke-linejoin="round" stroke-miterlimit="10" x1="178.4" y1="791.1" x2="234.8" y2="771.6"/><line fill="none" stroke="#FFFFFF" stroke-width="2.3854" stroke-linecap="round" stroke-linejoin="round" stroke-miterlimit="10" x1="178.4" y1="806.3" x2="274.2" y2="773.2"/><line fill="none" stroke="#FFFFFF" stroke-width="2.3854" stroke-linecap="round" stroke-linejoin="round" stroke-miterlimit="10" x1="178.4" y1="821.5" x2="222.4" y2="806.3"/></g><circle fill="#F7DCC2" cx="276.5" cy="620.5" r="20.2"/><circle fill="#333333" cx="273.6" cy="619.1" r="20.2"/><path fill="#1F1F89" d="M312.8,881.8l-8.3-0.9l2.5-129l-0.2-14.6l-63.7-0.8l1.8,18.1l5,125.6l-8.6,0.6c-3.9,0.3-7,6.7-7,10.7h30.5v-7.6l5.4-122.5l9-0.4l8.4,119h-0.4l-0.1,11.4h32.5V890C320,886.4,316.5,882.2,312.8,881.8z"/><path fill="#00A784" d="M240.4,731.5v-31.9l-14,57.1h-11.7l19.8-100.5l20.9-10.2c0,0,6.8,4.1,15.2,4.3c9.5,0.2,19.5-4.5,19.5-4.5l18.5,3.2l43.2,5.6l38.4-20.7l3.1,9.5l-35.7,26l-47,5.4l-0.1,55.1c0,7.2-5.7,13-12.8,13.3l-43.5,1.6C246.7,745,240.4,739,240.4,731.5z"/><circle fill="#F7DCC2" cx="219.3" cy="759.9" r="7.9"/><circle fill="#F7DCC2" cx="393.4" cy="635.6" r="7.9"/></g></g></g></svg>