<?xml version="1.0" encoding="utf-8"?><!-- Generator: Adobe Illustrator 21.0.2, SVG Export Plug-In . SVG Version: 6.00 Build 0) --><svg version="1.1" id="Layer_1" xmlns="http://www.w3.org/2000/svg" xmlns:xlink="http://www.w3.org/1999/xlink" x="0px" y="0px" viewBox="0 0 1475.7 1106.2" enable-background="new 0 0 1475.7 1106.2" xml:space="preserve"><g><g><g><linearGradient id="SVGID_1_" gradientUnits="userSpaceOnUse" x1="696.3" y1="473.1573" x2="696.3" y2="369.6165" gradientTransform="matrix(1 0 0 -1 0 1106)"><stop offset="0" style="stop-color:#4F5B7E"/><stop offset="7.132825e-02" style="stop-color:#66718F"/><stop offset="0.2311" style="stop-color:#949CB1"/><stop offset="0.3913" style="stop-color:#BBBFCD"/><stop offset="0.5492" style="stop-color:#D9DBE3"/><stop offset="0.7041" style="stop-color:#EEEFF2"/><stop offset="0.8549" style="stop-color:#FBFBFC"/><stop offset="0.9965" style="stop-color:#FFFFFF"/></linearGradient><polygon fill="url(#SVGID_1_)" points="1067.4,747.9 228.9,747.9 325.3,641.5 1163.7,641.5 "/></g><g><path fill="#CCCCCC" d="M1125,633.5H357c-9.6,0-17.3-7.8-17.3-17.3V131.9c0-9.6,7.8-17.3,17.3-17.3h768c9.6,0,17.3,7.8,17.3,17.3v484.3C1142.4,625.8,1134.6,633.5,1125,633.5z"/><path fill="#E6E6E6" d="M1130.4,598.5H351.7v-464h778.7V598.5z M1125,114.5H349.2c-5.3,0-9.6,4.3-9.6,9.6v499.6c0,5.4,4.4,9.8,9.8,9.8h783.3c5.3,0,9.6-4.3,9.6-9.6v-492C1142.4,122.3,1134.6,114.5,1125,114.5L1125,114.5z"/><rect x="259" y="618.5" fill="#E6E6E6" width="964" height="15"/><path fill="#CCCCCC" d="M1130.2,643.5H348.3c-26.1,0-52.2-2.6-77.8-7.7l-11.5-2.3h964l-8,1.6C1187.1,640.7,1158.7,643.5,1130.2,643.5z"/><path fill="#CCCCCC" d="M792.6,628H689.4c-5.2,0-9.5-4.3-9.5-9.5l0,0h122.2l0,0C802.1,623.8,797.9,628,792.6,628z"/><g><path fill="#E6E6E6" d="M790.6,626h-99.2c-5.2,0-9.5-2.3-9.5-7.5h-2h122.2h-2C800.1,623.8,795.9,626,790.6,626z"/></g><g><g><rect x="409.1" y="185.7" fill="#E6E6E6" width="324.9" height="224.6"/><rect x="409.1" y="436.5" fill="#E6E6E6" width="149.9" height="120.8"/><rect x="584" y="436.5" fill="#E6E6E6" width="149.9" height="120.8"/></g><g><rect x="776.8" y="257.1" fill="#E6E6E6" width="194.2" height="26.7"/><rect x="776.8" y="312.6" fill="#E6E6E6" width="297.4" height="12.6"/><rect x="776.8" y="347.7" fill="#E6E6E6" width="297.4" height="12.6"/><rect x="776.8" y="382.9" fill="#E6E6E6" width="297.4" height="12.6"/><rect x="776.8" y="418.1" fill="#E6E6E6" width="297.4" height="12.6"/><rect x="776.8" y="453.2" fill="#E6E6E6" width="297.4" height="12.6"/></g></g></g></g><g><g><linearGradient id="SVGID_2_" gradientUnits="userSpaceOnUse" x1="1235.75" y1="419.7939" x2="1235.75" y2="316.5264" gradientTransform="matrix(1 0 0 -1 0 1106)"><stop offset="0" style="stop-color:#4F5B7E"/><stop offset="7.132825e-02" style="stop-color:#66718F"/><stop offset="0.2311" style="stop-color:#949CB1"/><stop offset="0.3913" style="stop-color:#BBBFCD"/><stop offset="0.5492" style="stop-color:#D9DBE3"/><stop offset="0.7041" style="stop-color:#EEEFF2"/><stop offset="0.8549" style="stop-color:#FBFBFC"/><stop offset="0.9965" style="stop-color:#FFFFFF"/></linearGradient><polygon fill="url(#SVGID_2_)" points="1215,801 1170,801 1256.6,694.9 1301.5,694.9 "/></g><g><linearGradient id="SVGID_3_" gradientUnits="userSpaceOnUse" x1="1322.85" y1="419.7939" x2="1322.85" y2="316.5264" gradientTransform="matrix(1 0 0 -1 0 1106)"><stop offset="0" style="stop-color:#4F5B7E"/><stop offset="7.132825e-02" style="stop-color:#66718F"/><stop offset="0.2311" style="stop-color:#949CB1"/><stop offset="0.3913" style="stop-color:#BBBFCD"/><stop offset="0.5492" style="stop-color:#D9DBE3"/><stop offset="0.7041" style="stop-color:#EEEFF2"/><stop offset="0.8549" style="stop-color:#FBFBFC"/><stop offset="0.9965" style="stop-color:#FFFFFF"/></linearGradient><polygon fill="url(#SVGID_3_)" points="1302.1,801 1257.1,801 1343.7,694.9 1388.6,694.9 "/></g><g><linearGradient id="SVGID_4_" gradientUnits="userSpaceOnUse" x1="1409.95" y1="419.7939" x2="1409.95" y2="316.5264" gradientTransform="matrix(1 0 0 -1 0 1106)"><stop offset="0" style="stop-color:#4F5B7E"/><stop offset="7.132825e-02" style="stop-color:#66718F"/><stop offset="0.2311" style="stop-color:#949CB1"/><stop offset="0.3913" style="stop-color:#BBBFCD"/><stop offset="0.5492" style="stop-color:#D9DBE3"/><stop offset="0.7041" style="stop-color:#EEEFF2"/><stop offset="0.8549" style="stop-color:#FBFBFC"/><stop offset="0.9965" style="stop-color:#FFFFFF"/></linearGradient><polygon fill="url(#SVGID_4_)" points="1389.2,801 1344.2,801 1430.8,694.9 1475.7,694.9 "/></g><rect x="1256.7" y="406.2" fill="#BA4D42" width="44.8" height="287.8"/><rect x="1343.8" y="476.4" fill="#DBAD45" width="44.8" height="217.6"/><rect x="1430.9" y="530.5" fill="#1F1F89" width="44.8" height="163.5"/><ellipse fill="#BA4D42" cx="1279.1" cy="694" rx="22.4" ry="7.2"/><ellipse fill="#ED673E" cx="1279.1" cy="406.2" rx="22.4" ry="7.2"/><ellipse fill="#DBAD45" cx="1366.2" cy="694" rx="22.4" ry="7.2"/><ellipse fill="#FFCE4F" cx="1366.2" cy="476.4" rx="22.4" ry="7.2"/><ellipse fill="#1F1F89" cx="1453.3" cy="694" rx="22.4" ry="7.2"/><ellipse fill="#3878FF" cx="1453.3" cy="530.5" rx="22.4" ry="7.2"/><g><path fill="#1F1F89" d="M1452.2,491.3h-7.2l-0.6,4.9c0.3,0,0.5,0,0.8,0c1.2,0,3.6,0.6,5.1,2.1s2.4,3.5,2.4,6.3c0,5.3-3.5,9.7-9.5,9.7c-1.9,0-4-0.5-5.1-1.1l0.8-4.4c1,0.5,2.4,1,3.9,1c2.7,0,4.5-1.7,4.5-4.7c0-3.7-2.8-4.9-5.9-4.9c-0.8,0-1.4,0-1.9,0.1l1.5-13.7h11.3v4.7H1452.2z"/><path fill="#1F1F89" d="M1471.7,500c0,9.8-3.6,14.1-8,14.1c-6,0-8-6.9-8-13.9c0-7.9,2.5-14.1,8.2-14.1C1470.2,486.2,1471.7,493.5,1471.7,500z M1461.2,500.2c-0.1,6.4,0.7,9.3,2.6,9.3c1.7,0,2.3-3,2.3-9.3c0-5.8-0.5-9.3-2.3-9.3C1462.1,490.9,1461.2,493.8,1461.2,500.2z"/></g><g><path fill="#1F1F89" d="M1367.2,431.2v3.6l-8.6,23.7h-5.4l8.4-22.4V436h-9.3v-4.9L1367.2,431.2L1367.2,431.2z"/><path fill="#1F1F89" d="M1384,436h-7.2l-0.6,4.9c0.3,0,0.5,0,0.8,0c1.2,0,3.6,0.6,5.1,2.1s2.4,3.5,2.4,6.3c0,5.3-3.5,9.7-9.5,9.7c-1.9,0-4-0.5-5.1-1.1l0.8-4.4c1,0.5,2.4,1,3.9,1c2.7,0,4.5-1.7,4.5-4.7c0-3.7-2.8-4.9-5.9-4.9c-0.8,0-1.4,0-1.9,0.1l1.5-13.7h11.3v4.7H1384z"/></g><g><path fill="#1F1F89" d="M1264,382.6c1.1,0,1.6,0,2.5-0.2c1.1-0.2,2.3-0.8,3.2-1.6c1.2-1.1,2.2-3.1,2.7-5.5h-0.1c-0.9,1-2.1,1.7-3.9,1.7c-3.5,0-6.4-3.2-6.4-8.2c0-4.7,2.9-9.6,8.2-9.6c5.1,0,7.7,4.6,7.7,11.2c0,6.2-2,10.5-4.5,13.2c-1.7,1.8-4.1,3-6.7,3.5c-0.9,0.1-1.7,0.1-2.6,0.1L1264,382.6L1264,382.6z M1269.7,363.2c-1.4,0-2.4,1.8-2.4,5.1c0,2.7,0.9,4.8,2.6,4.8c1,0,1.8-0.7,2.1-1.4c0.2-0.5,0.3-1.1,0.3-2.9C1272.2,365.2,1271.2,363.2,1269.7,363.2L1269.7,363.2z"/><path fill="#1F1F89" d="M1283.7,372.4c-2.3-1.5-3.4-3.9-3.4-6c0-4.5,3.5-7.2,7.7-7.2c3.9,0,7.1,2.6,7.1,6.7c0,1.8-0.7,4.3-3.6,6.1v0.1c2.5,1.4,4.2,3.9,4.2,7.2c0,5-3.7,8-8.2,8c-4.7,0-8-3-8-7.4C1279.6,376.4,1281.5,373.9,1283.7,372.4L1283.7,372.4z M1290.5,379.4c0-2.6-1.6-4.3-3.2-5.1c-1.4,1-2.4,2.7-2.4,4.8c0,2.4,1,4.4,2.9,4.4C1289.5,383.5,1290.5,381.8,1290.5,379.4z M1285.5,366.2c0,1.9,1.1,3.3,2.7,4.1c1.2-0.6,1.9-2.3,1.9-3.9c0-1.9-0.6-3.5-2.2-3.5C1286.3,362.9,1285.5,364.5,1285.5,366.2z"/></g></g><g><g><linearGradient id="SVGID_5_" gradientUnits="userSpaceOnUse" x1="356.7" y1="128.5038" x2="356.7" y2="78.882" gradientTransform="matrix(1 0 0 -1 0 1106)"><stop offset="0" style="stop-color:#4F5B7E"/><stop offset="7.132825e-02" style="stop-color:#66718F"/><stop offset="0.2311" style="stop-color:#949CB1"/><stop offset="0.3913" style="stop-color:#BBBFCD"/><stop offset="0.5492" style="stop-color:#D9DBE3"/><stop offset="0.7041" style="stop-color:#EEEFF2"/><stop offset="0.8549" style="stop-color:#FBFBFC"/><stop offset="0.9965" style="stop-color:#FFFFFF"/></linearGradient><polygon fill="url(#SVGID_5_)" points="386.7,1028.3 279.5,1028.3 337.1,957.7 433.9,957.7 433.6,969.9 "/></g><g><path fill="#BA4D42" d="M433.9,956.1H426c-1.1-0.6-2.2-1.2-3.4-1.8l-8.1,3c-2.4-1.2-5.2-2.2-8.4-3.1l8.1-3v-8.5l-8.1,3v3.4c-5.9-1.2-12.4-2-19.3-2.2v3.2c-1.9-0.1-3.9-0.2-5.9-0.2s-4,0.1-5.9,0.2V947c-7,0.3-13.5,1.1-19.4,2.3l0.1-3.4l-8.1-3v9.6l8.1,1.9c-3.2,0.9-6,1.9-8.4,3.1l-8.1-3c-1.2,0.6-2.4,1.2-3.4,1.8h-7.9v4.4v5.4v3.1c1.1,3.8,5.2,7.4,11.4,10.2l8.1-3c0.1,0,0.2,0.1,0.3,0.1v6c7.7,2.3,17.1,3.8,27.4,4.2v-4.3c1.9,0.1,3.9,0.2,5.9,0.2s4-0.1,5.9-0.2v4.3c10.3-0.4,19.7-1.9,27.4-4.2v-6c0.1,0,0.2-0.1,0.3-0.1l8.1,3c6.1-2.9,10.2-6.4,11.4-10.2v-7.5C434.3,961.5,433.9,956.1,433.9,956.1z M380.8,974c-11.7,0-21.1-2.9-21.1-7.3c0-4.4,9.5-7.9,21.1-7.9s21.1,3.5,21.1,7.9C401.9,971.2,392.5,974,380.8,974z"/><path fill="#F76D59" d="M422.8,958.3c0-0.8-0.2-1.5-0.4-2.2h11.5c-1.1-3.8-5.2-7.4-11.4-10.2l-8.1,3c-2.4-1.2-5.2-2.2-8.4-3.1l8.1-3c-7.7-2.3-17.1-3.8-27.4-4.2v4.3c-1.9-0.1-3.9-0.2-5.9-0.2s-4,0.1-5.9,0.2v-4.3c-10.3,0.4-19.7,1.9-27.4,4.2l8.1,3c-3.2,0.9-6,1.9-8.4,3.1l-8.1-3c-6.1,2.9-10.2,6.4-11.4,10.2h11.5c-0.3,0.7-0.4,1.5-0.4,2.2c0,0.8,0.2,1.5,0.4,2.2h-11.5c1.1,3.8,5.2,7.4,11.4,10.2l8.1-3c2.4,1.2,5.2,2.2,8.4,3.1l-8.1,3c7.7,2.3,17.1,3.8,27.4,4.2v-4.3c1.9,0.1,3.9,0.2,5.9,0.2s4-0.1,5.9-0.2v4.3c10.3-0.4,19.7-1.9,27.4-4.2l-8.1-3c3.2-0.9,6-1.9,8.4-3.1l8.1,3c6.1-2.9,10.2-6.4,11.4-10.2h-11.5C422.7,959.8,422.8,959.1,422.8,958.3z M380.8,966.2c-11.7,0-21.1-3.5-21.1-7.9s9.5-7.9,21.1-7.9s21.1,3.5,21.1,7.9S392.5,966.2,380.8,966.2z"/></g></g><g><g><linearGradient id="SVGID_6_" gradientUnits="userSpaceOnUse" x1="601.5" y1="128.3308" x2="601.5" y2="93.0359" gradientTransform="matrix(1 0 0 -1 0 1106)"><stop offset="0" style="stop-color:#4F5B7E"/><stop offset="7.132825e-02" style="stop-color:#66718F"/><stop offset="0.2311" style="stop-color:#949CB1"/><stop offset="0.3913" style="stop-color:#BBBFCD"/><stop offset="0.5492" style="stop-color:#D9DBE3"/><stop offset="0.7041" style="stop-color:#EEEFF2"/><stop offset="0.8549" style="stop-color:#FBFBFC"/><stop offset="0.9965" style="stop-color:#FFFFFF"/></linearGradient><polygon fill="url(#SVGID_6_)" points="622.7,1015.4 547,1015.4 587.7,965.6 656,965.6 655.7,974.1 "/></g><g><path fill="#1F1F89" d="M656,964.4h-5.6c-0.7-0.4-1.5-0.9-2.4-1.3l-5.7,2.1c-1.7-0.8-3.7-1.6-5.9-2.2l5.7-2.1v-6l-5.7,2.1v2.4c-4.1-0.8-8.7-1.4-13.6-1.6v2.3c-1.4-0.1-2.8-0.1-4.2-0.1s-2.8,0-4.2,0.1V958c-4.9,0.2-9.5,0.8-13.7,1.6l0.1-2.4L595,955v6.8l5.7,1.3c-2.2,0.6-4.2,1.4-5.9,2.2l-5.7-2.1c-0.9,0.4-1.7,0.8-2.4,1.3H581v3.1v3.8v2.2c0.8,2.7,3.7,5.2,8,7.2l5.7-2.1c0.1,0,0.1,0.1,0.2,0.1v4.3c5.4,1.6,12.1,2.7,19.3,3v-3c1.4,0.1,2.8,0.1,4.2,0.1s2.8,0,4.2-0.1v3c7.3-0.3,13.9-1.4,19.3-3v-4.3c0.1,0,0.1-0.1,0.2-0.1l5.7,2.1c4.3-2,7.2-4.5,8-7.2v-5.3C656.3,968.2,656,964.4,656,964.4z M618.5,977.1c-8.2,0-14.9-2-14.9-5.1s6.7-5.6,14.9-5.6s14.9,2.5,14.9,5.6C633.4,975,626.8,977.1,618.5,977.1z"/><path fill="#3878FF" d="M648.2,966c0-0.5-0.1-1.1-0.3-1.6h8.1c-0.8-2.7-3.7-5.2-8-7.2l-5.7,2.1c-1.7-0.8-3.7-1.6-5.9-2.2l5.7-2.1c-5.4-1.6-12.1-2.7-19.3-3v3c-1.4-0.1-2.8-0.1-4.2-0.1s-2.8,0-4.2,0.1v-3c-7.3,0.3-13.9,1.4-19.3,3l5.7,2.1c-2.2,0.6-4.2,1.4-5.9,2.2l-5.7-2.1c-4.3,2-7.2,4.5-8,7.2h8.1c-0.2,0.5-0.3,1-0.3,1.6s0.1,1.1,0.3,1.6H581c0.8,2.7,3.7,5.2,8,7.2l5.7-2.1c1.7,0.8,3.7,1.6,5.9,2.2L595,977c5.4,1.6,12.1,2.7,19.3,3v-3c1.4,0.1,2.8,0.1,4.2,0.1s2.8,0,4.2-0.1v3c7.3-0.3,13.9-1.4,19.3-3l-5.7-2.1c2.2-0.6,4.2-1.4,5.9-2.2l5.7,2.1c4.3-2,7.2-4.5,8-7.2h-8.1C648.1,967,648.2,966.5,648.2,966z M618.5,971.6c-8.2,0-14.9-2.5-14.9-5.6s6.7-5.6,14.9-5.6s14.9,2.5,14.9,5.6S626.8,971.6,618.5,971.6z"/></g></g><g><g><linearGradient id="SVGID_7_" gradientUnits="userSpaceOnUse" x1="488.1" y1="130.0908" x2="488.1" y2="87.6016" gradientTransform="matrix(1 0 0 -1 0 1106)"><stop offset="0" style="stop-color:#4F5B7E"/><stop offset="7.132825e-02" style="stop-color:#66718F"/><stop offset="0.2311" style="stop-color:#949CB1"/><stop offset="0.3913" style="stop-color:#BBBFCD"/><stop offset="0.5492" style="stop-color:#D9DBE3"/><stop offset="0.7041" style="stop-color:#EEEFF2"/><stop offset="0.8549" style="stop-color:#FBFBFC"/><stop offset="0.9965" style="stop-color:#FFFFFF"/></linearGradient><polygon fill="url(#SVGID_7_)" points="513.6,1021.3 422.5,1021.3 471.5,961.3 553.7,961.3 553.4,971.7 "/></g><g><path fill="#DBAD45" d="M553.7,960H547c-0.9-0.5-1.9-1-2.9-1.5l-6.9,2.6c-2-1-4.4-1.9-7.1-2.7l6.9-2.5v-7.2l-6.9,2.6v2.9c-5-1-10.5-1.7-16.4-1.9v2.8c-1.6-0.1-3.3-0.1-5-0.1s-3.4,0-5,0.1v-2.8c-5.9,0.2-11.5,0.9-16.5,1.9l0.1-2.9l-6.9-2.6v8.2l6.9,1.6c-2.7,0.8-5.1,1.7-7.1,2.7l-6.9-2.6c-1,0.5-2,1-2.9,1.5h-6.7v3.8v4.6v2.6c1,3.3,4.4,6.3,9.7,8.7l6.9-2.6c0.1,0,0.2,0.1,0.2,0.1v5.1c6.5,2,14.5,3.2,23.3,3.6v-3.6c1.6,0.1,3.3,0.1,5,0.1s3.4,0,5-0.1v3.6c8.8-0.4,16.8-1.7,23.3-3.6v-5.1c0.1,0,0.2-0.1,0.2-0.1l6.9,2.6c5.2-2.4,8.7-5.4,9.7-8.7v-6.4C554.1,964.5,553.7,960,553.7,960z M508.6,975.2c-9.9,0-18-2.5-18-6.2s8-6.7,18-6.7c10,0,18,3,18,6.7S518.5,975.2,508.6,975.2z"/><path fill="#FFCE4F" d="M544.3,961.9c0-0.6-0.1-1.3-0.4-1.9h9.7c-1-3.3-4.4-6.3-9.7-8.7l-6.9,2.6c-2-1-4.4-1.9-7.1-2.7l6.9-2.6c-6.5-2-14.5-3.2-23.3-3.6v3.6c-1.6-0.1-3.3-0.1-5-0.1s-3.4,0-5,0.1V945c-8.8,0.4-16.8,1.7-23.3,3.6l6.9,2.6c-2.7,0.8-5.1,1.7-7.1,2.7l-6.9-2.6c-5.2,2.4-8.7,5.4-9.7,8.7h9.7c-0.2,0.6-0.4,1.2-0.4,1.9s0.1,1.3,0.4,1.9h-9.7c1,3.3,4.4,6.3,9.7,8.7l6.9-2.6c2,1,4.4,1.9,7.1,2.7l-6.9,2.6c6.5,2,14.5,3.2,23.3,3.6v-3.6c1.6,0.1,3.3,0.1,5,0.1s3.4,0,5-0.1v3.6c8.8-0.4,16.8-1.7,23.3-3.6l-6.9-2.6c2.7-0.8,5.1-1.7,7.1-2.7l6.9,2.6c5.2-2.4,8.7-5.4,9.7-8.7H544C544.2,963.1,544.3,962.5,544.3,961.9z M508.6,968.6c-9.9,0-18-3-18-6.7s8-6.7,18-6.7c10,0,18,3,18,6.7S518.5,968.6,508.6,968.6z"/></g></g><g><g><linearGradient id="SVGID_8_" gradientUnits="userSpaceOnUse" x1="134.45" y1="144.1392" x2="134.45" y2="33.3872" gradientTransform="matrix(1 0 0 -1 0 1106)"><stop offset="0" style="stop-color:#4F5B7E"/><stop offset="7.132825e-02" style="stop-color:#66718F"/><stop offset="0.2311" style="stop-color:#949CB1"/><stop offset="0.3913" style="stop-color:#BBBFCD"/><stop offset="0.5492" style="stop-color:#D9DBE3"/><stop offset="0.7041" style="stop-color:#EEEFF2"/><stop offset="0.8549" style="stop-color:#FBFBFC"/><stop offset="0.9965" style="stop-color:#FFFFFF"/></linearGradient><polygon fill="url(#SVGID_8_)" points="172.6,1084.9 0,1084.9 103.7,971.2 268.9,978.6 "/></g><g><path fill="#CCCCCC" d="M272.7,966.3v-19.2l-28.1-4.1c-14.6-5.2-33.8-8.5-54.9-8.8c-1,0-2.1,0-3.1,0c-22.3,0-42.7,3.4-58,8.9l-28.3,4.1v21.1c0,5.8,3.7,11.3,10.2,16.1c14.6,10.7,43.1,18,76,18c42.7,0,78.1-12.2,85-28.3c0.8-1.9,1.2-3.8,1.2-5.8C272.8,967.6,272.8,967,272.7,966.3z"/><g><path fill="#F2F2F2" d="M189.7,910.9c-1,0-2.1,0-3.1,0c-47.6,0-86.3,15.3-86.3,34.1c0,5.8,3.7,11.3,10.2,16.1l76-16.1L189.7,910.9z"/><path fill="#3878FF" d="M271.6,950.7c0.8-1.9,1.2-3.8,1.2-5.8c0-6.1-4.1-11.8-11.2-16.8l-75,16.9C186.6,945,242.9,948.9,271.6,950.7z"/><path fill="#F76D59" d="M261.6,928.2c-14.3-10-41.1-16.8-72-17.3l-3.1,34.1L261.6,928.2z"/><path fill="#E6E6E6" d="M186.6,979c42.7,0,78.1-12.2,85-28.3c-28.7-1.8-85-5.8-85-5.8l-76,16.1C125.1,971.8,153.7,979,186.6,979z"/></g></g></g><g><path fill="#B3B3B3" d="M673.6,566.7H335.9V238.6h343.5c3.7,0,6.8,3,6.8,6.8v308.8C686.1,561.1,680.5,566.7,673.6,566.7z"/><g><path fill="#F2F2F2" d="M674.4,561.7H180.5c-3.7,0-6.8-3-6.8-6.8V240.4c0-3.7,3-6.8,6.8-6.8h493.9c3.7,0,6.8,3,6.8,6.8V555C681.1,558.7,678.1,561.7,674.4,561.7z"/><g><path fill="#1F1F89" d="M681.1,253.9H173.7v-13.6c0-3.7,3-6.6,6.6-6.6h494.2c3.7,0,6.6,3,6.6,6.6V253.9z"/><g><circle fill="#FFFFFF" cx="185.2" cy="243.8" r="3.2"/><circle fill="#FFFFFF" cx="200.2" cy="243.8" r="3.2"/><circle fill="#FFFFFF" cx="215.2" cy="243.8" r="3.2"/></g></g></g><g><rect x="226.9" y="292.6" fill="#E6E6E6" width="109" height="6.6"/><rect x="226.9" y="309.8" fill="#E6E6E6" width="69" height="6.6"/><rect x="226.9" y="327" fill="#E6E6E6" width="89" height="6.6"/></g><path fill="#FFCE4F" d="M282.4,561.7c0,0,15.6-110.1,43.6-117.1s32,36.8,48,39.9s46-31.1,59-77.5s46-59.4,62-46.4s45,27.4,60,6.7s61.7-91.7,82.9-86.7c21.1,5,43.8-0.3,43.8-0.3v274.5c0,3.8-3.1,6.8-6.8,6.8L282.4,561.7L282.4,561.7z"/><line fill="none" stroke="#1F1F89" stroke-width="3" stroke-linecap="round" stroke-linejoin="round" stroke-miterlimit="10" x1="598.5" y1="561.7" x2="598.5" y2="308.8"/><g><path fill="#CCCCCC" d="M645.6,290.1h-36.2l-8.2,9l-7.9-9h-36.4c-4.2,0-7.7-3.4-7.7-7.7v-48.8h104v48.8C653.2,286.7,649.8,290.1,645.6,290.1z"/><g><path fill="#F76D59" d="M643.1,287.4h-35.9l-8.2,9l-7.9-9H555c-4.4,0-7.9-3.5-7.9-7.9v-60.2c0-4.4,3.5-7.9,7.9-7.9h88.2c4.4,0,7.9,3.5,7.9,7.9v60.2C651.1,283.8,647.5,287.4,643.1,287.4z"/><g><path fill="#FFFFFF" d="M574.6,241.6v9h8.7v3.3h-8.7v9.1h-3.4v-9.1h-8.7v-3.3h8.7v-9L574.6,241.6L574.6,241.6z"/><path fill="#FFFFFF" d="M585.9,263.1v-3.5l2.6-3.3c3.4-4.3,6.2-7.9,6.2-11.7c0-2.1-1.2-3.6-3.3-3.6c-1.7,0-3,0.7-4,1.3l-0.9-4.1c1.2-0.8,3.5-1.6,5.8-1.6c5.7,0,7.6,3.8,7.6,7.6c0,4.9-3.1,8.9-6.1,12.4l-1.6,1.8v0.1h8v4.7h-14.3V263.1z"/><path fill="#FFFFFF" d="M616.8,241.4h-6.9l-0.6,4.7c0.2,0,0.5,0,0.8,0c1.1,0,3.4,0.6,4.9,2s2.3,3.4,2.3,6c0,5.1-3.4,9.3-9.1,9.3c-1.9,0-3.9-0.5-4.9-1l0.8-4.2c1,0.5,2.3,0.9,3.8,0.9c2.6,0,4.3-1.7,4.3-4.5c0-3.5-2.7-4.7-5.7-4.7c-0.7,0-1.3,0-1.9,0.1l1.5-13.2H617v4.6H616.8z"/><path fill="#FFFFFF" d="M633.6,240.8c-0.6,0-1.4,0.1-2.2,0.3c-3.5,0.8-5.2,3.7-5.8,7h0.1c0.9-1.3,2.3-2.1,4-2.1c3.5,0,5.9,3.2,5.9,8.1c0,4.6-2.3,9.3-7.5,9.3c-5,0-8-4.3-8-10.8c0-5.7,1.9-9.6,4.3-12.2c1.7-1.9,4.2-3.1,6.4-3.6c1.3-0.2,2.1-0.2,2.7-0.3L633.6,240.8L633.6,240.8z M628.1,259.5c1.7,0,2.3-2.3,2.3-5.5c0-2.2-0.8-4.3-2.5-4.3c-0.8,0-1.7,0.6-2.1,1.8c-0.2,0.3-0.3,1.1-0.3,2.3C625.6,257.2,626.5,259.5,628.1,259.5L628.1,259.5z"/></g></g></g></g><g><g><linearGradient id="SVGID_9_" gradientUnits="userSpaceOnUse" x1="936.15" y1="419.2723" x2="936.15" y2="315.7314" gradientTransform="matrix(1 0 0 -1 0 1106)"><stop offset="0" style="stop-color:#4F5B7E"/><stop offset="7.132825e-02" style="stop-color:#66718F"/><stop offset="0.2311" style="stop-color:#949CB1"/><stop offset="0.3913" style="stop-color:#BBBFCD"/><stop offset="0.5492" style="stop-color:#D9DBE3"/><stop offset="0.7041" style="stop-color:#EEEFF2"/><stop offset="0.8549" style="stop-color:#FBFBFC"/><stop offset="0.9965" style="stop-color:#FFFFFF"/></linearGradient><polygon fill="url(#SVGID_9_)" points="1111.7,801.8 664.3,801.8 760.6,695.4 1208,695.4 "/></g><g><g><path fill="#1F1F89" d="M1204.9,695.4H761c-3.7,0-6.8-3-6.8-6.8V404.1c0-3.7,3-6.8,6.8-6.8h443.9c3.7,0,6.8,3,6.8,6.8v284.5C1211.7,692.4,1208.7,695.4,1204.9,695.4z"/><g><path fill="#FFFFFF" d="M1211.7,417.5H754.3v-13.6c0-3.7,3-6.6,6.6-6.6h444.2c3.7,0,6.6,3,6.6,6.6V417.5z"/><g><circle fill="#1F1F89" cx="765.8" cy="407.4" r="3.2"/><circle fill="#1F1F89" cx="780.8" cy="407.4" r="3.2"/><circle fill="#1F1F89" cx="795.8" cy="407.4" r="3.2"/></g></g></g><rect x="803.7" y="476.7" fill="#FFCE4F" width="177.6" height="13.8"/><rect x="803.7" y="526.4" fill="#FFFFFF" width="358.5" height="4.4"/><rect x="803.7" y="547.1" fill="#FFFFFF" width="358.5" height="4.4"/><rect x="803.7" y="567.9" fill="#FFFFFF" width="358.5" height="4.4"/><rect x="803.7" y="588.6" fill="#FFFFFF" width="358.5" height="4.4"/><rect x="803.7" y="609.4" fill="#FFFFFF" width="358.5" height="4.4"/><rect x="803.7" y="630.1" fill="#FFFFFF" width="268.5" height="4.4"/></g></g><g><g><g><path fill="#B3B3B3" d="M1138.3,333.2h-374c-3.3,0-5.9-2.7-5.9-5.9V68.6h380L1138.3,333.2L1138.3,333.2z"/><g><g><circle fill="#CCCCCC" cx="769.8" cy="15.2" r="3.2"/><circle fill="#CCCCCC" cx="784.8" cy="15.2" r="3.2"/><circle fill="#CCCCCC" cx="799.8" cy="15.2" r="3.2"/></g></g></g><g><path fill="#F2F2F2" d="M1252.5,328.1H758.6c-3.7,0-6.8-3-6.8-6.8V6.8c0-3.7,3-6.8,6.8-6.8h493.9c3.7,0,6.8,3,6.8,6.8v314.5C1259.3,325.1,1256.2,328.1,1252.5,328.1z"/><g><path fill="#1F1F89" d="M1259.3,20.2H751.8V6.6c0-3.7,3-6.6,6.6-6.6h494.2c3.7,0,6.6,3,6.6,6.6v13.6H1259.3z"/><g><circle fill="#FFFFFF" cx="763.4" cy="10.1" r="3.2"/><circle fill="#FFFFFF" cx="778.4" cy="10.1" r="3.2"/><circle fill="#FFFFFF" cx="793.4" cy="10.1" r="3.2"/></g></g></g><path fill="none" stroke="#F76D59" stroke-width="6" stroke-miterlimit="10" d="M751.8,211.2c0,0,44.7-41.9,93.6-39.4c34,1.7,76.7,30.3,115.5,15.1c38.8-15.1,70.1-77.6,117.4-74.8c47.3,2.8,89,19.7,114.6-0.1s51.2-38.7,66.3-38.7"/><line fill="none" stroke="#1F1F89" stroke-width="2" stroke-miterlimit="10" x1="827.7" y1="328.6" x2="827.7" y2="148.1"/><line fill="none" stroke="#1F1F89" stroke-width="2" stroke-miterlimit="10" x1="913.3" y1="328.6" x2="913.3" y2="156.5"/><line fill="none" stroke="#1F1F89" stroke-width="2" stroke-miterlimit="10" x1="998.9" y1="328.6" x2="998.9" y2="118"/><line fill="none" stroke="#1F1F89" stroke-width="2" stroke-miterlimit="10" x1="1084.5" y1="328.6" x2="1084.5" y2="73.7"/><line fill="none" stroke="#1F1F89" stroke-width="2" stroke-miterlimit="10" x1="1170" y1="328.6" x2="1170" y2="89.2"/><g><rect x="780.6" y="48.2" fill="#1F1F89" width="109" height="6.6"/><rect x="780.6" y="65.3" fill="#1F1F89" width="69" height="6.6"/><rect x="780.6" y="82.5" fill="#1F1F89" width="89" height="6.6"/></g><text transform="matrix(1 0 0 1 811.6002 139.8042)" fill="#1F1F89" font-family="'MyriadPro-BoldCond'" font-size="20px">2015</text><text transform="matrix(1 0 0 1 895.9009 149.9712)" fill="#1F1F89" font-family="'MyriadPro-BoldCond'" font-size="20px">2016</text><text transform="matrix(1 0 0 1 981.8961 110.5745)" fill="#1F1F89" font-family="'MyriadPro-BoldCond'" font-size="20px">2017</text><text transform="matrix(1 0 0 1 1067.4673 65.3406)" fill="#1F1F89" font-family="'MyriadPro-BoldCond'" font-size="20px">2018</text><circle fill="#1F1F89" cx="827.7" cy="148.7" r="3.4"/><circle fill="#1F1F89" cx="913.3" cy="158.6" r="3.4"/><circle fill="#1F1F89" cx="998.9" cy="121.4" r="3.4"/><circle fill="#1F1F89" cx="1084.5" cy="76.6" r="3.4"/><circle fill="#1F1F89" cx="1170" cy="92.5" r="3.4"/></g><text transform="matrix(1 0 0 1 1152.5222 84.7834)" fill="#1F1F89" font-family="'MyriadPro-BoldCond'" font-size="20px">2019</text></g><g><g><linearGradient id="SVGID_10_" gradientUnits="userSpaceOnUse" x1="484.9" y1="257.9008" x2="484.9" y2="208.7921" gradientTransform="matrix(1 0 0 -1 0 1106)"><stop offset="0" style="stop-color:#4F5B7E"/><stop offset="7.132825e-02" style="stop-color:#66718F"/><stop offset="0.2311" style="stop-color:#949CB1"/><stop offset="0.3913" style="stop-color:#BBBFCD"/><stop offset="0.5492" style="stop-color:#D9DBE3"/><stop offset="0.7041" style="stop-color:#EEEFF2"/><stop offset="0.8549" style="stop-color:#FBFBFC"/><stop offset="0.9965" style="stop-color:#FFFFFF"/></linearGradient><polygon fill="url(#SVGID_10_)" points="739.1,902.7 189.5,902.7 230.7,852.2 780.3,852.2 "/></g><g><path fill="#1F1F89" d="M878.2,755.8l-95.1,94.7c-6.8,6.1-19.7,11.1-28.8,11.1l-519.1-6c-9.1,0-10.9-5-4.1-11.1l99.4-89.2c6.8-6.1,19.7-11.1,28.8-11.1l514.8,0.5C883.1,744.7,885,749.7,878.2,755.8z"/><g><path fill="#FFFFFF" d="M875.9,750.9l-95.1,93.7c-6.8,6-19.7,10.9-28.8,10.9l-515.3-6c-9.1,0-10.9-4.9-4.1-11l99.4-88.2c6.8-6,19.7-10.9,28.8-10.9l511,0.5C880.9,740,882.7,744.9,875.9,750.9z"/><path fill="#3878FF" d="M870.2,751.2L775,844.5c-4.6,4.1-13.3,7.4-19.4,7.4l-512.4-5.3c-6.1,0-7.4-3.3-2.8-7.5l99.5-88.5c4.6-4.1,13.3-7.4,19.4-7.4l508,0.5C873.5,743.7,874.8,747.1,870.2,751.2z"/><path fill="#1F1F89" d="M333.4,748.1l-16.8,15.1L245,827.4l-16.8,15.1c-5.2,4.7,0.2,8.5,12.1,8.5l508.9,6c11.9,0,25.8-3.8,31-8.4l101-100c5.2-4.7-0.2-8.5-12.1-8.5l-504.6-0.5C352.5,739.6,338.6,743.4,333.4,748.1z M867.5,741.5c10,0,14.6,3.2,10.2,7.1l-101,100c-4.4,3.9-16.1,7.1-26,7.1l-508.9-6c-10,0-14.6-3.2-10.2-7.1l17.5-15.7l7.3-1.1c7.1-1,13.6-3.3,16.4-5.9l54.7-49.1c2.9-2.6,1.6-4.9-3.2-5.9l-4.9-1.1l17.5-15.7c4.4-3.9,16.1-7.1,26-7.1L867.5,741.5z"/><path fill="#FFFFFF" d="M837.6,777.7l-39.5,36.1c-1.3,1.2-3.8,2.1-5.5,2.1h-2c-1.7,0-2.1-1-0.8-2.1l39.5-36.1c1.3-1.2,3.8-2.1,5.5-2.1h2C838.6,775.6,838.9,776.6,837.6,777.7z"/></g></g></g><g><g><g><linearGradient id="SVGID_11_" gradientUnits="userSpaceOnUse" x1="212.5" y1="355.782" x2="212.5" y2="284.4246" gradientTransform="matrix(1 0 0 -1 0 1106)"><stop offset="0" style="stop-color:#4F5B7E"/><stop offset="7.132825e-02" style="stop-color:#66718F"/><stop offset="0.2311" style="stop-color:#949CB1"/><stop offset="0.3913" style="stop-color:#BBBFCD"/><stop offset="0.5492" style="stop-color:#D9DBE3"/><stop offset="0.7041" style="stop-color:#EEEFF2"/><stop offset="0.8549" style="stop-color:#FBFBFC"/><stop offset="0.9965" style="stop-color:#FFFFFF"/></linearGradient><polygon fill="url(#SVGID_11_)" points="205.1,829.5 160.1,829.5 219.9,756.2 264.9,756.2 "/></g><g><polygon fill="#3878FF" points="249.6,584.4 208.3,584.4 223.7,569.7 264.9,569.7 "/><rect x="208.3" y="584.4" fill="#1F1F89" width="41.3" height="186.6"/><polygon fill="#3737AF" points="264.8,756.3 249.6,771 249.6,584.4 264.9,569.7 "/></g></g><g><g><linearGradient id="SVGID_12_" gradientUnits="userSpaceOnUse" x1="171.5" y1="320.3015" x2="171.5" y2="248.944" gradientTransform="matrix(1 0 0 -1 0 1106)"><stop offset="0" style="stop-color:#4F5B7E"/><stop offset="7.132825e-02" style="stop-color:#66718F"/><stop offset="0.2311" style="stop-color:#949CB1"/><stop offset="0.3913" style="stop-color:#BBBFCD"/><stop offset="0.5492" style="stop-color:#D9DBE3"/><stop offset="0.7041" style="stop-color:#EEEFF2"/><stop offset="0.8549" style="stop-color:#FBFBFC"/><stop offset="0.9965" style="stop-color:#FFFFFF"/></linearGradient><polygon fill="url(#SVGID_12_)" points="164.1,865 119.1,865 178.9,791.7 223.9,791.7 "/></g><g><polygon fill="#FFCE4F" points="208.5,718.2 167.3,718.2 182.6,703.5 223.9,703.5 "/><rect x="167.3" y="718.2" fill="#DBAD45" width="41.3" height="88.3"/><polygon fill="#DBBA2E" points="223.8,791.7 208.6,806.5 208.5,718.2 223.9,703.5 "/></g></g><g><g><linearGradient id="SVGID_13_" gradientUnits="userSpaceOnUse" x1="126.8" y1="284.1058" x2="126.8" y2="212.7484" gradientTransform="matrix(1 0 0 -1 0 1106)"><stop offset="0" style="stop-color:#4F5B7E"/><stop offset="7.132825e-02" style="stop-color:#66718F"/><stop offset="0.2311" style="stop-color:#949CB1"/><stop offset="0.3913" style="stop-color:#BBBFCD"/><stop offset="0.5492" style="stop-color:#D9DBE3"/><stop offset="0.7041" style="stop-color:#EEEFF2"/><stop offset="0.8549" style="stop-color:#FBFBFC"/><stop offset="0.9965" style="stop-color:#FFFFFF"/></linearGradient><polygon fill="url(#SVGID_13_)" points="119.4,901.2 74.4,901.2 134.2,827.9 179.2,827.9 "/></g><g><polygon fill="#F2F2F2" points="163.8,777 122.6,777 137.9,762.3 179.2,762.3 "/><rect x="122.6" y="777" fill="#CCCCCC" width="41.3" height="65.6"/><polygon fill="#E6E6E6" points="179.1,827.9 163.9,842.7 163.8,777 179.2,762.3 "/></g></g></g><g><g><linearGradient id="SVGID_14_" gradientUnits="userSpaceOnUse" x1="945.05" y1="264.9057" x2="945.05" y2="47.0404" gradientTransform="matrix(1 0 0 -1 0 1106)"><stop offset="0" style="stop-color:#4F5B7E"/><stop offset="7.132825e-02" style="stop-color:#66718F"/><stop offset="0.2311" style="stop-color:#949CB1"/><stop offset="0.3913" style="stop-color:#BBBFCD"/><stop offset="0.5492" style="stop-color:#D9DBE3"/><stop offset="0.7041" style="stop-color:#EEEFF2"/><stop offset="0.8549" style="stop-color:#FBFBFC"/><stop offset="0.9965" style="stop-color:#FFFFFF"/></linearGradient><polygon fill="url(#SVGID_14_)" points="1061.4,1083.2 614.9,1083.2 828.7,859.4 1275.2,859.4 "/></g><g><polygon fill="#B3B3B3" points="835.5,851.4 1282.5,851.4 1282.5,599.8 1231.9,612.9 1188,641.5 1141.8,703 1083.5,707.3 1063.3,741.9 995.5,714.5 939.3,785.9 885.2,786.6 "/><polyline fill="none" stroke="#808080" stroke-width="3" stroke-miterlimit="10" points="835.5,851.4 885.2,786.6 939.3,785.9 995.5,714.5 1063.3,741.9 1083.5,707.3 1141.8,703 1188,641.5 1231.9,612.9 1282.2,599.4 "/><polygon fill="#F76D59" points="828,859.4 1275.1,859.4 1275.1,607.7 1223.4,678.5 1184.8,713.8 1134.4,710.9 1109.9,678.5 1034.9,755.6 993.6,733.5 939.7,793.8 879.9,816.1 "/></g><g><g><polygon opacity="0.6" fill="#E6E6E6" enable-background="new " points="780.1,947 746.1,947 818.7,868.8 852.7,868.8 "/><polygon opacity="0.6" fill="#E6E6E6" enable-background="new " points="871.1,922.9 837.1,922.9 887.5,868.8 921.5,868.8 "/><polygon opacity="0.6" fill="#E6E6E6" enable-background="new " points="860.1,1009.6 826.1,1009.6 956.3,868.8 990.3,868.8 "/><polygon opacity="0.6" fill="#E6E6E6" enable-background="new " points="970.9,963.3 937,963.3 1025.1,868.8 1059.1,868.8 "/><polygon opacity="0.6" fill="#E6E6E6" enable-background="new " points="976.6,1029.5 942.7,1029.5 1094,868.8 1127.9,868.8 "/><polygon opacity="0.6" fill="#E6E6E6" enable-background="new " points="1070.4,1003.8 1036.4,1003.8 1162.8,868.8 1196.7,868.8 "/><polygon opacity="0.6" fill="#E6E6E6" enable-background="new " points="1089.2,1057.8 1055.2,1057.8 1231.6,868.8 1265.6,868.8 "/></g><g><path fill="#1F1F89" d="M1054.8,1068.4l-1.1,1.9c-3.9,4.2-7.7,8.4-11.6,12.6h-2.8c3.8-4,7.5-8,11.2-12l0,0h-4.7l1.5-2.5H1054.8z"/><path fill="#1F1F89" d="M1048.3,1083l1.1-2l2.4-1.8c3.2-2.5,6.5-4.9,7.3-6.9c0.4-1,0.2-1.7-1-1.7c-0.9,0-1.6,0.3-2.1,0.6l0.6-2.1c1-0.4,2.2-0.8,3.4-0.8c3,0,2.8,2,2.2,3.5c-1.3,3.2-4.9,5.7-7.8,7.9l-1.2,0.9l0,0h4.3l-1.4,2.5L1048.3,1083L1048.3,1083z"/><path fill="#1F1F89" d="M1068.8,1068.3c1.9,0,1.8,1.6,1.3,2.9c-1.3,3.3-4.1,6-6.1,6c-1.6,0-2.1-1.2-1.3-3C1063.8,1071.3,1066.5,1068.3,1068.8,1068.3L1068.8,1068.3z M1059.7,1083.2l16.6-15h1.5l-16.5,15H1059.7z M1068.1,1069.8c-1.3,0-3.1,3.5-3.6,4.6c-0.3,0.8-0.3,1.3,0.2,1.3c1.3,0,3.3-4,3.6-4.8C1068.5,1070.3,1068.6,1069.8,1068.1,1069.8L1068.1,1069.8z M1073.8,1074.2c1.9,0,1.8,1.6,1.3,2.9c-1.3,3.3-4,6-6.2,6c-1.6,0-2-1.2-1.3-3C1068.7,1077.3,1071.5,1074.2,1073.8,1074.2L1073.8,1074.2z M1073,1075.7c-1.2,0-3.1,3.5-3.6,4.6c-0.3,0.8-0.3,1.3,0.2,1.3c1.3,0,3.3-4,3.6-4.8C1073.5,1076.3,1073.6,1075.7,1073,1075.7L1073,1075.7z"/></g><g><path fill="#1F1F89" d="M1032.3,1017.5h-3.5l-1.8,2.7c0.1,0,0.1,0,0.1,0c0.3,0,1.5,0.3,1.8,1.1c0.3,0.7,0.2,1.6-0.2,2.7c-1.3,3.2-4.7,5.7-8,5.7c-1.1,0-1.8-0.2-2.1-0.4l1.6-2.4c0.3,0.2,0.8,0.3,1.5,0.3c1.6,0,3.4-1.1,4-2.8c0.6-1.6-0.3-2.2-1.7-2.2c-0.3,0-0.6,0-1,0l4.8-7.4h5.8L1032.3,1017.5z"/><path fill="#1F1F89" d="M1041.8,1019.2c-1.7,4.2-5.8,10.5-9.9,10.5c-2.7,0-2.2-2.5-1.4-4.5c1.9-4.9,6.1-10.4,9.8-10.4C1043.2,1014.8,1042.5,1017.5,1041.8,1019.2z M1033.1,1025.5c-0.5,1.2-0.5,1.9,0.2,1.9c1.7,0,5.4-6.9,6-8.6c0.4-0.9,0.4-1.6-0.2-1.6C1037.3,1017.2,1033.9,1023.6,1033.1,1025.5z"/><path fill="#1F1F89" d="M1048.4,1014.8c1.9,0,1.8,1.6,1.3,2.9c-1.3,3.3-4.1,6-6.1,6c-1.6,0-2.1-1.2-1.3-3C1043.3,1017.9,1046,1014.8,1048.4,1014.8L1048.4,1014.8z M1039.2,1029.8l16.6-15h1.5l-16.5,15H1039.2z M1047.6,1016.3c-1.3,0-3.1,3.5-3.6,4.6c-0.3,0.8-0.3,1.3,0.2,1.3c1.3,0,3.3-4,3.6-4.8C1048,1016.9,1048.1,1016.3,1047.6,1016.3L1047.6,1016.3z M1053.3,1020.7c1.9,0,1.8,1.6,1.3,2.9c-1.3,3.3-4,6-6.2,6c-1.6,0-2-1.2-1.3-3C1048.3,1023.8,1051,1020.7,1053.3,1020.7L1053.3,1020.7z M1052.6,1022.3c-1.2,0-3.1,3.5-3.6,4.6c-0.3,0.8-0.3,1.3,0.2,1.3c1.3,0,3.3-4,3.6-4.8C1053,1022.8,1053.1,1022.3,1052.6,1022.3L1052.6,1022.3z"/></g><g><path fill="#1F1F89" d="M935.7,1042.9c-0.3,0-0.5,0-0.8,0.1c-2,0.4-3.9,1.7-5.5,3.8h0.1c0.8-0.7,1.8-1,2.6-1c2,0,1.9,1.9,1.3,3.3c-1.3,3.3-4.5,6.4-7.4,6.4c-2.6,0-2.5-2.3-1.7-4.5c1.5-3.8,4.5-6.8,6.8-8.3c1.8-1.2,3.6-1.9,5.2-2.1c0.4-0.1,0.6-0.1,0.8-0.1L935.7,1042.9z M927,1053.4c1.4,0,2.9-2.6,3.5-4.1c0.3-0.8,0.3-1.5-0.5-1.5c-0.6,0-1.4,0.6-2.1,1.4c-0.1,0.2-0.2,0.3-0.3,0.4c-0.5,0.8-0.7,1.4-0.9,1.9C926.3,1052.5,926.2,1053.4,927,1053.4L927,1053.4z"/><path fill="#1F1F89" d="M943.6,1040.5c2.3,0,2.9,1.5,2.2,3.3c-0.6,1.5-2,2.8-4,3.7v0.1c0.7,0.9,0.8,2.1,0.3,3.3c-1.1,2.8-4.2,4.6-6.5,4.6c-2.5,0-3.2-1.5-2.4-3.6c0.9-2.2,3-3.6,4.6-4.4l0,0c-0.6-0.9-0.5-1.8-0.1-2.8C938.6,1042.3,941.2,1040.5,943.6,1040.5L943.6,1040.5z M936.4,1053.6c1,0,2.2-1.1,2.8-2.6c0.4-1.1,0.3-1.9-0.4-2.4c-1,0.5-2.4,1.6-3,3.1C935.5,1052.8,935.5,1053.6,936.4,1053.6L936.4,1053.6z M942.7,1042.4c-0.8,0-1.9,1-2.4,2.2c-0.4,0.9-0.2,1.5,0.3,2c1.4-0.7,2.3-1.7,2.7-2.8C943.5,1042.9,943.4,1042.4,942.7,1042.4L942.7,1042.4z"/><path fill="#1F1F89" d="M951.8,1040.5c1.9,0,1.8,1.6,1.3,2.9c-1.3,3.3-4.1,6-6.1,6c-1.6,0-2.1-1.2-1.3-3C946.8,1043.6,949.5,1040.5,951.8,1040.5L951.8,1040.5z M942.7,1055.5l16.6-15h1.5l-16.5,15H942.7z M951.1,1042c-1.3,0-3.1,3.5-3.6,4.6c-0.3,0.8-0.3,1.3,0.2,1.3c1.3,0,3.3-4,3.6-4.8C951.5,1042.6,951.6,1042,951.1,1042L951.1,1042z M956.8,1046.5c1.9,0,1.8,1.6,1.3,2.9c-1.3,3.3-4,6-6.2,6c-1.6,0-2-1.2-1.3-3C951.7,1049.5,954.5,1046.5,956.8,1046.5L956.8,1046.5z M956,1048c-1.2,0-3.1,3.5-3.6,4.6c-0.3,0.8-0.3,1.3,0.2,1.3c1.3,0,3.3-4,3.6-4.8C956.5,1048.5,956.6,1048,956,1048L956,1048z"/></g><g><path fill="#1F1F89" d="M922.9,985c0.4,0.2,0.9,0.4,1.6,0.4c1.5,0,3-1,3.5-2.4c0.6-1.4-0.3-2-1.4-2h-0.4l1.3-2.2h0.3c1,0,2.8-0.6,3.4-2.1c0.3-0.8,0-1.4-1-1.4c-0.6,0-1.3,0.2-1.7,0.4l0.9-2.3c0.6-0.2,1.7-0.5,2.7-0.5c2.7,0,2.9,1.7,2.3,3.1c-0.7,1.9-2.6,3.3-4.1,3.7l0,0c1,0.5,1.2,1.7,0.6,3.1c-1.1,2.9-4.2,4.9-7.3,4.9c-1.1,0-2-0.2-2.4-0.4L922.9,985z"/><path fill="#1F1F89" d="M944.4,975.3c-0.3,0-0.5,0-0.8,0.1c-2,0.4-3.9,1.7-5.5,3.8h0.1c0.8-0.7,1.8-1,2.6-1c2,0,1.9,1.9,1.3,3.3c-1.3,3.3-4.5,6.4-7.4,6.4c-2.6,0-2.5-2.3-1.7-4.5c1.5-3.8,4.5-6.8,6.8-8.3c1.8-1.2,3.6-1.9,5.2-2.1c0.4-0.1,0.6-0.1,0.8-0.1L944.4,975.3z M935.7,985.7c1.4,0,2.9-2.6,3.5-4.1c0.3-0.8,0.3-1.5-0.5-1.5c-0.6,0-1.4,0.6-2.1,1.4c-0.1,0.2-0.2,0.3-0.3,0.4c-0.5,0.8-0.7,1.4-0.9,1.9C935.1,984.8,934.9,985.7,935.7,985.7L935.7,985.7z"/><path fill="#1F1F89" d="M951,972.9c1.9,0,1.8,1.6,1.3,2.9c-1.3,3.3-4.1,6-6.1,6c-1.6,0-2.1-1.2-1.3-3C945.9,976,948.7,972.9,951,972.9L951,972.9z M941.9,987.8l16.6-15h1.5l-16.5,15H941.9z M950.2,974.4c-1.3,0-3.1,3.5-3.6,4.6c-0.3,0.8-0.3,1.3,0.2,1.3c1.3,0,3.3-4,3.6-4.8C950.7,974.9,950.8,974.4,950.2,974.4L950.2,974.4z M956,978.8c1.9,0,1.8,1.6,1.3,2.9c-1.3,3.3-4,6-6.2,6c-1.6,0-2-1.2-1.3-3C950.9,981.9,953.6,978.8,956,978.8L956,978.8z M955.2,980.3c-1.2,0-3.1,3.5-3.6,4.6c-0.3,0.8-0.3,1.3,0.2,1.3c1.3,0,3.3-4,3.6-4.8C955.6,980.9,955.7,980.3,955.2,980.3L955.2,980.3z"/></g><g><path fill="#1F1F89" d="M822.3,946.5l1.1-2l2.4-1.8c3.2-2.5,6.5-4.9,7.3-6.9c0.4-1,0.2-1.7-1-1.7c-0.9,0-1.6,0.3-2.1,0.6l0.6-2.1c1-0.4,2.2-0.8,3.4-0.8c3,0,2.8,2,2.2,3.5c-1.3,3.2-4.9,5.7-7.8,7.9l-1.2,0.9l0,0h4.3l-1.4,2.5h-7.8V946.5z"/><path fill="#1F1F89" d="M845.9,936.1c-1.7,4.2-5.8,10.5-9.9,10.5c-2.7,0-2.2-2.5-1.4-4.5c1.9-4.9,6.1-10.4,9.8-10.4C847.3,931.7,846.6,934.5,845.9,936.1z M837.2,942.4c-0.5,1.2-0.5,1.9,0.2,1.9c1.7,0,5.4-6.9,6-8.6c0.4-0.9,0.4-1.6-0.2-1.6C841.4,934.1,837.9,940.5,837.2,942.4z"/><path fill="#1F1F89" d="M852.4,931.7c1.9,0,1.8,1.6,1.3,2.9c-1.3,3.3-4.1,6-6.1,6c-1.6,0-2.1-1.2-1.3-3C847.4,934.8,850.1,931.7,852.4,931.7L852.4,931.7z M843.3,946.7l16.6-15h1.5l-16.5,15H843.3z M851.7,933.3c-1.3,0-3.1,3.5-3.6,4.6c-0.3,0.8-0.3,1.3,0.2,1.3c1.3,0,3.3-4,3.6-4.8C852.1,933.8,852.2,933.3,851.7,933.3L851.7,933.3z M857.4,937.7c1.9,0,1.8,1.6,1.3,2.9c-1.3,3.3-4,6-6.2,6c-1.6,0-2-1.2-1.3-3C852.3,940.8,855.1,937.7,857.4,937.7L857.4,937.7z M856.6,939.2c-1.2,0-3.1,3.5-3.6,4.6c-0.3,0.8-0.3,1.3,0.2,1.3c1.3,0,3.3-4,3.6-4.8C857.1,939.8,857.2,939.2,856.6,939.2L856.6,939.2z"/></g><g><path fill="#1F1F89" d="M824.8,1020.4c-0.3,0-0.5,0-0.8,0.1c-2,0.4-3.9,1.7-5.5,3.8h0.1c0.8-0.7,1.8-1,2.6-1c2,0,1.9,1.9,1.3,3.3c-1.3,3.3-4.5,6.4-7.4,6.4c-2.6,0-2.5-2.3-1.7-4.5c1.5-3.8,4.5-6.8,6.8-8.3c1.8-1.2,3.6-1.9,5.2-2.1c0.4-0.1,0.6-0.1,0.8-0.1L824.8,1020.4z M816.1,1030.9c1.4,0,2.9-2.6,3.5-4.1c0.3-0.8,0.3-1.5-0.5-1.5c-0.6,0-1.4,0.6-2.1,1.4c-0.1,0.2-0.2,0.3-0.3,0.4c-0.5,0.8-0.7,1.4-0.9,1.9C815.4,1030,815.3,1030.9,816.1,1030.9L816.1,1030.9z"/><path fill="#1F1F89" d="M834.5,1020.6H831l-1.8,2.7c0.1,0,0.1,0,0.1,0c0.3,0,1.5,0.3,1.8,1.1c0.3,0.7,0.2,1.6-0.2,2.7c-1.3,3.2-4.7,5.7-8,5.7c-1.1,0-1.8-0.2-2.1-0.4l1.6-2.4c0.3,0.2,0.8,0.3,1.5,0.3c1.6,0,3.4-1.1,4-2.8c0.6-1.6-0.3-2.2-1.7-2.2c-0.3,0-0.6,0-1,0l4.8-7.4h5.8L834.5,1020.6z"/><path fill="#1F1F89" d="M840.9,1018c1.9,0,1.8,1.6,1.3,2.9c-1.3,3.3-4.1,6-6.1,6c-1.6,0-2.1-1.2-1.3-3C835.9,1021.1,838.6,1018,840.9,1018L840.9,1018z M831.8,1033l16.6-15h1.5l-16.5,15H831.8z M840.2,1019.5c-1.3,0-3.1,3.5-3.6,4.6c-0.3,0.8-0.3,1.3,0.2,1.3c1.3,0,3.3-4,3.6-4.8C840.6,1020.1,840.7,1019.5,840.2,1019.5L840.2,1019.5z M845.9,1023.9c1.9,0,1.8,1.6,1.3,2.9c-1.3,3.3-4,6-6.2,6c-1.6,0-2-1.2-1.3-3C840.8,1027,843.6,1023.9,845.9,1023.9L845.9,1023.9z M845.1,1025.4c-1.2,0-3.1,3.5-3.6,4.6c-0.3,0.8-0.3,1.3,0.2,1.3c1.3,0,3.3-4,3.6-4.8C845.6,1026,845.7,1025.4,845.1,1025.4L845.1,1025.4z"/></g><g><path fill="#1F1F89" d="M733.1,969.6l2.1-3.6h-4.8l1.1-2l9.8-9.1h2.7l-5.2,8.8h1.5l-1.3,2.2h-1.5l-2.1,3.6L733.1,969.6L733.1,969.6z M736.5,963.8l1.6-2.8c0.6-0.9,1.2-1.9,1.8-2.8h-0.1c-1,1-1.7,1.8-2.5,2.5l-3.2,3l0,0L736.5,963.8L736.5,963.8z"/><path fill="#1F1F89" d="M752.3,957.5h-3.5l-1.8,2.7c0.1,0,0.1,0,0.1,0c0.3,0,1.5,0.3,1.8,1.1c0.3,0.7,0.2,1.6-0.2,2.7c-1.3,3.2-4.7,5.7-8,5.7c-1.1,0-1.8-0.2-2.1-0.4l1.6-2.4c0.3,0.2,0.8,0.3,1.5,0.3c1.6,0,3.4-1.1,4-2.8c0.6-1.6-0.3-2.2-1.7-2.2c-0.3,0-0.6,0-1,0l4.8-7.4h5.8L752.3,957.5z"/><path fill="#1F1F89" d="M758.7,954.8c1.9,0,1.8,1.6,1.3,2.9c-1.3,3.3-4.1,6-6.1,6c-1.6,0-2.1-1.2-1.3-3C753.7,957.9,756.4,954.8,758.7,954.8L758.7,954.8z M749.6,969.8l16.6-15h1.5l-16.5,15H749.6z M758,956.4c-1.3,0-3.1,3.5-3.6,4.6c-0.3,0.8-0.3,1.3,0.2,1.3c1.3,0,3.3-4,3.6-4.8C758.4,956.9,758.5,956.4,758,956.4L758,956.4z M763.7,960.8c1.9,0,1.8,1.6,1.3,2.9c-1.3,3.3-4,6-6.2,6c-1.6,0-2-1.2-1.3-3C758.6,963.9,761.4,960.8,763.7,960.8L763.7,960.8z M762.9,962.3c-1.2,0-3.1,3.5-3.6,4.6c-0.3,0.8-0.3,1.3,0.2,1.3c1.3,0,3.3-4,3.6-4.8C763.4,962.9,763.5,962.3,762.9,962.3L762.9,962.3z"/></g></g><polyline fill="none" stroke="#BA4D42" stroke-width="2" stroke-linecap="round" stroke-linejoin="round" stroke-miterlimit="10" points="828.7,859.4 879.9,816.1 939.7,793.8 993.6,733.5 1034.9,755.6 1109.9,678.5 1134.4,710.9 1184.8,713.8 1223.4,678.5 1275.1,607.7 "/></g></g></svg>