<?xml version="1.0" encoding="utf-8"?><!-- Generator: Adobe Illustrator 21.0.2, SVG Export Plug-In . SVG Version: 6.00 Build 0) --><svg version="1.1" id="Layer_1" xmlns="http://www.w3.org/2000/svg" xmlns:xlink="http://www.w3.org/1999/xlink" x="0px" y="0px" viewBox="0 0 1034.2 1000" enable-background="new 0 0 1034.2 1000" xml:space="preserve"><g><g><g><linearGradient id="SVGID_1_" gradientUnits="userSpaceOnUse" x1="472.25" y1="468.384" x2="472.25" y2="425.5345" gradientTransform="matrix(1 0 0 -1 0 1000)"><stop offset="0" style="stop-color:#4F5B7E"/><stop offset="7.132825e-02" style="stop-color:#66718F"/><stop offset="0.2311" style="stop-color:#949CB1"/><stop offset="0.3913" style="stop-color:#BBBFCD"/><stop offset="0.5492" style="stop-color:#D9DBE3"/><stop offset="0.7041" style="stop-color:#EEEFF2"/><stop offset="0.8549" style="stop-color:#FBFBFC"/><stop offset="0.9965" style="stop-color:#FFFFFF"/></linearGradient><polygon fill="url(#SVGID_1_)" points="686.5,579.2 222.1,579.2 258,535.2 722.4,535.2 "/></g><g><path fill="#CCCCCC" d="M715.9,537.5H260.7c-3.5,0-6.3-2.8-6.3-6.3V241.4c0-3.5,2.8-6.3,6.3-6.3h455.2c3.5,0,6.3,2.8,6.3,6.3v289.9C722.1,534.7,719.3,537.5,715.9,537.5z"/><g><path fill="#3878FF" d="M722.1,253.8H254.4v-12.5c0-3.4,2.7-6.1,6.1-6.1H716c3.4,0,6.1,2.7,6.1,6.1V253.8z"/><g><circle fill="#FFFFFF" cx="265.1" cy="244.4" r="2.9"/><circle fill="#FFFFFF" cx="278.9" cy="244.4" r="2.9"/><circle fill="#FFFFFF" cx="292.7" cy="244.4" r="2.9"/></g></g></g></g><g><g><linearGradient id="SVGID_2_" gradientUnits="userSpaceOnUse" x1="766.6" y1="466.5782" x2="766.6" y2="412.773" gradientTransform="matrix(1 0 0 -1 0 1000)"><stop offset="0" style="stop-color:#4F5B7E"/><stop offset="7.132825e-02" style="stop-color:#66718F"/><stop offset="0.2311" style="stop-color:#949CB1"/><stop offset="0.3913" style="stop-color:#BBBFCD"/><stop offset="0.5492" style="stop-color:#D9DBE3"/><stop offset="0.7041" style="stop-color:#EEEFF2"/><stop offset="0.8549" style="stop-color:#FBFBFC"/><stop offset="0.9965" style="stop-color:#FFFFFF"/></linearGradient><polygon fill="url(#SVGID_2_)" points="762.9,593.2 725.2,593.2 770.3,537.9 808,537.9 "/></g><g><linearGradient id="SVGID_3_" gradientUnits="userSpaceOnUse" x1="834.6" y1="466.5782" x2="834.6" y2="412.773" gradientTransform="matrix(1 0 0 -1 0 1000)"><stop offset="0" style="stop-color:#4F5B7E"/><stop offset="7.132825e-02" style="stop-color:#66718F"/><stop offset="0.2311" style="stop-color:#949CB1"/><stop offset="0.3913" style="stop-color:#BBBFCD"/><stop offset="0.5492" style="stop-color:#D9DBE3"/><stop offset="0.7041" style="stop-color:#EEEFF2"/><stop offset="0.8549" style="stop-color:#FBFBFC"/><stop offset="0.9965" style="stop-color:#FFFFFF"/></linearGradient><polygon fill="url(#SVGID_3_)" points="830.9,593.2 793.2,593.2 838.3,537.9 876,537.9 "/></g><linearGradient id="SVGID_4_" gradientUnits="userSpaceOnUse" x1="902.45" y1="466.5782" x2="902.45" y2="412.773" gradientTransform="matrix(1 0 0 -1 0 1000)"><stop offset="0" style="stop-color:#3E5384"/><stop offset="0.797" style="stop-color:#3E5384;stop-opacity:0"/></linearGradient><polygon opacity="0.6" fill="url(#SVGID_4_)" enable-background="new " points="898.8,593.2 861,593.2 906.1,537.9 943.9,537.9 "/><g><rect x="769.7" y="328.1" fill="#1F1F89" width="38.4" height="210.4"/><rect x="837.6" y="238.4" fill="#1F1F89" width="38.4" height="300.1"/><rect x="905.5" y="130.5" fill="#1F1F89" width="38.4" height="408"/></g></g><g><g><g><path fill="#999999" d="M315.1,152.7h8.8c-1.1-17.8-15.6-32-33.6-32.5v8.7C303.4,129.4,314,139.7,315.1,152.7z"/><path fill="#F76D59" d="M289.2,180.9c-14.4,0-26-11.6-26-26c0-14,11.1-25.4,24.9-26v-8.7c-18.7,0.6-33.7,15.9-33.7,34.7c0,19.2,15.6,34.8,34.8,34.8s34.8-15.6,34.8-34.8h-8.7C315.2,169.2,303.5,180.9,289.2,180.9z"/></g><circle fill="#999999" cx="289.2" cy="154.9" r="20.2"/></g><g><g><path fill="#3878FF" d="M375.2,180.9c-14.4,0-26-11.6-26-26s11.6-26,26-26c8.2,0,15.5,3.8,20.2,9.7l6.8-5.5c-6.4-7.9-16.1-12.9-27-12.9c-19.2,0-34.8,15.6-34.8,34.8s15.6,34.8,34.8,34.8c8.3,0,15.9-2.9,21.8-7.7l-5.5-6.8C387.1,178.7,381.4,180.9,375.2,180.9z"/><path fill="#999999" d="M401.2,154.9c0,7.4-3.1,14.1-8,18.8l5.5,6.8c6.9-6.4,11.3-15.5,11.3-25.6c0-7.5-2.4-14.4-6.4-20.1l-6.8,5.5C399.6,144.5,401.2,149.5,401.2,154.9z"/></g><circle fill="#999999" cx="375.5" cy="155" r="20.2"/></g><g><g><path fill="#3878FF" d="M461.2,180.9c-11,0-20.4-6.8-24.2-16.4l-8.4,2.5c4.9,13.2,17.6,22.6,32.6,22.6c2.7,0,5.4-0.3,7.9-0.9l-2.5-8.4C464.9,180.7,463.1,180.9,461.2,180.9z"/><path fill="#F76D59" d="M496,154.9c0-19.2-15.6-34.8-34.8-34.8c-19.2,0-34.8,15.6-34.8,34.8c0,3.5,0.5,6.9,1.5,10.1l8.4-2.5c-0.7-2.4-1.1-4.9-1.1-7.5c0-14.4,11.6-26,26-26s26,11.6,26,26c0,11.7-7.8,21.7-18.5,24.9l2.5,8.4C485.6,183.8,496,170.6,496,154.9z"/></g><circle fill="#999999" cx="461.2" cy="155" r="20.2"/></g></g><g><path fill="#B3B3B3" d="M722.1,273.5H584c-4.5,0-8.2-3.7-8.2-8.2v-30.2h146.3V273.5z"/><path fill="#F2F2F2" d="M838.7,270.3h-254c-3.6,0-6.5-2.9-6.5-6.5V126.6c0-3.6,2.9-6.5,6.5-6.5h253.9c3.6,0,6.5,2.9,6.5,6.5v137.2C845.2,267.4,842.3,270.3,838.7,270.3z"/><g><path fill="#C1272D" d="M734.8,205.9h-46.1c-3.7,0-6.7-3-6.7-6.7v-20.7c0-3.7,3-6.7,6.7-6.7h46.1c3.7,0,6.7,3,6.7,6.7v20.7C741.5,202.9,738.5,205.9,734.8,205.9z"/><polygon fill="#FFFFFF" points="720.3,188.8 707.5,198 707.5,179.7 "/></g><rect x="598.8" y="248.3" fill="#E6E6E6" width="230.2" height="2.9"/><rect x="598.8" y="248.3" fill="#C1272D" width="45.8" height="2.9"/><circle fill="#C1272D" cx="644.6" cy="249.8" r="4.9"/><polygon fill="#999999" points="592.8,249.8 587.4,253.7 587.4,245.9 "/></g><g><g><linearGradient id="SVGID_5_" gradientUnits="userSpaceOnUse" x1="936.75" y1="413.4423" x2="936.75" y2="359.6371" gradientTransform="matrix(1 0 0 -1 0 1000)"><stop offset="0" style="stop-color:#4F5B7E"/><stop offset="7.132825e-02" style="stop-color:#66718F"/><stop offset="0.2311" style="stop-color:#949CB1"/><stop offset="0.3913" style="stop-color:#BBBFCD"/><stop offset="0.5492" style="stop-color:#D9DBE3"/><stop offset="0.7041" style="stop-color:#EEEFF2"/><stop offset="0.8549" style="stop-color:#FBFBFC"/><stop offset="0.9965" style="stop-color:#FFFFFF"/></linearGradient><polygon fill="url(#SVGID_5_)" points="979.5,646.4 848.9,646.4 894,591.1 1024.6,591.1 "/></g><g><path fill="#E6E6E6" d="M1021.6,592.7H896.2c-1.9,0-3.5-1.6-3.5-3.5v-93.9c0-1.9,1.6-3.5,3.5-3.5h125.4c1.9,0,3.5,1.6,3.5,3.5v93.9C1025.1,591.2,1023.5,592.7,1021.6,592.7z"/><path fill="#ED673E" d="M1025.1,512.2H892.7v-16.3c0-2.2,1.8-4.1,4.1-4.1H1021c2.2,0,4.1,1.8,4.1,4.1V512.2z"/><g><path fill="#999999" d="M956.2,560.8h-10.6l0.8-0.6l0,0c2.3-2,5.2-4.7,7.2-7.7c2.1-3.1,3.2-6.2,3.2-9.3c0-7.9-5.7-13-14.4-13c-4.8,0-9.6,1.5-13,4.1c-0.5,0.4-0.7,1-0.4,1.5l2.5,6.3c0.2,0.4,0.5,0.7,0.9,0.8c0.1,0,0.2,0,0.4,0c0.3,0,0.6-0.1,0.8-0.3c2.5-1.9,4.9-2.8,7.2-2.8c3.2,0,4.8,1.4,4.8,4.1c-0.1,3.8-3.9,7.8-11.8,14.9l-4.8,4.4c-0.3,0.3-0.4,0.6-0.4,1v5.3c0,0.7,0.6,1.3,1.3,1.3h26.5c0.7,0,1.3-0.6,1.3-1.3v-7.2C957.5,561.3,956.9,560.8,956.2,560.8z M946.8,543.7c0,0.2,0,0.5-0.1,0.7C946.7,544.2,946.8,544,946.8,543.7c0-0.9-0.1-1.7-0.5-2.4C946.6,542.1,946.8,542.9,946.8,543.7z M942.1,562l3.4-2.9c1.7-1.5,3.3-3,4.7-4.6c-1.4,1.6-3,3.1-4.7,4.6L942.1,562z"/><path fill="#999999" d="M984.3,546.3c-2.7-1.9-6.4-2.9-10.6-2.9c-0.3,0-0.6,0-0.9,0l0.4-3h13.3c0.7,0,1.3-0.6,1.3-1.3v-7.2c0-0.7-0.6-1.3-1.3-1.3H966c-0.7,0-1.2,0.5-1.3,1.2l-2.5,19.6c-0.1,0.4,0.1,0.8,0.4,1.1c0.2,0.2,0.6,0.4,0.9,0.4c0.1,0,0.1,0,0.2,0c1.6-0.2,3-0.3,4.9-0.3c9.2,0,9.2,3.7,9.2,4.9c0,3.4-3.9,4.4-6.1,4.4c-3,0-6.2-0.9-7.9-1.7c-0.2-0.1-0.4-0.1-0.6-0.1c-0.2,0-0.4,0-0.6,0.1c-0.4,0.2-0.6,0.5-0.7,0.9l-1.5,6.6c-0.1,0.6,0.1,1.2,0.7,1.5c2.1,1.1,6.1,2.3,11,2.3c11.4,0,17.4-7.3,17.4-14.4C989.4,552.2,987.6,548.6,984.3,546.3z M968.6,551.2c1.4,0,2.6,0.1,3.7,0.2C971.2,551.2,970,551.2,968.6,551.2z M961.6,567.8c0.6,0.3,1.5,0.7,2.4,1C963.1,568.4,962.3,568.1,961.6,567.8z M983.5,547.4c-0.7-0.5-1.4-0.9-2.2-1.2C982.1,546.5,982.9,546.9,983.5,547.4c0.4,0.2,0.7,0.5,1,0.8C984.2,547.9,983.9,547.7,983.5,547.4z M988.1,556.8c0,1.3-0.2,2.6-0.6,3.8C987.9,559.4,988.1,558.1,988.1,556.8z"/></g></g></g><g><g><rect x="279.6" y="276.3" fill="#E6E6E6" width="203" height="140.3"/><rect x="279.6" y="433" fill="#E6E6E6" width="93.7" height="75.5"/><rect x="389" y="433" fill="#E6E6E6" width="93.7" height="75.5"/></g><g><rect x="509.4" y="320.9" fill="#E6E6E6" width="121.3" height="16.7"/><rect x="509.4" y="355.6" fill="#E6E6E6" width="185.9" height="7.9"/><rect x="509.4" y="377.5" fill="#E6E6E6" width="185.9" height="7.9"/><rect x="509.4" y="399.5" fill="#E6E6E6" width="185.9" height="7.9"/><rect x="509.4" y="421.5" fill="#E6E6E6" width="185.9" height="7.9"/><rect x="509.4" y="443.5" fill="#E6E6E6" width="185.9" height="7.9"/></g></g><g><g><linearGradient id="SVGID_6_" gradientUnits="userSpaceOnUse" x1="360.35" y1="271.6721" x2="360.35" y2="217.8669" gradientTransform="matrix(1 0 0 -1 0 1000)"><stop offset="0" style="stop-color:#4F5B7E"/><stop offset="7.132825e-02" style="stop-color:#66718F"/><stop offset="0.2311" style="stop-color:#949CB1"/><stop offset="0.3913" style="stop-color:#BBBFCD"/><stop offset="0.5492" style="stop-color:#D9DBE3"/><stop offset="0.7041" style="stop-color:#EEEFF2"/><stop offset="0.8549" style="stop-color:#FBFBFC"/><stop offset="0.9965" style="stop-color:#FFFFFF"/></linearGradient><polygon fill="url(#SVGID_6_)" points="638.9,788.1 36.7,788.1 81.8,732.8 684,732.8 "/></g><g><path fill="#1F1F89" d="M791.3,627.2L687.1,731c-7.5,6.7-21.6,12.1-31.5,12.1l-568.7-6.6c-10,0-12-5.4-4.5-12.1l109-97.7c7.5-6.7,21.6-12.1,31.5-12.1l564,0.5C796.7,615,798.7,620.5,791.3,627.2z"/><g><path fill="#FFFFFF" d="M788.8,621.9L684.6,724.5c-7.5,6.6-21.6,12-31.5,12L88.5,730c-10,0-12-5.4-4.5-12l109-96.6c7.5-6.6,21.6-12,31.5-12l559.9,0.5C794.3,609.9,796.3,615.2,788.8,621.9z"/><path fill="#F76D59" d="M782.5,622.2L678.3,724.3c-5,4.5-14.5,8.2-21.2,8.2l-561.4-5.8c-6.7,0-8.1-3.7-3-8.2l109-96.9c5-4.5,14.5-8.2,21.2-8.2l556.6,0.5C786.2,614,787.5,617.7,782.5,622.2z"/><path fill="#1F1F89" d="M194.4,618.7L176,635.3l-78.5,70.4l-18.4,16.5c-5.7,5.1,0.3,9.3,13.3,9.3l557.5,6.6c13,0,28.2-4.1,33.9-9.2l110.6-109.5c5.7-5.1-0.3-9.3-13.3-9.3l-552.8-0.5C215.3,609.5,200.1,613.6,194.4,618.7z M779.5,611.5c10.9,0,16,3.5,11.2,7.8L680.1,728.8c-4.8,4.3-17.6,7.8-28.5,7.8L94,730c-10.9,0-16-3.5-11.2-7.8L102,705l8-1.2c7.8-1.1,14.8-3.7,18-6.5l60-53.8c3.1-2.8,1.7-5.3-3.5-6.5l-5.4-1.2l19.2-17.2c4.8-4.3,17.6-7.8,28.5-7.8L779.5,611.5z"/><path fill="#FFFFFF" d="M746.8,651.2l-43.3,39.6c-1.4,1.3-4.1,2.3-6.1,2.3h-2.1c-1.9,0-2.3-1-0.9-2.3l43.3-39.6c1.4-1.3,4.1-2.3,6.1-2.3h2.1C747.9,648.9,748.3,650,746.8,651.2z"/></g></g><g><linearGradient id="SVGID_7_" gradientUnits="userSpaceOnUse" x1="436.55" y1="329.9052" x2="436.55" y2="276.0999" gradientTransform="matrix(1 0 0 -1 0 1000)"><stop offset="0" style="stop-color:#3E5384"/><stop offset="0.797" style="stop-color:#3E5384;stop-opacity:0"/></linearGradient><polygon opacity="0.6" fill="url(#SVGID_7_)" enable-background="new " points="580.5,729.9 247.5,729.9 292.6,674.6 625.6,674.6 "/><g><path fill="#FFFFFF" d="M617.2,678.7H301.9c-5,0-9.1-4.1-9.1-9.1V495.5c0-5,4.1-9.1,9.1-9.1h315.2c5,0,9.1,4.1,9.1,9.1v174.1C626.3,674.7,622.2,678.7,617.2,678.7z"/><path fill="#FCD923" d="M301.5,486.4h316.1c2.9,0,4.2,3.6,1.9,5.4L470.9,611.6c-6.6,5.3-16,5.3-22.6,0L299.6,491.9C297.3,490,298.6,486.4,301.5,486.4z"/></g></g></g><g><path fill="#F76D59" d="M157.6,514.8c0-25.3-20.5-45.8-45.8-45.8S66,489.5,66,514.8c0,9.2,2.7,17.8,7.5,25l0,0l0.4,0.5l0,0l38,55.6l38-55.6l0,0l0.4-0.5l0,0C154.8,532.7,157.6,524.1,157.6,514.8z M111.8,529.9c-9.5,0-17.2-7.7-17.2-17.2s7.7-17.2,17.2-17.2s17.2,7.7,17.2,17.2S121.3,529.9,111.8,529.9z"/><g><linearGradient id="SVGID_8_" gradientUnits="userSpaceOnUse" x1="55.9" y1="409.2248" x2="55.9" y2="355.4196" gradientTransform="matrix(1 0 0 -1 0 1000)"><stop offset="0" style="stop-color:#4F5B7E"/><stop offset="7.132825e-02" style="stop-color:#66718F"/><stop offset="0.2311" style="stop-color:#949CB1"/><stop offset="0.3913" style="stop-color:#BBBFCD"/><stop offset="0.5492" style="stop-color:#D9DBE3"/><stop offset="0.7041" style="stop-color:#EEEFF2"/><stop offset="0.8549" style="stop-color:#FBFBFC"/><stop offset="0.9965" style="stop-color:#FFFFFF"/></linearGradient><polygon fill="url(#SVGID_8_)" points="66.7,650.6 0,650.6 111.3,595.3 111.8,595.3 "/></g></g><g><path fill="#B3B3B3" d="M328.5,381.5h-74.1V301h75.8c4.1,0,7.4,3.3,7.4,7.4v23.2l12.2,9.7l-12.2,9.6v21.6C337.6,377.5,333.5,381.5,328.5,381.5z"/><path fill="#F2F2F2" d="M326.2,377.8H117.4c-4.3,0-7.9-3.5-7.9-7.9v-64.8c0-4.3,3.5-7.9,7.9-7.9h208.8c4.3,0,7.9,3.5,7.9,7.9v22.7l12.2,9.7l-12.2,9.6V370C334,374.3,330.5,377.8,326.2,377.8z"/><circle fill="#3878FF" cx="136.9" cy="331.4" r="15.3"/><rect x="165.9" y="316.8" fill="#CCCCCC" width="113.4" height="8"/><rect x="165.9" y="333.5" fill="#CCCCCC" width="150.2" height="3.6"/><rect x="165.9" y="345" fill="#CCCCCC" width="150.2" height="3.6"/><rect x="165.9" y="356.5" fill="#CCCCCC" width="150.2" height="3.6"/></g><g><g><linearGradient id="SVGID_9_" gradientUnits="userSpaceOnUse" x1="784.2" y1="297.2762" x2="784.2" y2="243.471" gradientTransform="matrix(1 0 0 -1 0 1000)"><stop offset="0" style="stop-color:#4F5B7E"/><stop offset="7.132825e-02" style="stop-color:#66718F"/><stop offset="0.2311" style="stop-color:#949CB1"/><stop offset="0.3913" style="stop-color:#BBBFCD"/><stop offset="0.5492" style="stop-color:#D9DBE3"/><stop offset="0.7041" style="stop-color:#EEEFF2"/><stop offset="0.8549" style="stop-color:#FBFBFC"/><stop offset="0.9965" style="stop-color:#FFFFFF"/></linearGradient><polygon fill="url(#SVGID_9_)" points="797.3,762.5 726,762.5 771.1,707.2 842.4,707.2 "/></g><g><g><g><path fill="#FCD923" d="M806.8,660.6c-18.6,0-33.7-15.1-33.7-33.7c0-18.6,15.1-33.7,33.7-33.7c18.6,0,33.7,15.1,33.7,33.7S825.4,660.6,806.8,660.6z"/></g></g><g><path fill="#CEAC1B" d="M806.8,601.7c-13.9,0-25.2,11.3-25.2,25.2s11.3,25.2,25.2,25.2s25.2-11.3,25.2-25.2S820.7,601.7,806.8,601.7z M806.8,650.6c-13.1,0-23.7-10.6-23.7-23.7c0-13.1,10.6-23.7,23.7-23.7s23.7,10.6,23.7,23.7S819.9,650.6,806.8,650.6z"/><path fill="#CEAC1B" d="M808.3,624.1c-3.5-0.4-6.2-0.9-6.2-3.3c0-3.1,4.2-3.5,6-3.5c2.4,0,4.9,1,6.1,2.4l0.4,0.4l4.2-1.9l-0.5-0.8c-1.5-2.4-3.9-3.8-7.5-4.4v-3h-4.9v3.2c-2.1,0.3-8.8,1.5-8.8,7.7c0,6.6,6,7.2,10.8,7.7c4.6,0.5,6.7,1.7,6.7,3.7c0,2.5-2.5,4-6.6,4c-2.5,0-5.8-1-7.3-3.3l-0.3-0.6l-4.5,1.9l0.4,0.8c2.3,4.4,7,5.4,9.7,5.6v3.5h4.9v-3.7c4.5-0.3,9-3,9-8.2C819.8,625.5,813.1,624.7,808.3,624.1z M810.6,639l-1.4,0.1v3.6h-1.8v-3.4l-1.4-0.1c-2.1-0.2-5.9-1-8-4.1l1.7-0.7c1.9,2.4,5.5,3.5,8.2,3.5c5,0,8.1-2.1,8.1-5.6c0-4.3-5.9-5-8.1-5.3c-6.4-0.7-9.4-1.8-9.4-6.2c0-4.8,5.7-5.9,7.5-6.1l1.4-0.2v-3.1h1.8v3l1.3,0.2c2.8,0.4,4.7,1.3,5.9,2.9l-1.5,0.7c-1.6-1.5-4.3-2.5-6.9-2.5c-4.7,0-7.6,1.9-7.6,5c0,3.9,4.4,4.4,7.6,4.8c6.7,0.8,10.1,2.1,10.1,6.7C818.2,636.6,814.4,638.8,810.6,639z"/></g><g><path fill="#FCD923" d="M841.6,680.8h-72.2v-16.1h72.2V680.8z"/></g><g><path fill="#FCD923" d="M848.9,665h-72.2v-16.1h72.2V665z"/></g><g><path fill="#FCD923" d="M848.9,695.4h-72.2v-16.1h72.2V695.4z"/></g><g><path fill="#FCD923" d="M841.6,709.7h-72.2v-16.1h72.2V709.7z"/></g><rect x="776.7" y="693.6" fill="#CEAC1B" width="72.3" height="2.8"/><rect x="776.7" y="679.2" fill="#CEAC1B" width="72.3" height="2.8"/><rect x="776.7" y="664.7" fill="#CEAC1B" width="72.3" height="2.8"/><rect x="776.7" y="648.9" fill="#CEAC1B" width="72.3" height="2.8"/><g><g><rect x="779" y="650.7" fill="#CEAC1B" width="0.9" height="11.6"/><rect x="781.8" y="650.7" fill="#CEAC1B" width="0.9" height="8.8"/><rect x="784.6" y="650.7" fill="#CEAC1B" width="0.9" height="10.2"/><rect x="787.3" y="650.7" fill="#CEAC1B" width="0.9" height="11.6"/><rect x="790.1" y="650.7" fill="#CEAC1B" width="0.9" height="11.1"/></g><g><rect x="792.9" y="650.7" fill="#CEAC1B" width="0.9" height="11.6"/><rect x="795.7" y="650.7" fill="#CEAC1B" width="0.9" height="8.8"/><rect x="798.5" y="650.7" fill="#CEAC1B" width="0.9" height="10.2"/><rect x="801.2" y="650.7" fill="#CEAC1B" width="0.9" height="11.6"/><rect x="804" y="650.7" fill="#CEAC1B" width="0.9" height="11.1"/></g><g><rect x="806.8" y="650.7" fill="#CEAC1B" width="0.9" height="11.6"/><rect x="809.6" y="650.7" fill="#CEAC1B" width="0.9" height="8.8"/><rect x="812.4" y="650.7" fill="#CEAC1B" width="0.9" height="10.2"/><rect x="815.1" y="650.7" fill="#CEAC1B" width="0.9" height="11.6"/><rect x="817.9" y="650.7" fill="#CEAC1B" width="0.9" height="11.1"/></g><g><rect x="820.7" y="650.7" fill="#CEAC1B" width="0.9" height="11.6"/><rect x="823.5" y="650.7" fill="#CEAC1B" width="0.9" height="8.8"/><rect x="826.3" y="650.7" fill="#CEAC1B" width="0.9" height="10.2"/><rect x="829" y="650.7" fill="#CEAC1B" width="0.9" height="11.6"/><rect x="831.8" y="650.7" fill="#CEAC1B" width="0.9" height="11.1"/></g><g><rect x="834.6" y="650.7" fill="#CEAC1B" width="0.9" height="11.6"/><rect x="837.4" y="650.7" fill="#CEAC1B" width="0.9" height="8.8"/><rect x="840.2" y="650.7" fill="#CEAC1B" width="0.9" height="10.2"/><rect x="842.9" y="650.7" fill="#CEAC1B" width="0.9" height="11.6"/><rect x="845.7" y="650.7" fill="#CEAC1B" width="0.9" height="11.1"/></g></g><g><g><rect x="771.7" y="666" fill="#CEAC1B" width="0.9" height="11.6"/><rect x="774.5" y="666" fill="#CEAC1B" width="0.9" height="8.8"/><rect x="777.3" y="666" fill="#CEAC1B" width="0.9" height="10.2"/><rect x="780" y="666" fill="#CEAC1B" width="0.9" height="11.6"/><rect x="782.8" y="666" fill="#CEAC1B" width="0.9" height="11.1"/></g><g><rect x="785.6" y="666" fill="#CEAC1B" width="0.9" height="11.6"/><rect x="788.4" y="666" fill="#CEAC1B" width="0.9" height="8.8"/><rect x="791.2" y="666" fill="#CEAC1B" width="0.9" height="10.2"/><rect x="793.9" y="666" fill="#CEAC1B" width="0.9" height="11.6"/><rect x="796.7" y="666" fill="#CEAC1B" width="0.9" height="11.1"/></g><g><rect x="799.5" y="666" fill="#CEAC1B" width="0.9" height="11.6"/><rect x="802.3" y="666" fill="#CEAC1B" width="0.9" height="8.8"/><rect x="805.1" y="666" fill="#CEAC1B" width="0.9" height="10.2"/><rect x="807.8" y="666" fill="#CEAC1B" width="0.9" height="11.6"/><rect x="810.6" y="666" fill="#CEAC1B" width="0.9" height="11.1"/></g><g><rect x="813.4" y="666" fill="#CEAC1B" width="0.9" height="11.6"/><rect x="816.2" y="666" fill="#CEAC1B" width="0.9" height="8.8"/><rect x="819" y="666" fill="#CEAC1B" width="0.9" height="10.2"/><rect x="821.7" y="666" fill="#CEAC1B" width="0.9" height="11.6"/><rect x="824.5" y="666" fill="#CEAC1B" width="0.9" height="11.1"/></g><g><rect x="827.3" y="666" fill="#CEAC1B" width="0.9" height="11.6"/><rect x="830.1" y="666" fill="#CEAC1B" width="0.9" height="8.8"/><rect x="832.9" y="666" fill="#CEAC1B" width="0.9" height="10.2"/><rect x="835.6" y="666" fill="#CEAC1B" width="0.9" height="11.6"/><rect x="838.4" y="666" fill="#CEAC1B" width="0.9" height="11.1"/></g></g><g><g><rect x="779" y="680.9" fill="#CEAC1B" width="0.9" height="11.6"/><rect x="781.8" y="680.9" fill="#CEAC1B" width="0.9" height="8.8"/><rect x="784.6" y="680.9" fill="#CEAC1B" width="0.9" height="10.2"/><rect x="787.3" y="680.9" fill="#CEAC1B" width="0.9" height="11.6"/><rect x="790.1" y="680.9" fill="#CEAC1B" width="0.9" height="11.1"/></g><g><rect x="792.9" y="680.9" fill="#CEAC1B" width="0.9" height="11.6"/><rect x="795.7" y="680.9" fill="#CEAC1B" width="0.9" height="8.8"/><rect x="798.5" y="680.9" fill="#CEAC1B" width="0.9" height="10.2"/><rect x="801.2" y="680.9" fill="#CEAC1B" width="0.9" height="11.6"/><rect x="804" y="680.9" fill="#CEAC1B" width="0.9" height="11.1"/></g><g><rect x="806.8" y="680.9" fill="#CEAC1B" width="0.9" height="11.6"/><rect x="809.6" y="680.9" fill="#CEAC1B" width="0.9" height="8.8"/><rect x="812.4" y="680.9" fill="#CEAC1B" width="0.9" height="10.2"/><rect x="815.1" y="680.9" fill="#CEAC1B" width="0.9" height="11.6"/><rect x="817.9" y="680.9" fill="#CEAC1B" width="0.9" height="11.1"/></g><g><rect x="820.7" y="680.9" fill="#CEAC1B" width="0.9" height="11.6"/><rect x="823.5" y="680.9" fill="#CEAC1B" width="0.9" height="8.8"/><rect x="826.3" y="680.9" fill="#CEAC1B" width="0.9" height="10.2"/><rect x="829" y="680.9" fill="#CEAC1B" width="0.9" height="11.6"/><rect x="831.8" y="680.9" fill="#CEAC1B" width="0.9" height="11.1"/></g><g><rect x="834.6" y="680.9" fill="#CEAC1B" width="0.9" height="11.6"/><rect x="837.4" y="680.9" fill="#CEAC1B" width="0.9" height="8.8"/><rect x="840.2" y="680.9" fill="#CEAC1B" width="0.9" height="10.2"/><rect x="842.9" y="680.9" fill="#CEAC1B" width="0.9" height="11.6"/><rect x="845.7" y="680.9" fill="#CEAC1B" width="0.9" height="11.1"/></g></g><g><g><rect x="771.7" y="695.7" fill="#CEAC1B" width="0.9" height="11.6"/><rect x="774.5" y="695.7" fill="#CEAC1B" width="0.9" height="8.8"/><rect x="777.3" y="695.7" fill="#CEAC1B" width="0.9" height="10.2"/><rect x="780" y="695.7" fill="#CEAC1B" width="0.9" height="11.6"/><rect x="782.8" y="695.7" fill="#CEAC1B" width="0.9" height="11.1"/></g><g><rect x="785.6" y="695.7" fill="#CEAC1B" width="0.9" height="11.6"/><rect x="788.4" y="695.7" fill="#CEAC1B" width="0.9" height="8.8"/><rect x="791.2" y="695.7" fill="#CEAC1B" width="0.9" height="10.2"/><rect x="793.9" y="695.7" fill="#CEAC1B" width="0.9" height="11.6"/><rect x="796.7" y="695.7" fill="#CEAC1B" width="0.9" height="11.1"/></g><g><rect x="799.5" y="695.7" fill="#CEAC1B" width="0.9" height="11.6"/><rect x="802.3" y="695.7" fill="#CEAC1B" width="0.9" height="8.8"/><rect x="805.1" y="695.7" fill="#CEAC1B" width="0.9" height="10.2"/><rect x="807.8" y="695.7" fill="#CEAC1B" width="0.9" height="11.6"/><rect x="810.6" y="695.7" fill="#CEAC1B" width="0.9" height="11.1"/></g><g><rect x="813.4" y="695.7" fill="#CEAC1B" width="0.9" height="11.6"/><rect x="816.2" y="695.7" fill="#CEAC1B" width="0.9" height="8.8"/><rect x="819" y="695.7" fill="#CEAC1B" width="0.9" height="10.2"/><rect x="821.7" y="695.7" fill="#CEAC1B" width="0.9" height="11.6"/><rect x="824.5" y="695.7" fill="#CEAC1B" width="0.9" height="11.1"/></g><g><rect x="827.3" y="695.7" fill="#CEAC1B" width="0.9" height="11.6"/><rect x="830.1" y="695.7" fill="#CEAC1B" width="0.9" height="8.8"/><rect x="832.9" y="695.7" fill="#CEAC1B" width="0.9" height="10.2"/><rect x="835.6" y="695.7" fill="#CEAC1B" width="0.9" height="11.6"/><rect x="838.4" y="695.7" fill="#CEAC1B" width="0.9" height="11.1"/></g></g></g></g><g><path fill="#3878FF" d="M834.2,84.8h-49l-14.7,19.6l-14.9-19.6H589.2c-6,0-10.9-4.9-10.9-10.9v-63c0-6,4.9-10.9,10.9-10.9h245c6,0,10.9,4.9,10.9,10.9v62.9C845.2,79.9,840.3,84.8,834.2,84.8z"/><g><rect x="608.8" y="20.6" fill="#FFFFFF" width="204.4" height="4.1"/><rect x="608.8" y="37.7" fill="#FFFFFF" width="204.4" height="4.1"/><rect x="608.8" y="54.9" fill="#FFFFFF" width="204.4" height="4.1"/></g></g><g><g><linearGradient id="SVGID_10_" gradientUnits="userSpaceOnUse" x1="495.1" y1="151.4711" x2="495.1" y2="97.6658" gradientTransform="matrix(1 0 0 -1 0 1000)"><stop offset="0" style="stop-color:#4F5B7E"/><stop offset="7.132825e-02" style="stop-color:#66718F"/><stop offset="0.2311" style="stop-color:#949CB1"/><stop offset="0.3913" style="stop-color:#BBBFCD"/><stop offset="0.5492" style="stop-color:#D9DBE3"/><stop offset="0.7041" style="stop-color:#EEEFF2"/><stop offset="0.8549" style="stop-color:#FBFBFC"/><stop offset="0.9965" style="stop-color:#FFFFFF"/></linearGradient><polygon fill="url(#SVGID_10_)" points="489.5,908.3 455.6,908.3 500.7,853 534.6,853 "/></g><g><linearGradient id="SVGID_11_" gradientUnits="userSpaceOnUse" x1="558" y1="151.4711" x2="558" y2="97.6658" gradientTransform="matrix(1 0 0 -1 0 1000)"><stop offset="0" style="stop-color:#4F5B7E"/><stop offset="7.132825e-02" style="stop-color:#66718F"/><stop offset="0.2311" style="stop-color:#949CB1"/><stop offset="0.3913" style="stop-color:#BBBFCD"/><stop offset="0.5492" style="stop-color:#D9DBE3"/><stop offset="0.7041" style="stop-color:#EEEFF2"/><stop offset="0.8549" style="stop-color:#FBFBFC"/><stop offset="0.9965" style="stop-color:#FFFFFF"/></linearGradient><polygon fill="url(#SVGID_11_)" points="552.4,908.3 518.5,908.3 563.6,853 597.5,853 "/></g><g><linearGradient id="SVGID_12_" gradientUnits="userSpaceOnUse" x1="620.85" y1="151.4711" x2="620.85" y2="97.6658" gradientTransform="matrix(1 0 0 -1 0 1000)"><stop offset="0" style="stop-color:#4F5B7E"/><stop offset="7.132825e-02" style="stop-color:#66718F"/><stop offset="0.2311" style="stop-color:#949CB1"/><stop offset="0.3913" style="stop-color:#BBBFCD"/><stop offset="0.5492" style="stop-color:#D9DBE3"/><stop offset="0.7041" style="stop-color:#EEEFF2"/><stop offset="0.8549" style="stop-color:#FBFBFC"/><stop offset="0.9965" style="stop-color:#FFFFFF"/></linearGradient><polygon fill="url(#SVGID_12_)" points="615.3,908.3 581.3,908.3 626.4,853 660.4,853 "/></g><g><linearGradient id="SVGID_13_" gradientUnits="userSpaceOnUse" x1="683.7" y1="151.4711" x2="683.7" y2="97.6658" gradientTransform="matrix(1 0 0 -1 0 1000)"><stop offset="0" style="stop-color:#4F5B7E"/><stop offset="7.132825e-02" style="stop-color:#66718F"/><stop offset="0.2311" style="stop-color:#949CB1"/><stop offset="0.3913" style="stop-color:#BBBFCD"/><stop offset="0.5492" style="stop-color:#D9DBE3"/><stop offset="0.7041" style="stop-color:#EEEFF2"/><stop offset="0.8549" style="stop-color:#FBFBFC"/><stop offset="0.9965" style="stop-color:#FFFFFF"/></linearGradient><polygon fill="url(#SVGID_13_)" points="678.1,908.3 644.2,908.3 689.3,853 723.2,853 "/></g><g><linearGradient id="SVGID_14_" gradientUnits="userSpaceOnUse" x1="746.6" y1="151.4711" x2="746.6" y2="97.6658" gradientTransform="matrix(1 0 0 -1 0 1000)"><stop offset="0" style="stop-color:#4F5B7E"/><stop offset="7.132825e-02" style="stop-color:#66718F"/><stop offset="0.2311" style="stop-color:#949CB1"/><stop offset="0.3913" style="stop-color:#BBBFCD"/><stop offset="0.5492" style="stop-color:#D9DBE3"/><stop offset="0.7041" style="stop-color:#EEEFF2"/><stop offset="0.8549" style="stop-color:#FBFBFC"/><stop offset="0.9965" style="stop-color:#FFFFFF"/></linearGradient><polygon fill="url(#SVGID_14_)" points="741,908.3 707.1,908.3 752.2,853 786.1,853 "/></g><g><linearGradient id="SVGID_15_" gradientUnits="userSpaceOnUse" x1="809.45" y1="151.4711" x2="809.45" y2="97.6658" gradientTransform="matrix(1 0 0 -1 0 1000)"><stop offset="0" style="stop-color:#4F5B7E"/><stop offset="7.132825e-02" style="stop-color:#66718F"/><stop offset="0.2311" style="stop-color:#949CB1"/><stop offset="0.3913" style="stop-color:#BBBFCD"/><stop offset="0.5492" style="stop-color:#D9DBE3"/><stop offset="0.7041" style="stop-color:#EEEFF2"/><stop offset="0.8549" style="stop-color:#FBFBFC"/><stop offset="0.9965" style="stop-color:#FFFFFF"/></linearGradient><polygon fill="url(#SVGID_15_)" points="803.9,908.3 769.9,908.3 815,853 849,853 "/></g><g><polygon fill="#F76D59" points="585.9,750.8 554.8,750.8 566.4,739.8 597.5,739.8 "/><rect x="554.8" y="750.8" fill="#C14C46" width="31.1" height="113.3"/><polygon fill="#DB5C4F" points="597.4,853.1 585.9,864.2 585.9,750.8 597.5,739.8 "/></g><g><polygon fill="#F2F2F2" points="648.8,764.6 617.7,764.6 629.3,753.5 660.4,753.5 "/><rect x="617.7" y="764.6" fill="#CCCCCC" width="31.1" height="99.5"/><polygon fill="#E6E6E6" points="660.3,853.1 648.8,864.2 648.8,764.6 660.4,753.5 "/></g><g><polygon fill="#F2F2F2" points="711.6,797.6 680.5,797.6 692.1,786.5 723.2,786.5 "/><rect x="680.5" y="797.6" fill="#CCCCCC" width="31.1" height="66.6"/><polygon fill="#E6E6E6" points="723.2,853.1 711.7,864.2 711.6,797.6 723.2,786.5 "/></g><g><polygon fill="#3878FF" points="523,842.1 491.9,842.1 503.5,831 534.6,831 "/><rect x="491.9" y="842.1" fill="#1F1F89" width="31.1" height="22.1"/><polygon fill="#3737AF" points="534.6,853.1 523.1,864.2 523,842.1 534.6,831 "/></g><g><polygon fill="#3878FF" points="774.5,842.1 743.4,842.1 755,831 786.1,831 "/><rect x="743.4" y="842.1" fill="#1F1F89" width="31.1" height="22.1"/><polygon fill="#3737AF" points="786,853.1 774.5,864.2 774.5,842.1 786.1,831 "/></g><g><polygon fill="#FCD923" points="837.4,830.9 806.3,830.9 817.9,819.8 849,819.8 "/><rect x="806.3" y="830.9" fill="#CEAC1B" width="31.1" height="33.3"/><polygon fill="#DBBA2E" points="848.9,853.1 837.4,864.2 837.4,830.9 849,819.8 "/></g></g><g><g><linearGradient id="SVGID_16_" gradientUnits="userSpaceOnUse" x1="78.7" y1="151.4711" x2="78.7" y2="97.6658" gradientTransform="matrix(1 0 0 -1 0 1000)"><stop offset="0" style="stop-color:#4F5B7E"/><stop offset="7.132825e-02" style="stop-color:#66718F"/><stop offset="0.2311" style="stop-color:#949CB1"/><stop offset="0.3913" style="stop-color:#BBBFCD"/><stop offset="0.5492" style="stop-color:#D9DBE3"/><stop offset="0.7041" style="stop-color:#EEEFF2"/><stop offset="0.8549" style="stop-color:#FBFBFC"/><stop offset="0.9965" style="stop-color:#FFFFFF"/></linearGradient><polygon fill="url(#SVGID_16_)" points="73.1,908.3 39.2,908.3 84.3,853 118.2,853 "/></g><g><linearGradient id="SVGID_17_" gradientUnits="userSpaceOnUse" x1="140.3" y1="151.4711" x2="140.3" y2="97.6658" gradientTransform="matrix(1 0 0 -1 0 1000)"><stop offset="0" style="stop-color:#4F5B7E"/><stop offset="7.132825e-02" style="stop-color:#66718F"/><stop offset="0.2311" style="stop-color:#949CB1"/><stop offset="0.3913" style="stop-color:#BBBFCD"/><stop offset="0.5492" style="stop-color:#D9DBE3"/><stop offset="0.7041" style="stop-color:#EEEFF2"/><stop offset="0.8549" style="stop-color:#FBFBFC"/><stop offset="0.9965" style="stop-color:#FFFFFF"/></linearGradient><polygon fill="url(#SVGID_17_)" points="134.7,908.3 100.8,908.3 145.8,853 179.8,853 "/></g><g><linearGradient id="SVGID_18_" gradientUnits="userSpaceOnUse" x1="203.85" y1="151.4711" x2="203.85" y2="97.6658" gradientTransform="matrix(1 0 0 -1 0 1000)"><stop offset="0" style="stop-color:#4F5B7E"/><stop offset="7.132825e-02" style="stop-color:#66718F"/><stop offset="0.2311" style="stop-color:#949CB1"/><stop offset="0.3913" style="stop-color:#BBBFCD"/><stop offset="0.5492" style="stop-color:#D9DBE3"/><stop offset="0.7041" style="stop-color:#EEEFF2"/><stop offset="0.8549" style="stop-color:#FBFBFC"/><stop offset="0.9965" style="stop-color:#FFFFFF"/></linearGradient><polygon fill="url(#SVGID_18_)" points="198.3,908.3 164.3,908.3 209.4,853 243.4,853 "/></g><g><polygon fill="#F2F2F2" points="231.8,814.7 200.7,814.7 212.2,803.6 243.4,803.6 "/><rect x="200.7" y="814.7" fill="#CCCCCC" width="31.1" height="49.5"/><polygon fill="#E6E6E6" points="243.3,853.1 231.8,864.2 231.8,814.7 243.4,803.6 "/></g><g><polygon fill="#F76D59" points="106.6,797.6 75.5,797.6 87.1,786.5 118.2,786.5 "/><rect x="75.5" y="797.6" fill="#C14C46" width="31.1" height="66.6"/><polygon fill="#DB5C4F" points="118.2,853.1 106.7,864.2 106.6,797.6 118.2,786.5 "/></g><g><polygon fill="#3878FF" points="168.2,776.3 137.1,776.3 148.7,765.2 179.8,765.2 "/><rect x="137.1" y="776.3" fill="#1F1F89" width="31.1" height="87.9"/><polygon fill="#3737AF" points="179.7,853.1 168.2,864.2 168.2,776.3 179.8,765.2 "/></g></g><g><g><linearGradient id="SVGID_19_" gradientUnits="userSpaceOnUse" x1="383.15" y1="59.7981" x2="383.15" y2="5.9929" gradientTransform="matrix(1 0 0 -1 0 1000)"><stop offset="0" style="stop-color:#4F5B7E"/><stop offset="7.132825e-02" style="stop-color:#66718F"/><stop offset="0.2311" style="stop-color:#949CB1"/><stop offset="0.3913" style="stop-color:#BBBFCD"/><stop offset="0.5492" style="stop-color:#D9DBE3"/><stop offset="0.7041" style="stop-color:#EEEFF2"/><stop offset="0.8549" style="stop-color:#FBFBFC"/><stop offset="0.9965" style="stop-color:#FFFFFF"/></linearGradient><polygon fill="url(#SVGID_19_)" points="418.4,1000 302.8,1000 347.9,944.7 463.5,944.7 "/></g><g><polygon fill="#89A3AF" points="366.6,755.5 336,716.8 370.4,657.9 374.4,694.9 356.8,716.9 376.4,751.6 "/><circle fill="#DDAC9D" cx="373.8" cy="756.7" r="9.6"/><path fill="#3878FF" d="M438.8,931c0.1,0,0.1,0,0.2,0l18.7,2.1c4.4,0.5,8.7,5.6,8.2,10l0,0c0,0.9-0.8,1.7-1.7,1.7h-35.8c-0.9,0-1.7-0.8-1.7-1.7l0.1-10.4c0-0.9,0.8-1.7,1.7-1.7L438.8,931L438.8,931z"/><path fill="#3878FF" d="M382.4,932.3V943c0,0.9-0.8,1.7-1.7,1.7h-35.1l0,0c0-4.8,3.7-12.5,8.4-12.9l18.9-1.4c0.1,0,0.1,0,0.2,0l7.7,0.2C381.7,930.7,382.4,931.4,382.4,932.3z"/><path fill="#385FC8" d="M450.6,776.4l-3,155.7c0,0.9-0.8,1.7-1.7,1.7h-17c-0.9,0-1.6-0.7-1.7-1.5l-15.8-135l-28.9,139.5c-0.1,0.8-0.9,1.4-1.7,1.4l-14.4-0.2c-1,0-1.7-0.8-1.7-1.8l10.9-156.5l-2.1-21.8l76.8,1L450.6,776.4z"/><path fill="#89A3AF" d="M370.4,761.1l2.5-59.1l-2.5-44.1l20.8-9.2h33.7l13.9,2l23.4-17.1l-24.4-31l7.5-6.7l36,29.5l2.2,11.1l-35,57.3l5.1,65.1c0,8.6-5.5,16-14.1,16.3l-52.4,2C377.9,777.5,370.4,770.2,370.4,761.1z"/><circle fill="#DDAC9D" cx="439.5" cy="596" r="9.6"/><circle fill="#DDAC9D" cx="413.6" cy="618" r="24.3"/><circle fill="#1F1F89" cx="410.7" cy="618" r="24.3"/></g></g></g></svg>