<?xml version="1.0" encoding="utf-8"?><!-- Generator: Adobe Illustrator 21.0.2, SVG Export Plug-In . SVG Version: 6.00 Build 0) --><svg version="1.1" id="Layer_1" xmlns="http://www.w3.org/2000/svg" xmlns:xlink="http://www.w3.org/1999/xlink" x="0px" y="0px" viewBox="0 0 1016.4 952.3" enable-background="new 0 0 1016.4 952.3" xml:space="preserve"><g><g><linearGradient id="SVGID_1_" gradientUnits="userSpaceOnUse" x1="519.6" y1="279.6968" x2="519.6" y2="188.178" gradientTransform="matrix(1 0 0 -1 0 952)"><stop offset="0" style="stop-color:#4F5B7E"/><stop offset="7.132825e-02" style="stop-color:#66718F"/><stop offset="0.2311" style="stop-color:#949CB1"/><stop offset="0.3913" style="stop-color:#BBBFCD"/><stop offset="0.5492" style="stop-color:#D9DBE3"/><stop offset="0.7041" style="stop-color:#EEEFF2"/><stop offset="0.8549" style="stop-color:#FBFBFC"/><stop offset="0.9965" style="stop-color:#FFFFFF"/></linearGradient><polygon fill="url(#SVGID_1_)" points="620.5,774 342,774 418.7,680 697.2,680 "/></g><g><linearGradient id="SVGID_2_" gradientUnits="userSpaceOnUse" x1="917.45" y1="104.3073" x2="917.45" y2="12.7885" gradientTransform="matrix(1 0 0 -1 0 952)"><stop offset="0" style="stop-color:#4F5B7E"/><stop offset="7.132825e-02" style="stop-color:#66718F"/><stop offset="0.2311" style="stop-color:#949CB1"/><stop offset="0.3913" style="stop-color:#BBBFCD"/><stop offset="0.5492" style="stop-color:#D9DBE3"/><stop offset="0.7041" style="stop-color:#EEEFF2"/><stop offset="0.8549" style="stop-color:#FBFBFC"/><stop offset="0.9965" style="stop-color:#FFFFFF"/></linearGradient><polygon fill="url(#SVGID_2_)" points="918,949.4 840.2,949.4 916.9,855.4 994.8,855.4 "/></g><g><linearGradient id="SVGID_3_" gradientUnits="userSpaceOnUse" x1="672.25" y1="272.5773" x2="672.25" y2="181.0585" gradientTransform="matrix(1 0 0 -1 0 952)"><stop offset="0" style="stop-color:#4F5B7E"/><stop offset="7.132825e-02" style="stop-color:#66718F"/><stop offset="0.2311" style="stop-color:#949CB1"/><stop offset="0.3913" style="stop-color:#BBBFCD"/><stop offset="0.5492" style="stop-color:#D9DBE3"/><stop offset="0.7041" style="stop-color:#EEEFF2"/><stop offset="0.8549" style="stop-color:#FBFBFC"/><stop offset="0.9965" style="stop-color:#FFFFFF"/></linearGradient><polygon fill="url(#SVGID_3_)" points="700.2,781.1 567.7,781.1 644.4,687.1 776.9,687.1 "/></g><g><linearGradient id="SVGID_4_" gradientUnits="userSpaceOnUse" x1="804.95" y1="390.5929" x2="804.95" y2="299.0742" gradientTransform="matrix(1 0 0 -1 0 952)"><stop offset="0" style="stop-color:#4F5B7E"/><stop offset="7.132825e-02" style="stop-color:#66718F"/><stop offset="0.2311" style="stop-color:#949CB1"/><stop offset="0.3913" style="stop-color:#BBBFCD"/><stop offset="0.5492" style="stop-color:#D9DBE3"/><stop offset="0.7041" style="stop-color:#EEEFF2"/><stop offset="0.8549" style="stop-color:#FBFBFC"/><stop offset="0.9965" style="stop-color:#FFFFFF"/></linearGradient><polygon fill="url(#SVGID_4_)" points="800.7,663.1 732.7,663.1 809.4,569.1 877.2,569.1 "/></g><g><linearGradient id="SVGID_5_" gradientUnits="userSpaceOnUse" x1="245.2" y1="290.0524" x2="245.2" y2="198.5336" gradientTransform="matrix(1 0 0 -1 0 952)"><stop offset="0" style="stop-color:#4F5B7E"/><stop offset="7.132825e-02" style="stop-color:#66718F"/><stop offset="0.2311" style="stop-color:#949CB1"/><stop offset="0.3913" style="stop-color:#BBBFCD"/><stop offset="0.5492" style="stop-color:#D9DBE3"/><stop offset="0.7041" style="stop-color:#EEEFF2"/><stop offset="0.8549" style="stop-color:#FBFBFC"/><stop offset="0.9965" style="stop-color:#FFFFFF"/></linearGradient><polygon fill="url(#SVGID_5_)" points="306.9,763.7 106.7,763.7 183.4,669.6 383.6,669.6 "/></g><g><linearGradient id="SVGID_6_" gradientUnits="userSpaceOnUse" x1="335.45" y1="198.7706" x2="335.45" y2="107.2518" gradientTransform="matrix(1 0 0 -1 0 952)"><stop offset="0" style="stop-color:#4F5B7E"/><stop offset="7.132825e-02" style="stop-color:#66718F"/><stop offset="0.2311" style="stop-color:#949CB1"/><stop offset="0.3913" style="stop-color:#BBBFCD"/><stop offset="0.5492" style="stop-color:#D9DBE3"/><stop offset="0.7041" style="stop-color:#EEEFF2"/><stop offset="0.8549" style="stop-color:#FBFBFC"/><stop offset="0.9965" style="stop-color:#FFFFFF"/></linearGradient><polygon fill="url(#SVGID_6_)" points="331,854.9 263.1,854.9 339.8,760.9 407.7,760.9 "/></g><g><linearGradient id="SVGID_7_" gradientUnits="userSpaceOnUse" x1="76.8" y1="111.3707" x2="76.8" y2="19.8518" gradientTransform="matrix(1 0 0 -1 0 952)"><stop offset="0" style="stop-color:#4F5B7E"/><stop offset="7.132825e-02" style="stop-color:#66718F"/><stop offset="0.2311" style="stop-color:#949CB1"/><stop offset="0.3913" style="stop-color:#BBBFCD"/><stop offset="0.5492" style="stop-color:#D9DBE3"/><stop offset="0.7041" style="stop-color:#EEEFF2"/><stop offset="0.8549" style="stop-color:#FBFBFC"/><stop offset="0.9965" style="stop-color:#FFFFFF"/></linearGradient><polygon fill="url(#SVGID_7_)" points="76.9,942.3 0,942.3 76.7,848.3 153.6,848.3 "/></g><g><linearGradient id="SVGID_8_" gradientUnits="userSpaceOnUse" x1="661.7" y1="173.5798" x2="661.7" y2="82.061" gradientTransform="matrix(1 0 0 -1 0 952)"><stop offset="0" style="stop-color:#4F5B7E"/><stop offset="7.132825e-02" style="stop-color:#66718F"/><stop offset="0.2311" style="stop-color:#949CB1"/><stop offset="0.3913" style="stop-color:#BBBFCD"/><stop offset="0.5492" style="stop-color:#D9DBE3"/><stop offset="0.7041" style="stop-color:#EEEFF2"/><stop offset="0.8549" style="stop-color:#FBFBFC"/><stop offset="0.9965" style="stop-color:#FFFFFF"/></linearGradient><polygon fill="url(#SVGID_8_)" points="685.2,880.1 561.5,880.1 638.2,786.1 761.9,786.1 "/></g><g><polygon fill="#F4F4F4" points="158.8,595.6 155.9,619.3 139.3,662.5 154.5,667.2 166.2,622.1 167.8,596.7 "/><linearGradient id="SVGID_9_" gradientUnits="userSpaceOnUse" x1="2548.2251" y1="218.9354" x2="2544.2969" y2="150.4726" gradientTransform="matrix(-1 0 0 -1 2686.2073 952)"><stop offset="3.252340e-03" style="stop-color:#241084"/><stop offset="0.9896" style="stop-color:#0A5DE2"/></linearGradient><path fill="url(#SVGID_9_)" d="M123.1,710l7.4,75.3l-4.6,64.7l27.9,1.4l0,0c0.9-3.2-1.2-6.4-4.4-7l-10-1.7l7.6-57.2l8.5-72.9L123.1,710z"/><path fill="#3878FF" d="M114.7,709.1l-9.2,68.6l-37.8,47c-0.8,1-1,2.4-0.5,3.6l9.6,21.7h4.6c3.9,0,5.5-4.9,2.4-7.3l0,0l-3.5-13.3l37.2-38.5c0.9-0.9,1.6-2,2-3.2l29.8-76.6L114.7,709.1z"/><polygon fill="#F76D59" points="167.8,596.7 167.3,572.8 162.5,572.2 158.8,595.6 "/><g><path fill="#F76D59" d="M121.2,629.7c-1.8,8.7-1.9,21.9,11.1,24c12.9,2.1,20.7-6.1,22.6-14.8c1.9-8.6-1.3-19.8-14.7-21.5C131.5,616.3,122.6,622.8,121.2,629.7z"/><path fill="#1F1F89" d="M130.5,653.1c-9.3-2.5-12.8-11.5-11.5-20.5c1.6-11.1,12.5-17,21.2-15.2c0.5,0.1,1,0.3,1.5,0.5c0.2,1.3,0.1,2.7-0.3,3.8c-1.5,4.3-5.3,7.8-9.6,9.1C131.8,630.9,129.1,650.3,130.5,653.1z"/><path fill="#F76D59" d="M129.4,632.4c-1.3-0.2-2.7,0.1-3.8,0.8c-3.8,2-2.4,7.7,0.9,9.5c1.1,0.6,2.3,0.9,3.5,1c1,0.1,2.2,0.1,3.1-0.5c0.9-0.5,1.4-1.5,1.6-2.5c0.2-1,0.1-2-0.1-3C134,635.3,131.8,632.8,129.4,632.4z"/><ellipse transform="matrix(0.9369 -0.3496 0.3496 0.9369 -209.3724 91.2328)" fill="#F7F5EF" cx="148" cy="625.6" rx="4.6" ry="6.1"/></g><circle fill="#8E574A" cx="165.2" cy="569.5" r="5.4"/><path fill="#F7F5EF" d="M185.2,605.7l-8.2,2.7c-3.3,9.6-8.9,18.4-16.2,25.5l-15.3,14.9l-18.9,12.7L114.4,707c-0.9,3.4,1.5,6.9,5,7.2l31,2.9c3.3,0.3,6.2-2.2,6.3-5.6l1.3-51.1l16.3-20.3c6.7-8.4,11.2-18.2,13.2-28.8L185.2,605.7z"/><path fill="#FFFFFF" d="M205.9,476.2h-61.1c-10.4,0-18.9,8.5-18.9,18.9v61.1c0,10.4,8.5,18.9,18.9,18.9h61.1c10.4,0,18.9-8.5,18.9-18.9v-61.1C224.8,484.6,216.4,476.2,205.9,476.2z"/><circle fill="#F76D59" cx="192.2" cy="573.2" r="5.4"/><polygon fill="#F76D59" points="176.1,611.3 186.9,615.1 195.6,575.6 189.4,574.2 "/><path fill="#F76D59" d="M199.3,513.2c0,13.8-25.1,50.6-25.1,50.6s-25.1-36.8-25.1-50.6s11.2-25.1,25.1-25.1C188.1,488.2,199.3,499.4,199.3,513.2z"/><circle fill="#F7F5EF" cx="174.3" cy="511.1" r="12"/></g><g><path fill="#DDDDDD" d="M656,118.2H441.6c-12.1,0-21.9,9.8-21.9,21.9v512.7c0,12.1,9.8,21.9,21.9,21.9H656c12.1,0,21.9-9.8,21.9-21.9V140.1C678,128,668.2,118.2,656,118.2z"/><path fill="#1F1F89" d="M656,118.2H441.6c-12.1,0-21.9,9.8-21.9,21.9v22.2H678v-22.2C678,128,668.2,118.2,656,118.2z"/><path fill="#1F1F89" d="M419.7,624.9v28c0,12.1,9.8,21.9,21.9,21.9H656c12.1,0,21.9-9.8,21.9-21.9v-28H419.7z"/><path fill="#F76D59" d="M637.5,177.5h-61.1c-10.4,0-18.9,8.5-18.9,18.9v61.1c0,10.4,8.5,18.9,18.9,18.9h61.1c10.4,0,18.9-8.5,18.9-18.9v-61.1C656.4,185.9,647.9,177.5,637.5,177.5z"/><path fill="#AFC6F5" d="M637.5,477.5h-61.1c-10.4,0-18.9,8.5-18.9,18.9v61.1c0,10.4,8.5,18.9,18.9,18.9h61.1c10.4,0,18.9-8.5,18.9-18.9v-61.1C656.4,485.9,647.9,477.5,637.5,477.5z"/><path fill="#F76D59" d="M520.7,477.5h-61.1c-10.4,0-18.9,8.5-18.9,18.9v61.1c0,10.4,8.5,18.9,18.9,18.9h61.1c10.4,0,18.9-8.5,18.9-18.9v-61.1C539.5,485.9,531,477.5,520.7,477.5z"/><line opacity="0.5" fill="none" stroke="#0A5DE2" stroke-width="5.1059" stroke-linecap="round" stroke-miterlimit="10" enable-background="new " x1="418.7" y1="677.3" x2="697" y2="677.3"/></g><g><g><g><rect x="758.2" y="482.7" transform="matrix(0.9865 -0.164 0.164 0.9865 -85.8312 132.4885)" fill="#1F1F89" width="2.6" height="206.8"/></g><g><rect x="695.9" y="482.7" transform="matrix(0.9865 -0.164 0.164 0.9865 -86.6784 122.2707)" fill="#1F1F89" width="2.6" height="206.8"/></g><g><rect x="687.5" y="526.1" fill="#1F1F89" width="62.8" height="2.6"/></g><g><rect x="691.9" y="553.4" fill="#1F1F89" width="62.8" height="2.6"/></g><g><rect x="696.4" y="580.6" fill="#1F1F89" width="62.8" height="2.6"/></g><g><rect x="700.8" y="607.8" fill="#1F1F89" width="62.8" height="2.6"/></g><g><rect x="705.2" y="635.1" fill="#1F1F89" width="62.8" height="2.6"/></g><g><rect x="709.7" y="662.3" fill="#1F1F89" width="62.8" height="2.6"/></g></g><g><g><rect x="558" y="584.8" transform="matrix(0.1641 -0.9864 0.9864 0.1641 -25.2121 1142.3522)" fill="#3878FF" width="206.8" height="2.6"/></g><g><rect x="620.3" y="584.8" transform="matrix(0.1642 -0.9864 0.9864 0.1642 26.7143 1203.7618)" fill="#3878FF" width="206.8" height="2.6"/></g><g><rect x="670.5" y="526.1" fill="#3878FF" width="62.8" height="2.6"/></g><g><rect x="666.2" y="553.4" fill="#3878FF" width="62.8" height="2.6"/></g><g><rect x="661.7" y="580.6" fill="#3878FF" width="62.8" height="2.6"/></g><g><rect x="657.2" y="607.8" fill="#3878FF" width="62.8" height="2.6"/></g><g><rect x="652.9" y="635.1" fill="#3878FF" width="62.8" height="2.6"/></g><g><rect x="648.4" y="662.3" fill="#3878FF" width="62.8" height="2.6"/></g></g><g><rect x="673.2" y="480.9" fill="#0A5DE2" width="76.6" height="7.7"/></g></g><g><polygon fill="#3878FF" points="867,444.4 859.7,562.6 851.5,562.6 844.9,457.7 837.5,458 832.8,565.5 826.5,565.4 816.8,446.5 815.4,431.9 867,432.5 "/><path fill="#FFCE4F" d="M831,445.9c-8,0.3-14.9-5.7-15.7-13.7l-6.1-62.8l-9.6-82.5l7.5-1.1l17.1,78.2l26.8,2.1l27.8-79.3l7.5,1.1l-20.4,84.6l0.9,57c0.1,8.2-6.3,15-14.5,15.4L831,445.9z"/><path fill="#F76D59" d="M826.2,341.1c-2,7.4,1.2,19.2,8.6,21.3c7.4,2,16.2-6.6,18.2-13.9c2-7.4-2.3-15-9.7-17C836,329.4,828.2,333.7,826.2,341.1z"/><path fill="#2B159B" d="M836.2,336.9c-1.5-0.4-3.6-1.5-4.4-2.9c-0.1-0.1-0.1-0.3-0.2-0.4c3.3-2.4,7.5-3.3,11.8-2.2c7.4,2,11.7,9.7,9.7,17c-1.4,5.3-6.3,11.1-11.7,13.3c0.1-1.5,0.5-3,0.8-4.4c1.5-5.8,3.2-11.6,5.1-17.4C843.5,339.3,839.8,338.2,836.2,336.9z"/><path fill="#F76D59" d="M844.8,348.2c1-0.7,2.4-1.1,3.5-0.6c0.3,0.1,0.5,0.3,0.7,0.5c0.6,0.6,0.7,1.4,0.6,2.2c-0.2,2.1-1.9,3.9-4,4.6c-0.6,0.2-1.2,0.3-1.8,0.2c-0.6-0.1-1.2-0.4-1.5-0.9C841,352.3,843.4,349.2,844.8,348.2z"/><path fill="#3878FF" d="M859.7,561l13.5,1.5c2.4,0.3,4.2,5.1,3.8,7.5l0,0h-26.3l0.8-9H859.7z"/><path fill="#3878FF" d="M832.8,562.1v7.4l-24.7,0.3v0.6c0-3.7,2.8-7.3,6.5-7.6l11.9-0.9L832.8,562.1z"/><path fill="#2B159B" d="M839.5,351.2c-4.5,0.5-8.1-4-12.6-4.6c-0.3,0-0.6-0.1-0.8,0.1c-0.3,0.2-0.5,0.5-0.7,0.8c-0.6,1.1-1.1,2.2-1.7,3.3c-0.6,1.1-1.2,2.3-1.4,3.5c-0.3,1.5-0.1,3,0.1,4.5c0.2,1.2,0.4,2.4,1,3.5c1,1.9,2.8,3.4,4.8,4.1s4.2,0.9,6.4,0.7c1.5-0.1,2.9-0.4,4.3-1.1c2.9-1.5,4.7-4.9,4.2-8.1c-0.1-0.8-0.4-1.6-0.3-2.4c0.1-0.8,0.5-1.5,0.9-2.2c0.4-0.8,3.4-4.7,1.1-4.7c-0.7,0-1.7,1.2-2.3,1.6C841.5,350.7,840.5,351.1,839.5,351.2z"/><g opacity="0.4"><polygon fill="#AFC6F5" points="869.2,314.2 880,314.2 886.4,288 878.9,286.9 "/><polygon fill="#AFC6F5" points="807,285.8 799.7,286.9 802.8,314.2 813.4,314.2 "/></g><path fill="#3878FF" d="M990.2,202.4H740.5c-12.3,0-22.2,9.9-22.2,22.2v37.2c0,12.3,9.9,22.2,22.2,22.2h249.7c12.3,0,22.2-9.9,22.2-22.2v-37.2C1012.5,212.4,1002.5,202.4,990.2,202.4z"/><path fill="#DDDDDD" d="M982.9,202.4H733.2c-12.3,0-22.2,9.9-22.2,22.2v37.2c0,12.3,9.9,22.2,22.2,22.2h249.7c12.3,0,22.2-9.9,22.2-22.2v-37.2C1005,212.4,995.2,202.4,982.9,202.4z"/><path d="M986.5,265.2l-12-12.5c3.1-3.7,4.8-8.3,4.8-13.1c0-11.2-9.1-20.3-20.3-20.3s-20.3,9.1-20.3,20.3s9.1,20.3,20.3,20.3c4.2,0,8.2-1.3,11.7-3.7l12.1,12.6c0.5,0.5,1.2,0.8,1.9,0.8s1.3-0.3,1.8-0.7C987.5,267.9,987.5,266.2,986.5,265.2L986.5,265.2z M959,224.6c8.3,0,15,6.7,15,15s-6.7,15-15,15s-15-6.7-15-15C943.9,231.3,950.7,224.6,959,224.6L959,224.6z"/><circle fill="#F76D59" cx="802.5" cy="282.6" r="6.4"/><circle fill="#F76D59" cx="880" cy="284.4" r="6.4"/></g><ellipse transform="matrix(0.934 -0.3573 0.3573 0.934 -71.8651 222.6068)" fill="#AFC6F5" cx="566.5" cy="305.8" rx="7" ry="7"/><path fill="#3878FF" d="M551.8,272.7l-60.2-10.6c-10.3-1.8-20.1,5.1-21.9,15.3l-10.6,60.2c-1.8,10.3,5.1,20.1,15.3,21.9l60.2,10.6c10.3,1.8,20.1-5.1,21.9-15.3l10.6-60.2C569,284.3,562.2,274.5,551.8,272.7z"/><g><path fill="#3878FF" d="M260.6,613.9h44.3c1,0,1.9-0.6,2.3-1.5c0.4-0.9,0.2-2-0.5-2.8l-42.5-46l-3.7,3.5l38.6,41.7h-38.4v5.1H260.6z"/></g><g><polygon fill="#D64536" points="571.5,304.1 590.5,311.5 645.8,316.7 627.2,329.7 588.5,320.4 568.7,311.3 "/><ellipse transform="matrix(0.934 -0.3573 0.3573 0.934 -66.4508 242.7417)" fill="#AFC6F5" cx="623.7" cy="301.2" rx="15.5" ry="15.5"/><linearGradient id="SVGID_10_" gradientUnits="userSpaceOnUse" x1="685.119" y1="556.9788" x2="673.9417" y2="488.195" gradientTransform="matrix(1 0 0 -1 0 952)"><stop offset="3.252340e-03" style="stop-color:#241084"/><stop offset="0.9896" style="stop-color:#0A5DE2"/></linearGradient><path fill="url(#SVGID_10_)" d="M696.2,359.8l-6.4,64.5L693,481h-24.5l0.1-1.3c0.2-2.9,2.4-5.3,5.2-5.7l9.6-1.3l-7.7-48.1l-7.2-62.4L696.2,359.8z"/><path fill="#F76D59" d="M562.7,310.8c8.1,3.3,35.3,10.5,44,9.8l18.2-1.5l18.8-5l41.4,20.3L663,365l-37.7-31.4l-22.3-1c-9.2-0.4-35.2-10.3-43.1-15L562.7,310.8z"/><path fill="#1F1F89" d="M640.5,291.8c-3.2-7.3-16.2-9.1-23.4-5.7c-0.4,0.2-0.8,0.5-1.2,0.7c0.1,1.2,0.5,2.4,1,3.3c2.2,3.5,6.2,5.8,10.3,6.1c0,0,0.3,0.8,0.8,2c0.5-0.5,1-1,1.6-1.2c1.1-0.4,2.4-0.4,3.5-0.1c3.7,1,3.7,6.3,1.1,8.5c-0.8,0.7-1.8,1.2-2.9,1.6c-0.1,0-0.3,0.1-0.4,0.1c-0.3,5,0,5.6,1.1,7.2C638,309.9,644.9,301.4,640.5,291.8z"/><path fill="#3878FF" d="M761.5,348.6l-34.8,18.7L684,334.5l-21.9,30l64.5,19.8l33.7-21.7l2,2.2c3.4,3.8,9.2,4.1,12.9,0.7l0.4-0.4L761.5,348.6z"/><ellipse transform="matrix(0.934 -0.3573 0.3573 0.934 -75.0123 220.1713)" fill="#AFC6F5" cx="558.4" cy="313.1" rx="7" ry="7"/></g><g><path fill="#3878FF" d="M258.3,132.5h50v502.1h-50V132.5z M303.1,137.6h-39.7v491.9h39.7V137.6z"/></g><rect x="251.5" y="607.7" fill="#F7F5EF" width="63.6" height="45.6"/><g><path fill="#3878FF" d="M260.6,425.2h44.3c1,0,1.9-0.6,2.3-1.5c0.4-0.9,0.2-2-0.5-2.8l-42.5-46l-3.7,3.5l38.6,41.7h-38.4v5.1H260.6z"/></g><g><path fill="#3878FF" d="M260.6,472.4h44.3c1,0,1.9-0.6,2.3-1.5c0.4-0.9,0.2-2-0.5-2.8l-42.5-46l-3.7,3.5l38.6,41.7h-38.4v5.1H260.6z"/></g><g><path fill="#3878FF" d="M260.6,519.5h44.3c1,0,1.9-0.6,2.3-1.5c0.4-0.9,0.2-2-0.5-2.8l-42.5-46l-3.7,3.5l38.6,41.7h-38.4v5.1H260.6z"/></g><g><path fill="#3878FF" d="M260.6,566.7h44.3c1,0,1.9-0.6,2.3-1.5c0.4-0.9,0.2-2-0.5-2.8l-42.5-46l-3.7,3.5l38.6,41.7h-38.4v5.1H260.6z"/></g><g><path fill="#3878FF" d="M260.6,379.2h44.3c1,0,1.9-0.6,2.3-1.5c0.4-0.9,0.2-2-0.5-2.8l-42.5-46l-3.7,3.5l38.6,41.7h-38.4v5.1H260.6z"/></g><g><path fill="#3878FF" d="M260.6,333h44.3c1,0,1.9-0.6,2.3-1.5c0.4-0.9,0.2-2-0.5-2.8l-42.5-46l-3.7,3.5l38.6,41.7h-38.4v5.1H260.6z"/></g><g><path fill="#3878FF" d="M260.6,287h44.3c1,0,1.9-0.6,2.3-1.5c0.4-0.9,0.2-2-0.5-2.8l-42.5-46l-3.7,3.5l38.6,41.7h-38.4v5.1H260.6z"/></g><g><path fill="#3878FF" d="M260.6,241h44.3c1,0,1.9-0.6,2.3-1.5c0.4-0.9,0.2-2-0.5-2.8l-42.5-46l-3.7,3.5l38.6,41.7h-38.4v5.1H260.6z"/></g><g><path fill="#3878FF" d="M260.6,194.9h44.3c1,0,1.9-0.6,2.3-1.5c0.4-0.9,0.2-2-0.5-2.8l-42.5-46l-3.7,3.5l38.6,41.7h-38.4v5.1H260.6z"/></g><g><path fill="#3878FF" d="M260.6,148.9h44.3c1,0,1.9-0.6,2.3-1.5c0.4-0.9,0.2-2-0.5-2.8l-42.5-46l-3.7,3.5l38.6,41.7h-38.4v5.1H260.6z"/></g><rect x="258.4" y="81.5" fill="#1F1F89" width="81" height="68.3"/><rect x="136.7" y="81.6" fill="#1F1F89" width="81" height="39.2"/><g><path fill="#3878FF" d="M138,86.5h400c1.4,0,2.6-1.1,2.6-2.6c0-1.4-1.1-2.6-2.6-2.6H138c-1.4,0-2.6,1.1-2.6,2.6C135.5,85.4,136.6,86.5,138,86.5z"/></g><g><rect x="517" y="95.9" fill="#3878FF" width="2.6" height="165.9"/></g><rect x="229.9" y="645.1" fill="#3878FF" width="107" height="20.1"/><g><path fill="#3878FF" d="M298.6,85.8c0.3,0,0.7-0.1,0.9-0.4l21.3-21.3h195.5l20,20c0.5,0.5,1.3,0.5,1.8,0s0.5-1.3,0-1.8l-20.8-20.8H319.8l-22.1,22.1c-0.5,0.5-0.5,1.3,0,1.8C297.9,85.7,298.2,85.8,298.6,85.8z"/></g><g><path fill="#3878FF" d="M136.3,85.8c0.5,0,0.9-0.2,1.1-0.7l21.3-40.8h51.8l20.1,39.5c0.3,0.6,1.1,0.9,1.7,0.6s0.9-1.1,0.6-1.7l-20.8-40.9h-54.8L135.2,84c-0.3,0.6-0.1,1.4,0.5,1.7C135.9,85.8,136.1,85.8,136.3,85.8z"/></g><circle fill="#F7F5EF" cx="518.2" cy="95.9" r="9.4"/><g><path fill="#3878FF" d="M462.8,64.1c0.5,0,1.1-0.4,1.2-0.9c0.2-0.7-0.2-1.4-0.8-1.6L274.2,4c-0.3-0.1-0.6-0.1-0.9,0l-89.6,37.8c-0.6,0.3-1,1-0.7,1.7s1,1,1.7,0.7l89.2-37.6l188.6,57.5C462.5,64.1,462.7,64.1,462.8,64.1z"/></g><g><path fill="#3878FF" d="M303.5,86c0.3,0,0.6-0.1,0.9-0.2c1.3-0.5,2-2,1.5-3.3L276.1,4.2c-0.4-1.1-1.5-1.7-2.6-1.6c-1.1,0.1-2.1,0.9-2.3,2L255.9,81c-0.3,1.4,0.6,2.7,2,3s2.7-0.6,3-2l13.6-67.7l26.6,70C301.5,85.4,302.5,86,303.5,86z"/></g><circle fill="#BCCCFD" cx="273.8" cy="5.1" r="5.1"/><g><path fill="#3878FF" d="M489.7,86.1c0.3,0,0.6-0.1,0.8-0.3l25.1-20.3v18.9c0,0.7,0.6,1.3,1.3,1.3c0.7,0,1.3-0.6,1.3-1.3V62.9c0-0.5-0.3-0.9-0.7-1.2c-0.4-0.2-1-0.2-1.4,0.2l-27.2,21.9c-0.5,0.4-0.6,1.2-0.2,1.8C489,85.9,489.3,86.1,489.7,86.1z"/></g><g><path fill="#3878FF" d="M465.5,86.1c0.3,0,0.6-0.1,0.8-0.3l25.1-20.3v18.9c0,0.7,0.6,1.3,1.3,1.3c0.7,0,1.3-0.6,1.3-1.3V62.9c0-0.5-0.3-0.9-0.7-1.2c-0.4-0.2-1-0.2-1.4,0.2l-27.1,21.9c-0.5,0.4-0.6,1.2-0.2,1.8C464.7,85.9,465.1,86.1,465.5,86.1z"/></g><g><path fill="#3878FF" d="M441.2,86.1c0.3,0,0.6-0.1,0.8-0.3l25.1-20.3v18.9c0,0.7,0.6,1.3,1.3,1.3c0.7,0,1.3-0.6,1.3-1.3V62.9c0-0.5-0.3-0.9-0.7-1.2c-0.4-0.2-1-0.2-1.4,0.2l-27.1,21.9c-0.5,0.4-0.6,1.2-0.2,1.8C440.5,85.9,440.8,86.1,441.2,86.1z"/></g><g><path fill="#3878FF" d="M417,86.1c0.3,0,0.6-0.1,0.8-0.3l25.1-20.3v18.9c0,0.7,0.6,1.3,1.3,1.3c0.7,0,1.3-0.6,1.3-1.3V62.9c0-0.5-0.3-0.9-0.7-1.2c-0.4-0.2-1-0.2-1.4,0.2l-27.1,21.9c-0.5,0.4-0.6,1.2-0.2,1.8C416.2,85.9,416.6,86.1,417,86.1z"/></g><g><path fill="#3878FF" d="M392.7,86.1c0.3,0,0.6-0.1,0.8-0.3l25.1-20.3v18.9c0,0.7,0.6,1.3,1.3,1.3c0.7,0,1.3-0.6,1.3-1.3V62.9c0-0.5-0.3-0.9-0.7-1.2c-0.4-0.2-1-0.2-1.4,0.2l-27.2,21.9c-0.5,0.4-0.6,1.2-0.2,1.8C392,85.9,392.4,86.1,392.7,86.1z"/></g><g><path fill="#3878FF" d="M368.5,86.1c0.3,0,0.6-0.1,0.8-0.3l25.1-20.3v18.9c0,0.7,0.6,1.3,1.3,1.3c0.7,0,1.3-0.6,1.3-1.3V62.9c0-0.5-0.3-0.9-0.7-1.2c-0.4-0.2-1-0.2-1.4,0.2l-27.1,21.9c-0.5,0.4-0.6,1.2-0.2,1.8C367.7,85.9,368.1,86.1,368.5,86.1z"/></g><g><path fill="#3878FF" d="M344.2,86.1c0.3,0,0.6-0.1,0.8-0.3l25.1-20.3v18.9c0,0.7,0.6,1.3,1.3,1.3c0.7,0,1.3-0.6,1.3-1.3V62.9c0-0.5-0.3-0.9-0.7-1.2c-0.4-0.2-1-0.2-1.4,0.2l-27.1,21.9c-0.5,0.4-0.6,1.2-0.2,1.8C343.5,85.9,343.9,86.1,344.2,86.1z"/></g><g><path fill="#3878FF" d="M320,86.1c0.3,0,0.6-0.1,0.8-0.3l25.1-20.3v18.9c0,0.7,0.6,1.3,1.3,1.3c0.7,0,1.3-0.6,1.3-1.3V62.9c0-0.5-0.3-0.9-0.7-1.2c-0.4-0.2-1-0.2-1.4,0.2l-27.1,21.9c-0.5,0.4-0.6,1.2-0.2,1.8C319.3,85.9,319.6,86.1,320,86.1z"/></g><g><path fill="#3878FF" d="M176.8,86.1c0.4,0,0.7-0.2,1-0.5l32.6-38.4v37.3c0,0.7,0.6,1.3,1.3,1.3c0.7,0,1.3-0.6,1.3-1.3V43.7c0-0.5-0.3-1-0.8-1.2s-1.1,0-1.4,0.4l-35,41.1c-0.5,0.5-0.4,1.3,0.1,1.8C176.1,86,176.4,86.1,176.8,86.1z"/></g><g><path fill="#3878FF" d="M151.8,86.1c0.4,0,0.8-0.2,1.1-0.6L177.5,48v36.5c0,0.7,0.6,1.3,1.3,1.3s1.3-0.6,1.3-1.3V43.7c0-0.6-0.4-1.1-0.9-1.2c-0.5-0.2-1.1,0-1.4,0.5l-27.2,41.1c-0.4,0.6-0.2,1.4,0.4,1.8C151.2,86,151.4,86.1,151.8,86.1z"/></g><circle fill="#1F1F89" cx="518.2" cy="265.2" r="8"/><line opacity="0.5" fill="none" stroke="#0A5DE2" stroke-width="5.1059" stroke-linecap="round" stroke-miterlimit="10" enable-background="new " x1="183.8" y1="667.1" x2="377.8" y2="667.1"/><g><path fill="#0A5DE2" d="M990,721.2l-40.1-1.9l-32.2,137.4L913,854c-4.4-2.7-10.2-0.9-12.4,3.8l-1,2.2l24.8,11.1l36.3-103c0.5-1.3,2.3-0.9,2.3,0.4l-0.5,39.3l27.9,36.9l1.8,13.3l0.4,3c0.2,1.5,1.5,2.5,3,2.3l0,0c1.3-0.2,4.9-1.8,4.9-3.1l-1.1-18.9l-21.3-37.1l14.3-54.6L990,721.2z"/><linearGradient id="SVGID_11_" gradientUnits="userSpaceOnUse" x1="955.9863" y1="207.5158" x2="933.0072" y2="150.0681" gradientTransform="matrix(1 0 0 -1 0 952)"><stop offset="0" style="stop-color:#241084;stop-opacity:0.8"/><stop offset="0.9896" style="stop-color:#0A5DE2;stop-opacity:0"/></linearGradient><path fill="url(#SVGID_11_)" d="M952.5,791l8.2-23.4l2.1,0.4l-13.1-48.6l-14,59.6C941.5,782.1,948.5,789,952.5,791z"/><path fill="#F76D59" d="M991.9,743.4l-3.3-33.8l4.5-29.5l8.1-46.3l-8.7-3.4l-8.3,38.5L958,671l-16.1-45.9l-10.1,4.3l11.5,47.9l7,31.7l-4.1,24.6c-0.5,3,1.4,5.9,4.4,6.6l35.8,8.2C989.4,749,992.2,746.5,991.9,743.4z"/><polygon fill="#1F1F89" points="955.4,642.6 952.8,665.5 968.4,666.8 977.9,642.6 "/><circle fill="#F7F5EF" cx="968.4" cy="651" r="15.7"/><path fill="#0A5DE2" d="M997.5,496.6h-61.1c-10.4,0-18.9,8.5-18.9,18.9v61.1c0,10.4,8.5,18.9,18.9,18.9h61.1c10.4,0,18.9-8.5,18.9-18.9v-61.1C1016.4,505,1007.9,496.6,997.5,496.6z"/><path fill="#1F1F89" d="M974,650c0.3,0.1,0.7,0.3,1,0.2s0.5-0.5,0.7-0.7c0.8-1.1,2.6-1.1,3.6-0.1c1,0.9,1,2.6,0.4,3.7c-0.7,1.2-1.9,1.9-3.3,2.1c-0.9,3.1-1.2,6.4-1.1,9.6c2.2,0.2,4.3,0.3,6.5,0.5c0.4,0,0.9,0,1.2-0.2s0.4-0.7,0.5-1c0.8-3.7,1.2-7.5,1.2-11.3c0-3.7-0.4-7.5-2.4-10.7c-2.3-3.8-11.7-10-16.2-6.5C961.2,639.3,970.7,648.3,974,650z"/><path fill="#1F1F89" d="M961,644.6c-2.7,2.6-6.1,4.6-9.8,4.8c-0.2-4.2,1.7-8.4,4.8-11.1c1.8-1.5,7.7-4.9,10.2-3.3C968.8,636.7,962.9,642.8,961,644.6z"/><polygon fill="#F7F5EF" points="992.5,630.8 1001.2,633.8 1008.2,593.3 1001,592.3 "/><polygon fill="#F7F5EF" points="941.9,625.4 931.8,629.4 923.2,594.4 930.7,593.3 "/><polygon fill="#F7F5EF" points="976,669.5 968.4,682.9 964.5,670.4 "/><circle fill="#F7F5EF" cx="926.2" cy="589.1" r="6.3"/><circle fill="#F7F5EF" cx="1005.4" cy="590.3" r="6.3"/><g><g><circle fill="#F7F5EF" cx="966.7" cy="529.2" r="12.9"/><path fill="#F7F5EF" d="M992,568.4c-0.2-13.5-11.2-24.4-24.8-24.4s-24.6,10.9-24.8,24.4H992z"/></g></g></g><g><polygon fill="#3878FF" points="397.4,636.2 395.4,753.6 381.9,753.6 375,643.5 367.7,643.8 363.3,756.5 351.6,756.4 347.4,638.3 346,623.7 397.2,624.4 "/><path fill="#0A5DE2" d="M407.6,371.5h-61.1c-10.4,0-18.9,8.5-18.9,18.9v61.1c0,10.4,8.5,18.9,18.9,18.9h61.1c10.4,0,18.9-8.5,18.9-18.9v-61.1C426.5,380,418.1,371.5,407.6,371.5z"/><path fill="#00A784" d="M343.9,619.7v-65.5l-9.6-81.9l7.4-1.1l17,77.6l26.6,2.1l27.7-78.7l7.4,1.1l-20.2,84v61c0,5.8-4.5,10.5-10.3,10.7l-35,1.3C348.9,630.7,343.9,625.8,343.9,619.7z"/><circle fill="#F76D59" cx="339.6" cy="468.1" r="6.4"/><circle fill="#F76D59" cx="414.1" cy="470.2" r="6.4"/><circle fill="#F76D59" cx="372.7" cy="525.7" r="16.2"/><circle fill="#1F1F89" cx="372.7" cy="528.2" r="16.2"/><path fill="#3878FF" d="M389.6,751.7l12.5,1.4c2.9,0.3,5.8,3.7,5.4,6.7v1.1h-26.2l0.1-9.2H389.6z"/><path fill="#3878FF" d="M363.4,751.5v9.4h-24.5l0,0c0-3.2,2.4-8.4,5.6-8.6l12.7-0.9L363.4,751.5z"/></g><g><g><linearGradient id="SVGID_12_" gradientUnits="userSpaceOnUse" x1="493.25" y1="158.4187" x2="493.25" y2="66.9001" gradientTransform="matrix(1 0 0 -1 0 952)"><stop offset="0" style="stop-color:#4F5B7E"/><stop offset="7.132825e-02" style="stop-color:#66718F"/><stop offset="0.2311" style="stop-color:#949CB1"/><stop offset="0.3913" style="stop-color:#BBBFCD"/><stop offset="0.5492" style="stop-color:#D9DBE3"/><stop offset="0.7041" style="stop-color:#EEEFF2"/><stop offset="0.8549" style="stop-color:#FBFBFC"/><stop offset="0.9965" style="stop-color:#FFFFFF"/></linearGradient><polygon fill="url(#SVGID_12_)" points="516.7,895.3 393.1,895.3 469.8,801.3 593.4,801.3 "/></g><g><path fill="#80392E" d="M593.4,780.8c0,0.2,0,0.4-0.1,0.6v0.1c0,0.2-0.1,0.3-0.2,0.5c0,0,0,0.1-0.1,0.1c-0.1,0.2-0.2,0.4-0.4,0.5l-0.1,0.1c-0.1,0.2-0.3,0.3-0.5,0.5c0,0,0,0-0.1,0.1c-0.2,0.2-0.4,0.3-0.7,0.5c-0.1,0-0.1,0.1-0.2,0.1c-0.2,0.1-0.4,0.3-0.7,0.4c-0.1,0-0.2,0.1-0.3,0.1c-0.2,0.1-0.5,0.2-0.8,0.4c-0.1,0-0.2,0.1-0.3,0.1c-0.4,0.2-0.8,0.3-1.3,0.5l-43.5,15.1c-0.4,0.1-0.9,0.2-1.3,0.4c-0.6,0.2-1.3,0.4-2,0.5c-0.8,0.2-1.7,0.3-2.6,0.5c-0.5,0.1-1.1,0.1-1.6,0.2c-0.7,0.1-1.4,0.2-2.1,0.2c-0.1,0-0.3,0-0.4,0c-1.1,0.1-2.2,0.1-3.4,0.1h-0.1c-1.2,0-2.4,0-3.5-0.1l0,0c-1.2-0.1-2.3-0.2-3.4-0.3h-0.1c-1.1-0.1-2.1-0.3-3.2-0.6h-0.1c-1-0.2-2-0.5-2.9-0.8L474.6,786c-0.2-0.1-0.5-0.2-0.7-0.3s-0.4-0.1-0.6-0.2c-0.2-0.1-0.4-0.2-0.6-0.3s-0.4-0.2-0.5-0.3c-0.2-0.1-0.3-0.2-0.4-0.3c-0.2-0.1-0.3-0.2-0.5-0.3c-0.1-0.1-0.2-0.2-0.4-0.3c-0.1-0.1-0.3-0.2-0.4-0.3s-0.2-0.2-0.3-0.3c-0.1-0.1-0.2-0.2-0.3-0.3c-0.1-0.1-0.2-0.2-0.3-0.4c-0.1-0.1-0.1-0.2-0.2-0.2c-0.1-0.1-0.1-0.2-0.1-0.3c-0.1-0.3-0.2-0.6-0.2-0.9l0.2,19.2c0,0.3,0.1,0.6,0.2,0.9c0,0.1,0.1,0.2,0.1,0.3s0.1,0.2,0.2,0.2c0.1,0.1,0.2,0.2,0.3,0.4c0.1,0.1,0.2,0.2,0.2,0.2c0.1,0.1,0.2,0.2,0.3,0.3c0.1,0.1,0.2,0.1,0.3,0.2c0.2,0.1,0.3,0.2,0.5,0.4c0.1,0.1,0.2,0.1,0.4,0.2c0.2,0.1,0.4,0.2,0.6,0.3c0.1,0.1,0.3,0.1,0.4,0.2c0.2,0.1,0.5,0.2,0.7,0.3s0.3,0.1,0.5,0.2c0.2,0.1,0.5,0.2,0.8,0.3l0,0l42.9,14.7c0.5,0.2,1,0.3,1.5,0.5c0.4,0.1,0.9,0.2,1.3,0.3h0.1h0.1c0.3,0.1,0.7,0.1,1,0.2c0.4,0.1,0.8,0.1,1.2,0.2c0.3,0.1,0.6,0.1,1,0.1h0.1h0.1c0.4,0,0.8,0.1,1.1,0.1c0.4,0,0.8,0.1,1.1,0.1c0.4,0,0.7,0.1,1.1,0.1l0,0l0,0c0.4,0,0.8,0,1.2,0.1c0.4,0,0.8,0,1.2,0c0.4,0,0.7,0,1.1,0c0,0,0,0,0.1,0h0.1c0.4,0,0.9,0,1.3,0c0.5,0,1,0,1.4-0.1c0.2,0,0.4,0,0.5,0c0.1,0,0.3,0,0.4,0c0.3,0,0.5,0,0.8-0.1c0.4,0,0.8-0.1,1.3-0.2c0.6-0.1,1.1-0.1,1.6-0.2c0.2,0,0.3,0,0.5-0.1c0.6-0.1,1.3-0.2,1.9-0.4c0.1,0,0.2,0,0.2-0.1c0.7-0.2,1.3-0.3,2-0.5c0.3-0.1,0.7-0.2,1-0.3c0.1,0,0.2-0.1,0.3-0.1l43.5-15.1c0.4-0.1,0.8-0.3,1.2-0.5c0,0,0,0,0.1,0s0.2-0.1,0.3-0.1c0.2-0.1,0.4-0.2,0.6-0.3c0,0,0.1,0,0.1-0.1c0.1,0,0.2-0.1,0.3-0.2c0.1-0.1,0.3-0.1,0.4-0.2c0.1-0.1,0.2-0.1,0.3-0.2c0.1,0,0.1-0.1,0.2-0.1l0.1-0.1c0.2-0.1,0.4-0.3,0.5-0.4l0,0c0,0,0,0,0.1-0.1s0.2-0.2,0.3-0.3s0.1-0.1,0.2-0.2l0.1-0.1l0.1-0.1c0.1-0.1,0.2-0.3,0.3-0.4l0,0c0,0,0-0.1,0.1-0.1c0-0.1,0.1-0.2,0.1-0.3s0-0.1,0.1-0.2V800v-0.1c0-0.2,0-0.3,0.1-0.5l0,0L593.4,780.8z"/><g><path fill="#F76D59" d="M588,776.3c7.3,2.5,7.2,6.6-0.2,9.2l-43.5,15.1c-7.4,2.6-19.4,2.6-26.7,0.1L474.6,786c-7.3-2.5-7.2-6.6,0.2-9.2l43.5-15.1c7.4-2.6,19.4-2.6,26.7-0.1L588,776.3z"/></g></g></g><g><path fill="#1F1F89" d="M762.2,764.4c0,0.2,0,0.4-0.1,0.6v0.1c0,0.2-0.1,0.3-0.2,0.5c0,0,0,0.1-0.1,0.1c-0.1,0.2-0.2,0.4-0.4,0.5l-0.1,0.1c-0.1,0.2-0.3,0.3-0.5,0.5c0,0,0,0-0.1,0.1c-0.2,0.2-0.4,0.3-0.7,0.5c-0.1,0-0.1,0.1-0.2,0.1c-0.2,0.1-0.4,0.3-0.7,0.4c-0.1,0-0.2,0.1-0.3,0.1c-0.2,0.1-0.5,0.2-0.8,0.4c-0.1,0-0.2,0.1-0.3,0.1c-0.4,0.2-0.8,0.3-1.3,0.5L713,784.1c-0.4,0.1-0.9,0.2-1.3,0.4c-0.6,0.2-1.3,0.4-2,0.5c-0.8,0.2-1.7,0.3-2.6,0.5c-0.5,0.1-1.1,0.1-1.6,0.2c-0.7,0.1-1.4,0.2-2.1,0.2c-0.1,0-0.3,0-0.4,0c-1.1,0.1-2.2,0.1-3.4,0.1h-0.1c-1.2,0-2.4,0-3.5-0.1l0,0c-1.2-0.1-2.3-0.2-3.4-0.3h-0.1c-1.1-0.1-2.1-0.3-3.2-0.6h-0.1c-1-0.2-2-0.5-2.9-0.8l-42.9-14.7c-0.2-0.1-0.5-0.2-0.7-0.3s-0.4-0.1-0.6-0.2c-0.2-0.1-0.4-0.2-0.6-0.3c-0.2-0.1-0.4-0.2-0.5-0.3c-0.2-0.1-0.3-0.2-0.4-0.3c-0.2-0.1-0.3-0.2-0.5-0.3c-0.1-0.1-0.2-0.2-0.4-0.3c-0.1-0.1-0.3-0.2-0.4-0.3c-0.1-0.1-0.2-0.2-0.3-0.3s-0.2-0.2-0.3-0.3s-0.2-0.2-0.3-0.4c-0.1-0.1-0.1-0.2-0.2-0.2c-0.1-0.1-0.1-0.2-0.1-0.3c-0.1-0.3-0.2-0.6-0.2-0.9l0.2,19.2c0,0.3,0.1,0.6,0.2,0.9c0,0.1,0.1,0.2,0.1,0.3s0.1,0.2,0.2,0.2c0.1,0.1,0.2,0.2,0.3,0.4c0.1,0.1,0.2,0.2,0.2,0.2c0.1,0.1,0.2,0.2,0.3,0.3s0.2,0.1,0.3,0.2c0.2,0.1,0.3,0.2,0.5,0.4c0.1,0.1,0.2,0.1,0.4,0.2c0.2,0.1,0.4,0.2,0.6,0.3c0.1,0.1,0.3,0.1,0.4,0.2c0.2,0.1,0.5,0.2,0.7,0.3s0.3,0.1,0.5,0.2c0.2,0.1,0.5,0.2,0.8,0.3l0,0l42.9,14.7c0.5,0.2,1,0.3,1.5,0.5c0.4,0.1,0.9,0.2,1.3,0.3h0.1h0.1c0.3,0.1,0.7,0.1,1,0.2c0.4,0.1,0.8,0.1,1.2,0.2c0.3,0.1,0.6,0.1,1,0.1h0.1h0.1c0.4,0,0.8,0.1,1.1,0.1c0.4,0,0.8,0.1,1.1,0.1c0.4,0,0.7,0.1,1.1,0.1l0,0l0,0c0.4,0,0.8,0,1.2,0.1c0.4,0,0.8,0,1.2,0s0.7,0,1.1,0c0,0,0,0,0.1,0h0.1c0.4,0,0.9,0,1.3,0c0.5,0,1,0,1.4-0.1c0.2,0,0.4,0,0.5,0s0.3,0,0.4,0c0.3,0,0.5,0,0.8-0.1c0.4,0,0.8-0.1,1.3-0.2c0.6-0.1,1.1-0.1,1.6-0.2c0.2,0,0.3,0,0.5-0.1c0.6-0.1,1.3-0.2,1.9-0.4c0.1,0,0.2,0,0.2-0.1c0.7-0.2,1.3-0.3,2-0.5c0.3-0.1,0.7-0.2,1-0.3c0.1,0,0.2-0.1,0.3-0.1l43.5-15.1c0.4-0.1,0.8-0.3,1.2-0.5c0,0,0,0,0.1,0s0.2-0.1,0.3-0.1c0.2-0.1,0.4-0.2,0.6-0.3c0,0,0.1,0,0.1-0.1c0.1,0,0.2-0.1,0.3-0.2c0.1-0.1,0.3-0.1,0.4-0.2c0.1-0.1,0.2-0.1,0.3-0.2c0.1,0,0.1-0.1,0.2-0.1l0.1-0.1c0.2-0.1,0.4-0.3,0.5-0.4l0,0c0,0,0,0,0.1-0.1s0.2-0.2,0.3-0.3s0.1-0.1,0.2-0.2l0.1-0.1l0.1-0.1c0.1-0.1,0.2-0.3,0.3-0.4l0,0c0,0,0-0.1,0.1-0.1c0-0.1,0.1-0.2,0.1-0.3s0-0.1,0.1-0.2v-0.1v-0.1c0-0.2,0-0.3,0.1-0.5l0,0L762.2,764.4z"/><g><path fill="#3878FF" d="M756.8,759.9c7.3,2.5,7.2,6.6-0.2,9.2l-43.6,15c-7.4,2.6-19.4,2.6-26.7,0.1l-42.9-14.7c-7.3-2.5-7.2-6.6,0.2-9.2l43.5-15.1c7.4-2.6,19.4-2.6,26.7-0.1L756.8,759.9z"/></g></g></g></svg>