<?xml version="1.0" encoding="utf-8"?><!-- Generator: Adobe Illustrator 21.0.2, SVG Export Plug-In . SVG Version: 6.00 Build 0) --><svg version="1.1" id="Layer_1" xmlns="http://www.w3.org/2000/svg" xmlns:xlink="http://www.w3.org/1999/xlink" x="0px" y="0px" viewBox="0 0 846.2 722.9" enable-background="new 0 0 846.2 722.9" xml:space="preserve"><g><g><g><g><linearGradient id="SVGID_1_" gradientUnits="userSpaceOnUse" x1="654.1453" y1="493.2" x2="591.4689" y2="365.0821" gradientTransform="matrix(1 0 0 -1 0 722)"><stop offset="0" style="stop-color:#4F5B7E"/><stop offset="7.132825e-02" style="stop-color:#66718F"/><stop offset="0.2311" style="stop-color:#949CB1"/><stop offset="0.3913" style="stop-color:#BBBFCD"/><stop offset="0.5492" style="stop-color:#D9DBE3"/><stop offset="0.7041" style="stop-color:#EEEFF2"/><stop offset="0.8549" style="stop-color:#FBFBFC"/><stop offset="0.9965" style="stop-color:#FFFFFF"/></linearGradient><polygon fill="url(#SVGID_1_)" points="684.6,414.9 432,266.1 564.3,194.9 805.6,336 "/></g><polygon fill="#6EC7EF" points="807.4,150.7 807.4,315.9 566.3,176.4 568.8,23.5 "/><path fill="#6C6C7A" d="M814.7,123.9L576.2,0.7c-1.6-0.9-3.4-0.8-4.8,0l0,0h-0.1l0,0L565.5,4l6.7,23.9l-2.5,154.2c0,5.7,3.1,11,8,13.9l229,132.5l2.7,7.2l7.6-4.5l0,0c2.6-1.5,4.4-4.2,4.4-7.6l1.5-185.3C823.1,132.4,819.9,126.9,814.7,123.9z"/><path fill="#41404F" d="M813.9,143.7v184.5c0,6.7-7.3,10.9-13.1,7.6L568.9,200.4c-5-2.9-8-8.2-8-13.9l2.2-178.2c0-3.7,4-6.1,7.3-4.2l235.2,125.2C810.7,132.2,813.9,137.7,813.9,143.7z"/><path fill="#DDDDDD" d="M807.4,143.8V324c0,3.2-3.5,5.2-6.3,3.6l-229-132.5c-3.7-2.1-6-6.1-6-10.3L568.8,17c0-3.2,3.5-5.2,6.3-3.6l226.5,120.1C805.2,135.7,807.4,139.6,807.4,143.8z"/><polygon fill="#1F1F89" points="628,76.7 628,71 576.9,41.4 576.9,47.1 "/><polygon fill="#1F1F89" points="628,87.6 628,81.9 576.9,52.3 576.9,58 "/><polygon fill="#1F1F89" points="628,98.5 628,92.8 576.9,63.3 576.9,69 "/><g><polygon fill="#1F1F89" points="656.7,87.8 656.7,93.5 707.7,123.1 707.7,117.4 "/><polygon fill="#1F1F89" points="656.7,104.5 707.7,134 707.7,128.3 656.7,98.8 "/><polygon fill="#1F1F89" points="656.7,115.4 707.7,144.9 707.7,139.2 656.7,109.7 "/><polygon fill="#1F1F89" points="656.7,142.8 707.7,172.3 707.7,166.6 656.7,137.1 "/><polygon fill="#1F1F89" points="656.7,153.7 707.7,183.3 707.7,177.6 656.7,148 "/><polygon fill="#1F1F89" points="656.7,164.6 707.7,194.2 707.7,188.5 656.7,158.9 "/><polygon fill="#1F1F89" points="656.7,192 707.7,221.6 707.7,215.9 656.7,186.3 "/><polygon fill="#1F1F89" points="656.7,202.9 707.7,232.5 707.7,226.8 656.7,197.2 "/><polygon fill="#1F1F89" points="656.7,213.9 707.7,243.4 707.7,237.7 656.7,208.2 "/></g><polygon fill="#1F1F89" points="628,109.5 628,103.8 576.9,74.2 576.9,79.9 "/><polygon fill="#0A5DE2" points="745.8,205.6 727.7,195.2 727.7,254.3 745.8,264.8 "/><polygon fill="#0A5DE2" points="769.7,187.4 751.6,176.9 751.6,268.1 769.7,278.6 "/><polygon fill="#0A5DE2" points="793.6,169.3 775.5,158.8 775.5,282 793.6,292.4 "/><path fill="#F76D59" d="M607.1,149.4v-33.1c-0.6-0.4-1.1-0.7-1.7-1.1c-15.7-9.1-28.4-1.8-28.5,16.2s12.6,40,28.3,49c15.7,9.1,28.4,1.8,28.5-16.2c0-0.3,0-0.5,0-0.8L607.1,149.4z"/><polygon opacity="0.4" fill="#FFFFFF" enable-background="new " points="568.8,9.8 807.4,315.9 807.4,137 "/></g><g><g><linearGradient id="SVGID_2_" gradientUnits="userSpaceOnUse" x1="498.4" y1="402.1427" x2="498.4" y2="351.7509" gradientTransform="matrix(1 0 0 -1 0 722)"><stop offset="0" style="stop-color:#4F5B7E"/><stop offset="7.132825e-02" style="stop-color:#66718F"/><stop offset="0.2311" style="stop-color:#949CB1"/><stop offset="0.3913" style="stop-color:#BBBFCD"/><stop offset="0.5492" style="stop-color:#D9DBE3"/><stop offset="0.7041" style="stop-color:#EEEFF2"/><stop offset="0.8549" style="stop-color:#FBFBFC"/><stop offset="0.9965" style="stop-color:#FFFFFF"/></linearGradient><polygon fill="url(#SVGID_2_)" points="485.9,375.9 455,359.5 514.9,324.1 541.8,339.7 "/></g><g><linearGradient id="SVGID_3_" gradientUnits="userSpaceOnUse" x1="432.5" y1="398.8679" x2="432.5" y2="355.2411" gradientTransform="matrix(1 0 0 -1 0 722)"><stop offset="0" style="stop-color:#4F5B7E"/><stop offset="7.132825e-02" style="stop-color:#66718F"/><stop offset="0.2311" style="stop-color:#949CB1"/><stop offset="0.3913" style="stop-color:#BBBFCD"/><stop offset="0.5492" style="stop-color:#D9DBE3"/><stop offset="0.7041" style="stop-color:#EEEFF2"/><stop offset="0.8549" style="stop-color:#FBFBFC"/><stop offset="0.9965" style="stop-color:#FFFFFF"/></linearGradient><polygon fill="url(#SVGID_3_)" points="415.6,371.6 393.5,362.2 453.4,326.8 471.5,335.5 "/></g><path fill="#0A5DE2" d="M453.3,167.9l4.7,153.5c0,0,7.4,6.7,19.5-0.8c0,0,2-75,4.5-112.7c0,0,1.9-2.5,3.3,2c0,0,21.2,74.9,25.8,110.2c0,0,7.5,4.4,18.7-2.2c0,0-8-66.5-9.3-74.9c-1.2-8.3-10.8-71.4-10.8-71.4S470.1,162.5,453.3,167.9z"/><linearGradient id="SVGID_4_" gradientUnits="userSpaceOnUse" x1="758.6911" y1="360.1062" x2="758.6911" y2="300.2284" gradientTransform="matrix(0.958 -0.2868 -0.2868 -0.958 -168.5192 741.6678)"><stop offset="0" style="stop-color:#241084;stop-opacity:0.8"/><stop offset="0.9896" style="stop-color:#0A5DE2;stop-opacity:0"/></linearGradient><path fill="url(#SVGID_4_)" d="M479.6,254.8l2.3-46.3c0-0.8,0.6-1.4,1.4-1.5l0,0l-30-40.4l2.5,81.6C462.9,249.6,474.6,253.9,479.6,254.8z"/><path fill="#F7CA82" d="M435.9,192.6c0.2-0.7,0.5-1.5,0.5-2.2c-0.1-0.8-0.7-0.3-1.1,0.2c-1.1,1.3-1.9,2.9-3.1,4.3c-0.3,0.4-1.2,0.9-1.3,0c-0.2-2.5,1.4-5.3,2.6-7.4c0.8-1.5,1.7-3,2.8-4.4c0.5-0.7,1.1-1.5,1.7-2.2c0.3-0.4,1.3-1.1,1.4-1.7c0.1-0.7,0,0,0.1-0.7l10.8,1.3c0.3,1.5,0.4,3,0.4,4.6c0.1,3.7-0.5,5.4-2.1,8.6c-0.9,1.9-0.8,3.8-0.8,5.9c0,2.2,1.4,3.6,0.5,5.6c-1,2.2-6.9,2.6-10.4-0.7c-1.8-1.7-2.3-4.4-2.4-6.7c0-1.2,0.1-2.5,0.3-3.7C435.7,193.2,435.8,192.9,435.9,192.6z"/><path fill="#0A5DE2" d="M528.9,312.6c0,0,0.7,8.8,4.6,11.9c9.4,7.6,13.6,14.9,5.2,17.4c-8.4,2.5-25.9-7-27.6-13.5l1.2-19.2L528.9,312.6z"/><path fill="#0A5DE2" d="M460.3,312.6c0,0-0.7,8.8-4.6,11.9c-9.4,7.6-13.6,14.9-5.2,17.4s25.9-7,27.6-13.5l-1.2-19.2L460.3,312.6z"/><path fill="#F76D59" d="M518.6,82.3c-7-2.5-21.6-5.6-21.6-5.6s-11.9-0.8-25.9,0.9c-7.7,0.9-13.6,3.3-17.4,5.2c-2.9,1.5-4.9,4.4-5.2,7.7c-1.4,14.1-4.3,57.3-10.5,90.5c0,0,2.6,3.8,11.6,2.3l4.8-14.9c22.6,10.4,42.2,7.2,50.9,4.9c2.8-0.8,4.9-3.2,5.2-6.1c1.1-10,4-33.8,5.9-39.5c0.7-2.1,1.7-6.5,2.7-11.7l1.4,2l13.7,16.1v0.1l-20.4,26.9l7.4,7.3l26.6-24.9c3.1-3.2,3.8-8,1.9-12.1c-7.5-15.9-21.6-38.2-26.1-45.2C522.3,84.4,520.6,83,518.6,82.3z"/><path fill="#F7B378" d="M496.5,59.6l-23.8-1.2v19.2c0.3,0.2,11.7,9.3,11.7,9.3l11.2-9.3L496.5,59.6z"/><path fill="#F7CA82" d="M514.1,160.9l-0.2,0.5c-0.1-0.3-0.2-0.5-0.2-0.5c-0.3-0.5-3.5,1.5-3.8,1.7c-1.7,1.2-2.5,1.9-2.2,4c0.3,2-0.1,4.1-1,6c-1.1,2.3,1.7,7.2,4.4,7.5c1.3,0.1,2.4-1.5,3-2.5c0.3-0.5,0.5-0.9,0.7-1.4c1.3-1.4,2.6-3.4,3.2-4.8c1.1-2.7,3.1-3.2,3.1-3.2L514.1,160.9z"/><path fill="#F7B378" d="M504.1,57.3l-4.4,1.2l-0.5,7.2C505,66,504.1,57.3,504.1,57.3z"/><path fill="#F7B378" d="M464.7,57.3l4.4,1.2l0.5,7.2C463.8,66,464.7,57.3,464.7,57.3z"/><path fill="#F7CA82" d="M501.3,52.7c0,13.1-7.7,23.7-17.1,23.7c-9.5,0-17.1-10.6-17.1-23.7S474.8,29,484.2,29C493.7,29,501.3,39.6,501.3,52.7z"/><path d="M483.4,44.5c0,0,15.8-6.6,16.4,13.3c0,0,1.4,1.5,5.2-1.2c0,0,6.4-34.7-21.5-31.5c0,0-23.9-2.2-20.4,32.1c0,0,1.3,2.3,6.2,0.5C469.4,57.7,470.3,42,483.4,44.5z"/><linearGradient id="SVGID_5_" gradientUnits="userSpaceOnUse" x1="458.1931" y1="591.05" x2="452.8651" y2="591.05" gradientTransform="matrix(1 0 0 -1 0 722)"><stop offset="8.653847e-03" style="stop-color:#000000"/><stop offset="0.9559" style="stop-color:#000000;stop-opacity:0"/></linearGradient><polygon opacity="0.3" fill="url(#SVGID_5_)" enable-background="new " points="454.3,168.3 458,108.6 455.1,87.6 452.6,83.4 449.1,87.8 441.7,156.9 445,172.3 450.6,178.5 "/></g><g><g><linearGradient id="SVGID_6_" gradientUnits="userSpaceOnUse" x1="556.2877" y1="201.6706" x2="520.4702" y2="128.4551" gradientTransform="matrix(1 0 0 -1 0 722)"><stop offset="0" style="stop-color:#4F5B7E"/><stop offset="7.132825e-02" style="stop-color:#66718F"/><stop offset="0.2311" style="stop-color:#949CB1"/><stop offset="0.3913" style="stop-color:#BBBFCD"/><stop offset="0.5492" style="stop-color:#D9DBE3"/><stop offset="0.7041" style="stop-color:#EEEFF2"/><stop offset="0.8549" style="stop-color:#FBFBFC"/><stop offset="0.9965" style="stop-color:#FFFFFF"/></linearGradient><polygon fill="url(#SVGID_6_)" points="533.4,607 457.5,563.1 542.5,519.3 614.5,560.5 "/></g><path fill="#41404F" d="M568.5,542.7c0,0,6.8,0.1,10-2c3.2-2.2,10.7,6.8,3.3,11.6s-15,9.5-19,8.9c-4-0.7-6.1-1.4-6.5-2.3c-0.3-0.9-0.5-16.8-0.5-16.8L568.5,542.7z"/><path fill="#41404F" d="M571.3,530.7v18.2c0,0-10.2,4.5-17,1.9l-2.5-12.1L571.3,530.7z"/><linearGradient id="SVGID_7_" gradientUnits="userSpaceOnUse" x1="551.8" y1="180.8456" x2="571.3347" y2="180.8456" gradientTransform="matrix(1 0 0 -1 0 722)"><stop offset="8.653847e-03" style="stop-color:#000000"/><stop offset="0.9559" style="stop-color:#000000;stop-opacity:0"/></linearGradient><path opacity="0.5" fill="url(#SVGID_7_)" enable-background="new " d="M571.3,530.7v18.2c0,0-10.2,4.5-17,1.9l-2.5-12.1L571.3,530.7z"/><path fill="#41404F" d="M597.6,553.2c0,0,6.8,0.1,9.9-2c3.2-2.2,10.7,6.8,3.3,11.6s-15,9.5-19,8.9c-4-0.7-6.1-1.4-6.5-2.3c-0.3-0.9-0.5-16.8-0.5-16.8L597.6,553.2z"/><path fill="#41404F" d="M554,498.6c0,0,25.9-5.3,39.8-6.5c5-0.5,9.4,3.4,9.7,8.4c0.6,12.5-1.9,37.3-3.7,56.1l-8.4,5.2c-3.8,2.4-8.8-0.2-9-4.7l-1.5-30.9c-0.1-2.6-3.3,0.6-5.3,2.3c-6.3,5.4-21.5,11.5-30.8,8.3c0,0-27.7-8.5-34.4-26.6L554,498.6z"/><path fill="#333333" d="M540.4,542.8l7.8-4l-4.5,68.9c-0.1,1.2-0.6,2.2-1.4,2.9c-1,0.9-2,1.3-2.9,1.5c-2,0.3-3.7-1.8-3.5-4.2L540.4,542.8z"/><path fill="#333333" d="M483.9,513.8l7.6-4l-5.1,63.4c-0.1,1.2-0.6,2.3-1.4,3s-1.6,1.1-2.3,1.3c-2.1,0.6-4.1-1.7-3.9-4.5L483.9,513.8z"/><path fill="#333333" d="M588.5,527.6l9.1,55.2c0.2,1.3-0.1,2.6-0.9,3.3c-0.6,0.5-1.2,0.8-1.7,1c-1.2,0.3-2.4-0.7-2.8-2.4l-11-54.6L588.5,527.6z"/><path fill="#F7CA82" d="M595.4,486c0,0,3.3-0.8,5.3-0.6c1.9,0.1,3.2,2.5,4.8,3.4s4.2,4,4.2,7.3c0,3.4-1.5,7.1-3.4,7c-1.8,0-2.3,0.4-2.8-1c-0.6-1.4-3.8-6.1-3.8-6.1L595.4,486z"/><path fill="#00A784" d="M593.6,484.7c-7.4,1-22.2,2-22.2,2s-2.6-27.7-5.7-36.4c-2.7-7.6-9.4-10.1-11.1-10.6l-14.8-7.8l-21.6-10.1l-6.6-2c-3.8-1.1-8.2,0.5-10.8,3.4c-3.4,3.8-6.1,10.1-6.4,20.3c0,0,5.9,49.2,11.4,67.2c0,0,32.4,17.4,43,7.5l8.9-7.5l-0.7-10.9l0,0c0.5,3.1,3.4,5.2,6.5,4.7c19.3-3.1,37.5-7.5,37.5-7.5c0-3.7-0.9-6.9-1.8-9.2C598.2,485.7,595.9,484.4,593.6,484.7z"/><g><path fill="#F7CA82" d="M525.5,380.5c5.2-0.8,8.1-1.8,13.1-0.4c8.4,2.5,12.8,10.4,14.9,18.4c2,8,2.6,19.7-1.9,27.2c-2.9,4.7-9.3,3.8-13.8,2.6c-5.5-1.5-12.7-3.8-17.3-7.3c-6.3-4.8-9.6-15.2-10-22.7C510,391.8,517.6,381.8,525.5,380.5z"/><path fill="#F7B378" d="M537.6,428.3c-5.5-1.5-12.7-3.8-17.3-7.3c-0.8-0.6-1.5-1.2-2.2-2l0,0v7.6c1.5,3,5.1,4.2,8.2,4.6c4.2,0.5,7.5,2.3,13.4,0.7l0.7-3C539.5,428.7,538.5,428.5,537.6,428.3z"/><path fill="#FFFFFF" d="M517.8,420.5l-1.3,4c-0.2,0.7-0.1,1.4,0.4,2c2.6,3,11.8,11.9,25.8,6.9l-2.4-3C540.3,430.4,524.7,430.8,517.8,420.5z"/><path d="M553.1,383.9c-10.4-12.3-39.7-10.6-42.7,14.4c-1.4,11.5,3.7,18,10,22.7c3.5,2.6,8.6,4.6,13.2,6.1c1.3-0.6,3.2-7.7,3.2-7.7c-2.6-1.5-4.7-10.3-1.9-11.9c2.8-1.5,4.7,3.9,4.7,3.9c1.6-0.6,4.1-2.5,2.7-5.7c-1.4-3.2,0-6.6,0-6.6c11.8-0.3,13.3,3.8,13.3,3.8C560.7,392.1,553.1,383.9,553.1,383.9z"/></g><linearGradient id="SVGID_8_" gradientUnits="userSpaceOnUse" x1="547.3281" y1="244.8518" x2="561.2238" y2="246.6643" gradientTransform="matrix(1 0 0 -1 0 722)"><stop offset="8.653847e-03" style="stop-color:#000000"/><stop offset="0.9559" style="stop-color:#000000;stop-opacity:0"/></linearGradient><path opacity="0.3" fill="url(#SVGID_8_)" enable-background="new " d="M556.8,500c0,0-6.9-32.7-7.3-36.6c0-17.7,12-17.7,12-17.7l4.8,41.2l-3,17.8l-3.3-0.4l-2.2-1.7L556.8,500z"/></g><path fill="#333333" d="M324.9,417.3l7.6-4l-5.1,63.4c-0.1,1.2-0.6,2.3-1.4,3s-1.6,1.1-2.3,1.3c-2.1,0.6-4.1-1.7-3.9-4.5L324.9,417.3z"/><g><g><linearGradient id="SVGID_9_" gradientUnits="userSpaceOnUse" x1="392.0245" y1="294.8803" x2="356.7424" y2="222.7595" gradientTransform="matrix(1 0 0 -1 0 722)"><stop offset="0" style="stop-color:#4F5B7E"/><stop offset="7.132825e-02" style="stop-color:#66718F"/><stop offset="0.2311" style="stop-color:#949CB1"/><stop offset="0.3913" style="stop-color:#BBBFCD"/><stop offset="0.5492" style="stop-color:#D9DBE3"/><stop offset="0.7041" style="stop-color:#EEEFF2"/><stop offset="0.8549" style="stop-color:#FBFBFC"/><stop offset="0.9965" style="stop-color:#FFFFFF"/></linearGradient><polygon fill="url(#SVGID_9_)" points="371.2,513.3 291.8,469.1 376.8,425.3 452.3,466.8 "/></g><path fill="#41404F" d="M409.5,446.3c0,0,6.8,0.1,10-2c3.2-2.2,10.7,6.8,3.3,11.6c-7.4,4.8-15,9.5-19,8.9c-4-0.7-6.1-1.4-6.5-2.3c-0.3-0.9-0.5-16.8-0.5-16.8L409.5,446.3z"/><path fill="#1F1F89" d="M412.3,434.3v18.2c0,0-10.2,4.5-17,1.9l-2.5-12.1L412.3,434.3z"/><linearGradient id="SVGID_10_" gradientUnits="userSpaceOnUse" x1="392.7583" y1="277.2456" x2="412.293" y2="277.2456" gradientTransform="matrix(1 0 0 -1 0 722)"><stop offset="8.653847e-03" style="stop-color:#000000"/><stop offset="0.9559" style="stop-color:#000000;stop-opacity:0"/></linearGradient><path opacity="0.5" fill="url(#SVGID_10_)" enable-background="new " d="M412.3,434.3v18.2c0,0-10.2,4.5-17,1.9l-2.5-12.1L412.3,434.3z"/><path fill="#41404F" d="M438.6,456.7c0,0,6.8,0.1,9.9-2c3.2-2.2,10.7,6.8,3.3,11.6c-7.4,4.8-15,9.5-19,8.9c-4-0.7-6.1-1.4-6.5-2.3c-0.3-0.9-0.5-16.8-0.5-16.8L438.6,456.7z"/><path fill="#1F1F89" d="M396,401.3c0,0,25.9-5.3,39.8-6.5c5-0.5,9.4,3.4,9.7,8.4c0.6,12.5-1.9,37.3-3.7,56.1l-8.4,5.2c-3.8,2.4-8.8-0.2-9-4.7l-1.5-30.9c-0.1-2.6-3.3,0.6-5.3,2.3c-6.3,5.4-21.5,11.5-30.8,8.3c0,0-27.7-8.5-34.4-26.6L396,401.3z"/><path fill="#333333" d="M381.4,446.3l7.8-4l-4.5,68.9c-0.1,1.2-0.6,2.2-1.4,2.9c-1,0.9-2,1.3-2.9,1.5c-2,0.3-3.7-1.8-3.5-4.2L381.4,446.3z"/><path fill="#333333" d="M429.4,431.2l9.1,55.2c0.2,1.3-0.1,2.6-0.9,3.3c-0.6,0.5-1.2,0.8-1.7,1c-1.2,0.3-2.4-0.7-2.8-2.4l-11-54.6L429.4,431.2z"/><path fill="#F7CA82" d="M436.3,389.6c0,0,3.3-0.8,5.3-0.6c1.9,0.1,3.2,2.5,4.8,3.4c1.6,0.9,4.2,4,4.2,7.3c0,3.4-1.5,7.1-3.4,7c-1.8,0-2.3,0.4-2.8-1c-0.6-1.4-3.8-6.1-3.8-6.1L436.3,389.6z"/><path fill="#F7F5EF" d="M434.5,388.2c-7.4,1-22.2,2-22.2,2s-2.6-27.7-5.7-36.4c-2.7-7.6-9.4-10.1-11.1-10.6l-14.8-7.8l-21.6-10.1l-6.6-2c-3.8-1.1-8.2,0.5-10.8,3.4c-3.4,3.8-6.1,10.1-6.4,20.3c0,0,5.9,49.2,11.4,67.2c0,0,32.4,17.4,43,7.5l8.9-7.5l-0.7-10.9l0,0c0.5,3.1,3.4,5.2,6.5,4.7c19.3-3.1,37.5-7.5,37.5-7.5c0-3.7-0.9-6.9-1.8-9.2C439.1,389.3,436.9,387.9,434.5,388.2z"/><g><path fill="#F7CA82" d="M366.4,284c5.2-0.8,8.1-1.8,13.1-0.4c8.4,2.5,12.8,10.4,14.9,18.4c2,8,2.6,19.7-1.9,27.2c-2.9,4.7-9.3,3.8-13.8,2.6c-5.5-1.5-12.7-3.8-17.3-7.3c-6.3-4.8-9.6-15.2-10-22.7C351,295.3,358.6,285.3,366.4,284z"/><path fill="#F7B378" d="M378.6,331.8c-5.5-1.5-12.7-3.8-17.3-7.3c-0.8-0.6-1.5-1.2-2.2-2l0,0v7.6c1.5,3,5.1,4.2,8.2,4.6c4.2,0.5,7.5,2.3,13.4,0.7l0.7-3C380.4,332.3,379.5,332.1,378.6,331.8z"/><path fill="#0A5DE2" d="M358.7,324.1l-1.3,4c-0.2,0.7-0.1,1.4,0.4,2c2.6,3,11.8,11.9,25.8,6.9l-2.4-3C381.2,334,365.7,334.4,358.7,324.1z"/><path fill="#8E4D50" d="M394,287.4c-10.4-12.3-39.7-10.6-42.7,14.4c-1.4,11.5,3.7,18,10,22.7c3.5,2.6,8.6,4.6,13.2,6.1c1.3-0.6,3.2-7.7,3.2-7.7c-2.6-1.5-4.7-10.3-1.9-11.9c2.8-1.5,4.7,3.9,4.7,3.9c1.6-0.6,4.1-2.5,2.7-5.7s0-6.6,0-6.6c11.8-0.3,13.3,3.8,13.3,3.8C401.7,295.6,394,287.4,394,287.4z"/></g><linearGradient id="SVGID_11_" gradientUnits="userSpaceOnUse" x1="388.282" y1="341.3458" x2="402.1776" y2="343.1583" gradientTransform="matrix(1 0 0 -1 0 722)"><stop offset="8.653847e-03" style="stop-color:#000000"/><stop offset="0.9559" style="stop-color:#000000;stop-opacity:0"/></linearGradient><path opacity="0.3" fill="url(#SVGID_11_)" enable-background="new " d="M397.8,403.5c0,0-6.9-32.7-7.3-36.6c0-17.7,12-17.7,12-17.7l4.8,41.2l-3,17.8l-3.3-0.4l-2.2-1.7L397.8,403.5z"/></g><g><g><linearGradient id="SVGID_12_" gradientUnits="userSpaceOnUse" x1="247.1073" y1="381.4975" x2="211.7782" y2="309.2805" gradientTransform="matrix(1 0 0 -1 0 722)"><stop offset="0" style="stop-color:#4F5B7E"/><stop offset="7.132825e-02" style="stop-color:#66718F"/><stop offset="0.2311" style="stop-color:#949CB1"/><stop offset="0.3913" style="stop-color:#BBBFCD"/><stop offset="0.5492" style="stop-color:#D9DBE3"/><stop offset="0.7041" style="stop-color:#EEEFF2"/><stop offset="0.8549" style="stop-color:#FBFBFC"/><stop offset="0.9965" style="stop-color:#FFFFFF"/></linearGradient><polygon fill="url(#SVGID_12_)" points="225.2,426.3 147.9,383 232.9,339.2 306.3,379.8 "/></g><path fill="#41404F" d="M261.2,360.1c0,0,6.8,0.1,10-2c3.2-2.2,10.7,6.8,3.3,11.6c-7.4,4.8-15,9.5-19,8.9c-4-0.7-6.1-1.4-6.5-2.3c-0.3-0.9-0.5-16.8-0.5-16.8L261.2,360.1z"/><path fill="#41404F" d="M264,348.1v18.2c0,0-10.2,4.5-17,1.9l-2.5-12.1L264,348.1z"/><linearGradient id="SVGID_13_" gradientUnits="userSpaceOnUse" x1="244.4439" y1="363.4456" x2="263.9787" y2="363.4456" gradientTransform="matrix(1 0 0 -1 0 722)"><stop offset="8.653847e-03" style="stop-color:#000000"/><stop offset="0.9559" style="stop-color:#000000;stop-opacity:0"/></linearGradient><path opacity="0.5" fill="url(#SVGID_13_)" enable-background="new " d="M264,348.1v18.2c0,0-10.2,4.5-17,1.9l-2.5-12.1L264,348.1z"/><path fill="#41404F" d="M290.3,370.6c0,0,6.8,0.1,9.9-2c3.2-2.2,10.7,6.8,3.3,11.6c-7.4,4.8-15,9.5-19,8.9c-4-0.7-6.1-1.4-6.5-2.3c-0.3-0.9-0.5-16.8-0.5-16.8L290.3,370.6z"/><path fill="#41404F" d="M246.6,316c0,0,25.9-5.3,39.8-6.5c5-0.5,9.4,3.4,9.7,8.4c0.6,12.5-1.9,37.3-3.7,56.1l-8.4,5.2c-3.8,2.4-8.8-0.2-9-4.7l-1.5-30.9c-0.1-2.6-3.3,0.6-5.3,2.3c-6.3,5.4-21.5,11.5-30.8,8.3c0,0-27.7-8.5-34.4-26.6L246.6,316z"/><path fill="#333333" d="M233,360.2l7.8-4l-4.5,68.9c-0.1,1.2-0.6,2.2-1.4,2.9c-1,0.9-2,1.3-2.9,1.5c-2,0.3-3.7-1.8-3.5-4.2L233,360.2z"/><path fill="#333333" d="M176.6,331.2l7.6-4l-5.1,63.4c-0.1,1.2-0.6,2.3-1.4,3c-0.8,0.7-1.6,1.1-2.3,1.3c-2.1,0.6-4.1-1.7-3.9-4.5L176.6,331.2z"/><path fill="#333333" d="M281.1,345.1l9.1,55.2c0.2,1.3-0.1,2.6-0.9,3.3c-0.6,0.5-1.2,0.8-1.7,1c-1.2,0.3-2.4-0.7-2.8-2.4l-11-54.6L281.1,345.1z"/><path fill="#F7CA82" d="M288,303.4c0,0,3.3-0.8,5.3-0.6c1.9,0.1,3.2,2.5,4.8,3.4c1.6,0.9,4.2,4,4.2,7.3c0,3.4-1.5,7.1-3.4,7c-1.8,0-2.3,0.4-2.8-1c-0.6-1.4-3.8-6.1-3.8-6.1L288,303.4z"/><path fill="#FFCE4F" d="M286.2,302.1c-7.4,1-22.2,2-22.2,2s-2.6-27.7-5.7-36.4c-2.7-7.6-9.4-10.1-11.1-10.6l-14.8-7.8l-21.6-10.1l-6.6-2c-3.8-1.1-8.2,0.5-10.8,3.4c-3.4,3.8-6.1,10.1-6.4,20.3c0,0,5.9,49.2,11.4,67.2c0,0,32.4,17.4,43,7.5l8.9-7.5l-0.7-10.9l0,0c0.5,3.1,3.4,5.2,6.5,4.7c19.3-3.1,37.5-7.5,37.5-7.5c0-3.7-0.9-6.9-1.8-9.2C290.8,303.1,288.6,301.8,286.2,302.1z"/><g><path fill="#F7CA82" d="M218.1,197.9c5.2-0.8,8.1-1.8,13.1-0.4c8.4,2.5,12.8,10.4,14.9,18.4c2,8,2.6,19.7-1.9,27.2c-2.9,4.7-9.3,3.8-13.8,2.6c-5.5-1.5-12.7-3.8-17.3-7.3c-6.3-4.8-9.6-15.2-10-22.7C202.6,209.2,210.3,199.2,218.1,197.9z"/><path fill="#F7B378" d="M230.3,245.7c-5.5-1.5-12.7-3.8-17.3-7.3c-0.8-0.6-1.5-1.2-2.2-2l0,0v7.6c1.5,3,5.1,4.2,8.2,4.6c4.2,0.5,7.5,2.3,13.4,0.7l0.7-3C232.1,246.2,231.2,245.9,230.3,245.7z"/><path fill="#0A5DE2" d="M210.4,237.9l-1.3,4c-0.2,0.7-0.1,1.4,0.4,2c2.6,3,11.8,11.9,25.8,6.9l-2.4-3C232.9,247.8,217.3,248.2,210.4,237.9z"/></g><linearGradient id="SVGID_14_" gradientUnits="userSpaceOnUse" x1="239.9705" y1="427.4443" x2="253.8662" y2="429.2568" gradientTransform="matrix(1 0 0 -1 0 722)"><stop offset="8.653847e-03" style="stop-color:#000000"/><stop offset="0.9559" style="stop-color:#000000;stop-opacity:0"/></linearGradient><path opacity="0.3" fill="url(#SVGID_14_)" enable-background="new " d="M249.5,317.4c0,0-6.9-32.7-7.3-36.6c0-17.7,12-17.7,12-17.7l4.8,41.2l-3,17.8l-3.3-0.4l-2.2-1.7L249.5,317.4z"/></g><g><g><linearGradient id="SVGID_15_" gradientUnits="userSpaceOnUse" x1="404.5956" y1="108.1034" x2="370.086" y2="37.5618" gradientTransform="matrix(1 0 0 -1 0 722)"><stop offset="0" style="stop-color:#4F5B7E"/><stop offset="7.132825e-02" style="stop-color:#66718F"/><stop offset="0.2311" style="stop-color:#949CB1"/><stop offset="0.3913" style="stop-color:#BBBFCD"/><stop offset="0.5492" style="stop-color:#D9DBE3"/><stop offset="0.7041" style="stop-color:#EEEFF2"/><stop offset="0.8549" style="stop-color:#FBFBFC"/><stop offset="0.9965" style="stop-color:#FFFFFF"/></linearGradient><polygon fill="url(#SVGID_15_)" points="384.6,698.4 304.4,655.8 389.4,612 465.7,651.9 "/></g><path fill="#41404F" d="M423.9,630.7c0,0,6.8,0.1,10-2c3.2-2.2,10.7,6.8,3.3,11.6c-7.4,4.8-15,9.5-19,8.9c-4-0.7-6.1-1.4-6.5-2.3c-0.3-0.9-0.5-16.8-0.5-16.8L423.9,630.7z"/><path fill="#41404F" d="M426.7,618.8V637c0,0-10.2,4.5-17,1.9l-2.5-12.1L426.7,618.8z"/><linearGradient id="SVGID_16_" gradientUnits="userSpaceOnUse" x1="407.1363" y1="92.7456" x2="426.671" y2="92.7456" gradientTransform="matrix(1 0 0 -1 0 722)"><stop offset="8.653847e-03" style="stop-color:#000000"/><stop offset="0.9559" style="stop-color:#000000;stop-opacity:0"/></linearGradient><path opacity="0.5" fill="url(#SVGID_16_)" enable-background="new " d="M426.7,618.8V637c0,0-10.2,4.5-17,1.9l-2.5-12.1L426.7,618.8z"/><path fill="#41404F" d="M452.9,641.2c0,0,6.8,0.1,9.9-2c3.2-2.2,10.7,6.8,3.3,11.6c-7.4,4.8-15,9.5-19,8.9c-4-0.7-6.1-1.4-6.5-2.3c-0.3-0.9-0.5-16.8-0.5-16.8L452.9,641.2z"/><path fill="#41404F" d="M409.3,586.6c0,0,25.9-5.3,39.8-6.5c5-0.5,9.4,3.4,9.7,8.4c0.6,12.5-1.9,37.3-3.7,56.1l-8.4,5.2c-3.8,2.4-8.8-0.2-9-4.7l-1.5-30.9c-0.1-2.6-3.3,0.6-5.3,2.3c-6.3,5.4-21.5,11.5-30.8,8.3c0,0-27.7-8.5-34.4-26.6L409.3,586.6z"/><path fill="#333333" d="M395.7,630.8l7.8-4l-4.5,68.9c-0.1,1.2-0.6,2.2-1.4,2.9c-1,0.9-2,1.3-2.9,1.5c-2,0.3-3.7-1.8-3.5-4.2L395.7,630.8z"/><path fill="#333333" d="M339.3,601.8l7.6-4l-5.1,63.4c-0.1,1.2-0.6,2.3-1.4,3s-1.6,1.1-2.3,1.3c-2.1,0.6-4.1-1.7-3.9-4.5L339.3,601.8z"/><path fill="#333333" d="M443.8,615.7l9.1,55.2c0.2,1.3-0.1,2.6-0.9,3.3c-0.6,0.5-1.2,0.8-1.7,1c-1.2,0.3-2.4-0.7-2.8-2.4l-11-54.6L443.8,615.7z"/><path fill="#F7CA82" d="M450.7,574c0,0,3.3-0.8,5.3-0.6c1.9,0.1,3.2,2.5,4.8,3.4c1.6,0.9,4.2,4,4.2,7.3c0,3.4-1.5,7.1-3.4,7c-1.8,0-2.3,0.4-2.8-1c-0.6-1.4-3.8-6.1-3.8-6.1L450.7,574z"/><path fill="#4F539F" d="M448.9,572.7c-7.4,1-22.2,2-22.2,2s-2.6-27.7-5.7-36.4c-2.7-7.6-9.4-10.1-11.1-10.6l-14.8-7.8l-21.6-10.1l-6.6-2c-3.8-1.1-8.2,0.5-10.8,3.4c-3.4,3.8-6.1,10.1-6.4,20.3c0,0,5.9,49.2,11.4,67.2c0,0,32.4,17.4,43,7.5l8.9-7.5l-0.7-10.9l0,0c0.5,3.1,3.4,5.2,6.5,4.7c19.3-3.1,37.5-7.5,37.5-7.5c0-3.7-0.9-6.9-1.8-9.2C453.5,573.8,451.3,572.4,448.9,572.7z"/><g><path fill="#F7CA82" d="M380.8,468.5c5.2-0.8,8.1-1.8,13.1-0.4c8.4,2.5,12.8,10.4,14.9,18.4c2,8,2.6,19.7-1.9,27.2c-2.9,4.7-9.3,3.8-13.8,2.6c-5.5-1.5-12.7-3.8-17.3-7.3c-6.3-4.8-9.6-15.2-10-22.7C365.3,479.8,372.9,469.8,380.8,468.5z"/><path fill="#F7B378" d="M393,516.3c-5.5-1.5-12.7-3.8-17.3-7.3c-0.8-0.6-1.5-1.2-2.2-2l0,0v7.6c1.5,3,5.1,4.2,8.2,4.6c4.2,0.5,7.5,2.3,13.4,0.7l0.7-3C394.8,516.8,393.9,516.6,393,516.3z"/><path fill="#FFFFFF" d="M373.1,508.5l-1.3,4c-0.2,0.7-0.1,1.4,0.4,2c2.6,3,11.8,11.9,25.8,6.9l-2.4-3C395.6,518.4,380,518.8,373.1,508.5z"/></g><linearGradient id="SVGID_17_" gradientUnits="userSpaceOnUse" x1="402.6623" y1="156.8432" x2="416.558" y2="158.6557" gradientTransform="matrix(1 0 0 -1 0 722)"><stop offset="8.653847e-03" style="stop-color:#000000"/><stop offset="0.9559" style="stop-color:#000000;stop-opacity:0"/></linearGradient><path opacity="0.3" fill="url(#SVGID_17_)" enable-background="new " d="M412.2,588c0,0-6.9-32.7-7.3-36.6c0-17.7,12-17.7,12-17.7l4.8,41.2l-3,17.8l-3.3-0.4l-2.2-1.7L412.2,588z"/></g><path fill="#333333" d="M195.4,496.9l7.6-4l-5.1,63.4c-0.1,1.2-0.6,2.3-1.4,3c-0.8,0.7-1.6,1.1-2.3,1.3c-2.1,0.6-4.1-1.7-3.9-4.5L195.4,496.9z"/><g><g><linearGradient id="SVGID_18_" gradientUnits="userSpaceOnUse" x1="250.1795" y1="199.7381" x2="214.9945" y2="127.816" gradientTransform="matrix(1 0 0 -1 0 722)"><stop offset="0" style="stop-color:#4F5B7E"/><stop offset="7.132825e-02" style="stop-color:#66718F"/><stop offset="0.2311" style="stop-color:#949CB1"/><stop offset="0.3913" style="stop-color:#BBBFCD"/><stop offset="0.5492" style="stop-color:#D9DBE3"/><stop offset="0.7041" style="stop-color:#EEEFF2"/><stop offset="0.8549" style="stop-color:#FBFBFC"/><stop offset="0.9965" style="stop-color:#FFFFFF"/></linearGradient><polygon fill="url(#SVGID_18_)" points="225.2,606.1 154.2,566.3 239.2,522.5 306.3,559.7 "/></g><path fill="#41404F" d="M265.5,537.9c0,0,6.8,0.1,10-2c3.2-2.2,10.7,6.8,3.3,11.6c-7.4,4.8-15,9.5-19,8.9c-4-0.7-6.1-1.4-6.5-2.3c-0.3-0.9-0.5-16.8-0.5-16.8L265.5,537.9z"/><path d="M268.3,525.9v18.2c0,0-10.2,4.5-17,1.9l-2.5-12.1L268.3,525.9z"/><linearGradient id="SVGID_19_" gradientUnits="userSpaceOnUse" x1="248.7774" y1="185.6456" x2="268.3122" y2="185.6456" gradientTransform="matrix(1 0 0 -1 0 722)"><stop offset="8.653847e-03" style="stop-color:#000000"/><stop offset="0.9559" style="stop-color:#000000;stop-opacity:0"/></linearGradient><path opacity="0.5" fill="url(#SVGID_19_)" enable-background="new " d="M268.3,525.9v18.2c0,0-10.2,4.5-17,1.9l-2.5-12.1L268.3,525.9z"/><path fill="#41404F" d="M294.6,548.3c0,0,6.8,0.1,9.9-2c3.2-2.2,10.7,6.8,3.3,11.6c-7.4,4.8-15,9.5-19,8.9c-4-0.7-6.1-1.4-6.5-2.3c-0.3-0.9-0.5-16.8-0.5-16.8L294.6,548.3z"/><path d="M250.9,493.8c0,0,25.9-5.3,39.8-6.5c5-0.5,9.4,3.4,9.7,8.4c0.6,12.5-1.9,37.3-3.7,56.1l-8.4,5.2c-3.8,2.4-8.8-0.2-9-4.7l-1.5-30.9c-0.1-2.6-3.3,0.6-5.3,2.3c-6.3,5.4-21.5,11.5-30.8,8.3c0,0-27.7-8.5-34.4-26.6L250.9,493.8z"/><path fill="#333333" d="M237.4,537.9l7.8-4l-4.5,68.9c-0.1,1.2-0.6,2.2-1.4,2.9c-1,0.9-2,1.3-2.9,1.5c-2,0.3-3.7-1.8-3.5-4.2L237.4,537.9z"/><path fill="#333333" d="M285.5,522.8l9.1,55.2c0.2,1.3-0.1,2.6-0.9,3.3c-0.6,0.5-1.2,0.8-1.7,1c-1.2,0.3-2.4-0.7-2.8-2.4l-11-54.6L285.5,522.8z"/><path fill="#F7CA82" d="M292.4,481.2c0,0,3.3-0.8,5.3-0.6c1.9,0.1,3.2,2.5,4.8,3.4c1.6,0.9,4.2,4,4.2,7.3c0,3.4-1.5,7.1-3.4,7c-1.8,0-2.3,0.4-2.8-1s-3.8-6.1-3.8-6.1L292.4,481.2z"/><path fill="#F76D59" d="M290.6,479.9c-7.4,1-22.2,2-22.2,2s-2.6-27.7-5.7-36.4c-2.7-7.6-9.4-10.1-11.1-10.6l-14.8-7.8L215.2,417l-6.6-2c-3.8-1.1-8.2,0.5-10.8,3.4c-3.4,3.8-6.1,10.1-6.4,20.3c0,0,5.9,49.2,11.4,67.2c0,0,32.4,17.4,43,7.5l8.9-7.5L254,495l0,0c0.5,3.1,3.4,5.2,6.5,4.7c19.3-3.1,37.5-7.5,37.5-7.5c0-3.7-0.9-6.9-1.8-9.2C295.1,480.9,292.9,479.6,290.6,479.9z"/><g><path fill="#F7CA82" d="M222.5,375.7c5.2-0.8,8.1-1.8,13.1-0.4c8.4,2.5,12.8,10.4,14.9,18.4c2,8,2.6,19.7-1.9,27.2c-2.9,4.7-9.3,3.8-13.8,2.6c-5.5-1.5-12.7-3.8-17.3-7.3c-6.3-4.8-9.6-15.2-10-22.7C207,387,214.6,377,222.5,375.7z"/><path fill="#F7B378" d="M234.6,423.5c-5.5-1.5-12.7-3.8-17.3-7.3c-0.8-0.6-1.5-1.2-2.2-2l0,0v7.6c1.5,3,5.1,4.2,8.2,4.6c4.2,0.5,7.5,2.3,13.4,0.7l0.7-3C236.5,423.9,235.5,423.7,234.6,423.5z"/><path fill="#0A5DE2" d="M214.7,415.7l-1.3,4c-0.2,0.7-0.1,1.4,0.4,2c2.6,3,11.8,11.9,25.8,6.9l-2.4-3C237.2,425.6,221.7,426,214.7,415.7z"/><path d="M250,379.1c-10.4-12.3-39.7-10.6-42.7,14.4c-1.4,11.5,3.7,18,10,22.7c3.5,2.6,8.6,4.6,13.2,6.1c1.3-0.6,3.2-7.7,3.2-7.7c-2.6-1.5-4.7-10.3-1.9-11.9c2.8-1.5,4.7,3.9,4.7,3.9c1.6-0.6,4.1-2.5,2.7-5.7c-1.4-3.2,0-6.6,0-6.6c11.8-0.3,13.3,3.8,13.3,3.8C257.7,387.2,250,379.1,250,379.1z"/></g><linearGradient id="SVGID_20_" gradientUnits="userSpaceOnUse" x1="244.3077" y1="249.6491" x2="258.2033" y2="251.4616" gradientTransform="matrix(1 0 0 -1 0 722)"><stop offset="8.653847e-03" style="stop-color:#000000"/><stop offset="0.9559" style="stop-color:#000000;stop-opacity:0"/></linearGradient><path opacity="0.3" fill="url(#SVGID_20_)" enable-background="new " d="M253.8,495.2c0,0-6.9-32.7-7.3-36.6c0-17.7,12-17.7,12-17.7l4.8,41.2l-3,17.8l-3.3-0.4l-2.2-1.7L253.8,495.2z"/></g><g><g><linearGradient id="SVGID_21_" gradientUnits="userSpaceOnUse" x1="96.6234" y1="286.4581" x2="62.1737" y2="216.0388" gradientTransform="matrix(1 0 0 -1 0 722)"><stop offset="0" style="stop-color:#4F5B7E"/><stop offset="7.132825e-02" style="stop-color:#66718F"/><stop offset="0.2311" style="stop-color:#949CB1"/><stop offset="0.3913" style="stop-color:#BBBFCD"/><stop offset="0.5492" style="stop-color:#D9DBE3"/><stop offset="0.7041" style="stop-color:#EEEFF2"/><stop offset="0.8549" style="stop-color:#FBFBFC"/><stop offset="0.9965" style="stop-color:#FFFFFF"/></linearGradient><polygon fill="url(#SVGID_21_)" points="73.1,518.1 0,479.2 85,435.4 154.2,471.7 "/></g><path fill="#41404F" d="M116.7,449.2c0,0,6.8,0.1,10-2c3.2-2.2,10.7,6.8,3.3,11.6c-7.4,4.8-15,9.5-19,8.9c-4-0.7-6.1-1.4-6.5-2.3c-0.3-0.9-0.5-16.8-0.5-16.8L116.7,449.2z"/><path fill="#0A5DE2" d="M119.5,437.2v18.2c0,0-10.2,4.5-17,1.9l-2.5-12.1L119.5,437.2z"/><linearGradient id="SVGID_22_" gradientUnits="userSpaceOnUse" x1="100" y1="274.3456" x2="119.5347" y2="274.3456" gradientTransform="matrix(1 0 0 -1 0 722)"><stop offset="8.653847e-03" style="stop-color:#000000"/><stop offset="0.9559" style="stop-color:#000000;stop-opacity:0"/></linearGradient><path opacity="0.5" fill="url(#SVGID_22_)" enable-background="new " d="M119.5,437.2v18.2c0,0-10.2,4.5-17,1.9l-2.5-12.1L119.5,437.2z"/><path fill="#41404F" d="M145.8,459.6c0,0,6.8,0.1,9.9-2c3.2-2.2,10.7,6.8,3.3,11.6c-7.4,4.8-15,9.5-19,8.9c-4-0.7-6.1-1.4-6.5-2.3c-0.3-0.9-0.5-16.8-0.5-16.8L145.8,459.6z"/><path fill="#0A5DE2" d="M102.1,405.1c0,0,25.9-5.3,39.8-6.5c5-0.5,9.4,3.4,9.7,8.4c0.6,12.5-1.9,37.3-3.7,56.1l-8.4,5.2c-3.8,2.4-8.8-0.2-9-4.7l-1.5-30.9c-0.1-2.6-3.3,0.6-5.3,2.3c-6.3,5.4-21.5,11.5-30.8,8.3c0,0-27.7-8.5-34.4-26.6L102.1,405.1z"/><path fill="#333333" d="M88.6,449.2l7.8-4l-4.5,68.9c-0.1,1.2-0.6,2.2-1.4,2.9c-1,0.9-2,1.3-2.9,1.5c-2,0.3-3.7-1.8-3.5-4.2L88.6,449.2z"/><path fill="#333333" d="M32.1,420.3l7.6-4l-5.1,63.4c-0.1,1.2-0.6,2.3-1.4,3c-0.8,0.7-1.6,1.1-2.3,1.3c-2.1,0.6-4.1-1.7-3.9-4.5L32.1,420.3z"/><path fill="#333333" d="M136.7,434.1l9.1,55.2c0.2,1.3-0.1,2.6-0.9,3.3c-0.6,0.5-1.2,0.8-1.7,1c-1.2,0.3-2.4-0.7-2.8-2.4l-11-54.6L136.7,434.1z"/><path fill="#F7CA82" d="M143.6,392.5c0,0,3.3-0.8,5.3-0.6c1.9,0.1,3.2,2.5,4.8,3.4s4.2,4,4.2,7.3c0,3.4-1.5,7.1-3.4,7c-1.8,0-2.3,0.4-2.8-1c-0.6-1.4-3.8-6.1-3.8-6.1L143.6,392.5z"/><path fill="#E6E7E8" d="M141.8,391.2c-7.4,1-22.2,2-22.2,2s-2.6-27.7-5.7-36.4c-2.7-7.6-9.4-10.1-11.1-10.6L88,338.4l-21.6-10.1l-6.6-2c-3.8-1.1-8.2,0.5-10.8,3.4c-3.4,3.8-6.1,10.1-6.4,20.3c0,0,5.9,49.2,11.4,67.2c0,0,32.4,17.4,43,7.5l8.9-7.5l-0.7-10.9l0,0c0.5,3.1,3.4,5.2,6.5,4.7c19.3-3.1,37.5-7.5,37.5-7.5c0-3.7-0.9-6.9-1.8-9.2C146.3,392.2,144.1,390.9,141.8,391.2z"/><g><path fill="#F7CA82" d="M73.7,287c5.2-0.8,8.1-1.8,13.1-0.4c8.4,2.5,12.8,10.4,14.9,18.4c2,8,2.6,19.7-1.9,27.2c-2.9,4.7-9.3,3.8-13.8,2.6c-5.5-1.5-12.7-3.8-17.3-7.3c-6.3-4.8-9.6-15.2-10-22.7C58.2,298.3,65.8,288.3,73.7,287z"/><path fill="#F7B378" d="M85.8,334.8c-5.5-1.5-12.7-3.8-17.3-7.3c-0.8-0.6-1.5-1.2-2.2-2l0,0v7.6c1.5,3,5.1,4.2,8.2,4.6c4.2,0.5,7.5,2.3,13.4,0.7l0.7-3C87.7,335.2,86.7,335,85.8,334.8z"/><path fill="#FFFFFF" d="M65.9,327l-1.3,4c-0.2,0.7-0.1,1.4,0.4,2c2.6,3,11.8,11.9,25.8,6.9l-2.4-3C88.4,336.9,72.9,337.3,65.9,327z"/><path fill="#1F1F89" d="M101.2,290.4c-10.4-12.3-39.7-10.6-42.7,14.4c-1.4,11.5,3.7,18,10,22.7c3.5,2.6,8.6,4.6,13.2,6.1C83.1,333,85,326,85,326c-2.6-1.5-4.7-10.3-1.9-11.9c2.8-1.5,4.7,3.9,4.7,3.9c1.6-0.6,4.1-2.5,2.7-5.7s0-6.6,0-6.6c11.8-0.3,13.3,3.8,13.3,3.8C108.9,298.5,101.2,290.4,101.2,290.4z"/></g><path fill="#B3B3B3" d="M589.6,520.1c-3.6,1.2-20.6,11.6-46.5,14.3v-52.6c0-2-0.6-3.9-1.9-5.4c-5.2-6.5-21.8-23.9-54.4-30.7c-3.1-0.6-6.1,1.7-6.1,4.9v60.8c0,0,18.6,25.7,62.3,33c0,0,37.6-3.8,49.2-16.8C592.3,527.6,593.2,518.9,589.6,520.1z"/><path fill="#B3B3B3" d="M433.3,431.2c0,0,0.9-8.8-2.7-7.6c-3.6,1.2-20.6,11.6-46.5,14.3v-52.6c0-2-0.6-3.9-1.9-5.4c-5.2-6.5-21.8-23.9-54.4-30.7c-3.1-0.6-6.1,1.7-6.1,4.9V415c0,0,18.6,25.7,62.3,33C384.1,447.9,421.7,444.2,433.3,431.2z"/><path fill="#B3B3B3" d="M235.7,361.8c0,0,37.6-3.8,49.2-16.8c0,0,0.9-8.8-2.7-7.6c-3.6,1.2-20.6,11.6-46.5,14.3v-52.6c0-2-0.6-3.9-1.9-5.4c-5.2-6.5-21.8-23.9-54.4-30.7c-3.1-0.6-6.1,1.7-6.1,4.9v60.8C173.4,328.9,192.1,354.5,235.7,361.8z"/><path fill="#B3B3B3" d="M444.9,608.1c-3.6,1.2-20.6,11.6-46.5,14.3v-52.6c0-2-0.6-3.9-1.9-5.4c-5.2-6.5-21.8-23.9-54.4-30.7c-3.1-0.6-6.1,1.7-6.1,4.9v60.8c0,0,18.6,25.7,62.3,33c0,0,37.6-3.8,49.2-16.8C447.7,615.7,448.5,606.9,444.9,608.1z"/><path fill="#B3B3B3" d="M286.6,515.3c-3.6,1.2-20.6,11.6-46.5,14.3V477c0-2-0.6-3.9-1.9-5.4c-5.2-6.5-21.8-23.9-54.4-30.7c-3.1-0.6-6.1,1.7-6.1,4.9v60.8c0,0,18.6,25.7,62.3,33c0,0,37.6-3.8,49.2-16.8C289.3,522.8,290.2,514.1,286.6,515.3z"/><path fill="#B3B3B3" d="M137.8,426.6c-3.6,1.2-20.6,11.6-46.5,14.3v-52.6c0-2-0.6-3.9-1.9-5.4c-5.2-6.5-21.8-23.9-54.4-30.7c-3.1-0.6-6.1,1.7-6.1,4.9v60.8c0,0,18.6,25.7,62.3,33c0,0,37.6-3.8,49.2-16.8C140.5,434.1,141.4,425.4,137.8,426.6z"/><linearGradient id="SVGID_23_" gradientUnits="userSpaceOnUse" x1="95.5179" y1="338.3504" x2="109.4136" y2="340.1629" gradientTransform="matrix(1 0 0 -1 0 722)"><stop offset="8.653847e-03" style="stop-color:#000000"/><stop offset="0.9559" style="stop-color:#000000;stop-opacity:0"/></linearGradient><path opacity="0.3" fill="url(#SVGID_23_)" enable-background="new " d="M105,406.5c0,0-6.9-32.7-7.3-36.6c0-17.7,12-17.7,12-17.7l4.8,41.2l-3,17.8l-3.3-0.4l-2.2-1.7L105,406.5z"/></g><polygon fill="#1F1F89" points="435.3,189.9 454.3,196.9 455.1,227 412.5,211.1 412.7,181.1 "/></g><path d="M250.7,204c0-3.7-3-6.8-6.8-6.8c-0.8,0-1.6,0.1-2.3,0.4c-0.2-2.6-2.4-4.7-5-4.7c-0.8,0-1.5,0.2-2.2,0.5c-1.7-1.7-4.1-2.8-6.7-2.8c-3,0-5.7,1.4-7.4,3.7c-0.6-0.3-1.2-0.5-2-0.5c-1.9,0-3.4,1.2-4,2.9c-1.1-0.5-2.3-0.8-3.5-0.8c-4.4,0-8.1,3.6-8.1,8.1c0,0.3,0,0.6,0.1,0.9c-2,0.8-3.3,2.8-3.3,5c0,1.8,0.9,3.5,2.3,4.5c-0.9,1.2-1.4,2.6-1.4,4.2c0,2.1,0.9,3.9,2.4,5.2c-0.4,1.1-0.6,2.3-0.6,3.6c0,5.7,4.5,10.4,10.2,10.6c0.2,0.2,0.4,0.4,0.7,0.5c3.5,2.6,8.6,4.6,13.2,6.1c1.3-0.6,3.2-7.7,3.2-7.7c-2.6-1.5-4.7-10.3-1.9-11.9c2.8-1.5,4.7,3.9,4.7,3.9c1.6-0.6,4.1-2.5,2.7-5.7c-1.4-3.2,0-6.6,0-6.6c11.8-0.3,13.3,3.8,13.3,3.8c2.2-4.8,2-9.1,1-12.4C250.2,206.9,250.7,205.5,250.7,204z"/><path fill="#2E519F" d="M416.8,486.9c0,0-3.5,0.7-4.1-2.6c0.4-7.4-4.3-12.4-4.3-12.4c-10.4-12.3-39.7-10.6-42.7,14.4c-1.4,11.5,3.7,18,10,22.7c3.5,2.6,8.6,4.6,13.2,6.1c1.3-0.6,3.2-7.7,3.2-7.7c-2.6-1.5-4.7-10.3-1.9-11.9c2.8-1.5,4.7,3.9,4.7,3.9c1.6-0.6,4.1-2.5,2.7-5.7s0-6.6,0-6.6c8.2-0.2,11.4,1.7,12.6,2.9c0,0,0.1,0.2,0.4,0.5c0.2,0.3,0.3,0.4,0.3,0.4s0-0.1,0.1-0.1C412.5,492.2,417.2,490.8,416.8,486.9z"/></g></svg>