<?xml version="1.0" encoding="utf-8"?><!-- Generator: Adobe Illustrator 21.0.2, SVG Export Plug-In . SVG Version: 6.00 Build 0) --><svg version="1.1" id="Layer_1" xmlns="http://www.w3.org/2000/svg" xmlns:xlink="http://www.w3.org/1999/xlink" x="0px" y="0px" viewBox="0 0 737.9 753.3" enable-background="new 0 0 737.9 753.3" xml:space="preserve"><g><g><path fill="#DDDDDD" d="M667.9,88.5l-20.6,9.2c-11.1,5-23.7,5.8-35.4,2.4L484,62.1c-16.5-4.9-33.4-8.2-50.5-10.1l-30.3-3.2v-9.6H401l-3.8-29.4C396.5,4.2,391.7,0,386,0l0,0c-5.7,0-10.5,4.2-11.2,9.9L371,39.3h-2.2v11l-35.5,9.1c-16.6,4.3-32.9,10-48.5,17.2l-121.1,56c-11.1,5.1-23.6,6.1-35.4,2.8l-21.7-6.2c-4.3-1.2-8.3,2.5-7.6,6.8c0.4,2.1,1.8,3.9,3.8,4.6l28.7,10.6c11.6,4.3,24.3,4.2,35.9-0.2l112.9-42.9c22.8-8.7,46.6-14.3,70.9-16.8l17.6-1.8v329.9h-7.2l-17.8,131.2H295c-5.4,0-9.8,4.4-9.8,9.8c0,5.4,4.4,9.8,9.8,9.8h-93.6l-0.9,6.7c-0.6,4.5-2,8.8-4.1,12.8l0,0c-1.5,2.8-0.1,6.1,2.7,7.2h-7.8c-5.4,0-9.8,4.4-9.8,9.8s4.4,9.8,9.8,9.8h389.6c5.4,0,9.8-4.4,9.8-9.8s-4.4-9.8-9.8-9.8H573c2.7-1,4.2-4.3,2.6-7.1c-2.1-4-3.6-8.3-4.2-12.8l-0.9-6.7h-93.6c5.4,0,9.8-4.4,9.8-9.8c0-5.4-4.4-9.8-9.8-9.8h-48.7l-17.8-131.2h-7.2V87l17.1-0.7c24.4-1,48.7,1.2,72.5,6.5L610.7,119c12.1,2.7,24.7,0.9,35.5-5l26.9-14.6c1.9-1,3.1-3,3.1-5.1C676.5,89.7,672,86.7,667.9,88.5z"/><rect x="199" y="594.8" fill="#B5B5B5" width="377.3" height="4"/><polygon fill="#B5B5B5" points="482.6,570.4 291.2,570.4 287.2,566.4 484.6,566.4 "/><polygon fill="#B5B5B5" points="428.6,550.2 343.9,550.2 343.9,546.2 427.6,546.2 "/></g><rect x="57.6" y="616.4" fill="#1F1F89" width="630.1" height="10.5"/><g><linearGradient id="SVGID_1_" gradientUnits="userSpaceOnUse" x1="343.85" y1="134.9408" x2="343.85" y2="62.1117" gradientTransform="matrix(1 0 0 -1 0 754)"><stop offset="0" style="stop-color:#4F5B7E"/><stop offset="7.132825e-02" style="stop-color:#66718F"/><stop offset="0.2311" style="stop-color:#949CB1"/><stop offset="0.3913" style="stop-color:#BBBFCD"/><stop offset="0.5492" style="stop-color:#D9DBE3"/><stop offset="0.7041" style="stop-color:#EEEFF2"/><stop offset="0.8549" style="stop-color:#FBFBFC"/><stop offset="0.9965" style="stop-color:#FFFFFF"/></linearGradient><polygon fill="url(#SVGID_1_)" points="626.7,700 0,700 61,625.2 687.7,625.2 "/></g><path fill="#1F1F89" d="M562,346.9c2,0,3.6,0.7,3.7,2.2c0,1.2-1.3,2.3-3.7,2.3s-3.7-1.1-3.7-2.3C558.3,347.6,560.1,346.9,562,346.9L562,346.9z M555.2,349.1c-0.1,3.7,3.3,5,6.7,5.1c3.5,0,6.8-1.4,6.8-5.1c0-1.2-0.8-2.8-2.4-3.5c1.4-0.6,2-1.9,2-2.9c0-3.1-3-4.8-6.4-4.8s-6.3,1.6-6.3,4.8c0,1.2,0.6,2.4,2,3.1C556,346.4,555.2,347.9,555.2,349.1L555.2,349.1z M558.6,342.5c0-1.1,1.1-2.2,3.3-2.2c2,0,3.4,0.9,3.3,2.2c0,1.4-1.5,2.2-3.3,2.2C560.2,344.7,558.7,343.9,558.6,342.5z"/><path fill="#1F1F89" d="M555.9,314.8c0,1.7-1.8,2.7-3.6,2.6c-1.7,0-3.5-0.7-3.5-2.1h-2.9c0,3.3,3.1,4.6,6.5,4.6c3.2,0,6.4-1.6,6.4-5.1V309c0-3.5-3.3-5.2-6.5-5.2c-3.1,0-6.5,1.7-6.5,5.2c0,3.9,3.3,5.2,6.5,5.2c1.2,0,2.9-0.6,3.6-1.7V314.8L555.9,314.8L555.9,314.8z M552.3,306.4c1.9,0,3.6,0.8,3.6,2.5s-1.7,2.6-3.6,2.6c-2,0-3.5-0.9-3.5-2.6C548.7,307.3,550.4,306.4,552.3,306.4z"/><path fill="#B5B5B5" d="M360.3,33.4h51.3c3.3,0,5.9,2.6,5.9,5.9l0,0c0,3.3-2.6,5.9-5.9,5.9h-51.3c-3.3,0-5.9-2.6-5.9-5.9l0,0C354.4,36,357.1,33.4,360.3,33.4z"/><path fill="#B5B5B5" d="M360.3,92.5h51.3c3.3,0,5.9,2.6,5.9,5.9l0,0c0,3.3-2.6,5.9-5.9,5.9h-51.3c-3.3,0-5.9-2.6-5.9-5.9l0,0C354.4,95.1,357.1,92.5,360.3,92.5z"/><path fill="#B5B5B5" d="M360.3,408.5h51.3c3.3,0,5.9,2.6,5.9,5.9l0,0c0,3.3-2.6,5.9-5.9,5.9h-51.3c-3.3,0-5.9-2.6-5.9-5.9l0,0C354.4,411.1,357.1,408.5,360.3,408.5z"/><g><g><g><path fill="#DDDDDD" d="M628.4,396.9c-54.9,0-99.6-44.7-99.6-99.6s44.7-99.6,99.6-99.6s99.6,44.7,99.6,99.6S683.3,396.9,628.4,396.9z"/></g></g><g><path fill="#FFFFFF" d="M628.1,387.2c-49.6,0-89.9-40.3-89.9-89.9s40.3-89.9,89.9-89.9c49.6,0,89.9,40.3,89.9,89.9S677.7,387.2,628.1,387.2z M628.1,210.4c-47.9,0-86.8,39-86.8,86.8c0,47.9,39,86.8,86.8,86.8c47.9,0,86.8-39,86.8-86.8C715,249.4,676,210.4,628.1,210.4z"/></g><g><path fill="#1F1F89" d="M641.2,271.2l-0.7-0.3c-0.4-0.2-0.9,0-1.1,0.4l-11.1,19.2l-16.7-34.7c-0.2-0.4-0.7-0.6-1.1-0.4l-0.7,0.3c-0.4,0.2-0.6,0.7-0.5,1.1l13.6,36.6c0.1,0.2,0.2,0.3,0.4,0.4l2.8,1.5c-0.9,0.6-1.5,1.7-1.5,2.9c0,2,1.6,3.5,3.5,3.5c2,0,3.5-1.6,3.5-3.5c0-1.1-0.5-2-1.2-2.7l2.9-1.5c0.2-0.1,0.3-0.3,0.4-0.5l8-21.2C641.8,271.8,641.6,271.4,641.2,271.2z M628,300c-1.1,0-2-0.9-2-2s0.9-2,2-2s2,0.9,2,2S629.1,300,628,300z M628,294.5c-0.1,0-0.3,0-0.4,0l0.5-2l0.5,2C628.5,294.6,628.3,294.5,628,294.5z"/><circle fill="#1F1F89" cx="628" cy="298.1" r="1"/></g><polygon fill="#1F1F89" points="659.3,248.2 666.2,248.2 666.2,245.9 664.2,245.9 664.2,233.7 659.2,233.7 659.2,236.2 661.5,236.2 661.5,245.9 659.3,245.9 "/><path fill="#1F1F89" d="M694.9,298.2c2.6,0,3.1,1.1,3.1,1.9c0,1.5-1.8,2.1-3.2,2.1c-1.2,0-3.2-0.5-3.2-2h-2.7c0,3.3,3.2,4.4,5.9,4.4c2.8,0,6.1-1.1,6.1-4.6c0-1.2-1-2.6-2.3-3c1.3-0.4,2-1.7,2-2.8c0-3.1-2.9-4.4-5.7-4.4c-2.7,0-5.7,1.1-5.7,4.2h2.7c0-1.3,1.7-1.8,3-1.8c2.3,0,3,1.1,3,1.9c0,1.3-1.6,1.7-3,1.7h-2.1v2.2h2.1V298.2z"/><path fill="#1F1F89" d="M685.2,322.9l-6.5,8.9l0.2,2.8h7.7v2.7h2.7v-2.7h1.7V332h-1.7v-9L685.2,322.9L685.2,322.9z M681.8,331.9l4.9-6.7v6.7H681.8z"/><path fill="#1F1F89" d="M667,346.3h-10.4c0,2.6,0,5,0,7.6h5.5c1.5,0,3.1,0.5,3.1,2.1c0,1.7-1.7,2.3-3,2.3c-1.4,0-3.2-0.4-3.2-2h-2.7c0,3.4,2.7,4.5,5.9,4.5c2.9,0,5.6-1.6,5.6-4.8c0-3.4-2.7-4.6-5.8-4.6h-2.8v-2.5h7.8L667,346.3L667,346.3z"/><path fill="#1F1F89" d="M625.1,360.8c0-1.6,1.6-2.5,3.3-2.4c1.5,0,3.2,0.6,3.2,1.9h2.7c0-3-2.8-4.3-5.9-4.3c-3,0-5.9,1.5-5.9,4.7v5.4c0,3.2,3.1,4.8,6,4.8s6-1.6,6-4.8c0-3.6-3-4.8-6-4.8c-1.1,0-2.7,0.5-3.3,1.5L625.1,360.8L625.1,360.8L625.1,360.8z M628.4,368.5c-1.8,0-3.3-0.8-3.3-2.3c0-1.6,1.5-2.4,3.3-2.4s3.3,0.8,3.3,2.4C631.7,367.8,630.1,368.5,628.4,368.5z"/><polygon fill="#1F1F89" points="594,360.4 600.4,347.4 600.3,346 589.7,346 589.7,348.6 596.7,348.6 590.8,360.4 "/><path fill="#1F1F89" d="M564.5,271.3h6.9V269h-2v-12.1h-4.9v2.5h2.2v9.7h-2.2V271.3L564.5,271.3z M575.2,263.1c0-5.2,5.1-5.1,5.1,0v2.1c0,5.2-5.1,5.2-5.1,0V263.1L575.2,263.1z M572.5,265.1c0,8.6,10.5,8.6,10.5,0V263c0-8.6-10.5-8.6-10.5,0V265.1z"/><path fill="#1F1F89" d="M589,249h6.9v-2.3h-2v-12.1H589v2.5h2.2v9.7H589V249L589,249z M597.7,249h6.9v-2.3h-2v-12.1h-4.9v2.5h2.2v9.7h-2.2V249z"/><path fill="#1F1F89" d="M618.4,238.9h6.9v-2.3h-2v-12.1h-4.9v2.5h2.2v9.7h-2.2V238.9L618.4,238.9z M629.5,228.7c0-1.3,1.5-2,2.9-2c1.9,0,3.3,0.7,3.3,2.3c0,1.7-2,1.9-3.1,1.9c-2.8,0-5.8,1-5.8,4.3c0,1.3,0,2.5,0,3.8h11.7v-2.5h-9v-1.2c0-1.6,1.9-1.9,3.1-1.9c3,0,5.8-0.7,5.8-4.4c0-3.4-3.1-4.6-6-4.6c-2.7,0-5.5,1.3-5.6,4.4h2.7V228.7z"/><path fill="#1F1F89" d="M682.4,260.4c0-1.3,1.5-2,2.9-2c1.9,0,3.3,0.7,3.3,2.3c0,1.7-2,1.9-3.1,1.9c-2.8,0-5.8,1-5.8,4.3c0,1.3,0,2.5,0,3.8h11.7v-2.5h-9V267c0-1.6,1.9-1.9,3.1-1.9c3,0,5.8-0.7,5.8-4.4c0-3.4-3.1-4.6-6-4.6c-2.7,0-5.5,1.3-5.6,4.4L682.4,260.4L682.4,260.4z"/><polygon fill="#3878FF" points="716.9,381.7 628.4,103 626.9,103.5 625.4,103 536.9,381.7 539.8,382.7 626.9,108.6 714,382.7 "/><g><path fill="#F7931E" d="M534.4,388.3h184.9l0,0c-6.3,6.8-15.2,10.7-24.5,10.7h-136C549.6,399,540.7,395.1,534.4,388.3L534.4,388.3z"/><path fill="#F1C53C" d="M733.3,381.3L733.3,381.3c0,5.3-13.1,9.7-18.9,9.7c-45.1,0-129.9,0-175,0c-5.7,0-18.9-4.3-18.9-9.7l0,0H733.3z"/></g></g><g><g><g><path fill="#FCD923" d="M122.9,319.9c-36.6,0-66.3-29.8-66.3-66.3c0-36.6,29.8-66.3,66.3-66.3c36.6,0,66.3,29.8,66.3,66.3C189.2,290.2,159.5,319.9,122.9,319.9z"/></g></g><g><path fill="#CEAC1B" d="M122.9,203.9c-27.4,0-49.7,22.3-49.7,49.7s22.3,49.7,49.7,49.7s49.7-22.3,49.7-49.7C172.6,226.2,150.3,203.9,122.9,203.9z M122.9,300.3c-25.7,0-46.7-20.9-46.7-46.7c0-25.7,20.9-46.7,46.7-46.7s46.7,20.9,46.7,46.7C169.6,279.4,148.6,300.3,122.9,300.3z"/><path fill="#CEAC1B" d="M125.7,248.1c-6.9-0.8-12.2-1.8-12.2-6.4c0-6.2,8.3-6.8,11.9-6.8c4.7,0,9.6,1.9,12,4.7l0.8,0.9l8.2-3.7l-0.9-1.5c-2.9-4.8-7.6-7.5-14.8-8.6v-6.4H121v6.4c-4.1,0.5-17.4,3.1-17.4,15.1c0,12.9,11.8,14.2,21.3,15.2c9,1,13.2,3.4,13.2,7.4c0,4.9-5,7.9-12.9,7.9c-4.9,0-11.5-2.1-14.3-6.6l-0.7-1.1l-8.9,3.7l0.8,1.5c4.6,8.6,13.9,10.6,19,11.1v7h9.6v-7.3c8.9-0.6,17.8-5.9,17.8-16.2C148.5,250.8,135.3,249.2,125.7,248.1z M130.4,277.4l-2.8,0.2v7.1h-3.5V278l-2.8-0.2c-4.2-0.4-11.6-1.9-15.7-8l3.4-1.4c3.7,4.8,10.8,6.9,16.2,6.9c9.9,0,16-4.2,16-11c0-8.6-11.5-9.9-15.9-10.4c-12.6-1.4-18.6-3.6-18.6-12.2c0-9.5,11.3-11.6,14.7-12l2.7-0.3v-6h3.5v6l2.6,0.4c5.5,0.8,9.2,2.6,11.7,5.7l-2.9,1.3c-3.1-3-8.4-4.9-13.5-4.9c-9.4,0-14.9,3.7-14.9,9.9c0,7.7,8.6,8.7,14.9,9.5c13.3,1.6,20,4.1,20,13.1C145.4,272.6,137.9,276.9,130.4,277.4z"/></g><g><path fill="#FCD923" d="M201.7,359.7H59.4v-31.8h142.3L201.7,359.7L201.7,359.7z"/></g><g><path fill="#FCD923" d="M215.3,328.7H73.1v-31.8h142.3L215.3,328.7L215.3,328.7z"/></g><g><path fill="#FCD923" d="M241.4,388.4H99.2v-31.8h142.3v31.8H241.4z"/></g><g><path fill="#FCD923" d="M214.9,416.7H72.7v-31.8H215v31.8H214.9z"/></g><rect x="72.5" y="384.9" fill="#CEAC1B" width="142.4" height="5.5"/><rect x="99" y="356.6" fill="#CEAC1B" width="142.4" height="5.5"/><rect x="59.4" y="327.9" fill="#CEAC1B" width="142.4" height="5.5"/><rect x="73.1" y="296.9" fill="#CEAC1B" width="142.4" height="5.5"/><g><g><rect x="77.5" y="300.5" fill="#CEAC1B" width="1.8" height="22.8"/><rect x="83" y="300.5" fill="#CEAC1B" width="1.8" height="17.3"/><rect x="88.5" y="300.5" fill="#CEAC1B" width="1.8" height="20.1"/><rect x="93.9" y="300.5" fill="#CEAC1B" width="1.8" height="22.8"/><rect x="99.5" y="300.5" fill="#CEAC1B" width="1.8" height="21.9"/></g><g><rect x="104.9" y="300.5" fill="#CEAC1B" width="1.8" height="22.8"/><rect x="110.4" y="300.5" fill="#CEAC1B" width="1.8" height="17.3"/><rect x="115.9" y="300.5" fill="#CEAC1B" width="1.8" height="20.1"/><rect x="121.3" y="300.5" fill="#CEAC1B" width="1.8" height="22.8"/><rect x="126.8" y="300.5" fill="#CEAC1B" width="1.8" height="21.9"/></g><g><rect x="132.3" y="300.5" fill="#CEAC1B" width="1.8" height="22.8"/><rect x="137.8" y="300.5" fill="#CEAC1B" width="1.8" height="17.3"/><rect x="143.2" y="300.5" fill="#CEAC1B" width="1.8" height="20.1"/><rect x="148.7" y="300.5" fill="#CEAC1B" width="1.8" height="22.8"/><rect x="154.2" y="300.5" fill="#CEAC1B" width="1.8" height="21.9"/></g><g><rect x="159.7" y="300.5" fill="#CEAC1B" width="1.8" height="22.8"/><rect x="165.2" y="300.5" fill="#CEAC1B" width="1.8" height="17.3"/><rect x="170.6" y="300.5" fill="#CEAC1B" width="1.8" height="20.1"/><rect x="176.1" y="300.5" fill="#CEAC1B" width="1.8" height="22.8"/><rect x="181.6" y="300.5" fill="#CEAC1B" width="1.8" height="21.9"/></g><g><rect x="187.1" y="300.5" fill="#CEAC1B" width="1.8" height="22.8"/><rect x="192.5" y="300.5" fill="#CEAC1B" width="1.8" height="17.3"/><rect x="198" y="300.5" fill="#CEAC1B" width="1.8" height="20.1"/><rect x="203.5" y="300.5" fill="#CEAC1B" width="1.8" height="22.8"/><rect x="209" y="300.5" fill="#CEAC1B" width="1.8" height="21.9"/></g></g><g><g><rect x="66.6" y="330.6" fill="#CEAC1B" width="1.8" height="22.8"/><rect x="72" y="330.6" fill="#CEAC1B" width="1.8" height="17.3"/><rect x="77.5" y="330.6" fill="#CEAC1B" width="1.8" height="20.1"/><rect x="83" y="330.6" fill="#CEAC1B" width="1.8" height="22.8"/><rect x="88.5" y="330.6" fill="#CEAC1B" width="1.8" height="21.9"/></g><g><rect x="93.9" y="330.6" fill="#CEAC1B" width="1.8" height="22.8"/><rect x="99.4" y="330.6" fill="#CEAC1B" width="1.8" height="17.3"/><rect x="104.9" y="330.6" fill="#CEAC1B" width="1.8" height="20.1"/><rect x="110.4" y="330.6" fill="#CEAC1B" width="1.8" height="22.8"/><rect x="115.9" y="330.6" fill="#CEAC1B" width="1.8" height="21.9"/></g><g><rect x="121.3" y="330.6" fill="#CEAC1B" width="1.8" height="22.8"/><rect x="126.8" y="330.6" fill="#CEAC1B" width="1.8" height="17.3"/><rect x="132.3" y="330.6" fill="#CEAC1B" width="1.8" height="20.1"/><rect x="137.8" y="330.6" fill="#CEAC1B" width="1.8" height="22.8"/><rect x="143.3" y="330.6" fill="#CEAC1B" width="1.8" height="21.9"/></g><g><rect x="148.7" y="330.6" fill="#CEAC1B" width="1.8" height="22.8"/><rect x="154.2" y="330.6" fill="#CEAC1B" width="1.8" height="17.3"/><rect x="159.7" y="330.6" fill="#CEAC1B" width="1.8" height="20.1"/><rect x="165.2" y="330.6" fill="#CEAC1B" width="1.8" height="22.8"/><rect x="170.7" y="330.6" fill="#CEAC1B" width="1.8" height="21.9"/></g><g><rect x="176.1" y="330.6" fill="#CEAC1B" width="1.8" height="22.8"/><rect x="181.6" y="330.6" fill="#CEAC1B" width="1.8" height="17.3"/><rect x="187.1" y="330.6" fill="#CEAC1B" width="1.8" height="20.1"/><rect x="192.5" y="330.6" fill="#CEAC1B" width="1.8" height="22.8"/><rect x="198.1" y="330.6" fill="#CEAC1B" width="1.8" height="21.9"/></g></g><g><g><rect x="104" y="359.8" fill="#CEAC1B" width="1.8" height="22.8"/><rect x="109.5" y="359.8" fill="#CEAC1B" width="1.8" height="17.3"/><rect x="114.9" y="359.8" fill="#CEAC1B" width="1.8" height="20.1"/><rect x="120.4" y="359.8" fill="#CEAC1B" width="1.8" height="22.8"/><rect x="125.9" y="359.8" fill="#CEAC1B" width="1.8" height="21.9"/></g><g><rect x="131.4" y="359.8" fill="#CEAC1B" width="1.8" height="22.8"/><rect x="136.8" y="359.8" fill="#CEAC1B" width="1.8" height="17.3"/><rect x="142.3" y="359.8" fill="#CEAC1B" width="1.8" height="20.1"/><rect x="147.8" y="359.8" fill="#CEAC1B" width="1.8" height="22.8"/><rect x="153.3" y="359.8" fill="#CEAC1B" width="1.8" height="21.9"/></g><g><rect x="158.8" y="359.8" fill="#CEAC1B" width="1.8" height="22.8"/><rect x="164.2" y="359.8" fill="#CEAC1B" width="1.8" height="17.3"/><rect x="169.7" y="359.8" fill="#CEAC1B" width="1.8" height="20.1"/><rect x="175.2" y="359.8" fill="#CEAC1B" width="1.8" height="22.8"/><rect x="180.7" y="359.8" fill="#CEAC1B" width="1.8" height="21.9"/></g><g><rect x="186.1" y="359.8" fill="#CEAC1B" width="1.8" height="22.8"/><rect x="191.6" y="359.8" fill="#CEAC1B" width="1.8" height="17.3"/><rect x="197.1" y="359.8" fill="#CEAC1B" width="1.8" height="20.1"/><rect x="202.6" y="359.8" fill="#CEAC1B" width="1.8" height="22.8"/><rect x="208.1" y="359.8" fill="#CEAC1B" width="1.8" height="21.9"/></g><g><rect x="213.5" y="359.8" fill="#CEAC1B" width="1.8" height="22.8"/><rect x="219" y="359.8" fill="#CEAC1B" width="1.8" height="17.3"/><rect x="224.5" y="359.8" fill="#CEAC1B" width="1.8" height="20.1"/><rect x="230" y="359.8" fill="#CEAC1B" width="1.8" height="22.8"/><rect x="235.5" y="359.8" fill="#CEAC1B" width="1.8" height="21.9"/></g></g><g><g><rect x="77.5" y="389" fill="#CEAC1B" width="1.8" height="22.8"/><rect x="83" y="389" fill="#CEAC1B" width="1.8" height="17.3"/><rect x="88.5" y="389" fill="#CEAC1B" width="1.8" height="20.1"/><rect x="93.9" y="389" fill="#CEAC1B" width="1.8" height="22.8"/><rect x="99.5" y="389" fill="#CEAC1B" width="1.8" height="21.9"/></g><g><rect x="104.9" y="389" fill="#CEAC1B" width="1.8" height="22.8"/><rect x="110.4" y="389" fill="#CEAC1B" width="1.8" height="17.3"/><rect x="115.9" y="389" fill="#CEAC1B" width="1.8" height="20.1"/><rect x="121.3" y="389" fill="#CEAC1B" width="1.8" height="22.8"/><rect x="126.8" y="389" fill="#CEAC1B" width="1.8" height="21.9"/></g><g><rect x="132.3" y="389" fill="#CEAC1B" width="1.8" height="22.8"/><rect x="137.8" y="389" fill="#CEAC1B" width="1.8" height="17.3"/><rect x="143.2" y="389" fill="#CEAC1B" width="1.8" height="20.1"/><rect x="148.7" y="389" fill="#CEAC1B" width="1.8" height="22.8"/><rect x="154.2" y="389" fill="#CEAC1B" width="1.8" height="21.9"/></g><g><rect x="159.7" y="389" fill="#CEAC1B" width="1.8" height="22.8"/><rect x="165.2" y="389" fill="#CEAC1B" width="1.8" height="17.3"/><rect x="170.6" y="389" fill="#CEAC1B" width="1.8" height="20.1"/><rect x="176.1" y="389" fill="#CEAC1B" width="1.8" height="22.8"/><rect x="181.6" y="389" fill="#CEAC1B" width="1.8" height="21.9"/></g><g><rect x="187.1" y="389" fill="#CEAC1B" width="1.8" height="22.8"/><rect x="192.5" y="389" fill="#CEAC1B" width="1.8" height="17.3"/><rect x="198" y="389" fill="#CEAC1B" width="1.8" height="20.1"/><rect x="203.5" y="389" fill="#CEAC1B" width="1.8" height="22.8"/><rect x="209" y="389" fill="#CEAC1B" width="1.8" height="21.9"/></g></g><polygon fill="#3878FF" points="235.1,413.3 146.5,134.6 145,135.1 143.6,134.6 55,413.3 58,414.3 145,140.1 232.1,414.3 "/><g><path fill="#F7931E" d="M52.6,419.9h184.9l0,0c-6.3,6.8-15.2,10.7-24.5,10.7H77C67.7,430.6,58.9,426.7,52.6,419.9L52.6,419.9z"/><path fill="#F1C53C" d="M251.4,412.9L251.4,412.9c0,5.3-13.1,9.7-18.9,9.7c-45.1,0-129.9,0-175,0c-5.7,0-18.9-4.3-18.9-9.7l0,0H251.4z"/></g></g><g><g><linearGradient id="SVGID_2_" gradientUnits="userSpaceOnUse" x1="469.4" y1="139.4592" x2="469.4" y2="14.5926" gradientTransform="matrix(1 0 0 -1 0 754)"><stop offset="0" style="stop-color:#4F5B7E"/><stop offset="7.132825e-02" style="stop-color:#66718F"/><stop offset="0.2311" style="stop-color:#949CB1"/><stop offset="0.3913" style="stop-color:#BBBFCD"/><stop offset="0.5492" style="stop-color:#D9DBE3"/><stop offset="0.7041" style="stop-color:#EEEFF2"/><stop offset="0.8549" style="stop-color:#FBFBFC"/><stop offset="0.9965" style="stop-color:#FFFFFF"/></linearGradient><polygon fill="url(#SVGID_2_)" points="516.1,753.3 337.7,753.3 453.9,625 598.1,625 601.1,658.9 "/></g><g><path fill="#4D4D4D" d="M485.6,604.1L438.4,629l-5.4,15.5l15.2,14.4l98.3,4.2l12.5,13.4c0,0,5.4,6.1,11.3,4.5l-9.4-31l-14,0.3l-67.2-12.5l34-7.9l49.2-15L485.6,604.1z"/><path fill="#4D4D4D" d="M563.7,604.1l47.1,24.9l4.1,11.6c0.8,2.4,0.2,5-1.6,6.7l-12.2,11.5l-93.4,18.7l-13.4,7.7c0,0-9.5,7.5-14,1.6l19.7-22.2l7.6,1.5l62-28.4l-32.5-7.6l-27.6,0.5L563.7,604.1z"/><path fill="#F76D59" d="M564.3,603.7l-4.2-21l-3-29l0.6,15.7l-8.9-7.8l-10.2,7.7l21.3,22.8l9.1,0.9l7.2-11.6l-13-62L539,509c0,0-8.2,2.7-16.7,2.7s-15.8-2.7-15.8-2.7l-21.7,11.2l-23.4,59l0.4,16.8l10.9,0.6l10.7-6.7l-1.2-9.3l7.6-24.9l-1.4,30.1l-4.1,16.3c-0.9,5.6,2.6,10.9,8.1,12.1l63.8-0.5C562,615,564.9,609.4,564.3,603.7z"/><g><circle fill="#F9EAC5" cx="521" cy="480" r="26.8"/><path fill="#1F1F89" d="M526.3,485.2c-8.4,3.1-26.2,5.2-32.5-2c-3.8-12,2-27.4,12.6-32.1c8.7-3.9,27.9-3.6,34.3,4.8C545.6,462.4,538.9,480.5,526.3,485.2z"/><path fill="#1F1F89" d="M532,481.6c0,0-1.2,5.8,5.9,6.8c1.2-4.3,4.2-4.5,6-3.4s2.8,4.4,0.5,6.8c0,0-0.6,1.3,1.4,0.6c0,0,6.3-7.6,4.3-19.7c-2.1-12.3-10.6-12.3-10.6-12.3L532,481.6z"/></g><linearGradient id="SVGID_3_" gradientUnits="userSpaceOnUse" x1="531.4341" y1="88.9673" x2="506.773" y2="98.5526" gradientTransform="matrix(1 0 0 -1 0 754)"><stop offset="0" style="stop-color:#000000;stop-opacity:0.8"/><stop offset="0.9922" style="stop-color:#000000;stop-opacity:0"/></linearGradient><polygon fill="url(#SVGID_3_)" points="517.1,661.9 543.7,649.7 514.1,644.2 466,659.7 "/><linearGradient id="SVGID_4_" gradientUnits="userSpaceOnUse" x1="557.3086" y1="89.1945" x2="561.9615" y2="80.8192" gradientTransform="matrix(1 0 0 -1 0 754)"><stop offset="0" style="stop-color:#000000;stop-opacity:0.8"/><stop offset="0.9922" style="stop-color:#000000;stop-opacity:0"/></linearGradient><path fill="url(#SVGID_4_)" d="M551.8,668.8l13.9-2.8l4.5,15c0,0-5.1,1.5-10.3-3.5C555.1,672.8,552.2,668.8,551.8,668.8z"/><linearGradient id="SVGID_5_" gradientUnits="userSpaceOnUse" x1="491.8557" y1="185.824" x2="483.5203" y2="193.6691" gradientTransform="matrix(1 0 0 -1 0 754)"><stop offset="0" style="stop-color:#000000"/><stop offset="1" style="stop-color:#000000;stop-opacity:0"/></linearGradient><polygon opacity="0.3" fill="url(#SVGID_5_)" enable-background="new " points="485.6,570.3 469,579.2 489.9,533.8 490,555.7 "/><linearGradient id="SVGID_6_" gradientUnits="userSpaceOnUse" x1="550.6607" y1="189.198" x2="563.6319" y2="196.1825" gradientTransform="matrix(1 0 0 -1 0 754)"><stop offset="0" style="stop-color:#000000"/><stop offset="1" style="stop-color:#000000;stop-opacity:0"/></linearGradient><polygon opacity="0.3" fill="url(#SVGID_6_)" enable-background="new " points="558.1,568.8 568.2,576.7 558.2,539.4 555.7,550.4 "/><linearGradient id="SVGID_7_" gradientUnits="userSpaceOnUse" x1="552.7858" y1="174.771" x2="540.6419" y2="167.009" gradientTransform="matrix(1 0 0 -1 0 754)"><stop offset="0" style="stop-color:#000000"/><stop offset="1" style="stop-color:#000000;stop-opacity:0"/></linearGradient><path opacity="0.3" fill="url(#SVGID_7_)" enable-background="new " d="M526.9,557.4l19.1,56.4h10.3c5.2,0,9.1-4.7,8.1-9.8l-2.3-11.7l-2.1-0.2L526.9,557.4z"/><g><path fill="#F9EAC5" d="M529.9,540.9c-4.2-2.5-9.7-1-12.2,3.2s-1,9.7,3.2,12.2c1.9,1.1,4,1.4,5.9,1.1l16.2,16.3l10.3-8.6l-19.1-15.4C534.7,546.3,533.1,542.8,529.9,540.9z"/><g><path fill="#333333" d="M523.5,566.8l-13.4-0.3c-1,0-2-0.9-2.1-1.9l-4.2-30.7c-0.1-1,0.6-1.8,1.6-1.8l13.4,0.3c1,0,2,0.9,2.1,1.9l4.2,30.7C525.3,566,524.5,566.8,523.5,566.8z"/><g><path fill="#666666" d="M506.5,538.1h-0.1c-0.4,0-0.9-0.4-0.9-0.8l-0.4-3.1c-0.1-0.5,0.3-0.8,0.7-0.8h0.1c0.4,0,0.9,0.4,0.9,0.8l0.4,3.1C507.3,537.7,506.9,538.1,506.5,538.1z"/><path fill="#333333" d="M506.3,534.5c0,0.2-0.1,0.4-0.3,0.4s-0.4-0.2-0.4-0.4s0.1-0.4,0.3-0.4C506.1,534.1,506.3,534.3,506.3,534.5z"/><ellipse transform="matrix(0.6611 -0.7503 0.7503 0.6611 -230.4343 561.2764)" fill="#CCCCCC" cx="506.1" cy="535.7" rx="0.4" ry="0.4"/><ellipse transform="matrix(0.6611 -0.7503 0.7503 0.6611 -231.3037 561.8748)" fill="#333333" cx="506.3" cy="537" rx="0.4" ry="0.4"/></g><path fill="#666666" d="M515.6,542.8c0.2,1.1-0.6,2-1.8,2c-1.1,0-2.2-1-2.3-2.1s0.6-2,1.8-2S515.5,541.6,515.6,542.8z"/></g><path fill="#F9EAC5" d="M508.5,552.7c4.6-1.7,9.7,0.6,11.5,5.2c1.7,4.6-0.6,9.7-5.2,11.5c-2,0.8-4.1,0.7-6,0.1l-25.9,21l-5.9-15.3l25.8-14.5C502.9,557.2,505,554,508.5,552.7z"/></g></g></g><g><linearGradient id="SVGID_8_" gradientUnits="userSpaceOnUse" x1="191.5" y1="90.7787" x2="191.5" y2="33.6742" gradientTransform="matrix(1 0 0 -1 0 754)"><stop offset="0" style="stop-color:#4F5B7E"/><stop offset="7.132825e-02" style="stop-color:#66718F"/><stop offset="0.2311" style="stop-color:#949CB1"/><stop offset="0.3913" style="stop-color:#BBBFCD"/><stop offset="0.5492" style="stop-color:#D9DBE3"/><stop offset="0.7041" style="stop-color:#EEEFF2"/><stop offset="0.8549" style="stop-color:#FBFBFC"/><stop offset="0.9965" style="stop-color:#FFFFFF"/></linearGradient><polygon fill="url(#SVGID_8_)" points="184.6,726.7 150.6,726.7 198.5,668 232.4,668 "/></g><g><linearGradient id="SVGID_9_" gradientUnits="userSpaceOnUse" x1="-526.9202" y1="241.8701" x2="-528.9019" y2="207.3319" gradientTransform="matrix(1 0 0 -1 771.0668 754)"><stop offset="3.252340e-03" style="stop-color:#241084"/><stop offset="0.9896" style="stop-color:#0A5DE2"/></linearGradient><path fill="url(#SVGID_9_)" d="M298.6,556.2l-57.2-32.8L206.6,562l-3.3,8l-28.1-6.5l0,0c-1.2-4.3,1.6-8.8,6-9.5l15.5,1.2L227,503l10.8-3.3l71.9,27.3L298.6,556.2z"/><path fill="#D8C8BA" d="M243.3,530.6c-4.6,1.2-9.3-1.6-10.5-6.2c-1.2-4.6,1.6-9.3,6.2-10.5c2.9-0.8,5.8,0.1,7.9,1.9l32.1-14.1l5.2,13.6l-34.6,8.3C249.1,526.9,246.7,529.7,243.3,530.6z"/><path fill="#3878FF" d="M341.9,555l-89,33.1l-21.2,68c-0.2,2.1,6,11.3-3,14.2l-29.5,4.2c0,0-7.3-5.9,2.7-11.9l16.1-5.7l13.8-87l72.6-42.7L341.9,555z"/><polygon fill="#028263" points="265.2,507.6 277,501.1 297.9,451.9 309.9,474.7 287.1,514.7 272.7,518.5 "/><g><path fill="#D8C8BA" d="M310.4,393.4c11.4,2.4,27.5,9.2,23.2,26.1c-4.3,16.7-18.2,21.8-29.7,19.6c-11.4-2.2-23.2-11.9-18.3-29C288.9,398.8,301.3,391.5,310.4,393.4z"/><path d="M331.8,427c6.9-7.4,7.1-25.8-9.4-35.6c-19.9-11.8-41.6,7.3-38.8,21c1.3,1.2,4.8,1.9,6.3,2.4c5.7,1.7,12.5,0.3,17.2-3.3C307,411.4,327.4,408.1,331.8,427z"/><path fill="#D8C8BA" d="M315.5,413c0.5-1.7,1.6-3.2,2.9-4.2c4.4-3.5,10.6,1.1,11,6c0.1,1.6-0.2,3.2-0.7,4.7c-0.4,1.3-1.1,2.7-2.2,3.5s-2.6,0.9-3.9,0.6s-2.5-1-3.6-1.8C316.7,420.1,314.7,416.1,315.5,413z"/></g><path fill="#00A784" d="M297.9,451.9l7.2-8.6l25.9-5.4l14.6,11.9l10.7,87c1.5,5.5-9.6,19.2-16.4,18.3L300.3,536c-10.1-4.8-9.9-11.6-10-16.9l3.1-45.1L297.9,451.9z"/><g><polygon fill="#333333" points="270.6,562.4 251.9,513.5 200.8,491.9 224.4,537.9 268.7,562 315.9,545.9 270,521.7 258,529.5 "/><polygon fill="#333333" points="268.7,562 315.9,545.9 270,521.7 256.3,524.9 "/><polygon fill="#E6E6E6" points="268.1,560.1 310.7,545.6 310.8,544.4 269.5,522.3 256.4,525.3 "/></g><path fill="#D8C8BA" d="M279.2,548.9c-4.6,1.2-9.7-1.2-10.2-5.9c-0.6-4.7,2.8-9,7.6-9.6c2.4-0.3,4.7,0.5,6.4,1.9l30-18.4l11.1,10.5l-38.8,15.9C284,545.7,283.4,547.8,279.2,548.9z"/><path fill="#028263" d="M308.4,520l12.9-11l2.1-42.4c0,0,2.3-16.6,10.9-17.9s10,6,10,6v54.4l-3,9.3l-27.7,14.3L308.4,520z"/></g></g></svg>