<svg id="Layer_1" data-name="Layer 1" xmlns="http://www.w3.org/2000/svg" viewBox="0 0 510 203"><defs><style>.cls-1{fill:#f37121;}</style></defs><title>Logo</title><path d="M263.39,141.35,281.79,6.56h37.4V196.44H293.74V60.32L275.22,196.44H249.77L229.69,62.17V196.44H206.15V6.56h37.4Z"/><path d="M379.06,90.64h37.76v60.25q0,47.67-40.15,47.66t-40.15-47.66V52.11q0-47.67,40.15-47.66t40.15,47.66V70.65H391.37V50.26q0-18.67-14-18.67t-14,18.67V152.74q0,18.54,14,18.54t14-18.54V117.79H379.06Z"/><path d="M460.92,86.67h37v27h-37v55.61H507.4v27.15H434V6.56H507.4V33.71H460.92Z"/><rect class="cls-1" x="2.6" y="162.73" width="181.93" height="34" rx="5.64"/><rect x="71.82" y="136.73" width="113" height="21" rx="3.48"/><rect x="114.71" y="110.73" width="70.18" height="21" rx="4.44"/><rect x="141.28" y="84.73" width="43.6" height="21" rx="3.54"/><rect x="157.78" y="58.73" width="27" height="21" rx="2.7"/><rect x="167.95" y="32.73" width="16.8" height="21" rx="2.3"/><rect x="174.27" y="6.73" width="10.44" height="21" rx="2.77"/></svg>