<?xml version="1.0" encoding="utf-8"?>
<!-- Generator: Adobe Illustrator 20.0.0, SVG Export Plug-In . SVG Version: 6.00 Build 0)  -->
<svg version="1.1" id="Layer_1" xmlns="http://www.w3.org/2000/svg" xmlns:xlink="http://www.w3.org/1999/xlink" x="0px" y="0px"
	 viewBox="0 0 500 167" style="enable-background:new 0 0 500 167;" xml:space="preserve">
<style type="text/css">
	.st0{fill:none;stroke:#FF0000;stroke-width:7;stroke-linecap:round;stroke-linejoin:round;stroke-miterlimit:10;}
	.st1{fill:#3D3D3D;}
	.st2{fill:#FBAF17;}
	.st3{fill:#FCB017;}
	.st4{fill:#87C540;}
	.st5{fill:#FFFFFF;}
</style>
<g>
	<path class="st5" d="M357.1,110.7c-9.8,0-17.7,7.3-17.7,16.4c0,9.1,7.9,16.4,17.7,16.4s17.7-7.3,17.7-16.4
		C374.8,118,366.9,110.7,357.1,110.7z M356.7,134.9c-4.6,0-8.3-3.5-8.3-7.8c0-4.3,3.7-7.8,8.3-7.8c4.6,0,8.3,3.5,8.3,7.8
		C365,131.4,361.3,134.9,356.7,134.9z"/>
	<path class="st5" d="M245.2,109.6c-2.7,0-4.6,2-5,4.5c-2.8-2.2-6.1-3.5-9.9-3.5c-9.1,0-16.4,7.3-16.4,16.4
		c0,9.1,7.4,16.4,16.4,16.4c3.8,0,7.3-1.3,10.1-3.5c0.4,2.5,2.1,4.5,4.8,4.5c2.9,0,4.8-2.4,4.8-5.3v-24.3
		C250,112,248.1,109.6,245.2,109.6z M230.9,134.9c-4.4,0-7.9-3.5-7.9-7.8c0-4.3,3.6-7.8,7.9-7.8c4.4,0,7.9,3.5,7.9,7.8
		C238.8,131.4,235.3,134.9,230.9,134.9z"/>
	<path class="st2" d="M461,95.9c-2.9,0-5,2.4-5,5.3V114c-4-2.1-6.3-3.3-10-3.3c-9.1,0-16.5,7.3-16.5,16.4c0,9.1,7.3,16.4,16.4,16.4
		c3.7,0,7.2-1.3,9.9-3.4c0.4,2.5,2.4,4.4,5,4.4c2.9,0,5.1-2.4,5.1-5.3v-38C466,98.3,463.9,95.9,461,95.9z M446.5,135.1
		c-4.5,0-8.2-3.6-8.2-8c0-4.4,3.7-8,8.2-8c4.5,0,8.2,3.6,8.2,8C454.7,131.5,451,135.1,446.5,135.1z"/>
	<path class="st5" d="M282.6,111.3c0,0,0.2,0,0.2,0c-1.7-0.5-3.6-0.9-5.9-0.9c-5.1,0-8.3,2.2-9.4,3.1c-0.6-2.2-3.2-3.8-5.6-3.8
		c-2.9,0-5.9,2.4-5.9,5.3v24.3c0,2.9,2.6,5.3,5.5,5.3c2.9,0,5.5-2.4,5.5-5.3v-13.1c0,0,0.9-7.9,7.8-7.9c4.3,0,6.2,3.9,6.2,6.4
		c0,1.5,0,3,0,3l0,0v11.5c0,2.9,2.1,5.3,5,5.3c2.9,0,5-2.4,5-5.3v-12.2v-2.9C291,120.3,289.8,113.7,282.6,111.3z"/>
	<path class="st2" d="M425.2,137.7l-15.1-33.4c-1.3-2.8-4-4.6-7-4.6c0,0,0,0,0,0s0,0,0,0c-3,0-5.8,1.8-7,4.5l-15.1,33.5
		c-1.3,2.8,0.8,6.3,3.8,6.3h0.3c2.1,0,4-1.4,4.9-3.3l2.5-5.7h21.3l2.5,5.7c0.9,1.9,2.8,3.3,4.9,3.3h0.3
		C424.5,144,426.5,140.5,425.2,137.7z M396.4,127l6.7-14.7l6.7,14.7H396.4z"/>
	<path class="st2" d="M486.7,144.2c-4.6,0-9.5-1.4-13.4-3.9c-1.8-1.2-2.7-3.5-1.8-5.5c1.1-2.6,4.2-3.4,6.4-1.9c4,2.6,9.4,3.1,12.2,2
		c0.7-0.3,1-0.6,1-0.7c0.1-0.6,0.1-1,0.1-1.2c-0.1-0.2-1-1.1-5.3-1.8c-10.4-1.7-13.7-7.6-13.3-12.3c0.2-2.4,1.3-4.5,3.2-6.1
		c2.7-2.3,6.9-3.4,11.3-3c5.7,0.5,10.2,3.9,10.7,4.2c1.9,1.5,2.3,4.2,0.8,6.1c-1.5,1.9-4.2,2.3-6.1,0.8c-0.8-0.6-3.6-2.3-6.2-2.5
		c-1.7-0.2-3.1,0.1-3.9,0.4c-0.7,0.3-0.9,1.3-0.3,1.7c0.9,0.6,2.4,1.4,5.1,1.8c3.9,0.6,8.7,1.8,11.2,5.6c1,1.6,2.1,4.2,1.2,8
		c-0.7,3-3,5.4-6.3,6.7C491.4,143.8,489.1,144.2,486.7,144.2z"/>
	<path class="st5" d="M209.5,138l-6.2-32.3c-0.5-2.8-2.6-5-5.1-5.8c-1.5-0.4-7.2-1.1-10,6.2l-7.9,23.3l-7.9-23.5
		c-1.1-3.2-3.7-5.3-6.9-6c-0.4-0.2-2.5-0.1-2.6,0c-3.1,0.4-5.7,2.6-6.3,5.8l-6.2,32.3c-0.6,3,1.7,5.9,4.7,5.9h0.6
		c3,0,5.5-2.4,6.1-5.3l4.6-23.6l8.4,24.6c0.4,1.1,1.1,2.4,2.1,3c0.4,0.5,1,1.2,1.7,1.2h1.3h1.2h1.3c0.7,0,1.3-0.7,1.7-1.3
		c1-0.6,1.7-1.8,2.1-2.9l7.9-23.5l4.3,22.4c0.6,2.9,3.1,5.3,6.1,5.3h0.6C207.8,144,210.1,141,209.5,138z"/>
	<path class="st3" d="M121.1,22.7C102.7,12.3,64.4,2.1,38.8,37.1c-25.6,34.9-16.9,73-22.2,80.8c-7.5,11-19.1,12.1-16,25.8
		c3.1,13.7,30.8,33.6,85.2,17.2C146.6,142.7,182.2,56.9,121.1,22.7z"/>
	<path class="st4" d="M121.9,20.3c0,0-2.7-4.6,1.7-7.3c4.4-2.7,59.6-11.2,61.9-13.1c-2.5,6.9-11.3,25.8-33,29.9
		C136,32.9,121.9,20.3,121.9,20.3z"/>
	<path class="st5" d="M334,139.2v-24.3c0-2.9-2.1-5.3-5.1-5.3c-2.6,0-4.7,1.9-5.1,4.4c-2.8-2.1-6.2-3.4-9.9-3.4
		c-9.1,0-16.4,7.3-16.4,16.4c0,9.1,7.4,16.4,16.4,16.4c3.7,0,7.1-1.2,9.8-3.3c-0.3,6.5-3.6,8.7-8.8,8.7c-5.4,0-7.2-1.8-10.6-3.1
		c-3.4-1.4-5.1,1.2-5.1,1.2c-3.3,6.8,9.6,9.4,15.8,9.2C335.2,155.3,334,139.2,334,139.2z M314.4,135.1c-4.5,0-8.2-3.5-8.2-7.8
		s3.7-7.8,8.2-7.8s8.2,3.5,8.2,7.8S319,135.1,314.4,135.1z"/>
</g>
</svg>
