<?xml version="1.0" encoding="UTF-8"?>
<svg width="28px" height="29px" viewBox="0 0 28 29" version="1.1" xmlns="http://www.w3.org/2000/svg" xmlns:xlink="http://www.w3.org/1999/xlink">
    <!-- Generator: Sketch 61.2 (89653) - https://sketch.com -->
    <title>03-MB++</title>
    <desc>Created with Sketch.</desc>
    <defs>
        <rect id="path-1" x="0" y="0" width="31.671" height="31.671"></rect>
        <polygon id="path-3" points="0 3.4120354e-05 27.5313237 3.4120354e-05 27.5313237 28.0121623 0 28.0121623"></polygon>
    </defs>
    <g id="02.-Header---Footer---Banner" stroke="none" stroke-width="1" fill="none" fill-rule="evenodd">
        <g id="#-Footer" transform="translate(-174.000000, -2053.000000)">
            <g id="#-FOOTER-Mb-2" transform="translate(0.000000, 955.000000)">
                <g id="#-Bottom-bar" transform="translate(0.000000, 1085.000000)">
                    <g id="Group-14-Copy-2" transform="translate(150.000000, 6.000000)">
                        <g id="Group-2" transform="translate(21.000000, 5.000000)">
                            <g id="03-MB++" transform="translate(1.000000, 0.000000)">
                                <mask id="mask-2" fill="white">
                                    <use xlink:href="#path-1"></use>
                                </mask>
                                <g id="Rectangle"></g>
                                <g id="Group-3" mask="url(#mask-2)">
                                    <g transform="translate(2.065500, 2.065500)">
                                        <mask id="mask-4" fill="white">
                                            <use xlink:href="#path-3"></use>
                                        </mask>
                                        <g id="Clip-2" stroke="none" fill="none"></g>
                                        <path d="M2.93517908,24.9673594 L2.93517908,12.4897897 L24.6525407,12.4897897 L24.6525407,25.0401333 C24.6525407,26.0089076 23.8672364,26.7942119 22.8984133,26.7942119 L4.76208032,26.7942119 C3.75445752,26.7913848 2.93820117,25.975031 2.93517908,24.9673594 L2.93517908,24.9673594 Z M1.21795041,8.48279281 C1.22077752,7.47497504 2.03718011,6.65876743 3.0448029,6.65594032 L24.4599069,6.65594032 C25.4883919,6.65594032 26.3220983,7.48964679 26.3220983,8.51813175 L26.3220983,11.2718393 L1.21795041,11.2718393 L1.21795041,8.48279281 Z M7.43560503,5.1883264 C6.78780573,4.53501911 6.79029165,3.48094389 7.44057685,2.83070743 C8.09120326,2.18003228 9.14488853,2.17793632 9.79819582,2.82534566 L12.4107913,5.43798991 L7.68507356,5.43798991 L7.43560503,5.1883264 Z M18.987587,1.70507695 C19.3002757,1.39126718 19.7259515,1.21598605 20.168785,1.21787174 C20.8445142,1.21676594 21.4544399,1.62323685 21.7132672,2.24744435 C21.9720457,2.87179808 21.8287889,3.59076269 21.3503241,4.06781398 L21.3440362,4.07371193 L20.0165594,5.43189699 L15.2544791,5.43189699 L18.987587,1.70507695 Z M24.4924187,5.43798991 L21.721651,5.43798991 L22.2151288,4.93256998 C23.3353975,3.80104155 23.3353975,1.97813727 22.2151288,0.846267642 C21.0867687,-0.28204372 19.2570404,-0.28204372 18.1287777,0.846267642 L13.8355598,5.13353886 L10.6630981,1.96083338 C9.63963366,0.936637837 8.01618722,0.828525058 6.86603883,1.70770909 C5.71603667,2.58694187 5.39442796,4.1818247 6.11397749,5.43798991 L3.0448029,5.43798991 C1.36349809,5.43857483 0.000779893805,6.801488 0,8.48279281 L0,11.8807901 C0.000974867257,12.2166806 0.273060319,12.4888148 0.608950832,12.4897897 L1.71727742,12.4897897 L1.71727742,24.9673594 C1.71800857,26.6486642 3.0807755,28.0114312 4.76208032,28.0121623 L22.7690484,28.0121623 C24.4505482,28.0114312 25.8132664,26.6486642 25.8138513,24.9673594 L25.8138513,12.4897897 L26.9223728,12.4897897 C27.2582146,12.4888148 27.5303488,12.2166806 27.5313339,11.8807901 L27.5313339,8.48279281 C27.5334196,7.67574895 27.2138582,6.90102194 26.6437558,6.32955476 C26.0737996,5.75828255 25.2994626,5.43759996 24.4924187,5.43798991 L24.4924187,5.43798991 Z" id="Fill-1" stroke="none" fill="#FFFFFF" fill-rule="evenodd" mask="url(#mask-4)"></path>
                                    </g>
                                </g>
                            </g>
                        </g>
                    </g>
                </g>
            </g>
        </g>
    </g>
</svg>