<?xml version="1.0" encoding="UTF-8"?>
<svg width="42px" height="42px" viewBox="0 0 42 42" version="1.1" xmlns="http://www.w3.org/2000/svg" xmlns:xlink="http://www.w3.org/1999/xlink">
    <!-- Generator: Sketch 51.3 (57544) - http://www.bohemiancoding.com/sketch -->
    <title>Fill 10</title>
    <desc>Created with Sketch.</desc>
    <defs></defs>
    <g id="Page-2" stroke="none" stroke-width="1" fill="none" fill-rule="evenodd">
        <g id="01.-Home" transform="translate(-267.000000, -1987.000000)" fill="#FBAF21" stroke="#FBAF21" stroke-width="0.55">
            <g id="What-we-đo" transform="translate(170.000000, 1931.000000)">
                <path d="M117.999375,92.5127638 C114.502293,92.5127638 111.21118,91.3963306 108.4814,89.2837966 C105.783812,87.195954 103.893219,84.3370475 103.010275,81.0108768 L116.338191,81.0108768 L125.761465,90.4330476 C123.40924,91.7938959 120.727592,92.5127638 117.999375,92.5127638 M116.536033,80.0575954 L102.402997,80.0575954 C102.257351,80.0575954 102.121706,80.1229186 102.031067,80.2366873 C101.939491,80.3513936 101.905423,80.4982927 101.937616,80.6389408 C103.643181,88.1914298 110.248224,93.4660452 117.999375,93.4660452 C121.117338,93.4660452 124.154351,92.5887138 126.782866,90.929379 C126.905384,90.8509287 126.985084,90.7230952 127.001336,90.5790091 C127.017589,90.4342978 126.967581,90.2917744 126.864441,90.1886325 L116.872958,80.1976184 C116.783882,80.1076036 116.664177,80.0575954 116.536033,80.0575954 M118.475821,61.4990506 C118.521452,61.4999883 118.567084,61.5009259 118.612091,61.5028012 C118.732734,61.5074895 118.853377,61.513428 118.973082,61.5206167 C119.11404,61.5296807 119.254061,61.5403074 119.393769,61.5528094 C119.513787,61.5637487 119.634118,61.5756257 119.753198,61.5887528 C119.891031,61.604693 120.028239,61.6225084 120.164821,61.641574 C120.284214,61.6581392 120.403294,61.6756421 120.521437,61.6953328 C120.656457,61.7172114 120.790539,61.741903 120.923997,61.7675322 C121.042452,61.7900359 121.160594,61.8137898 121.277799,61.8387939 C121.409381,61.8675486 121.540338,61.8978661 121.67067,61.9297463 C121.787562,61.9581885 121.904142,61.9872557 122.020097,62.0185108 C122.148866,62.053204 122.276385,62.0900851 122.403279,62.1275912 C122.518921,62.1619719 122.633938,62.1963525 122.748017,62.2335461 C122.873348,62.2738652 122.997742,62.3163722 123.121823,62.3604419 C123.235277,62.400136 123.348419,62.4401425 123.460623,62.4823369 C123.582829,62.5285945 123.704097,62.57704 123.825052,62.6261105 C123.936006,62.6714305 124.046648,62.7167504 124.156351,62.7645707 C124.275744,62.8164543 124.393574,62.8705256 124.511091,62.9249096 C124.619858,62.9755429 124.728311,63.0264887 124.835827,63.0793099 C124.951782,63.1361942 125.065861,63.1958915 125.180253,63.2559014 C125.286207,63.3112229 125.391535,63.3668571 125.495925,63.424679 C125.608754,63.4868768 125.719708,63.5518874 125.830662,63.6172106 C125.933803,63.6778456 126.03663,63.738168 126.138521,63.8009908 C126.246662,63.8681893 126.353552,63.9375757 126.468257,64.0129006 C126.566084,64.076661 126.664224,64.1404215 126.760175,64.2066823 C126.862378,64.2766938 126.96208,64.3488932 127.070846,64.4273435 L127.088037,64.4398456 C127.1793,64.5057939 127.270876,64.5720548 127.360577,64.640191 C127.459029,64.7148907 127.555606,64.7920909 127.660621,64.8761672 L127.69969,64.9071098 C127.780014,64.9711828 127.860339,65.0352558 127.9391,65.1008916 C128.027864,65.1755913 128.114439,65.2518538 128.201327,65.3281163 L128.277276,65.3950023 C128.350411,65.4590753 128.423547,65.5231483 128.49512,65.5887841 C128.582946,65.6700474 128.668584,65.7528735 128.754534,65.8363247 L128.82892,65.9082115 C128.89518,65.9722845 128.96144,66.036045 129.026137,66.1016807 C129.09896,66.1751303 129.169908,66.2504552 129.240856,66.32578 L129.351185,66.4429867 C129.412444,66.5079974 129.473703,66.5730081 129.533712,66.6395815 C129.604348,66.7180319 129.673108,66.7986701 129.741555,66.8789958 L129.832819,66.9855758 C129.894078,67.0565249 129.955337,67.1277866 130.014721,67.200611 C130.081606,67.2824995 130.14599,67.3659507 130.210688,67.4490893 L130.307264,67.5737973 C130.362273,67.6434962 130.416968,67.7138202 130.469788,67.7853945 C130.530735,67.8672829 130.589181,67.9510467 130.64794,68.0344978 L130.74858,68.1776463 C130.798587,68.2479704 130.848282,68.3182944 130.896414,68.3901812 C130.953923,68.4761328 131.008931,68.5636472 131.064252,68.650849 L131.15364,68.7918096 C131.20146,68.8661968 131.249279,68.9412091 131.294911,69.0168465 C131.347419,69.1040483 131.397739,69.1928129 131.448059,69.2815774 L131.536509,69.4366029 C131.579328,69.5116152 131.62246,69.5866275 131.663403,69.6632026 C131.710598,69.7504044 131.755604,69.8394815 131.800298,69.928246 L131.887811,70.1004618 C131.926255,70.1754741 131.96501,70.250799 132.001578,70.3276866 C132.044085,70.4161386 132.084091,70.5064659 132.124097,70.5964807 L132.210984,70.790575 C132.244114,70.8633995 132.277244,70.9362239 132.308499,71.0106111 C132.347255,71.1028137 132.383198,71.195954 132.41914,71.2894069 L132.495089,71.4838138 C132.525094,71.5591386 132.554785,71.6341509 132.582602,71.7104134 C132.616982,71.8048039 132.648549,71.9001321 132.680117,71.9954602 L132.749502,72.2023691 C132.774818,72.2761312 132.800134,72.3505184 132.823263,72.4255308 C132.852955,72.5211714 132.879521,72.6177498 132.9064,72.7149532 L132.969535,72.9390525 C132.990163,73.0109393 133.011103,73.0831386 133.029856,73.1559631 C133.055172,73.2556669 133.077676,73.3563085 133.100179,73.45695 L133.152374,73.6847998 C133.169252,73.7566866 133.185817,73.8282609 133.200819,73.9007728 C133.222697,74.0082904 133.241137,74.1173708 133.25989,74.2261387 L133.299271,74.4486752 C133.312085,74.5180616 133.3249,74.5877605 133.335526,74.6580845 C133.353342,74.7756038 133.367406,74.8940607 133.381471,75.0131428 L133.409287,75.2350542 C133.418039,75.2991272 133.426477,75.3628877 133.433041,75.4278983 C133.447418,75.5719845 133.457107,75.7173208 133.466796,75.8629697 L133.48086,76.0517507 C133.484924,76.1039467 133.489612,76.1561428 133.492112,76.2086514 C133.505552,76.47432 133.512428,76.7406137 133.512428,76.9997187 C133.512428,79.6314005 132.839515,82.2308894 131.566201,84.517202 C130.938921,85.6430117 130.175057,86.6875581 129.295239,87.622399 L118.475821,76.8021863 L118.475821,61.4990506 Z M117.522867,76.5227655 L102.495324,76.5227655 C102.5022,76.2933528 102.514701,76.0608147 102.531891,75.8304644 C102.53658,75.763891 102.543768,75.6982552 102.550957,75.6326194 L102.57346,75.4032068 C102.583774,75.2910009 102.594088,75.1791075 102.60784,75.0678393 C102.617842,74.9878261 102.630344,74.9084381 102.642845,74.8293626 L102.679101,74.5861977 C102.692228,74.4958704 102.705042,74.4055431 102.720669,74.3158409 C102.735359,74.2333273 102.752237,74.1514389 102.769114,74.0701756 L102.816621,73.8320115 C102.833499,73.7463725 102.850064,73.6607334 102.869129,73.576032 C102.888819,73.4891427 102.91101,73.4038163 102.933201,73.3178646 L102.988522,73.0978285 C103.00915,73.0150025 103.029465,72.9315513 103.052281,72.8493503 C103.076347,72.7637112 103.102289,72.6793224 103.128543,72.5943084 L103.195427,72.3758351 C103.219181,72.2955094 103.243247,72.2154963 103.269188,72.1364208 C103.297318,72.0517194 103.327947,71.9679557 103.358264,71.8845045 L103.432963,71.6760328 C103.460779,71.5966448 103.488909,71.5169442 103.519226,71.4384938 C103.551105,71.3556677 103.58486,71.2744044 103.61924,71.1931411 L103.705503,70.9846694 C103.736758,70.9080943 103.768012,70.8312067 103.801142,70.7558818 C103.838648,70.6708679 103.878654,70.5871041 103.918347,70.5036529 L104.00211,70.3251862 C104.03899,70.2461107 104.075871,70.1673478 104.114939,70.0892099 C104.154632,70.0095094 104.196826,69.931059 104.238707,69.8522961 L104.325908,69.6875816 C104.369352,69.6053806 104.412483,69.5225545 104.458115,69.4412911 C104.503747,69.3600278 104.551254,69.2803272 104.598761,69.2009392 L104.686899,69.0518523 C104.734406,68.971214 104.781913,68.8902632 104.830983,68.8115003 C104.879427,68.7339876 104.929435,68.6580376 104.979442,68.5824002 L105.072581,68.4408145 C105.125089,68.3601763 105.177909,68.279538 105.232292,68.2004626 C105.285738,68.1232624 105.341371,68.0473124 105.396692,67.971675 L105.48483,67.8504051 C105.542963,67.7697669 105.601097,67.6894412 105.661418,67.6106783 C105.717677,67.5366037 105.775498,67.4644043 105.833632,67.3918924 L105.920519,67.2837497 C105.985217,67.2021738 106.050226,67.1209105 106.116799,67.0415224 C106.177433,66.9690105 106.240254,66.8980614 106.302764,66.8271123 L106.394965,66.7227201 C106.46185,66.6461451 106.528735,66.56957 106.597807,66.4948703 C106.659067,66.4282968 106.722201,66.3632862 106.785335,66.2979629 L106.882225,66.1973214 C106.955673,66.1213715 107.028809,66.045109 107.104445,65.9707218 C107.170392,65.9053985 107.237903,65.8419506 107.305413,65.7778776 L107.393238,65.6950515 C107.472625,65.6200392 107.552324,65.5447144 107.633586,65.4715774 C107.702346,65.4096922 107.772982,65.3487447 107.843305,65.2884223 L107.921129,65.2215363 C108.008954,65.1458989 108.09678,65.0702615 108.186481,64.996812 C108.26493,64.9324264 108.344942,64.8702287 108.424954,64.8077185 L108.474649,64.7689621 C108.569663,64.6945749 108.664364,64.6201877 108.760941,64.5483009 C108.847829,64.4839153 108.93628,64.4214051 109.024418,64.3585823 L109.041295,64.3467053 C109.145998,64.2723181 109.250389,64.1982435 109.35728,64.1263567 C109.442292,64.0691598 109.528555,64.0135257 109.61513,63.9578915 L109.644822,63.9388259 C109.753901,63.869127 109.862667,63.799428 109.972996,63.7322295 C110.070823,63.6728448 110.1699,63.6156479 110.26929,63.5587635 C110.381494,63.4937529 110.493698,63.4293673 110.607778,63.3671696 C110.700917,63.3162238 110.794993,63.2677783 110.889382,63.2190203 L110.912198,63.2071434 C111.02784,63.1474461 111.144107,63.0883739 111.261312,63.031177 C111.355076,62.9858571 111.449465,62.9424124 111.544167,62.8989678 L111.573234,62.8858406 C111.692001,62.8314567 111.811394,62.7776979 111.932037,62.7258144 C112.037365,62.680807 112.143943,62.6383 112.250834,62.5954805 C112.37304,62.54641 112.495558,62.4979645 112.619326,62.4520195 C112.727155,62.4123255 112.835921,62.3741942 112.945,62.3363755 C113.070018,62.2932434 113.195349,62.2504239 113.322243,62.2104173 C113.431947,62.1757241 113.542901,62.1429063 113.653855,62.1104009 C113.781686,62.0728948 113.910143,62.0366388 114.039225,62.0022582 C114.151429,61.9728784 114.264258,61.9450613 114.3774,61.9178693 C114.508044,61.8863017 114.639001,61.8562967 114.770896,61.8281671 C114.884663,61.8041007 114.998742,61.7812844 115.113447,61.7600309 C115.246904,61.7347143 115.380674,61.7109604 115.515069,61.6890818 C115.630398,61.6706413 115.74604,61.653451 115.861995,61.6375108 C115.998265,61.6187578 116.134848,61.6012549 116.272056,61.5856273 C116.388011,61.5731253 116.504591,61.5615609 116.621483,61.5512467 C116.760253,61.5390572 116.899962,61.5284304 117.039982,61.5199916 C117.157187,61.5128029 117.274392,61.5068644 117.39191,61.5024887 C117.435354,61.5006134 117.47911,61.4996757 117.522867,61.4987381 L117.522867,76.5227655 Z M128.982693,88.6560061 L128.959252,88.6341275 L117.801346,77.4760469 L102.011189,77.4760469 C101.748338,77.4760469 101.534556,77.2625743 101.534556,76.9997187 C101.534556,67.9204166 108.920652,60.5338923 117.9995,60.5338923 C127.07866,60.5338923 134.465382,67.9204166 134.465382,76.9997187 C134.465382,77.2685128 134.458818,77.5419952 134.445379,77.812352 C134.441003,77.9067425 134.433502,78.0005079 134.426001,78.0942733 L134.406935,78.3527532 C134.400997,78.4408926 134.395371,78.5287196 134.386932,78.616859 C134.372555,78.7609452 134.354115,78.9044062 134.335362,79.0475547 L134.310359,79.2475875 C134.304108,79.3029091 134.297544,79.3579181 134.289731,79.412302 C134.260976,79.6082717 134.225346,79.8026786 134.189716,79.9967729 L134.175026,80.0814743 C134.168775,80.1202307 134.162212,80.158987 134.15471,80.1977434 C134.114392,80.402777 134.06751,80.6062479 134.019378,80.8090937 L134.003125,80.8825432 C133.996562,80.9128607 133.989999,80.9434907 133.982497,80.9738082 C133.930927,81.1819674 133.872794,81.3879386 133.813097,81.5932848 L133.795907,81.6567327 C133.788406,81.6842373 133.781218,81.7114292 133.772779,81.7386212 C133.71152,81.9442799 133.643072,82.1474383 133.573374,82.3505966 L133.552121,82.4156072 C133.543682,82.4412365 133.535556,82.4668657 133.526492,82.4921823 C133.456169,82.6909649 133.379595,82.8872471 133.301771,83.0829042 L133.278018,83.1447894 C133.266766,83.1747943 133.255514,83.2041741 133.243325,83.2338665 C133.165814,83.42296 133.082051,83.6095531 132.997351,83.7958337 L132.966409,83.8661577 C132.952344,83.8983505 132.938592,83.9302307 132.923903,83.9617984 C132.840453,84.1393275 132.751377,84.3143563 132.661989,84.4890724 L132.62167,84.5693981 C132.604168,84.605029 132.586353,84.6403472 132.567912,84.6750404 C132.480087,84.8413177 132.386636,85.0041569 132.292872,85.1673087 L132.246927,85.2491971 C132.223799,85.2904539 132.20067,85.3317107 132.176604,85.3726549 C132.085028,85.5261176 131.988764,85.6770798 131.892187,85.8280421 L131.84093,85.909618 C131.810925,85.9574383 131.780921,86.0052587 131.749666,86.0527665 C131.662778,86.1837255 131.571827,86.312184 131.480876,86.4409552 L131.396801,86.5606623 C131.360858,86.6122333 131.324915,86.6634917 131.287722,86.7144375 C131.199272,86.8344572 131.107071,86.952289 131.014869,87.0701209 L130.929232,87.1804515 C130.884225,87.2388986 130.838906,87.2970331 130.792336,87.3545425 C130.707324,87.4592472 130.619186,87.561764 130.531048,87.6639683 L130.422907,87.7896139 C130.370711,87.8511865 130.318516,87.9124466 130.264446,87.9724564 C130.17537,88.0721603 130.083169,88.1690512 129.990655,88.2665672 L129.945023,88.3147001 C129.918769,88.3422046 129.89314,88.3703342 129.867824,88.3981513 C129.831569,88.4372202 129.795313,88.4766016 129.757495,88.515358 L129.633414,88.6416287 C129.544651,88.7303933 129.42182,88.7810266 129.296802,88.7810266 C129.20335,88.7810266 129.112712,88.7538346 129.034263,88.7022637 C129.011447,88.6866361 128.995507,88.6697583 128.982693,88.6560061 Z M100.448707,68.4246244 C100.216173,68.303667 100.125222,68.0154947 100.245865,67.7823315 C102.115517,64.1879918 104.991569,61.2762641 108.563037,59.3612624 C108.801197,59.2387423 109.084364,59.3246939 109.208445,59.5562944 C109.331901,59.7878949 109.2447,60.0773174 109.014041,60.2014002 C105.611974,62.0245118 102.872505,64.7977793 101.092553,68.2217786 C101.009728,68.3799295 100.847516,68.4783832 100.669365,68.4783832 C100.591541,68.4783832 100.517155,68.4602552 100.448707,68.4246244 Z M119.288473,57.0406317 C129.780967,57.7079286 138,66.474992 138,76.9995312 C138,88.027903 129.027731,97 117.999219,97 C106.971644,97 98,88.027903 98,76.9995312 C98,75.3705139 98.1969042,73.7486853 98.5850868,72.1796779 C98.6160289,72.0543449 98.6929154,71.9493276 98.8016815,71.8836919 C98.90951,71.8186812 99.0370289,71.7989905 99.1617349,71.8311832 C99.2858159,71.8621258 99.3905189,71.939326 99.4561536,72.0490315 C99.5214758,72.1577993 99.5402286,72.2853202 99.5092865,72.408778 C99.1401692,73.9037108 98.9532665,75.4486517 98.9532665,76.9995312 C98.9532665,87.5025043 107.497035,96.0470312 117.999219,96.0470312 C128.502028,96.0470312 137.046733,87.5025043 137.046733,76.9995312 C137.046733,66.9763242 129.219634,58.627142 119.227526,57.9917252 C118.81809,57.966096 118.404904,57.9529688 117.999219,57.9529688 C117.73668,57.9529688 117.522898,57.7391838 117.522898,57.4766407 C117.522898,57.2137851 117.73668,57 117.999219,57 C118.434596,57 118.868098,57.0137523 119.288473,57.0406317 Z M113.971965,58.3689746 C113.748494,58.3689746 113.552215,58.209886 113.505333,57.9911001 C113.4522,57.7332453 113.617537,57.4800788 113.873825,57.4260074 C114.517045,57.2912978 115.180269,57.185968 115.845368,57.1137687 C116.114158,57.0856391 116.342316,57.2725447 116.370133,57.5375882 C116.384198,57.6632338 116.348255,57.7876292 116.268555,57.886708 C116.188856,57.9860993 116.075089,58.0486095 115.948508,58.0623618 C115.31904,58.1295603 114.687071,58.2292642 114.070104,58.3586604 C114.037287,58.3655365 114.005095,58.3689746 113.971965,58.3689746 Z" id="Fill-10"></path>
            </g>
        </g>
    </g>
</svg>