<?xml version="1.0" encoding="UTF-8"?>
<svg width="42px" height="40px" viewBox="0 0 42 40" version="1.1" xmlns="http://www.w3.org/2000/svg" xmlns:xlink="http://www.w3.org/1999/xlink">
    <!-- Generator: Sketch 51.3 (57544) - http://www.bohemiancoding.com/sketch -->
    <title>Combined Shape</title>
    <desc>Created with Sketch.</desc>
    <defs></defs>
    <g id="Page-2" stroke="none" stroke-width="1" fill="none" fill-rule="evenodd">
        <g id="02.About-Us" transform="translate(-740.000000, -3367.000000)" fill="#FBAF21">
            <g id="Group-8" transform="translate(740.000000, 3367.000000)">
                <g id="Group-5">
                    <path d="M4.5168,14.1936 L3.2264,14.1936 L3.2264,11.6128 L5.1616,11.6128 L16.7744,11.6128 L18.7104,11.6128 L18.7104,14.1936 L17.42,14.1936 L4.5168,14.1936 Z M5.1616,20.3776 L5.1616,15.484 L10.056,15.484 L5.1616,20.3776 Z M16.7744,16.524 L5.1616,28.1368 L5.1616,22.2024 L11.8808,15.484 L16.7744,15.484 L16.7744,16.524 Z M16.7744,23.6496 L5.1616,35.2624 L5.1616,29.9616 L16.7744,18.3488 L16.7744,23.6496 Z M16.7744,31.9952 L10.06,38.7096 L5.1616,38.7096 L5.1616,37.0872 L16.7744,25.4752 L16.7744,31.9952 Z M16.7744,38.7096 L11.8848,38.7096 L16.7744,33.82 L16.7744,38.7096 Z M5.8072,10.3224 L16.1296,10.3224 L16.1296,8.3872 L5.8072,8.3872 L5.8072,10.3224 Z M5.8072,7.096 L16.1296,7.096 L16.1296,5.1608 L5.8072,5.1608 L5.8072,7.096 Z M9.0328,3.8704 L12.904,3.8704 L12.904,2.58 L9.0328,2.58 L9.0328,3.8704 Z M18.0656,38.7096 L41.2912,38.7096 L41.2912,40 L17.42,40 L4.5168,40 L0,40 L0,38.7096 L3.8712,38.7096 L3.8712,15.484 L3.2264,15.484 C2.5136,15.484 1.936,14.9064 1.936,14.1936 L1.936,10.9672 C1.936,10.6112 2.2248,10.3224 2.5816,10.3224 L4.5168,10.3224 L4.5168,8.3872 L3.2264,8.3872 L3.2264,7.0968 L4.5168,7.0968 L4.5168,5.1608 L3.2264,5.1608 L3.2264,3.8712 L5.1616,3.8712 L7.7424,3.8712 L7.7424,1.9352 C7.7424,1.5792 8.0312,1.2904 8.3872,1.2904 L9.6784,1.2904 L9.6784,0 L12.2584,0 L12.2584,1.2904 L13.5488,1.2904 C13.9048,1.2904 14.1944,1.5792 14.1944,1.9352 L14.1944,3.8712 L16.7744,3.8712 L18.7104,3.8712 L18.7104,5.1608 L17.42,5.1608 L17.42,7.0968 L18.7104,7.0968 L18.7104,8.3872 L17.42,8.3872 L17.42,10.3224 L19.3552,10.3224 C19.712,10.3224 20,10.6112 20,10.9672 L20,14.1936 C20,14.9064 19.4232,15.484 18.7104,15.484 L18.0656,15.484 L18.0656,38.7096 Z M26.7192,16.77408 L21.1024,22.39088 L20.1896,21.47968 L25.996,15.67328 C26.1168,15.55168 26.2808,15.48368 26.452,15.48368 L31.992,15.48368 L37.1528,10.32288 L34.1944,10.32288 L34.1944,9.03248 L38.7104,9.03248 C39.0672,9.03248 39.3552,9.32128 39.3552,9.67728 L39.3552,14.19328 L38.0656,14.19328 L38.0656,11.23488 L32.7144,16.58528 C32.5944,16.70608 32.4304,16.77408 32.2584,16.77408 L26.7192,16.77408 Z M31.61336,36.77424 L31.61336,23.87104 L32.90296,23.87104 L32.90296,36.77424 L31.61336,36.77424 Z M34.83976,36.77344 L34.83976,17.41904 L36.12936,17.41904 L36.12936,36.77344 L34.83976,36.77344 Z M38.06536,36.77424 L38.06536,16.12864 L39.35496,16.12864 L39.35496,36.77424 L38.06536,36.77424 Z M28.38776,36.77424 L28.38776,18.70944 L29.67736,18.70944 L29.67736,36.77424 L28.38776,36.77424 Z M25.16216,32.25744 L25.16216,21.29024 L26.45176,21.29024 L26.45176,32.25744 L25.16216,32.25744 Z M25.16216,36.77424 L25.16216,33.54864 L26.45176,33.54864 L26.45176,36.77424 L25.16216,36.77424 Z M21.93656,36.77424 L21.93656,23.87104 L23.22616,23.87104 L23.22616,36.77424 L21.93656,36.77424 Z M31.61416,22.57984 L31.61416,18.70944 L32.90376,18.70944 L32.90376,22.57984 L31.61416,22.57984 Z" id="Combined-Shape"></path>
                </g>
            </g>
        </g>
    </g>
</svg>