<?xml version="1.0" encoding="UTF-8"?>
<svg width="35px" height="40px" viewBox="0 0 35 40" version="1.1" xmlns="http://www.w3.org/2000/svg" xmlns:xlink="http://www.w3.org/1999/xlink">
    <!-- Generator: Sketch 51.3 (57544) - http://www.bohemiancoding.com/sketch -->
    <title>Fill 1</title>
    <desc>Created with Sketch.</desc>
    <defs></defs>
    <g id="Page-2" stroke="none" stroke-width="1" fill="none" fill-rule="evenodd">
        <g id="02.About-Us" transform="translate(-740.000000, -3602.000000)" fill="#FBAF21">
            <g id="Group-8" transform="translate(740.000000, 3367.000000)">
                <g id="Group-6" transform="translate(0.000000, 235.000000)">
                    <path d="M26.8116502,29.87583 C27.3740596,27.8133954 27.7484659,25.5005565 27.7484659,23.1261167 L33.4981625,23.1261167 L33.6861656,23.1261167 C33.3109593,25.9381639 30.6861153,28.3758048 26.8116502,29.87583 Z M22.2491736,38.0623675 C23.998803,36.5623423 25.4364271,34.2511035 26.3740429,31.3758552 C29.1860901,30.3758384 31.4981289,28.9382143 33.0613551,27.2509859 C31.4357278,32.375872 27.3740596,36.4375402 22.2491736,38.0623675 Z M18.1243043,38.687978 L18.1243043,32.8134793 C20.5619453,32.7510783 22.811583,32.438273 24.8740177,31.8758636 C23.3739925,35.7503286 20.9363515,38.3751727 18.1243043,38.687978 Z M26.562046,23.1261167 C26.498845,25.7509607 26.1244387,28.2510027 25.4364271,30.4382394 C23.2491904,31.125451 20.8115495,31.5006573 18.1243043,31.5630583 L18.1243043,23.1261167 L26.562046,23.1261167 Z M3.56245982,21.8764957 L7.62492803,14.1891666 L11.9370004,18.501239 L17.4986938,9.93949524 L22.3115746,17.8140275 L27.2492576,14.0635645 L31.4357278,21.8764957 L3.56245982,21.8764957 Z M16.8746833,31.5630583 C14.2490393,31.5006573 11.7497973,31.125451 9.56176056,30.4382394 C8.87454902,28.2510027 8.49934272,25.8133618 8.43694167,23.1261167 L16.8746833,23.1261167 L16.8746833,31.5630583 Z M16.8746833,38.687978 C14.0618361,38.3127717 11.6249952,35.6879276 10.12497,31.8134625 C12.1866046,32.438273 14.4370424,32.7510783 16.8746833,32.8134793 L16.8746833,38.687978 Z M1.93763254,27.2509859 C3.43765772,29.0006153 5.74969655,30.4382394 8.62494482,31.3758552 C9.62496162,34.1887024 11.0617857,36.4999412 12.7490141,38.0623675 C7.62492803,36.4375402 3.56245982,32.375872 1.93763254,27.2509859 Z M1.37522309,23.1261167 L7.18732068,23.1261167 C7.24972173,25.5629576 7.56172697,27.8133954 8.12493643,29.87583 C4.24967136,28.3758048 1.62482728,25.8757628 1.24962098,23.1261167 L1.37522309,23.1261167 Z M18.1243043,2.31456721 L19.8739337,4.37700184 L18.1243043,4.37700184 L18.1243043,2.31456721 Z M34.3733772,21.8764957 L32.873352,21.8764957 L27.6860649,12.189133 L22.6243799,15.938796 L18.1243043,8.56427215 L18.1243043,5.62662282 L21.2491568,5.62662282 C21.6243631,5.62662282 21.8739673,5.37701863 21.8739673,5.00181233 C21.8739673,4.81460919 21.8115662,4.62660603 21.6243631,4.50180394 L17.9363012,0.189731531 C17.8114991,0.0025283878 17.4986938,-0.05987266 17.3114907,0.0649294356 C17.0618865,0.127330483 16.8746833,0.376934675 16.8746833,0.627338879 L16.8746833,5.00181233 L16.8746833,8.56427215 L11.7497973,16.5012054 L7.31212278,12.0643309 L2.12483568,21.8764957 L0.624810491,21.8764957 C0.249604191,21.8764957 0,22.1260999 0,22.5013062 L0,22.5637072 C0.0624010478,32.1886688 7.81213118,39.937599 17.4370928,40 L17.4986938,40 L17.5610949,40 C27.1868565,39.937599 34.9357866,32.1886688 34.9981877,22.5637072 L34.9981877,22.5013062 C34.9981877,22.1260999 34.7485835,21.8764957 34.3733772,21.8764957 Z" id="Fill-1"></path>
                </g>
            </g>
        </g>
    </g>
</svg>