<?xml version="1.0" encoding="UTF-8"?>
<svg width="39px" height="28px" viewBox="0 0 39 28" version="1.1" xmlns="http://www.w3.org/2000/svg" xmlns:xlink="http://www.w3.org/1999/xlink">
    <!-- Generator: Sketch 51.3 (57544) - http://www.bohemiancoding.com/sketch -->
    <title>“ copy 2</title>
    <desc>Created with Sketch.</desc>
    <defs></defs>
    <g id="Page-2" stroke="none" stroke-width="1" fill="none" fill-rule="evenodd">
        <g id="01.-Home" transform="translate(-961.000000, -4696.000000)" fill="#FBAF21">
            <g id="Our-team" transform="translate(124.000000, 4348.000000)">
                <g id="team-3" transform="translate(806.000000, 348.000000)">
                    <path d="M41.4980469,0 L42.3769531,1.80664062 C38.6171875,3.46679688 35.4433594,7.12890625 34.8574219,10.6445312 C34.6621094,11.4746094 34.5644531,12.2070312 34.5644531,12.9394531 C34.5644531,13.5742188 34.6132812,14.1601562 34.7597656,14.7949219 C36.1757812,13.28125 38.2265625,12.4023438 40.6191406,12.4023438 C45.2089844,12.4023438 48.4804688,15.234375 48.4804688,20.1171875 C48.4804688,24.7558594 45.0136719,27.8808594 40.2773438,27.8808594 C37.0058594,27.8808594 34.6132812,26.5625 33.1972656,24.3652344 C31.78125,22.3144531 31,19.140625 31,16.015625 C31,9.375 34.3203125,3.3203125 41.4980469,0 Z M62.0546875,0 L62.9824219,1.80664062 C59.2226562,3.46679688 56.0488281,7.12890625 55.4140625,10.6445312 C55.21875,11.4257812 55.1699219,12.1582031 55.1699219,12.890625 C55.1699219,13.5253906 55.21875,14.1601562 55.3652344,14.7949219 C56.78125,13.28125 58.8320312,12.4023438 61.2246094,12.4023438 C65.8144531,12.4023438 69.0859375,15.234375 69.0859375,20.1171875 C69.0859375,24.7558594 65.6191406,27.8808594 60.8828125,27.8808594 C57.6113281,27.8808594 55.21875,26.5625 53.7539062,24.3652344 C52.3867188,22.3144531 51.6054688,19.140625 51.6054688,16.015625 C51.6054688,9.375 54.9257812,3.3203125 62.0546875,0 Z" id="“-copy-2"></path>
                </g>
            </g>
        </g>
    </g>
</svg>