<?xml version="1.0" encoding="UTF-8"?>
<svg width="30px" height="35px" viewBox="0 0 30 35" version="1.1" xmlns="http://www.w3.org/2000/svg" xmlns:xlink="http://www.w3.org/1999/xlink">
    <!-- Generator: Sketch 51.3 (57544) - http://www.bohemiancoding.com/sketch -->
    <title>Combined Shape</title>
    <desc>Created with Sketch.</desc>
    <defs></defs>
    <g id="Page-2" stroke="none" stroke-width="1" fill="none" fill-rule="evenodd">
        <g id="03.Web-development" transform="translate(-170.000000, -2220.000000)" fill="#FBAF21">
            <g id="Group-1" transform="translate(170.000000, 2220.000000)">
                <g id="Group-9">
                    <path d="M25.6566672,0.612962108 L28.1167929,2.42660415 C29.4740356,3.4270389 29.7111502,5.30235038 28.6463517,6.61457785 L27.6820103,7.80358326 L20.3017493,2.3654895 L21.2661777,1.17689289 C22.3327152,-0.13659017 24.2990767,-0.388494631 25.6566672,0.612962108 Z M8.01618959,29.8591313 L23.1435277,11.0074681 L24.3875896,11.8813229 L9.2526288,30.7548857 C8.98876235,31.0870305 8.4985342,31.1541895 8.15635414,30.905205 C7.81559428,30.6572424 7.75200432,30.1887066 8.01618959,29.8591313 Z M5.07171076,28.7456155 C4.73040021,28.4977114 4.66698415,28.0284455 4.93125636,27.6992498 L20.0588843,8.84752826 L21.3024535,9.72152899 L6.16726082,28.5956174 C5.90336539,28.9271198 5.413572,28.9944248 5.07171076,28.7456155 Z M1.97134668,26.4233086 C1.62951442,26.1751709 1.56662007,25.7070146 1.8301677,25.3769138 L16.9461443,6.3977946 L18.2618825,7.39253545 L3.06672284,26.2740114 C2.80334912,26.6035866 2.31213553,26.6707456 1.97134668,26.4233086 Z M6.41134018,30.9158891 C6.53973741,31.369942 6.77914172,31.7945325 7.19792536,32.097945 C7.23343024,32.124137 7.27432606,32.1410143 7.31101926,32.1642571 L0,35 L0.920866072,27.5149599 C0.95816793,27.5471669 0.976253679,27.5898859 1.01523658,27.6187934 C1.42613669,27.9156652 1.9169735,28.0620425 2.42696844,28.0590641 C2.42389618,28.2018207 2.42085291,28.3447525 2.43995308,28.489407 C2.54629381,29.2794007 2.96841057,29.9769194 3.62958383,30.4573394 C4.29029335,30.9368835 5.11003574,31.1395284 5.93844421,31.0265845 C6.10098409,31.0047433 6.25717656,30.9610024 6.41134018,30.9158891 Z M17.0213987,6.27254647 L18.4979605,4.46671157 L25.9587981,9.91586289 L24.4869833,11.7567563 L17.0213987,6.27254647 Z" id="Combined-Shape"></path>
                </g>
            </g>
        </g>
    </g>
</svg>