<?xml version="1.0" encoding="UTF-8"?>
<svg width="30px" height="40px" viewBox="0 0 30 40" version="1.1" xmlns="http://www.w3.org/2000/svg" xmlns:xlink="http://www.w3.org/1999/xlink">
    <!-- Generator: Sketch 51.3 (57544) - http://www.bohemiancoding.com/sketch -->
    <title>Fill 1</title>
    <desc>Created with Sketch.</desc>
    <defs></defs>
    <g id="Page-2" stroke="none" stroke-width="1" fill="none" fill-rule="evenodd">
        <g id="03.Web-development" transform="translate(-550.000000, -2220.000000)" fill="#FBAF21">
            <g id="Group-2" transform="translate(550.000000, 2220.000000)">
                <path d="M7.8179287,11.0756367 C7.8179287,10.56967 8.22484539,10.1604033 8.72677883,10.1604033 L23.9097275,10.1604033 C24.4115616,10.1604033 24.818379,10.56967 24.818379,11.0756367 C24.818379,11.5812033 24.4115947,11.9909367 23.9097275,11.9909367 L8.72677883,11.9909367 C8.22484539,11.9909367 7.8179287,11.5812367 7.8179287,11.0756367 Z M23.9097308,16.6591 C24.4115649,16.6591 24.8183823,17.0687333 24.8183823,17.5745333 C24.8183823,18.0801 24.411598,18.4904 23.9097308,18.4904 L8.72678214,18.4904 C8.2248487,18.4904 7.81793201,18.0801 7.81793201,17.5745333 C7.81793201,17.0687667 8.2248487,16.6591 8.72678214,16.6591 L23.9097308,16.6591 Z M23.9097308,23.1577333 C24.4115649,23.1577333 24.8183823,23.5674333 24.8183823,24.0736333 C24.8183823,24.5789667 24.411598,24.9885 23.9097308,24.9885 L8.72678214,24.9885 C8.2248487,24.9885 7.81793201,24.5789667 7.81793201,24.0736333 C7.81793201,23.5674333 8.2248487,23.1577333 8.72678214,23.1577333 L23.9097308,23.1577333 Z M23.9097308,29.6578633 C24.4115649,29.6578633 24.8183823,30.0669633 24.8183823,30.57213 C24.8183823,31.0780967 24.411598,31.4883967 23.9097308,31.4883967 L8.72678214,31.4883967 C8.2248487,31.4883967 7.81793201,31.0780633 7.81793201,30.57213 C7.81793201,30.0669633 8.2248487,29.6578633 8.72678214,29.6578633 L23.9097308,29.6578633 Z M3.59040496,11.0756367 C3.59040496,10.56967 3.99834797,10.1604033 4.49991723,10.1604033 C5.00178446,10.1604033 5.40837008,10.56967 5.40837008,11.0756367 C5.40837008,11.5812033 5.00178446,11.9909367 4.49991723,11.9909367 C3.99838107,11.9909367 3.59040496,11.5812367 3.59040496,11.0756367 Z M3.59040496,17.5745333 C3.59040496,17.0687667 3.99834797,16.6591 4.49991723,16.6591 C5.00178446,16.6591 5.40837008,17.0687333 5.40837008,17.5745333 C5.40837008,18.0801 5.00178446,18.4904 4.49991723,18.4904 C3.99838107,18.4904 3.59040496,18.0801 3.59040496,17.5745333 Z M3.59040496,24.0736333 C3.59040496,23.5674333 3.99834797,23.1577333 4.49991723,23.1577333 C5.00178446,23.1577333 5.40837008,23.5674333 5.40837008,24.0736333 C5.40837008,24.5789667 5.00178446,24.9885 4.49991723,24.9885 C3.99838107,24.9885 3.59040496,24.5789667 3.59040496,24.0736333 Z M3.59040496,30.57213 C3.59040496,30.0669633 3.99834797,29.6578633 4.49991723,29.6578633 C5.00178446,29.6578633 5.40837008,30.0669633 5.40837008,30.57213 C5.40837008,31.0780967 5.00178446,31.4883967 4.49991723,31.4883967 C3.99838107,31.4883967 3.59040496,31.0780633 3.59040496,30.57213 Z M0,0 L0,40 L30,40 L30,6.95673333 L22.9089031,0 L0,0 Z M2.02246633,1.66756667 L22.272655,1.66756667 L22.272655,7.5059 L28.2534133,7.5969 L28.2534133,38.3423667 L2.02100963,38.3423667 L2.02246633,1.66756667 Z" id="Fill-1"></path>
            </g>
        </g>
    </g>
</svg>