<?xml version="1.0" encoding="UTF-8"?>
<svg width="42px" height="42px" viewBox="0 0 42 42" version="1.1" xmlns="http://www.w3.org/2000/svg" xmlns:xlink="http://www.w3.org/1999/xlink">
    <!-- Generator: Sketch 51.3 (57544) - http://www.bohemiancoding.com/sketch -->
    <title>Fill 5</title>
    <desc>Created with Sketch.</desc>
    <defs></defs>
    <g id="Page-2" stroke="none" stroke-width="1" fill="none" fill-rule="evenodd">
        <g id="03.Web-development" transform="translate(-929.000000, -2219.000000)" fill="#FBAF21" stroke="#FBAF21">
            <g id="Group-3" transform="translate(930.000000, 2215.000000)">
                <g id="icon-Ui-design" transform="translate(0.000000, 5.000000)">
                    <path d="M19.5667424,20.9093233 L19.5667424,11.0894649 L23.0170376,11.0894649 L23.0170376,20.6561926 C23.0170376,25.9204636 20.6336208,28.4260043 16.6385329,28.4260043 C12.7796284,28.4260043 10.509688,26.0469995 10.509688,20.6056018 L10.509688,11.0894649 L13.9826903,11.0894649 L13.9826903,20.9093233 C13.9826903,23.8451214 14.9815064,25.3383748 16.7520093,25.3383748 C18.5679263,25.3383748 19.5667424,23.9210665 19.5667424,20.9093233 Z M26.0131801,28.1476194 L26.0131801,11.0894473 L29.4861824,11.0894473 L29.4861824,28.1476194 L26.0131801,28.1476194 Z M38.2503805,18.3827697 L36.7682454,18.3827697 L36.7682454,21.8853617 L38.2503805,21.8853617 L38.2503805,36.4988198 L36.7682454,36.4988198 L36.7682454,38.2500864 L21.8863618,38.2500864 L21.8863618,36.4988198 L18.3842404,36.4988198 L18.3842404,38.2500864 L3.50212143,38.2500864 L3.50212143,36.4988198 L2.01951571,36.4988198 L2.01951571,21.6155243 L3.50212143,21.6155243 L3.50212143,18.1141676 L2.01951571,18.1141676 L2.01951571,3.50112138 L3.50306266,3.50112138 L3.50306266,2.01898627 L18.3842404,2.01898627 L18.3842404,3.50112138 L21.8863618,3.50112138 L21.8863618,2.01898627 L36.7682454,2.01898627 L36.7682454,3.50112138 L38.2503805,3.50112138 L38.2503805,18.3827697 Z M40.2696609,3.50112138 L40.2696609,0 L36.7682454,0 L36.7682454,1.48207628 L21.8863618,1.48207628 L21.8863618,0 L18.3842404,0 L18.3842404,1.48207628 L3.50306266,1.48207628 L3.50306266,0 L0.000705918687,0 L0.000705918687,3.50112138 L1.48260572,3.50112138 L1.48260572,18.1141676 L0,18.1141676 L0,21.6155243 L1.48260572,21.6155243 L1.48260572,36.4988198 L0,36.4988198 L0,40 L3.50212143,40 L3.50212143,38.7869964 L18.3842404,38.7869964 L18.3842404,40 L21.8863618,40 L21.8863618,38.7869964 L36.7682454,38.7869964 L36.7682454,40 L40.2696609,40 L40.2696609,36.4988198 L38.7872905,36.4988198 L38.7872905,21.8853617 L40.2696609,21.8853617 L40.2696609,18.3827697 L38.7872905,18.3827697 L38.7872905,3.50112138 L40.2696609,3.50112138 Z" id="Fill-5"></path>
                </g>
            </g>
        </g>
    </g>
</svg>