<?xml version="1.0" encoding="UTF-8"?>
<svg width="43px" height="42px" viewBox="0 0 43 42" version="1.1" xmlns="http://www.w3.org/2000/svg" xmlns:xlink="http://www.w3.org/1999/xlink">
    <!-- Generator: Sketch 51.3 (57544) - http://www.bohemiancoding.com/sketch -->
    <title>Fill 1</title>
    <desc>Created with Sketch.</desc>
    <defs></defs>
    <g id="Page-2" stroke="none" stroke-width="1" fill="none" fill-rule="evenodd">
        <g id="03.Web-development" transform="translate(-169.000000, -2731.000000)" fill="#FBAF21" stroke="#FBAF21" stroke-width="0.5">
            <g id="Group-4" transform="translate(170.000000, 2731.000000)">
                <g id="Group-10">
                    <path d="M36.3128046,38.5761483 C36.3128046,39.1530551 35.8506446,39.622665 35.2824458,39.622665 L25.4091162,39.622665 C24.8409987,39.622665 24.3788387,39.1531378 24.3788387,38.5761483 L24.3788387,36.7758255 L36.3128046,36.7758255 L36.3128046,38.5761483 Z M32.1991899,19.1436646 C32.5737031,19.1436646 32.8772525,19.4519985 32.8772525,19.8324147 C32.8772525,20.2127483 32.5737031,20.5211649 32.1991899,20.5211649 L28.4923883,20.5211649 C28.1179565,20.5211649 27.8143258,20.212831 27.8143258,19.8324147 C27.8143258,19.4520812 28.1178751,19.1436646 28.4923883,19.1436646 L32.1991899,19.1436646 Z M24.378676,19.3637224 C24.3787573,18.7866503 24.8409173,18.3172057 25.4090348,18.3172057 L35.2823644,18.3172057 C35.8504818,18.3172057 36.3126418,18.7866503 36.3126418,19.3637224 L36.3126418,35.3983252 L24.378676,35.3983252 L24.378676,19.3637224 Z M20.1682266,30.5852578 C20.2814269,29.9964475 21.0724456,29.8372381 21.3969098,30.3372681 C21.5837594,30.6254322 21.5324083,31.0179173 21.2736183,31.2429266 C21.0569833,31.4313161 20.7368323,31.4595043 20.4906562,31.3136037 C20.2441546,31.1674551 20.1135389,30.8695367 20.1682266,30.5852578 Z M29.9157663,38.7313817 C29.6970154,38.5485306 29.6124611,38.2379647 29.7079204,37.9670773 C29.8015894,37.7017283 30.051509,37.5180506 30.329098,37.5108589 C30.6076635,37.5035845 30.8643377,37.6761853 30.9720855,37.9355826 C31.0908197,38.2367248 30.9895823,38.5916808 30.7216776,38.7722173 C30.4763153,38.9375438 30.1435504,38.9218378 29.9157663,38.7313817 Z M38.3497592,1 L3.31617506,1 C1.4877174,1 0,2.51091878 0,4.36844455 L0,9.26409253 C0,9.64450878 0.303630743,9.95284269 0.678062545,9.95284269 C1.05257573,9.95284269 1.35612509,9.64442612 1.35612509,9.26409253 L1.35612509,4.36844455 C1.35612509,3.270594 2.23544167,2.3775003 3.31617506,2.3775003 L38.3496778,2.3775003 C39.4309809,2.3775003 40.310623,3.27067666 40.310623,4.36844455 L40.310623,27.8788632 L37.6688483,27.8788632 L37.6688483,19.3637224 C37.6688483,18.0270577 36.5982875,16.9397054 35.2824458,16.9397054 L25.4091162,16.9397054 C24.0931931,16.9397054 23.0227136,18.0271404 23.0227136,19.3637224 L23.0227136,32.5101541 L3.31617506,32.5101541 C2.23544167,32.5101541 1.35612509,31.6168951 1.35612509,30.5192099 L1.35612509,29.2565288 L21.4405134,29.2565288 C21.815108,29.2565288 22.118576,28.9481123 22.118576,28.5677787 C22.118576,28.1873624 21.8149452,27.8790285 21.4405134,27.8790285 L1.35612509,27.8790285 L1.35612509,11.5599815 C1.35612509,11.1795652 1.05249435,10.8712313 0.678062545,10.8712313 C0.303630743,10.8712313 0,11.1796479 0,11.5599815 L0,30.5191272 C0,32.3765703 1.4877174,33.8875718 3.31617506,33.8875718 L14.9362563,33.8875718 L13.2683624,37.851109 L10.0109441,37.851109 C9.63643087,37.851109 9.33288151,38.1595256 9.33288151,38.5398592 C9.33288151,38.9202754 9.63651225,39.2286093 10.0109441,39.2286093 L13.7158739,39.2286093 L21.2726254,39.2286093 L21.3629578,39.2286093 C21.737471,39.2286093 22.0410203,38.9201928 22.0410203,38.5398592 C22.0410203,38.1594429 21.7373896,37.851109 21.3629578,37.851109 L21.2726254,37.851109 L14.7431403,37.851109 L15.9020803,35.0970177 L23.0226322,35.0970177 L23.0226322,38.575983 C23.0226322,39.9126477 24.0931931,41 25.4090348,41 L35.2823644,41 C36.5982875,41 37.6687669,39.912565 37.6687669,38.575983 L37.6687669,29.2563635 L40.3105416,29.2563635 L40.3105416,30.5190446 C40.3105416,31.3209607 39.8403249,32.0411229 39.1126202,32.353838 C38.7677296,32.5020531 38.606352,32.9061111 38.7522673,33.2564379 C38.8616427,33.519307 39.112783,33.6771112 39.3771069,33.6771112 C39.4651607,33.6771112 39.5547606,33.6595039 39.6409426,33.6225534 C40.8714975,33.0938393 41.6666667,31.8757137 41.6666667,30.5191272 L41.6666667,4.36844455 C41.6668294,2.51091878 40.1787865,1 38.3497592,1 Z" id="Fill-1"></path>
                </g>
            </g>
        </g>
    </g>
</svg>