<?xml version="1.0" encoding="UTF-8"?>
<svg width="36px" height="47px" viewBox="0 0 36 47" version="1.1" xmlns="http://www.w3.org/2000/svg" xmlns:xlink="http://www.w3.org/1999/xlink">
    <!-- Generator: Sketch 51.3 (57544) - http://www.bohemiancoding.com/sketch -->
    <title>Fill 8</title>
    <desc>Created with Sketch.</desc>
    <defs></defs>
    <g id="Page-2" stroke="none" stroke-width="1" fill="none" fill-rule="evenodd">
        <g id="03.Web-development" transform="translate(-549.000000, -2731.000000)" fill="#FBAF21" stroke="#FBAF21" stroke-width="0.5">
            <g id="Group-5" transform="translate(550.000000, 2731.000000)">
                <g id="Group-6">
                    <path d="M11.7835758,23.0593032 L14.2139247,25.5292062 C14.501516,25.8220056 14.9677011,25.8220056 15.2552924,25.5292062 L24.3035549,16.3088848 L26.2111026,18.248505 L14.7294532,29.9387295 L9.88201191,24.9988296 L11.7835758,23.0593032 Z M14.7294532,31.7493418 C14.5341047,31.7493418 14.3468574,31.6702119 14.2087694,31.5295781 L8.31701453,25.5292062 C8.0295153,25.2363131 8.0295153,24.7615337 8.31701453,24.4686405 L11.262892,21.4684546 C11.5504832,21.1756552 12.0166684,21.1756552 12.3042596,21.4684546 L14.7294532,23.9383576 L23.7828711,14.7180362 C24.0705544,14.4252368 24.5366475,14.4252368 24.8242388,14.7180362 L27.7701162,17.7182221 C28.0576154,18.0111153 28.0576154,18.4858947 27.7701162,18.7787879 L15.2501371,31.5295781 C15.1120491,31.6702119 14.9248017,31.7493418 14.7294532,31.7493418 Z M23.2208805,41.253237 C23.5802776,41.058975 24.0262098,41.1981086 24.2169553,41.5641313 C24.4077009,41.930154 24.2710858,42.3843072 23.9116888,42.5785692 C23.5684941,42.7638307 23.2164617,42.9370914 22.8584455,43.0968513 L16.4969153,45.9372774 C16.3091156,46.0209075 16.0955395,46.0209075 15.9077398,45.9372774 L9.54832685,43.0968513 C6.48304932,41.7299853 3.92418653,39.4055913 2.24181434,36.4596899 C0.772557965,33.9022189 -0.00128721413,30.9923198 1.60724587e-06,28.0291674 L1.60724587e-06,4.97273841 C-9.04514241e-05,4.92154774 0.00488071675,4.87045082 0.0149151118,4.82029147 C0.0962029173,4.41442256 0.485242857,4.15256258 0.883764839,4.23544272 C5.68269124,5.23722356 10.6761376,4.33698026 14.845751,1.71828671 L15.817154,1.11074905 C16.0534686,0.963083649 16.3511864,0.963083649 16.587501,1.11074905 L17.5589041,1.71828671 C21.7281492,4.33801157 26.7215956,5.23937994 31.5208902,4.2384429 C31.569221,4.22841103 31.6183803,4.22325446 31.6676317,4.22325446 C32.074439,4.22287944 32.4043773,4.55843149 32.4046534,4.97264466 L32.4046534,28.0260735 C32.4046534,28.4402867 32.0748993,28.77612 31.6681841,28.77612 C31.2614689,28.77612 30.9317147,28.4402867 30.9317147,28.0260735 L30.9317147,5.86895021 C26.0322602,6.66681216 21.0143263,5.64637392 16.791503,2.99327198 L16.2023275,2.62724929 L15.613152,2.99402203 C11.3897764,5.64581138 6.37230274,6.6658746 1.47294033,5.86895021 L1.47294033,28.0261672 C1.47073092,30.7233344 2.17442739,33.3724049 3.51148751,35.7006429 C5.03735997,38.3740899 7.35861933,40.4839706 10.1397117,41.7250163 L16.2023275,44.431184 L22.2671527,41.7227662 C22.5916595,41.5777259 22.9096302,41.4212475 23.2208805,41.253237 Z M15.8415312,7.64434775 C12.3979846,9.70135024 8.36949717,10.5034312 4.41889141,9.9184887 L4.41889141,26.9490442 C4.42064053,29.0201101 4.98551252,31.0502047 6.05090751,32.8144078 C7.30014366,34.8879113 9.16138585,36.5059491 11.3682163,37.4369443 C11.7434474,37.5970792 11.9202001,38.0366064 11.7629639,38.4187551 C11.6057277,38.8008101 11.1741566,38.980915 10.7989255,38.82078 C8.3070814,37.7685586 6.20565814,35.940789 4.79522725,33.5989564 C3.5874175,31.5988637 2.94733357,29.2970648 2.94595269,26.9490442 L2.94595269,9.03043366 C2.94595269,8.97971176 2.95092386,8.92917738 2.9608662,8.8794868 C3.042154,8.4736179 3.43119394,8.21175792 3.82971592,8.29463805 C7.69268183,9.06924856 11.7005481,8.37798697 15.0976971,6.3512676 C15.1158327,6.33936062 15.1345206,6.32820368 15.1535767,6.31798429 C15.5131579,6.1244723 15.9587219,6.26454348 16.148731,6.63084743 C16.338648,6.99715139 16.2011123,7.45092951 15.8415312,7.64434775 Z M34.3255496,38.7219239 C34.6325653,38.9936283 34.6651541,39.4673764 34.398368,39.780052 L30.8765716,43.3667743 C30.9114618,43.4914695 30.9300577,43.6203838 30.9318068,43.750048 C30.9318068,44.5785682 30.2723905,45.250141 29.458868,45.250141 C29.3208721,45.2514536 29.1834285,45.2327024 29.0506799,45.1945438 C28.2775712,44.9725301 27.8274964,44.1541356 28.0455833,43.3667743 L21.5786459,36.779866 C21.3030222,36.4893168 21.3030222,36.0284132 21.5786459,35.7377702 C21.861174,35.4398142 22.3274511,35.4315637 22.6200136,35.7193941 L29.0876875,42.3062086 C29.333208,42.2312977 29.5948387,42.2312977 29.8403592,42.3062086 L33.3621557,38.71958 C33.6393443,38.476565 34.0495577,38.4777838 34.3255496,38.7219239 Z" id="Fill-8"></path>
                </g>
            </g>
        </g>
    </g>
</svg>