<?xml version="1.0" encoding="UTF-8"?>
<svg width="40px" height="40px" viewBox="0 0 40 40" version="1.1" xmlns="http://www.w3.org/2000/svg" xmlns:xlink="http://www.w3.org/1999/xlink">
    <!-- Generator: Sketch 51.3 (57544) - http://www.bohemiancoding.com/sketch -->
    <title>Fill 1</title>
    <desc>Created with Sketch.</desc>
    <defs></defs>
    <g id="Page-2" stroke="none" stroke-width="1" fill="none" fill-rule="evenodd">
        <g id="04.Web-management" transform="translate(-741.000000, -1088.000000)" fill="#FBAF21">
            <g id="Nội-dung" transform="translate(171.000000, 1088.000000)">
                <g id="Group" transform="translate(570.000000, 0.000000)">
                    <g id="icon-skills-and-knowledge">
                        <path d="M20.0026667,13.9881905 C16.6870476,13.9881905 13.9900317,16.6846984 13.9900317,19.9996825 C13.9900317,23.3147302 16.6870476,26.0111746 20.0026667,26.0111746 C23.3159365,26.0111746 26.011873,23.3147302 26.011873,19.9996825 C26.011873,16.6846984 23.3159365,13.9881905 20.0026667,13.9881905 Z M20.0026667,27.7606349 C15.7222857,27.7606349 12.2405079,24.2793016 12.2405079,19.9996825 C12.2405079,15.7200635 15.7222857,12.2387302 20.0026667,12.2387302 C24.2805714,12.2387302 27.7612698,15.7200635 27.7612698,19.9996825 C27.7612698,24.2793016 24.2805714,27.7606349 20.0026667,27.7606349 Z M17.0504127,38.2505397 L22.9525714,38.2505397 L22.9525714,34.5466667 C22.9525714,34.1474286 23.2224762,33.7988571 23.6097143,33.6992381 C24.8706032,33.3752381 26.0676825,32.8894603 27.1690159,32.2555556 C27.5107302,32.0586032 27.9435556,32.1154921 28.2236825,32.3951111 L30.8216508,34.992 L34.9937778,30.82 L32.4572698,28.2862857 C32.1725079,28.0010159 32.1189206,27.5579683 32.3285714,27.2133968 C33.0142222,26.0834921 33.5415873,24.8653968 33.8946667,23.5926349 C33.9993651,23.2139048 34.3445079,22.952 34.7375238,22.952 L38.2534603,22.952 L38.2534603,17.0503492 L34.8673651,17.0503492 C34.4629841,17.0503492 34.1109841,16.7735873 34.0165714,16.3806349 C33.6930159,15.036 33.1850794,13.7576508 32.5085079,12.5816508 C32.3114921,12.2387302 32.3684444,11.8065397 32.6485714,11.5269206 L34.9937778,9.18114286 L30.8216508,5.00857143 L28.5391746,7.29161905 C28.2545397,7.57644444 27.8090794,7.62939683 27.4674921,7.42095238 C26.2680635,6.69365079 24.9697143,6.14698413 23.6086349,5.79504762 C23.2224762,5.69542857 22.9525714,5.34679365 22.9525714,4.94819048 L22.9525714,1.74946032 L17.0504127,1.74946032 L17.0504127,4.94819048 C17.0504127,5.34679365 16.7805079,5.69542857 16.3943492,5.79504762 C15.0332063,6.1464127 13.736,6.69365079 12.5389841,7.42095238 C12.1939048,7.62939683 11.751873,7.57644444 11.4659683,7.29161905 L9.18120635,5.008 L5.01034921,9.18114286 L7.35320635,11.5269206 C7.63339683,11.8065397 7.69028571,12.2387302 7.49333333,12.5816508 C6.81790476,13.7553016 6.31098413,15.0337778 5.9864127,16.3806349 C5.89187302,16.7735873 5.54,17.0503492 5.13561905,17.0503492 L1.74952381,17.0503492 L1.74952381,22.952 L5.26660317,22.952 C5.66069841,22.952 6.00463492,23.2144762 6.10952381,23.5942222 C6.46019048,24.8636825 6.9864127,26.0812698 7.67333333,27.2133968 C7.88285714,27.5579683 7.82933333,28.0010159 7.54450794,28.2857143 L5.01034921,30.82 L9.18120635,34.992 L11.7780952,32.3951111 C12.0571429,32.1143492 12.4910476,32.0574603 12.8327619,32.2555556 C13.9341587,32.8900952 15.132381,33.3758095 16.3931429,33.6992381 C16.7805079,33.7988571 17.0504127,34.1474286 17.0504127,34.5466667 L17.0504127,38.2505397 Z M23.8273016,40 L16.1756825,40 C15.6928254,40 15.3008889,39.608254 15.3008889,39.1252698 L15.3008889,35.2106667 C14.3453333,34.9219048 13.4250159,34.5488889 12.5514921,34.0955556 L9.79968254,36.8473651 C9.63574603,37.0113016 9.41365079,37.1035556 9.18120635,37.1035556 C8.9488254,37.1035556 8.72679365,37.0113016 8.56279365,36.8473651 L3.15498413,31.4383492 C2.81333333,31.0967619 2.81333333,30.5431111 3.15498413,30.2014603 L5.83269841,27.5238095 C5.33720635,26.6222222 4.92946032,25.6775238 4.61511111,24.7013968 L0.874730159,24.7013968 C0.391809524,24.7013968 0,24.3095873 0,23.8267302 L0,16.175619 C0,15.6926349 0.391809524,15.3008889 0.874730159,15.3008889 L4.46139683,15.3008889 C4.75974603,14.255873 5.15955556,13.2507302 5.6527619,12.3001905 L3.15498413,9.79961905 C2.81333333,9.45790476 2.81333333,8.90438095 3.15498413,8.56279365 L8.56279365,3.15263492 C8.89079365,2.82457143 9.47174603,2.82457143 9.79968254,3.15263492 L12.2280635,5.57968254 C13.204127,5.04336508 14.2325714,4.60990476 15.3008889,4.28533333 L15.3008889,0.874730159 C15.3008889,0.391746032 15.6928254,0 16.1756825,0 L23.8273016,0 C24.3101587,0 24.7020952,0.391746032 24.7020952,0.874730159 L24.7020952,4.28533333 C25.7704127,4.60990476 26.8,5.04336508 27.776127,5.58031746 L30.2033016,3.15263492 C30.5312381,2.82457143 31.1121905,2.82457143 31.4401905,3.15263492 L36.8491429,8.56279365 C37.1908571,8.90438095 37.1908571,9.45790476 36.8491429,9.79961905 L34.3490159,12.3001905 C34.8434286,13.2525079 35.2432381,14.2570159 35.5415873,15.3008889 L39.128254,15.3008889 C39.6111746,15.3008889 40.0029841,15.6926349 40.0029841,16.175619 L40.0029841,23.8267302 C40.0029841,24.3095873 39.6111746,24.7013968 39.128254,24.7013968 L35.387873,24.7013968 C35.072381,25.6786032 34.6646349,26.6233651 34.1692063,27.5231746 L36.8491429,30.2009524 C37.0131429,30.3648889 37.1053333,30.5875556 37.1053333,30.82 C37.1053333,31.051746 37.0131429,31.2743492 36.8491429,31.4383492 L31.4401905,36.8473651 C31.0984127,37.1890794 30.5448889,37.1890794 30.2033016,36.8473651 L27.4503492,34.0955556 C26.5779683,34.5488889 25.6575873,34.9219048 24.7020952,35.2100952 L24.7020952,39.1252698 C24.7020952,39.608254 24.3101587,40 23.8273016,40 Z" id="Fill-1"></path>
                    </g>
                </g>
            </g>
        </g>
    </g>
</svg>