<?xml version="1.0" encoding="UTF-8"?>
<svg width="45px" height="40px" viewBox="0 0 45 40" version="1.1" xmlns="http://www.w3.org/2000/svg" xmlns:xlink="http://www.w3.org/1999/xlink">
    <!-- Generator: Sketch 51.3 (57544) - http://www.bohemiancoding.com/sketch -->
    <title>Fill 3</title>
    <desc>Created with Sketch.</desc>
    <defs></defs>
    <g id="Page-2" stroke="none" stroke-width="1" fill="none" fill-rule="evenodd">
        <g id="04.Web-management" transform="translate(-741.000000, -1178.000000)" fill="#FBAF21">
            <g id="Nội-dung" transform="translate(171.000000, 1088.000000)">
                <g id="Group-3" transform="translate(570.000000, 90.000000)">
                    <g id="icon-time">
                        <path d="M44.3994575,15.0514357 C44.4333832,15.3317192 44.3563369,15.6083565 44.1821109,15.830459 L39.979126,21.1984913 C39.8050586,21.4207523 39.5547374,21.5618453 39.274771,21.595771 C38.9938533,21.6300138 38.7178501,21.5526505 38.4955891,21.378583 L33.1318372,17.1714763 C32.9092591,16.9972503 32.7683246,16.7464536 32.7343989,16.4656944 C32.7006317,16.1855694 32.7778365,15.9092492 32.9520626,15.6879393 C33.3114533,15.229625 33.9768096,15.1486154 34.435441,15.5080061 L37.7768076,18.1278963 C37.7718932,18.0313507 37.7663446,17.9386098 37.7550888,17.8466616 C37.180571,13.1119623 34.7907099,8.87964916 31.0257473,5.92969659 C27.2606262,2.97958549 22.5795106,1.67185985 17.8448114,2.24621917 C13.1102707,2.82073702 8.87827457,5.21059809 5.92848053,8.97556066 C2.97884503,12.7403647 1.67096086,17.4214803 2.24563723,22.1561795 C2.82015508,26.8905617 5.2096991,31.1222408 8.97418607,34.0717177 C12.7389901,37.0213532 17.4199472,38.329396 22.1543294,37.7547196 C24.8780576,37.4241816 27.4153529,36.5088212 29.6955102,35.0340034 C30.1858479,34.7204283 30.8410582,34.8618383 31.1571699,35.3482127 C31.473123,35.8383918 31.33203,36.4939192 30.8426435,36.8101894 C28.2909219,38.4597088 25.4533681,39.4835047 22.4087723,39.8528828 C21.5950305,39.9516479 20.7847765,39.9998415 19.9846684,40 C10.023347,40.0007927 1.37688508,32.5431578 0.146998366,22.4109395 C-1.18149489,11.4635527 6.64361574,1.47639062 17.5903685,0.147897364 C22.8843665,-0.494154865 28.1189153,0.967980373 32.328717,4.26654352 C36.5385187,7.5652652 39.2107243,12.2975865 39.8534106,17.5920601 C39.8657761,17.6936788 39.8727515,17.7965656 39.8781415,17.8980257 L42.5184822,14.5270137 C42.877873,14.0685409 43.5435464,13.9876899 44.0021778,14.3470806 C44.2244388,14.5211481 44.3653732,14.7713107 44.3994575,15.0514357 Z M19.2240823,5.80816641 C19.8068437,5.80816641 20.2808527,6.28233387 20.2808527,6.86509535 L20.2808527,20.4880169 L27.7037691,27.9085553 C27.9035187,28.1081464 28.0133809,28.373528 28.0133809,28.6557139 C28.0133809,28.9378998 27.9035187,29.2032814 27.7037691,29.4028725 C27.504178,29.602622 27.238955,29.7126428 26.956452,29.7126428 C26.6744246,29.7126428 26.409043,29.602622 26.209452,29.4028725 L18.4767652,21.6727221 C18.2771741,21.4731311 18.1673118,21.2077495 18.1673118,20.9254051 L18.1673118,6.86509535 C18.1673118,6.28233387 18.6413208,5.80816641 19.2240823,5.80816641 Z" id="Fill-3"></path>
                    </g>
                </g>
            </g>
        </g>
    </g>
</svg>