<?xml version="1.0" encoding="UTF-8"?>
<svg width="45px" height="42px" viewBox="0 0 45 42" version="1.1" xmlns="http://www.w3.org/2000/svg" xmlns:xlink="http://www.w3.org/1999/xlink">
    <!-- Generator: Sketch 51.3 (57544) - http://www.bohemiancoding.com/sketch -->
    <title>Combined Shape</title>
    <desc>Created with Sketch.</desc>
    <defs></defs>
    <g id="Page-2" stroke="none" stroke-width="1" fill="none" fill-rule="evenodd">
        <g id="01.-Home" transform="translate(-550.000000, -1987.000000)" fill="#FBAF21" stroke="#FBAF21">
            <g id="What-we-đo" transform="translate(170.000000, 1931.000000)">
                <path d="M386.94986,89.5828233 C385.904119,89.5828233 385.053247,90.4228257 385.053247,91.4570142 C385.053247,92.4926739 385.904119,93.3326762 386.94986,93.3326762 C387.9956,93.3326762 388.844985,92.4926739 388.844985,91.4570142 C388.844985,90.4228257 387.9956,89.5828233 386.94986,89.5828233 M386.94986,94.1829763 C385.429594,94.1829763 384.193449,92.9604861 384.193449,91.4570142 C384.193449,89.9550135 385.429594,88.7325232 386.94986,88.7325232 C388.468637,88.7325232 389.70627,89.9550135 389.70627,91.4570142 C389.70627,92.9604861 388.468637,94.1829763 386.94986,94.1829763 M392.746359,94.8016935 C392.33246,96.075496 391.12284,97 389.69913,97 L381.429899,97 C381.19338,97 381,96.808756 381,96.5748499 L381,83.9505407 C381,83.7166346 381.19338,83.5253906 381.429899,83.5253906 C381.667905,83.5253906 381.859798,83.7166346 381.859798,83.9505407 L381.859798,96.1496999 L389.69913,96.1496999 C390.988826,96.1496999 392.039029,95.111098 392.039029,93.8356479 L392.039029,92.4020126 C392.038831,92.384445 392.038731,92.3668543 392.038731,92.3492409 L392.038731,73.5020007 L381.859798,73.5020007 L381.859798,75.6998352 C381.859798,75.9337413 381.667905,76.1249853 381.429899,76.1249853 C381.19338,76.1249853 381,75.9337413 381,75.6998352 L381,73.0768507 C381,72.8429446 381.19338,72.6517006 381.429899,72.6517006 L392.342585,72.6517006 L397.210905,69.5470754 C401.395353,66.8799576 403.894419,62.3489467 403.894419,57.4251501 C403.894419,57.191244 404.086312,57 404.324318,57 L406.002262,57 C407.338073,57 408.595043,57.5148876 409.539631,58.4490408 C410.775776,59.67006 411.278564,61.4721666 410.854616,63.1507002 L409.814826,67.2595034 C409.483104,68.5643757 409.774662,69.9207367 410.610659,70.9828763 C411.448144,72.0435448 412.709577,72.6525833 414.069188,72.6525833 L420.600973,72.6525833 C422.475272,72.6525833 424,74.1604684 424,76.0140638 C424,77.4601624 423.073263,78.6958927 421.776129,79.1695893 C422.624026,79.78157 423.177391,80.7716253 423.177391,81.8881958 C423.177391,83.3328233 422.249166,84.5700247 420.952032,85.0451924 C421.801417,85.6571731 422.354782,86.6457573 422.354782,87.7623279 C422.354782,89.2098976 421.426557,90.4441568 420.129423,90.9193245 C420.97732,91.5313052 421.530685,92.5213605 421.530685,93.6364599 C421.530685,95.4915264 420.005957,96.9994116 418.13017,96.9994116 L396.739355,96.9994116 C395.055791,96.9994116 393.576689,96.1205061 392.746359,94.8016935 Z M392.898827,73.3085076 L392.898827,92.3969038 C392.924718,94.4698985 394.637188,96.1491115 396.739355,96.1491115 L418.13017,96.1491115 C419.531432,96.1491115 420.670887,95.0222431 420.670887,93.6364599 C420.670887,92.2521478 419.531432,91.1252795 418.13017,91.1252795 C417.893651,91.1252795 417.700271,90.9340355 417.700271,90.7001295 C417.700271,90.4662234 417.893651,90.2749794 418.13017,90.2749794 L418.954267,90.2749794 C420.355529,90.2749794 421.494984,89.1481111 421.494984,87.7623279 C421.494984,86.3780158 420.355529,85.2511475 418.954267,85.2511475 C418.716261,85.2511475 418.524368,85.0599035 418.524368,84.8259974 C418.524368,84.5920913 418.716261,84.4008474 418.954267,84.4008474 L419.776876,84.4008474 C421.178138,84.4008474 422.317593,83.2725079 422.317593,81.8881958 C422.317593,80.5038837 421.178138,79.3770154 419.776876,79.3770154 C419.540357,79.3770154 419.346977,79.1857714 419.346977,78.9518654 C419.346977,78.7179593 419.540357,78.5267153 419.776876,78.5267153 L420.600973,78.5267153 C422.000747,78.5267153 423.140202,77.3983759 423.140202,76.0140638 C423.140202,74.6282806 422.000747,73.5028834 420.600973,73.5028834 L414.069188,73.5028834 C412.44182,73.5028834 410.934943,72.7746852 409.933829,71.5051195 C408.931227,70.2370248 408.584631,68.6143933 408.980316,67.0520772 L410.021594,62.9432741 C410.372653,61.5545487 409.954654,60.0628457 408.931227,59.0507238 C408.148782,58.2769213 407.108992,57.8503001 406.002262,57.8503001 L404.748267,57.8503001 C404.608438,62.8991409 401.987394,67.5154761 397.676505,70.2635048 L392.898827,73.3085076 Z M381.000595,80.3999647 L381.000595,79.2083677 C381.000595,78.9744616 381.192488,78.7832176 381.430494,78.7832176 C381.6685,78.7832176 381.860393,78.9744616 381.860393,79.2083677 L381.860393,80.3999647 C381.860393,80.6338708 381.6685,80.8251147 381.430494,80.8251147 C381.192488,80.8251147 381.000595,80.6338708 381.000595,80.3999647 Z" id="Combined-Shape"></path>
            </g>
        </g>
    </g>
</svg>