<?xml version="1.0" encoding="UTF-8"?>
<svg width="54px" height="40px" viewBox="0 0 54 40" version="1.1" xmlns="http://www.w3.org/2000/svg" xmlns:xlink="http://www.w3.org/1999/xlink">
    <!-- Generator: Sketch 51.3 (57544) - http://www.bohemiancoding.com/sketch -->
    <title>Fill 6</title>
    <desc>Created with Sketch.</desc>
    <defs></defs>
    <g id="Page-2" stroke="none" stroke-width="1" fill="none" fill-rule="evenodd">
        <g id="04.Web-management" transform="translate(-741.000000, -1263.000000)" fill="#FBAF21">
            <g id="Nội-dung" transform="translate(171.000000, 1088.000000)">
                <g id="Group-4" transform="translate(570.000000, 175.000000)">
                    <g id="icon-High-HR-cost">
                        <path d="M40.7511665,36.4955575 C40.1757861,37.2243059 39.5182085,37.539061 38.8034938,37.544073 L15.0825848,37.544073 C14.3678701,37.539061 13.7092901,37.2243059 13.1339097,36.4955575 C12.6477433,35.8690545 12.3780964,35.0591113 12.3780964,34.2251105 C12.3780964,33.9013337 12.419195,33.5735473 12.5023946,33.2537801 C13.3744869,29.8877046 14.9803395,27.6493345 16.7064807,26.0986141 C18.4306171,24.550901 20.2960925,23.7068761 21.6373103,23.2648155 C23.5418795,22.6343029 24.8259602,20.8550342 24.8239554,18.849222 C24.8259602,17.8387979 24.4841401,16.8574435 23.874678,16.0434908 C22.4723135,14.1800201 21.5160193,11.3412095 21.5290505,9.13391394 C21.5280481,7.2343567 22.1826185,5.53127081 23.1880306,4.33540179 C24.2014619,3.13652555 25.518622,2.45689505 26.9430393,2.45589264 C28.3674566,2.45689505 29.6836142,3.13652555 30.6970456,4.33540179 C31.7044625,5.53127081 32.3590329,7.2343567 32.357028,9.13391394 C32.3710617,11.3412095 31.4157699,14.1800201 30.0114006,16.0424884 C29.4019385,16.8564411 29.059116,17.8387979 29.0611208,18.849222 C29.059116,20.8540318 30.3431966,22.6343029 32.2497707,23.2638131 C33.589986,23.7068761 35.4544591,24.550901 37.1795979,26.0986141 C38.9047367,27.6503369 40.5105893,29.888707 41.3846864,33.2537801 C41.4668836,33.5725449 41.5069798,33.9003313 41.5069798,34.2251105 C41.5079822,35.0581089 41.2373329,35.8690545 40.7511665,36.4955575 M38.8185299,24.2702276 C40.8684479,26.1026237 42.7760244,28.8081145 43.7623908,32.6403083 C43.896713,33.1635637 43.9618693,33.6968431 43.9618693,34.2251105 C43.9618693,35.5803619 43.5298328,36.9145628 42.6918223,37.9991648 C41.7435473,39.2371349 40.329154,40.0059794 38.8034938,39.999965 L15.0825848,39.999965 C13.5559221,40.0059794 12.1415289,39.2371349 11.1932538,37.9991648 C10.3552434,36.9145628 9.92420926,35.5803619 9.92420926,34.2251105 C9.92420926,33.6968431 9.99036798,33.1635637 10.1246902,32.6393059 C11.1110566,28.8071121 13.0166283,26.1026237 15.0675487,24.2702276 C17.1184691,22.4338219 19.2936877,21.4534699 20.8664609,20.9342242 C21.7676229,20.6335027 22.3680634,19.8015067 22.3690658,18.849222 C22.3680634,18.3851086 22.2197075,17.9320216 21.9059548,17.5110115 C20.1647775,15.150348 19.0881947,11.9867582 19.074161,9.13391394 C19.0751634,6.67401237 19.9101667,4.42361342 21.3085215,2.75661411 C22.6998594,1.09262201 24.7046692,-0.00100171636 26.9430393,6.88515223e-07 C29.180407,-0.00100171636 31.1852167,1.09262201 32.5775571,2.75661411 C33.9749095,4.42261101 34.8109152,6.67401237 34.8119176,9.13391394 C34.7988863,11.9867582 33.7213011,15.150348 31.9791214,17.5100091 C31.6653687,17.933024 31.5170128,18.3851086 31.5160103,18.849222 C31.5170128,19.8005043 32.1184557,20.6335027 33.0206201,20.9332218 C34.5923909,21.4534699 36.7676095,22.4338219 38.8185299,24.2702276 Z M53.7354171,29.5844771 C53.83666,29.9764174 53.8847755,30.3753745 53.8847755,30.7733293 C53.8847755,31.782751 53.5660107,32.7801438 52.9365004,33.595099 C52.9365004,33.595099 52.9365004,33.5961014 52.935498,33.5971038 L52.9344956,33.5981062 L52.9334932,33.5991086 C52.9334932,33.600111 52.9324908,33.600111 52.9324908,33.600111 C52.7229882,33.8697579 52.4012162,34.2236069 51.9230691,34.5323476 C51.4489316,34.8410883 50.7943612,35.0967015 50.0295263,35.0946967 L48.0848608,35.0946967 C47.4082375,35.0946967 46.8579173,34.5443764 46.8579173,33.8667507 C46.8579173,33.189125 47.4082375,32.6388047 48.0848608,32.6388047 L50.0295263,32.6388047 C50.2600794,32.6367999 50.4264786,32.572646 50.5958851,32.4673935 C50.7602795,32.362141 50.907633,32.2077706 50.991835,32.0975061 L50.9928374,32.0965037 L50.9938398,32.0944989 C51.2715059,31.7376428 51.4308883,31.2655101 51.4308883,30.7733293 C51.4308883,30.5808675 51.4068306,30.386401 51.3577128,30.1969465 C50.7312097,27.7851603 49.5914754,26.2013606 48.3685414,25.0997176 C47.1446051,24.0010819 45.817421,23.399639 44.8621291,23.0848838 C43.1550336,22.5215323 42.0042728,20.9257037 42.0062776,19.1283918 C42.0042728,18.2242226 42.3100063,17.3451135 42.8533098,16.6173676 C43.8336617,15.3222605 44.5162995,13.2943954 44.5022658,11.7717424 C44.5042706,10.4946786 44.0662197,9.35594662 43.4126517,8.5710636 C42.7520669,7.78317337 41.9270877,7.36316573 41.048981,7.36116092 C40.5066799,7.36216332 39.9633765,7.53658177 39.447138,7.88842588 C38.8867937,8.27134455 38.1229611,8.12800065 37.7400425,7.56765632 C37.3581262,7.0083144 37.5014701,6.24448188 38.060812,5.86156322 C38.9319019,5.26513231 39.9633765,4.90526896 41.048981,4.90627137 C42.7510645,4.90526896 44.2667006,5.74929387 45.3021849,7.00229997 C46.3436836,8.26031809 46.9561529,9.94034867 46.9571553,11.7717424 C46.9451265,13.9419489 46.139193,16.2935908 44.8220329,18.0838859 C44.5744389,18.4196915 44.4621696,18.7665236 44.4611672,19.1283918 C44.4621696,19.8721762 44.9302927,20.5197298 45.6329785,20.7532901 C46.8198259,21.1462328 48.4577554,21.8840028 50.006471,23.2713312 C51.5551865,24.6556523 52.9956423,26.7045679 53.7354171,29.5844771 Z M5.51924126,25.0996174 C4.29530491,26.2022628 3.15657296,27.7850601 2.52906751,30.1978486 C2.47994967,30.3863007 2.45488955,30.5807673 2.45488955,30.773229 C2.45488955,31.2654098 2.61527433,31.7375425 2.89294048,32.0954011 L2.89394288,32.0954011 L2.89394288,32.0964035 L2.89494529,32.0964035 C2.9791473,32.2076704 3.12549841,32.3630432 3.28989281,32.4672933 C3.46030164,32.5735482 3.62569845,32.6377021 3.85725397,32.6387045 L5.80091703,32.6387045 C6.47854273,32.6387045 7.02886301,33.1890248 7.02886301,33.8666505 C7.02886301,34.5442762 6.47854273,35.0945965 5.80091703,35.0945965 L3.85725397,35.0945965 C3.09241905,35.0966013 2.43784867,34.840988 1.96270875,34.5322473 C1.48556403,34.2235066 1.16379206,33.8706601 0.954289445,33.6010132 C0.95328704,33.6000108 0.952284635,33.6000108 0.952284635,33.5990084 L0.95128223,33.598006 L0.950279825,33.598006 L0.950279825,33.5960012 C0.320769561,32.781046 0.00100240488,31.7836531 0,30.773229 C0,30.3772791 0.0501202439,29.9763171 0.152365542,29.582372 C0.891137937,26.70547 2.33059134,24.655552 3.87930688,23.2712309 C5.42802242,21.8839026 7.0669544,21.1461326 8.25279937,20.7541923 C8.95648759,20.5196295 9.42461067,19.872076 9.42561307,19.1282915 C9.42461067,18.7674258 9.31133892,18.4195913 9.06474732,18.0847881 C7.74758731,16.2934905 6.94265619,13.9418487 6.92862252,11.7716421 C6.92962493,9.94024843 7.54309671,8.26021785 8.58459538,7.00219973 C9.62007962,5.74919363 11.1357158,4.90516872 12.8377993,4.90617113 C13.9234038,4.90516872 14.953876,5.26503207 15.8249658,5.86146298 C16.3853101,6.24438164 16.528654,7.00821416 16.1467378,7.56755608 C15.7638191,8.12790041 14.9989842,8.2712443 14.4396423,7.88932805 C13.9234038,7.53648153 13.3811027,7.36206308 12.8377993,7.36106067 C11.9596926,7.36306548 11.1347134,7.78307313 10.4731262,8.57096336 C9.81955819,9.35584638 9.38250966,10.4945783 9.38351207,11.7716421 C9.37048081,13.2942952 10.0521161,15.3221602 11.0344729,16.6182697 C11.5767739,17.3450133 11.8825074,18.2241223 11.881505,19.1282915 C11.8825074,20.9256035 10.7307442,22.5214321 9.02264631,23.085786 C8.06935927,23.3995387 6.74217521,24.0009817 5.51924126,25.0996174 Z" id="Fill-6"></path>
                    </g>
                </g>
            </g>
        </g>
    </g>
</svg>