<?xml version="1.0" encoding="UTF-8"?>
<svg width="36px" height="40px" viewBox="0 0 36 40" version="1.1" xmlns="http://www.w3.org/2000/svg" xmlns:xlink="http://www.w3.org/1999/xlink">
    <!-- Generator: Sketch 51.3 (57544) - http://www.bohemiancoding.com/sketch -->
    <title>Fill 4</title>
    <desc>Created with Sketch.</desc>
    <defs></defs>
    <g id="Page-2" stroke="none" stroke-width="1" fill="none" fill-rule="evenodd">
        <g id="04.Web-management" transform="translate(-741.000000, -1348.000000)" fill="#FBAF21">
            <g id="Nội-dung" transform="translate(171.000000, 1088.000000)">
                <g id="Group-5" transform="translate(570.000000, 260.000000)">
                    <g id="icon-website-management-">
                        <path d="M3.59411591,28.4411332 L2.69700621,28.4411332 L2.58920505,28.4411332 C2.37124261,28.4408142 2.1768816,28.3538078 2.02857528,28.2068411 C1.88186365,28.0587899 1.7947297,27.8643013 1.79447455,27.6463389 L1.79447455,27.6009858 C1.7947297,27.3830234 1.88186365,27.1885986 2.02857528,27.0404836 C2.1768816,26.8935806 2.37124261,26.8065105 2.58920505,26.8063191 L2.69700621,26.8063191 L3.59411591,26.8063191 L4.49116182,26.8063191 L4.80257319,26.8063191 C5.02034428,26.8065105 5.21489665,26.8935806 5.36294782,27.0404836 C5.5099146,27.1885986 5.59685718,27.3830234 5.59730369,27.6009858 L5.59730369,27.6463389 C5.59685718,27.8643013 5.5099146,28.0587899 5.36294782,28.2068411 C5.21489665,28.3538078 5.02034428,28.4408142 4.80257319,28.4411332 L4.49116182,28.4411332 L3.59411591,28.4411332 Z M2.58920505,18.529487 C2.37124261,18.5291681 2.1768816,18.4422255 2.02857528,18.295195 C1.88186365,18.1471438 1.7947297,17.9526552 1.79447455,17.7346928 L1.79447455,17.6893397 C1.7947297,17.4713773 1.88186365,17.2769525 2.02857528,17.1287737 C2.1768816,16.9819345 2.37124261,16.8948644 2.58920505,16.8946092 L2.69700621,16.8946092 L3.59411591,16.8946092 L4.49116182,16.8946092 L4.80257319,16.8946092 C5.02034428,16.8948644 5.21489665,16.9819345 5.36294782,17.1287737 C5.5099146,17.2769525 5.59685718,17.4713773 5.59730369,17.6893397 L5.59730369,17.7346928 C5.59685718,17.9526552 5.5099146,18.1471438 5.36294782,18.295195 C5.21489665,18.4422255 5.02034428,18.5291681 4.80257319,18.529487 L4.49116182,18.529487 L3.59411591,18.529487 L2.69700621,18.529487 L2.58920505,18.529487 Z M2.58920505,8.61777714 C2.37124261,8.61752199 2.1768816,8.53045183 2.02857528,8.38361263 C1.88186365,8.23543389 1.7947297,8.04100909 1.79447455,7.82304664 L1.79447455,7.77769361 C1.7947297,7.55973117 1.88186365,7.36524258 2.02857528,7.21712762 C2.1768816,7.07016085 2.37124261,6.98321826 2.58920505,6.98289932 L2.69700621,6.98289932 L3.59411591,6.98289932 L4.49116182,6.98289932 L4.80257319,6.98289932 C5.02034428,6.98321826 5.21489665,7.07016085 5.36294782,7.21712762 C5.5099146,7.36524258 5.59685718,7.55973117 5.59730369,7.77769361 L5.59730369,7.82304664 C5.59685718,8.04100909 5.5099146,8.23543389 5.36294782,8.38361263 C5.21489665,8.53045183 5.02034428,8.61752199 4.80257319,8.61777714 L4.49116182,8.61777714 L3.59411591,8.61777714 L2.69700621,8.61777714 L2.58920505,8.61777714 Z M13.0778106,33.6295579 L25.1443953,33.6295579 L25.9843513,35.4240325 L9.90513977,35.4240325 L6.00407763,35.4240325 C4.17732652,35.4234584 2.69732514,33.9437122 2.69700621,32.1168973 L2.69700621,30.2354163 L2.58920505,30.2354163 C1.15921321,30.2321632 0.00357210916,29.0763307 0,27.6463389 L0,27.6009858 C0.00357210916,26.1709302 1.15921321,25.0152253 2.58920505,25.0118446 L2.69700621,25.0118446 L2.69700621,20.323834 L2.58920505,20.323834 C1.15921321,20.3205171 0.00357210916,19.1647484 0,17.7346928 L0,17.6893397 C0.00357210916,16.2592841 1.15921321,15.1035792 2.58920505,15.1001985 L2.69700621,15.1001985 L2.69700621,10.4121241 L2.58920505,10.4121241 C1.15921321,10.4087434 0.00357210916,9.25310227 0,7.82304664 L0,7.77769361 C0.00357210916,6.34763798 1.15921321,5.19180552 2.58920505,5.18855235 L2.69700621,5.18855235 L2.69700621,3.30726278 C2.69732514,1.48032031 4.17732652,0.000510301309 6.00407763,0 L9.90513977,0 L10.1530824,0 L28.4103875,0 C30.430479,0.000510301309 32.084238,1.55858777 32.2395609,3.53893958 L30.4352631,3.53893958 C30.2873395,2.552272 29.437943,1.79619682 28.4103875,1.79441077 L13.0778106,1.79441077 L12.0152357,1.79441077 L10.1530824,1.79441077 L9.90513977,1.79441077 L6.00407763,1.79441077 C5.16884196,1.79594167 4.49262894,2.47215469 4.49116182,3.30726278 L4.49116182,5.18855235 L4.80257319,5.18855235 C6.23250125,5.19180552 7.38820614,6.34763798 7.3915231,7.77769361 L7.3915231,7.82304664 C7.38820614,9.25310227 6.23250125,10.4087434 4.80257319,10.4121241 L4.49116182,10.4121241 L4.49116182,15.1001985 L4.80257319,15.1001985 C6.23250125,15.1035792 7.38820614,16.2592841 7.3915231,17.6893397 L7.3915231,17.7346928 C7.38820614,19.1647484 6.23250125,20.3205171 4.80257319,20.323834 L4.49116182,20.323834 L4.49116182,25.0118446 L4.80257319,25.0118446 C6.23250125,25.0152253 7.38820614,26.1709302 7.3915231,27.6009858 L7.3915231,27.6463389 C7.38820614,29.0763307 6.23250125,30.2321632 4.80257319,30.2354163 L4.49116182,30.2354163 L4.49116182,32.1168973 C4.49262894,32.9518778 5.16884196,33.628027 6.00407763,33.6295579 L9.90513977,33.6295579 L10.1530824,33.6295579 L12.0152357,33.6295579 L13.0778106,33.6295579 Z M9.45647648,3.26711483 C9.45647648,3.01936354 9.65715247,2.81849619 9.90509512,2.81849619 C10.1529102,2.81849619 10.35365,3.01936354 10.35365,3.26711483 L10.35365,32.1569304 C10.35365,32.4046817 10.1529102,32.6054853 9.90509512,32.6054853 C9.65715247,32.6054853 9.45647648,32.4046817 9.45647648,32.1569304 L9.45647648,3.26711483 Z M34.0245694,11.5664895 L27.232459,11.5664895 L27.232459,7.64501527 C27.2329055,7.26133248 27.3858683,6.92089771 27.6368728,6.66861751 C27.8890892,6.41767684 28.2294602,6.26465023 28.6130792,6.26433129 L32.6438216,6.26433129 C33.0273769,6.26471402 33.3678754,6.41767684 33.6200918,6.66855372 C33.8710963,6.92089771 34.0241229,7.26146005 34.0245694,7.64501527 L34.0245694,11.5664895 Z M27.2325228,13.606419 L27.2325228,12.3082124 L34.0245694,12.30834 L34.0245694,13.6064827 L27.2325228,13.606419 Z M34.0245694,30.9418009 C34.0245694,30.9463936 34.0230385,30.950795 34.0230385,30.9554515 C33.2350695,30.8838179 32.534681,30.5555666 32.0102188,30.0320613 C31.4024499,29.4237821 31.0290369,28.5761716 31.0290369,27.6317315 L31.0289732,27.6316039 L31.0290369,15.6310394 C31.0289732,15.426281 30.8629339,15.2601779 30.6581117,15.2601141 C30.4532257,15.2601779 30.2871226,15.4262172 30.2871226,15.6310394 L30.2871226,27.6314763 L30.2871226,27.6316677 L30.2871226,27.6319229 C30.2867399,28.5590128 29.9121787,29.3951414 29.3048564,30.0031655 C28.7641922,30.543128 28.0386075,30.882606 27.2340537,30.9551326 C27.2339261,30.9506674 27.2325228,30.9462661 27.232459,30.9418009 L27.232459,14.3483333 L34.0245694,14.3483333 L34.0245694,30.9418009 Z M33.781347,32.041564 L32.6739294,34.4240971 L28.5830352,34.4240971 L27.4756813,32.0414365 C27.4224186,31.9270014 27.3909075,31.8051032 27.3548675,31.6848634 C28.3145529,31.5851633 29.1838512,31.1737329 29.8293186,30.5276276 C30.1727513,30.1845776 30.4473572,29.7750608 30.6520518,29.3271438 C30.8566827,29.7873718 31.1355623,30.2067119 31.4856928,30.5565872 C32.1144478,31.186299 32.9607825,31.5869494 33.9019695,31.6852461 C33.8659295,31.8054859 33.8344822,31.9271928 33.781347,32.041564 Z M30.8328261,38.384992 L30.7857508,38.4543292 L30.6285142,38.5153102 L30.4710862,38.4542016 L30.4244575,38.3855661 L28.9279351,35.1660114 L32.3291571,35.1659476 L30.8328261,38.384992 Z M34.6691438,5.6195018 C34.1531653,5.10231143 33.4324285,4.78018372 32.6437579,4.78056645 L28.6132068,4.78063024 C27.8244723,4.7803113 27.1036717,5.102439 26.5878209,5.6195018 C26.0705667,6.135544 25.748439,6.8563446 25.7488855,7.64507906 L25.7488217,30.9418009 C25.7488855,31.5376415 25.8789486,32.1265292 26.1302082,32.6669383 L29.0787291,39.0103663 C29.1653528,39.1974555 29.2832324,39.3647068 29.4220343,39.5032536 C30.0965251,40.1654971 31.1601206,40.1656247 31.8348027,39.5033811 C31.9734771,39.3648981 32.0912291,39.1978382 32.1781079,39.0105577 L35.1267564,32.6669383 C35.3780161,32.1265292 35.5081429,31.5377053 35.5082067,30.9417371 L35.5082705,7.64501527 C35.5085256,6.85628081 35.1863341,6.13560779 34.6691438,5.6195018 Z" id="Fill-4"></path>
                    </g>
                </g>
            </g>
        </g>
    </g>
</svg>