<?xml version="1.0" encoding="UTF-8"?>
<svg width="40px" height="40px" viewBox="0 0 40 40" version="1.1" xmlns="http://www.w3.org/2000/svg" xmlns:xlink="http://www.w3.org/1999/xlink">
    <!-- Generator: Sketch 51.3 (57544) - http://www.bohemiancoding.com/sketch -->
    <title>icon user</title>
    <desc>Created with Sketch.</desc>
    <defs></defs>
    <g id="Page-2" stroke="none" stroke-width="1" fill="none" fill-rule="evenodd">
        <g id="04.Web-management" transform="translate(-835.000000, -3699.000000)" fill="#FBAF21">
            <g id="Why-do-you-choose..." transform="translate(170.000000, 3677.000000)">
                <g id="Group-7" transform="translate(665.000000, 22.000000)">
                    <g id="icon-user">
                        <path d="M28.2668483,30.8097234 C27.9072355,31.2651912 27.4962495,31.4619131 27.0495528,31.4650456 L12.2239847,31.4650456 C11.777288,31.4619131 11.3656755,31.2651912 11.0060628,30.8097234 C10.7022088,30.418159 10.5336795,29.9119446 10.5336795,29.390694 C10.5336795,29.1883336 10.5593661,28.9834671 10.6113658,28.7836126 C11.1564235,26.6798153 12.1600814,25.280834 13.2389196,24.3116338 C14.3165049,23.3443131 15.4824271,22.8167975 16.3206881,22.5405097 C17.5110439,22.1464393 18.3135943,21.0343964 18.3123413,19.7807638 C18.3135943,19.1492487 18.0999568,18.5359022 17.7190429,18.0271817 C16.8425652,16.8625126 16.2448813,15.0882559 16.2530258,13.7086962 C16.2523993,12.5214729 16.6615058,11.4570443 17.2898883,10.7096261 C17.9232829,9.96032847 18.7465079,9.5355594 19.6367688,9.5349329 C20.5270296,9.5355594 21.3496281,9.96032847 21.9830227,10.7096261 C22.6126583,11.4570443 23.0217647,12.5214729 23.0205117,13.7086962 C23.0292828,15.0882559 22.4322254,16.8625126 21.5544946,18.0265552 C21.1735807,18.5352757 20.9593167,19.1492487 20.9605697,19.7807638 C20.9593167,21.0337699 21.7618671,22.1464393 22.9534759,22.5398832 C23.7911105,22.8167975 24.9564062,23.3443131 26.0346179,24.3116338 C27.1128297,25.2814605 28.1164875,26.6804418 28.6627982,28.7836126 C28.7141714,28.9828406 28.7392316,29.1877071 28.7392316,29.390694 C28.7398581,29.9113181 28.5707023,30.418159 28.2668483,30.8097234 M27.0589504,23.1688923 C25.7771252,22.0211387 24.4176135,21.4084187 23.4352568,21.0832636 C22.871404,20.8959392 22.4955022,20.3753152 22.4948757,19.7807638 C22.4955022,19.4906929 22.5882246,19.20814 22.7843201,18.9437557 C23.8731824,17.4689675 24.5466732,15.4917239 24.5548177,13.7086962 C24.5541912,12.1712577 24.0316877,10.7641319 23.1583424,9.72288382 C22.2881297,8.68288875 21.0351236,7.99937393 19.6367688,8.00000043 C18.2377875,7.99937393 16.9847814,8.68288875 16.1151951,9.72288382 C15.2412234,10.7647584 14.7193463,12.1712577 14.7187198,13.7086962 C14.7274909,15.4917239 15.4003552,17.4689675 16.4885909,18.9443822 C16.6846864,19.2075135 16.7774089,19.4906929 16.7780354,19.7807638 C16.7774089,20.3759417 16.4021335,20.8959392 15.8389073,21.0838901 C14.855924,21.4084187 13.4964124,22.0211387 12.2145871,23.1688923 C10.9327619,24.3141398 9.74177961,26.0044451 9.12530061,28.3995662 C9.0413492,28.7272273 9,29.0605269 9,29.390694 C9,30.2377262 9.26939631,31.0716017 9.79315286,31.749478 C10.3858247,32.5232093 11.2698205,33.0037371 12.2239847,32.9999781 L27.0495528,32.9999781 C28.0030905,33.0037371 28.8870863,32.5232093 29.4797582,31.749478 C30.0035147,31.0716017 30.2735375,30.2377262 30.2735375,29.390694 C30.2735375,29.0605269 30.2328148,28.7272273 30.1488634,28.4001927 C29.5323844,26.0050716 28.3401491,24.3141398 27.0589504,23.1688923" id="Fill-6"></path>
                        <path d="M20,2.5 C10.3350169,2.5 2.5,10.3350169 2.5,20 C2.5,29.6649831 10.3350169,37.5 20,37.5 C29.6649831,37.5 37.5,29.6649831 37.5,20 C37.5,10.3350169 29.6649831,2.5 20,2.5 Z M20,0 C31.045695,-2.02906125e-15 40,8.954305 40,20 C40,31.045695 31.045695,40 20,40 C8.954305,40 1.3527075e-15,31.045695 0,20 C-1.3527075e-15,8.954305 8.954305,2.02906125e-15 20,0 Z" id="Rectangle-16-Copy-4" fill-rule="nonzero"></path>
                    </g>
                </g>
            </g>
        </g>
    </g>
</svg>