<?xml version="1.0" encoding="UTF-8"?>
<svg width="33px" height="41px" viewBox="0 0 33 41" version="1.1" xmlns="http://www.w3.org/2000/svg" xmlns:xlink="http://www.w3.org/1999/xlink">
    <!-- Generator: Sketch 51.3 (57544) - http://www.bohemiancoding.com/sketch -->
    <title>Fill 1</title>
    <desc>Created with Sketch.</desc>
    <defs></defs>
    <g id="Page-2" stroke="none" stroke-width="1" fill="none" fill-rule="evenodd">
        <g id="04.Web-management" transform="translate(-835.000000, -3789.000000)" fill="#FBAF21">
            <g id="Why-do-you-choose..." transform="translate(170.000000, 3677.000000)">
                <g id="Group-11" transform="translate(665.000000, 112.000000)">
                    <g id="icon-content">
                        <path d="M27.7380552,16.7674598 C28.0369454,16.7674598 28.279241,17.0097554 28.279241,17.3086456 C28.279241,17.6084201 28.0369454,17.8507158 27.7380552,17.8507158 L4.88533377,17.8507158 C4.58644356,17.8507158 4.34414794,17.6084201 4.34414794,17.3086456 C4.34414794,17.0097554 4.58644356,16.7674598 4.88533377,16.7674598 L27.7380552,16.7674598 Z M27.7380552,22.1957659 C28.0369454,22.1957659 28.279241,22.4371773 28.279241,22.7369518 C28.279241,23.035842 28.0369454,23.2790219 27.7380552,23.2790219 L4.88533377,23.2790219 C4.58644356,23.2790219 4.34414794,23.035842 4.34414794,22.7369518 C4.34414794,22.4371773 4.58644356,22.1957659 4.88533377,22.1957659 L27.7380552,22.1957659 Z M4.88551063,6.99445719 C4.58662042,6.99445719 4.3443248,6.75216157 4.3443248,6.45327136 C4.3443248,6.15438114 4.58662042,5.91120123 4.88551063,5.91120123 L15.3484367,5.91120123 C15.647327,5.91120123 15.8896226,6.15438114 15.8896226,6.45327136 C15.8896226,6.75216157 15.647327,6.99445719 15.3484367,6.99445719 L4.88551063,6.99445719 Z M4.88551063,12.4228518 C4.58662042,12.4228518 4.3443248,12.1805561 4.3443248,11.8816659 C4.3443248,11.5818914 4.58662042,11.3395958 4.88551063,11.3395958 L15.3484367,11.3395958 C15.647327,11.3395958 15.8896226,11.5818914 15.8896226,11.8816659 C15.8896226,12.1805561 15.647327,12.4228518 15.3484367,12.4228518 L4.88551063,12.4228518 Z M27.7380552,27.6232762 C28.0369454,27.6232762 28.279241,27.8655718 28.279241,28.1644621 C28.279241,28.4633523 28.0369454,28.7065322 27.7380552,28.7065322 L4.88533377,28.7065322 C4.58644356,28.7065322 4.34414794,28.4633523 4.34414794,28.1644621 C4.34414794,27.8655718 4.58644356,27.6232762 4.88533377,27.6232762 L27.7380552,27.6232762 Z M27.7380552,33.0516708 C28.0369454,33.0516708 28.279241,33.2930821 28.279241,33.5928566 C28.279241,33.8917468 28.0369454,34.1349267 27.7380552,34.1349267 L4.88533377,34.1349267 C4.58644356,34.1349267 4.34414794,33.8917468 4.34414794,33.5928566 C4.34414794,33.2930821 4.58644356,33.0516708 4.88533377,33.0516708 L27.7380552,33.0516708 Z M20.3032053,3.66023957 L29.2027057,12.4677737 L23.2700002,12.4677737 C21.632294,12.4642366 20.3058582,11.138685 20.3032053,9.50097883 L20.3032053,3.66023957 Z M28.0265992,37.8982022 L4.88029332,37.8982022 C3.38142079,37.8955493 2.1690584,36.6831869 2.16640553,35.1834301 L2.16640553,4.9433452 C2.1690584,3.44535696 3.38142079,2.23299457 4.88029332,2.22945741 L17.3770878,2.22945741 C17.6353006,2.22945741 17.889092,2.26306045 18.1375777,2.31611789 L18.1375777,9.50097883 C18.138462,12.3360144 20.4349646,14.6325171 23.2700002,14.6334013 L30.6246449,14.6334013 C30.6936196,14.9137215 30.740487,15.1993473 30.740487,15.4920475 L30.740487,35.1834301 C30.7378341,36.6831869 29.5245874,37.8955493 28.0265992,37.8982022 Z M31.1950123,11.3915921 L21.4342129,1.73160182 C20.3544941,0.663378799 18.896299,0.0638297872 17.3770878,0.0638297872 L4.88029332,0.0638297872 C2.18409134,0.0647140778 0.000777907599,2.24802751 -0.000106382979,4.9433452 L-0.000106382979,35.1834301 C0.000777907599,37.8796321 2.18409134,40.0629455 4.88029332,40.0638298 L28.0265992,40.0638298 C30.7219169,40.0629455 32.9052303,37.8796321 32.9061146,35.1834301 L32.9061146,15.4920475 C32.9061146,13.9516133 32.2906484,12.4757323 31.1950123,11.3915921 Z" id="Fill-1"></path>
                    </g>
                </g>
            </g>
        </g>
    </g>
</svg>