<?xml version="1.0" encoding="UTF-8"?>
<svg width="40px" height="40px" viewBox="0 0 40 40" version="1.1" xmlns="http://www.w3.org/2000/svg" xmlns:xlink="http://www.w3.org/1999/xlink">
    <!-- Generator: Sketch 51.3 (57544) - http://www.bohemiancoding.com/sketch -->
    <title>Fill 1</title>
    <desc>Created with Sketch.</desc>
    <defs></defs>
    <g id="Page-2" stroke="none" stroke-width="1" fill="none" fill-rule="evenodd">
        <g id="04.Web-management" transform="translate(-835.000000, -3872.000000)" fill="#FBAF21">
            <g id="Why-do-you-choose..." transform="translate(170.000000, 3677.000000)">
                <g id="Group-15" transform="translate(665.000000, 195.000000)">
                    <g id="icon-non-defective">
                        <path d="M20.0132145,26.9345438 C19.2808882,26.9345438 18.6188943,27.1933353 18.1491662,27.6632447 C17.6822175,28.130435 17.4249366,28.7862054 17.4249366,29.5095891 C17.4249366,31.0016737 18.5023384,32.084574 19.9868097,32.084574 L20.0132145,32.084574 C21.5215529,32.084574 22.5750272,31.0257221 22.5749668,29.5056616 C22.5460242,27.9918852 21.4925498,26.9345438 20.0132145,26.9345438 M32.9885196,32.9885498 C32.7161934,33.2608761 32.4360121,33.5224471 32.1499698,33.7754381 L22.0654381,21.3214804 L22.5279154,10.8208157 C22.541571,10.7039577 22.5491843,10.584139 22.5491843,10.4608157 C22.5205438,8.96214502 21.4776435,7.91543807 20.0131118,7.91543807 C19.2880967,7.91543807 18.6326888,8.171571 18.1677341,8.63676737 C17.7053172,9.09930514 17.4506949,9.74848943 17.4506949,10.4646828 C17.4506949,10.5865559 17.4586103,10.705287 17.4728097,10.8211782 L17.7085196,15.9409366 L9.04990937,5.24800604 C12.198429,2.90063444 16.001571,1.63145015 20,1.63145015 C24.9064048,1.63145015 29.5191541,3.54208459 32.9885196,7.01145015 C36.4578852,10.4808157 38.3685801,15.093565 38.3685801,20.0000302 C38.3685801,24.906435 36.4578852,29.5191843 32.9885196,32.9885498 M20,38.3686103 C15.0935952,38.3686103 10.4807855,36.4579154 7.01141994,32.9885498 C3.54205438,29.5191843 1.63141994,24.906435 1.63141994,20.0000302 C1.63141994,15.093565 3.54205438,10.4808157 7.01141994,7.01145015 C7.26374622,6.75918429 7.52277946,6.51610272 7.78682779,6.28045317 L17.8351057,18.6896375 L18.1260423,25.0079456 C18.1323867,25.1449245 18.234864,25.2524169 18.3592749,25.2524169 L21.6697885,25.2524169 C21.7943807,25.2524169 21.8970997,25.1446224 21.9030816,25.0074622 L21.9571601,23.7800906 L30.8822356,34.802145 C27.7470091,37.1173716 23.9697281,38.3686103 20,38.3686103 M34.1421148,5.85785498 C30.3645921,2.08039275 25.3421752,3.02114804e-05 20,3.02114804e-05 C14.6578248,3.02114804e-05 9.63534743,2.08039275 5.85782477,5.85785498 C2.08036254,9.63537764 0,14.6577946 0,20.0000302 C0,25.3422054 2.08036254,30.3646224 5.85782477,34.142145 C9.63534743,37.9196073 14.6578248,40.0000302 20,40.0000302 C25.3421752,40.0000302 30.3645921,37.9196073 34.1421148,34.142145 C37.9196375,30.3646224 40,25.3422054 40,20.0000302 C40,14.6577946 37.9196375,9.63537764 34.1421148,5.85785498" id="Fill-1"></path>
                    </g>
                </g>
            </g>
        </g>
    </g>
</svg>