<?xml version="1.0" encoding="UTF-8"?>
<svg width="40px" height="40px" viewBox="0 0 40 40" version="1.1" xmlns="http://www.w3.org/2000/svg" xmlns:xlink="http://www.w3.org/1999/xlink">
    <!-- Generator: Sketch 51.3 (57544) - http://www.bohemiancoding.com/sketch -->
    <title>Fill 1</title>
    <desc>Created with Sketch.</desc>
    <defs></defs>
    <g id="Page-2" stroke="none" stroke-width="1" fill="none" fill-rule="evenodd">
        <g id="04.Web-management" transform="translate(-835.000000, -3955.000000)" fill="#FBAF21">
            <g id="Why-do-you-choose..." transform="translate(170.000000, 3677.000000)">
                <g id="Group-16" transform="translate(665.000000, 278.000000)">
                    <g id="icon-optimized">
                        <path d="M20.002627,13.9882063 C16.6870079,13.9882063 13.9899921,16.6847143 13.9899921,19.9996984 C13.9899921,23.314746 16.6870079,26.0111905 20.002627,26.0111905 C23.3158968,26.0111905 26.0118333,23.314746 26.0118333,19.9996984 C26.0118333,16.6847143 23.3158968,13.9882063 20.002627,13.9882063 Z M20.002627,27.7606508 C15.722246,27.7606508 12.2404683,24.2793175 12.2404683,19.9996984 C12.2404683,15.7200794 15.722246,12.238746 20.002627,12.238746 C24.2805317,12.238746 27.7612302,15.7200794 27.7612302,19.9996984 C27.7612302,24.2793175 24.2805317,27.7606508 20.002627,27.7606508 Z M17.050373,38.2505556 L22.9525317,38.2505556 L22.9525317,34.5466825 C22.9525317,34.1474444 23.2224365,33.798873 23.6096746,33.699254 C24.8705635,33.375254 26.0676429,32.8894762 27.1689762,32.2555714 C27.5106905,32.058619 27.9435159,32.1155079 28.2236429,32.395127 L30.8216111,34.9920159 L34.9937381,30.8200159 L32.4572302,28.2863016 C32.1724683,28.0010317 32.118881,27.5579841 32.3285317,27.2134127 C33.0141825,26.0835079 33.5415476,24.8654127 33.894627,23.5926508 C33.9993254,23.2139206 34.3444683,22.9520159 34.7374841,22.9520159 L38.2534206,22.9520159 L38.2534206,17.0503651 L34.8673254,17.0503651 C34.4629444,17.0503651 34.1109444,16.7736032 34.0165317,16.3806508 C33.6929762,15.0360159 33.1850397,13.7576667 32.5084683,12.5816667 C32.3114524,12.238746 32.3684048,11.8065556 32.6485317,11.5269365 L34.9937381,9.18115873 L30.8216111,5.0085873 L28.5391349,7.29163492 C28.2545,7.57646032 27.8090397,7.6294127 27.4674524,7.42096825 C26.2680238,6.69366667 24.9696746,6.147 23.6085952,5.79506349 C23.2224365,5.69544444 22.9525317,5.34680952 22.9525317,4.94820635 L22.9525317,1.74947619 L17.050373,1.74947619 L17.050373,4.94820635 C17.050373,5.34680952 16.7804683,5.69544444 16.3943095,5.79506349 C15.0331667,6.14642857 13.7359603,6.69366667 12.5389444,7.42096825 C12.1938651,7.6294127 11.7518333,7.57646032 11.4659286,7.29163492 L9.18116667,5.00801587 L5.01030952,9.18115873 L7.35316667,11.5269365 C7.63335714,11.8065556 7.69024603,12.238746 7.49329365,12.5816667 C6.81786508,13.7553175 6.31094444,15.0337937 5.98637302,16.3806508 C5.89183333,16.7736032 5.53996032,17.0503651 5.13557937,17.0503651 L1.74948413,17.0503651 L1.74948413,22.9520159 L5.26656349,22.9520159 C5.66065873,22.9520159 6.00459524,23.2144921 6.10948413,23.5942381 C6.46015079,24.8636984 6.98637302,26.0812857 7.67329365,27.2134127 C7.88281746,27.5579841 7.82929365,28.0010317 7.54446825,28.2857302 L5.01030952,30.8200159 L9.18116667,34.9920159 L11.7780556,32.395127 C12.0571032,32.1143651 12.4910079,32.0574762 12.8327222,32.2555714 C13.934119,32.8901111 15.1323413,33.3758254 16.3931032,33.699254 C16.7804683,33.798873 17.050373,34.1474444 17.050373,34.5466825 L17.050373,38.2505556 Z M23.8272619,40.0000159 L16.1756429,40.0000159 C15.6927857,40.0000159 15.3008492,39.6082698 15.3008492,39.1252857 L15.3008492,35.2106825 C14.3452937,34.9219206 13.4249762,34.5489048 12.5514524,34.0955714 L9.79964286,36.847381 C9.63570635,37.0113175 9.41361111,37.1035714 9.18116667,37.1035714 C8.94878571,37.1035714 8.72675397,37.0113175 8.56275397,36.847381 L3.15494444,31.4383651 C2.81329365,31.0967778 2.81329365,30.543127 3.15494444,30.2014762 L5.83265873,27.5238254 C5.33716667,26.6222381 4.92942063,25.6775397 4.61507143,24.7014127 L0.874690476,24.7014127 C0.391769841,24.7014127 -3.96825397e-05,24.3096032 -3.96825397e-05,23.826746 L-3.96825397e-05,16.1756349 C-3.96825397e-05,15.6926508 0.391769841,15.3009048 0.874690476,15.3009048 L4.46135714,15.3009048 C4.75970635,14.2558889 5.15951587,13.250746 5.65272222,12.3002063 L3.15494444,9.79963492 C2.81329365,9.45792063 2.81329365,8.90439683 3.15494444,8.56280952 L8.56275397,3.15265079 C8.89075397,2.8245873 9.47170635,2.8245873 9.79964286,3.15265079 L12.2280238,5.57969841 C13.2040873,5.04338095 14.2325317,4.60992063 15.3008492,4.28534921 L15.3008492,0.874746032 C15.3008492,0.391761905 15.6927857,1.58730159e-05 16.1756429,1.58730159e-05 L23.8272619,1.58730159e-05 C24.310119,1.58730159e-05 24.7020556,0.391761905 24.7020556,0.874746032 L24.7020556,4.28534921 C25.770373,4.60992063 26.7999603,5.04338095 27.7760873,5.58033333 L30.2032619,3.15265079 C30.5311984,2.8245873 31.1121508,2.8245873 31.4401508,3.15265079 L36.8491032,8.56280952 C37.1908175,8.90439683 37.1908175,9.45792063 36.8491032,9.79963492 L34.3489762,12.3002063 C34.8433889,13.2525238 35.2431984,14.2570317 35.5415476,15.3009048 L39.1282143,15.3009048 C39.6111349,15.3009048 40.0029444,15.6926508 40.0029444,16.1756349 L40.0029444,23.826746 C40.0029444,24.3096032 39.6111349,24.7014127 39.1282143,24.7014127 L35.3878333,24.7014127 C35.0723413,25.678619 34.6645952,26.623381 34.1691667,27.5231905 L36.8491032,30.2009683 C37.0131032,30.3649048 37.1052937,30.5875714 37.1052937,30.8200159 C37.1052937,31.0517619 37.0131032,31.2743651 36.8491032,31.4383651 L31.4401508,36.847381 C31.098373,37.1890952 30.5448492,37.1890952 30.2032619,36.847381 L27.4503095,34.0955714 C26.5779286,34.5489048 25.6575476,34.9219206 24.7020556,35.2101111 L24.7020556,39.1252857 C24.7020556,39.6082698 24.310119,40.0000159 23.8272619,40.0000159 Z" id="Fill-1"></path>
                    </g>
                </g>
            </g>
        </g>
    </g>
</svg>