<?xml version="1.0" encoding="UTF-8"?>
<svg width="45px" height="34px" viewBox="0 0 45 34" version="1.1" xmlns="http://www.w3.org/2000/svg" xmlns:xlink="http://www.w3.org/1999/xlink">
    <!-- Generator: Sketch 51.3 (57544) - http://www.bohemiancoding.com/sketch -->
    <title>Fill 6</title>
    <desc>Created with Sketch.</desc>
    <defs></defs>
    <g id="Page-2" stroke="none" stroke-width="1" fill="none" fill-rule="evenodd">
        <g id="05.Google-adwordS-&amp;-GDN" transform="translate(-598.000000, -1067.000000)" fill="#FBAF21">
            <g id="Group" transform="translate(-240.000000, 931.000000)">
                <g id="Brief-analytis" transform="translate(410.000000, 0.000000)">
                    <g id="Group-19" transform="translate(428.000000, 131.000000)">
                        <g id="icon-reach-the-most..." transform="translate(0.000000, 5.000000)">
                            <path d="M34.0319223,30.2799079 C33.5514133,30.8845413 33.0022602,31.1456897 32.4053911,31.1498481 L12.5956972,31.1498481 C11.998828,31.1456897 11.4488378,30.8845413 10.9683288,30.2799079 C10.5623239,29.7601061 10.3371376,29.0881064 10.3371376,28.3961463 C10.3371376,28.1275128 10.3714597,27.8555525 10.4409409,27.5902457 C11.1692385,24.7974549 12.5103106,22.9403072 13.9518375,21.6536939 C15.3916902,20.3695757 16.9495773,19.6692987 18.0696487,19.3025266 C19.6601836,18.7793981 20.732539,17.3031612 20.7308647,15.6389639 C20.732539,14.8006276 20.4470798,13.9864102 19.9381087,13.3110838 C18.7669727,11.7649854 17.9683567,9.40965975 17.9792393,7.57829422 C17.9784022,6.00225532 18.5250439,4.58922625 19.364679,3.59702867 C20.211011,2.60233605 21.3109914,2.03845511 22.5005441,2.03762343 C23.6900968,2.03845511 24.7892402,2.60233605 25.6355722,3.59702867 C26.4768814,4.58922625 27.0235232,6.00225532 27.0218489,7.57829422 C27.0335687,9.40965975 26.2357898,11.7649854 25.0629796,13.3102521 C24.5540084,13.9855785 24.2677121,14.8006276 24.2693864,15.6389639 C24.2677121,17.3023295 25.3400675,18.7793981 26.9322767,19.3016949 C28.051511,19.6692987 29.608561,20.3695757 31.0492508,21.6536939 C32.4899406,22.9411389 33.8310126,24.7982866 34.5609845,27.5902457 C34.6296286,27.8547208 34.6631135,28.1266811 34.6631135,28.3961463 C34.6639507,29.0872747 34.4379273,29.7601061 34.0319223,30.2799079 M32.4179479,20.1367045 C34.1298658,21.6570206 35.7229121,23.9017325 36.5466417,27.0812558 C36.6588163,27.5153943 36.7132293,27.9578495 36.7132293,28.3961463 C36.7132293,29.5205815 36.3524291,30.6275513 35.6525937,31.5274321 C34.8606747,32.5545603 33.6794933,33.192461 32.4053911,33.1874709 L12.5956972,33.1874709 C11.3207579,33.192461 10.1395764,32.5545603 9.34765745,31.5274321 C8.64782208,30.6275513 8.28785892,29.5205815 8.28785892,28.3961463 C8.28785892,27.9578495 8.34310908,27.5153943 8.45528365,27.0804242 C9.27901331,23.9009008 10.8703854,21.6570206 12.5831403,20.1367045 C14.2958953,18.6130616 16.1124536,17.7996758 17.4259006,17.3688641 C18.1784748,17.1193593 18.6799118,16.4290626 18.6807489,15.6389639 C18.6799118,15.2538948 18.5560175,14.8779741 18.2939978,14.5286674 C16.8399141,12.5700544 15.9408433,9.94526347 15.9291235,7.57829422 C15.9299607,5.53734464 16.6272846,3.67021676 17.7950721,2.28712827 C18.9569997,0.906534821 20.631247,-0.000831111545 22.5005441,5.71252474e-07 C24.3690041,-0.000831111545 26.0432514,0.906534821 27.2060161,2.28712827 C28.3729665,3.66938508 29.0711276,5.53734464 29.0719647,7.57829422 C29.0610821,9.94526347 28.1611742,12.5700544 26.7062533,14.5278357 C26.4442336,14.8788058 26.3203393,15.2538948 26.3195022,15.6389639 C26.3203393,16.4282309 26.8226135,17.1193593 27.5760248,17.3680324 C28.8886347,17.7996758 30.705193,18.6130616 32.4179479,20.1367045 Z M44.8752686,24.5458708 C44.9598181,24.8710588 45,25.2020686 45,25.5322466 C45,26.3697512 44.7337947,27.1972756 44.208081,27.8734337 C44.208081,27.8734337 44.208081,27.8742654 44.2072439,27.8750971 L44.2064068,27.8759287 L44.2055697,27.8767604 C44.2055697,27.8775921 44.2047325,27.8775921 44.2047325,27.8775921 C44.0297737,28.1013148 43.761057,28.3948988 43.361749,28.6510571 C42.9657895,28.9072154 42.4191478,29.1192945 41.7804225,29.1176312 L40.1564026,29.1176312 C39.5913441,29.1176312 39.1317633,28.6610373 39.1317633,28.0988197 C39.1317633,27.5366022 39.5913441,27.0800083 40.1564026,27.0800083 L41.7804225,27.0800083 C41.9729609,27.0783449 42.1119234,27.0251172 42.2533973,26.9377906 C42.3906856,26.8504639 42.5137428,26.7223847 42.5840612,26.6308996 L42.5848983,26.6300679 L42.5857354,26.6284046 C42.8176187,26.3323255 42.9507213,25.9406029 42.9507213,25.5322466 C42.9507213,25.3725635 42.9306304,25.2112171 42.8896113,25.054029 C42.366409,23.0530002 41.4145994,21.7389414 40.3933086,20.824922 C39.3711806,19.9133976 38.2628289,19.414388 37.4650501,19.1532396 C36.0394285,18.6858338 35.0784106,17.3617948 35.0800848,15.8705876 C35.0784106,15.1204097 35.3337333,14.3910239 35.7874543,13.7872222 C36.6061612,12.712688 37.1762424,11.0301937 37.1645227,9.76686751 C37.1661969,8.70730362 36.8003739,7.76251196 36.2545693,7.11130433 C35.7029048,6.45760165 35.0139521,6.10912656 34.2806317,6.1074632 C33.8277479,6.10829488 33.3740268,6.25300769 32.9429082,6.54492835 C32.4749561,6.86263118 31.8370678,6.74370054 31.5172866,6.27878985 C31.1983425,5.81471085 31.3180512,5.18096856 31.7851662,4.86326573 C32.5126266,4.36841447 33.3740268,4.06984034 34.2806317,4.07067203 C35.7020677,4.06984034 36.9677986,4.77011726 37.8325474,5.80972076 C38.7023188,6.85348267 39.2138014,8.24738304 39.2146385,9.76686751 C39.204593,11.5674608 38.5315456,13.5185886 37.4315651,15.0039741 C37.2247956,15.2825878 37.1310378,15.5703501 37.1302006,15.8705876 C37.1310378,16.4876962 37.5219745,17.0249633 38.1087982,17.2187454 C39.0999526,17.544765 40.4678126,18.1568836 41.7611686,19.3079326 C43.0545247,20.4564865 44.2574713,22.1564461 44.8752686,24.5458708 Z M4.60920278,20.8248388 C3.58707481,21.7396899 2.63610235,23.052917 2.11206295,25.0547775 C2.07104389,25.2111339 2.0501158,25.3724804 2.0501158,25.5321635 C2.0501158,25.9405197 2.18405559,26.3322423 2.41593883,26.6291531 L2.41677596,26.6291531 L2.41677596,26.6299847 L2.41761308,26.6299847 C2.48793147,26.7223015 2.61015152,26.8512124 2.7474398,26.9377074 C2.88975082,27.0258658 3.02787622,27.0790935 3.22125178,27.0799251 L4.84443452,27.0799251 C5.41033011,27.0799251 5.86991099,27.536519 5.86991099,28.0987366 C5.86991099,28.6609541 5.41033011,29.117548 4.84443452,29.117548 L3.22125178,29.117548 C2.58252644,29.1192114 2.0358847,28.9071322 1.63908809,28.6509739 C1.24061724,28.3948156 0.97190055,28.1020633 0.796941708,27.8783406 C0.796104585,27.8775089 0.795267461,27.8775089 0.795267461,27.8766773 L0.794430337,27.8758456 L0.793593214,27.8758456 L0.793593214,27.8741822 C0.267879566,27.1980241 0.000837123643,26.3704997 0,25.5321635 C0,25.2036487 0.0418561822,24.8709756 0.127242794,24.5441243 C0.744202919,22.1571947 1.94631247,20.4564033 3.2396685,19.3078494 C4.53302453,18.1568004 5.90172168,17.5446819 6.89203895,17.2194939 C7.47969975,17.0248801 7.87063649,16.487613 7.87147362,15.8705044 C7.87063649,15.5710986 7.77604152,15.2825047 7.57010911,15.0047226 C6.47012864,13.5185054 5.79791835,11.5673776 5.78619862,9.76678434 C5.78703575,8.24729987 6.29935541,6.8533995 7.16912688,5.80963759 C8.0338756,4.77003409 9.29960655,4.06975717 10.7210425,4.07058886 C11.6276474,4.06975717 12.4882105,4.3683313 13.215671,4.86318256 C13.6836231,5.18088539 13.8033318,5.81462768 13.4843876,6.27870669 C13.1646064,6.74361737 12.5258811,6.86254801 12.0587661,6.54567686 C11.6276474,6.25292452 11.1747635,6.10821171 10.7210425,6.10738003 C9.98772219,6.10904339 9.29876943,6.45751849 8.74626782,7.11122117 C8.20046321,7.7624288 7.8354773,8.70722045 7.83631442,9.76678434 C7.82543182,11.0301105 8.39467589,12.7126048 9.21505706,13.7879707 C9.66794095,14.3909407 9.92326367,15.1203265 9.92242654,15.8705044 C9.92326367,17.3617116 8.9614086,18.6857507 7.53494991,19.1539881 C6.73884533,19.4143048 5.63049362,19.9133145 4.60920278,20.8248388 Z" id="Fill-6"></path>
                        </g>
                    </g>
                </g>
            </g>
        </g>
    </g>
</svg>