<?xml version="1.0" encoding="UTF-8"?>
<svg width="40px" height="40px" viewBox="0 0 40 40" version="1.1" xmlns="http://www.w3.org/2000/svg" xmlns:xlink="http://www.w3.org/1999/xlink">
    <!-- Generator: Sketch 51.3 (57544) - http://www.bohemiancoding.com/sketch -->
    <title>Fill 1</title>
    <desc>Created with Sketch.</desc>
    <defs></defs>
    <g id="Page-2" stroke="none" stroke-width="1" fill="none" fill-rule="evenodd">
        <g id="05.Google-adwordS-&amp;-GDN" transform="translate(-978.000000, -1065.000000)" fill="#FBAF21">
            <g id="Group" transform="translate(-240.000000, 931.000000)">
                <g id="Brief-analytis" transform="translate(410.000000, 0.000000)">
                    <g id="Group-21" transform="translate(808.000000, 131.000000)">
                        <g id="icon-effectylive-measure-the-efficiencu" transform="translate(0.000000, 3.000000)">
                            <path d="M32.4413433,38.0159429 C30.1800742,38.0159429 28.3403344,36.1871332 28.3403344,33.9392262 C28.3403344,31.6912603 30.1800742,29.8624506 32.4413433,29.8624506 C34.7026123,29.8624506 36.5423521,31.6912603 36.5423521,33.9392262 C36.5423521,36.1871332 34.7026123,38.0159429 32.4413433,38.0159429 M19.6939781,25.3439619 C16.4955692,25.3439619 13.8934035,22.7572316 13.8934035,19.5776046 C13.8934035,16.3980364 16.4955692,13.8113061 19.6939781,13.8113061 C22.8925055,13.8113061 25.4946712,16.3980364 25.4946712,19.5776046 C25.4946712,22.7572316 22.8925055,25.3439619 19.6939781,25.3439619 M7.79654386,32.5247433 C7.17529916,32.5247433 6.66987875,32.0223095 6.66987875,31.4047946 C6.66987875,30.7872798 7.17529916,30.284846 7.79654386,30.284846 C8.4177293,30.284846 8.92314972,30.7872798 8.92314972,31.4047946 C8.92314972,32.0223095 8.4177293,32.5247433 7.79654386,32.5247433 M4.39723462,12.671981 C3.07310541,12.671981 1.99591001,11.6010919 1.99591001,10.284846 C1.99591001,8.9685412 3.07310541,7.89765215 4.39723462,7.89765215 C5.72136383,7.89765215 6.79861847,8.9685412 6.79861847,10.284846 C6.79861847,11.6010919 5.72136383,12.671981 4.39723462,12.671981 M34.9907808,1.984116 C36.31491,1.984116 37.3921054,3.05494616 37.3921054,4.37125096 C37.3921054,5.68749687 36.31491,6.75838592 34.9907808,6.75838592 C33.6667108,6.75838592 32.5894562,5.68749687 32.5894562,4.37125096 C32.5894562,3.05494616 33.6667108,1.984116 34.9907808,1.984116 M32.4413433,27.8783935 C31.3947776,27.8783935 30.3650968,28.1475439 29.455032,28.6579286 L25.8379968,24.3430991 C26.9044689,22.9864512 27.4905219,21.2989897 27.4905219,19.5776046 C27.4905219,17.8714144 26.9139481,16.1965564 25.8646571,14.8462102 L32.6695556,8.08152256 C33.3667526,8.51434242 34.1666214,8.74250192 34.9907808,8.74250192 C37.415448,8.74250192 39.3880154,6.78153168 39.3880154,4.37125096 C39.3880154,1.96097024 37.415448,0 34.9907808,0 C32.5661136,0 30.5936054,1.96097024 30.5936054,4.37125096 C30.5936054,5.19048138 30.8231211,5.98562371 31.2583953,6.67881868 L24.4535561,13.4433886 C23.0952424,12.400298 21.4103694,11.8271901 19.6939781,11.8271901 C17.5189107,11.8271901 15.4358511,12.7388269 13.9594026,14.332763 L8.66721065,11.3265231 C8.75169424,10.9848728 8.79446924,10.6350361 8.79446924,10.284846 C8.79446924,7.87450639 6.82184257,5.91359504 4.39723462,5.91359504 C1.97262667,5.91359504 0,7.87450639 0,10.284846 C0,12.6951267 1.97262667,14.6560381 4.39723462,14.6560381 C5.70157594,14.6560381 6.92001179,14.0892908 7.76022658,13.0963199 L12.8008636,15.9596804 C12.2094192,17.0696169 11.8974935,18.3171912 11.8974935,19.5776046 C11.8974935,21.2837947 12.4740081,22.9587116 13.5233582,24.3090578 L9.18276198,28.6239461 C8.75412329,28.4122184 8.27725904,28.30073 7.79654386,28.30073 C6.07476117,28.30073 4.67402798,29.693245 4.67402798,31.4047946 C4.67402798,33.1164032 6.07476117,34.5088593 7.79654386,34.5088593 C9.51826729,34.5088593 10.9190005,33.1164032 10.9190005,31.4047946 C10.9190005,30.9269201 10.8069087,30.4528736 10.5939223,30.0267089 L14.9344593,25.7118205 C16.292773,26.7549111 17.9776459,27.328019 19.6939781,27.328019 C21.4177158,27.328019 23.0461874,26.7805305 24.4130324,25.7431527 L27.899432,29.9020869 C26.8957006,31.0163817 26.3444837,32.4448227 26.3444837,33.9392262 C26.3444837,37.281168 29.0795362,40 32.4413433,40 C35.8031503,40 38.5381436,37.281168 38.5381436,33.9392262 C38.5381436,30.5972843 35.8031503,27.8783935 32.4413433,27.8783935" id="Fill-1"></path>
                        </g>
                    </g>
                </g>
            </g>
        </g>
    </g>
</svg>