<?xml version="1.0" encoding="UTF-8"?>
<svg width="40px" height="40px" viewBox="0 0 40 40" version="1.1" xmlns="http://www.w3.org/2000/svg" xmlns:xlink="http://www.w3.org/1999/xlink">
    <!-- Generator: Sketch 51.3 (57544) - http://www.bohemiancoding.com/sketch -->
    <title>Fill 5</title>
    <desc>Created with Sketch.</desc>
    <defs></defs>
    <g id="Page-2" stroke="none" stroke-width="1" fill="none" fill-rule="evenodd">
        <g id="05.Google-adwordS-&amp;-GDN" transform="translate(-201.000000, -2941.000000)" fill="#FBAF21">
            <path d="M219.892904,2965.56817 C216.761232,2965.56817 214.213784,2963.02126 214.213784,2959.89019 C214.213784,2956.75906 216.761232,2954.21221 219.892904,2954.21221 C223.022358,2954.21221 225.568666,2956.75906 225.568666,2959.89019 C225.568666,2963.02126 223.022358,2965.56817 219.892904,2965.56817 M219.892904,2952.5598 C223.933476,2952.5598 227.221069,2955.848 227.221069,2959.89019 C227.221069,2963.93244 223.933476,2967.22057 219.892904,2967.22057 C215.849994,2967.22057 212.561442,2963.93244 212.561442,2959.89019 C212.561442,2955.848 215.849994,2952.5598 219.892904,2952.5598 Z M223.299813,2972.8297 C223.644998,2972.74101 223.984965,2972.63906 224.319296,2972.525 C224.323494,2972.52356 224.327632,2972.522 224.33177,2972.52056 L224.33177,2974.25662 C224.33171,2974.25668 224.33165,2974.25668 224.33159,2974.25674 L224.33159,2977.95464 C224.33159,2978.41083 223.961457,2978.78084 223.505389,2978.78084 L216.278213,2978.78084 C215.822144,2978.78084 215.452012,2978.41083 215.452012,2977.95464 L215.452012,2974.25728 C214.54947,2973.98454 213.68021,2973.63221 212.855089,2973.20403 L210.256007,2975.80317 C210.101105,2975.95801 209.891332,2976.04515 209.671783,2976.04515 C209.452354,2976.04515 209.242641,2975.95801 209.087739,2975.80317 L203.979949,2970.69424 C203.657193,2970.37161 203.657193,2969.84867 203.979949,2969.52598 L206.509107,2966.99682 C206.041044,2966.14531 205.655919,2965.25296 205.35901,2964.33105 L201.826201,2964.33105 C201.370012,2964.33105 201,2963.96092 201,2963.50485 L201,2956.27827 C201,2955.82208 201.370012,2955.45207 201.826201,2955.45207 L205.213823,2955.45207 C205.49562,2954.46503 205.873249,2953.51565 206.339153,2952.61785 L203.979949,2950.25601 C203.657193,2949.93325 203.657193,2949.41044 203.979949,2949.0878 L209.087739,2943.97779 C209.397482,2943.66793 209.946204,2943.66793 210.256007,2943.97779 L212.549604,2946.27019 C213.471516,2945.76356 214.442964,2945.35421 215.452012,2945.04765 L215.452012,2941.82626 C215.452012,2941.37007 215.822144,2941 216.278213,2941 L223.505389,2941 C223.961457,2941 224.33159,2941.37007 224.33159,2941.82626 L224.33159,2945.04765 C225.340638,2945.35421 226.313165,2945.76356 227.235078,2946.27073 L229.527595,2943.97779 C229.837398,2943.66793 230.38612,2943.66793 230.695863,2943.97779 L235.804732,2949.0878 C236.127489,2949.41044 236.127489,2949.93325 235.804732,2950.25601 L233.44337,2952.61785 C233.910353,2953.51733 234.287981,2954.46611 234.569778,2955.45207 L237.957401,2955.45207 C238.413529,2955.45207 238.783602,2955.82208 238.783602,2956.27827 L238.783602,2963.50485 C238.783602,2963.96092 238.413529,2964.33105 237.957401,2964.33105 L234.424532,2964.33105 C234.424352,2964.33171 234.424172,2964.33231 234.423932,2964.33291 L232.676059,2964.33291 C232.802654,2963.9882 232.915817,2963.63834 233.014167,2963.28374 C233.113117,2962.92608 233.439052,2962.67865 233.810324,2962.67865 L237.1312,2962.67865 L237.1312,2957.10441 L233.932901,2957.10441 C233.550955,2957.10441 233.218544,2956.84307 233.129309,2956.47191 C232.823704,2955.20188 232.343947,2953.99439 231.704911,2952.88363 C231.518885,2952.5598 231.572618,2952.15153 231.837204,2951.88748 L234.052301,2949.67184 L230.111699,2945.73076 L227.955852,2947.88715 C227.686948,2948.15611 227.266262,2948.20613 226.943565,2948.00931 C225.81068,2947.32235 224.584362,2946.80602 223.298793,2946.47354 C222.934058,2946.37945 222.679188,2946.05022 222.679188,2945.67367 L222.679188,2942.65246 L217.104414,2942.65246 L217.104414,2945.67367 C217.104414,2946.05022 216.849484,2946.37945 216.484748,2946.47354 C215.19918,2946.80548 213.973882,2947.32235 212.843335,2948.00931 C212.51734,2948.20613 212.099832,2948.15611 211.829849,2947.88715 L209.671783,2945.73016 L205.73238,2949.67184 L207.945258,2951.88748 C208.209844,2952.15153 208.263637,2952.5598 208.077551,2952.88363 C207.439595,2953.99223 206.960858,2955.19978 206.654293,2956.47191 C206.564938,2956.84307 206.232587,2957.10441 205.8507,2957.10441 L202.652402,2957.10441 L202.652402,2962.67865 L205.974418,2962.67865 C206.346649,2962.67865 206.671504,2962.92662 206.770514,2963.2853 C207.101786,2964.48427 207.598814,2965.63437 208.247505,2966.70369 C208.445525,2967.02908 208.39491,2967.44761 208.125947,2967.71651 L205.73238,2970.11014 L209.671783,2974.05068 L212.124599,2971.59787 C212.388226,2971.33274 212.798058,2971.27901 213.120814,2971.46617 C214.161047,2972.06539 215.292793,2972.52422 216.483669,2972.8297 C216.849484,2972.92373 217.104414,2973.25309 217.104414,2973.63011 L217.104414,2977.1285 L222.679188,2977.1285 L222.679188,2973.63011 C222.679188,2973.25309 222.934058,2972.92373 223.299813,2972.8297 Z M232.905664,2975.02527 C231.735598,2975.02527 230.7837,2974.07355 230.7837,2972.90378 C230.7837,2971.73395 231.735598,2970.78224 232.905664,2970.78224 C234.074951,2970.78224 235.026249,2971.73395 235.026249,2972.90378 C235.026249,2974.07355 234.074951,2975.02527 232.905664,2975.02527 M232.905664,2969.61529 C231.092124,2969.61529 229.616692,2971.09048 229.616692,2972.90378 C229.616692,2974.71702 231.092124,2976.19221 232.905664,2976.19221 C234.718425,2976.19221 236.193197,2974.71702 236.193197,2972.90378 C236.193197,2971.09048 234.718425,2969.61529 232.905664,2969.61529 M239.834929,2973.82356 L238.693707,2973.82356 C238.43224,2973.82356 238.200997,2973.99939 238.131433,2974.25096 C237.99884,2974.7291 237.80064,2975.18733 237.542471,2975.61269 C237.402382,2975.84309 237.437584,2976.13737 237.628468,2976.32855 L238.455028,2977.15421 L237.155487,2978.45369 L236.304459,2977.60302 C236.118133,2977.41706 235.82878,2977.37886 235.601016,2977.51013 C235.187045,2977.74839 234.736854,2977.931 234.262734,2978.05279 C234.004745,2978.11918 233.824536,2978.35156 233.824536,2978.61801 L233.824536,2979.83299 L231.985809,2979.83299 L231.985809,2978.61801 C231.985809,2978.35156 231.8056,2978.11912 231.547431,2978.05273 C231.072952,2977.93106 230.62264,2977.74851 230.209569,2977.51049 C229.980905,2977.37796 229.691132,2977.41634 229.505286,2977.6032 L228.654858,2978.45369 L227.355676,2977.15415 L228.181518,2976.32825 C228.372341,2976.13749 228.407723,2975.84327 228.267574,2975.61293 C228.009165,2975.18703 227.811265,2974.7291 227.679452,2974.25192 C227.609827,2973.99969 227.378645,2973.82356 227.117117,2973.82356 L225.975476,2973.82356 L225.975476,2971.98507 L227.065663,2971.98507 C227.336426,2971.98507 227.569828,2971.80132 227.633096,2971.53836 C227.755314,2971.03119 227.945957,2970.55048 228.199808,2970.10934 C228.331022,2969.88098 228.292521,2969.59162 228.106496,2969.40602 L227.355556,2968.65412 L228.654918,2967.35404 L229.383008,2968.08177 C229.573592,2968.27163 229.867503,2968.30702 230.098386,2968.16765 C230.548637,2967.89407 231.03643,2967.68831 231.548151,2967.5562 C231.80584,2967.48975 231.985809,2967.25743 231.985809,2966.99128 L231.985809,2965.97468 L233.824536,2965.97468 L233.824536,2966.99128 C233.824536,2967.25743 234.004505,2967.48975 234.262074,2967.5562 C234.774575,2967.68873 235.262907,2967.89449 235.713039,2968.16741 C235.943322,2968.30798 236.237593,2968.27259 236.428536,2968.08147 L237.155487,2967.35428 L238.455148,2968.65406 L237.703669,2969.40572 C237.517404,2969.59162 237.478903,2969.88092 237.610177,2970.10946 C237.864868,2970.5521 238.055631,2971.03281 238.177249,2971.53824 C238.240577,2971.80132 238.473859,2971.98507 238.744682,2971.98507 L239.834929,2971.98507 L239.834929,2973.82356 Z M240.418433,2970.81812 L239.187857,2970.81812 C239.091306,2970.51234 238.972506,2970.21363 238.833137,2969.92643 L239.692801,2969.06665 C239.803025,2968.95637 239.863714,2968.80986 239.863714,2968.65406 C239.863714,2968.49826 239.803025,2968.35175 239.692801,2968.24153 L237.568078,2966.11639 C237.462052,2966.0103 237.311648,2965.94943 237.155487,2965.94943 C236.999387,2965.94943 236.848983,2966.0103 236.742957,2966.11639 L235.915076,2966.94445 C235.618407,2966.79194 235.309024,2966.66163 234.991485,2966.55566 L234.991485,2965.39117 C234.991485,2965.06944 234.729777,2964.80773 234.40804,2964.80773 L231.402364,2964.80773 C231.080628,2964.80773 230.81886,2965.06944 230.81886,2965.39117 L230.81886,2966.55566 C230.501981,2966.66151 230.192718,2966.7917 229.895808,2966.94433 L229.067448,2966.11639 C228.961362,2966.0103 228.811018,2965.94943 228.654858,2965.94943 C228.498697,2965.94943 228.348353,2966.0103 228.242267,2966.11639 L226.118084,2968.24153 C226.0078,2968.35175 225.947111,2968.49826 225.947111,2968.65406 C225.947111,2968.80986 226.0078,2968.95637 226.117964,2969.06653 L226.976848,2969.92637 C226.837659,2970.21345 226.718979,2970.51222 226.622428,2970.81812 L225.391972,2970.81812 C225.070235,2970.81812 224.808468,2971.07989 224.808468,2971.40157 L224.808468,2974.407 C224.808468,2974.72874 225.070235,2974.99051 225.391972,2974.99051 L226.688934,2974.99051 C226.788184,2975.27236 226.907284,2975.54858 227.044374,2975.81521 L226.118084,2976.7415 C226.0078,2976.85172 225.947111,2976.99823 225.947111,2977.15409 C225.947111,2977.30995 226.00786,2977.45646 226.118024,2977.56662 L228.242267,2979.69134 C228.352491,2979.80157 228.498997,2979.86226 228.654858,2979.86226 C228.810659,2979.86226 228.957224,2979.80157 229.067448,2979.69134 L230.025942,2978.73279 C230.281053,2978.85633 230.546658,2978.96403 230.81886,2979.05441 L230.81886,2980.4165 C230.81886,2980.73823 231.080628,2981 231.402364,2981 L234.40804,2981 C234.729777,2981 234.991485,2980.73823 234.991485,2980.4165 L234.991485,2979.05423 C235.263687,2978.96403 235.529112,2978.85639 235.784043,2978.73285 L236.742957,2979.69134 C236.853181,2979.80157 236.999686,2979.86226 237.155487,2979.86226 C237.311348,2979.86226 237.457854,2979.80157 237.568078,2979.69134 L239.692741,2977.56668 C239.801406,2977.45802 239.863714,2977.30767 239.863714,2977.15409 C239.863714,2976.99811 239.803025,2976.85154 239.692681,2976.7412 L238.765671,2975.81497 C238.902581,2975.54918 239.021681,2975.27302 239.121351,2974.99051 L240.418433,2974.99051 C240.74017,2974.99051 241.001877,2974.72874 241.001877,2974.407 L241.001877,2971.40157 C241.001877,2971.07989 240.74017,2970.81812 240.418433,2970.81812 Z" id="Fill-5"></path>
        </g>
    </g>
</svg>