<?xml version="1.0" encoding="UTF-8"?>
<svg width="40px" height="40px" viewBox="0 0 40 40" version="1.1" xmlns="http://www.w3.org/2000/svg" xmlns:xlink="http://www.w3.org/1999/xlink">
    <!-- Generator: Sketch 51.3 (57544) - http://www.bohemiancoding.com/sketch -->
    <title>Combined Shape</title>
    <desc>Created with Sketch.</desc>
    <defs></defs>
    <g id="Page-2" stroke="none" stroke-width="1" fill="none" fill-rule="evenodd">
        <g id="05.Google-adwordS-&amp;-GDN" transform="translate(-581.000000, -2941.000000)" fill="#FBAF21">
            <path d="M600.764586,2969.91822 C600.776815,2964.8828 604.882803,2960.77682 609.916178,2960.76459 C614.951592,2960.77682 619.055541,2964.8828 619.067771,2969.9172 C619.055541,2974.95261 614.951592,2979.05656 609.918217,2979.06777 C604.882803,2979.05656 600.776815,2974.95261 600.764586,2969.91822 Z M582.783439,2979.21656 L582.783439,2942.7814 L601.382166,2942.7814 L601.382166,2950.42675 L609.025478,2950.42675 L609.025478,2958.87108 L608.685096,2958.90879 C606.584713,2959.14013 604.604586,2959.96662 602.957707,2961.29758 L602.852739,2961.38217 L586.095541,2961.38217 L586.095541,2963.16561 L601.099873,2963.16561 L600.70242,2963.75975 C600.204076,2964.50675 599.792357,2965.33529 599.478471,2966.22293 L599.38879,2966.47771 L586.095541,2966.47771 L586.095541,2968.26115 L598.955669,2968.26115 L598.906752,2968.68611 C598.857834,2969.12025 598.834395,2969.52382 598.834395,2969.9172 C598.834395,2973.28025 600.338599,2976.42115 602.959745,2978.53682 L603.802548,2979.21656 L582.783439,2979.21656 Z M603.163567,2942.77019 L609.038726,2948.64331 L603.163567,2948.64331 L603.163567,2942.77019 Z M610.808917,2958.87108 L611.149299,2958.90879 C616.762548,2959.52841 620.997962,2964.26115 621,2969.9172 C620.997962,2975.57019 616.762548,2980.30395 611.149299,2980.92662 L610.929172,2981 L581,2981 L581,2941 L603.916688,2941 L610.808917,2947.89019 L610.808917,2958.87108 Z M586.095541,2958.07057 L605.713376,2958.07057 L605.713376,2956.28713 L586.095541,2956.28713 L586.095541,2958.07057 Z M610.811363,2963.93045 L609.025885,2963.93045 L609.025885,2969.02599 L603.930344,2969.02599 L603.930344,2970.80943 L609.025885,2970.80943 L609.025885,2975.90497 L610.811363,2975.90497 L610.811363,2970.80943 L615.904866,2970.80943 L615.904866,2969.02599 L610.811363,2969.02599 L610.811363,2963.93045 Z" id="Combined-Shape"></path>
        </g>
    </g>
</svg>