<?xml version="1.0" encoding="UTF-8"?>
<svg width="42px" height="42px" viewBox="0 0 42 42" version="1.1" xmlns="http://www.w3.org/2000/svg" xmlns:xlink="http://www.w3.org/1999/xlink">
    <!-- Generator: Sketch 51.3 (57544) - http://www.bohemiancoding.com/sketch -->
    <title>Combined Shape</title>
    <desc>Created with Sketch.</desc>
    <defs></defs>
    <g id="Page-2" stroke="none" stroke-width="1" fill="none" fill-rule="evenodd">
        <g id="01.-Home" transform="translate(-267.000000, -2282.000000)" fill="#FBAF21" stroke="#FBAF21" stroke-width="0.2">
            <g id="What-we-đo" transform="translate(170.000000, 1931.000000)">
                <path d="M103.454869,386.545455 L113.60598,386.545455 L113.60598,374.033939 L103.454869,374.033939 L103.454869,386.545455 Z M137.393939,352 C137.729293,352 138,352.271515 138,352.606061 L138,358.666667 L138,391.393939 C138,391.728485 137.729293,392 137.393939,392 L111.988687,392 L98.6060606,392 C98.2715152,392 98,391.728485 98,391.393939 L98,358.666667 L98,352.606061 C98,352.271515 98.2715152,352 98.6060606,352 L137.393939,352 Z M136.787879,390.787879 L136.787879,359.272727 L99.2121212,359.272727 L99.2121212,390.787879 L111.988687,390.787879 L136.787879,390.787879 Z M102.848808,387.757576 C102.513455,387.757576 102.242747,387.486061 102.242747,387.151515 L102.242747,373.427879 C102.242747,373.093333 102.513455,372.821818 102.848808,372.821818 L114.211232,372.821818 C114.545778,372.821818 114.817293,373.093333 114.817293,373.427879 L114.817293,387.151515 C114.817293,387.486061 114.545778,387.757576 114.211232,387.757576 L102.848808,387.757576 Z M123.882343,381.760808 C124.217697,381.760808 124.488404,382.032323 124.488404,382.366869 L124.488404,387.151515 C124.488404,387.486061 124.217697,387.757576 123.882343,387.757576 L118.606384,387.757576 C118.27103,387.757576 118.000323,387.486061 118.000323,387.151515 L118.000323,382.366869 C118.000323,382.032323 118.27103,381.760808 118.606384,381.760808 L123.882343,381.760808 Z M119.211636,386.545455 L123.276283,386.545455 L123.276283,382.972929 L119.211636,382.972929 L119.211636,386.545455 Z M133.151838,381.760808 C133.486384,381.760808 133.757899,382.032323 133.757899,382.366869 L133.757899,387.151515 C133.757899,387.486061 133.486384,387.757576 133.151838,387.757576 L127.875071,387.757576 C127.540525,387.757576 127.26901,387.486061 127.26901,387.151515 L127.26901,382.366869 C127.26901,382.032323 127.540525,381.760808 127.875071,381.760808 L133.151838,381.760808 Z M128.481939,386.545455 L132.545778,386.545455 L132.545778,382.972929 L128.481939,382.972929 L128.481939,386.545455 Z M133.151838,372.821818 C133.486384,372.821818 133.757899,373.093333 133.757899,373.427879 L133.757899,378.212525 C133.757899,378.547071 133.486384,378.818586 133.151838,378.818586 L118.606384,378.818586 C118.27103,378.818586 118.000323,378.547071 118.000323,378.212525 L118.000323,373.427879 C118.000323,373.093333 118.27103,372.821818 118.606384,372.821818 L133.151838,372.821818 Z M119.212444,377.606465 L132.545778,377.606465 L132.545778,374.033939 L119.212444,374.033939 L119.212444,377.606465 Z M102.848808,369.791515 C102.513455,369.791515 102.242747,369.52 102.242747,369.185455 L102.242747,362.909091 C102.242747,362.574545 102.513455,362.30303 102.848808,362.30303 L133.151838,362.30303 C133.486384,362.30303 133.757899,362.574545 133.757899,362.909091 L133.757899,369.185455 C133.757899,369.52 133.486384,369.791515 133.151838,369.791515 L102.848808,369.791515 Z M103.454869,368.579394 L132.545778,368.579394 L132.545778,363.515152 L103.454869,363.515152 L103.454869,368.579394 Z M99.2121212,358.060606 L136.787879,358.060606 L136.787879,353.212121 L99.2121212,353.212121 L99.2121212,358.060606 Z M133.782384,355.209455 C134.00703,354.979152 134.40703,354.979152 134.637333,355.209455 C134.752081,355.32501 134.819152,355.476121 134.819152,355.639354 C134.819152,355.796929 134.752081,355.94804 134.64299,356.063596 C134.521778,356.179152 134.370667,356.238949 134.213091,356.238949 C134.049051,356.238949 133.897131,356.179152 133.782384,356.063596 C133.666828,355.94804 133.60703,355.796929 133.60703,355.639354 C133.60703,355.476121 133.666828,355.32501 133.782384,355.209455 Z M130.273455,355.027152 C130.606384,355.027152 130.879515,355.300283 130.879515,355.633212 C130.879515,355.973414 130.606384,356.239273 130.273455,356.239273 C129.940525,356.239273 129.667394,355.973414 129.667394,355.633212 C129.667394,355.300283 129.940525,355.027152 130.273455,355.027152 Z M125.904,355.209455 C126.134303,354.979152 126.534303,354.984808 126.763798,355.209455 C126.872889,355.32501 126.93996,355.476121 126.93996,355.639354 C126.93996,355.796929 126.872889,355.954505 126.763798,356.063596 C126.649051,356.179152 126.491475,356.238949 126.333899,356.238949 C126.169859,356.238949 126.018747,356.179152 125.904,356.063596 C125.788444,355.954505 125.727838,355.796929 125.727838,355.639354 C125.727838,355.476121 125.788444,355.32501 125.904,355.209455 Z" id="Combined-Shape"></path>
            </g>
        </g>
    </g>
</svg>