<?xml version="1.0" encoding="UTF-8"?>
<svg width="40px" height="33px" viewBox="0 0 40 33" version="1.1" xmlns="http://www.w3.org/2000/svg" xmlns:xlink="http://www.w3.org/1999/xlink">
    <!-- Generator: Sketch 51.3 (57544) - http://www.bohemiancoding.com/sketch -->
    <title>Combined Shape</title>
    <desc>Created with Sketch.</desc>
    <defs></defs>
    <g id="Page-2" stroke="none" stroke-width="1" fill="none" fill-rule="evenodd">
        <g id="05.Google-adwordS-&amp;-GDN" transform="translate(-961.000000, -2941.000000)" fill="#FBAF21">
            <path d="M998.205374,2966.16072 C999.816934,2966.61195 1001,2968.10505 1001,2969.87741 C1001,2972.00719 999.291642,2973.73372 997.184275,2973.73372 C995.544921,2973.73372 994.147028,2972.68891 993.606984,2971.22222 L984.676581,2971.22222 C984.136537,2972.68891 982.738644,2973.73372 981.09929,2973.73372 C979.459936,2973.73372 978.062043,2972.68891 977.521999,2971.22222 L968.393016,2971.22222 C967.852972,2972.68891 966.455079,2973.73372 964.815725,2973.73372 C962.708358,2973.73372 961,2972.00719 961,2969.87741 C961,2967.74762 962.708358,2966.02109 964.815725,2966.02109 C966.498987,2966.02109 967.927681,2967.12262 968.434552,2968.65134 L977.480463,2968.65134 C977.987334,2967.12262 979.416027,2966.02109 981.09929,2966.02109 C982.782553,2966.02109 984.211246,2967.12262 984.718117,2968.65134 L993.565448,2968.65134 C993.964236,2967.4486 994.933628,2966.51029 996.148671,2966.16481 L996.148671,2945.43583 C995.330531,2945.0792 994.758611,2944.26328 994.758611,2943.31379 C994.758611,2942.03592 995.79453,2941 997.072401,2941 C998.350273,2941 999.386192,2942.03592 999.386192,2943.31379 C999.386192,2944.18006 998.910139,2944.93514 998.205374,2945.33169 L998.205374,2966.16072 Z M994.850172,2946.01321 L994.850172,2961.35054 L978.243504,2953.68187 L994.850172,2946.01321 Z M964.815725,2972.50914 C966.25389,2972.50914 967.419754,2971.33087 967.419754,2969.87741 C967.419754,2968.42394 966.25389,2967.24567 964.815725,2967.24567 C963.377559,2967.24567 962.211696,2968.42394 962.211696,2969.87741 C962.211696,2971.33087 963.377559,2972.50914 964.815725,2972.50914 Z M981.003735,2972.53315 C982.484317,2972.53315 983.684565,2971.3329 983.684565,2969.85232 C983.684565,2968.37174 982.484317,2967.17149 981.003735,2967.17149 C979.523153,2967.17149 978.322904,2968.37174 978.322904,2969.85232 C978.322904,2971.3329 979.523153,2972.53315 981.003735,2972.53315 Z" id="Combined-Shape"></path>
        </g>
    </g>
</svg>