<?xml version="1.0" encoding="UTF-8"?>
<svg width="50px" height="50px" viewBox="0 0 50 50" version="1.1" xmlns="http://www.w3.org/2000/svg" xmlns:xlink="http://www.w3.org/1999/xlink">
    <!-- Generator: Sketch 51.3 (57544) - http://www.bohemiancoding.com/sketch -->
    <title>Fill 1</title>
    <desc>Created with Sketch.</desc>
    <defs></defs>
    <g id="Page-2" stroke="none" stroke-width="1" fill="none" fill-rule="evenodd">
        <g id="06.Facebook-Ads" transform="translate(-551.000000, -1027.000000)" fill="#FBAF21">
            <g id="Group-2" transform="translate(170.000000, 1027.000000)">
                <path d="M429.333301,45.8333008 C429.333301,47.25 428.25,48.3333008 426.833301,48.3333008 L414.333301,48.3333008 L414.333301,33.3333008 L422.666602,33.3333008 L422.666602,23.3333008 L414.333301,23.3333008 L414.333301,19.1666016 C414.333301,18.6666016 414.666602,18.3333008 415.166602,18.3333008 L423.5,18.3333008 L423.5,8.33330078 L414.25,8.33330078 C408.666699,8.83330078 404.333301,13.5833008 404.333301,19.1666016 L404.333301,23.3333008 L397.666602,23.3333008 L397.666602,33.3333008 L404.333301,33.3333008 L404.333301,48.3333008 L385.166699,48.3333008 C383.75,48.3333008 382.666699,47.25 382.666699,45.8333008 L382.666699,4.16669922 C382.666699,2.75 383.75,1.66669922 385.166699,1.66669922 L426.833398,1.66669922 C428.250098,1.66669922 429.333398,2.75 429.333398,4.16669922 L429.333398,45.8333008 L429.333301,45.8333008 Z M406,48.3333008 L406,31.6666992 L399.333301,31.6666992 L399.333301,25 L406,25 L406,19.1666992 C406,14.4166992 409.666699,10.4166992 414.333301,10 L421.833301,10 L421.833301,16.6666992 L415.166602,16.6666992 C413.749902,16.6666992 412.666602,17.75 412.666602,19.1666992 L412.666602,25 L421,25 L421,31.6666992 L412.666699,31.6666992 L412.666699,48.3333984 L406,48.3333984 L406,48.3333008 Z M426.833301,0 L385.166699,0 C382.833301,0 381,1.83330078 381,4.16669922 L381,45.8333984 C381,48.1666992 382.833301,50 385.166699,50 L404.333398,50 L414.333398,50 L426.833398,50 C429.166699,50 431,48.1666992 431,45.8333008 L431,4.16669922 C431,1.83330078 429.166699,0 426.833301,0 Z" id="Fill-1"></path>
            </g>
        </g>
    </g>
</svg>