<?xml version="1.0" encoding="UTF-8"?>
<svg width="50px" height="50px" viewBox="0 0 50 50" version="1.1" xmlns="http://www.w3.org/2000/svg" xmlns:xlink="http://www.w3.org/1999/xlink">
    <!-- Generator: Sketch 51.3 (57544) - http://www.bohemiancoding.com/sketch -->
    <title>Fill 1</title>
    <desc>Created with Sketch.</desc>
    <defs></defs>
    <g id="Page-2" stroke="none" stroke-width="1" fill="none" fill-rule="evenodd">
        <g id="06.Facebook-Ads" transform="translate(-931.000000, -1027.000000)" fill="#FBAF21">
            <g id="Group-2" transform="translate(170.000000, 1027.000000)">
                <path d="M769.333351,48.3335344 L762.666731,48.3335344 L762.666731,38.3349363 C762.667317,37.8750398 763.040066,37.5023381 763.500022,37.5017523 L768.499962,37.5017523 C768.959918,37.5023381 769.332667,37.8750398 769.333253,38.3349363 L769.333253,48.3335344 L769.333351,48.3335344 Z M768.50006,35.8352867 L763.500119,35.8352867 C762.120058,35.8367513 761.001614,36.9550516 761.000149,38.3349363 L761.000149,49.1667184 C761.000149,49.6269078 761.373191,49.9999024 761.83344,49.9999024 L770.166642,49.9999024 C770.62689,49.9999024 770.999933,49.6269078 770.999933,49.1667184 L770.999933,38.3349363 C770.998468,36.9550516 769.880122,35.836849 768.50006,35.8352867 Z M782.666464,48.3335344 L775.999844,48.3335344 L775.999844,26.6699701 C776.00043,26.2100737 776.373179,25.837372 776.833135,25.8367862 L781.833076,25.8367862 C782.293031,25.837372 782.665781,26.2100737 782.666366,26.6699701 L782.666366,48.3335344 L782.666464,48.3335344 Z M781.833173,24.1703206 L776.833233,24.1703206 C775.453171,24.1717852 774.334727,25.2900855 774.333262,26.6699701 L774.333262,49.166816 C774.333262,49.6270054 774.706305,50 775.166553,50 L783.499755,50 C783.960003,50 784.333046,49.6270054 784.333046,49.166816 L784.333046,26.6699701 C784.331581,25.2899878 783.213235,24.1717852 781.833173,24.1703206 Z M795.999675,48.3335344 L789.333055,48.3335344 L789.333055,31.6692692 C789.333641,31.2093728 789.706488,30.8366711 790.166443,30.8360853 L795.166384,30.8360853 C795.62634,30.8366711 795.998991,31.2093728 795.999577,31.6692692 L795.999577,48.3335344 L795.999675,48.3335344 Z M795.166384,29.1696197 L790.166443,29.1696197 C788.786382,29.1710843 787.667938,30.2893846 787.666375,31.6692692 L787.666375,49.166816 C787.666375,49.6270054 788.039418,50 788.499666,50 L796.832868,50 C797.293117,50 797.666159,49.6270054 797.666159,49.166816 L797.666159,31.6692692 C797.66489,30.2892869 796.546446,29.1710843 795.166384,29.1696197 Z M809.332837,48.3335344 L802.666217,48.3335344 L802.666217,25.0035046 C802.666803,24.5436081 803.03965,24.1709065 803.499606,24.1703206 L808.499449,24.1703206 C808.959404,24.1709065 809.332153,24.5436081 809.332739,25.0035046 L809.332739,48.3335344 L809.332837,48.3335344 Z M808.499546,22.503855 L803.499703,22.503855 C802.119544,22.5053197 801.001198,23.6236199 800.999635,25.0035046 L800.999635,49.166816 C800.999635,49.6270054 801.372678,50 801.832926,50 L810.166128,50 C810.626376,50 810.999419,49.6270054 810.999419,49.166816 L810.999419,25.0035046 C810.997954,23.6236199 809.879706,22.5053197 808.499546,22.503855 Z M792.666336,18.3377692 C790.82544,18.3377692 789.333074,16.8455956 789.333074,15.0049357 C789.333074,13.1642758 790.82544,11.6721022 792.666336,11.6721022 C794.507329,11.6721022 795.999597,13.1642758 795.999597,15.0049357 C795.997546,16.8447168 794.506451,18.3357187 792.666336,18.3377692 Z M779.333193,8.33917103 C777.492297,8.33917103 775.999932,6.84699743 775.999932,5.00633752 C775.999932,3.16567762 777.492297,1.67350401 779.333193,1.67350401 C781.174089,1.67350401 782.666454,3.16567762 782.666454,5.00633752 C782.664404,6.84611864 781.17321,8.33712054 779.333193,8.33917103 Z M766.000051,24.1703499 C764.159154,24.1703499 762.666789,22.6781763 762.666789,20.8375164 C762.666789,18.9968565 764.159154,17.5046829 766.000051,17.5046829 C767.840947,17.5046829 769.333312,18.9968565 769.333312,20.8375164 C769.331163,22.6772975 767.840068,24.1682018 766.000051,24.1703499 Z M805.999576,3.33987195 C807.840472,3.33987195 809.332837,4.83204555 809.332837,6.67270546 C809.330786,8.51248658 807.839593,10.0034885 805.999576,10.005539 C804.158777,10.005539 802.666315,8.51336536 802.666315,6.67270546 C802.666315,4.83204555 804.15868,3.33987195 805.999576,3.33987195 Z M802.267101,9.98786566 C803.793743,11.7059842 806.295764,12.1611938 808.329822,11.090836 C810.363977,10.0204783 811.405371,7.70068633 810.853229,5.46965147 C810.301185,3.23861661 808.298084,1.67203937 805.999576,1.67340637 C804.330846,1.67213702 802.771684,2.50385634 801.843766,3.89047834 C800.915652,5.27710034 800.74124,7.03544757 801.378732,8.57732124 L796.399006,11.6896778 C795.502923,10.6740976 794.231551,10.067542 792.878345,10.0099329 C791.525138,9.95232377 790.206892,10.4488362 789.2279,11.3846425 L783.773668,7.29449328 C784.926779,5.06443485 784.246709,2.32517046 782.184429,0.893144671 C780.122149,-0.538881118 777.317494,-0.219394661 775.630307,1.63981733 C773.94312,3.49902932 773.896832,6.3210946 775.522106,8.23459585 L768.535665,16.535971 C766.295457,15.2179918 763.418831,15.8361668 761.91797,17.9580373 C760.417109,20.0799078 760.792495,22.9977604 762.781729,24.6706704 C764.770964,26.3435804 767.710284,26.2135205 769.543954,24.3714936 C771.377623,22.5294667 771.493833,19.5898398 769.811333,17.6087698 L776.797774,9.30739466 C778.716013,10.448348 781.159929,10.1696761 782.772019,8.62614252 L788.226252,12.7162917 C787.164741,14.7721558 787.653212,17.2878188 789.406999,18.7971774 C791.160787,20.3065361 793.721597,20.4149194 795.596672,19.0592501 C797.471845,17.7035808 798.171348,15.2383014 797.287472,13.100027 L802.267101,9.98786566 Z" id="Fill-1"></path>
            </g>
        </g>
    </g>
</svg>