<?xml version="1.0" encoding="UTF-8"?>
<svg width="50px" height="50px" viewBox="0 0 50 50" version="1.1" xmlns="http://www.w3.org/2000/svg" xmlns:xlink="http://www.w3.org/1999/xlink">
    <!-- Generator: Sketch 51.3 (57544) - http://www.bohemiancoding.com/sketch -->
    <title>Fill 7</title>
    <desc>Created with Sketch.</desc>
    <defs></defs>
    <g id="Page-2" stroke="none" stroke-width="1" fill="none" fill-rule="evenodd">
        <g id="06.Facebook-Ads" transform="translate(-697.000000, -2873.000000)" fill="#FBAF21">
            <g id="Group-3" transform="translate(167.000000, 2550.000000)">
                <path d="M572.103925,354.427665 C572.460991,354.719217 572.665138,355.15639 572.665138,355.61553 L572.665138,357.787266 L565.362911,357.787266 L565.362911,355.236575 C565.362911,354.303779 564.954846,353.429278 564.233341,352.838955 C563.621206,352.33619 562.994478,351.876974 562.389639,351.461613 C562.389639,351.44702 562.396859,351.432504 562.396859,351.410614 L562.396859,348.349785 C562.010607,348.094793 561.755614,347.657542 561.755614,347.16192 L561.755614,343.991797 C561.755614,342.410384 563.03818,341.135115 564.612296,341.135115 L564.954846,341.135115 L565.29732,341.135115 C566.878733,341.135115 568.154078,342.41768 568.154078,343.991797 L568.154078,347.16192 C568.154078,347.657542 567.899009,348.094793 567.512834,348.349785 L567.512834,351.410614 C567.512834,351.461613 567.541943,351.512611 567.592942,351.534501 C568.022896,351.745868 570.143633,352.817066 572.103925,354.427665 Z M563.402542,353.844654 C563.817903,354.187204 564.058456,354.697343 564.058456,355.23659 L564.058456,357.787281 L555.000008,357.787281 L545.934263,357.787281 L545.934263,355.23659 C545.934263,354.697343 546.174662,354.187204 546.5901,353.844654 C548.900238,351.949877 551.385338,350.689124 551.895476,350.441352 C551.953771,350.412243 551.990177,350.353948 551.990177,350.28828 L551.990177,346.695499 C551.538333,346.396728 551.239562,345.879293 551.239562,345.296267 L551.239562,341.572381 C551.239562,339.714086 552.748088,338.21278 554.599163,338.21278 L555.000008,338.21278 L555.393556,338.21278 C557.251851,338.21278 558.75308,339.721306 558.75308,341.572381 L558.75308,345.296267 C558.75308,345.879293 558.454309,346.396728 558.002465,346.695499 L558.002465,350.28828 C558.002465,350.353948 558.038871,350.412243 558.097243,350.441352 C558.607304,350.689124 561.092404,351.949877 563.402542,353.844654 Z M547.60308,351.410599 C547.60308,351.425115 547.610376,351.447081 547.610376,351.461598 C547.005461,351.869739 546.378733,352.336175 545.766598,352.839017 C545.052389,353.429263 544.637028,354.303763 544.637028,355.236559 L544.637028,357.78725 L537.334877,357.78725 L537.334877,355.615515 C537.334877,355.156452 537.538871,354.719201 537.895937,354.42765 C539.856382,352.817051 541.977043,351.745853 542.406997,351.534485 C542.458072,351.512596 542.487181,351.461598 542.487181,351.410599 L542.487181,348.34977 C542.100929,348.094777 541.84586,347.657527 541.84586,347.161982 L541.84586,343.991782 C541.84586,342.410369 543.128425,341.1351 544.702542,341.1351 L545.045092,341.1351 L545.387565,341.1351 C546.969055,341.1351 548.244401,342.417665 548.244401,343.991782 L548.244401,347.161982 C548.244401,347.657527 547.989255,348.094777 547.60308,348.34977 L547.60308,351.410599 Z M571.21129,364.21129 C567.062673,368.359908 561.60384,370.721275 555.768049,370.912135 L555.768049,365.576805 L554.231951,365.576805 L554.231951,370.912135 C548.396083,370.721275 542.93725,368.359908 538.788633,364.21129 C534.640092,360.062673 532.278725,354.60384 532.087788,348.768049 L537.423118,348.768049 L537.423118,347.231951 L532.087788,347.231951 C532.278725,341.396083 534.640092,335.937327 538.788633,331.78871 C542.93725,327.640092 548.396083,325.278725 554.231951,325.087865 L554.231951,330.423195 L555.768049,330.423195 L555.768049,325.087865 C561.60384,325.278725 567.062673,327.640092 571.21129,331.78871 C575.359908,335.937327 577.721275,341.396083 577.912135,347.231951 L572.576728,347.231951 L572.576728,348.768049 L577.912135,348.768049 C577.721275,354.60384 575.359908,360.062673 571.21129,364.21129 M572.67765,330.32235 C567.95576,325.600461 561.677727,323 555,323 C548.322197,323 542.044163,325.600461 537.32235,330.32235 C532.600384,335.04424 530,341.322197 530,348 C530,354.677727 532.600384,360.95576 537.32235,365.67765 C542.044163,370.399539 548.322197,373 555,373 C561.677727,373 567.95576,370.399539 572.67765,365.67765 C577.399462,360.95576 580,354.677727 580,348 C580,341.322197 577.399462,335.04424 572.67765,330.32235" id="Fill-7"></path>
            </g>
        </g>
    </g>
</svg>