<?xml version="1.0" encoding="UTF-8"?>
<svg width="50px" height="50px" viewBox="0 0 50 50" version="1.1" xmlns="http://www.w3.org/2000/svg" xmlns:xlink="http://www.w3.org/1999/xlink">
    <!-- Generator: Sketch 51.3 (57544) - http://www.bohemiancoding.com/sketch -->
    <title>Fill 1</title>
    <desc>Created with Sketch.</desc>
    <defs></defs>
    <g id="Page-2" stroke="none" stroke-width="1" fill="none" fill-rule="evenodd">
        <g id="06.Facebook-Ads" transform="translate(-1076.000000, -2873.000000)" fill="#FBAF21">
            <g id="Group-3" transform="translate(167.000000, 2550.000000)">
                <path d="M955.359726,370.782996 L941.972081,357.367159 C942.118528,357.234534 942.247138,357.085918 942.389829,356.949531 C942.555989,356.787747 942.720272,356.623141 942.881739,356.456654 C943.018798,356.313682 943.16806,356.183879 943.299487,356.037145 L956.688071,369.452041 L955.359726,370.782996 Z M929.818435,341.963731 C931.614281,342.639085 932.951075,343.454589 933.830692,344.413064 C934.707493,345.37248 935.146832,346.692148 935.146832,348.373948 C935.146832,350.016243 934.700922,351.336851 933.808162,352.333892 C932.996135,353.241575 931.915623,353.804056 930.566626,354.024158 C930.333814,354.062722 930.15545,354.255546 930.15545,354.492578 L930.15545,356.430223 C930.15545,356.695473 929.941412,356.909931 929.677621,356.909931 L928.716332,356.909931 C928.451602,356.909931 928.237565,356.695473 928.237565,356.430223 L928.237565,354.491638 C928.237565,354.254606 928.060139,354.062722 927.827327,354.024158 C926.479268,353.799353 925.357451,353.211476 924.459997,352.261465 C923.475239,351.213632 922.996472,349.66916 923.026512,347.626168 L923.070634,347.55186 L925.475735,347.55186 C925.733894,347.55186 925.938543,347.763496 925.949808,348.022162 C926.007073,349.304206 926.308414,350.237285 926.853833,350.822341 C927.464027,351.478883 928.232871,351.806213 929.160365,351.806213 C930.11696,351.806213 930.854825,351.492992 931.377714,350.86749 C931.899664,350.241048 932.161578,349.4199 932.161578,348.403107 C932.161578,347.464384 931.926888,346.692148 931.458447,346.085458 C930.990007,345.478769 930.179857,344.907822 929.028,344.369796 C927.213378,343.704789 925.863442,342.893048 924.98007,341.934572 C924.097636,340.976097 923.65642,339.651726 923.65642,337.959579 C923.65642,336.355849 924.084494,335.045587 924.944397,334.028794 C925.723567,333.105121 926.76559,332.523828 928.069527,332.285855 C928.298584,332.244468 928.472254,332.053526 928.472254,331.819315 L928.472254,329.593846 C928.472254,329.328595 928.686291,329.114138 928.951022,329.114138 L929.911372,329.114138 C930.175164,329.114138 930.389201,329.328595 930.389201,329.593846 L930.389201,331.844711 C930.389201,332.074219 930.5563,332.261399 930.779724,332.308429 C932.058315,332.579323 933.072174,333.229281 933.822243,334.25642 C934.571373,335.281679 934.981611,336.608871 935.05014,338.237057 C935.061405,338.507011 934.836103,338.736518 934.56574,338.736518 L932.547408,338.736518 C932.291127,338.736518 932.089294,338.526763 932.076151,338.269978 C932.022642,337.212739 931.782319,336.346443 931.356123,335.671089 C930.867968,334.898853 930.190184,334.512265 929.320893,334.512265 C928.413112,334.512265 927.740022,334.828308 927.300683,335.458513 C926.861343,336.089658 926.641674,336.913627 926.641674,337.92948 C926.641674,338.888896 926.866037,339.65831 927.314764,340.240544 C927.76443,340.821838 928.598987,341.396547 929.818435,341.963731 Z M923.847457,359.975454 C917.869438,358.379249 913.118378,353.618851 911.525304,347.629084 C907.909203,334.03171 920.009809,321.907322 933.580513,325.53053 C939.558531,327.126735 944.309592,331.887133 945.902666,337.8769 C949.518767,351.475214 937.419099,363.598661 923.847457,359.975454 Z M958.757096,368.865104 L944.480446,354.560396 C947.908795,349.975891 949.43334,343.882658 947.72292,337.437638 C945.954298,330.767814 940.685042,325.455281 934.024546,323.699173 C919.074805,319.758983 905.766016,333.094868 909.697539,348.07399 C911.450203,354.748517 916.753254,360.027187 923.409056,361.799286 C929.841435,363.513066 935.922717,361.985525 940.498229,358.550439 L954.606842,372.686779 C955.023651,373.104407 955.69768,373.104407 956.114489,372.686779 L958.757096,370.038978 C959.080968,369.71447 959.080968,369.189613 958.757096,368.865104 Z" id="Fill-1"></path>
            </g>
        </g>
    </g>
</svg>