<?xml version="1.0" encoding="UTF-8"?>
<svg width="40px" height="40px" viewBox="0 0 40 40" version="1.1" xmlns="http://www.w3.org/2000/svg" xmlns:xlink="http://www.w3.org/1999/xlink">
    <!-- Generator: Sketch 51.3 (57544) - http://www.bohemiancoding.com/sketch -->
    <title>Fill 5</title>
    <desc>Created with Sketch.</desc>
    <defs></defs>
    <g id="Page-2" stroke="none" stroke-width="1" fill="none" fill-rule="evenodd">
        <g id="06.Facebook-Ads" transform="translate(-741.000000, -3531.000000)" fill="#FBAF21">
            <g id="Group-7" transform="translate(741.000000, 3529.000000)">
                <path d="M35.4546949,8.00047656 C35.7601857,8.30578906 35.7601076,8.80086719 35.4546949,9.10625781 C35.3020276,9.25891406 35.1018569,9.33532031 34.9017643,9.33532031 C34.7016717,9.33532031 34.5016573,9.25899219 34.3489119,9.10625781 L31.4983933,6.25594531 C31.1929806,5.95063281 31.1930587,5.45547656 31.4983933,5.15016406 C31.8037279,4.84485156 32.2988418,4.84485156 32.6043326,5.15016406 L35.4546949,8.00047656 Z M36.3511425,9.22053125 C35.3448198,9.22053125 35.343179,10.7844375 36.3511425,10.7844375 C37.3575434,10.7844375 37.359106,9.22053125 36.3511425,9.22053125 Z M37.8468366,11.1110938 L36.0453001,12.9125781 L32.5714553,9.43859375 C32.5702052,9.43734375 32.5691113,9.4359375 32.5679394,9.43460938 C32.5666112,9.43328125 32.5652048,9.43226563 32.5638766,9.43101563 L29.0896411,5.95671875 L30.8914901,4.155625 C31.2727676,3.7740625 31.7799918,3.56382812 32.3194058,3.56382812 C32.8588979,3.56382812 33.3660439,3.77398437 33.7477121,4.1559375 L37.8466803,8.25375 C38.6340028,9.0415625 38.6340028,10.3234375 37.8468366,11.1110938 Z M11.794016,37.16125 L8.8695077,34.2369531 L32.0146181,11.0935937 L34.9392826,14.0183594 L11.794016,37.16125 Z M6.52168175,38.8703906 L3.12979596,35.47875 L4.13791571,31.7174219 L7.21001276,34.7892969 C7.21016902,34.7894531 7.21032528,34.7896875 7.21055967,34.7899219 C7.21079406,34.7901562 7.21095032,34.7902344 7.21118472,34.7904688 L10.2833599,37.8624219 L6.52168175,38.8703906 Z M1.88798746,40.1121094 L2.6623403,37.2228906 L4.77733692,39.3378125 L1.88798746,40.1121094 Z M27.9835455,7.06242188 L30.9086788,9.98757813 L7.76364652,33.1309375 L4.83835696,30.2060156 L27.9835455,7.06242188 Z M38.9525415,7.148125 L34.8535733,3.05023437 C34.1768838,2.37296875 33.2768969,2 32.3194058,2 C31.3619147,2 30.4619278,2.37296875 29.7853164,3.05 L27.4310837,5.40328125 L27.4306931,5.40367188 L3.17940892,29.653125 C3.07440133,29.7582031 3.00619328,29.8860938 2.97345654,30.0207813 L0.0266810456,41.015625 C-0.0456679338,41.2853906 0.0315251457,41.5733594 0.229039422,41.7710156 C0.377643913,41.9195313 0.577345848,42 0.781970013,42 C0.849474892,42 0.917526686,41.99125 0.984328389,41.9733594 L11.9963743,39.0223438 C11.9986401,39.0217188 12.0006715,39.0207031 12.0029373,39.0201562 C12.0335645,39.0117188 12.0638792,39.0016406 12.0934907,38.989375 C12.0955221,38.9885156 12.0973973,38.9874219 12.0993505,38.9866406 C12.1257587,38.9754687 12.1516199,38.9624219 12.1769343,38.948125 C12.183966,38.9442188 12.1908415,38.9400781 12.197717,38.9359375 C12.218031,38.9236719 12.237798,38.9103125 12.2572526,38.8959375 C12.2638155,38.8911719 12.2705348,38.8865625 12.2768634,38.8815625 C12.3010057,38.8625781 12.3246012,38.8424219 12.3467903,38.8200781 L12.3468684,38.82 L36.5976056,14.5717969 C36.5977619,14.5716406 36.5979963,14.5715625 36.5980744,14.5714062 L38.9526977,12.2167969 C40.3491268,10.8192969 40.3491268,8.54570313 38.9525415,7.148125 Z" id="Fill-5"></path>
            </g>
        </g>
    </g>
</svg>