<?xml version="1.0" encoding="UTF-8"?>
<svg width="42px" height="40px" viewBox="0 0 42 40" version="1.1" xmlns="http://www.w3.org/2000/svg" xmlns:xlink="http://www.w3.org/1999/xlink">
    <!-- Generator: Sketch 51.3 (57544) - http://www.bohemiancoding.com/sketch -->
    <title>Fill-1</title>
    <desc>Created with Sketch.</desc>
    <defs></defs>
    <g id="Page-2" stroke="none" stroke-width="1" fill="none" fill-rule="evenodd">
        <g id="01.-Home" transform="translate(-633.000000, -2698.000000)" fill="#FBAF21" fill-rule="nonzero">
            <g id="Our-service" transform="translate(0.000000, 2660.000000)">
                <g id="t36" transform="translate(634.000000, 39.000000)">
                    <path d="M34.059479,34.2772703 L6.566375,34.2772703 C4.79984511,34.2772703 3.90217514,32.8093947 4.69571338,31.2281036 L12.1948705,16.2796468 C12.9868343,14.6997437 14.705149,14.5391464 15.7747087,15.945512 L23.3155351,25.8631179 C23.7723365,26.4640444 24.5190717,26.5117433 25.0466117,25.9742961 L26.891417,24.0942595 C28.0684766,22.8943383 29.8708431,23.0480916 30.8311326,24.4286168 L35.6087768,31.2967123 C36.6429567,32.7887702 35.8734619,34.2772703 34.059479,34.2772703 Z M34.059479,32.7772703 C34.6585463,32.7772703 34.7232055,32.6521945 34.3766824,32.1522482 L29.5997522,25.2851811 C29.1759867,24.67597 28.4802212,24.6166167 27.9621453,25.1447551 L26.1171743,27.0249605 C24.9485601,28.2155211 23.1313182,28.099442 22.1214383,26.7709355 L14.580713,16.8534625 C14.1833536,16.3309741 13.8305173,16.3639509 13.5357216,16.9520443 L6.03641518,31.9007987 C5.74195407,32.4875742 5.9191159,32.7772703 6.566375,32.7772703 L34.059479,32.7772703 Z M25.866206,6.02461108 C28.6943469,6.02461108 30.9858,8.3307508 30.9858,11.1721184 C30.9858,14.0134801 28.6942188,16.3198951 25.866206,16.3198951 C23.0376269,16.3198951 20.746478,14.0137198 20.746478,11.1721184 C20.746478,8.33055423 23.0375902,6.02461108 25.866206,6.02461108 Z M25.866206,7.52461108 C23.8681916,7.52461108 22.246478,9.15682249 22.246478,11.1721184 C22.246478,13.1874797 23.868257,14.8198951 25.866206,14.8198951 C27.8636174,14.8198951 29.4858,13.1872119 29.4858,11.1721184 C29.4858,9.15704025 27.8637669,7.52461108 25.866206,7.52461108 Z M40.75,4.55525228 L40.75,33.1857975 C40.75,36.109903 38.3886526,38.4858491 35.478161,38.4858491 L4.524116,38.4858491 C1.61330733,38.4858491 -0.75,36.1095831 -0.75,33.1857975 L-0.75,4.55517232 C-0.75,1.62874626 1.61311599,-0.75 4.524116,-0.75 L35.478295,-0.75 C38.3889671,-0.75 40.750312,1.62856742 40.75,4.55525228 Z M39.25,4.55517232 C39.2502239,2.45450217 37.5580636,0.75 35.478295,0.75 L4.524116,0.75 C2.44376482,0.75 0.75,2.45496782 0.75,4.55517232 L0.75,33.1857975 C0.75,35.2829866 2.44357616,36.9858491 4.524116,36.9858491 L35.478161,36.9858491 C37.5581489,36.9858491 39.25,35.2835384 39.25,33.1857975 L39.25,4.55517232 Z" id="Fill-1"></path>
                </g>
            </g>
        </g>
    </g>
</svg>