<?xml version="1.0" encoding="UTF-8"?>
<svg width="38px" height="40px" viewBox="0 0 38 40" version="1.1" xmlns="http://www.w3.org/2000/svg" xmlns:xlink="http://www.w3.org/1999/xlink">
    <!-- Generator: Sketch 51.3 (57544) - http://www.bohemiancoding.com/sketch -->
    <title>Fill 1</title>
    <desc>Created with Sketch.</desc>
    <defs></defs>
    <g id="Page-2" stroke="none" stroke-width="1" fill="none" fill-rule="evenodd">
        <g id="06.Facebook-Ads" transform="translate(-1027.000000, -3631.000000)" fill="#FBAF21">
            <g id="Group-7" transform="translate(741.000000, 3529.000000)">
                <path d="M318.399221,132.27865 L315.504107,135.14065 L313.957753,133.611983 C313.68994,133.356233 313.262973,133.363567 313.00418,133.628317 C312.751709,133.88665 312.751709,134.296317 313.00418,134.55465 L315.02732,136.554733 C315.290666,136.814983 315.717548,136.814983 315.980978,136.554733 L319.352879,133.2214 C319.611588,132.956483 319.60417,132.534483 319.336272,132.27865 C319.075034,132.029067 318.660628,132.029067 318.399221,132.27865 M315.672727,140.666667 C312.320721,140.666667 309.603306,137.980333 309.603306,134.666667 C309.603306,131.352917 312.320721,128.666667 315.672727,128.666667 C319.024818,128.666667 321.742149,131.352917 321.742149,134.666667 C321.73844,137.978833 319.023217,140.663 315.672727,140.666667 M308.254545,134.666667 C308.254545,138.71675 311.575783,142 315.672727,142 C319.769671,142 323.090909,138.71675 323.090909,134.666667 C323.086104,130.618583 319.767648,127.338083 315.672727,127.333333 C311.575783,127.333333 308.254545,130.616583 308.254545,134.666667 Z M306.231405,126.666667 L306.231405,122.666667 L310.277686,122.666667 L310.277686,126.222667 C310.045699,126.368 309.821805,126.522583 309.603306,126.685333 L309.603306,126.666667 L306.231405,126.666667 Z M306.942202,129.642 C306.918598,129.68 306.893646,129.716 306.872066,129.754 C306.774955,129.922667 306.687286,130.096667 306.602314,130.271333 C306.554433,130.367333 306.505878,130.462667 306.461453,130.560667 C306.387861,130.721333 306.319074,130.885333 306.254334,131.050667 C306.24759,131.067333 306.240172,131.082667 306.233428,131.099333 L306.233428,128 L308.156086,128 C307.696412,128.505417 307.28976,129.055583 306.942202,129.642 Z M290.046281,116 L294.092562,116 L294.092562,112 L290.046281,112 L290.046281,116 Z M290.046281,121.333333 L294.092562,121.333333 L294.092562,117.333333 L290.046281,117.333333 L290.046281,121.333333 Z M290.046281,132 L294.092562,132 L294.092562,128 L290.046281,128 L290.046281,132 Z M290.046281,126.666667 L294.092562,126.666667 L294.092562,122.666667 L290.046281,122.666667 L290.046281,126.666667 Z M295.441322,116 L299.487603,116 L299.487603,112 L295.441322,112 L295.441322,116 Z M295.441322,121.333333 L299.487603,121.333333 L299.487603,117.333333 L295.441322,117.333333 L295.441322,121.333333 Z M295.441322,132 L299.487603,132 L299.487603,128 L295.441322,128 L295.441322,132 Z M295.441322,126.666667 L299.487603,126.666667 L299.487603,122.666667 L295.441322,122.666667 L295.441322,126.666667 Z M300.836364,116 L304.882645,116 L304.882645,112 L300.836364,112 L300.836364,116 Z M300.836364,121.333333 L304.882645,121.333333 L304.882645,117.333333 L300.836364,117.333333 L300.836364,121.333333 Z M300.836364,132 L304.882645,132 L304.882645,128 L300.836364,128 L300.836364,132 Z M300.836364,126.666667 L304.882645,126.666667 L304.882645,122.666667 L300.836364,122.666667 L300.836364,126.666667 Z M305.557025,134.666667 L287.34876,134.666667 L287.34876,109.333333 L318.370248,109.333333 L318.370248,125.034667 C317.927602,124.912 317.476947,124.8195 317.021488,124.758 L317.021488,111.333333 C317.021488,110.965167 316.719534,110.666667 316.347107,110.666667 L289.371901,110.666667 C288.999474,110.666667 288.697521,110.965167 288.697521,111.333333 L288.697521,132.666667 C288.697521,133.034833 288.999474,133.333333 289.371901,133.333333 L305.657507,133.333333 C305.593947,133.775083 305.560397,134.2205 305.557025,134.666667 Z M287.34876,104.666667 L288.697521,104.666667 L288.697521,105.333333 C288.697521,105.7015 288.999474,106 289.371901,106 C289.744327,106 290.046281,105.7015 290.046281,105.333333 L290.046281,104.666667 L291.395041,104.666667 L291.395041,105.333333 C291.395041,105.7015 291.696995,106 292.069421,106 C292.441848,106 292.743802,105.7015 292.743802,105.333333 L292.743802,104.666667 L294.092562,104.666667 L294.092562,105.333333 C294.092562,105.7015 294.394516,106 294.766942,106 C295.139369,106 295.441322,105.7015 295.441322,105.333333 L295.441322,104.666667 L296.790083,104.666667 L296.790083,105.333333 C296.790083,105.7015 297.092036,106 297.464463,106 C297.836889,106 298.138843,105.7015 298.138843,105.333333 L298.138843,104.666667 L307.580165,104.666667 L307.580165,105.333333 C307.580165,105.7015 307.882119,106 308.254545,106 C308.626972,106 308.928926,105.7015 308.928926,105.333333 L308.928926,104.666667 L310.277686,104.666667 L310.277686,105.333333 C310.277686,105.7015 310.57964,106 310.952066,106 C311.324493,106 311.626446,105.7015 311.626446,105.333333 L311.626446,104.666667 L312.975207,104.666667 L312.975207,105.333333 C312.975207,105.7015 313.27716,106 313.649587,106 C314.022013,106 314.323967,105.7015 314.323967,105.333333 L314.323967,104.666667 L315.672727,104.666667 L315.672727,105.333333 C315.672727,105.7015 315.974681,106 316.347107,106 C316.719534,106 317.021488,105.7015 317.021488,105.333333 L317.021488,104.666667 L318.370248,104.666667 L318.370248,108 L287.34876,108 L287.34876,104.666667 Z M315.674076,124.666667 C315.358466,124.666667 315.046902,124.684667 314.738036,124.713333 C314.603245,124.725333 314.477051,124.746 314.346221,124.762667 C314.180998,124.784667 314.01645,124.807333 313.853924,124.837333 C313.691398,124.867333 313.512688,124.904 313.344093,124.944667 C313.240912,124.969333 313.137732,124.995333 313.035226,125.023333 C312.832997,125.078 312.630598,125.137333 312.428284,125.204 C312.402658,125.213333 312.377706,125.223333 312.352079,125.232 C312.106605,125.316667 311.863828,125.405333 311.627795,125.507333 L311.627795,122.666667 L315.674076,122.666667 L315.674076,124.666667 Z M311.626446,116 L315.672727,116 L315.672727,112 L311.626446,112 L311.626446,116 Z M311.626446,121.333333 L315.672727,121.333333 L315.672727,117.333333 L311.626446,117.333333 L311.626446,121.333333 Z M306.231405,116 L310.277686,116 L310.277686,112 L306.231405,112 L306.231405,116 Z M306.231405,121.333333 L310.277686,121.333333 L310.277686,117.333333 L306.231405,117.333333 L306.231405,121.333333 Z M308.622757,129.537333 C308.647709,129.503333 308.673336,129.470667 308.698878,129.436 C308.833838,129.26175 308.973856,129.092917 309.119101,128.929333 L309.139332,128.907333 C310.102684,127.8445 311.313534,127.029667 312.667015,126.533333 L312.785706,126.49 C312.967788,126.426667 313.152569,126.370667 313.339372,126.318667 C313.423669,126.295333 313.509316,126.274 313.594962,126.252 C313.752767,126.213417 313.911246,126.177333 314.071749,126.147333 C314.206625,126.122667 314.346812,126.104 314.485144,126.085333 C314.607207,126.068 314.727921,126.048667 314.851332,126.037333 C315.121084,126.012083 315.395557,125.996 315.672727,125.996 C315.855484,125.996 316.035544,126.01 316.212231,126.022 L316.296529,126.028 L316.313388,126.028 C317.164793,126.09125 318.002374,126.2765 318.799828,126.578 C319.146881,126.711667 319.537769,126.541917 319.672982,126.198833 C319.703329,126.121833 319.718924,126.04 319.719008,125.957333 L319.719008,104 C319.719008,103.631833 319.417055,103.333333 319.044628,103.333333 L317.021488,103.333333 L317.021488,102.666667 C317.021488,102.2985 316.719534,102 316.347107,102 C315.974681,102 315.672727,102.2985 315.672727,102.666667 L315.672727,103.333333 L314.323967,103.333333 L314.323967,102.666667 C314.323967,102.2985 314.022013,102 313.649587,102 C313.27716,102 312.975207,102.2985 312.975207,102.666667 L312.975207,103.333333 L311.626446,103.333333 L311.626446,102.666667 C311.626446,102.2985 311.324493,102 310.952066,102 C310.57964,102 310.277686,102.2985 310.277686,102.666667 L310.277686,103.333333 L308.928926,103.333333 L308.928926,102.666667 C308.928926,102.2985 308.626972,102 308.254545,102 C307.882119,102 307.580165,102.2985 307.580165,102.666667 L307.580165,103.333333 L298.138843,103.333333 L298.138843,102.666667 C298.138843,102.2985 297.836889,102 297.464463,102 C297.092036,102 296.790083,102.2985 296.790083,102.666667 L296.790083,103.333333 L295.441322,103.333333 L295.441322,102.666667 C295.441322,102.2985 295.139369,102 294.766942,102 C294.394516,102 294.092562,102.2985 294.092562,102.666667 L294.092562,103.333333 L292.743802,103.333333 L292.743802,102.666667 C292.743802,102.2985 292.441848,102 292.069421,102 C291.696995,102 291.395041,102.2985 291.395041,102.666667 L291.395041,103.333333 L290.046281,103.333333 L290.046281,102.666667 C290.046281,102.2985 289.744327,102 289.371901,102 C288.999474,102 288.697521,102.2985 288.697521,102.666667 L288.697521,103.333333 L286.67438,103.333333 C286.301954,103.333333 286,103.631833 286,104 L286,135.333333 C286,135.7015 286.301954,136 286.67438,136 L306.265124,136 C306.63755,136.000917 306.940263,135.703167 306.94119,135.335 C306.94119,135.318917 306.940684,135.30275 306.939504,135.286667 L306.934109,135.209333 C306.919273,135.029333 306.905785,134.849333 306.905785,134.666667 C306.907977,134.006833 306.986711,133.349417 307.140469,132.707333 C307.290519,132.068167 307.51475,131.44825 307.80878,130.86 C307.837779,130.801333 307.864079,130.742 307.894511,130.684 C307.984119,130.514667 308.08123,130.350667 308.181712,130.187333 C308.213408,130.136 308.24443,130.083333 308.27739,130.032667 C308.386724,129.863333 308.50179,129.69825 308.622757,129.537333 Z" id="Fill-1"></path>
            </g>
        </g>
    </g>
</svg>