<?xml version="1.0" encoding="UTF-8"?>
<svg width="81px" height="80px" viewBox="0 0 81 80" version="1.1" xmlns="http://www.w3.org/2000/svg" xmlns:xlink="http://www.w3.org/1999/xlink">
    <!-- Generator: Sketch 51.3 (57544) - http://www.bohemiancoding.com/sketch -->
    <title>Fill 1</title>
    <desc>Created with Sketch.</desc>
    <defs></defs>
    <g id="Page-2" stroke="none" stroke-width="1" fill="none" fill-rule="evenodd">
        <g id="07.SEO-Service" transform="translate(-171.000000, -4898.000000)" fill="#FBAF21">
            <path d="M236.35452,4913.45229 L235.726884,4907.87249 L241.57819,4902.09323 L242.004359,4906.72025 C242.060693,4907.33229 242.551153,4907.81685 243.170673,4907.87249 L247.855506,4908.29309 L242.00404,4914.07219 L236.35452,4913.45229 Z M218.53882,4929.24851 L218.371727,4929.11397 C215.767291,4927.01916 212.486683,4925.86551 209.134145,4925.86551 C201.054922,4925.86551 194.481929,4932.35724 194.481929,4940.33692 C194.481929,4948.31644 201.054922,4954.80832 209.134145,4954.80832 C217.213528,4954.80832 223.786361,4948.31644 223.786361,4940.33692 C223.786361,4937.02559 222.618296,4933.78563 220.49716,4931.21349 L220.361098,4931.04846 L225.30039,4926.17012 L225.46828,4926.36124 C228.87747,4930.24279 230.754809,4935.206 230.754809,4940.33676 C230.754809,4952.11123 221.055889,4961.69046 209.134304,4961.69046 C197.212719,4961.69046 187.5138,4952.11123 187.5138,4940.33676 C187.5138,4928.56213 197.212719,4918.9829 209.134304,4918.9829 C214.32933,4918.9829 219.354716,4920.83707 223.284602,4924.20404 L223.478272,4924.36985 L218.53882,4929.24851 Z M208.222927,4941.23658 C208.466407,4941.47705 208.789932,4941.60923 209.133986,4941.60923 C209.478358,4941.60923 209.801884,4941.47705 210.045045,4941.23658 L218.531341,4932.85516 L218.697162,4933.0675 C220.34041,4935.17158 221.208979,4937.68541 221.208979,4940.33676 C221.208979,4946.91288 215.792117,4952.2629 209.133827,4952.2629 C202.475537,4952.2629 197.058675,4946.91288 197.058675,4940.33676 C197.058675,4933.76063 202.475537,4928.41062 209.133827,4928.41062 C211.818308,4928.41062 214.363544,4929.26847 216.493911,4930.89144 L216.708905,4931.05521 L208.222768,4939.43663 C207.720691,4939.93298 207.720691,4940.74038 208.222927,4941.23658 Z M240.261968,4938.81674 L240.274222,4939.06397 L237.871731,4939.06397 C237.161185,4939.06397 236.583199,4939.63482 236.583199,4940.3366 C236.583199,4941.03838 237.161185,4941.60923 237.871731,4941.60923 L240.274222,4941.60923 L240.261968,4941.85647 C239.884655,4949.48172 236.652583,4956.66815 231.161085,4962.09188 C225.669747,4967.51545 218.393688,4970.70748 210.673159,4971.07998 L210.422677,4971.09224 L210.422677,4968.71971 C210.422677,4968.01793 209.844692,4967.44692 209.134145,4967.44692 C208.423758,4967.44692 207.845773,4968.01793 207.845773,4968.71971 L207.845773,4971.09224 L207.595291,4971.07998 C199.874762,4970.70764 192.598544,4967.51561 187.107205,4962.09188 C181.615707,4956.66815 178.383636,4949.48188 178.006322,4941.85662 L177.994069,4941.60923 L180.3964,4941.60923 C181.106947,4941.60923 181.684932,4941.03854 181.684932,4940.33676 C181.684932,4939.63498 181.106947,4939.06413 180.3964,4939.06413 L177.994069,4939.06413 L178.006322,4938.81689 C178.383636,4931.19164 181.615707,4924.00521 187.107046,4918.58164 C192.598544,4913.15791 199.874603,4909.96572 207.595132,4909.59322 L207.845613,4909.58112 L207.845613,4911.95365 C207.845613,4912.65527 208.423599,4913.22628 209.133986,4913.22628 C209.844533,4913.22628 210.422518,4912.65527 210.422518,4911.95365 L210.422518,4909.58112 L210.673,4909.59322 C217.833685,4909.93885 224.71397,4912.75853 230.046172,4917.53298 L230.231885,4917.69927 L225.30039,4922.56991 L225.132182,4922.42327 C220.70722,4918.56341 215.025554,4916.43764 209.133827,4916.43764 C195.791149,4916.43764 184.936259,4927.15873 184.936259,4940.33676 C184.936259,4953.51478 195.791149,4964.23572 209.133827,4964.23572 C222.476505,4964.23572 233.331554,4953.51478 233.331554,4940.33676 C233.331554,4934.51821 231.179227,4928.90666 227.27146,4924.53567 L227.122826,4924.36954 L232.05448,4919.4989 L232.222847,4919.68232 C237.056791,4924.94888 239.911867,4931.74426 240.261968,4938.81674 Z M243.388691,4916.30436 L251.623391,4908.17143 C251.975243,4907.82377 252.093004,4907.30038 251.923683,4906.83829 C251.754361,4906.37605 251.324373,4906.04865 250.828821,4906.00402 L244.473527,4905.43348 L243.895383,4899.15661 C243.850506,4898.66717 243.519024,4898.24265 243.050843,4898.07557 C242.583299,4897.90803 242.053055,4898.02434 241.701044,4898.37216 L233.466343,4906.50508 C233.188013,4906.78014 233.053224,4907.1594 233.096827,4907.54557 L233.838246,4914.13741 L232.053844,4915.90011 L231.885318,4915.74781 C226.055972,4910.48125 218.514632,4907.39076 210.65072,4907.04545 L210.422518,4907.03554 L210.422518,4903.94583 C210.422518,4903.24406 209.844533,4902.67305 209.133986,4902.67305 C208.42344,4902.67305 207.845454,4903.24406 207.845454,4903.94583 L207.845454,4907.03492 L207.617411,4907.04497 C199.201295,4907.41449 191.270705,4910.87308 185.286519,4916.78326 C179.302493,4922.6936 175.800684,4930.52633 175.426553,4938.83874 L175.416368,4939.06397 L172.288691,4939.06397 C171.578145,4939.06397 171,4939.63482 171,4940.3366 C171,4941.03838 171.578145,4941.60923 172.288691,4941.60923 L175.416368,4941.60923 L175.426553,4941.83446 C175.800684,4950.14672 179.302493,4957.9796 185.286678,4963.88962 C191.270705,4969.79996 199.201295,4973.25856 207.617411,4973.62807 L207.845613,4973.63813 L207.845613,4976.72737 C207.845613,4977.42915 208.423599,4978 209.133986,4978 C209.844533,4978 210.422518,4977.42915 210.422518,4976.72737 L210.422518,4973.63813 L210.65072,4973.62807 C219.066678,4973.25856 226.997267,4969.80012 232.981453,4963.88978 C238.96548,4957.9796 242.467288,4950.14688 242.841737,4941.83446 L242.851763,4941.60923 L245.97944,4941.60923 C246.689987,4941.60923 247.267972,4941.03838 247.267972,4940.3366 C247.267972,4939.63482 246.689987,4939.06397 245.97944,4939.06397 L242.851763,4939.06397 L242.841737,4938.83874 C242.491954,4931.07187 239.362845,4923.6236 234.030484,4917.86572 L233.876439,4917.69927 L235.66116,4915.93673 L242.335363,4916.66931 C242.722703,4916.71238 243.114975,4916.57422 243.388691,4916.30436 Z" id="Fill-1"></path>
        </g>
    </g>
</svg>