<?xml version="1.0" encoding="UTF-8"?>
<svg width="80px" height="80px" viewBox="0 0 80 80" version="1.1" xmlns="http://www.w3.org/2000/svg" xmlns:xlink="http://www.w3.org/1999/xlink">
    <!-- Generator: Sketch 51.3 (57544) - http://www.bohemiancoding.com/sketch -->
    <title>Combined Shape</title>
    <desc>Created with Sketch.</desc>
    <defs></defs>
    <g id="Page-2" stroke="none" stroke-width="1" fill="none" fill-rule="evenodd">
        <g id="07.SEO-Service" transform="translate(-551.000000, -4898.000000)" fill="#FBAF21">
            <path d="M621.828004,4918.14072 C626.88556,4918.14072 631,4922.23999 631,4927.27873 C631,4932.31748 626.88556,4936.41691 621.828004,4936.41691 C621.22484,4936.41691 620.734096,4935.92798 620.734096,4935.32704 C620.734096,4934.7261 621.22484,4934.23717 621.828004,4934.23717 C625.679064,4934.23717 628.812184,4931.1156 628.812184,4927.27873 C628.812184,4923.44187 625.679064,4920.3203 621.828004,4920.3203 L621.826321,4920.3203 C620.341636,4920.3203 618.915685,4920.77084 617.703299,4921.62262 C617.434534,4921.80991 617.099125,4921.86742 616.782901,4921.7799 C616.201952,4921.61893 615.860653,4921.01698 616.02171,4920.43885 C616.410973,4919.06376 616.611074,4917.64206 616.616964,4916.20728 C616.546281,4912.69202 615.371929,4909.36069 613.220801,4906.57346 C611.069842,4903.78623 608.14002,4901.79964 604.748401,4900.82848 C600.537866,4899.62274 596.108044,4900.12291 592.274992,4902.2371 C588.441939,4904.35095 585.664423,4907.82547 584.453719,4912.023 C584.4103,4912.17944 584.330697,4912.32666 584.22383,4912.44872 C584.031807,4912.66821 583.765567,4912.79983 583.474083,4912.81978 C583.182598,4912.8399 582.900707,4912.74534 582.68142,4912.55469 C581.002861,4911.0837 578.847189,4910.26864 576.613093,4910.25992 C576.58583,4910.25975 576.559576,4910.25958 576.532481,4910.25958 C571.562437,4910.25958 567.48721,4914.26647 567.432178,4919.23194 C567.438741,4920.37278 567.664591,4921.48546 568.102154,4922.53711 C568.297038,4923.01799 568.122349,4923.57316 567.686806,4923.85703 C567.182094,4924.18617 566.502693,4924.04466 566.174184,4923.54465 C564.910131,4921.56511 562.749748,4920.36038 560.394817,4920.32215 C556.542073,4920.26229 553.360653,4923.33037 553.298048,4927.16673 C553.267755,4929.02505 553.965668,4930.78411 555.263211,4932.11945 C556.560586,4933.45497 558.302423,4934.20698 560.171996,4934.23733 C560.77516,4934.23733 561.265904,4934.72627 561.265904,4935.32721 C561.265904,4935.92815 560.77516,4936.41708 560.171996,4936.41708 C555.11444,4936.41708 551,4932.31764 551,4927.2789 C551,4922.24016 555.11444,4918.14072 560.172333,4918.14072 L560.188152,4918.14072 C561.829182,4918.14072 563.447829,4918.57281 564.869741,4919.39072 L565.240155,4919.60383 L565.248233,4919.17761 C565.286772,4917.14541 565.875463,4915.15815 566.950522,4913.43062 C568.548637,4910.86287 571.054695,4909.06894 574.007237,4908.37896 C576.959273,4907.68899 580.004712,4908.18597 582.582127,4909.77836 L582.838102,4909.93648 L582.94968,4909.6578 C585.736452,4902.7034 592.392965,4898.12827 599.907943,4898.00268 C600.014305,4898.00084 600.118984,4898 600.225008,4898 C610.334231,4898 618.643723,4906.10783 618.814204,4916.21214 C618.813363,4916.90765 618.768765,4917.61071 618.681589,4918.30185 L618.632447,4918.69136 L619.008078,4918.57298 C619.918378,4918.28609 620.864019,4918.14072 621.819084,4918.14072 L621.827836,4918.14072 L621.828004,4918.14072 Z M613.884517,4948.99256 C615.972366,4948.99256 617.671121,4950.68505 617.671121,4952.76521 L617.671121,4958.13074 C617.671121,4960.21089 615.972366,4961.90339 613.884517,4961.90339 L568.108684,4961.90339 C566.020666,4961.90339 564.32208,4960.21089 564.32208,4958.13074 L564.32208,4952.76521 C564.32208,4950.68505 566.020666,4948.99256 568.108684,4948.99256 L613.884517,4948.99256 Z M615.483305,4958.13074 L615.483305,4952.76521 C615.483305,4951.88693 614.766038,4951.17231 613.884517,4951.17231 L568.108684,4951.17231 C567.227163,4951.17231 566.509896,4951.88693 566.509896,4952.76521 L566.509896,4958.13074 C566.509896,4959.00901 567.227163,4959.72364 568.108684,4959.72364 L613.884517,4959.72364 C614.766038,4959.72364 615.483305,4959.00901 615.483305,4958.13074 Z M596.112773,4954.3581 C596.715937,4954.3581 597.206681,4954.84703 597.206681,4955.44797 C597.206681,4956.04891 596.715937,4956.53785 596.112773,4956.53785 L570.532161,4956.53785 C569.928997,4956.53785 569.438253,4956.04891 569.438253,4955.44797 C569.438253,4954.84703 569.928997,4954.3581 570.532161,4954.3581 L596.112773,4954.3581 Z M604.426388,4954.3581 C605.029552,4954.3581 605.520296,4954.84703 605.520296,4955.44797 C605.520296,4956.04891 605.029552,4956.53785 604.426388,4956.53785 L600.845103,4956.53785 C600.241939,4956.53785 599.751195,4956.04891 599.751195,4955.44797 C599.751195,4954.84703 600.241939,4954.3581 600.845103,4954.3581 L604.426388,4954.3581 Z M613.884517,4965.08917 C615.972366,4965.08917 617.671121,4966.78167 617.671121,4968.86182 L617.671121,4974.22736 C617.671121,4976.30751 615.972366,4978 613.884517,4978 L568.108684,4978 C566.020666,4978 564.32208,4976.30751 564.32208,4974.22736 L564.32208,4968.86182 C564.32208,4966.78167 566.020666,4965.08917 568.108684,4965.08917 L613.884517,4965.08917 Z M615.483305,4974.22736 L615.483305,4968.86182 C615.483305,4967.98355 614.766038,4967.26892 613.884517,4967.26892 L568.108684,4967.26892 C567.227163,4967.26892 566.509896,4967.98355 566.509896,4968.86182 L566.509896,4974.22736 C566.509896,4975.10563 567.227163,4975.82025 568.108684,4975.82025 L613.884517,4975.82025 C614.766038,4975.82025 615.483305,4975.10563 615.483305,4974.22736 Z M596.112773,4970.45471 C596.715937,4970.45471 597.206681,4970.94365 597.206681,4971.54459 C597.206681,4972.14553 596.715937,4972.63446 596.112773,4972.63446 L570.532161,4972.63446 C569.928997,4972.63446 569.438253,4972.14553 569.438253,4971.54459 C569.438253,4970.94365 569.928997,4970.45471 570.532161,4970.45471 L596.112773,4970.45471 Z M604.426388,4970.45471 C605.029552,4970.45471 605.520296,4970.94365 605.520296,4971.54459 C605.520296,4972.14553 605.029552,4972.63446 604.426388,4972.63446 L600.845103,4972.63446 C600.241939,4972.63446 599.751195,4972.14553 599.751195,4971.54459 C599.751195,4970.94365 600.241939,4970.45471 600.845103,4970.45471 L604.426388,4970.45471 Z M613.884517,4932.89595 C615.972366,4932.89595 617.671121,4934.58827 617.671121,4936.66859 L617.671121,4942.03413 C617.671121,4944.11428 615.972366,4945.80677 613.884517,4945.80677 L568.108684,4945.80677 C566.020666,4945.80677 564.32208,4944.11428 564.32208,4942.03413 L564.32208,4936.66859 C564.32208,4934.58827 566.020666,4932.89595 568.108684,4932.89595 L613.884517,4932.89595 Z M615.483305,4942.03413 L615.483305,4936.66859 C615.483305,4935.79032 614.766038,4935.0757 613.884517,4935.0757 L568.108684,4935.0757 C567.227163,4935.0757 566.509896,4935.79032 566.509896,4936.66859 L566.509896,4942.03413 C566.509896,4942.9124 567.227163,4943.62702 568.108684,4943.62702 L613.884517,4943.62702 C614.766038,4943.62702 615.483305,4942.9124 615.483305,4942.03413 Z M595.84342,4938.26149 C596.446584,4938.26149 596.937327,4938.75042 596.937327,4939.35136 C596.937327,4939.9523 596.446584,4940.44124 595.84342,4940.44124 L570.262807,4940.44124 C569.659643,4940.44124 569.168899,4939.9523 569.168899,4939.35136 C569.168899,4938.75042 569.659643,4938.26149 570.262807,4938.26149 L595.84342,4938.26149 Z M603.566022,4938.26149 C604.169185,4938.26149 604.659929,4938.75042 604.659929,4939.35136 C604.659929,4939.9523 604.169185,4940.44124 603.566022,4940.44124 L599.984904,4940.44124 C599.38174,4940.44124 598.890996,4939.9523 598.890996,4939.35136 C598.890996,4938.75042 599.38174,4938.26149 599.984904,4938.26149 L603.566022,4938.26149 Z M579.131908,4928.62029 L579.131908,4919.17878 L576.963278,4921.33942 C576.537159,4921.74938 575.869539,4921.74938 575.44342,4921.33942 C575.009559,4920.92191 574.997442,4920.2306 575.413295,4919.80135 L579.452339,4915.77737 C579.878795,4915.35265 580.572669,4915.35265 580.999125,4915.7772 L585.036486,4919.79984 C585.446617,4920.22439 585.446281,4920.88855 585.03514,4921.31259 C584.616257,4921.74468 583.922215,4921.75676 583.491383,4921.34244 L581.319724,4919.17878 L581.319724,4928.62029 C581.319724,4929.22123 580.82898,4929.71016 580.225816,4929.71016 C579.622652,4929.71016 579.131908,4929.22123 579.131908,4928.62029 Z M602.861292,4916.54783 L602.861292,4925.9895 L605.029923,4923.82869 C605.45621,4923.41873 606.123999,4923.41873 606.54995,4923.82852 L606.54995,4923.82869 C606.760148,4924.03091 606.878627,4924.30254 606.883676,4924.59362 C606.888724,4924.8847 606.77967,4925.16035 606.579906,4925.36659 L602.540862,4929.39074 C602.114406,4929.81563 601.420364,4929.81546 600.993908,4929.39074 L596.958061,4925.36978 C596.546584,4924.94506 596.546584,4924.2799 596.958061,4923.85535 C597.172635,4923.63386 597.459408,4923.52286 597.74618,4923.52286 C598.019152,4923.52286 598.291787,4923.62346 598.501818,4923.82551 L600.673477,4925.9895 L600.673477,4916.54783 C600.673477,4915.94689 601.164221,4915.45795 601.767385,4915.45795 C602.370549,4915.45795 602.861292,4915.94689 602.861292,4916.54783 Z M610.165921,4969.19659 C611.458751,4969.19659 612.514625,4970.24019 612.522703,4971.52977 C612.530781,4972.82454 611.480125,4973.88457 610.18174,4973.89245 L610.178038,4973.89245 C608.877465,4973.89245 607.815029,4972.83929 607.809138,4971.54435 C607.809138,4970.2578 608.859795,4969.20448 610.151111,4969.19659 L610.165921,4969.19659 Z M610.166762,4972.47008 C610.651279,4972.47008 611.044244,4972.07856 611.044244,4971.59583 C611.044244,4971.20666 610.78726,4970.8807 610.434517,4970.76752 L610.434517,4970.74925 L610.422736,4970.76383 C610.341114,4970.73902 610.256294,4970.72158 610.166762,4970.72158 C609.682077,4970.72158 609.28928,4971.11293 609.28928,4971.59583 C609.28928,4972.07856 609.682077,4972.47008 610.166762,4972.47008 Z M610.165988,4953.09986 C611.45865,4953.09986 612.514692,4954.14363 612.52277,4955.43303 C612.530848,4956.72797 611.480024,4957.78783 610.181807,4957.79588 L610.178105,4957.79588 C608.877533,4957.79588 607.815096,4956.74273 607.809206,4955.44779 C607.809206,4954.16107 608.859862,4953.10791 610.151178,4953.09986 L610.165988,4953.09986 Z M610.213615,4956.31516 C610.736839,4956.31516 611.161107,4955.89246 611.161107,4955.371 C611.161107,4954.84953 610.736839,4954.42683 610.213615,4954.42683 C609.690222,4954.42683 609.265954,4954.84953 609.265954,4955.371 C609.265954,4955.89246 609.690222,4956.31516 610.213615,4956.31516 Z M612.103921,4939.03003 C612.214827,4939.63785 612.072619,4940.27534 611.711966,4940.78087 C611.351818,4941.29446 610.789717,4941.64774 610.169051,4941.74986 C610.03795,4941.77149 609.903989,4941.78239 609.771542,4941.78255 C608.619404,4941.78171 607.634382,4940.96079 607.429569,4939.83134 C607.319842,4939.22386 607.462386,4938.58654 607.820515,4938.08301 C608.182683,4937.57346 608.721727,4937.23174 609.337849,4937.1204 C609.48073,4937.09458 609.623107,4937.08217 609.763632,4937.08217 C610.891198,4937.08217 611.895574,4937.88617 612.103921,4939.02986 L612.103921,4939.03003 Z M609.7983,4940.45156 C610.369993,4940.45156 610.833474,4939.98979 610.833474,4939.42004 C610.833474,4938.85029 610.369993,4938.38852 609.7983,4938.38852 C609.226439,4938.38852 608.762959,4938.85029 608.762959,4939.42004 C608.762959,4939.98979 609.226439,4940.45156 609.7983,4940.45156 Z M609.915483,4939.43766 L609.954022,4939.43414 C609.954191,4939.43481 609.954191,4939.43548 609.954359,4939.43632 L609.918681,4939.43934 L609.915483,4939.43766 Z" id="Combined-Shape"></path>
        </g>
    </g>
</svg>