<?xml version="1.0" encoding="UTF-8"?>
<svg width="42px" height="42px" viewBox="0 0 42 42" version="1.1" xmlns="http://www.w3.org/2000/svg" xmlns:xlink="http://www.w3.org/1999/xlink">
    <!-- Generator: Sketch 51.3 (57544) - http://www.bohemiancoding.com/sketch -->
    <title>Fill 1</title>
    <desc>Created with Sketch.</desc>
    <defs></defs>
    <g id="Page-2" stroke="none" stroke-width="1" fill="none" fill-rule="evenodd">
        <g id="01.-Home" transform="translate(-552.000000, -2282.000000)" fill="#FBAF21" stroke="#FBAF21" stroke-width="0.35">
            <g id="What-we-đo" transform="translate(170.000000, 1931.000000)">
                <path d="M388.888485,358.509719 C388.553491,358.509719 388.281829,358.23888 388.281829,357.903873 C388.281829,357.568866 388.553491,357.298027 388.888485,357.298027 L397.524175,357.298027 C397.858336,357.298027 398.129165,357.568866 398.129165,357.903873 C398.129165,358.23888 397.858336,358.509719 397.524175,358.509719 L388.888485,358.509719 Z M405.403127,362.147461 C405.738121,362.147461 406.009783,362.417467 406.009783,362.753307 C406.009783,363.088314 405.738121,363.359153 405.403127,363.359153 L402.829003,363.359153 C402.494008,363.359153 402.222346,363.088314 402.222346,362.753307 C402.222346,362.417467 402.494008,362.147461 402.829003,362.147461 L405.403127,362.147461 Z M388.888485,363.359237 C388.553491,363.359237 388.281829,363.088398 388.281829,362.752557 C388.281829,362.41755 388.553491,362.147545 388.888485,362.147545 L399.341644,362.147545 C399.676639,362.147545 399.948301,362.41755 399.948301,362.752557 C399.948301,363.088398 399.676639,363.359237 399.341644,363.359237 L388.888485,363.359237 Z M388.888485,368.208838 C388.553491,368.208838 388.281829,367.937999 388.281829,367.602158 C388.281829,367.267151 388.553491,366.996312 388.888485,366.996312 L392.674255,366.996312 C393.00925,366.996312 393.280912,367.267151 393.280912,367.602158 C393.280912,367.937999 393.00925,368.208838 392.674255,368.208838 L388.888485,368.208838 Z M405.403127,366.996229 C405.738121,366.996229 406.009783,367.267068 406.009783,367.602908 C406.009783,367.937915 405.738121,368.208754 405.403127,368.208754 L396.162447,368.208754 C395.82662,368.208754 395.555791,367.937915 395.555791,367.602908 C395.555791,367.267068 395.82662,366.996229 396.162447,366.996229 L405.403127,366.996229 Z M388.888485,373.057522 C388.553491,373.057522 388.281829,372.786683 388.281829,372.451676 C388.281829,372.116669 388.553491,371.84583 388.888485,371.84583 L399.341644,371.84583 C399.676639,371.84583 399.948301,372.116669 399.948301,372.451676 C399.948301,372.786683 399.676639,373.057522 399.341644,373.057522 L388.888485,373.057522 Z M405.403127,376.694514 C405.738121,376.694514 406.009783,376.965353 406.009783,377.301194 C406.009783,377.636201 405.738121,377.906206 405.403127,377.906206 L397.979917,377.906206 C397.644923,377.906206 397.374094,377.636201 397.374094,377.301194 C397.374094,376.965353 397.644923,376.694514 397.979917,376.694514 L405.403127,376.694514 Z M388.888485,377.90629 C388.553491,377.90629 388.281829,377.636284 388.281829,377.300444 C388.281829,376.965437 388.553491,376.694598 388.888485,376.694598 L394.493392,376.694598 C394.827553,376.694598 395.100048,376.965437 395.100048,377.300444 C395.100048,377.636284 394.827553,377.90629 394.493392,377.90629 L388.888485,377.90629 Z M402.372594,381.544032 C402.707588,381.544032 402.97925,381.814871 402.97925,382.149878 C402.97925,382.484885 402.707588,382.755724 402.372594,382.755724 L388.888652,382.755724 C388.553657,382.755724 388.281995,382.484885 388.281995,382.149878 C388.281995,381.814871 388.553657,381.544032 388.888652,381.544032 L402.372594,381.544032 Z M410.079132,388.424092 C409.309145,387.636576 408.236663,387.147399 407.052516,387.147399 L384.212063,387.147399 L384.212063,353.211692 L407.052516,353.211692 C408.721655,353.211692 410.079132,354.573387 410.079132,356.245922 L410.079132,388.424092 Z M407.052516,352 C409.389144,352 411.290778,353.904206 411.290778,356.245922 L411.290778,391.393321 C411.290778,391.729161 411.019116,392 410.684955,392 C410.349961,392 410.079132,391.729161 410.079132,391.393321 C410.079132,389.720786 408.721655,388.359091 407.052516,388.359091 L383.607073,388.359091 C383.272079,388.359091 383.000417,388.088252 383.000417,387.752412 L383.000417,352.606679 C383.000417,352.270839 383.272079,352 383.607073,352 L407.052516,352 Z M406.57294,390.787391 C406.907102,390.787391 407.179597,391.05823 407.179597,391.394071 C407.179597,391.729078 406.907102,391.999917 406.57294,391.999917 L383.606657,391.999917 C383.272495,391.999917 383,391.729078 383,391.394071 C383,391.05823 383.272495,390.787391 383.606657,390.787391 L406.57294,390.787391 Z M421.78752,386.795642 L419.673389,386.795642 L419.673389,360.495094 C419.673389,360.160087 419.401727,359.889248 419.066732,359.889248 C418.732571,359.889248 418.460909,360.160087 418.460909,360.495094 L418.460909,386.795642 L416.346778,386.795642 L416.346778,359.422571 L417.102598,357.904206 L421.030866,357.904206 L421.78752,359.422571 L421.78752,386.795642 Z M421.78752,389.575699 C421.78752,390.244047 421.245863,390.787391 420.579207,390.787391 L417.555091,390.787391 C416.888435,390.787391 416.346778,390.244047 416.346778,389.575699 L416.346778,388.008167 L421.78752,388.008167 L421.78752,389.575699 Z M419.066732,353.964124 L420.42671,356.691681 L417.707588,356.691681 L419.066732,353.964124 Z M419.610056,352.33409 C419.404227,351.924082 418.730071,351.924082 418.524241,352.33409 L415.19763,359.009229 C415.155964,359.092564 415.134298,359.185066 415.134298,359.279235 L415.134298,389.575699 C415.134298,390.911561 416.220113,391.999917 417.555091,391.999917 L420.579207,391.999917 C421.914185,391.999917 423,390.911561 423,389.575699 L423,359.279235 C423,359.185066 422.978334,359.092564 422.936668,359.009229 L419.610056,352.33409 Z" id="Fill-1"></path>
            </g>
        </g>
    </g>
</svg>