<?xml version="1.0" encoding="UTF-8"?>
<svg width="83px" height="80px" viewBox="0 0 83 80" version="1.1" xmlns="http://www.w3.org/2000/svg" xmlns:xlink="http://www.w3.org/1999/xlink">
    <!-- Generator: Sketch 51.3 (57544) - http://www.bohemiancoding.com/sketch -->
    <title>Combined Shape</title>
    <desc>Created with Sketch.</desc>
    <defs></defs>
    <g id="Page-2" stroke="none" stroke-width="1" fill="none" fill-rule="evenodd">
        <g id="07.SEO-Service" transform="translate(-931.000000, -4898.000000)" fill="#FBAF21">
            <path d="M976.241679,4940.06111 C972.722933,4943.56529 968.044456,4945.49528 963.068185,4945.49528 C958.091913,4945.49528 953.413275,4943.56545 949.894529,4940.06111 C949.195675,4939.36515 948.564583,4938.62673 948.000118,4937.85474 L953.44132,4932.23798 C954.033667,4932.54843 954.707394,4932.7252 955.421972,4932.7252 C956.899275,4932.7252 958.203282,4931.97323 958.969249,4930.83396 L968.561747,4933.83154 C968.561261,4933.85915 968.55964,4933.88659 968.55964,4933.91436 C968.55964,4936.25731 970.473665,4938.16357 972.826521,4938.16357 C975.179214,4938.16357 977.093402,4936.25731 977.093402,4933.91436 C977.093402,4933.19257 976.911029,4932.51227 976.590862,4931.91624 L981.698605,4926.94217 C981.698443,4931.898 979.760425,4936.55694 976.241679,4940.06111 M957.294335,4928.47583 C957.294335,4929.50387 956.454284,4930.3406 955.421972,4930.3406 C954.389497,4930.3406 953.549446,4929.50387 953.549446,4928.47583 C953.549446,4927.44795 954.389497,4926.61122 955.421972,4926.61122 C956.454284,4926.61138 957.294335,4927.44795 957.294335,4928.47583 M974.698884,4933.91452 C974.698884,4934.94256 973.858833,4935.77929 972.826521,4935.77929 C971.794208,4935.77929 970.954157,4934.94256 970.954157,4933.91452 C970.954157,4932.88664 971.794208,4932.04991 972.826521,4932.04991 C973.858833,4932.04991 974.698884,4932.88648 974.698884,4933.91452 M949.894366,4913.82274 C953.413112,4910.31873 958.091751,4908.38873 963.068023,4908.38873 C968.044294,4908.38873 972.722771,4910.31873 976.241517,4913.82274 C979.018775,4916.5885 980.810245,4920.07379 981.44231,4923.85644 L974.915948,4930.21194 C974.297825,4929.86452 973.585193,4929.66547 972.826359,4929.66547 C971.349056,4929.66547 970.045048,4930.41745 969.279081,4931.55655 L959.686583,4928.55913 C959.68707,4928.53169 959.688691,4928.50408 959.688691,4928.47615 C959.688691,4926.13336 957.774665,4924.22694 955.42181,4924.22694 C953.069116,4924.22694 951.154929,4926.13336 951.154929,4928.47615 C951.154929,4929.24202 951.360484,4929.9609 951.718097,4930.58211 L946.685087,4935.77768 C942.866114,4928.74559 943.934902,4919.75753 949.894366,4913.82274 M993.06098,4946.09854 L1014,4966.87772 L1002.83115,4978 L981.892617,4957.22066 L983.690248,4955.43031 L979.366953,4950.82835 C974.468332,4954.14575 968.768566,4955.80662 963.068152,4955.80662 C955.642246,4955.80662 948.21634,4952.99195 942.562937,4947.36212 C941.914824,4946.71653 941.305617,4946.04688 940.73175,4945.3577 L938.970432,4947.17598 C939.328207,4947.79735 939.533762,4948.51575 939.533762,4949.28178 C939.533762,4951.62489 937.619736,4953.53115 935.266881,4953.53115 C932.914025,4953.53115 931,4951.62489 931,4949.28178 C931,4946.93899 932.914025,4945.03257 935.266719,4945.03289 C935.981297,4945.03289 936.655023,4945.2095 937.247371,4945.52011 L939.263363,4943.43901 C931.391494,4932.18516 932.491082,4916.55198 942.5631,4906.52167 C953.869742,4895.26217 972.266562,4895.26185 983.573367,4906.52167 C986.306855,4909.24384 988.377479,4912.37945 989.789289,4915.72784 L992.411895,4913.17389 C992.068223,4912.56155 991.871422,4911.8572 991.871422,4911.10748 C991.871422,4908.76437 993.785609,4906.85827 996.138303,4906.85827 C996.925182,4906.85827 997.662455,4907.07234 998.295979,4907.44397 L1005.54519,4900.3846 L1001.92399,4900.3846 L1001.92399,4898 L1009.6793,4898 L1009.6793,4905.72336 L1007.28478,4905.72336 L1007.28478,4902.02578 L999.938633,4909.17959 C1000.2361,4909.75883 1000.40502,4910.41378 1000.40502,4911.10764 C1000.40502,4913.45059 998.490834,4915.35685 996.138141,4915.35685 C995.407189,4915.35685 994.718873,4915.17282 994.116961,4914.84897 L990.694994,4918.18138 C993.343213,4926.51094 992.114262,4935.80751 987.009437,4943.23867 L991.32252,4947.82964 L993.06098,4946.09854 Z M1002.82839,4974.63063 L1010.61062,4966.88031 L993.064223,4949.46775 L985.282,4957.21775 L1002.82839,4974.63063 Z M981.302215,4949.39769 L985.384615,4953.74312 L989.628639,4949.51667 L985.55402,4945.17947 C984.93768,4945.93194 984.27757,4946.66083 983.573367,4947.36212 C982.844686,4948.08778 982.086014,4948.76566 981.302215,4949.39769 Z M944.25617,4945.67606 C954.628738,4956.00584 971.507404,4956.00584 981.879973,4945.67606 C992.252865,4935.34596 992.252865,4918.53767 981.879973,4908.20789 C976.693607,4903.043 969.880799,4900.46064 963.06799,4900.46064 C956.255182,4900.46064 949.442535,4903.04284 944.25617,4908.20789 C933.883277,4918.53799 933.883277,4935.34612 944.25617,4945.67606 Z M977.935073,4912.13652 C981.906105,4916.09127 984.093122,4921.34915 984.093122,4926.94185 C984.093122,4932.53455 981.906105,4937.79258 977.935073,4941.74717 C973.96388,4945.70192 968.68414,4947.88004 963.068185,4947.88004 C957.452068,4947.88004 952.172327,4945.70176 948.201134,4941.74717 C940.003749,4933.58341 940.003749,4920.30012 948.201134,4912.13652 C952.172327,4908.18177 957.45223,4906.00397 963.068185,4906.00397 C968.684302,4906.00397 973.96388,4908.18193 977.935073,4912.13652 Z M935.266881,4951.14623 C936.299193,4951.14623 937.139082,4950.30998 937.139244,4949.28162 C937.139244,4948.25358 936.299355,4947.41717 935.266881,4947.41717 C934.234568,4947.41717 933.394518,4948.25358 933.394518,4949.28162 C933.394518,4950.30982 934.234568,4951.14623 935.266881,4951.14623 Z M996.138303,4909.24303 C995.105828,4909.24303 994.265939,4910.07944 994.265939,4911.10764 C994.265939,4912.13568 995.105828,4912.97225 996.138303,4912.97225 C997.170615,4912.97225 998.010666,4912.13568 998.010666,4911.10764 C998.010666,4910.07944 997.170615,4909.24303 996.138303,4909.24303 Z" id="Combined-Shape"></path>
        </g>
    </g>
</svg>