<?xml version="1.0" encoding="UTF-8"?>
<svg width="53px" height="40px" viewBox="0 0 53 40" version="1.1" xmlns="http://www.w3.org/2000/svg" xmlns:xlink="http://www.w3.org/1999/xlink">
    <!-- Generator: Sketch 51.3 (57544) - http://www.bohemiancoding.com/sketch -->
    <title>Fill 3</title>
    <desc>Created with Sketch.</desc>
    <defs></defs>
    <g id="Page-2" stroke="none" stroke-width="1" fill="none" fill-rule="evenodd">
        <g id="10.Porfolio-Detail" transform="translate(-265.000000, -3491.000000)" fill="#FBAF21">
            <g id="Group-4" transform="translate(265.000000, 3491.000000)">
                <path d="M29.3434291,31.1347337 C28.7054222,31.1347337 28.1884326,30.617744 28.1884326,29.9801322 C28.1884326,29.3426521 28.7054222,28.8252674 29.3434291,28.8252674 C29.9807775,28.8252674 30.4978988,29.3426521 30.4978988,29.9801322 C30.4978988,30.617744 29.9807775,31.1347337 29.3434291,31.1347337 M49.648902,0 C51.0619983,0 52.2115957,1.14972914 52.2115957,2.5628254 L52.2115957,30.7851138 C52.2115957,32.1979467 51.0617349,33.3475442 49.648902,33.3475442 L21.3516856,33.3475442 C21.3516856,33.3475442 20.2982172,33.3475442 20.2982172,32.0297868 L20.2982172,28.9001954 C20.2982172,27.5808578 21.3186331,27.5825697 21.3186331,27.5825697 L50.2718969,27.5825697 L50.2718969,2.5628254 C50.2718969,2.22505708 49.986407,1.93956712 49.648902,1.93956712 L9.03769277,1.93956712 C8.70005613,1.93956712 8.41456618,2.22505708 8.41456618,2.5628254 L8.41456618,9.23075404 C8.41456618,10.1310745 8.51662093,10.2559105 8.01912045,10.2559105 L7.00252339,10.2559105 C6.40968401,10.2559105 6.47526242,10.1309428 6.47526242,9.24721448 L6.47526242,2.5628254 C6.47526242,1.14959746 7.6247282,0 9.03769277,0 L49.648902,0 Z M40.0870823,37.4684099 C40.292377,37.4684099 40.4602735,37.6365698 40.4600102,37.8416011 L40.4600102,39.44419 C40.4600102,39.649353 40.2921136,39.8173812 40.086819,39.8173812 L20.6607288,39.8173812 C20.4553025,39.8173812 20.2874059,39.649353 20.2874059,39.44419 L20.2874059,37.8416011 C20.2874059,37.6361748 20.4553025,37.4684099 20.6607288,37.4684099 L24.9392593,37.4684099 C25.1446857,37.4684099 25.3125822,37.3007768 25.3125822,37.0952187 L25.3125822,35.7099077 C25.3125822,35.504613 25.4804787,35.3367165 25.6859051,35.3367165 L33.6494682,35.3367165 C33.8547629,35.3367165 34.0226594,35.504613 34.0226594,35.7099077 L34.0226594,37.0952187 C34.0226594,37.3007768 34.1904243,37.4684099 34.3958507,37.4684099 L40.0870823,37.4684099 Z M16.5780381,36.322605 C16.5780381,36.5433066 16.4013188,36.7238448 16.1856211,36.7238448 L1.81380933,36.7238448 C1.59797997,36.7238448 1.42139232,36.5433066 1.42139232,36.322605 L1.42139232,16.2573228 C1.42139232,16.0366212 1.59811166,15.8562147 1.81380933,15.8562147 L16.1856211,15.8562147 C16.4014505,15.8562147 16.5780381,16.0367529 16.5780381,16.2573228 L16.5780381,36.322605 Z M8.97752655,38.8382877 C8.50478258,38.8382877 8.12158343,38.4549568 8.12158343,37.9823445 C8.12158343,37.5096006 8.50478258,37.1264014 8.97752655,37.1264014 C9.45027053,37.1264014 9.83346968,37.5096006 9.83346968,37.9823445 C9.83346968,38.4549568 9.45027053,38.8382877 8.97752655,38.8382877 Z M7.18728859,14.2317664 L10.8116151,14.2317664 C10.9845157,14.2317664 11.125022,14.3718777 11.125022,14.5453049 C11.125022,14.7183371 10.9846473,14.8585801 10.8116151,14.8585801 L7.18728859,14.8585801 C7.01412471,14.8585801 6.8740134,14.7183371 6.8740134,14.5453049 C6.8740134,14.3718777 7.01412471,14.2317664 7.18728859,14.2317664 Z M16.3452216,12.5449 L1.6538138,12.5449 C0.741641798,12.5449 0,13.2866735 0,14.1988455 L0,38.3459228 C0,39.2579632 0.741641798,40 1.6538138,40 L16.3452216,40 C17.2568669,40 17.9990354,39.2579632 17.9990354,38.3459228 L17.9990354,14.1988455 C17.9990354,13.2866735 17.2568669,12.5449 16.3452216,12.5449 Z" id="Fill-3"></path>
            </g>
        </g>
    </g>
</svg>