<?xml version="1.0" encoding="UTF-8"?>
<svg width="40px" height="40px" viewBox="0 0 40 40" version="1.1" xmlns="http://www.w3.org/2000/svg" xmlns:xlink="http://www.w3.org/1999/xlink">
    <!-- Generator: Sketch 51.3 (57544) - http://www.bohemiancoding.com/sketch -->
    <title>Fill 3</title>
    <desc>Created with Sketch.</desc>
    <defs></defs>
    <g id="Page-2" stroke="none" stroke-width="1" fill="none" fill-rule="evenodd">
        <g id="10.Porfolio-Detail" transform="translate(-740.000000, -3491.000000)" fill="#FBAF21">
            <g id="Group-4-Copy" transform="translate(740.000000, 3491.000000)">
                <path d="M36.8631651,9.21308154 L40.0012903,6.07237559 L40.0012903,16.7745182 L29.2991477,16.7745182 L34.0398846,12.0337813 L33.774073,11.6002245 C30.8165965,6.75884049 25.6681097,3.87104267 20.0009032,3.87104267 C12.2743021,3.87104267 5.71159442,9.26469545 4.19414569,16.7745182 L0.25858565,16.7745182 C1.8147448,7.16142893 10.176197,0 20.0009032,0 C26.5403847,0 32.6798583,3.20780402 36.4218662,8.58081124 L36.8631651,9.21308154 Z M20.0003871,36.1289573 C27.7269883,36.1289573 34.2896959,30.7353046 35.8071447,23.2254818 L39.7427047,23.2254818 C38.1865455,32.8411518 29.8250934,40 20.0003871,40 C13.5486493,40 7.45562817,36.8567134 3.70329748,31.594676 L3.27748279,31.0011162 L0,34.015368 L0,23.2254818 L11.7421628,23.2254818 L6.18076479,28.3352581 L6.48012542,28.7946218 C9.47115105,33.3882591 14.5241521,36.1289573 20.0003871,36.1289573 Z" id="Fill-3"></path>
            </g>
        </g>
    </g>
</svg>