<?xml version="1.0" encoding="UTF-8"?>
<svg width="44px" height="40px" viewBox="0 0 44 40" version="1.1" xmlns="http://www.w3.org/2000/svg" xmlns:xlink="http://www.w3.org/1999/xlink">
    <!-- Generator: Sketch 51.3 (57544) - http://www.bohemiancoding.com/sketch -->
    <title>Fill 9</title>
    <desc>Created with Sketch.</desc>
    <defs></defs>
    <g id="Page-2" stroke="none" stroke-width="1" fill="none" fill-rule="evenodd">
        <g id="10.Porfolio-Detail" transform="translate(-265.000000, -3721.000000)" fill="#FBAF21">
            <g id="Group-4-Copy-2" transform="translate(265.000000, 3721.000000)">
                <path d="M17.3580297,4.74571278 C16.8901125,4.74571278 16.5105825,4.36626768 16.5105825,3.89826558 C16.5105825,3.43034839 16.8900276,3.05081839 17.3580297,3.05081839 L34.9483538,3.05081839 C35.416271,3.05081839 35.795801,3.43034839 35.795801,3.89826558 C35.795801,4.36618277 35.4163559,4.74571278 34.9483538,4.74571278 L17.3580297,4.74571278 Z M8.1659998,4.74579768 C7.94312144,4.74579768 7.72440348,4.65511803 7.56690278,4.49744751 C7.40923226,4.3398619 7.31855261,4.12122885 7.31855261,3.89835049 C7.31855261,3.67462307 7.40923226,3.45683908 7.56690278,3.29916856 C7.72448839,3.14149804 7.94312144,3.05090329 8.1659998,3.05090329 C8.38896306,3.05090329 8.60751121,3.14149804 8.76518173,3.29916856 C8.92285225,3.45675417 9.01344699,3.67538722 9.01344699,3.89835049 C9.01344699,4.12122885 8.92285225,4.33994681 8.76518173,4.49744751 C8.60751121,4.65511803 8.38896306,4.74579768 8.1659998,4.74579768 Z M5.05158679,4.74579768 C4.82870843,4.74579768 4.60999047,4.65511803 4.45248976,4.49744751 C4.29481925,4.3398619 4.20413959,4.12122885 4.20413959,3.89835049 C4.20413959,3.67547213 4.29481925,3.45683908 4.45248976,3.29916856 C4.61007538,3.14149804 4.82870843,3.05090329 5.05158679,3.05090329 C5.27455005,3.05090329 5.4930982,3.14149804 5.65076872,3.29916856 C5.80852414,3.45675417 5.89911889,3.67538722 5.89903398,3.89835049 C5.89903398,4.12122885 5.80843924,4.33994681 5.65076872,4.49744751 C5.4930982,4.65511803 5.27455005,4.74579768 5.05158679,4.74579768 Z M11.2796147,4.74579768 C11.0567363,4.74579768 10.8388674,4.65511803 10.6805177,4.49744751 C10.5228472,4.3398619 10.4321675,4.12122885 10.4321675,3.89835049 C10.4321675,3.67547213 10.5229321,3.45683908 10.6805177,3.29916856 C10.8389523,3.14149804 11.0567363,3.05090329 11.2796147,3.05090329 C11.503427,3.05090329 11.721211,3.14149804 11.8796457,3.29916856 C12.0373162,3.45675417 12.1271468,3.67538722 12.1270619,3.89835049 C12.1270619,4.12122885 12.0373162,4.33994681 11.8796457,4.49744751 C11.7211261,4.65511803 11.503427,4.74579768 11.2796147,4.74579768 Z M15.4933317,16.704406 C15.9153147,16.9071616 16.0930231,17.4133714 15.8902674,17.8351846 L14.0439856,21.6793056 C13.9049095,21.9689201 13.6140214,22.1549493 13.2927369,22.1597889 L13.280001,22.1597889 C12.9636411,22.1597889 12.6732625,21.9836089 12.5274788,21.7019756 L11.3185017,19.36655 L10.2078457,21.6793056 C10.0687696,21.9689201 9.77788155,22.1549493 9.45659709,22.1597889 C9.13641641,22.1647135 8.83907546,21.9874297 8.69133895,21.7019756 L6.70139607,17.8578546 C6.48624416,17.4421546 6.64875432,16.9307655 7.0644543,16.7156136 C7.47981465,16.5004617 7.99154336,16.6628869 8.20669527,17.0786718 L9.41567238,19.4140974 L10.5263283,17.1014266 C10.6654044,16.8118121 10.9562925,16.625783 11.277577,16.6209433 C11.6000501,16.6151697 11.8951835,16.7933026 12.0428351,17.0787567 L13.2518122,19.4141823 L14.3624681,17.1015115 C14.5652238,16.6796134 15.0717732,16.50199 15.4933317,16.704406 Z M34.9131432,16.704406 C35.3349565,16.9071616 35.5127497,17.4133714 35.310079,17.8353545 L33.463882,21.6794755 C33.3248059,21.96909 33.0339178,22.1551191 32.7126334,22.1599587 L32.6998975,22.1599587 C32.3835376,22.1599587 32.0931589,21.9836938 31.9472903,21.7022303 L30.7383981,19.3667198 L29.6277422,21.6793905 C29.4885812,21.969005 29.197778,22.1550342 28.8764086,22.1597889 C28.8723332,22.1599587 28.8680879,22.1599587 28.8637576,22.1599587 C28.5473128,22.1599587 28.2569342,21.9836089 28.1112354,21.7021454 L26.1212076,17.8580244 C25.9060557,17.4422395 26.0685659,16.9308504 26.4841809,16.7156985 C26.9001356,16.5005466 27.4113549,16.6631417 27.6265068,17.0786718 L28.8354839,19.4141823 L29.9461399,17.1014266 C30.0852159,16.8118121 30.3760191,16.625783 30.6973885,16.6209433 C31.0162107,16.6170377 31.314995,16.7933875 31.4625617,17.0786718 L32.6716238,19.4141823 L33.7822797,17.1015115 C33.9849504,16.6796134 34.4910753,16.50199 34.9131432,16.704406 Z M4.82456502,32.2822192 C4.98223553,32.1237845 5.20086859,32.0339539 5.42374695,32.0339539 C5.6466253,32.0339539 5.86534326,32.1237845 6.02284397,32.2822192 C6.18051449,32.4398048 6.27119414,32.6585228 6.27119414,32.8814011 C6.27119414,33.1042795 6.18051449,33.3229974 6.02284397,33.4804132 C5.86525836,33.6381687 5.6466253,33.7288483 5.42374695,33.7288483 C5.20086859,33.7288483 4.98223553,33.6381687 4.82456502,33.4804132 C4.6668945,33.3229125 4.57629975,33.1042795 4.57629975,32.8814011 C4.57629975,32.6585228 4.6668945,32.4398048 4.82456502,32.2822192 Z M7.48583449,32.8821992 C7.48583449,32.4141971 7.86527958,32.0348369 8.33328168,32.0348369 L24.836299,32.0348369 C25.3043011,32.0348369 25.6837462,32.4141971 25.6836613,32.8821992 C25.6836613,33.3502013 25.3042162,33.7296464 24.8362141,33.7296464 L8.33328168,33.7296464 C7.86536449,33.7296464 7.48583449,33.3502862 7.48583449,32.8821992 Z M21.6949538,29.6614074 L16.694922,29.6614074 C16.2270048,29.6614074 15.8474748,29.2819623 15.8474748,28.8139603 C15.8474748,28.3460431 16.2269199,27.9665131 16.694922,27.9665131 L21.6949538,27.9665131 C22.1629559,27.9665131 22.542401,28.3460431 22.542401,28.8139603 C22.542401,29.2818774 22.1629559,29.6614074 21.6949538,29.6614074 Z M12.8891021,27.9665215 C13.3571042,27.9665215 13.7365493,28.3460516 13.7365493,28.8138838 C13.7365493,29.2818859 13.3571042,29.6614159 12.8891021,29.6614159 L5.42373846,29.6614159 C4.95582126,29.6614159 4.57629126,29.2819708 4.57629126,28.8138838 C4.57629126,28.3460516 4.95573636,27.9665215 5.42373846,27.9665215 L12.8891021,27.9665215 Z M1.69489439,3.55934614 C1.69489439,2.5313038 2.53121889,1.69497929 3.55926123,1.69497929 L36.4406539,1.69497929 C37.4686962,1.69497929 38.3051056,2.5313038 38.3051056,3.55934614 L38.3051056,6.10168772 L1.70414915,6.10168772 C1.70100762,6.10168772 1.697951,6.10211225 1.69489439,6.10219716 L1.69489439,3.55934614 Z M28.9054975,27.113046 C24.367779,27.113046 20.6759794,23.4214163 20.6759794,18.8836978 C20.6759794,18.8190843 20.6769134,18.7547256 20.6784417,18.6904517 L22.2374015,21.7020689 C22.3831852,21.9837023 22.6735639,22.1599672 22.9900087,22.1599672 C22.9941691,22.1599672 22.9984993,22.1599672 23.0026597,22.1597974 C23.3239441,22.1550427 23.6148322,21.9690135 23.7539083,21.679399 L25.6001902,17.835278 C25.8028609,17.413295 25.6249828,16.9071701 25.2030846,16.7044145 C24.7815261,16.5019136 24.2749767,16.6796219 24.0722211,17.10152 L22.9615652,19.4142757 L21.752588,17.0788501 C21.6006911,16.7854997 21.3012275,16.618999 20.9921695,16.6215462 C21.9774192,13.1803043 25.1519712,10.6542647 28.9054975,10.6542647 C33.443131,10.6542647 37.1348457,14.3460643 37.1348457,18.8836978 C37.1348457,23.4213314 33.4430461,27.113046 28.9054975,27.113046 Z M18.9843115,19.1417273 L17.9163633,17.0787652 C17.7012114,16.6630652 17.1896525,16.50064 16.7740374,16.7157919 C16.3584224,16.9309438 16.1959122,17.4423329 16.4110641,17.8581178 L18.4010919,21.7022388 C18.5518001,21.9932967 18.8477826,22.1602219 19.1543783,22.1602219 C19.2737562,22.1602219 19.3945775,22.1335614 19.5092006,22.0804103 C19.726645,22.7179697 20.0077689,23.3262366 20.3441666,23.8983335 L6.27116018,23.8983335 L6.27116018,13.7287974 L20.4277991,13.7287974 C19.5102195,15.2322286 18.9810002,16.9972554 18.9810002,18.8836978 C18.9810002,18.9700473 18.9821039,19.0560571 18.9843115,19.1417273 Z M43.2237126,35.2967997 L36.5522204,28.6253924 L37.5988572,27.5787557 C37.5991119,27.5785009 37.5994515,27.5782462 37.5997062,27.5779915 C37.5999609,27.5777368 37.6002157,27.5773972 37.6004704,27.5771424 L38.6468524,26.5307604 L41.9426502,29.8266431 C42.2736989,30.1575219 42.8101352,30.1575219 43.1412688,29.8266431 C43.4721476,29.4956793 43.4721476,28.9589883 43.1412688,28.6281094 L39.2462891,24.7331297 C38.9153253,24.4022509 38.378889,24.402081 38.0476705,24.7331297 L37.0004394,25.7802759 L36.4931258,25.2728774 C37.9502833,23.5453791 38.8298249,21.3154917 38.8298249,18.8837827 C38.8298249,13.4115035 34.3777767,8.95945524 28.9054975,8.95945524 C26.0862773,8.95945524 23.5378225,10.1411775 21.7294936,12.0351766 C21.7215124,12.0349219 21.713786,12.0339879 21.7058048,12.0339879 L5.42371298,12.0339879 C4.95571089,12.0339879 4.57626579,12.4135179 4.57626579,12.8814351 L4.57626579,24.7457807 C4.57626579,25.2138677 4.95579579,25.5933128 5.42371298,25.5933128 L21.5995874,25.5933128 C23.4148785,27.5683122 26.0179279,28.8081951 28.9054975,28.8081951 C31.3371216,28.8081951 33.5668391,27.9285685 35.294677,26.471496 L35.8019057,26.9788096 L34.7544199,28.0262954 C34.5955607,28.1851546 34.5062395,28.4008159 34.5062395,28.6255622 C34.5062395,28.8503085 34.5955607,29.0657152 34.7544199,29.2247442 L38.3051905,32.7755148 L38.3051905,36.4408237 C38.3051905,37.468866 37.4687811,38.3051905 36.4408237,38.3051905 L3.55934614,38.3051905 C2.5313038,38.3051905 1.69497929,37.468866 1.69497929,36.4408237 L1.69497929,7.79615758 C1.69812082,7.79615758 1.70117743,7.79666701 1.70423405,7.79666701 L38.3052754,7.79666701 L38.3052754,11.61642 C38.3052754,12.0844221 38.6847205,12.4638672 39.1526377,12.4638672 C39.6205549,12.4638672 40.0000849,12.0843372 40.0000849,11.61642 L40.0000849,3.55934614 C40.0000849,1.596743 38.4034268,0 36.4408237,0 L3.55934614,0 C1.5966581,0 0,1.596743 0,3.55934614 L0,36.4407388 C0,38.4033419 1.5966581,40 3.55934614,40 L36.4408237,40 C38.4033419,40 40.0000849,38.4034268 40.0000849,36.4407388 L40.0000849,34.4702394 L42.0251789,36.4953334 C42.1906608,36.6606454 42.4075108,36.7435137 42.6245306,36.7435137 C42.8413807,36.7435137 43.0581458,36.6606454 43.2237126,36.4953334 C43.5545914,36.1643696 43.5545914,35.6276785 43.2237126,35.2967997 Z" id="Fill-9"></path>
            </g>
        </g>
    </g>
</svg>