<?xml version="1.0" encoding="UTF-8"?>
<svg width="36px" height="40px" viewBox="0 0 36 40" version="1.1" xmlns="http://www.w3.org/2000/svg" xmlns:xlink="http://www.w3.org/1999/xlink">
    <!-- Generator: Sketch 51.3 (57544) - http://www.bohemiancoding.com/sketch -->
    <title>Fill 1</title>
    <desc>Created with Sketch.</desc>
    <defs></defs>
    <g id="Page-2" stroke="none" stroke-width="1" fill="none" fill-rule="evenodd">
        <g id="10.Porfolio-Detail" transform="translate(-740.000000, -3721.000000)" fill="#FBAF21">
            <g id="Group-4-Copy-3" transform="translate(740.000000, 3721.000000)">
                <path d="M6.66666667,37.3333333 L6.66666667,36 L8,36 L8,37.3333333 L6.66666667,37.3333333 Z M7.33333333,4 L7.33333333,2.66666667 L8.66666667,2.66666667 L8.66666667,4 L7.33333333,4 Z M10,4 L10,2.66666667 L11.3333333,2.66666667 L11.3333333,4 L10,4 Z M12.6666667,4 L12.6666667,2.66666667 L14,2.66666667 L14,4 L12.6666667,4 Z M8,12.6666667 L8,11.3333333 L22,11.3333333 L22,12.6666667 L8,12.6666667 Z M8,15.3333333 L8,14 L22,14 L22,15.3333333 L8,15.3333333 Z M13.3333333,10 L13.3333333,8.66666667 L22,8.66666667 L22,10 L13.3333333,10 Z M10.6666667,10 L10.6666667,8.66666667 L12,8.66666667 L12,10 L10.6666667,10 Z M25.3333333,22 L30.6666667,22 L30.6666667,18 L25.3333333,18 L25.3333333,22 Z M31.3333333,16.6666667 L24.6666667,16.6666667 C24.2985,16.6666667 24,16.9651667 24,17.3333333 L24,22.6666667 C24,23.0348333 24.2985,23.3333333 24.6666667,23.3333333 L31.3333333,23.3333333 C31.7015,23.3333333 32,23.0348333 32,22.6666667 L32,17.3333333 C32,16.9651667 31.7015,16.6666667 31.3333333,16.6666667 Z M25.3333333,14 L30.6666667,14 L30.6666667,10 L25.3333333,10 L25.3333333,14 Z M31.3333333,8.66666667 L24.6666667,8.66666667 C24.2985,8.66666667 24,8.96516667 24,9.33333333 L24,14.6666667 C24,15.0348333 24.2985,15.3333333 24.6666667,15.3333333 L31.3333333,15.3333333 C31.7015,15.3333333 32,15.0348333 32,14.6666667 L32,9.33333333 C32,8.96516667 31.7015,8.66666667 31.3333333,8.66666667 Z M9.33333333,22 L12.6666667,22 L12.6666667,18 L9.33333333,18 L9.33333333,22 Z M13.3333333,16.6666667 L8.66666667,16.6666667 C8.2985,16.6666667 8,16.9651667 8,17.3333333 L8,22.6666667 C8,23.0348333 8.2985,23.3333333 8.66666667,23.3333333 L13.3333333,23.3333333 C13.7015,23.3333333 14,23.0348333 14,22.6666667 L14,17.3333333 C14,16.9651667 13.7015,16.6666667 13.3333333,16.6666667 Z M34,5.33333333 L6,5.33333333 L6,2.66666667 C6,1.93025 6.59691667,1.33333333 7.33333333,1.33333333 L32.6666667,1.33333333 C33.4030833,1.33333333 34,1.93025 34,2.66666667 L34,5.33333333 Z M34,36 C34,36.7364167 33.4030833,37.3333333 32.6666667,37.3333333 L28.6326667,37.3333333 C28.5619167,36.8270833 28.3259167,36.3583333 27.9613333,36 C28.8818333,35.1070833 28.9041667,33.6370833 28.01125,32.7165833 C27.9948333,32.6996667 27.97825,32.6830833 27.9613333,32.6666667 C28.8818333,31.77375 28.9041667,30.30375 28.01125,29.38325 C27.9948333,29.3663333 27.97825,29.34975 27.9613333,29.3333333 C28.8836667,28.436 28.9039167,26.9608333 28.0065,26.0385 C27.5670833,25.5868333 26.9634167,25.3324167 26.3333333,25.3333333 L21.6306667,25.3333333 C22.28575,23.4499167 22.3760833,21.4160833 21.8906667,19.482 C21.47925,17.8261667 19.9915,16.6644167 18.2853333,16.6666667 L17.3333333,16.6666667 C16.9651667,16.6666667 16.6666667,16.9651667 16.6666667,17.3333333 C16.6666667,17.3879167 16.6734167,17.4423333 16.6866667,17.4953333 C17.4524167,20.5271667 16.4485833,23.7320833 14.09,25.7853333 L13.0826667,26.6666667 L11.3333333,26.6666667 L11.3333333,26 C11.3333333,25.6318333 11.0348333,25.3333333 10.6666667,25.3333333 L6,25.3333333 L6,6.66666667 L34,6.66666667 L34,36 Z M26.3333333,30 C26.8855833,30 27.3333333,30.44775 27.3333333,31 C27.3333333,31.55225 26.8855833,32 26.3333333,32 L24.6666667,32 L24.6666667,33.3333333 L26.3333333,33.3333333 C26.8855833,33.3333333 27.3333333,33.7810833 27.3333333,34.3333333 C27.3333333,34.8855833 26.8855833,35.3333333 26.3333333,35.3333333 L24.6666667,35.3333333 L24.6666667,36.6666667 L26.3333333,36.6666667 C26.8855833,36.6666667 27.3333333,37.1144167 27.3333333,37.6666667 C27.3333333,38.2189167 26.8855833,38.6666667 26.3333333,38.6666667 L18.9813333,38.6666667 C17.1240833,38.6635833 15.2928333,38.23 13.6313333,37.4 C13.5385,37.355 13.4365,37.3321667 13.3333333,37.3333333 L11.3333333,37.3333333 L11.3333333,28 L13.3333333,28 C13.495,28 13.6510833,27.94125 13.7726667,27.8346667 L14.9686667,26.7886667 C17.4765833,24.6056667 18.6795,21.2825 18.15,18 L18.2833333,18 C19.3790833,17.99675 20.3354167,18.742 20.6,19.8053333 C21.061,21.6341667 20.9303333,23.5620833 20.2266667,25.312 L20.2153333,25.3333333 L18.6666667,25.3333333 L18.6666667,26.6666667 L26.3333333,26.6666667 C26.8855833,26.6666667 27.3333333,27.1144167 27.3333333,27.6666667 C27.3333333,28.2189167 26.8855833,28.6666667 26.3333333,28.6666667 L24.6666667,28.6666667 L24.6666667,30 L26.3333333,30 Z M4.66666667,38.6666667 L10,38.6666667 L10,26.6666667 L4.66666667,26.6666667 L4.66666667,38.6666667 Z M32.6666667,0 L7.33333333,0 C5.86058333,0 4.66666667,1.19391667 4.66666667,2.66666667 L4.66666667,25.3333333 L4,25.3333333 C3.63183333,25.3333333 3.33333333,25.6318333 3.33333333,26 L3.33333333,26.6666667 L0,26.6666667 L0,28 L3.33333333,28 L3.33333333,37.3333333 L0,37.3333333 L0,38.6666667 L3.33333333,38.6666667 L3.33333333,39.3333333 C3.33333333,39.7015 3.63183333,40 4,40 L10.6666667,40 C11.0348333,40 11.3333333,39.7015 11.3333333,39.3333333 L11.3333333,38.6666667 L13.178,38.6666667 C14.9875833,39.5418333 16.97125,39.9975833 18.9813333,40 L26.3333333,40 C27.2314167,39.9965833 28.04775,39.4780833 28.4326667,38.6666667 L32.6666667,38.6666667 C34.1394167,38.6666667 35.3333333,37.47275 35.3333333,36 L35.3333333,2.66666667 C35.3333333,1.19391667 34.1394167,0 32.6666667,0 Z" id="Fill-1"></path>
            </g>
        </g>
    </g>
</svg>