<?xml version="1.0" encoding="UTF-8"?>
<svg width="33px" height="32px" viewBox="0 0 33 32" version="1.1" xmlns="http://www.w3.org/2000/svg" xmlns:xlink="http://www.w3.org/1999/xlink">
    <!-- Generator: Sketch 51.3 (57544) - http://www.bohemiancoding.com/sketch -->
    <title>Combined Shape</title>
    <desc>Created with Sketch.</desc>
    <defs></defs>
    <g id="Page-2" stroke="none" stroke-width="1" fill="none" fill-rule="evenodd">
        <g id="17.Blog-Detail" transform="translate(-264.000000, -549.000000)" fill="#000000" stroke="#000000" stroke-width="0.5">
            <g id="Social-share" transform="translate(265.000000, 550.000000)">
                <g id="Tiwtter">
                    <path d="M30.349,24.032 C30.349,27.734 28,28.962 25.418,28.962 L5.971,28.962 C3.997,28.962 1.038,28.043 1.038,24.032 L1.038,5.969 C1.038,2.031 4.074,1.037 5.971,1.037 L25.418,1.037 C30.436,1.037 30.349,5.281 30.349,5.969 L30.349,24.032 Z M25.418,0 C31.193,0 31.387,4.138 31.387,5.969 L31.387,24.032 C31.387,29.25 28.051,30 25.418,30 L5.971,30 C3.448,30 0,29.025 0,24.032 L0,5.969 C0,1.295 3.547,0 5.971,0 L25.418,0 Z M22.7592,21.8533 C22.4202,22.1913 22.0292,22.3563 21.5612,22.3563 L17.1732,22.3563 C15.4742,22.3563 14.0622,21.7693 12.8562,20.5623 C11.6502,19.3563 11.0642,17.9443 11.0642,16.2443 L11.0642,7.3943 C11.0642,6.9073 11.2252,6.5113 11.5552,6.1853 C11.8902,5.8553 12.2882,5.6953 12.7722,5.6953 C13.2382,5.6953 13.6272,5.8583 13.9602,6.1933 C14.2942,6.5313 14.4562,6.9233 14.4562,7.3933 L14.4562,10.1293 L21.5492,10.1293 C22.0232,10.1293 22.4172,10.2933 22.7572,10.6333 C23.0942,10.9643 23.2582,11.3553 23.2582,11.8283 C23.2582,12.2973 23.0942,12.6883 22.7592,13.0243 C22.4202,13.3613 22.0272,13.5253 21.5582,13.5253 L14.4572,13.5253 L14.4572,16.2413 C14.4572,16.9923 14.7242,17.6413 15.2522,18.1653 C15.7782,18.6913 16.4242,18.9573 17.1712,18.9573 L21.5592,18.9573 C22.0272,18.9573 22.4202,19.1223 22.7612,19.4613 C23.0962,19.7933 23.2592,20.1853 23.2592,20.6573 C23.2592,21.1273 23.0962,21.5173 22.7592,21.8533 Z M21.5592,17.9193 L17.1712,17.9193 C16.7012,17.9193 16.3152,17.7603 15.9852,17.4323 C15.6552,17.1023 15.4952,16.7133 15.4952,16.2413 L15.4952,14.5623 L21.5582,14.5623 C22.3052,14.5623 22.9542,14.2933 23.4912,13.7603 C24.0262,13.2253 24.2962,12.5753 24.2962,11.8283 C24.2962,11.0733 24.0232,10.4213 23.4882,9.8963 C22.9532,9.3623 22.3022,9.0913 21.5492,9.0913 L15.4942,9.0913 L15.4942,7.3933 C15.4942,6.6463 15.2262,5.9973 14.6962,5.4623 C14.1662,4.9283 13.5182,4.6573 12.7722,4.6573 C12.0132,4.6573 11.3592,4.9223 10.8262,5.4463 C10.2962,5.9713 10.0262,6.6263 10.0262,7.3943 L10.0262,16.2443 C10.0262,18.2063 10.7312,19.9053 12.1222,21.2953 C13.5132,22.6883 15.2132,23.3933 17.1732,23.3933 L21.5612,23.3933 C22.3082,23.3933 22.9572,23.1223 23.4912,22.5873 C24.0262,22.0563 24.2972,21.4073 24.2972,20.6573 C24.2972,19.9043 24.0262,19.2533 23.4912,18.7243 C22.9552,18.1903 22.3052,17.9193 21.5592,17.9193 Z" id="Combined-Shape"></path>
                </g>
            </g>
        </g>
    </g>
</svg>