<?xml version="1.0" encoding="UTF-8"?>
<svg width="31px" height="31px" viewBox="0 0 31 31" version="1.1" xmlns="http://www.w3.org/2000/svg" xmlns:xlink="http://www.w3.org/1999/xlink">
    <!-- Generator: Sketch 51.3 (57544) - http://www.bohemiancoding.com/sketch -->
    <title>Combined Shape</title>
    <desc>Created with Sketch.</desc>
    <defs></defs>
    <g id="Page-2" stroke="none" stroke-width="1" fill="none" fill-rule="evenodd">
        <g id="17.Blog-Detail" transform="translate(-264.000000, -715.000000)" fill="#000000" stroke="#000000" stroke-width="0.5">
            <g id="Social-share" transform="translate(265.000000, 550.000000)">
                <g id="Pinterest" transform="translate(0.000000, 166.000000)">
                    <path d="M28.064,21.715 C28.064,25.334 25.334,28.064 21.713,28.064 L7.533,28.064 C3.914,28.064 1.185,25.334 1.185,21.715 L1.185,7.535 C1.185,3.916 3.914,1.186 7.533,1.186 L21.713,1.186 C25.334,1.186 28.064,3.916 28.064,7.535 L28.064,21.715 Z M21.713,0 C25.939,0 29.25,3.31 29.25,7.535 L29.25,21.715 C29.25,25.941 25.939,29.25 21.713,29.25 L7.533,29.25 C3.309,29.25 0,25.941 0,21.716 L0,7.535 C0,3.31 3.309,0 7.533,0 L21.713,0 Z M15.0522,6.1374 C10.1252,6.1374 7.9082,9.6374 7.9082,12.1224 C7.9082,13.8904 8.6072,15.1814 9.8252,15.6644 L10.0682,14.8404 C10.0902,14.7624 10.0902,14.7374 10.0902,14.7334 C10.0912,14.7384 10.0832,14.7194 9.9962,14.6204 C9.4662,14.0144 9.2082,13.2814 9.2082,12.3784 C9.2082,9.3844 11.5972,7.1264 14.7642,7.1264 C17.6522,7.1264 19.5172,8.8044 19.5172,11.4024 C19.5172,14.7024 17.9222,17.1914 15.8072,17.1914 C15.1232,17.1914 14.5082,16.9074 14.1182,16.4104 C13.7552,15.9484 13.6352,15.3644 13.7822,14.7654 C13.8992,14.2894 14.0552,13.8004 14.2072,13.3254 C14.4612,12.5294 14.7012,11.7774 14.7012,11.2424 C14.7012,10.9724 14.6262,10.0904 13.6562,10.0904 C12.7282,10.0904 12.0012,11.0824 12.0012,12.3494 C12.0012,13.1984 12.2932,13.7844 12.2962,13.7904 L12.3592,13.9134 L10.9742,19.5974 C10.7142,20.6624 10.7752,21.9034 10.8742,22.7664 C11.3712,22.1024 12.0692,21.0464 12.3662,20.0014 C12.4972,19.5484 13.1052,17.2114 13.1052,17.2114 L13.3442,16.2914 L13.7982,17.1274 C14.0832,17.6534 15.0002,18.1984 16.0392,18.1984 C19.1602,18.1984 21.3402,15.4844 21.3402,11.5974 C21.3392,8.9134 18.9872,6.1374 15.0522,6.1374 Z" id="Combined-Shape"></path>
                </g>
            </g>
        </g>
    </g>
</svg>