<?xml version="1.0" encoding="UTF-8"?>
<svg width="40px" height="40px" viewBox="0 0 40 40" version="1.1" xmlns="http://www.w3.org/2000/svg" xmlns:xlink="http://www.w3.org/1999/xlink">
    <!-- Generator: Sketch 51.3 (57544) - http://www.bohemiancoding.com/sketch -->
    <title>Combined Shape</title>
    <desc>Created with Sketch.</desc>
    <defs></defs>
    <g id="Page-2" stroke="none" stroke-width="1" fill="none" fill-rule="evenodd">
        <g id="18.Cộng-tác-viên-2" transform="translate(-171.000000, -1565.000000)" fill="#FBAF21">
            <path d="M191.866355,1583.18182 L191.866355,1588.63333 L204.581098,1588.63333 C205.583746,1588.63333 206.39749,1589.44969 206.39749,1590.45556 L206.39749,1596.81818 L209.181818,1596.81818 C210.185455,1596.81818 211,1597.63273 211,1598.63636 L211,1603.18182 C211,1604.18545 210.185455,1605 209.181818,1605 L201.909091,1605 C200.905455,1605 200.090909,1604.18545 200.090909,1603.18182 L200.090909,1598.63636 C200.090909,1597.63273 200.905455,1596.81818 201.909091,1596.81818 L204.581098,1596.81818 L204.581098,1590.45556 L191.866355,1590.45556 L191.866355,1596.81818 L194.636364,1596.81818 C195.64,1596.81818 196.454545,1597.63273 196.454545,1598.63636 L196.454545,1603.18182 C196.454545,1604.18545 195.64,1605 194.636364,1605 L187.363636,1605 C186.36,1605 185.545455,1604.18545 185.545455,1603.18182 L185.545455,1598.63636 C185.545455,1597.63273 186.36,1596.81818 187.363636,1596.81818 L190.049963,1596.81818 L190.049963,1590.45556 L177.33522,1590.45556 L177.33522,1596.81818 L180.090909,1596.81818 C181.094545,1596.81818 181.909091,1597.63273 181.909091,1598.63636 L181.909091,1603.18182 C181.909091,1604.18545 181.094545,1605 180.090909,1605 L172.818182,1605 C171.814545,1605 171,1604.18545 171,1603.18182 L171,1598.63636 C171,1597.63273 171.814545,1596.81818 172.818182,1596.81818 L175.518828,1596.81818 L175.518828,1590.45556 C175.518828,1589.44969 176.332572,1588.63333 177.33522,1588.63333 L190.049963,1588.63333 L190.049963,1583.18182 L179.181818,1583.18182 C178.178182,1583.18182 177.363636,1582.36727 177.363636,1581.36364 L177.363636,1566.81818 C177.363636,1565.81455 178.178182,1565 179.181818,1565 L202.818182,1565 C203.821818,1565 204.636364,1565.81455 204.636364,1566.81818 L204.636364,1581.36364 C204.636364,1582.36727 203.821818,1583.18182 202.818182,1583.18182 L191.866355,1583.18182 Z M206.39749,1596.81818 L204.581098,1596.81818 L204.581098,1596.83333 L206.39749,1596.83333 L206.39749,1596.81818 Z M201.909091,1603.18182 L209.181818,1603.18182 L209.181818,1598.63636 L201.909091,1598.63636 L201.909091,1603.18182 Z M190.049963,1596.81818 L190.049963,1596.83333 L191.866355,1596.83333 L191.866355,1596.81818 L190.049963,1596.81818 Z M187.363636,1603.18182 L194.636364,1603.18182 L194.636364,1598.63636 L187.363636,1598.63636 L187.363636,1603.18182 Z M177.33522,1596.81818 L175.518828,1596.81818 L175.518828,1596.83333 L177.33522,1596.83333 L177.33522,1596.81818 Z M172.818182,1603.18182 L180.090909,1603.18182 L180.090909,1598.63636 L172.818182,1598.63636 L172.818182,1603.18182 Z M191.866355,1583.18182 L191.866355,1583.16667 L190.049963,1583.16667 L190.049963,1583.18182 L191.866355,1583.18182 Z M179.181818,1581.36364 L202.818182,1581.36364 L202.818182,1566.81818 L179.181818,1566.81818 L179.181818,1581.36364 Z" id="Combined-Shape"></path>
        </g>
    </g>
</svg>