<?xml version="1.0" encoding="UTF-8"?>
<svg width="40px" height="40px" viewBox="0 0 40 40" version="1.1" xmlns="http://www.w3.org/2000/svg" xmlns:xlink="http://www.w3.org/1999/xlink">
    <!-- Generator: Sketch 51.3 (57544) - http://www.bohemiancoding.com/sketch -->
    <title>Combined Shape</title>
    <desc>Created with Sketch.</desc>
    <defs></defs>
    <g id="Page-2" stroke="none" stroke-width="1" fill="none" fill-rule="evenodd">
        <g id="18.Cộng-tác-viên-2" transform="translate(-551.000000, -1565.000000)" fill="#FBAF21">
            <path d="M557.666901,1573.01328 L557.666901,1575.67883 L552.333654,1575.67883 L552.333654,1573.01328 C552.333654,1572.90466 552.36432,1570.34772 555.000278,1570.34772 C556.416671,1570.29141 557.610569,1571.39345 557.666901,1572.80928 C557.669568,1572.87725 557.669568,1572.94531 557.666901,1573.01328 M555.000278,1566.34939 C555.736682,1566.34939 556.333589,1566.94606 556.333589,1567.68217 C556.333589,1568.41828 555.736682,1569.01495 555.000278,1569.01495 C554.263873,1569.01495 553.666966,1568.41828 553.666966,1567.68217 C553.666966,1566.94606 554.263873,1566.34939 555.000278,1566.34939 M556.976912,1569.45476 C558.245559,1570.18787 559.019213,1571.54856 559.000213,1573.01328 L559.000213,1576.34522 C559.000213,1576.71323 558.701718,1577.01161 558.333557,1577.01161 L551.666998,1577.01161 C551.298837,1577.01161 551.000342,1576.71323 551.000342,1576.34522 L551.000342,1573.01328 C550.981342,1571.54856 551.754997,1570.18787 553.023643,1569.45485 C552.103658,1568.43927 552.103658,1566.892 553.023643,1565.87643 C554.012127,1564.78513 555.698516,1564.70158 556.790165,1565.68975 C557.881814,1566.67784 557.96548,1568.36355 556.976912,1569.45476 Z M554.333605,1574.34604 L555.666917,1574.34604 L555.666917,1571.68048 L554.333605,1571.68048 L554.333605,1574.34604 Z M588.976438,1597.44307 C590.245,1598.17618 591.018738,1599.53687 590.999655,1601.00167 L590.999655,1604.33361 C590.999655,1604.70162 590.70116,1605 590.332999,1605 L583.66644,1605 C583.298279,1605 582.999784,1604.70162 582.999784,1604.33361 L582.999784,1601.00167 C582.980784,1599.53703 583.754522,1598.17627 585.023085,1597.44316 C584.1031,1596.42758 584.1031,1594.88031 585.023085,1593.86473 C586.011652,1592.77352 587.697958,1592.68989 588.789607,1593.67806 C589.881256,1594.66607 589.964922,1596.35186 588.976438,1597.44307 Z M589.666343,1601.00159 C589.66901,1600.93362 589.66901,1600.86556 589.666343,1600.79759 C589.610011,1599.38176 588.416113,1598.27972 586.99972,1598.33603 C584.363762,1598.33603 584.333096,1600.89297 584.333096,1601.00159 L584.333096,1603.66714 L589.666343,1603.66714 L589.666343,1601.00159 Z M586.99972,1594.3377 C586.263315,1594.3377 585.666408,1594.93437 585.666408,1595.67048 C585.666408,1596.40659 586.263315,1597.00326 586.99972,1597.00326 C587.736208,1597.00326 588.333031,1596.40659 588.333031,1595.67048 C588.333031,1594.93437 587.736208,1594.3377 586.99972,1594.3377 Z M586.333089,1602.33435 L586.333089,1599.66879 L587.6664,1599.66879 L587.6664,1602.33435 L586.333089,1602.33435 Z M572.976696,1581.44975 C574.245259,1582.18286 575.018996,1583.54355 574.999913,1585.00835 L574.999913,1588.34029 C574.999913,1588.7083 574.701418,1589.00668 574.333257,1589.00668 L567.666698,1589.00668 C567.298621,1589.00668 567.000042,1588.7083 567.000042,1588.34029 L567.000042,1585.00835 C566.981043,1583.54371 567.75478,1582.18295 569.023343,1581.44984 C568.103358,1580.43426 568.103358,1578.88699 569.023343,1577.87141 C570.01191,1576.78012 571.698216,1576.69657 572.789865,1577.68474 C573.881515,1578.67283 573.96518,1580.35854 572.976696,1581.44975 Z M573.666601,1585.00827 C573.669268,1584.9403 573.669268,1584.87224 573.666601,1584.80427 C573.610269,1583.38844 572.416372,1582.2864 570.999978,1582.34271 C568.36402,1582.34271 568.333354,1584.89965 568.333354,1585.00827 L568.333354,1587.67382 L573.666601,1587.67382 L573.666601,1585.00827 Z M570.999978,1578.34438 C570.263656,1578.34438 569.666666,1578.94105 569.666666,1579.67716 C569.666666,1580.41327 570.263656,1581.00994 570.999978,1581.00994 C571.736466,1581.00994 572.33329,1580.41327 572.33329,1579.67716 C572.33329,1578.94105 571.736466,1578.34438 570.999978,1578.34438 Z M570.333347,1586.34103 L570.333347,1583.67547 L571.666659,1583.67547 L571.666659,1586.34103 L570.333347,1586.34103 Z M590.332999,1565.01662 C590.70116,1565.01662 590.999655,1565.31491 590.999655,1565.68301 L590.999655,1573.67967 C590.999655,1574.04768 590.70116,1574.34605 590.332999,1574.34605 L589.275766,1574.34605 L587.471045,1576.14997 C587.210716,1576.41011 586.788806,1576.41011 586.528477,1576.14997 L584.723756,1574.34605 L575.666569,1574.34605 C575.298408,1574.34605 574.999913,1574.04768 574.999913,1573.67967 L574.999913,1565.68301 C574.999913,1565.31499 575.298408,1565.01662 575.666569,1565.01662 L590.332999,1565.01662 Z M589.666343,1573.01328 L589.666343,1566.34939 L576.333225,1566.34939 L576.333225,1573.01328 L584.999752,1573.01328 C585.176582,1573.01328 585.34608,1573.08358 585.471078,1573.20853 L586.99972,1574.73656 L588.528445,1573.20853 C588.653443,1573.08358 588.822857,1573.01328 588.999687,1573.01328 L589.666343,1573.01328 Z M577.666562,1571.68048 L577.666562,1570.34771 L586.999745,1570.34771 L586.999745,1571.68048 L577.666562,1571.68048 Z M580.999841,1569.01493 L580.999841,1567.68215 L588.333056,1567.68215 L588.333056,1569.01493 L580.999841,1569.01493 Z M566.333428,1595.67048 C566.701589,1595.67048 567.000084,1595.96877 567.000084,1596.33687 L567.000084,1604.33353 C567.000084,1604.70154 566.701589,1604.99992 566.333428,1604.99992 L551.666998,1604.99992 C551.298837,1604.99992 551.000342,1604.70154 551.000342,1604.33353 L551.000342,1596.33687 C551.000342,1595.96886 551.298837,1595.67048 551.666998,1595.67048 L552.724314,1595.67048 L554.528952,1593.86657 C554.789281,1593.60643 555.211274,1593.60643 555.471603,1593.86657 L557.276241,1595.67048 L566.333428,1595.67048 Z M565.666772,1603.66714 L565.666772,1597.00326 L557.000245,1597.00326 C556.823415,1597.00326 556.653918,1596.93295 556.52892,1596.80801 L555.000278,1595.27998 L553.471636,1596.80801 C553.346638,1596.93295 553.17714,1597.00326 553.00031,1597.00326 L552.333654,1597.00326 L552.333654,1603.66714 L565.666772,1603.66714 Z M553.666949,1602.33435 L553.666949,1601.00157 L563.000132,1601.00157 L563.000132,1602.33435 L553.666949,1602.33435 Z M557.000229,1599.66879 L557.000229,1598.33602 L564.333444,1598.33602 L564.333444,1599.66879 L557.000229,1599.66879 Z M578.333218,1569.01493 L578.333218,1567.68215 L579.66653,1567.68215 L579.66653,1569.01493 L578.333218,1569.01493 Z M554.333605,1599.66879 L554.333605,1598.33602 L555.666917,1598.33602 L555.666917,1599.66879 L554.333605,1599.66879 Z M569.000035,1601.66796 L569.000035,1600.33518 L570.333347,1600.33518 L570.333347,1601.66796 L569.000035,1601.66796 Z M571.666659,1601.66796 L571.666659,1600.33518 L572.99997,1600.33518 L572.99997,1601.66796 L571.666659,1601.66796 Z M574.333282,1601.66796 L574.333282,1600.33518 L575.666594,1600.33518 L575.666594,1601.66796 L574.333282,1601.66796 Z M576.999906,1601.66796 L576.999906,1600.33518 L578.333218,1600.33518 L578.333218,1601.66796 L576.999906,1601.66796 Z M579.66653,1601.66796 L579.66653,1600.33518 L580.999841,1600.33518 L580.999841,1601.66796 L579.66653,1601.66796 Z M586.333089,1591.00575 L586.333089,1589.67297 L587.6664,1589.67297 L587.6664,1591.00575 L586.333089,1591.00575 Z M586.333089,1588.34019 L586.333089,1587.00742 L587.6664,1587.00742 L587.6664,1588.34019 L586.333089,1588.34019 Z M586.333089,1585.67464 L586.333089,1584.34186 L587.6664,1584.34186 L587.6664,1585.67464 L586.333089,1585.67464 Z M586.333089,1583.00909 L586.333089,1581.67631 L587.6664,1581.67631 L587.6664,1583.00909 L586.333089,1583.00909 Z M586.333089,1580.34353 L586.333089,1579.01076 L587.6664,1579.01076 L587.6664,1580.34353 L586.333089,1580.34353 Z M554.333605,1591.00575 L554.333605,1589.67297 L555.666917,1589.67297 L555.666917,1591.00575 L554.333605,1591.00575 Z M554.333605,1588.34019 L554.333605,1587.00742 L555.666917,1587.00742 L555.666917,1588.34019 L554.333605,1588.34019 Z M554.333605,1585.67464 L554.333605,1584.34186 L555.666917,1584.34186 L555.666917,1585.67464 L554.333605,1585.67464 Z M557.666885,1585.67464 L557.666885,1584.34186 L559.000196,1584.34186 L559.000196,1585.67464 L557.666885,1585.67464 Z M560.333508,1585.67464 L560.333508,1584.34186 L561.66682,1584.34186 L561.66682,1585.67464 L560.333508,1585.67464 Z M563.000132,1585.67464 L563.000132,1584.34186 L564.333444,1584.34186 L564.333444,1585.67464 L563.000132,1585.67464 Z M577.666562,1585.67464 L577.666562,1584.34186 L578.999874,1584.34186 L578.999874,1585.67464 L577.666562,1585.67464 Z M580.333185,1585.67464 L580.333185,1584.34186 L581.666497,1584.34186 L581.666497,1585.67464 L580.333185,1585.67464 Z M582.999809,1585.67464 L582.999809,1584.34186 L584.333121,1584.34186 L584.333121,1585.67464 L582.999809,1585.67464 Z M554.333605,1583.00909 L554.333605,1581.67631 L555.666917,1581.67631 L555.666917,1583.00909 L554.333605,1583.00909 Z M554.333605,1580.34353 L554.333605,1579.01076 L555.666917,1579.01076 L555.666917,1580.34353 L554.333605,1580.34353 Z M560.333508,1569.68132 L560.333508,1568.34854 L561.66682,1568.34854 L561.66682,1569.68132 L560.333508,1569.68132 Z M563.000132,1569.68132 L563.000132,1568.34854 L564.333444,1568.34854 L564.333444,1569.68132 L563.000132,1569.68132 Z M565.666755,1569.68132 L565.666755,1568.34854 L567.000067,1568.34854 L567.000067,1569.68132 L565.666755,1569.68132 Z M568.333379,1569.68132 L568.333379,1568.34854 L569.666691,1568.34854 L569.666691,1569.68132 L568.333379,1569.68132 Z M571.000003,1569.68132 L571.000003,1568.34854 L572.333315,1568.34854 L572.333315,1569.68132 L571.000003,1569.68132 Z" id="Combined-Shape"></path>
        </g>
    </g>
</svg>