<?xml version="1.0" encoding="UTF-8"?>
<svg width="48px" height="42px" viewBox="0 0 48 42" version="1.1" xmlns="http://www.w3.org/2000/svg" xmlns:xlink="http://www.w3.org/1999/xlink">
    <!-- Generator: Sketch 51.3 (57544) - http://www.bohemiancoding.com/sketch -->
    <title>Fill 1</title>
    <desc>Created with Sketch.</desc>
    <defs></defs>
    <g id="Page-2" stroke="none" stroke-width="1" fill="none" fill-rule="evenodd">
        <g id="01.-Home" transform="translate(-316.000000, -3195.000000)" fill="#FBAF21" stroke="#FFFFFF" stroke-width="1.25">
            <g id="Our-service" transform="translate(0.000000, 2660.000000)">
                <g id="Web-dev" transform="translate(170.000000, 486.000000)">
                    <g id="Group" transform="translate(32.000000, 50.000000)">
                        <path d="M158.772376,0 C160.002804,0 161,1.0051639 161,2.24517288 L161,28.5136956 C161,29.7537045 160.002804,30.7588684 158.772376,30.7588684 L143.234918,30.7588684 L143.234918,35.8464302 L149.281025,35.8464302 C150.417224,35.8464302 151.341577,36.7780647 151.341577,37.9232151 C151.341577,39.0683655 150.417224,40 149.281025,40 L126.718975,40 C125.582776,40 124.658423,39.0683655 124.658423,37.9232151 C124.658423,36.7780647 125.582776,35.8464302 126.718975,35.8464302 L132.765082,35.8464302 L132.765082,30.7588684 L117.227624,30.7588684 C115.997196,30.7588684 115,29.7537045 115,28.5136956 L115,2.24517288 C115,1.0051639 115.997196,0 117.227624,0 L158.772376,0 Z M118.341437,27.3911091 L157.658563,27.3911091 L157.658563,3.36775932 L118.341437,3.36775932 L118.341437,27.3911091 Z M125.535639,16.6478671 C125.055475,16.4220027 124.745612,15.9322182 124.745723,15.3998877 L124.745723,15.3013247 C124.745723,14.7683206 125.055697,14.2784239 125.535528,14.0533453 L132.561344,10.7605748 C132.73922,10.6772789 132.938035,10.6333857 133.136071,10.6333857 C133.398819,10.6333857 133.653325,10.7077009 133.871855,10.8484733 C134.266813,11.1021778 134.50283,11.535833 134.50283,12.0085541 L134.50283,12.0443646 C134.50283,12.5774809 134.192633,13.0674899 133.71258,13.2924562 L129.317923,15.3506062 L133.712469,17.4083071 C134.192633,17.6332735 134.50283,18.1231702 134.50283,18.656511 L134.50283,18.6926583 C134.50283,19.1647059 134.266925,19.598361 133.871744,19.8528514 C133.651098,19.9942973 133.397371,20.068837 133.136962,20.068837 C132.937033,20.068837 132.743675,20.0258419 132.562012,19.9410867 L125.535639,16.6478671 Z M134.56546,23.3554894 C134.309506,23.0023238 134.235326,22.5422878 134.366978,22.1246857 L138.996205,7.66902784 C139.177868,7.09763134 139.70058,6.71314549 140.297026,6.71314549 L140.331888,6.71314549 C140.766275,6.71314549 141.178497,6.92419174 141.434785,7.27769421 C141.691074,7.63209475 141.764808,8.09235519 141.632041,8.50962057 L137.003372,22.9641558 C136.821821,23.5355523 136.299443,23.9200382 135.70333,23.9200382 L135.668245,23.9200382 C135.23397,23.9200382 134.821748,23.7089919 134.56546,23.3554894 Z M141.497203,12.0442187 L141.497203,12.0082959 C141.497203,11.5355748 141.733109,11.1019196 142.129069,10.8477661 C142.347376,10.7074427 142.601994,10.6331275 142.864519,10.6331275 C143.062778,10.6331275 143.261259,10.6771329 143.438467,10.7600921 L150.464394,14.0530871 C150.944336,14.2781657 151.254421,14.7680624 151.254421,15.3010665 L151.254421,15.3996295 C151.254421,15.9320723 150.944447,16.4218568 150.46484,16.6473844 L143.438801,19.9404917 C143.255802,20.025696 143.062666,20.0686911 142.863071,20.0686911 C142.602328,20.0686911 142.348379,19.9940391 142.128512,19.8528177 C141.732775,19.5982151 141.496981,19.1645599 141.496981,18.6925123 L141.496981,18.6563651 C141.496981,18.1230242 141.807177,17.6331275 142.287453,17.4081612 L146.681999,15.3504603 L142.287453,13.2927593 C141.806955,13.0668949 141.497203,12.5769982 141.497203,12.0442187 Z" id="Fill-1"></path>
                    </g>
                </g>
            </g>
        </g>
    </g>
</svg>