<?xml version="1.0" encoding="UTF-8"?>
<svg width="40px" height="40px" viewBox="0 0 40 40" version="1.1" xmlns="http://www.w3.org/2000/svg" xmlns:xlink="http://www.w3.org/1999/xlink">
    <!-- Generator: Sketch 51.3 (57544) - http://www.bohemiancoding.com/sketch -->
    <title>Combined Shape</title>
    <desc>Created with Sketch.</desc>
    <defs></defs>
    <g id="Page-2" stroke="none" stroke-width="1" fill="none" fill-rule="evenodd">
        <g id="18.Cộng-tác-viên-2" transform="translate(-931.000000, -1565.000000)" fill="#FBAF21">
            <path d="M967.003879,1603.63307 C965.532128,1603.63307 964.339021,1602.44037 964.339021,1600.96913 C964.339021,1599.49788 965.532128,1598.30518 967.003879,1598.30518 C968.47563,1598.30518 969.668737,1599.49788 969.668737,1600.96913 C969.668737,1602.44037 968.475713,1603.63307 967.003879,1603.63307 M963.672806,1590.97933 C962.498437,1590.97999 961.349966,1590.63385 960.371714,1589.98434 C960.488634,1588.62914 961.646682,1587.60277 963.006592,1587.64939 L964.339021,1587.64939 C965.698931,1587.60277 966.856978,1588.62914 966.973982,1589.98434 C965.99573,1590.63385 964.847343,1590.97999 963.672806,1590.97933 M963.672806,1585.65143 C962.568972,1585.65143 961.674163,1584.75693 961.674163,1583.65347 C961.674163,1582.55002 962.568972,1581.65551 963.672806,1581.65551 C964.776641,1581.65551 965.67145,1582.55002 965.67145,1583.65347 C965.67145,1584.75693 964.776641,1585.65143 963.672806,1585.65143 M959.221828,1588.98728 C957.003084,1586.52995 957.197119,1582.73982 959.655367,1580.52184 C962.113615,1578.30385 965.905041,1578.49782 968.123785,1580.95523 C970.183804,1583.23665 970.183804,1586.70594 968.123785,1588.98728 C967.71881,1587.74405 966.70808,1586.79268 965.442272,1586.46327 C967.000964,1585.48635 967.472311,1583.43128 966.495057,1581.87312 C965.517804,1580.31488 963.462033,1579.84378 961.903341,1580.8207 C960.344649,1581.79762 959.873302,1583.85269 960.850555,1585.41076 C961.117541,1585.83658 961.477463,1586.19638 961.903341,1586.46327 C960.63745,1586.79243 959.626636,1587.74388 959.221828,1588.98728 M960.341734,1600.96913 C960.341734,1602.44037 959.148627,1603.63307 957.676876,1603.63307 C956.205125,1603.63307 955.012018,1602.44037 955.012018,1600.96913 C955.012018,1599.49788 956.205125,1598.30518 957.676876,1598.30518 C959.148711,1598.30518 960.341734,1599.49779 960.341734,1600.96913 M955.465711,1576.33361 C955.060735,1575.0903 954.050005,1574.13886 952.784197,1573.80953 C954.342889,1572.83261 954.814236,1570.77754 953.836983,1569.21938 C952.859729,1567.66114 950.803958,1567.19003 949.245266,1568.16695 C947.686574,1569.14387 947.215227,1571.19894 948.192481,1572.7571 C948.459466,1573.18283 948.819389,1573.54263 949.245266,1573.80953 C947.979375,1574.13877 946.968561,1575.09022 946.563753,1576.33361 C944.345009,1573.87621 944.539044,1570.08608 946.997292,1567.86809 C949.455457,1565.65011 953.246967,1565.84408 955.465711,1568.30148 C957.525729,1570.58282 957.525729,1574.05211 955.465711,1576.33361 M949.016088,1570.99973 C949.016088,1569.89627 949.910898,1569.00177 951.014732,1569.00177 C952.118566,1569.00177 953.013375,1569.89627 953.013375,1570.99973 C953.013375,1572.10318 952.118566,1572.99769 951.014732,1572.99769 C949.910898,1572.99769 949.016088,1572.1031 949.016088,1570.99973 M951.014732,1578.32558 C949.840362,1578.32625 948.691892,1577.9801 947.713639,1577.3306 C947.83056,1575.9754 948.988607,1574.94911 950.348517,1574.99565 L951.680946,1574.99565 C953.040856,1574.94911 954.198904,1575.9754 954.315908,1577.3306 C953.337655,1577.9801 952.189268,1578.32625 951.014732,1578.32558 M944.352587,1584.98545 C944.352004,1586.46477 943.801378,1587.89106 942.807636,1588.98728 C942.402661,1587.74405 941.39193,1586.79268 940.126123,1586.46327 C941.684815,1585.48635 942.156161,1583.43128 941.178908,1581.87312 C940.201655,1580.31488 938.145883,1579.84378 936.587191,1580.8207 C935.028499,1581.79762 934.557153,1583.85269 935.534406,1585.41076 C935.801391,1585.83658 936.161314,1586.19638 936.587191,1586.46327 C935.321301,1586.79252 934.310487,1587.74396 933.905678,1588.98728 C931.69268,1586.52771 931.893211,1582.74049 934.353624,1580.52816 C936.814037,1578.31584 940.602632,1578.51639 942.81563,1580.97596 C943.806041,1582.07667 944.353586,1583.50496 944.352587,1584.98545 M936.358014,1583.65347 C936.358014,1582.55002 937.252823,1581.65551 938.356657,1581.65551 C939.460491,1581.65551 940.3553,1582.55002 940.3553,1583.65347 C940.3553,1584.75693 939.460491,1585.65143 938.356657,1585.65143 C937.252823,1585.65143 936.358014,1584.75685 936.358014,1583.65347 M938.356657,1590.97933 C937.182287,1590.97999 936.033817,1590.63385 935.055564,1589.98434 C935.172485,1588.62914 936.330532,1587.60277 937.690443,1587.64939 L939.022871,1587.64939 C940.382782,1587.60277 941.540829,1588.62914 941.65775,1589.98434 C940.679497,1590.63385 939.53111,1590.97999 938.356657,1590.97933 M937.690443,1600.96913 C937.690443,1602.44037 936.497336,1603.63307 935.025585,1603.63307 C933.553834,1603.63307 932.360727,1602.44037 932.360727,1600.96913 C932.360727,1599.49788 933.553834,1598.30518 935.025585,1598.30518 C936.497336,1598.30518 937.690443,1599.49779 937.690443,1600.96913 M944.352587,1598.30518 C945.824338,1598.30518 947.017445,1599.49788 947.017445,1600.96913 C947.017445,1602.44037 945.824338,1603.63307 944.352587,1603.63307 C942.880836,1603.63307 941.687729,1602.44037 941.687729,1600.96913 C941.687729,1599.49779 942.880836,1598.30518 944.352587,1598.30518 M970.727768,1599.51478 C971.526059,1601.56685 970.509083,1603.87732 968.456393,1604.67542 C966.40362,1605.47336 964.092438,1604.45681 963.294147,1602.40483 C962.495855,1600.35275 963.512748,1598.04236 965.565605,1597.24435 L964.45894,1592.26743 C963.616761,1592.36166 962.764423,1592.30397 961.942647,1592.09693 L959.755465,1597.56335 C961.214309,1598.45736 961.945979,1600.17727 961.578228,1601.84789 C961.101718,1604.01285 958.959672,1605.38179 956.793892,1604.90536 C954.628112,1604.42909 953.258709,1602.28778 953.735302,1600.12274 C954.211812,1597.95762 956.353858,1596.58876 958.519638,1597.06511 L960.679505,1591.66671 C960.183841,1591.44219 959.71466,1591.16339 959.280455,1590.83547 C959.250808,1590.81699 959.222744,1590.79601 959.196511,1590.77295 C959.117565,1590.71235 959.039868,1590.65008 958.963503,1590.58623 C955.868021,1588.00028 955.455717,1583.39532 958.042711,1580.30098 L955.698886,1577.95796 C955.630932,1578.01465 955.555649,1578.06526 955.489111,1578.11921 C955.462629,1578.1421 955.434565,1578.16308 955.405085,1578.18173 C952.807598,1580.14947 949.217868,1580.14947 946.620381,1578.18173 C946.590735,1578.16325 946.56267,1578.14227 946.536438,1578.11921 C946.466486,1578.06526 946.393202,1578.01465 946.326581,1577.95796 L943.982838,1580.30098 C944.046628,1580.37724 944.108836,1580.45474 944.169461,1580.53349 C946.628292,1583.73056 946.029033,1588.3148 942.830953,1590.77295 C942.804555,1590.79585 942.77649,1590.81683 942.74701,1590.83547 C942.313138,1591.16389 941.843873,1591.4426 941.34796,1591.66671 L943.507827,1597.06511 C945.162621,1596.70348 946.865298,1597.42733 947.752529,1598.86969 C948.904997,1600.74344 948.319978,1603.19635 946.445666,1604.34842 C944.571355,1605.5005 942.117604,1604.9156 940.965136,1603.04193 C939.812669,1601.16834 940.397688,1598.71551 942.271999,1597.56335 L940.084817,1592.09693 C939.263042,1592.30397 938.410704,1592.36166 937.568525,1592.26743 L936.461943,1597.24435 C938.010142,1597.84432 939.028368,1599.33596 939.022871,1600.99576 C939.01546,1603.21009 937.213933,1604.99909 934.998936,1604.99168 C932.78394,1604.98428 930.994321,1603.18345 931.001649,1600.96921 C931.009061,1598.75489 932.810588,1596.96596 935.025585,1596.97329 C935.072886,1596.97329 935.115524,1596.97995 935.158828,1596.97995 L936.262079,1592.00303 C935.433058,1591.75295 934.655003,1591.35769 933.964305,1590.83547 C933.934659,1590.81699 933.906594,1590.79601 933.880362,1590.77295 C933.785843,1590.70078 933.693072,1590.62644 933.602218,1590.54985 C930.510982,1587.94451 930.117749,1583.32739 932.72398,1580.23721 C935.330211,1577.14703 939.94891,1576.75394 943.040145,1579.35927 L945.383887,1577.01625 C943.118758,1574.29944 943.118758,1570.35272 945.383887,1567.63583 C947.975128,1564.52775 952.596075,1564.1081 955.705215,1566.69845 C958.814354,1569.28881 959.234153,1573.90826 956.642911,1577.01617 L958.986737,1579.35919 C959.058272,1579.29942 959.131056,1579.24106 959.205006,1579.18412 C962.406166,1576.71506 967.003462,1577.3077 969.473369,1580.50794 C971.943276,1583.70808 971.350345,1588.30372 968.149101,1590.77287 C968.12162,1590.79593 968.092473,1590.81683 968.061827,1590.83539 C967.371129,1591.35761 966.593074,1591.75287 965.764054,1592.00295 L966.870636,1596.97987 C966.917271,1596.97845 966.959909,1596.97321 967.003879,1596.97321 C968.651177,1596.97029 970.130756,1597.98009 970.727768,1599.51478 Z M951.014732,1580.98949 C951.382732,1580.98949 951.680946,1581.2876 951.680946,1581.65547 L951.680946,1584.31942 C951.680946,1584.68721 951.382649,1584.9854 951.014732,1584.9854 C950.646815,1584.9854 950.348517,1584.68721 950.348517,1584.31942 L950.348517,1581.65547 C950.348517,1581.28768 950.646815,1580.98949 951.014732,1580.98949 Z M951.014732,1586.31742 C951.382732,1586.31742 951.680946,1586.61553 951.680946,1586.98341 L951.680946,1589.64735 C951.680946,1590.01514 951.382649,1590.31334 951.014732,1590.31334 C950.646815,1590.31334 950.348517,1590.01514 950.348517,1589.64735 L950.348517,1586.98341 C950.348517,1586.61562 950.646815,1586.31742 951.014732,1586.31742 Z M953.484405,1596.50233 C953.733819,1596.7604 953.733819,1597.16956 953.484405,1597.42772 C953.228746,1597.69228 952.807032,1597.69961 952.542295,1597.44403 L951.014748,1595.91693 L949.487119,1597.44403 C949.481789,1597.44953 949.476376,1597.45502 949.470796,1597.46035 C949.206143,1597.71592 948.784346,1597.7086 948.528769,1597.44403 C948.273109,1597.17947 948.280438,1596.75782 948.545091,1596.50233 L950.348534,1594.6995 L950.348534,1592.31127 C950.348534,1591.94348 950.646831,1591.64529 951.014748,1591.64529 C951.382665,1591.64529 951.680963,1591.94348 951.680963,1592.31127 L951.680963,1594.6995 L953.484405,1596.50233 Z M935.025585,1599.63715 C934.289751,1599.63715 933.693156,1600.23346 933.693156,1600.96913 C933.693156,1601.70471 934.289751,1602.3011 935.025585,1602.3011 C935.761502,1602.3011 936.358014,1601.70471 936.358014,1600.96913 C936.358014,1600.23346 935.761502,1599.63715 935.025585,1599.63715 Z M944.352587,1599.63715 C943.616753,1599.63715 943.020158,1600.23346 943.020158,1600.96913 C943.020158,1601.70471 943.616753,1602.3011 944.352587,1602.3011 C945.088504,1602.3011 945.685016,1601.70471 945.685016,1600.96913 C945.685016,1600.23346 945.088504,1599.63715 944.352587,1599.63715 Z M957.676876,1599.63715 C956.941042,1599.63715 956.344447,1600.23346 956.344447,1600.96913 C956.344447,1601.70471 956.941042,1602.3011 957.676876,1602.3011 C958.412793,1602.3011 959.009305,1601.70471 959.009305,1600.96913 C959.009305,1600.23346 958.412793,1599.63715 957.676876,1599.63715 Z M967.003879,1599.63715 C966.268045,1599.63715 965.67145,1600.23346 965.67145,1600.96913 C965.67145,1601.70471 966.268045,1602.3011 967.003879,1602.3011 C967.739796,1602.3011 968.336308,1601.70471 968.336308,1600.96913 C968.336308,1600.23346 967.739796,1599.63715 967.003879,1599.63715 Z" id="Combined-Shape"></path>
        </g>
    </g>
</svg>