<?xml version="1.0" encoding="UTF-8"?>
<svg width="26px" height="30px" viewBox="0 0 26 30" version="1.1" xmlns="http://www.w3.org/2000/svg" xmlns:xlink="http://www.w3.org/1999/xlink">
    <!-- Generator: Sketch 51.3 (57544) - http://www.bohemiancoding.com/sketch -->
    <title>Combined Shape</title>
    <desc>Created with Sketch.</desc>
    <defs></defs>
    <g id="Page-2" stroke="none" stroke-width="1" fill="none" fill-rule="evenodd">
        <g id="19.Trờ-thành-đối-tác-của-chúng-tôi" transform="translate(-672.000000, -5552.000000)" fill="#FBAF21">
            <g id="Group-23" transform="translate(170.000000, 5407.000000)">
                <g id="Câu-hỏi-thường-gặp">
                    <g id="Group-17" transform="translate(502.000000, 143.000000)">
                        <path d="M12.641,24.952 C12.245,24.952 11.835,24.93 11.425,24.886 C11.162,24.857 10.896,24.942 10.7,25.123 L7.052,28.478 L7.052,23.94 C7.052,23.628 6.896,23.34 6.635,23.169 C3.635,21.203 1.844,17.924 1.844,14.398 C1.844,8.578 6.687,3.844 12.641,3.844 C18.594,3.844 23.438,8.578 23.438,14.398 C23.438,20.218 18.594,24.952 12.641,24.952 M12.641,2 C19.611,2 25.282,7.562 25.282,14.398 C25.282,21.522 19.118,27.251 11.753,26.765 L11.646,26.758 L6.754,31.258 C6.485,31.505 6.095,31.568 5.759,31.423 C5.424,31.275 5.208,30.944 5.208,30.579 L5.208,24.428 L5.105,24.352 C1.909,22.023 0,18.302 0,14.398 C0,7.562 5.671,2 12.641,2 Z M13.227,7.7943 L9.125,7.7943 C8.617,7.7943 8.204,8.2083 8.204,8.7163 C8.204,9.2243 8.617,9.6383 9.125,9.6383 L13.227,9.6383 C14.334,9.6383 15.235,10.5393 15.235,11.6463 C15.235,12.7523 14.334,13.6533 13.227,13.6533 L12.055,13.6533 C11.547,13.6533 11.133,14.0673 11.133,14.5753 L11.133,16.2623 C11.133,16.7713 11.547,17.1843 12.055,17.1843 C12.563,17.1843 12.977,16.7713 12.977,16.2623 L12.977,15.4973 L13.227,15.4973 C15.351,15.4973 17.079,13.7693 17.079,11.6463 C17.079,9.5223 15.351,7.7943 13.227,7.7943 Z M12.0551,18.619 C11.0451,18.619 10.2231,19.441 10.2231,20.451 C10.2231,21.461 11.0451,22.283 12.0551,22.283 C13.0651,22.283 13.8871,21.461 13.8871,20.451 C13.8871,19.441 13.0651,18.619 12.0551,18.619 Z" id="Combined-Shape"></path>
                    </g>
                </g>
            </g>
        </g>
    </g>
</svg>