<?xml version="1.0" encoding="UTF-8"?>
<svg width="24px" height="24px" viewBox="0 0 24 24" version="1.1" xmlns="http://www.w3.org/2000/svg" xmlns:xlink="http://www.w3.org/1999/xlink">
    <!-- Generator: Sketch 51.3 (57544) - http://www.bohemiancoding.com/sketch -->
    <title>icon phone</title>
    <desc>Created with Sketch.</desc>
    <defs></defs>
    <g id="Page-2" stroke="none" stroke-width="1" fill="none" fill-rule="evenodd">
        <g id="20.Contact-Us" transform="translate(-169.000000, -751.000000)" fill="#FBAF21">
            <g id="Group-6" transform="translate(169.000000, 598.000000)">
                <path d="M6.65480426,160.122546 L6.40376761,160.371248 C5.7634856,161.012152 5.75406479,161.939947 6.37578228,163.128804 C6.94086413,164.209356 8.04099209,165.560171 9.73900845,167.258569 C11.1005914,168.619582 12.2735366,169.623645 13.2254809,170.242933 C14.7360233,171.225545 15.8799857,171.343937 16.6261132,170.593786 L16.8798652,170.337547 C17.4723782,169.737714 17.940315,169.263923 18.510606,169.198464 C19.1443489,169.126353 19.9976518,169.541336 21.1981944,170.506045 C22.0229025,171.168344 22.4707785,171.806089 22.4932776,172.350051 C22.5258071,173.14737 21.6778795,173.953392 20.9274295,174.666794 C20.776475,174.81024 20.6167647,174.962554 20.4681377,175.110322 C19.7697793,175.809647 17.6868954,175.462008 16.0472326,174.843108 C13.3756041,173.834889 10.4512211,171.826264 7.81278703,169.187323 C5.173688,166.547716 3.16522851,163.622271 2.15742441,160.949907 C1.53886566,159.309153 1.19085016,157.225813 1.88876531,156.528595 C2.01794113,156.399394 2.14606403,156.26515 2.28166816,156.123145 L2.33691839,156.065224 C3.03344812,155.33281 3.82296671,154.502677 4.602732,154.502677 C4.61736196,154.502677 4.63321107,154.503398 4.64839518,154.503952 C5.19247419,154.527176 5.83059495,154.975028 6.49365314,155.79873 C7.45922988,157.000391 7.8745764,157.855077 7.80087248,158.488554 C7.73437271,159.059675 7.25834514,159.528367 6.65480426,160.122546 M22.1402192,169.335091 C23.3463589,170.304623 23.9531693,171.271217 23.9952304,172.289968 C24.0559115,173.770593 22.8953796,174.872429 21.9628864,175.757767 L21.8835855,175.833314 C21.7591755,175.951762 21.6416371,176.063614 21.5311921,176.17408 C20.9900501,176.714495 20.1380772,177 19.0672091,177 C18.0468255,177 16.8190734,176.740435 15.5166198,176.249406 C12.6504795,175.168133 9.53712622,173.037403 6.74989894,170.249695 C3.96283791,167.462153 1.83251759,164.347591 0.75134206,161.47968 C0.261127878,160.181742 0.00133541998,158.956415 5.42445885e-06,157.936444 C-0.00143540402,156.861767 0.284181134,156.007303 0.82582181,155.465502 C0.956493869,155.334805 1.08877301,155.196182 1.22869962,155.049466 L1.24659914,155.030732 C2.13376157,154.098281 3.23732535,152.937803 4.71179164,153.002597 C5.72757572,153.044667 6.69403913,153.651427 7.66560086,154.857633 C8.95059819,156.456595 9.4681327,157.707641 9.29456828,158.7949 C9.1355784,159.790815 8.44414698,160.472236 7.71209528,161.19362 L7.46515945,161.4375 C7.45983946,161.443098 6.94407829,162.338468 10.8017857,166.196142 C12.0896093,167.483437 13.1807598,168.421264 14.0449798,168.983517 C14.9576892,169.575922 15.4598179,169.634786 15.5620059,169.532689 L15.8073901,169.284874 C16.527361,168.554012 17.2080416,167.863057 18.2043191,167.704702 C19.2912025,167.53188 20.5417308,168.050124 22.1402192,169.335091 Z M18.5089227,162.929058 C18.431395,162.744153 18.4306746,162.540292 18.5069277,162.35511 C18.9494283,161.264027 18.6965075,160.018025 17.8618245,159.182571 C17.0070807,158.327663 15.6892768,158.087331 14.5823326,158.584734 C14.4006774,158.66721 14.1960243,158.673639 14.0073312,158.602249 C13.8192477,158.531081 13.6705098,158.391293 13.5886043,158.20855 C13.5059783,158.025862 13.4994946,157.821059 13.5708156,157.632828 C13.6419149,157.445318 13.7817861,157.296829 13.9648267,157.214741 C15.634359,156.458771 17.6280223,156.822428 18.9249342,158.120421 C20.1868783,159.382663 20.5691966,161.267408 19.8988234,162.922019 C19.7830584,163.206748 19.5098552,163.390489 19.2025154,163.390489 C19.1060907,163.390489 19.0112177,163.371921 18.9205009,163.335284 C18.7327499,163.259016 18.5868383,163.114905 18.5089227,162.929058 Z M13.0307896,155.092467 C12.6488592,155.259191 12.2045853,155.089751 12.0358975,154.716892 C11.8663785,154.337272 12.0351217,153.891194 12.4113996,153.720977 C15.5046921,152.32377 19.1946538,152.996988 21.5937995,155.39654 C23.9308233,157.734124 24.6379376,161.223374 23.3951122,164.285834 C23.2808434,164.570397 23.0073631,164.754969 22.6989149,164.754969 C22.6026011,164.754969 22.5077281,164.736401 22.4169559,164.699764 C22.2295374,164.623939 22.0834595,164.479995 22.0054331,164.294425 C21.9276838,164.109465 21.926908,163.905271 22.0033273,163.71959 C23.0168393,161.219161 22.4391225,158.369097 20.530856,156.460519 C18.5708859,154.500061 15.5567282,153.950279 13.0307896,155.092467 Z" id="icon-phone"></path>
            </g>
        </g>
    </g>
</svg>