<?xml version="1.0" encoding="UTF-8"?>
<svg width="26px" height="20px" viewBox="0 0 26 20" version="1.1" xmlns="http://www.w3.org/2000/svg" xmlns:xlink="http://www.w3.org/1999/xlink">
    <!-- Generator: Sketch 51.3 (57544) - http://www.bohemiancoding.com/sketch -->
    <title>icon mail</title>
    <desc>Created with Sketch.</desc>
    <defs></defs>
    <g id="Page-2" stroke="none" stroke-width="1" fill="none" fill-rule="evenodd">
        <g id="20.Contact-Us" transform="translate(-169.000000, -806.000000)" fill="#FBAF21">
            <g id="Group-6" transform="translate(169.000000, 598.000000)">
                <path d="M16.4105909,217.866657 L22.7693705,212.102655 C23.0652528,211.830768 23.0921512,211.36856 22.8231673,211.064047 C22.5541834,210.764971 22.0969107,210.737782 21.7957026,211.009669 L13.0267734,218.96508 L11.3160357,217.420762 C11.310656,217.415325 11.3052764,217.409887 11.3052764,217.404449 C11.2676186,217.366385 11.2299609,217.333759 11.1869234,217.301132 L4.22561992,211.004232 C3.92435794,210.732345 3.4670853,210.759533 3.19810139,211.064047 C2.92911748,211.36856 2.95601587,211.830768 3.25727785,212.102655 L9.69137292,217.915597 L3.28417624,223.978674 C2.99367362,224.255999 2.97753458,224.718207 3.25189817,225.017282 C3.39714948,225.169539 3.59081789,225.251105 3.78448631,225.251105 C3.96201569,225.251105 4.13954507,225.185906 4.2794167,225.055346 L10.7834476,218.905319 L12.547982,220.498522 C12.6878537,220.62359 12.8600034,220.683405 13.0321531,220.683405 C13.2043028,220.683405 13.3818321,220.618207 13.5163241,220.493084 L15.3292756,218.850942 L21.7957026,225.060784 C21.9355204,225.196728 22.1184833,225.26198 22.2959588,225.26198 C22.4896273,225.26198 22.677916,225.185906 22.8231673,225.033595 C23.0975309,224.739958 23.0868253,224.272312 22.7962689,223.994987 L16.4105909,217.866657 Z M22.8259744,226.531811 L3.17938979,226.531811 C2.22718676,226.531811 1.4525131,225.748831 1.4525131,224.786297 L1.4525131,211.219141 C1.4525131,210.256661 2.22718676,209.473627 3.17938979,209.473627 L22.8205947,209.473627 C23.7728516,209.473627 24.5474714,210.256661 24.5474714,211.219141 L24.5474714,224.786297 L24.5529049,224.786297 C24.5529049,225.748831 23.7781774,226.531811 22.8259744,226.531811 M22.8259744,208 L3.17938979,208 C1.42561471,208 0,209.441001 0,211.213703 L0,224.786297 C0,226.558999 1.42561471,228 3.17938979,228 L22.8205947,228 C24.5743698,228 25.9999845,226.558999 25.9999845,224.786297 L25.9999845,211.219141 C26.005418,209.446438 24.5798033,208 22.8259744,208" id="icon-mail"></path>
            </g>
        </g>
    </g>
</svg>