<?xml version="1.0" encoding="UTF-8"?>
<svg width="55px" height="50px" viewBox="0 0 55 50" version="1.1" xmlns="http://www.w3.org/2000/svg" xmlns:xlink="http://www.w3.org/1999/xlink">
    <!-- Generator: Sketch 51.3 (57544) - http://www.bohemiancoding.com/sketch -->
    <title>Combined Shape</title>
    <desc>Created with Sketch.</desc>
    <defs></defs>
    <g id="Page-2" stroke="none" stroke-width="1" fill="none" fill-rule="evenodd">
        <g id="20.Contact-Us" transform="translate(-795.000000, -335.000000)" fill="#FBAF21">
            <path d="M846.763664,382.931229 L798.236336,382.931229 C797.593833,382.931229 797.071108,382.40898 797.071108,381.767086 L797.071108,356.926324 C797.071108,356.284546 797.593833,355.762411 798.236336,355.762411 L820.411,355.762411 L815.97227,360.196246 C815.848234,360.320142 815.75722,360.474381 815.709124,360.642296 L812.830169,370.668477 C812.726384,371.029708 812.827178,371.419211 813.093315,371.685048 C813.288805,371.880432 813.548959,371.987893 813.825682,371.987893 C813.922333,371.987893 814.018295,371.974446 814.111149,371.947897 L824.148544,369.072191 C824.316764,369.024035 824.471292,368.933124 824.595329,368.809227 L837.656771,355.762411 L846.763548,355.762411 C847.406052,355.762411 847.928777,356.284546 847.928777,356.926324 L847.928892,381.767086 C847.928892,382.40898 847.406167,382.931229 846.763664,382.931229 Z M822.00863,367.532911 L815.33621,369.444914 L817.249914,362.779795 L822.00863,367.532911 Z M836.70153,342.415968 L842.395352,348.103363 L823.940743,366.537142 L818.246807,360.849862 L818.368887,360.72792 L836.70153,342.415968 Z M841.713267,337.409773 C841.933264,337.189909 842.225866,337.068771 842.537337,337.068771 C842.848464,337.068771 843.14095,337.189909 843.361063,337.409773 L847.407433,341.451346 C847.627431,341.671095 847.74859,341.963367 847.74859,342.274257 C847.74859,342.585377 847.627316,342.877648 847.407318,343.097398 L843.860085,346.640627 L838.166264,340.953117 L841.713267,337.409773 Z M847.407203,347.760636 L847.407203,347.760521 L841.46738,353.69364 L839.727879,353.69364 L847.370958,346.059073 L847.491543,346.208829 C847.864918,346.672693 847.828673,347.339756 847.407203,347.760636 Z M846.763664,353.69364 C848.548153,353.69364 850,355.143849 850,356.926324 L850,381.767086 C850,383.549792 848.548153,385 846.763664,385 L798.236336,385 C796.451847,385 795,383.549792 795,381.767086 L795,356.926324 C795,355.143849 796.451847,353.69364 798.236336,353.69364 L822.482108,353.69364 L840.248878,335.946922 C840.85997,335.33629 841.672765,335 842.537337,335 C843.40168,335 844.21436,335.336405 844.825452,335.947037 L848.871706,339.98861 C849.483143,340.599013 849.819814,341.410775 849.819814,342.274257 C849.819814,343.100156 849.507652,343.886174 848.940743,344.487726 L848.829249,344.605991 L848.940743,344.724141 C849.507652,345.325579 849.819814,346.111596 849.819814,346.93761 C849.819814,347.801092 849.483143,348.612855 848.871706,349.223487 L844.396502,353.69364 L846.763664,353.69364 Z M801.537453,363.126728 L808.800023,363.126728 C809.371074,363.126728 809.835577,362.662749 809.835577,362.092343 C809.835577,361.521937 809.371074,361.057958 808.800023,361.057958 L801.537453,361.057958 C800.966517,361.057958 800.501899,361.521937 800.501899,362.092343 C800.501899,362.662749 800.966517,363.126728 801.537453,363.126728 Z M842.912254,375.89649 L801.537499,375.89649 C800.966448,375.89649 800.501945,376.360469 800.501945,376.930875 C800.501945,377.501281 800.966448,377.965261 801.537499,377.965261 L842.912254,377.965261 C843.483305,377.965261 843.947808,377.501281 843.947808,376.930875 C843.947808,376.360469 843.483305,375.89649 842.912254,375.89649 Z M842.912254,368.449721 L834.439121,368.449721 C833.86807,368.449721 833.403567,368.9137 833.403567,369.484106 C833.403567,370.054512 833.86807,370.518491 834.439121,370.518491 L842.912254,370.518491 C843.483305,370.518491 843.947808,370.054512 843.947808,369.484106 C843.947808,368.9137 843.483305,368.449721 842.912254,368.449721 Z" id="Combined-Shape"></path>
        </g>
    </g>
</svg>