<?xml version="1.0" encoding="UTF-8"?>
<svg width="42px" height="40px" viewBox="0 0 42 40" version="1.1" xmlns="http://www.w3.org/2000/svg" xmlns:xlink="http://www.w3.org/1999/xlink">
    <!-- Generator: Sketch 51.3 (57544) - http://www.bohemiancoding.com/sketch -->
    <title>Combined Shape</title>
    <desc>Created with Sketch.</desc>
    <defs></defs>
    <g id="Page-2" stroke="none" stroke-width="1" fill="none" fill-rule="evenodd">
        <g id="20.Contact-Us" transform="translate(-272.000000, -1092.000000)" fill="#FFFFFF">
            <g id="LH-tuyển-dụng" transform="translate(170.000000, 1072.000000)">
                <path d="M116.801274,23.9375224 L116.801274,22.6875103 L118.105359,22.6875103 L118.105359,23.9375224 L116.801274,23.9375224 Z M122.082758,23.9375224 L122.082758,22.6875103 L123.386842,22.6875103 L123.386842,23.9375224 L122.082758,23.9375224 Z M127.299012,23.9375224 L127.299012,22.6875103 L128.603097,22.6875103 L128.603097,23.9375224 L127.299012,23.9375224 Z M116.801274,56.8750331 L116.801274,55.625021 L118.105359,55.625021 L118.105359,56.8750331 L116.801274,56.8750331 Z M122.082758,56.8750331 L122.082758,55.625021 L123.386842,55.625021 L123.386842,56.8750331 L122.082758,56.8750331 Z M127.299012,56.8750331 L127.299012,55.625021 L128.603097,55.625021 L128.603097,56.8750331 L127.299012,56.8750331 Z M139.231293,35.3749669 L139.231293,34.1249548 L140.535377,34.1249548 L140.535377,35.3749669 L139.231293,35.3749669 Z M139.231293,40.43754 L139.231293,39.1875278 L140.535377,39.1875278 L140.535377,40.43754 L139.231293,40.43754 Z M139.231293,45.5000336 L139.231293,44.2500215 L140.535377,44.2500215 L140.535377,45.5000336 L139.231293,45.5000336 Z M104.868994,35.3749669 L104.868994,34.1249548 L106.173078,34.1249548 L106.173078,35.3749669 L104.868994,35.3749669 Z M104.868994,40.43754 L104.868994,39.1875278 L106.173078,39.1875278 L106.173078,40.43754 L104.868994,40.43754 Z M104.868994,45.5000336 L104.868994,44.2500215 L106.173078,44.2500215 L106.173078,45.5000336 L104.868994,45.5000336 Z M133.286675,31.9374891 C136.919055,36.450117 136.575278,42.9209175 132.254516,47.062525 C129.97241,49.2499272 126.973033,50.437415 123.778051,50.437415 C121.551323,50.437415 119.419873,49.8600163 117.559769,48.7698858 L109.041997,58.3749207 C107.607538,60.0625244 104.868994,60.1874939 103.23893,58.6250184 C101.608866,57.0624635 101.739241,54.4999148 103.499763,53.0624881 L113.520534,44.8980537 C112.383082,43.1150765 111.780624,41.072004 111.780624,38.9375254 C111.780624,35.8750194 113.019479,33.0000073 115.301586,30.8125258 C117.583692,28.6250442 120.583069,27.4375564 123.778051,27.4375564 C126.571145,27.4375564 129.214578,28.3451125 131.360183,30.0348585 C131.807018,28.1240554 133.229724,26.5451553 135.09049,25.8139054 C134.354842,25.2038163 133.88458,24.3053849 133.88458,23.3124529 C133.88458,21.499959 135.449498,20.0000079 137.340395,20.0000079 C139.231293,20.0000079 140.79621,21.5000384 140.79621,23.3125322 C140.79621,24.2906266 140.358894,25.1771561 139.649404,25.7866898 C141.948811,26.6583023 143.599983,28.8190444 143.599983,31.312483 C143.599901,31.6874708 143.273921,31.9374891 142.947859,31.9374891 L133.286675,31.9374891 Z M126.749449,43.2509956 C128.555251,43.7972114 130.145664,44.825611 131.352484,46.1767096 C135.458024,42.2301339 135.509926,35.8597057 131.508521,31.8514783 C131.419286,31.8017286 131.347435,31.731825 131.296692,31.6452589 C129.280717,29.7349318 126.625944,28.6874892 123.778051,28.6874892 C120.909132,28.6874892 118.235734,29.7500075 116.214461,31.6874708 C114.193188,33.6249341 113.084708,36.1874828 113.084708,38.937446 C113.084708,41.2227609 113.850901,43.3781868 115.26955,45.1533881 C115.351915,45.2555854 115.435189,45.3568305 115.520616,45.4562507 C115.735177,45.7049201 115.962982,45.9454962 116.203948,46.1771063 C117.410686,44.8260871 119.000189,43.796656 120.805825,43.2504402 C119.377739,42.3265389 118.431338,40.7613656 118.431338,38.9999704 C118.431338,36.1874828 120.843902,33.8749524 123.778051,33.8749524 C126.712199,33.8749524 129.124763,36.1874828 129.124763,38.9999704 C129.124763,40.7617624 128.177949,42.3270943 126.749449,43.2509956 Z M119.735423,38.9375254 C119.735423,41.0625619 121.561091,42.8125313 123.778051,42.8125313 C125.995011,42.8125313 127.820679,41.0625619 127.820679,38.9375254 C127.820679,36.8124889 125.994928,35.0625195 123.778051,35.0625195 C121.561091,35.0625195 119.735423,36.8124889 119.735423,38.9375254 Z M123.778051,49.1873235 C126.207253,49.1873235 128.49623,48.4253667 130.36784,47.0156317 C128.906064,45.356037 126.783388,44.2560676 124.418504,44.0863472 C124.208248,44.110865 123.994764,44.1249885 123.778051,44.1249885 C123.562,44.1249885 123.349261,44.1110237 123.139584,44.0865852 C120.784054,44.2580513 118.668249,45.3679389 117.194966,47.0208685 C119.065418,48.427271 121.351745,49.1873235 123.778051,49.1873235 Z M108.063976,57.5625795 L116.446902,48.0322881 C116.147577,47.8088507 115.857522,47.5704168 115.577319,47.3178595 C115.566475,47.3084967 115.556045,47.2986578 115.545201,47.289295 C115.533695,47.2788214 115.522023,47.2685064 115.510517,47.2579535 C115.060867,46.8620184 114.647557,46.4225226 114.258335,45.937403 L104.347327,54.0000369 C103.173701,54.9375063 103.108472,56.6875551 104.151723,57.749994 C105.260203,58.8125916 107.085871,58.7500672 108.063976,57.5625795 Z M137.340395,26.6249771 C134.797456,26.6249771 132.841329,28.3750259 132.51535,30.6874769 L142.23067,30.6874769 C141.90469,28.3749465 139.883335,26.6249771 137.340395,26.6249771 Z M137.340395,21.2500201 C136.166769,21.2500201 135.188664,22.1874895 135.188664,23.3125322 C135.188664,24.4375749 136.166686,25.3750443 137.340395,25.3750443 C138.514104,25.3750443 139.492126,24.4375749 139.492126,23.3125322 C139.492126,22.1874895 138.579251,21.2500201 137.340395,21.2500201 Z M102.652042,31.9374811 C102.260833,31.9374811 102,31.6874628 102,31.3124751 C102,28.8449032 103.616985,26.7028867 105.879225,25.8138974 C105.143659,25.203729 104.673398,24.305377 104.673398,23.3124449 C104.673398,21.4999511 106.238315,20 108.129213,20 C110.02011,20 111.585028,21.5000304 111.585028,23.3125243 C111.585028,24.2906187 111.147629,25.1771482 110.438139,25.7866819 C112.737546,26.6582944 114.388718,28.8190365 114.388718,31.3124751 C114.388718,31.6874628 114.062739,31.9374811 113.736676,31.9374811 L102.652042,31.9374811 Z M108.12913,26.6249692 C105.58619,26.6249692 103.630147,28.3750179 103.304084,30.687469 L113.019405,30.687469 C112.693425,28.3749386 110.67207,26.6249692 108.12913,26.6249692 Z M108.129213,21.2500121 C106.955587,21.2500121 105.977482,22.1874816 105.977482,23.3125243 C105.977482,24.4375669 106.955504,25.3750364 108.129213,25.3750364 C109.302922,25.3750364 110.280944,24.4375669 110.280944,23.3125243 C110.280944,22.1874816 109.368068,21.2500121 108.129213,21.2500121 Z M139.649338,53.8491214 C141.948828,54.7208132 143.6,56.8815553 143.6,59.3749939 C143.599834,59.7499817 143.273938,60 142.947792,60 L131.863324,60 C131.472032,60 131.211282,59.7499817 131.211282,59.3749939 C131.211282,56.9073427 132.828184,54.7654055 135.090424,53.8764163 C134.354858,53.2663272 133.884597,52.3678165 133.884597,51.3749638 C133.884597,49.56247 135.449432,48.0624395 137.340412,48.0624395 C139.231309,48.0624395 140.796227,49.56247 140.796227,51.3749638 C140.796144,52.3531376 140.358911,53.2397464 139.649338,53.8491214 Z M132.515366,58.7499879 L142.230604,58.7499879 C141.904707,56.4374574 139.883434,54.6875674 137.340495,54.687488 L137.340412,54.687488 L137.340246,54.687488 C134.797389,54.6875674 132.841346,56.4375368 132.515366,58.7499879 Z M137.340412,49.312531 C136.166703,49.312531 135.188681,50.2500004 135.188681,51.3750431 C135.188681,52.4999271 136.16662,53.4375552 137.340412,53.4375552 C138.514121,53.4375552 139.492143,52.5000064 139.492143,51.3750431 C139.492143,50.2500004 138.579267,49.312531 137.340412,49.312531 Z" id="Combined-Shape"></path>
            </g>
        </g>
    </g>
</svg>