<?xml version="1.0" encoding="UTF-8"?>
<svg width="45px" height="36px" viewBox="0 0 45 36" version="1.1" xmlns="http://www.w3.org/2000/svg" xmlns:xlink="http://www.w3.org/1999/xlink">
    <!-- Generator: Sketch 51.3 (57544) - http://www.bohemiancoding.com/sketch -->
    <title>Fill 1</title>
    <desc>Created with Sketch.</desc>
    <defs></defs>
    <g id="Page-2" stroke="none" stroke-width="1" fill="none" fill-rule="evenodd">
        <g id="20.Contact-Us" transform="translate(-556.000000, -1094.000000)" fill="#FFFFFF">
            <g id="LH-làm-đai-lý" transform="translate(455.000000, 1072.000000)">
                <path d="M141.863516,56.5543673 L139.659219,56.5543673 L139.659219,40.6147593 C139.659219,40.2577563 139.36417,39.9682572 139.000039,39.9682572 L130.545576,39.9682572 C130.181357,39.9682572 129.886396,40.2577563 129.886396,40.6147593 L129.886396,56.5542811 L105.136484,56.5543673 L105.136484,37.9990079 C105.758838,38.2087612 106.4254,38.3241987 107.119385,38.3241987 C109.500869,38.3241987 111.56876,36.9831746 112.57959,35.0303918 C113.59042,36.9830884 115.658398,38.3241987 118.039795,38.3241987 C120.421279,38.3241987 122.48917,36.9831746 123.5,35.0303918 C124.51083,36.9830884 126.578896,38.3241987 128.960205,38.3241987 C131.341602,38.3241987 133.40958,36.9831746 134.42041,35.0303918 C135.43124,36.9830884 137.499307,38.3241987 139.880615,38.3241987 C140.574688,38.3241987 141.24125,38.2087612 141.863516,37.9990941 L141.863516,56.5543673 Z M131.204668,53.0989133 L138.340684,53.0989133 L138.340684,41.2613475 L131.204668,41.2613475 L131.204668,53.0989133 Z M131.204668,56.5543673 L138.340684,56.5543673 L138.340684,54.3920899 L131.204668,54.3920899 L131.204668,56.5543673 Z M122.794502,32.9682925 C122.472119,35.26006 120.463379,37.0310222 118.039795,37.0310222 C115.616299,37.0310222 113.607559,35.26006 113.285176,32.9682925 L122.794502,32.9682925 Z M133.714824,32.9682925 C133.392441,35.26006 131.383789,37.0310222 128.960205,37.0310222 C126.536621,37.0310222 124.528057,35.26006 124.205674,32.9682925 L133.714824,32.9682925 Z M102.363887,32.9682925 L104.477041,32.9682925 C104.841172,32.9682925 105.136221,32.6788796 105.136221,32.3217042 C105.136221,31.9647013 104.841172,31.6751159 104.477041,31.6751159 L102.795078,31.6751159 L107.462158,23.663801 C107.5954,23.4351673 107.844834,23.2931766 108.11334,23.2931766 L138.886836,23.2931766 C139.155254,23.2931766 139.404688,23.4351673 139.537842,23.663801 L144.204922,31.6751159 L142.52252,31.6751159 C142.158389,31.6751159 141.86334,31.9647013 141.86334,32.3217042 C141.86334,32.6788796 142.158389,32.9682925 142.52252,32.9682925 L144.636201,32.9682925 C144.313906,35.2602324 142.304287,37.0310222 139.880527,37.0310222 C137.456943,37.0310222 135.448379,35.26006 135.125996,32.9682925 L139.704746,32.9682925 C140.068789,32.9682925 140.363926,32.6788796 140.363926,32.3217042 C140.363926,31.9647013 140.068789,31.6751159 139.704746,31.6751159 L107.295693,31.6751159 C106.93165,31.6751159 106.636514,31.9647013 106.636514,32.3217042 C106.636514,32.6788796 106.93165,32.9682925 107.295693,32.9682925 L111.874092,32.9682925 C111.551709,35.26006 109.542969,37.0310222 107.119385,37.0310222 C104.695713,37.0310222 102.686182,35.2602324 102.363887,32.9682925 Z M143.931758,56.5542811 L143.181875,56.5542811 L143.181875,37.3719035 C144.875264,36.3031362 146,34.4394964 146,32.3217042 C146,32.2092841 145.970117,32.0986744 145.913164,32.0009964 L140.682529,23.022213 C140.315234,22.3917463 139.627139,22 138.886836,22 L108.11334,22 C107.372949,22 106.684941,22.3916601 106.317471,23.022213 L101.086836,32.0009964 C101.029971,32.0986744 101,32.2093703 101,32.3217042 C101,34.4394964 102.124824,36.3031362 103.818125,37.3719035 L103.818125,56.5542811 L103.06833,56.5542811 C102.704287,56.5542811 102.40915,56.843694 102.40915,57.2008693 C102.40915,57.5579585 102.704287,57.8474576 103.06833,57.8474576 L143.931758,57.8474576 C144.295977,57.8474576 144.590937,57.5579585 144.590937,57.2008693 C144.590937,56.843694 144.295889,56.5542811 143.931758,56.5542811 Z" id="Fill-1"></path>
            </g>
        </g>
    </g>
</svg>