<?xml version="1.0" encoding="UTF-8"?>
<svg width="47px" height="45px" viewBox="0 0 47 45" version="1.1" xmlns="http://www.w3.org/2000/svg" xmlns:xlink="http://www.w3.org/1999/xlink">
    <!-- Generator: Sketch 51.3 (57544) - http://www.bohemiancoding.com/sketch -->
    <title>Fill 1</title>
    <desc>Created with Sketch.</desc>
    <defs></defs>
    <g id="Page-2" stroke="none" stroke-width="1" fill="none" fill-rule="evenodd">
        <g id="20.Contact-Us" transform="translate(-840.000000, -1090.000000)" fill="#FFFFFF">
            <g id="LH-sử-dụng-dịch-vụ" transform="translate(740.000000, 1072.000000)">
                <path d="M142.756005,61.5789844 L138.582212,61.5789844 L134.80165,61.5789844 L134.013271,61.5789844 L133.351673,61.5789844 L133.147654,61.5789844 L133.147654,59.1044238 C133.147654,58.177002 132.934769,57.3982031 132.608997,56.7545801 L134.334381,56.1048926 L135.815162,57.4918066 C135.953186,57.6210937 136.138284,57.6934277 136.330785,57.6934277 C136.334624,57.6934277 136.338555,57.6934277 136.342394,57.6933398 C136.539009,57.6904395 136.726391,57.6121289 136.86277,57.4758984 L138.261742,56.0800195 L141.042869,57.1522852 C141.055848,57.1573828 141.06307,57.1600195 141.076506,57.1644141 C141.145061,57.187793 142.756005,57.7619824 142.756005,59.7429492 L142.756005,61.5789844 Z M132.156262,49.7366895 L132.156262,50.7256348 C131.987069,50.6208691 131.874639,50.438584 131.874639,50.2313379 C131.874639,50.023916 131.98716,49.841543 132.156262,49.7366895 Z M131.748498,55.5524121 C131.135437,54.9222363 130.4434,54.5397363 129.942859,54.373623 L126.120981,52.8997852 L126.120981,52.1709961 C127.169502,51.6102539 127.968119,50.6690332 128.314823,49.5424512 C129.622572,49.5076465 130.675572,48.474668 130.675572,47.2092187 C130.675572,46.4506348 130.29715,45.7756348 129.71279,45.3488379 L129.71279,43.6834863 C129.71279,42.7994824 129.50548,41.9613574 129.136473,41.2105078 L135.71617,41.2105078 C135.706572,41.6912695 135.687011,42.1713281 135.658584,42.6476074 C133.144272,42.8874609 131.174102,44.9325879 131.174102,47.4119824 L131.174102,48.6694336 C130.700252,49.0381348 130.396417,49.6009863 130.396417,50.23125 C130.396417,51.2934082 131.258652,52.1634375 132.345198,52.2338379 C132.639161,53.1006152 133.257707,53.8271191 134.062539,54.2809863 L134.062539,54.6811523 L131.748498,55.5524121 Z M123.88098,51.3084375 L123.038031,51.3084375 C121.302958,51.3084375 119.891371,49.9512305 119.891371,48.2828906 L119.891371,45.7743164 C121.070695,45.6699023 123.402651,45.2757129 125.106006,43.8053906 C125.465507,44.4595605 126.06824,45.2190234 127.027366,45.6129492 L127.027366,48.2828027 C127.027274,49.9512305 125.61587,51.3084375 123.88098,51.3084375 Z M124.643216,53.3916211 L124.643216,53.3942578 L124.643216,53.4373242 L123.432449,54.6453809 L122.27552,53.5618652 L122.27552,52.6678418 C122.523688,52.7076562 122.778163,52.7293652 123.038031,52.7293652 L123.88098,52.7293652 C124.140756,52.7293652 124.395048,52.7076562 124.643216,52.6680176 L124.643216,53.3916211 Z M114.741909,50.7100781 L114.741909,49.7522461 C114.897573,49.8591211 114.999674,50.0337598 114.999674,50.23125 C114.999674,50.4287402 114.897573,50.603291 114.741909,50.7100781 Z M120.797664,52.8957422 L116.875605,54.3725684 C116.376161,54.5378027 115.684947,54.9189844 115.071794,55.5475781 L112.835357,54.6851953 L112.835357,54.2810742 C113.640555,53.8270312 114.259192,53.0999121 114.553155,52.2325195 C115.628275,52.1508691 116.47753,51.2854102 116.47753,50.2311621 C116.47753,49.6041504 116.176895,49.0437598 115.707524,48.6747949 L115.707524,47.4119824 C115.707524,44.9054297 113.693845,42.8439551 111.140594,42.6413672 C111.112441,42.167373 111.092971,41.689248 111.083556,41.2104199 L117.761697,41.2104199 C117.392781,41.9612695 117.185472,42.7993066 117.185472,43.6833984 L117.185472,45.3413672 C116.595262,45.7677246 116.212727,46.4461523 116.212727,47.2091309 C116.212727,48.4844238 117.281905,49.5236426 118.60364,49.5431543 C118.950435,50.6693848 119.749234,51.6103418 120.797481,52.1709961 L120.797481,52.8957422 L120.797664,52.8957422 Z M113.668159,59.1045117 L113.668159,61.5789844 L112.802177,61.5789844 L109.021523,61.5789844 L108.233327,61.5789844 L107.571728,61.5789844 L104.059991,61.5789844 L104.059991,59.7428613 C104.059991,57.7618945 105.67057,57.187793 105.733183,57.1664355 C105.744609,57.1627441 105.756034,57.1587891 105.767277,57.1544824 L108.554345,56.1049805 L110.035309,57.4918945 C110.173333,57.6211816 110.358339,57.6934277 110.550841,57.6934277 C110.55468,57.6934277 110.55861,57.6934277 110.562541,57.6933398 C110.759155,57.6904395 110.946538,57.6121289 111.082825,57.4758984 L112.481706,56.0800195 L114.210838,56.7466699 C113.882964,57.391875 113.668159,58.1733105 113.668159,59.1045117 Z M106.376226,49.7366895 L106.376226,50.7256348 C106.207124,50.6208691 106.094603,50.438584 106.094603,50.2313379 C106.094603,50.023916 106.207124,49.8416309 106.376226,49.7366895 Z M101.491659,41.2105078 L109.605334,41.2105078 C109.614566,41.6998828 109.634219,42.1886426 109.66228,42.6733594 C107.25272,43.0066406 105.394614,45.0042187 105.394614,47.4119824 L105.394614,48.6692578 C104.920673,49.0380469 104.616747,49.6008984 104.616747,50.2311621 C104.616747,51.2932324 105.478982,52.1632617 106.565528,52.23375 C106.859491,53.1005273 107.477945,53.8270312 108.282686,54.2808984 L108.282686,54.6810645 L107.475477,54.9849902 C103.777089,51.2275781 101.669352,46.3646777 101.491659,41.2105078 Z M112.797606,46.2952441 C112.73353,46.0230469 112.509494,45.8121094 112.224946,45.7562109 C111.940398,45.7001367 111.648264,45.8096484 111.478248,46.0358789 C110.139147,47.8155762 107.153819,47.8350879 107.117805,47.8350879 L107.115337,47.8350879 C107.089926,47.8350879 107.064698,47.8363184 107.039927,47.8386914 C107.032157,47.8395703 107.024662,47.8410645 107.016892,47.8421191 C107.000165,47.8442285 106.983163,47.84625 106.96671,47.8494141 C106.956198,47.8515234 106.945961,47.8546875 106.935449,47.8571484 C106.922287,47.8603125 106.908941,47.863125 106.896053,47.8669043 C106.888101,47.8692773 106.880605,47.8725293 106.872745,47.875166 L106.872745,47.4120703 C106.872745,45.555293 108.443652,44.0447168 110.374701,44.0447168 L110.728169,44.0447168 C112.659126,44.0447168 114.229851,45.555293 114.229851,47.4120703 L114.229851,47.8694531 L114.229668,47.8694531 C114.2155,47.8649707 114.200784,47.8616309 114.186341,47.8580273 C114.179852,47.8564453 114.173545,47.854248 114.166963,47.8527539 C113.136998,47.6274902 112.800074,46.3052637 112.797606,46.2952441 Z M110.896265,53.3665723 L110.222235,53.3665723 C108.916497,53.3665723 107.854265,52.3451953 107.854265,51.0897656 L107.854265,49.2106641 C108.816681,49.1105566 110.521042,48.7865039 111.835464,47.7310254 C112.129792,48.2163574 112.584995,48.7412402 113.264052,49.0477148 L113.264052,51.0898535 C113.263961,52.3451953 112.20182,53.3665723 110.896265,53.3665723 Z M109.760634,54.7600781 C109.912094,54.7775684 110.06593,54.7875879 110.222235,54.7875879 L110.896265,54.7875879 C111.052387,54.7875879 111.206223,54.7775684 111.357592,54.7599902 L111.357592,55.1538281 L110.534387,55.9752539 L109.760634,55.2507715 L109.760634,54.7600781 Z M104.999008,29.0554102 C106.664064,29.709668 108.690084,30.2620605 110.959792,30.6955371 C110.130463,33.5051367 109.665662,36.5905371 109.605517,39.7894922 L101.49175,39.7894922 C101.628402,35.8426758 102.898492,32.1673535 104.999008,29.0554102 Z M117.350095,20.2378711 C115.940793,21.3505664 114.647486,22.8616699 113.522823,24.7376953 C112.687096,26.1317285 111.97623,27.6764941 111.39772,29.3336719 C109.304425,28.9408887 107.429957,28.4442188 105.868738,27.8586914 C108.698859,24.238916 112.711593,21.5203711 117.350095,20.2378711 Z M122.661072,19.4604785 L122.661072,30.3609375 C119.197506,30.3271875 115.851306,30.0561328 112.867258,29.5861816 C113.401345,28.0953809 114.049049,26.7056543 114.803334,25.4474121 C116.953757,21.8604199 119.720441,19.7624707 122.661072,19.4604785 Z M118.413515,46.3229297 L118.413515,48.095332 C117.99917,47.9968066 117.690857,47.6375098 117.690857,47.2091309 C117.690766,46.7808398 117.99917,46.421543 118.413515,46.3229297 Z M111.083648,39.7894922 C111.14425,36.6699023 111.602287,33.6692285 112.41827,30.9520898 C115.540342,31.4566699 119.043395,31.7472363 122.661072,31.7822168 L122.661072,37.8995801 C121.11201,38.0390625 119.731136,38.7423633 118.743491,39.7942383 C118.716618,39.7914258 118.689287,39.7895801 118.661591,39.7895801 L111.083648,39.7895801 L111.083648,39.7894922 Z M123.670288,39.2941406 C126.187342,39.2941406 128.235116,41.2632422 128.235116,43.6835742 L128.235116,44.5518457 C128.230089,44.5480664 128.224879,44.5447266 128.219943,44.5409473 C128.209157,44.5328613 128.19828,44.5249512 128.187037,44.5174805 C128.178445,44.5116797 128.169395,44.5063184 128.160438,44.5008691 C128.149377,44.4941016 128.138409,44.4874219 128.126891,44.4812695 C128.11638,44.4755566 128.105502,44.4705469 128.094716,44.4653613 C128.084387,44.4604395 128.07415,44.4554297 128.063547,44.4508594 C128.050567,44.4453223 128.037222,44.440752 128.023877,44.435918 C128.014736,44.4325781 128.005504,44.4291504 127.99618,44.4261621 C127.981281,44.421416 127.965925,44.4176367 127.95066,44.4138574 C127.943896,44.4120117 127.937223,44.4098145 127.930368,44.4082324 C126.526551,44.1013184 126.081859,42.3414844 126.078112,42.3261914 C126.014036,42.0539062 125.790091,41.8429687 125.505452,41.7870703 C125.220995,41.7308203 124.928861,41.8405078 124.758662,42.0667383 C123.028251,44.3670117 119.205733,44.3905664 119.155277,44.3905664 L119.155094,44.3905664 L119.152443,44.3905664 C119.127032,44.3905664 119.101804,44.3917969 119.077033,44.3941699 C119.069263,44.3950488 119.061768,44.396543 119.053998,44.3975977 C119.037271,44.3997949 119.02027,44.4017285 119.003816,44.4048926 C118.993305,44.407002 118.983067,44.410166 118.972555,44.412627 C118.959393,44.415791 118.945956,44.4186035 118.933159,44.4223828 C118.921185,44.4259863 118.909668,44.4306445 118.897968,44.4347754 C118.887273,44.4384668 118.876122,44.4418945 118.865519,44.4461133 C118.851991,44.4516504 118.839102,44.4581543 118.826214,44.4641309 C118.817805,44.4681738 118.809304,44.4715137 118.801077,44.4759082 C118.787732,44.4827637 118.775301,44.4906738 118.762504,44.4982324 C118.755191,44.5027148 118.747513,44.5066699 118.740201,44.5113281 C118.728318,44.5190625 118.717075,44.5276758 118.705558,44.5361133 C118.698154,44.5414746 118.690476,44.5463965 118.683255,44.5520215 C118.676491,44.5574707 118.670184,44.5635352 118.663511,44.5691602 L118.663511,43.6834863 C118.663511,41.2631543 120.711194,39.2941406 123.228248,39.2941406 L123.670288,39.2941406 Z M124.138837,19.4604785 C127.079559,19.7624707 129.846334,21.8604199 131.996666,25.4474121 C132.751316,26.7060938 133.399295,28.0966992 133.933473,29.5883789 C130.954178,30.0574512 127.61072,30.3274512 124.138837,30.3609375 L124.138837,19.4604785 Z M129.197898,47.2091309 C129.197898,47.6270508 128.904302,47.9794043 128.50513,48.0877734 L128.50513,46.3302246 C128.904302,46.4387695 129.197898,46.7912109 129.197898,47.2091309 Z M135.716352,39.7895801 L128.153308,39.7895801 C128.152485,39.7894922 128.151845,39.7895801 128.151023,39.7895801 C127.142903,38.7180176 125.725832,38.0100586 124.138928,37.8922852 L124.138928,31.7821289 C127.765105,31.7474121 131.264411,31.4574609 134.382187,30.953584 C135.197896,33.670459 135.65575,36.6705176 135.716352,39.7895801 Z M141.807665,29.0520703 C143.948125,32.2316016 145.173791,35.9330273 145.30825,39.7894043 L137.194391,39.7894043 C137.134429,36.5911523 136.669628,33.5064551 135.840939,30.697207 C138.11275,30.263291 140.138404,29.7087891 141.807665,29.0520703 Z M140.521853,50.7099902 L140.521853,49.7525098 C140.677335,49.8592969 140.779345,50.0339355 140.779345,50.2313379 C140.779345,50.4287402 140.677335,50.6032031 140.521853,50.7099902 Z M132.897566,47.835 L132.895098,47.835 C132.869687,47.835 132.844459,47.8363184 132.819688,47.8386914 C132.811736,47.8394824 132.803966,47.8410645 132.796014,47.8421191 C132.779378,47.8442285 132.762742,47.8461621 132.746472,47.8494141 C132.73532,47.8515234 132.724626,47.8547754 132.713657,47.8575 C132.700952,47.8605762 132.688155,47.8632129 132.675815,47.8669043 C132.667771,47.8692773 132.660184,47.8725293 132.652232,47.875166 L132.652232,47.4120703 C132.652232,45.555293 134.223231,44.0448047 136.15428,44.0448047 L136.507748,44.0448047 C138.438705,44.0448047 140.009338,45.555293 140.009338,47.4120703 L140.009338,47.8693652 C139.995445,47.8650586 139.981368,47.8617188 139.967109,47.858291 C139.960345,47.8564453 139.95358,47.8543359 139.946816,47.852666 C138.916577,47.6274023 138.579745,46.3054395 138.577185,46.2954199 C138.513109,46.0231348 138.289073,45.8121973 138.004616,45.7562988 C137.719977,45.7002246 137.427934,45.8097363 137.257736,46.0359668 C135.91964,47.8146094 132.936688,47.835 132.897566,47.835 Z M137.137628,54.7599902 L137.137628,55.1538281 L136.314241,55.9753418 L135.540578,55.2508594 L135.540578,54.7599023 C135.692038,54.7773926 135.845875,54.7875 136.00218,54.7875 L136.676118,54.7875 C136.832423,54.7875879 136.986077,54.7774805 137.137628,54.7599902 Z M136.676027,53.3665723 L136.002088,53.3665723 C134.69635,53.3665723 133.634118,52.3451953 133.634118,51.0898535 L133.634118,49.209873 C134.596717,49.1094141 136.301809,48.7858887 137.615317,47.7310254 C137.909554,48.2162695 138.364848,48.7410645 139.044088,49.0475391 L139.044088,51.0897656 C139.043997,52.3451953 137.981765,53.3665723 136.676027,53.3665723 Z M139.343809,54.9660938 L138.615393,54.6851953 L138.615393,54.2808984 C139.420408,53.8269434 140.039137,53.0998242 140.333099,52.2325195 C141.408128,52.1508691 142.257292,51.2854102 142.257292,50.2311621 C142.257292,49.6041504 141.956748,49.0437598 141.487377,48.6747949 L141.487377,47.4119824 C141.487377,44.9772363 139.587224,42.9625195 137.138268,42.6635156 C137.166147,42.1817871 137.185525,41.6964551 137.194757,41.2105078 L145.308433,41.2105078 C145.13083,46.3536035 143.029766,51.211582 139.343809,54.9660938 Z M141.579698,55.8282129 L140.810788,55.5317578 C144.677547,51.3958008 146.8,46.0833398 146.8,40.5 C146.8,35.9322363 145.363825,31.5371777 142.747138,27.8425195 C142.715512,27.7824902 142.676116,27.7284375 142.630413,27.6812402 C141.484087,26.0926172 140.119483,24.6355664 138.553511,23.3547363 C138.242638,23.1004688 137.776375,23.1366797 137.511937,23.4355957 C137.247498,23.7345117 137.285158,24.1830176 137.595939,24.4371973 C138.852227,25.4647266 139.970399,26.6132813 140.940402,27.8563184 C139.376259,28.4441309 137.498774,28.9419434 135.40292,29.3352539 C134.824319,27.6776367 134.113087,26.132168 133.277085,24.7377832 C132.150412,22.8582422 130.854271,21.3447656 129.44177,20.2316309 C131.640273,20.8359668 133.734391,21.7723535 135.656207,23.0206641 C135.99441,23.240127 136.453635,23.1547852 136.682151,22.8295898 C136.910575,22.5044824 136.821637,22.062832 136.483434,21.8431055 C132.613384,19.3289063 128.089141,18 123.4,18 C117.149549,18 111.273407,20.3403516 106.853823,24.5902148 C102.433966,28.8398145 100,34.490127 100,40.5 C100,46.0905469 102.125378,51.4037109 105.998444,55.5411621 L105.239223,55.8270703 C104.959612,55.9241895 102.582044,56.8360547 102.582044,59.7428613 L102.582044,62.2887891 C102.582044,62.6813086 102.912752,63 103.320972,63 L107.571728,63 L108.233418,63 L109.021614,63 L112.802359,63 L114.197767,63 C114.233416,63 114.268241,62.996748 114.302519,62.992002 C114.336888,62.996748 114.371622,63 114.40727,63 L117.413987,63 C117.822208,63 118.152916,62.6820117 118.152916,62.2894922 C118.152916,61.8969727 117.822116,61.5789844 117.413987,61.5789844 L115.146198,61.5789844 L115.146198,59.1044238 C115.146198,56.4937207 117.278889,55.7427832 117.364994,55.7136035 C117.37642,55.7099121 117.387754,55.705957 117.399088,55.7016504 L120.99757,54.3465527 C121.005339,54.3546387 121.012652,54.3630762 121.020878,54.3708105 L122.93328,56.1618457 C123.071395,56.2910449 123.256492,56.3633789 123.448902,56.3633789 C123.452741,56.3633789 123.456672,56.3633789 123.460511,56.363291 C123.657217,56.3603906 123.8446,56.2820801 123.980978,56.1458496 L125.817238,54.3138574 L129.410784,55.699541 C129.423946,55.7046387 129.432447,55.7078027 129.445792,55.7120215 C129.536559,55.7426953 131.669523,56.4938965 131.669523,59.1044238 L131.669523,61.5789844 L126.264672,61.5789844 L120.550776,61.5789844 L119.723458,61.5789844 C119.315237,61.5789844 118.98453,61.8970605 118.98453,62.2894922 C118.98453,62.6820117 119.315329,63 119.723458,63 L120.550776,63 L126.264672,63 L132.408543,63 L132.408634,63 L132.408726,63 L133.35149,63 L134.01318,63 L134.801559,63 L138.58203,63 L143.494659,63 C143.902879,63 144.233587,62.6769141 144.233587,62.2844824 L144.233587,59.7428613 C144.23377,56.8472168 141.874209,55.9311328 141.579698,55.8282129 Z" id="Fill-1"></path>
            </g>
        </g>
    </g>
</svg>