<?xml version="1.0" encoding="UTF-8"?>
<svg width="43px" height="40px" viewBox="0 0 43 40" version="1.1" xmlns="http://www.w3.org/2000/svg" xmlns:xlink="http://www.w3.org/1999/xlink">
    <!-- Generator: Sketch 51.3 (57544) - http://www.bohemiancoding.com/sketch -->
    <title>Fill 1</title>
    <desc>Created with Sketch.</desc>
    <defs></defs>
    <g id="Page-2" stroke="none" stroke-width="1" fill="none" fill-rule="evenodd">
        <g id="20.Contact-Us" transform="translate(-1127.000000, -1092.000000)" fill="#FFFFFF">
            <g id="Lh-hỗ-trợ-khách-hàng" transform="translate(1025.000000, 1072.000000)">
                <path d="M124.050346,58.3962078 L124.050346,54.1141616 C127.106942,53.9087498 129.326996,52.5340707 129.326996,50.7248667 L129.326996,49.3422872 C132.42381,49.9743235 142.196874,52.4550662 142.856455,58.3962078 L124.050346,58.3962078 Z M118.773796,50.7327671 L118.773796,50.7090658 L118.773796,48.0071104 C120.110755,48.6161367 121.571285,48.9187241 123.044886,48.8919613 L123.44707,48.8919613 C124.920671,48.9187241 126.381302,48.6161367 127.718261,48.0071104 L127.718261,50.7327671 C127.718261,51.4833103 125.972784,52.5656725 123.245978,52.5656725 C120.519173,52.5656725 118.773796,51.4833103 118.773796,50.7327671 Z M122.441611,58.3725064 L103.635501,58.3725064 C104.270951,52.4392653 114.092277,49.9585226 117.165061,49.3185858 L117.165061,50.7327671 C117.165061,52.5261703 119.385115,53.8929488 122.441611,54.122062 L122.441611,58.3725064 Z M125.65908,43.3616433 C125.65908,43.7499506 125.33864,44.0647837 124.943193,44.0647837 C124.547847,44.0647837 124.227407,43.7499506 124.227407,43.3616433 C124.227407,42.973336 124.547847,42.6585029 124.943193,42.6585029 C125.33864,42.6585029 125.65908,42.973336 125.65908,43.3616433 Z M115.258711,38.8267825 L115.290785,38.834683 C115.292494,38.6399368 115.221006,38.4514122 115.089693,38.3053526 C113.98771,37.0649812 113.480958,35.9352163 113.617701,35.0029627 C113.683357,34.4837053 113.944374,34.0074067 114.349775,33.6677859 C115.41154,33.6677859 119.17598,33.4702745 121.589082,31.4240569 C124.306738,32.9586214 127.38284,33.7752321 130.517459,33.7941932 C131.056486,33.7941932 131.603355,33.7941932 132.174557,33.7072882 C132.568797,34.0379222 132.826195,34.4987162 132.898387,35.0029627 C133.035129,35.9194154 132.528378,37.0649812 131.426395,38.3053526 C131.295283,38.4514122 131.223694,38.6399368 131.225303,38.834683 L131.225303,39.2455066 L126.543985,41.7104484 C125.614941,40.8465337 124.148679,40.8859372 123.269003,41.7984397 C122.389427,42.7109421 122.429545,44.1510962 123.35859,45.0150109 C124.287634,45.8789255 125.753895,45.839522 126.633471,44.9270196 C127.041084,44.5041477 127.268117,43.9439068 127.267815,43.3616433 C127.271435,43.2905392 127.271435,43.2194351 127.267815,43.148331 L130.959962,41.2048193 C130.642941,42.7626901 129.897393,44.2054118 128.804157,45.3762591 C127.378315,46.7246692 125.448034,47.4338337 123.471201,47.3355718 L123.069017,47.3355718 C121.096507,47.4317598 119.17045,46.7260517 117.744105,45.3841596 C115.202304,42.8955165 115.258711,38.8662848 115.258711,38.8267825 Z M131.595312,32.1983014 C128.220186,32.3898874 124.865974,31.5628086 121.983121,29.8281651 C121.65685,29.6031009 121.212035,29.6468497 120.937544,29.930871 C119.32881,31.6294687 116.392768,32.0244914 114.977081,32.1113964 C115.41154,26.5257752 118.854132,25.3091053 121.749855,25.3091053 C122.210757,25.3058463 122.671057,25.3428797 123.125323,25.4197116 C123.2315,25.4410429 123.340894,25.4410429 123.44707,25.4197116 C123.901437,25.3430772 124.361736,25.3060438 124.822639,25.3091053 C127.69413,25.3091053 131.15301,26.557377 131.555194,32.1904009 L131.595312,32.1983014 Z M113.296054,38.6766739 C112.612442,38.4512147 112.016708,38.0235039 111.590795,37.4521035 L111.630913,37.460004 C110.826546,36.3065376 110.754153,34.5605372 111.47004,32.2536046 L112.057228,31.8664823 C112.304269,31.704523 112.440308,31.4220818 112.411149,31.1317401 C112.275915,28.7704918 113.05776,26.4466719 114.599029,24.6296662 C116.417,22.6071499 119.336753,21.5958918 123.245978,21.5800909 C127.155204,21.5642899 130.075057,22.6071499 131.925102,24.6296662 C133.466371,26.4466719 134.248417,28.7704918 134.112982,31.1317401 C134.083823,31.4220818 134.219962,31.704523 134.467004,31.8664823 L135.054091,32.2536046 C135.770079,34.5526368 135.721716,36.3065376 134.893318,37.460004 C134.464289,38.0318981 133.86594,38.4596089 133.180016,38.6845744 C134.150184,37.600237 134.624258,36.1720324 134.491135,34.7343472 C134.340416,33.8693462 133.881223,33.0853249 133.196003,32.52222 C132.850225,24.6217658 127.211509,23.7369149 124.78232,23.7369149 C124.268128,23.7354335 123.75464,23.7724669 123.245978,23.8475212 C122.737517,23.7723682 122.223828,23.7354335 121.709636,23.7369149 C119.296534,23.7369149 113.665963,24.6059648 113.296054,32.52222 C112.606309,33.0807821 112.141686,33.8621371 111.984835,34.7264468 C111.850807,36.1642307 112.324881,37.5928303 113.296054,38.6766739 Z M129.326996,47.7305945 L129.326996,47.0037527 C129.536232,46.8378432 129.737324,46.6561327 129.930271,46.4665218 C131.476064,44.7948845 132.449248,42.6895121 132.713382,40.4463757 C134.102625,40.238495 135.354724,39.5073079 136.204337,38.4080585 C137.37067,36.7884653 137.475338,34.4578313 136.502053,31.5346632 C136.444742,31.3660873 136.331527,31.2213115 136.180306,31.1238396 L135.737804,30.8315228 C135.803159,28.1939562 134.875019,25.6255185 133.131653,23.6184081 C130.968006,21.2245704 127.645968,20.0158009 123.245978,20 C118.854132,20 115.524051,21.2245704 113.360303,23.5868062 C111.616937,25.5939167 110.688898,28.1623543 110.754153,30.799921 L110.311751,31.0922378 C110.160529,31.1897097 110.047214,31.3344855 109.990004,31.5030614 C109.016719,34.4420304 109.121387,36.7568635 110.28762,38.3764566 C111.134116,39.483409 112.386214,40.2230891 113.778574,40.4384752 C114.043915,42.6851669 115.020115,44.7935019 116.569729,46.4665218 C116.761269,46.6557377 116.962562,46.835078 117.173004,47.0037527 L117.173004,47.7305945 C114.092277,48.3152281 101.7935,51.1514912 102.002635,59.2099546 C102.002635,59.6462572 102.362791,60 102.807003,60 L143.692997,60 C144.137209,60 144.497365,59.6462572 144.497365,59.2099546 C144.7065,51.1514912 132.407723,48.3152281 129.326996,47.7305945 Z" id="Fill-1"></path>
            </g>
        </g>
    </g>
</svg>