<?xml version="1.0" encoding="UTF-8"?>
<svg width="40px" height="40px" viewBox="0 0 40 40" version="1.1" xmlns="http://www.w3.org/2000/svg" xmlns:xlink="http://www.w3.org/1999/xlink">
    <!-- Generator: Sketch 51.3 (57544) - http://www.bohemiancoding.com/sketch -->
    <title>icon control the budget</title>
    <desc>Created with Sketch.</desc>
    <defs></defs>
    <g id="Page-2" stroke="none" stroke-width="1" fill="none" fill-rule="evenodd">
        <g id="05.Google-adwordS-&amp;-GDN" transform="translate(-600.000000, -1249.000000)" fill="#FBAF21">
            <g id="Group" transform="translate(-240.000000, 931.000000)">
                <g id="Brief-analytis" transform="translate(410.000000, 0.000000)">
                    <g id="Group-20" transform="translate(430.000000, 318.000000)">
                        <g id="icon-control-the-budget">
                            <path d="M23.7476297,19.4702409 C22.9959306,19.0713052 22.040941,18.6807371 20.9092688,18.3093121 C19.9571687,17.9982061 19.2214223,17.7253261 18.7223162,17.4981369 C18.2386812,17.2785326 17.8429962,16.9855463 17.546097,16.6271845 C17.2578664,16.2802603 17.1118248,15.8158286 17.1118248,15.2468321 C17.1118248,14.5723677 17.3724845,14.042741 17.908733,13.6276721 C18.4498576,13.2085699 19.2559762,12.996069 20.3049357,12.996069 C21.2209166,12.996069 22.0206541,13.136452 22.6818748,13.4132449 C23.3554362,13.6958168 24.1682368,14.1346641 25.0975216,14.7176267 C25.1235274,14.7339405 25.1531451,14.7421275 25.182823,14.7421275 C25.2095511,14.7421275 25.2362792,14.7355057 25.2605393,14.7220814 C25.3115876,14.6938483 25.3433122,14.6400308 25.3433122,14.5816382 L25.3433122,11.5883263 C25.3433122,11.526984 25.3083369,11.4709392 25.2531348,11.4440906 C24.491503,11.0728462 23.8236604,10.7860002 23.2680882,10.591559 C22.7437589,10.4080136 22.1557998,10.2838843 21.5185983,10.2220604 L21.5185983,8.23478633 C21.5185983,8.14611388 21.4467213,8.07423683 21.358109,8.07423683 L18.8637226,8.07423683 C18.7749899,8.07423683 18.7031731,8.14611388 18.7031731,8.23478633 L18.7031731,10.2565541 C17.5985902,10.4161404 16.6622621,10.7540348 15.9185092,11.2618094 C15.1405636,11.7930013 14.5628984,12.4435669 14.201346,13.1956272 C13.841419,13.943895 13.6589572,14.7365893 13.6589572,15.5516774 C13.6589572,16.6501201 13.891444,17.5653786 14.3499762,18.2720492 C14.8056791,18.9747467 15.379311,19.5239379 16.0549191,19.9043325 C16.7153572,20.276841 17.5677685,20.6443531 18.5883143,20.9966349 L19.1968612,21.2179247 C20.0909901,21.5464883 20.7948916,21.8335149 21.2885195,22.070938 C21.7660745,22.3009566 22.1689833,22.5961702 22.4859888,22.9482714 C22.7939043,23.2906807 22.9436783,23.7179699 22.9436783,24.2543388 C22.9436783,25.060638 22.6821156,25.6634059 22.1442417,26.0971966 C21.6034181,26.5333349 20.7794205,26.7545044 19.6951847,26.7545044 C18.5725422,26.7545044 17.4851159,26.5756545 16.4632458,26.2228309 C15.4417368,25.8703083 14.5678347,25.3994353 13.8658596,24.8231548 C13.8366031,24.7991355 13.800484,24.7866745 13.7640037,24.7866745 C13.7407069,24.7866745 13.7172896,24.7917311 13.6954376,24.8020853 C13.6392723,24.8286328 13.6035144,24.8851593 13.6035144,24.9472239 L13.6035144,27.9959185 C13.6035144,28.0557559 13.636744,28.1105967 13.6897187,28.1382279 C14.5448389,28.5845398 15.370221,28.928755 16.1428692,29.1612418 C16.8800002,29.383254 17.7406587,29.5268275 18.7031731,29.5884106 L18.7031731,31.7652498 C18.7031731,31.8539222 18.7749899,31.9257391 18.8637226,31.9257391 L21.358109,31.9257391 C21.4467213,31.9257391 21.5185983,31.8539222 21.5185983,31.7652498 L21.5185983,29.4914909 C22.2893804,29.3655556 22.9775098,29.1484797 23.5654689,28.8455607 C24.1925571,28.5225353 24.7229061,28.0931994 25.1418879,27.5696527 C25.9744337,26.5290608 26.3965458,25.2924625 26.3965458,23.8940506 C26.3965458,22.7942835 26.1444343,21.8730052 25.647375,21.1557998 C25.1542286,20.4450357 24.5151008,19.8779655 23.7476297,19.4702409 M32.8651493,32.8651493 C29.4287761,36.3015224 24.8598277,38.194044 20,38.194044 C15.1402325,38.194044 10.5712841,36.3015224 7.13491094,32.8651493 C3.69847758,29.4287761 1.80595604,24.8598277 1.80595604,20 C1.80595604,15.1402325 3.69847758,10.5712841 7.13491094,7.13485074 C10.5712841,3.69847758 15.1402325,1.80595604 20,1.80595604 C24.8598277,1.80595604 29.4287761,3.69847758 32.8651493,7.13491094 C36.3015224,10.5712841 38.194044,15.1402325 38.194044,20 C38.194044,24.8598277 36.3015224,29.4287761 32.8651493,32.8651493 M34.1421408,5.85785922 C30.3646225,2.08040116 25.3421986,0 20,0 C14.6578014,0 9.63537747,2.08040116 5.85785922,5.85785922 C2.08040116,9.63537747 0,14.6578014 0,20 C0,25.3421986 2.08040116,30.3646225 5.85785922,34.1421408 C9.63537747,37.919659 14.6578014,40 20,40 C25.3421986,40 30.3646225,37.919659 34.1421408,34.1421408 C37.919659,30.3646225 40,25.3421986 40,20 C40,14.6578014 37.919659,9.63537747 34.1421408,5.85785922" id="Fill-3"></path>
                        </g>
                    </g>
                </g>
            </g>
        </g>
    </g>
</svg>