<?xml version="1.0" encoding="UTF-8"?>
<svg width="40px" height="40px" viewBox="0 0 40 40" version="1.1" xmlns="http://www.w3.org/2000/svg" xmlns:xlink="http://www.w3.org/1999/xlink">
    <!-- Generator: Sketch 51.3 (57544) - http://www.bohemiancoding.com/sketch -->
    <title>Fill 3</title>
    <desc>Created with Sketch.</desc>
    <defs></defs>
    <g id="Page-2" stroke="none" stroke-width="1" fill="none" fill-rule="evenodd">
        <g id="01.-Home" transform="translate(-700.000000, -3196.000000)" fill="#FBAF21">
            <g id="Our-service" transform="translate(0.000000, 2660.000000)">
                <g id="Web-mana" transform="translate(550.000000, 486.000000)">
                    <g id="Group-2" transform="translate(32.000000, 50.000000)">
                        <path d="M156.333363,30.8325036 L154.449148,30.8325036 C154.069305,30.8325817 153.73743,31.0896129 153.642509,31.4575033 C153.506493,31.9839094 153.297509,32.4889092 153.02165,32.9575028 C152.828135,33.2850026 152.880947,33.7019556 153.150009,33.9708617 L154.483366,35.3041425 L153.305009,36.4825014 L151.971652,35.1492206 C151.702825,34.8801582 151.285794,34.8273458 150.958295,35.0207832 C150.489702,35.2967206 149.984781,35.5056268 149.458298,35.6417205 C149.090408,35.7366423 148.833377,36.068439 148.833299,36.4483608 L148.833299,38.33336 L147.166662,38.33336 L147.167521,36.4499233 C147.167443,36.0700797 146.910412,35.7382829 146.542522,35.6433611 C146.016039,35.5073455 145.511118,35.2983612 145.042525,35.0225019 C144.715026,34.8289083 144.298074,34.8817989 144.029168,35.1507831 L142.695811,36.4842201 L141.517376,35.3058612 L142.850811,33.9724242 C143.119873,33.7035962 143.172685,33.2866432 142.97917,32.9591434 C142.703311,32.4905498 142.494327,31.9856281 142.358312,31.459144 C142.263312,31.0912535 141.931594,30.8341442 141.551673,30.8341442 L139.666676,30.8341442 L139.666676,29.1675042 L141.550813,29.1675042 C141.930735,29.1674261 142.262531,28.9103168 142.357452,28.5425045 C142.493468,28.0160203 142.702452,27.5110205 142.978311,27.0424269 C143.171826,26.7150052 143.118935,26.2980522 142.849951,26.0291461 L141.516595,24.6957091 L142.694952,23.5174283 L144.028309,24.8507872 C144.297214,25.1198496 144.714167,25.172662 145.041666,24.9791465 C145.510259,24.7032872 146.01518,24.4943029 146.541663,24.3582874 C146.909553,24.2632874 147.166584,23.9315688 147.166662,23.5516471 L147.166662,21.6666478 L148.832518,21.6666478 L148.832518,23.5507877 C148.832596,23.9306313 149.089627,24.262428 149.457517,24.357428 C149.984078,24.4933654 150.488921,24.7024279 150.957514,24.978209 C151.285013,25.1718027 151.701965,25.1189902 151.970871,24.8499278 L153.304228,23.5164908 L154.482585,24.6948497 L153.149228,26.0282867 C152.880166,26.2971147 152.827354,26.7141458 153.020869,27.0416457 C153.296728,27.5102393 153.505712,28.0150828 153.641727,28.5416451 C153.736727,28.9095356 154.068445,29.1665667 154.448366,29.1666449 L156.333363,29.1666449 L156.333363,30.8325036 Z M157.166564,27.5000049 C157.626798,27.5000049 157.999922,27.8731297 158,28.3332858 L158,31.6666439 C158,32.1268 157.626876,32.5000029 157.166642,32.5000029 L155.065006,32.5000029 C154.976881,32.7475028 154.876256,32.9903152 154.763366,33.2275026 L156.250003,34.7141427 C156.575315,35.0396113 156.575315,35.5671111 156.250003,35.8925016 L153.892508,38.2499226 C153.56704,38.5752349 153.039541,38.5752349 152.714151,38.2499226 L151.227513,36.7641419 C150.990326,36.8769543 150.747514,36.9776574 150.500015,37.0657824 L150.500015,39.166641 C150.500015,39.626797 150.12689,40 149.666657,40 L146.333304,40 C145.873071,40 145.499946,39.626797 145.499946,39.166641 L145.499946,37.064923 C145.252447,36.9767981 145.009635,36.8761731 144.772448,36.7633606 L143.28581,38.2499226 C142.960342,38.5752349 142.432843,38.5752349 142.107453,38.2499226 L139.749958,35.8925016 C139.424646,35.567033 139.424646,35.0395332 139.749958,34.7141427 L141.235814,33.2275026 C141.123314,32.9903934 141.022768,32.7475028 140.934955,32.5000811 L138.833319,32.5000811 C138.373085,32.5000811 137.999961,32.1268781 137.999961,31.666722 L137.999961,28.3333639 C137.999961,27.8731297 138.373085,27.5000049 138.833319,27.5000049 L140.934955,27.5000049 C141.02308,27.252505 141.123705,27.0096144 141.236595,26.772427 L139.749958,25.2858651 C139.424646,24.9603965 139.424646,24.4328967 139.749958,24.1075062 L142.107453,21.7500071 C142.432921,21.4246948 142.96042,21.4246948 143.28581,21.7500071 L144.772448,23.2358659 C145.009557,23.1232097 145.252447,23.0228191 145.499868,22.9350067 L145.499868,20.8333669 C145.499868,20.3731327 145.872992,20.0000078 146.333226,20.0000078 L149.666579,20.0000078 C150.126812,20.0000078 150.499937,20.3731327 150.499937,20.8333669 L150.499937,22.9350067 C150.747436,23.0231316 150.990248,23.1237566 151.227513,23.236569 L152.714073,21.7500071 C153.039541,21.4246948 153.56704,21.4246948 153.89243,21.7500071 L156.249925,24.1075062 C156.575237,24.4329748 156.575237,24.9604746 156.249925,25.2858651 L154.764069,26.772427 C154.876881,27.0096144 154.977584,27.252505 155.065709,27.5000049 L157.166564,27.5000049 Z M119.666637,19.9999922 C119.666637,30.1252226 127.874746,38.3333444 137.999961,38.3333444 L137.999961,39.9999844 C126.954279,39.9999844 118,31.045691 118,19.9999922 C118,8.95429338 126.954279,0 137.999961,0 C149.045642,0 157.999922,8.95429338 157.999922,19.9999922 L156.333285,19.9999922 C156.333285,9.87476177 148.125254,1.66663997 137.999961,1.66663997 C127.874746,1.66663997 119.666637,9.87476177 119.666637,19.9999922 Z M147.999941,31.6666283 C147.079474,31.6666283 146.333304,30.9204567 146.333304,29.9999883 C146.333304,29.0795199 147.079474,28.3333483 147.999941,28.3333483 C148.920408,28.3333483 149.666579,29.0795199 149.666579,29.9999883 C149.666579,30.9204567 148.920408,31.6666283 147.999941,31.6666283 M147.999941,26.6666302 C149.840875,26.6666302 151.333294,28.1590515 151.333294,29.9999883 C151.333294,31.8410032 149.840875,33.3333464 147.999941,33.3333464 C146.158929,33.3333464 144.666589,31.8409251 144.666589,29.9999883 C144.666589,28.1590515 146.159008,26.6666302 147.999941,26.6666302 Z M131.089006,27.2554659 L128.156902,30.187496 C130.705647,32.6506982 134.175562,34.1667132 137.99993,34.1667132 L137.99993,35.8333532 C129.255416,35.8333532 122.166601,28.7445278 122.166601,20 C122.166601,11.2554722 129.255416,4.16664681 137.99993,4.16664681 C146.744444,4.16664681 153.833258,11.2554722 153.83318,20 L152.166543,20 C152.166543,12.4557061 146.269132,6.28969286 138.833053,5.8583649 L138.833053,10.0000039 L137.166416,10.0000039 L137.166416,5.85844302 C133.672751,6.06117732 130.519241,7.52961425 128.157058,9.81242585 L131.089006,12.7443778 L129.91057,13.9228149 L127.027295,11.039691 C125.19558,13.2800807 124.03691,16.0916422 123.858395,19.1664847 L127.999949,19.1664847 L127.999949,20.8331247 L123.858395,20.8331247 C124.036754,23.9080453 125.195423,26.7198411 127.027217,28.960309 L129.910492,26.0769508 L131.089006,27.2554659 Z M137.166603,19.6550704 L137.166603,13.3335104 L138.833241,13.3335104 L138.833241,20.0001484 C138.833241,20.2210859 138.745428,20.4330389 138.5891,20.5892888 L134.422468,24.7559278 L133.244111,23.5775689 L137.166603,19.6550704 Z" id="Fill-3"></path>
                    </g>
                </g>
            </g>
        </g>
    </g>
</svg>