<?xml version="1.0" encoding="UTF-8"?>
<svg width="29px" height="30px" viewBox="0 0 29 30" version="1.1" xmlns="http://www.w3.org/2000/svg" xmlns:xlink="http://www.w3.org/1999/xlink">
    <!-- Generator: Sketch 51.3 (57544) - http://www.bohemiancoding.com/sketch -->
    <title>Fill 1</title>
    <desc>Created with Sketch.</desc>
    <defs></defs>
    <g id="Page-2" stroke="none" stroke-width="1" fill="none" fill-rule="evenodd">
        <g id="13.Page-tìm-web-mẫu" transform="translate(-1120.000000, -432.000000)" fill="#F5A623">
            <g id="Group" transform="translate(260.000000, 310.000000)">
                <g id="Group-2" transform="translate(0.000000, 122.000000)">
                    <g id="Search">
                        <path d="M862.067404,11.6656972 C862.067404,6.4046758 866.253897,2.11143841 871.422407,2.11143841 C876.573709,2.11143841 880.77741,6.38710118 880.77741,11.6656972 C880.77741,16.9442932 876.590917,21.2200181 871.422407,21.2200181 C866.253897,21.2200181 862.067404,16.9267807 862.067404,11.6656972 Z M879.795393,19.5835912 C881.673265,17.5073642 882.844814,14.727345 882.844814,11.6656972 C882.844814,5.24338468 877.727989,0 871.422407,0 C865.116825,0 860,5.24338468 860,11.6656972 C860,18.0880097 865.116825,23.3314565 871.422407,23.3314565 C873.989454,23.3314565 876.3497,22.4693065 878.262048,21.0088122 L886.755613,29.6833463 C886.962353,29.8944281 887.220779,30 887.479204,30 C887.73763,30 888.013263,29.8944281 888.202795,29.6833463 C888.599068,29.2785712 888.599068,28.6100525 888.202795,28.1877648 L879.795393,19.5835912 Z" id="Fill-1"></path>
                    </g>
                </g>
            </g>
        </g>
    </g>
</svg>