<?xml version="1.0" encoding="UTF-8"?>
<svg width="18px" height="18px" viewBox="0 0 18 18" version="1.1" xmlns="http://www.w3.org/2000/svg" xmlns:xlink="http://www.w3.org/1999/xlink">
    <!-- Generator: Sketch 51.3 (57544) - http://www.bohemiancoding.com/sketch -->
    <title>Fill 1</title>
    <desc>Created with Sketch.</desc>
    <defs></defs>
    <g id="Symbols" stroke="none" stroke-width="1" fill="none" fill-rule="evenodd">
        <g id="Breadcrumb" transform="translate(0.000000, -2.000000)" fill="#7D7D7D">
            <path d="M15.0436782,11.3000907 C14.7547701,11.3000907 14.5197515,11.5359268 14.5197515,11.8258399 L14.5197515,18.9485017 L11.4323268,18.9485017 L11.4323268,13.4218641 C11.4323268,13.131951 11.1973083,12.8961149 10.9084002,12.8961149 L6.98523759,12.8961149 C6.69632948,12.8961149 6.46131097,13.131951 6.46131097,13.4218641 L6.46131097,18.9485017 L3.16177077,18.9485017 L3.16177077,11.8258399 C3.16177077,11.5359268 2.92675226,11.3000907 2.63784415,11.3000907 L1.8314088,11.3000907 L9.17128401,3.26014684 L16.203502,11.3000907 L15.0436782,11.3000907 Z M17.8441034,11.4540977 L9.55453634,2.15513478 C9.35016753,1.95227071 9.02428517,1.94768918 8.82597894,2.14537086 L0.162141153,11.4478638 L0.159558943,11.4502297 C0.0057116317,11.5960499 -0.0417785745,11.823474 0.0385693158,12.0295677 C0.114875486,12.2251839 0.302778028,12.351589 0.517176288,12.351589 L2.11391752,12.351589 L2.11391752,19.4742508 C2.11391752,19.7641639 2.34897346,20 2.63784415,20 L6.98523759,20 C7.2741457,20 7.50916422,19.7641639 7.50916422,19.4742508 L7.50916422,13.9476133 L10.384511,13.9476133 L10.384511,19.4742508 C10.384511,19.7641639 10.6195295,20 10.9084376,20 L15.0437156,20 C15.3326237,20 15.5676422,19.7641639 15.5676422,19.4742508 L15.5676422,12.351589 L17.4824818,12.351589 C17.6902187,12.351589 17.8827991,12.2215037 17.9617624,12.0279529 C18.0405759,11.8345523 17.9950317,11.6057763 17.8484071,11.4586416 L17.8441034,11.4540977 Z" id="Fill-1"></path>
        </g>
    </g>
</svg>