<?xml version="1.0" encoding="UTF-8"?>
<svg width="42px" height="42px" viewBox="0 0 42 42" version="1.1" xmlns="http://www.w3.org/2000/svg" xmlns:xlink="http://www.w3.org/1999/xlink">
    <!-- Generator: Sketch 51.3 (57544) - http://www.bohemiancoding.com/sketch -->
    <title>Fill 1</title>
    <desc>Created with Sketch.</desc>
    <defs></defs>
    <g id="Page-2" stroke="none" stroke-width="1" fill="none" fill-rule="evenodd">
        <g id="01.-Home" transform="translate(-1079.000000, -3195.000000)" fill="#FBAF21" stroke="#FFFFFF" stroke-width="0.6">
            <g id="Our-service" transform="translate(0.000000, 2660.000000)">
                <g id="GG-ads" transform="translate(930.000000, 486.000000)">
                    <g id="Group-3">
                        <path d="M179.4435,87.3913281 C177.744988,87.3913281 176.247802,86.3053906 175.718663,84.6917969 L171.371795,71.3391406 L176.521943,55.5180469 L186.89927,87.3914063 L179.4435,87.3914063 L179.4435,87.3913281 Z M164.282353,84.6892188 C163.752354,86.3053906 162.255091,87.3913281 160.556656,87.3913281 L153.100808,87.3913281 L164.425321,52.6086719 L174.725383,52.6086719 L164.282353,84.6892188 Z M189.935905,88.2917188 L177.762019,50.9005469 C177.5878,50.3653125 177.085379,50 176.521786,50 L176.521708,50 L163.478292,50 C162.913527,50 162.412903,50.3635156 162.238059,50.9004688 L150.064095,88.2917188 C149.934798,88.6888281 150.00347,89.1239844 150.24886,89.4619531 C150.49425,89.7999219 150.88675,90 151.304405,90 L160.556578,90 C163.385479,90 165.878913,88.1924219 166.762036,85.4992969 L170,75.5527344 L173.238901,85.5020313 C174.121165,88.1924219 176.614599,90 179.4435,90 L188.695673,90 C189.113329,90 189.50575,89.8 189.75114,89.4620312 C189.99653,89.1240625 190.065202,88.6889063 189.935905,88.2917188 Z" id="Fill-1"></path>
                    </g>
                </g>
            </g>
        </g>
    </g>
</svg>