<?xml version="1.0" encoding="UTF-8"?>
<svg width="42px" height="42px" viewBox="0 0 42 42" version="1.1" xmlns="http://www.w3.org/2000/svg" xmlns:xlink="http://www.w3.org/1999/xlink">
    <!-- Generator: Sketch 51.3 (57544) - http://www.bohemiancoding.com/sketch -->
    <title>Fill 1</title>
    <desc>Created with Sketch.</desc>
    <defs></defs>
    <g id="Page-2" stroke="none" stroke-width="1" fill="none" fill-rule="evenodd">
        <g id="01.-Home" transform="translate(-319.000000, -3647.000000)" fill="#FBAF21" stroke="#FBAF21" stroke-width="0.3">
            <g id="Our-service" transform="translate(0.000000, 2660.000000)">
                <g id="SEO-ser" transform="translate(170.000000, 938.000000)">
                    <g id="Group-4" transform="translate(31.000000, 50.000000)">
                        <path d="M132.126359,14.375 L132.126359,13.125 L133.376359,13.125 L133.376359,14.375 L132.126359,14.375 Z M134.626359,14.375 L134.626359,13.125 L135.876359,13.125 L135.876359,14.375 L134.626359,14.375 Z M144.626359,26.875 L144.626359,25.625 L145.876359,25.625 L145.876359,26.875 L144.626359,26.875 Z M132.126359,17.5 L132.126359,16.25 L143.376359,16.25 L143.376359,17.5 L132.126359,17.5 Z M132.126359,20.625 L132.126359,19.375 L145.876359,19.375 L145.876359,20.625 L132.126359,20.625 Z M132.126359,23.75 L132.126359,22.5 L145.876359,22.5 L145.876359,23.75 L132.126359,23.75 Z M132.126359,26.875 L132.126359,25.625 L143.376359,25.625 L143.376359,26.875 L132.126359,26.875 Z M140.830859,38.75 C143.343516,36.6541406 145.384219,34.0975 146.865078,31.25 L153.997734,31.25 C153.305781,32.1707031 152.519766,33.04125 151.638125,33.84625 C151.631016,33.8527344 151.624141,33.8592969 151.617344,33.8660937 C151.373281,34.1102344 151.373359,34.5059375 151.6175,34.75 L155.617578,38.75 L140.830859,38.75 Z M139.626328,31.25 L145.450859,31.25 C143.992891,33.8705469 142.024687,36.211875 139.626328,38.12 L139.626328,31.25 Z M131.896172,30 C130.421328,26.9209375 129.625313,23.51125 129.626406,20 C129.629922,16.4885156 130.428828,13.0791406 131.905,10 L146.106406,10 C147.58125,13.0790625 148.377344,16.48875 148.37625,20 C148.372656,23.5114844 147.573906,26.9208594 146.097656,30 L131.896172,30 Z M138.376406,38.1246094 C135.972969,36.216875 134.001563,33.8735938 132.542734,31.25 L138.376406,31.25 L138.376406,38.1246094 Z M124.000469,31.25 L131.1375,31.25 C132.595,34.0522656 134.594766,36.5726563 137.052812,38.6496094 C131.722109,38.0991406 127.054375,35.3155469 124.000469,31.25 Z M120.251406,20 L128.376406,20 C128.382344,23.4974219 129.13625,26.8980469 130.532109,30 L123.138984,30 C121.310547,27.105625 120.251406,23.6767969 120.251406,20 Z M123.138984,10 L130.532031,10 C129.303047,12.7310156 128.572344,15.6936719 128.411016,18.75 L120.29375,18.75 C120.504688,15.5467969 121.519375,12.5635938 123.138984,10 Z M138.376406,1.88 L138.376406,8.75 L132.551875,8.75 C134.009844,6.12945312 135.977969,3.788125 138.376406,1.88 Z M137.052812,1.35039062 C134.594844,3.42734375 132.595,5.94773437 131.1375,8.75 L124.000469,8.75 C127.054375,4.68445313 131.722109,1.90085938 137.052812,1.35039062 Z M139.626328,1.87539063 C142.029766,3.783125 144.001094,6.12640625 145.46,8.75 L139.626328,8.75 L139.626328,1.87539063 Z M152.841484,7.35703125 C153.2525,7.8071875 153.636562,8.27242188 153.995625,8.75 L146.866484,8.75 C145.41,5.94890625 143.411719,3.429375 140.955703,1.35273438 C145.496172,1.82992188 149.732812,3.9525 152.841484,7.35703125 Z M157.703125,18.75 L149.591797,18.75 C149.430703,15.6936719 148.700312,12.7310937 147.471719,10 L154.859609,10 C156.55875,12.6885937 157.501484,15.7025781 157.703125,18.75 Z M154.86,30 L147.470547,30 C148.866484,26.8980469 149.620313,23.4974219 149.626328,20 L157.744844,20 C157.743828,23.4871875 156.775234,26.9653906 154.86,30 Z M152.958828,34.323125 C156.821953,30.5582813 159.000391,25.3928125 159,19.9986719 C158.999375,8.95296875 150.044453,-0.000703125 138.998672,0 C127.953047,0.000703125 118.999375,8.955625 119,20.0013281 C119.000703,31.0469531 127.955625,40.0007031 139.001406,40 L157.126328,40 C157.292031,40 157.450938,39.9341406 157.568047,39.8170312 C157.812187,39.5729688 157.812187,39.1772656 157.568203,38.933125 L152.958828,34.323125 Z" id="Fill-1"></path>
                    </g>
                </g>
            </g>
        </g>
    </g>
</svg>