<?xml version="1.0" encoding="UTF-8"?>
<svg width="42px" height="42px" viewBox="0 0 42 42" version="1.1" xmlns="http://www.w3.org/2000/svg" xmlns:xlink="http://www.w3.org/1999/xlink">
    <!-- Generator: Sketch 51.3 (57544) - http://www.bohemiancoding.com/sketch -->
    <title>Fill 1</title>
    <desc>Created with Sketch.</desc>
    <defs></defs>
    <g id="Page-2" stroke="none" stroke-width="1" fill="none" fill-rule="evenodd">
        <g id="01.-Home" transform="translate(-699.000000, -3647.000000)" fill="#FBAF21" stroke="#FFFFFF" stroke-width="0.5">
            <g id="Our-service" transform="translate(0.000000, 2660.000000)">
                <g id="FB-Adv" transform="translate(550.000000, 938.000000)">
                    <g id="Group-5" transform="translate(31.000000, 50.000000)">
                        <path d="M122.306934,2.47180281 C121.845899,2.47180281 121.471144,2.84655788 121.471144,3.30759225 L121.471144,36.6910905 C121.471144,37.1527835 121.845899,37.5288558 122.306934,37.5288558 L139.044457,37.5288558 L139.044457,25.4668796 L135.389772,25.4668796 C134.707441,25.4668796 134.153541,24.9129798 134.153541,24.2306489 L134.153541,18.5665124 C134.153541,17.883523 134.707441,17.3302817 135.389772,17.3302817 L139.044457,17.3302817 L139.044457,14.3895411 C139.044457,9.09028041 142.387615,5.66677095 147.563713,5.66677095 C149.796437,5.66677095 151.626743,5.8386709 152.092388,5.89926399 C152.70754,5.97895707 153.168574,6.50387763 153.168574,7.12429816 L153.168574,12.1904072 C153.168574,12.8727381 152.615991,13.4259793 151.933002,13.4266379 L148.934303,13.4272965 C147.435941,13.4272965 147.36481,13.7934895 147.36481,14.9487099 L147.36481,17.3289645 L151.738709,17.3289645 C152.094364,17.3289645 152.432236,17.4817644 152.666705,17.7485058 C152.901174,18.0159057 153.009846,18.3709021 152.964402,18.7232641 L152.230698,24.386742 C152.151005,25.0032108 151.626085,25.4642451 151.004347,25.4642451 L147.364151,25.4642451 L147.364151,37.5268799 L155.690432,37.5268799 C156.152125,37.5268799 156.528197,37.1514663 156.528197,36.6910905 L156.528197,3.30627501 C156.528197,2.84589926 156.152125,2.47180281 155.691091,2.47180281 L122.306934,2.47180281 Z M140.280029,40 L122.306934,40 C120.483213,40 119,38.516128 119,36.6910905 L119,3.30759225 C119,1.48387203 120.483213,0 122.306934,0 L155.691091,0 C157.514811,0 158.998683,1.48255479 159,3.30561639 L159,36.6910905 C159,38.5154693 157.515469,39.9986828 155.690432,39.9986828 L146.127921,39.9986828 C145.44559,39.9986828 144.892348,39.4447829 144.892348,38.762452 L144.892348,24.2280144 C144.892348,23.5456836 145.44559,22.9924423 146.127921,22.9924423 L149.918282,22.9924423 L150.332554,19.8001087 L146.128579,19.8001087 C145.446248,19.8001087 144.893007,19.2468674 144.893007,18.5645366 L144.893007,14.9487099 C144.893007,13.9614378 144.893007,10.9561523 148.933644,10.9561523 L150.696771,10.9554937 L150.696771,8.25053925 C149.889961,8.19258064 148.76833,8.13857376 147.563713,8.13857376 C143.720663,8.13857376 141.51626,10.4167421 141.51626,14.3895411 L141.51626,18.5665124 C141.51626,19.2488433 140.96236,19.8020845 140.280029,19.8020845 L136.625344,19.8020845 L136.625344,22.9950768 L140.280029,22.9950768 C140.96236,22.9950768 141.51626,23.548318 141.51626,24.2306489 L141.51626,38.7644279 C141.51626,39.4467588 140.96236,40 140.280029,40 Z" id="Fill-1"></path>
                    </g>
                </g>
            </g>
        </g>
    </g>
</svg>